G04 #@! TF.FileFunction,Copper,L2,Bot,Signal*
%FSLAX46Y46*%
G04 Gerber Fmt 4.6, Leading zero omitted, Abs format (unit mm)*
G04 Created by KiCad (PCBNEW 4.0.7) date 08/28/19 13:25:43*
%MOMM*%
%LPD*%
G01*
G04 APERTURE LIST*
%ADD10C,0.100000*%
%ADD11R,3.200000X3.200000*%
%ADD12O,3.200000X3.200000*%
%ADD13C,1.600000*%
%ADD14O,1.600000X1.600000*%
%ADD15R,2.000000X2.600000*%
%ADD16O,2.000000X2.600000*%
%ADD17C,1.440000*%
%ADD18C,2.400000*%
%ADD19O,2.400000X2.400000*%
%ADD20R,1.600000X1.600000*%
%ADD21R,2.200000X2.200000*%
%ADD22O,2.200000X2.200000*%
%ADD23R,1.800000X1.800000*%
%ADD24C,1.800000*%
%ADD25R,3.000000X3.000000*%
%ADD26C,3.000000*%
%ADD27C,1.000000*%
%ADD28R,1.000000X1.000000*%
%ADD29C,2.500000*%
%ADD30C,4.064000*%
%ADD31O,1.800000X1.800000*%
%ADD32R,1.700000X1.700000*%
%ADD33O,1.700000X1.700000*%
%ADD34R,2.600000X2.000000*%
%ADD35O,2.600000X2.000000*%
%ADD36R,2.400000X2.400000*%
%ADD37C,0.600000*%
%ADD38C,4.000000*%
%ADD39C,0.500000*%
%ADD40C,2.000000*%
%ADD41C,1.000000*%
%ADD42C,0.635000*%
G04 APERTURE END LIST*
D10*
D11*
X57366800Y-123296000D03*
D12*
X57366800Y-110596000D03*
D13*
X128412240Y-62169040D03*
D14*
X120792240Y-62169040D03*
D13*
X116621560Y-76083160D03*
X111621560Y-76083160D03*
D15*
X142544800Y-64008000D03*
D16*
X145084800Y-64008000D03*
X147624800Y-64008000D03*
D13*
X127330200Y-66789300D03*
D14*
X127330200Y-74409300D03*
D13*
X130733800Y-81950560D03*
D14*
X138353800Y-81950560D03*
D17*
X99314000Y-95504000D03*
X101854000Y-95504000D03*
X104394000Y-95504000D03*
D13*
X107635040Y-100203000D03*
D14*
X115255040Y-100203000D03*
D13*
X115290600Y-108940600D03*
X120290600Y-108940600D03*
X119761000Y-79629000D03*
D14*
X119761000Y-87249000D03*
D18*
X75107800Y-135178800D03*
D19*
X103047800Y-135178800D03*
D13*
X130175000Y-89268300D03*
X125175000Y-89268300D03*
X122936000Y-84455000D03*
X122936000Y-79455000D03*
X94691200Y-73314560D03*
X89691200Y-73314560D03*
D20*
X88582500Y-61341000D03*
D14*
X80962500Y-61341000D03*
D20*
X88544400Y-64274700D03*
D14*
X80924400Y-64274700D03*
D21*
X91630500Y-93218000D03*
D22*
X91630500Y-100838000D03*
D20*
X96979740Y-72280780D03*
D14*
X104599740Y-72280780D03*
D21*
X138544300Y-95059500D03*
D22*
X130924300Y-95059500D03*
D23*
X137520680Y-53812440D03*
D24*
X137520680Y-51272440D03*
D25*
X56972200Y-104460040D03*
D26*
X56972200Y-99380040D03*
X56972200Y-94300040D03*
D25*
X144373600Y-128117600D03*
D26*
X144373600Y-133197600D03*
D27*
X118745000Y-91567000D03*
X120015000Y-90297000D03*
D28*
X120015000Y-92837000D03*
D27*
X73914000Y-76301600D03*
X75184000Y-77571600D03*
D28*
X72644000Y-77571600D03*
D13*
X87439500Y-122618500D03*
D14*
X87439500Y-114998500D03*
D18*
X67894200Y-52730400D03*
D19*
X80594200Y-52730400D03*
D18*
X86944200Y-67894200D03*
D19*
X74244200Y-67894200D03*
D13*
X95186500Y-100965000D03*
D14*
X95186500Y-93345000D03*
D13*
X98044000Y-88138000D03*
D14*
X105664000Y-88138000D03*
D13*
X98044000Y-91440000D03*
D14*
X105664000Y-91440000D03*
D18*
X91211400Y-115128040D03*
D19*
X119151400Y-115128040D03*
D13*
X125907800Y-86106000D03*
D14*
X133527800Y-86106000D03*
D13*
X109077760Y-72395080D03*
D14*
X116697760Y-72395080D03*
D13*
X107721400Y-103987600D03*
D14*
X115341400Y-103987600D03*
D13*
X122796300Y-106489500D03*
D14*
X122796300Y-98869500D03*
D13*
X119405400Y-98729800D03*
D14*
X119405400Y-106349800D03*
D18*
X123748800Y-109971840D03*
D19*
X136448800Y-109971840D03*
D13*
X141046200Y-58254900D03*
D14*
X148666200Y-58254900D03*
D13*
X104729280Y-85425280D03*
D14*
X104729280Y-77805280D03*
D13*
X73660000Y-72237600D03*
D14*
X81280000Y-72237600D03*
D13*
X85801200Y-78689200D03*
D14*
X85801200Y-71069200D03*
D13*
X101335840Y-85425280D03*
D14*
X101335840Y-77805280D03*
D13*
X125730000Y-52578000D03*
D14*
X133350000Y-52578000D03*
D29*
X142684500Y-94763600D03*
X142684500Y-99763600D03*
X142684500Y-89763600D03*
X142684500Y-76285100D03*
X142684500Y-81285100D03*
X142684500Y-71285100D03*
D20*
X90302080Y-76499720D03*
D14*
X97922080Y-84119720D03*
X90302080Y-79039720D03*
X97922080Y-81579720D03*
X90302080Y-81579720D03*
X97922080Y-79039720D03*
X90302080Y-84119720D03*
X97922080Y-76499720D03*
D20*
X116332000Y-79248000D03*
D14*
X108712000Y-86868000D03*
X113792000Y-79248000D03*
X111252000Y-86868000D03*
X111252000Y-79248000D03*
X113792000Y-86868000D03*
X108712000Y-79248000D03*
X116332000Y-86868000D03*
D20*
X85496400Y-54368700D03*
D13*
X90496400Y-54368700D03*
D20*
X72732900Y-60769500D03*
D13*
X77732900Y-60769500D03*
D20*
X138163300Y-101663500D03*
D13*
X133163300Y-101663500D03*
X109082840Y-97307400D03*
D14*
X109082840Y-89687400D03*
D18*
X76555600Y-127457200D03*
D19*
X104495600Y-127457200D03*
D18*
X133985000Y-135191500D03*
D19*
X106045000Y-135191500D03*
D18*
X135763000Y-127508000D03*
D19*
X107823000Y-127508000D03*
D30*
X53000000Y-53000000D03*
X53000000Y-147000000D03*
X147000000Y-53000000D03*
X147000000Y-147000000D03*
D20*
X119303800Y-58293000D03*
D13*
X119303800Y-53293000D03*
X107599480Y-61244480D03*
D14*
X99979480Y-61244480D03*
D23*
X137464800Y-58841640D03*
D24*
X137464800Y-56301640D03*
D13*
X125740160Y-55697120D03*
D14*
X133360160Y-55697120D03*
D21*
X107680760Y-57698640D03*
D22*
X100060760Y-57698640D03*
D18*
X112826800Y-53975000D03*
D19*
X100126800Y-53975000D03*
D20*
X94300040Y-52390040D03*
D14*
X94300040Y-60010040D03*
D20*
X96951800Y-60071000D03*
D14*
X96951800Y-52451000D03*
D17*
X89471500Y-88836500D03*
X92011500Y-88836500D03*
X94551500Y-88836500D03*
D13*
X83124040Y-77784960D03*
X78124040Y-77784960D03*
D21*
X86868000Y-102565200D03*
D22*
X86868000Y-94945200D03*
D23*
X137058400Y-145796000D03*
D31*
X134518400Y-145796000D03*
X131978400Y-145796000D03*
D32*
X86893400Y-81762600D03*
D33*
X86893400Y-84302600D03*
D13*
X112430560Y-89743280D03*
D14*
X112430560Y-97363280D03*
D13*
X115595400Y-89804240D03*
D14*
X115595400Y-97424240D03*
D32*
X119725440Y-76611480D03*
D33*
X119725440Y-74071480D03*
D32*
X93929200Y-105435400D03*
D33*
X91389200Y-105435400D03*
D13*
X136682480Y-65044320D03*
X131682480Y-65044320D03*
D34*
X144576800Y-106934000D03*
D35*
X144576800Y-109474000D03*
X144576800Y-112014000D03*
D15*
X93014800Y-65532000D03*
D16*
X95554800Y-65532000D03*
D32*
X105918000Y-68999100D03*
D33*
X103378000Y-68999100D03*
X100838000Y-68999100D03*
D32*
X105587800Y-65024000D03*
D33*
X103047800Y-65024000D03*
X100507800Y-65024000D03*
D13*
X129809240Y-78623160D03*
D14*
X137429240Y-78623160D03*
D13*
X133273800Y-59207400D03*
D14*
X125653800Y-59207400D03*
D13*
X136321800Y-85994240D03*
D14*
X143941800Y-85994240D03*
D13*
X139560300Y-90614500D03*
D14*
X131940300Y-90614500D03*
D20*
X130416300Y-75590400D03*
D14*
X138036300Y-67970400D03*
X132956300Y-75590400D03*
X135496300Y-67970400D03*
X135496300Y-75590400D03*
X132956300Y-67970400D03*
X138036300Y-75590400D03*
X130416300Y-67970400D03*
D13*
X130622040Y-62138560D03*
X135622040Y-62138560D03*
X108463080Y-75300840D03*
X103463080Y-75300840D03*
D11*
X57366800Y-71296000D03*
D12*
X57366800Y-58596000D03*
D11*
X56366800Y-141296000D03*
D12*
X56366800Y-128596000D03*
D11*
X57366800Y-88296000D03*
D12*
X57366800Y-75596000D03*
D36*
X79237840Y-90246200D03*
D18*
X71737840Y-90246200D03*
D36*
X79532480Y-110871000D03*
D18*
X72032480Y-110871000D03*
D30*
X70241160Y-132379720D03*
X67558920Y-62250320D03*
X70129400Y-124668280D03*
X67589400Y-68580000D03*
D23*
X100965000Y-145770600D03*
D31*
X98425000Y-145770600D03*
X95885000Y-145770600D03*
D23*
X118999000Y-145770600D03*
D31*
X116459000Y-145770600D03*
X113919000Y-145770600D03*
D23*
X83058000Y-145770600D03*
D31*
X80518000Y-145770600D03*
X77978000Y-145770600D03*
D23*
X64770000Y-145821400D03*
D31*
X62230000Y-145821400D03*
X59690000Y-145821400D03*
D37*
X108625640Y-108966000D03*
X105044240Y-109042200D03*
X102529640Y-110606840D03*
X99974400Y-112318800D03*
X96926400Y-113157000D03*
X126126240Y-72481440D03*
X126898400Y-71506080D03*
X127822960Y-70129400D03*
X107411520Y-85755480D03*
X107543600Y-85049360D03*
X112237520Y-82453480D03*
X110337600Y-83596480D03*
X108996480Y-83682840D03*
X105531920Y-89799160D03*
X106593640Y-89743280D03*
X107320080Y-90134440D03*
X111252000Y-73050400D03*
X112552480Y-72847200D03*
X113751360Y-72562720D03*
X114848640Y-72217280D03*
X73228200Y-51435000D03*
X70789800Y-51399440D03*
X71287640Y-52501800D03*
X71551800Y-53533040D03*
X138836400Y-103555800D03*
X140665200Y-103063040D03*
X142229840Y-102986840D03*
X143830040Y-103139240D03*
X148249640Y-95824040D03*
X148437600Y-94376240D03*
X147599400Y-92776040D03*
X147411440Y-90906600D03*
X147030440Y-88737440D03*
X145963640Y-87782400D03*
X117403880Y-97485200D03*
D38*
X70129400Y-124668280D02*
X70129400Y-123383040D01*
X70129400Y-123383040D02*
X73482200Y-120030240D01*
X73482200Y-120030240D02*
X79532480Y-120030240D01*
X67589400Y-68580000D02*
X65476120Y-68580000D01*
X65476120Y-68580000D02*
X62529720Y-71526400D01*
D39*
X86868000Y-102565200D02*
X81721960Y-102565200D01*
X81721960Y-102565200D02*
X79237840Y-100081080D01*
X87439500Y-122618500D02*
X87114380Y-122618500D01*
X87114380Y-122618500D02*
X84129880Y-125603000D01*
D38*
X79532480Y-110871000D02*
X79532480Y-120030240D01*
X79532480Y-120030240D02*
X79532480Y-121005600D01*
X84129880Y-125603000D02*
X84129880Y-140817600D01*
X79532480Y-121005600D02*
X84129880Y-125603000D01*
X79237840Y-90246200D02*
X79237840Y-100081080D01*
X79237840Y-100081080D02*
X79237840Y-110576360D01*
X79237840Y-110576360D02*
X79532480Y-110871000D01*
X57366800Y-71296000D02*
X62529720Y-71526400D01*
X79237840Y-87396320D02*
X79237840Y-90246200D01*
X76779120Y-84937600D02*
X79237840Y-87396320D01*
X70073520Y-84937600D02*
X76779120Y-84937600D01*
X68844160Y-83708240D02*
X70073520Y-84937600D01*
X68844160Y-77840840D02*
X68844160Y-83708240D01*
X62529720Y-71526400D02*
X68844160Y-77840840D01*
X56366800Y-141296000D02*
X67767200Y-141097000D01*
X67767200Y-141097000D02*
X68046600Y-140817600D01*
D39*
X119405400Y-106349800D02*
X117911880Y-106349800D01*
X95443040Y-106949240D02*
X93929200Y-105435400D01*
X117312440Y-106949240D02*
X95443040Y-106949240D01*
X117911880Y-106349800D02*
X117312440Y-106949240D01*
X86868000Y-102565200D02*
X86868000Y-105689400D01*
X86868000Y-105689400D02*
X88925400Y-107746800D01*
X88925400Y-107746800D02*
X91617800Y-107746800D01*
X91617800Y-107746800D02*
X93929200Y-105435400D01*
X125740160Y-55697120D02*
X125740160Y-55646320D01*
X125740160Y-55646320D02*
X124256800Y-54864000D01*
X100126800Y-51943000D02*
X100126800Y-53975000D01*
X100698300Y-51371500D02*
X100126800Y-51943000D01*
X123812300Y-51371500D02*
X100698300Y-51371500D01*
X124256800Y-51816000D02*
X123812300Y-51371500D01*
X124256800Y-54864000D02*
X124256800Y-51816000D01*
X100126800Y-53975000D02*
X100190300Y-53975000D01*
X86868000Y-102565200D02*
X86868000Y-103380540D01*
D38*
X68046600Y-140817600D02*
X77762100Y-140817600D01*
D40*
X80518000Y-145770600D02*
X80460000Y-143515500D01*
D38*
X77762100Y-140817600D02*
X84129880Y-140817600D01*
X84129880Y-140817600D02*
X95491300Y-140817600D01*
D40*
X80460000Y-143515500D02*
X77762100Y-140817600D01*
X134518400Y-145796000D02*
X134460000Y-144048500D01*
X134460000Y-144048500D02*
X131229100Y-140817600D01*
D38*
X113830100Y-140817600D02*
X131229100Y-140817600D01*
X132562600Y-140817600D02*
X132842000Y-141097000D01*
X131229100Y-140817600D02*
X132562600Y-140817600D01*
D40*
X98425000Y-145770600D02*
X98460000Y-143786300D01*
D38*
X95491300Y-140817600D02*
X113830100Y-140817600D01*
D40*
X116460000Y-143447500D02*
X113830100Y-140817600D01*
X116459000Y-145770600D02*
X116460000Y-143447500D01*
X98460000Y-143786300D02*
X95491300Y-140817600D01*
X62230000Y-145821400D02*
X62460000Y-142645000D01*
X62460000Y-142645000D02*
X64287400Y-140817600D01*
X64287400Y-140817600D02*
X68046600Y-140817600D01*
D39*
X104094280Y-109042200D02*
X105044240Y-109042200D01*
X102529640Y-110606840D02*
X104094280Y-109042200D01*
X97764600Y-112318800D02*
X99974400Y-112318800D01*
X96926400Y-113157000D02*
X97764600Y-112318800D01*
X126126240Y-72481440D02*
X126898400Y-71709280D01*
X126898400Y-71709280D02*
X126898400Y-71506080D01*
X127822960Y-70129400D02*
X127924560Y-70027800D01*
X127924560Y-70027800D02*
X127985520Y-70027800D01*
X107243880Y-85923120D02*
X107411520Y-85755480D01*
X107320080Y-90134440D02*
X107243880Y-85923120D01*
X109082840Y-83596480D02*
X110337600Y-83596480D01*
X108996480Y-83682840D02*
X109082840Y-83596480D01*
X106928920Y-89743280D02*
X106593640Y-89743280D01*
X107320080Y-90134440D02*
X106928920Y-89743280D01*
X108463080Y-75300840D02*
X109001560Y-75300840D01*
X109001560Y-75300840D02*
X111252000Y-73050400D01*
X112552480Y-72847200D02*
X112836960Y-72562720D01*
X112836960Y-72562720D02*
X113751360Y-72562720D01*
X72732900Y-60769500D02*
X72732900Y-54714140D01*
X70789800Y-52003960D02*
X70789800Y-51399440D01*
X71287640Y-52501800D02*
X70789800Y-52003960D01*
X72732900Y-54714140D02*
X71551800Y-53533040D01*
X144576800Y-112014000D02*
X146309080Y-112014000D01*
X142153640Y-103063040D02*
X140665200Y-103063040D01*
X142229840Y-102986840D02*
X142153640Y-103063040D01*
X145735040Y-103139240D02*
X143830040Y-103139240D01*
X147523200Y-104927400D02*
X145735040Y-103139240D01*
X147523200Y-110799880D02*
X147523200Y-104927400D01*
X146309080Y-112014000D02*
X147523200Y-110799880D01*
X148249640Y-94564200D02*
X148249640Y-95824040D01*
X148437600Y-94376240D02*
X148249640Y-94564200D01*
X147599400Y-91094560D02*
X147599400Y-92776040D01*
X147411440Y-90906600D02*
X147599400Y-91094560D01*
X146918680Y-88737440D02*
X147030440Y-88737440D01*
X145963640Y-87782400D02*
X146918680Y-88737440D01*
X108712000Y-79248000D02*
X108712000Y-79375000D01*
X120015000Y-93253560D02*
X117403880Y-95864680D01*
X117403880Y-95864680D02*
X117403880Y-97485200D01*
X120015000Y-92837000D02*
X120015000Y-93253560D01*
X99979480Y-61244480D02*
X100185220Y-61244480D01*
X138036300Y-75590400D02*
X138036300Y-75402440D01*
X94642940Y-60352940D02*
X94300040Y-60010040D01*
X88582500Y-61341000D02*
X89141300Y-61341000D01*
X148666200Y-58254900D02*
X148666200Y-57810400D01*
X108574840Y-96799400D02*
X109082840Y-97307400D01*
X108712000Y-79248000D02*
X108585000Y-79248000D01*
X87439500Y-114998500D02*
X91211400Y-115128040D01*
X108712000Y-79248000D02*
X108712000Y-79527400D01*
D41*
X80594200Y-52730400D02*
X83858100Y-52730400D01*
X83858100Y-52730400D02*
X85496400Y-54368700D01*
D39*
X88544400Y-64274700D02*
X88544400Y-64008000D01*
X88544400Y-64008000D02*
X90246200Y-62306200D01*
X90246200Y-62306200D02*
X90246200Y-54618900D01*
X90246200Y-54618900D02*
X90496400Y-54368700D01*
X80962500Y-61341000D02*
X82351880Y-61341000D01*
X85285580Y-64274700D02*
X88544400Y-64274700D01*
X82351880Y-61341000D02*
X85285580Y-64274700D01*
D41*
X74244200Y-64258200D02*
X77732900Y-60769500D01*
X74244200Y-67894200D02*
X74244200Y-64258200D01*
D39*
X144576800Y-109474000D02*
X141986000Y-109474000D01*
X121691400Y-112588040D02*
X119151400Y-115128040D01*
X121691400Y-109006640D02*
X121691400Y-112588040D01*
X122834400Y-107863640D02*
X121691400Y-109006640D01*
X127025400Y-107863640D02*
X122834400Y-107863640D01*
X131292600Y-112130840D02*
X127025400Y-107863640D01*
X139329160Y-112130840D02*
X131292600Y-112130840D01*
X141986000Y-109474000D02*
X139329160Y-112130840D01*
X105664000Y-91440000D02*
X108092240Y-91440000D01*
X108092240Y-91440000D02*
X112430560Y-95778320D01*
X112430560Y-95778320D02*
X112430560Y-97363280D01*
D38*
X119151400Y-115128040D02*
X119151400Y-117139720D01*
X119151400Y-117139720D02*
X119166640Y-117124480D01*
X119166640Y-117124480D02*
X140258800Y-117124480D01*
X140258800Y-117124480D02*
X144373600Y-121239280D01*
X144373600Y-121239280D02*
X144373600Y-128117600D01*
D39*
X130175000Y-89268300D02*
X130594100Y-89268300D01*
X130594100Y-89268300D02*
X131940300Y-90614500D01*
X131940300Y-90614500D02*
X131940300Y-94043500D01*
X131940300Y-94043500D02*
X130924300Y-95059500D01*
X130175000Y-89268300D02*
X130683000Y-89141300D01*
X130924300Y-95059500D02*
X130924300Y-95506540D01*
X130924300Y-95506540D02*
X131064000Y-96659700D01*
X131064000Y-96659700D02*
X133163300Y-101663500D01*
X99314000Y-95504000D02*
X99314000Y-94091760D01*
X103921560Y-93182440D02*
X105664000Y-91440000D01*
X100223320Y-93182440D02*
X103921560Y-93182440D01*
X99314000Y-94091760D02*
X100223320Y-93182440D01*
X95186500Y-93345000D02*
X95186500Y-94180660D01*
X96509840Y-95504000D02*
X99314000Y-95504000D01*
X95186500Y-94180660D02*
X96509840Y-95504000D01*
X130924300Y-95059500D02*
X130924300Y-95377000D01*
X133163300Y-101663500D02*
X133163300Y-102251500D01*
X105664000Y-91440000D02*
X105664000Y-91602560D01*
X133163300Y-101917500D02*
X133286500Y-101917500D01*
X133163300Y-101917500D02*
X133163300Y-101710500D01*
X125175000Y-89268300D02*
X125175000Y-86838800D01*
X125175000Y-86838800D02*
X125907800Y-86106000D01*
X125907800Y-86106000D02*
X126368800Y-86106000D01*
X116697760Y-72395080D02*
X116697760Y-71937880D01*
X116697760Y-71937880D02*
X117627400Y-71358760D01*
X117627400Y-71358760D02*
X120929400Y-71323200D01*
X125780800Y-78994000D02*
X125907800Y-86106000D01*
X124587000Y-77800200D02*
X125780800Y-78994000D01*
X122948700Y-77800200D02*
X124587000Y-77800200D01*
X122301000Y-77152500D02*
X122948700Y-77800200D01*
X122301000Y-72694800D02*
X122301000Y-77152500D01*
X120909080Y-71302880D02*
X120929400Y-71323200D01*
X120929400Y-71323200D02*
X122301000Y-72694800D01*
X125907800Y-86106000D02*
X125907800Y-86144100D01*
D38*
X107823000Y-127508000D02*
X107823000Y-133413500D01*
X107823000Y-133413500D02*
X106045000Y-135191500D01*
X103047800Y-135178800D02*
X106032300Y-135178800D01*
X106032300Y-135178800D02*
X106045000Y-135191500D01*
X104495600Y-127457200D02*
X107772200Y-127457200D01*
X107772200Y-127457200D02*
X107823000Y-127508000D01*
X107823000Y-127508000D02*
X109458760Y-127508000D01*
X138729720Y-133197600D02*
X144373600Y-133197600D01*
X136682480Y-131150360D02*
X138729720Y-133197600D01*
X113101120Y-131150360D02*
X136682480Y-131150360D01*
X109458760Y-127508000D02*
X113101120Y-131150360D01*
D39*
X122796300Y-106489500D02*
X132966460Y-106489500D01*
X132966460Y-106489500D02*
X136448800Y-109971840D01*
X107635040Y-100203000D02*
X108305600Y-100203000D01*
X108305600Y-100203000D02*
X110591600Y-102489000D01*
X110591600Y-102489000D02*
X119964200Y-102489000D01*
X119964200Y-102489000D02*
X122796300Y-105321100D01*
X122796300Y-105321100D02*
X122796300Y-106489500D01*
X136448800Y-109971840D02*
X136448800Y-102323900D01*
X136448800Y-102323900D02*
X138163300Y-101663500D01*
X136652000Y-109768640D02*
X136448800Y-109971840D01*
X136652000Y-109768640D02*
X136448800Y-109971840D01*
X138163300Y-101663500D02*
X138036300Y-95567500D01*
X138036300Y-95567500D02*
X138544300Y-95059500D01*
X136448800Y-109971840D02*
X136499600Y-109971840D01*
X122936000Y-79455000D02*
X123351280Y-79455000D01*
X123351280Y-79455000D02*
X124322840Y-80426560D01*
X124322840Y-86563200D02*
X122796300Y-88089740D01*
X122796300Y-88089740D02*
X122796300Y-98869500D01*
X124322840Y-80426560D02*
X124322840Y-86563200D01*
X122936000Y-79455000D02*
X122936000Y-78958440D01*
X122936000Y-78958440D02*
X121513600Y-77536040D01*
X113160800Y-74543920D02*
X111621560Y-76083160D01*
X116850160Y-74543920D02*
X113160800Y-74543920D01*
X118973600Y-72420480D02*
X116850160Y-74543920D01*
X120451880Y-72420480D02*
X118973600Y-72420480D01*
X121513600Y-73482200D02*
X120451880Y-72420480D01*
X121513600Y-77536040D02*
X121513600Y-73482200D01*
X111621560Y-76083160D02*
X112963960Y-76083160D01*
X113792000Y-76911200D02*
X113792000Y-79248000D01*
X112963960Y-76083160D02*
X113792000Y-76911200D01*
X122936000Y-79455000D02*
X122936000Y-79730600D01*
X115341400Y-103987600D02*
X115824000Y-103987600D01*
X113792000Y-79248000D02*
X113792000Y-78778100D01*
X94691200Y-73314560D02*
X94691200Y-73959720D01*
X94691200Y-73959720D02*
X96621600Y-74980800D01*
X96621600Y-74980800D02*
X98877120Y-75021440D01*
X98877120Y-75021440D02*
X101335840Y-77805280D01*
X94919800Y-73085960D02*
X94691200Y-73314560D01*
X94691200Y-73314560D02*
X94615000Y-73314560D01*
X90302080Y-76499720D02*
X89743280Y-73366640D01*
X89743280Y-73366640D02*
X89691200Y-73314560D01*
X89743280Y-73366640D02*
X89691200Y-73314560D01*
X116621560Y-76083160D02*
X116621560Y-78958440D01*
X116621560Y-78958440D02*
X116332000Y-79248000D01*
X120015000Y-90297000D02*
X119761000Y-90297000D01*
X119761000Y-90297000D02*
X118237000Y-88773000D01*
X118237000Y-88773000D02*
X118237000Y-81153000D01*
X118237000Y-81153000D02*
X116332000Y-79248000D01*
D38*
X57366800Y-58596000D02*
X57366800Y-58656960D01*
X57366800Y-58656960D02*
X52313840Y-63403480D01*
X52313840Y-84333080D02*
X57366800Y-88296000D01*
X52313840Y-63403480D02*
X52313840Y-84333080D01*
X57366800Y-58596000D02*
X61798200Y-58826400D01*
X61798200Y-58826400D02*
X67894200Y-52730400D01*
X57366800Y-88296000D02*
X56718200Y-94046040D01*
X56718200Y-94046040D02*
X56972200Y-94300040D01*
D39*
X92011500Y-88836500D02*
X92011500Y-92837000D01*
X92011500Y-92837000D02*
X91630500Y-93218000D01*
X97922080Y-79039720D02*
X97922080Y-79288640D01*
X97922080Y-79288640D02*
X102204520Y-83571080D01*
X106563160Y-87238840D02*
X105664000Y-88138000D01*
X106563160Y-84490560D02*
X106563160Y-87238840D01*
X105643680Y-83571080D02*
X106563160Y-84490560D01*
X102204520Y-83571080D02*
X105643680Y-83571080D01*
X105410000Y-87884000D02*
X105664000Y-88138000D01*
X91630500Y-100838000D02*
X91630500Y-100584000D01*
X91630500Y-100584000D02*
X93281500Y-98933000D01*
X97922080Y-81579720D02*
X97490280Y-81579720D01*
X97490280Y-81579720D02*
X93281500Y-85788500D01*
X93281500Y-85788500D02*
X93281500Y-98933000D01*
X93281500Y-98933000D02*
X93281500Y-99060000D01*
X93281500Y-99060000D02*
X95186500Y-100965000D01*
X111252000Y-79248000D02*
X111252000Y-78999080D01*
X133350000Y-52578000D02*
X133477000Y-52578000D01*
X133477000Y-52578000D02*
X134366000Y-51689000D01*
X134366000Y-51689000D02*
X137520680Y-51272440D01*
X133858000Y-52070000D02*
X133350000Y-52578000D01*
X137063480Y-51729640D02*
X137520680Y-51272440D01*
X83485929Y-59044732D02*
X84063948Y-59044732D01*
X89214960Y-50906680D02*
X92288360Y-50906680D01*
X87426800Y-52694840D02*
X89214960Y-50906680D01*
X87426800Y-55681880D02*
X87426800Y-52694840D01*
X84063948Y-59044732D02*
X87426800Y-55681880D01*
X81000765Y-59077619D02*
X80566501Y-59077619D01*
X76198510Y-68357910D02*
X76198510Y-68357904D01*
X79435960Y-65120520D02*
X76198510Y-68357910D01*
X79435960Y-60208160D02*
X79435960Y-65120520D01*
X80566501Y-59077619D02*
X79435960Y-60208160D01*
X76276200Y-70053200D02*
X76198510Y-68357904D01*
X76276200Y-70053200D02*
X76276200Y-76479400D01*
X76276200Y-76479400D02*
X75184000Y-77571600D01*
X83485929Y-59044732D02*
X81000765Y-59077619D01*
X92288360Y-50906680D02*
X101333300Y-50596800D01*
X101333300Y-50596800D02*
X125069600Y-50596800D01*
X125730000Y-51257200D02*
X125730000Y-52578000D01*
X125069600Y-50596800D02*
X125730000Y-51257200D01*
X101333300Y-50596800D02*
X101422200Y-50596800D01*
X125730000Y-52578000D02*
X125476000Y-52578000D01*
X75184000Y-77571600D02*
X75387200Y-77571600D01*
X98044000Y-88138000D02*
X98044000Y-91440000D01*
X97922080Y-88016080D02*
X98044000Y-88138000D01*
X133527800Y-86106000D02*
X133527800Y-89623900D01*
X140592800Y-92671900D02*
X142684500Y-94763600D01*
X136575800Y-92671900D02*
X140592800Y-92671900D01*
X133527800Y-89623900D02*
X136575800Y-92671900D01*
X143412200Y-94763600D02*
X142684500Y-94763600D01*
X142684500Y-94763600D02*
X142684500Y-94399100D01*
D41*
X118999000Y-145770600D02*
X118999000Y-145847000D01*
X118999000Y-145847000D02*
X122097800Y-149174200D01*
X100965000Y-145770600D02*
X101235600Y-145770600D01*
X101235600Y-145770600D02*
X104444800Y-149174200D01*
X83058000Y-145770600D02*
X83091400Y-145770600D01*
X83091400Y-145770600D02*
X86207600Y-149174200D01*
X131978400Y-145796000D02*
X131920000Y-147429200D01*
X65000000Y-148337400D02*
X64770000Y-145821400D01*
X65836800Y-149174200D02*
X65000000Y-148337400D01*
X130175000Y-149174200D02*
X122097800Y-149174200D01*
X122097800Y-149174200D02*
X104444800Y-149174200D01*
X104444800Y-149174200D02*
X86207600Y-149174200D01*
X86207600Y-149174200D02*
X65836800Y-149174200D01*
X131920000Y-147429200D02*
X130175000Y-149174200D01*
X123748800Y-109971840D02*
X123941840Y-109971840D01*
X123941840Y-109971840D02*
X126095760Y-113573560D01*
X131920000Y-147668000D02*
X131978400Y-145796000D01*
X133159500Y-148907500D02*
X131920000Y-147668000D01*
X138620500Y-148907500D02*
X133159500Y-148907500D01*
X148844000Y-138684000D02*
X138620500Y-148907500D01*
X148844000Y-118872000D02*
X148844000Y-138684000D01*
X142097760Y-113573560D02*
X148844000Y-118872000D01*
X126095760Y-113573560D02*
X142097760Y-113573560D01*
D39*
X141046200Y-58254900D02*
X141046200Y-58948320D01*
X141046200Y-58948320D02*
X140233400Y-59761120D01*
X140233400Y-59761120D02*
X140233400Y-68834000D01*
X140233400Y-68834000D02*
X142684500Y-71285100D01*
X142684500Y-71285100D02*
X141884400Y-71285100D01*
X137607040Y-84632800D02*
X139209800Y-84632800D01*
X137607040Y-84632800D02*
X128488440Y-84632800D01*
X128488440Y-84632800D02*
X127386080Y-83530440D01*
X121229120Y-70368160D02*
X123057920Y-72196960D01*
X127386080Y-83530440D02*
X127386080Y-79491840D01*
X127386080Y-79491840D02*
X124863860Y-76969620D01*
X124863860Y-76969620D02*
X123377960Y-76969620D01*
X123377960Y-76969620D02*
X123101100Y-75742800D01*
X123101100Y-75742800D02*
X123057920Y-72196960D01*
X139209800Y-84632800D02*
X142684500Y-81285100D01*
X106680000Y-71247000D02*
X106680000Y-71208900D01*
X106680000Y-71208900D02*
X107480100Y-70408800D01*
X107480100Y-70408800D02*
X121229120Y-70368160D01*
X105084880Y-77805280D02*
X106680000Y-76047600D01*
X106680000Y-76047600D02*
X106680000Y-71247000D01*
X104729280Y-77805280D02*
X105084880Y-77805280D01*
X142684500Y-81285100D02*
X142298400Y-81285100D01*
X121114820Y-70253860D02*
X121229120Y-70368160D01*
X109082840Y-89687400D02*
X109082840Y-90058240D01*
X109082840Y-90058240D02*
X113858040Y-94833440D01*
X113858040Y-98806000D02*
X115255040Y-100203000D01*
X113858040Y-94833440D02*
X113858040Y-98806000D01*
X109082840Y-89687400D02*
X109082840Y-87238840D01*
X109082840Y-87238840D02*
X108712000Y-86868000D01*
X108712000Y-86868000D02*
X108216700Y-86868000D01*
X113792000Y-86868000D02*
X113792000Y-88000840D01*
X113792000Y-88000840D02*
X115595400Y-89804240D01*
X107680760Y-57698640D02*
X107680760Y-61163200D01*
X107680760Y-61163200D02*
X107599480Y-61244480D01*
X107599480Y-61244480D02*
X106619040Y-61244480D01*
X98513900Y-62892940D02*
X95554800Y-65532000D01*
X104970580Y-62892940D02*
X98513900Y-62892940D01*
X106619040Y-61244480D02*
X104970580Y-62892940D01*
X112826800Y-53975000D02*
X114985800Y-53975000D01*
X114985800Y-53975000D02*
X119303800Y-58293000D01*
X107680760Y-57698640D02*
X109103160Y-57698640D01*
X109103160Y-57698640D02*
X112826800Y-53975000D01*
X133644640Y-55697120D02*
X134614920Y-56667400D01*
X134614920Y-56667400D02*
X137464800Y-56301640D01*
X133360160Y-55697120D02*
X133644640Y-55697120D01*
X94300040Y-52390040D02*
X96951800Y-52451000D01*
X101854000Y-95504000D02*
X101854000Y-98120200D01*
X101854000Y-98120200D02*
X107721400Y-103987600D01*
X94551500Y-88836500D02*
X94592140Y-88836500D01*
X94592140Y-88836500D02*
X96672400Y-86756240D01*
X96672400Y-86756240D02*
X100670360Y-86756240D01*
X100670360Y-86756240D02*
X101478080Y-87563960D01*
X101478080Y-87563960D02*
X102590600Y-87563960D01*
X102590600Y-87563960D02*
X104729280Y-85425280D01*
X104729280Y-85425280D02*
X104729280Y-85171280D01*
X103463080Y-75300840D02*
X103463080Y-76445120D01*
X114350800Y-84886800D02*
X116332000Y-86868000D01*
X108737400Y-84886800D02*
X114350800Y-84886800D01*
X103098600Y-79248000D02*
X108737400Y-84886800D01*
X103098600Y-76809600D02*
X103098600Y-79248000D01*
X103463080Y-76445120D02*
X103098600Y-76809600D01*
X78124040Y-77784960D02*
X78124040Y-79465160D01*
X78124040Y-79465160D02*
X78465680Y-79806800D01*
X130416300Y-67970400D02*
X130416300Y-66310500D01*
X130416300Y-66310500D02*
X131682480Y-65044320D01*
X86868000Y-94945200D02*
X86868000Y-96469200D01*
X88900000Y-102946200D02*
X91389200Y-105435400D01*
X88900000Y-98501200D02*
X88900000Y-102946200D01*
X86868000Y-96469200D02*
X88900000Y-98501200D01*
X72644000Y-77571600D02*
X72644000Y-77927200D01*
X72644000Y-77927200D02*
X74523600Y-79806800D01*
X74523600Y-79806800D02*
X78465680Y-79806800D01*
X78465680Y-79806800D02*
X82876400Y-79806800D01*
X97922080Y-76499720D02*
X97490280Y-76499720D01*
X97490280Y-76499720D02*
X95046800Y-78943200D01*
X90627200Y-86512400D02*
X82876400Y-86512400D01*
X95046800Y-82092800D02*
X90627200Y-86512400D01*
X95046800Y-78943200D02*
X95046800Y-82092800D01*
X82876400Y-79806800D02*
X82876400Y-86512400D01*
X82876400Y-86512400D02*
X82876400Y-90953600D01*
X82876400Y-90953600D02*
X86868000Y-94945200D01*
X72644000Y-77571600D02*
X72644000Y-73253600D01*
X72644000Y-73253600D02*
X73660000Y-72237600D01*
X72644000Y-77571600D02*
X72644000Y-77393800D01*
X97922080Y-76499720D02*
X97426780Y-76499720D01*
X112430560Y-89743280D02*
X112430560Y-90749120D01*
X115595400Y-93913960D02*
X115595400Y-97424240D01*
X112430560Y-90749120D02*
X115595400Y-93913960D01*
X111252000Y-86868000D02*
X111252000Y-88564720D01*
X111252000Y-88564720D02*
X112430560Y-89743280D01*
X111252000Y-86868000D02*
X111658400Y-87109300D01*
X118745000Y-91567000D02*
X120954800Y-91567000D01*
X119405400Y-96977200D02*
X119405400Y-98729800D01*
X121666000Y-94716600D02*
X119405400Y-96977200D01*
X121666000Y-92278200D02*
X121666000Y-94716600D01*
X120954800Y-91567000D02*
X121666000Y-92278200D01*
X119725440Y-77144880D02*
X121234200Y-78653640D01*
X121234200Y-85775800D02*
X119761000Y-87249000D01*
X121234200Y-78653640D02*
X121234200Y-85775800D01*
X119725440Y-76611480D02*
X119725440Y-77144880D01*
X142544800Y-64008000D02*
X142544800Y-62966600D01*
X142544800Y-62966600D02*
X144246600Y-61264800D01*
X144246600Y-61264800D02*
X147411440Y-61264800D01*
X147411440Y-61264800D02*
X149143720Y-62997080D01*
X149143720Y-62997080D02*
X149143720Y-80792320D01*
X149143720Y-80792320D02*
X143941800Y-85994240D01*
X142656560Y-64287400D02*
X142656560Y-63769240D01*
X135496300Y-75590400D02*
X135496300Y-74663300D01*
X145694400Y-73116440D02*
X145694400Y-64617600D01*
X145084800Y-73726040D02*
X145694400Y-73116440D01*
X136433560Y-73726040D02*
X145084800Y-73726040D01*
X135496300Y-74663300D02*
X136433560Y-73726040D01*
X145694400Y-64617600D02*
X145084800Y-64008000D01*
X135496300Y-75590400D02*
X135496300Y-75247500D01*
X119595900Y-69380100D02*
X106299000Y-69380100D01*
X106299000Y-69380100D02*
X105918000Y-68999100D01*
X142684500Y-76285100D02*
X142040600Y-76285100D01*
X142040600Y-76285100D02*
X140432540Y-79424376D01*
X123885960Y-75176380D02*
X123885960Y-71366380D01*
X124134880Y-76151740D02*
X123885960Y-75176380D01*
X125354080Y-76151740D02*
X124134880Y-76151740D01*
X128214120Y-79375000D02*
X125354080Y-76151740D01*
X128214120Y-82537300D02*
X128214120Y-79375000D01*
X128919197Y-83824835D02*
X128214120Y-82537300D01*
X138424973Y-83805671D02*
X128919197Y-83824835D01*
X140499287Y-81751307D02*
X138424973Y-83805671D01*
X140432540Y-79424376D02*
X140499287Y-81751307D01*
X121554240Y-69413120D02*
X123885960Y-71366380D01*
X119519700Y-69380100D02*
X119595900Y-69380100D01*
X119595900Y-69380100D02*
X121554240Y-69413120D01*
X142684500Y-76285100D02*
X142198100Y-76285100D01*
X98450400Y-70827900D02*
X100977700Y-70827900D01*
X100977700Y-70827900D02*
X103378000Y-68999100D01*
X91902280Y-81579720D02*
X92801440Y-79982060D01*
X92801440Y-79982060D02*
X92801440Y-72476360D01*
X91902280Y-81579720D02*
X90302080Y-81579720D01*
X98679000Y-70827900D02*
X98450400Y-70827900D01*
X98450400Y-70827900D02*
X94449900Y-70827900D01*
X94449900Y-70827900D02*
X92801440Y-72476360D01*
X124848620Y-74168000D02*
X124886720Y-74168000D01*
X124886720Y-74168000D02*
X125785880Y-75067160D01*
X129809240Y-76443840D02*
X127162560Y-76443840D01*
X108668820Y-68397120D02*
X107668060Y-67564000D01*
X107668060Y-67564000D02*
X102511860Y-67564000D01*
X102511860Y-67564000D02*
X100838000Y-68999100D01*
X119974360Y-68397120D02*
X122656600Y-68397120D01*
X124848620Y-71098656D02*
X122656600Y-68397120D01*
X119974360Y-68397120D02*
X108668820Y-68397120D01*
X124848620Y-74168000D02*
X124848620Y-71098656D01*
X127162560Y-76443840D02*
X125785880Y-75067160D01*
X129809240Y-78623160D02*
X129809240Y-76443840D01*
X129809240Y-76443840D02*
X129809240Y-76197460D01*
X129809240Y-76197460D02*
X130416300Y-75590400D01*
X129809240Y-78623160D02*
X129418080Y-78623160D01*
X100838000Y-68999100D02*
X100838000Y-68267580D01*
X100507800Y-65024000D02*
X100507800Y-66281300D01*
X126644400Y-67475100D02*
X127330200Y-66789300D01*
X109329220Y-67475100D02*
X126644400Y-67475100D01*
X108435140Y-66581020D02*
X109329220Y-67475100D01*
X100807520Y-66581020D02*
X108435140Y-66581020D01*
X100507800Y-66281300D02*
X100807520Y-66581020D01*
X100507800Y-65024000D02*
X100609400Y-65024000D01*
X100507800Y-65024000D02*
X100507800Y-65191640D01*
X100507800Y-65024000D02*
X100507800Y-65151000D01*
X136321800Y-85994240D02*
X136512300Y-87566500D01*
X136512300Y-87566500D02*
X139560300Y-90614500D01*
X109077760Y-72395080D02*
X109077760Y-72725280D01*
X137429240Y-78623160D02*
X133497320Y-78623160D01*
X133497320Y-78623160D02*
X132956300Y-78082140D01*
X132956300Y-75590400D02*
X132956300Y-78082140D01*
X132956300Y-78082140D02*
X132956300Y-79728060D01*
X132956300Y-79728060D02*
X130733800Y-81950560D01*
X130622040Y-62138560D02*
X128442720Y-62138560D01*
X128442720Y-62138560D02*
X128412240Y-62169040D01*
X130622040Y-62138560D02*
X132603240Y-62138560D01*
X133720840Y-67205860D02*
X132956300Y-67970400D01*
X133720840Y-63256160D02*
X133720840Y-67205860D01*
X132603240Y-62138560D02*
X133720840Y-63256160D01*
X127330200Y-74409300D02*
X127330200Y-73596500D01*
X127330200Y-73596500D02*
X132956300Y-67970400D01*
X132956300Y-67970400D02*
X132671820Y-67970400D01*
X135622040Y-62138560D02*
X137017760Y-62138560D01*
X138318240Y-65148460D02*
X135496300Y-67970400D01*
X138318240Y-63439040D02*
X138318240Y-65148460D01*
X137017760Y-62138560D02*
X138318240Y-63439040D01*
X125653800Y-59207400D02*
X130398520Y-59207400D01*
X134839720Y-61356240D02*
X135622040Y-62138560D01*
X132547360Y-61356240D02*
X134839720Y-61356240D01*
X130398520Y-59207400D02*
X132547360Y-61356240D01*
X120792240Y-62169040D02*
X123438920Y-62169040D01*
X123438920Y-62169040D02*
X125653800Y-59954160D01*
X125653800Y-59954160D02*
X125653800Y-59207400D01*
X135496300Y-67970400D02*
X135430260Y-67970400D01*
X90302080Y-84119720D02*
X87076280Y-84119720D01*
X87076280Y-84119720D02*
X86893400Y-84302600D01*
X86944200Y-67894200D02*
X87817960Y-67894200D01*
X87817960Y-67894200D02*
X90611960Y-65100200D01*
X95021400Y-62001400D02*
X96951800Y-60071000D01*
X91978480Y-62001400D02*
X95021400Y-62001400D01*
X90611960Y-63367920D02*
X91978480Y-62001400D01*
X90611960Y-65100200D02*
X90611960Y-63367920D01*
X88353900Y-80081120D02*
X84124800Y-80081120D01*
X84084160Y-78745080D02*
X83124040Y-77784960D01*
X84084160Y-80040480D02*
X84084160Y-78745080D01*
X84124800Y-80081120D02*
X84084160Y-80040480D01*
X119552720Y-79629000D02*
X118130320Y-78206600D01*
X118130320Y-78206600D02*
X118130320Y-75666600D01*
X118130320Y-75666600D02*
X119725440Y-74071480D01*
X119761000Y-79629000D02*
X119552720Y-79629000D01*
X90302080Y-84119720D02*
X90088720Y-84119720D01*
X90088720Y-84119720D02*
X88353900Y-82727800D01*
X88353900Y-69646800D02*
X86944200Y-67894200D01*
X88353900Y-82727800D02*
X88353900Y-80081120D01*
X88353900Y-80081120D02*
X88353900Y-69646800D01*
X90525600Y-84343240D02*
X90302080Y-84119720D01*
D38*
X57366800Y-123296000D02*
X52366800Y-123296000D01*
X56972200Y-104460040D02*
X56202760Y-104460040D01*
X56202760Y-104460040D02*
X52366800Y-108296000D01*
X52366800Y-108296000D02*
X52366800Y-123296000D01*
X52366800Y-123296000D02*
X52366800Y-127296000D01*
X52366800Y-127296000D02*
X53467800Y-128397000D01*
X53467800Y-128397000D02*
X56366800Y-128596000D01*
D42*
G36*
X61252704Y-74424850D02*
X65891660Y-79063806D01*
X65891660Y-83708240D01*
X66116406Y-84838113D01*
X66731679Y-85758935D01*
X66756427Y-85795973D01*
X67985785Y-87025330D01*
X67985787Y-87025333D01*
X68575625Y-87419450D01*
X68943648Y-87665355D01*
X70073520Y-87890101D01*
X70073525Y-87890100D01*
X75556154Y-87890100D01*
X76285340Y-88619286D01*
X76285340Y-110576360D01*
X76510086Y-111706233D01*
X76579980Y-111810837D01*
X76579980Y-117077740D01*
X73482200Y-117077740D01*
X72352327Y-117302486D01*
X71394467Y-117942507D01*
X68041667Y-121295307D01*
X67401646Y-122253167D01*
X67176900Y-123383040D01*
X67176900Y-123996207D01*
X67145419Y-124072022D01*
X67144383Y-125259329D01*
X67597789Y-126356655D01*
X68436609Y-127196941D01*
X69533142Y-127652261D01*
X70720449Y-127653297D01*
X71817775Y-127199891D01*
X72658061Y-126361071D01*
X73113381Y-125264538D01*
X73113984Y-124573922D01*
X74705166Y-122982740D01*
X77370851Y-122982740D01*
X77444747Y-123093333D01*
X81177380Y-126825965D01*
X81177380Y-137865100D01*
X68046600Y-137865100D01*
X66916727Y-138089846D01*
X66810614Y-138160748D01*
X56315270Y-138343950D01*
X55189492Y-138588381D01*
X54992787Y-138724840D01*
X54766800Y-138724840D01*
X54413825Y-138791257D01*
X54089638Y-138999865D01*
X53872154Y-139318164D01*
X53795640Y-139696000D01*
X53795640Y-139940441D01*
X53619742Y-140213906D01*
X53414750Y-141347530D01*
X53659181Y-142473308D01*
X53795640Y-142670013D01*
X53795640Y-142896000D01*
X53862057Y-143248975D01*
X54070665Y-143573162D01*
X54388964Y-143790646D01*
X54766800Y-143867160D01*
X55011241Y-143867160D01*
X55284706Y-144043058D01*
X56418330Y-144248050D01*
X58800276Y-144206472D01*
X58343792Y-144511485D01*
X57942220Y-145112479D01*
X57801207Y-145821400D01*
X57942220Y-146530321D01*
X58343792Y-147131315D01*
X58944786Y-147532887D01*
X59653707Y-147673900D01*
X59726293Y-147673900D01*
X60435214Y-147532887D01*
X60906515Y-147217973D01*
X61354486Y-147566603D01*
X62088991Y-147768801D01*
X62844962Y-147674527D01*
X63245023Y-147447182D01*
X63474391Y-147603902D01*
X63553531Y-148469629D01*
X63615459Y-148679054D01*
X63658065Y-148893247D01*
X63695256Y-148948907D01*
X63701788Y-148971000D01*
X55140489Y-148971000D01*
X55891900Y-148219589D01*
X55618622Y-147946311D01*
X55806283Y-147783039D01*
X55892324Y-146649515D01*
X55806283Y-146216961D01*
X55492705Y-145944136D01*
X54436841Y-147000000D01*
X54568717Y-147131876D01*
X53131876Y-148568717D01*
X53000000Y-148436841D01*
X52868125Y-148568717D01*
X51431284Y-147131876D01*
X51563159Y-147000000D01*
X51431284Y-146868125D01*
X52868125Y-145431284D01*
X53000000Y-145563159D01*
X54055864Y-144507295D01*
X53783039Y-144193717D01*
X52649515Y-144107676D01*
X52216961Y-144193717D01*
X52053689Y-144381378D01*
X51780411Y-144108100D01*
X51168300Y-144720211D01*
X51168300Y-135605080D01*
X72954927Y-135605080D01*
X73281935Y-136396500D01*
X73886915Y-137002537D01*
X74677763Y-137330926D01*
X75534080Y-137331673D01*
X76325500Y-137004665D01*
X76931537Y-136399685D01*
X77259926Y-135608837D01*
X77260673Y-134752520D01*
X76933665Y-133961100D01*
X76328685Y-133355063D01*
X75537837Y-133026674D01*
X74681520Y-133025927D01*
X73890100Y-133352935D01*
X73284063Y-133957915D01*
X72955674Y-134748763D01*
X72954927Y-135605080D01*
X51168300Y-135605080D01*
X51168300Y-134872425D01*
X69185296Y-134872425D01*
X69458121Y-135186003D01*
X70591645Y-135272044D01*
X71024199Y-135186003D01*
X71297024Y-134872425D01*
X70241160Y-133816561D01*
X69185296Y-134872425D01*
X51168300Y-134872425D01*
X51168300Y-132730205D01*
X67348836Y-132730205D01*
X67434877Y-133162759D01*
X67748455Y-133435584D01*
X68804319Y-132379720D01*
X71678001Y-132379720D01*
X72733865Y-133435584D01*
X73047443Y-133162759D01*
X73133484Y-132029235D01*
X73047443Y-131596681D01*
X72733865Y-131323856D01*
X71678001Y-132379720D01*
X68804319Y-132379720D01*
X67748455Y-131323856D01*
X67434877Y-131596681D01*
X67348836Y-132730205D01*
X51168300Y-132730205D01*
X51168300Y-130272966D01*
X51380067Y-130484733D01*
X51776453Y-130749590D01*
X52153774Y-131040973D01*
X52252701Y-131067808D01*
X52337927Y-131124754D01*
X52805498Y-131217760D01*
X53265603Y-131342568D01*
X56164603Y-131541568D01*
X57307215Y-131394727D01*
X58306657Y-130821806D01*
X59010773Y-129910026D01*
X59017014Y-129887015D01*
X69185296Y-129887015D01*
X70241160Y-130942879D01*
X71297024Y-129887015D01*
X71024199Y-129573437D01*
X69890675Y-129487396D01*
X69458121Y-129573437D01*
X69185296Y-129887015D01*
X59017014Y-129887015D01*
X59312368Y-128798197D01*
X59194815Y-127883480D01*
X74402727Y-127883480D01*
X74729735Y-128674900D01*
X75334715Y-129280937D01*
X76125563Y-129609326D01*
X76981880Y-129610073D01*
X77773300Y-129283065D01*
X78379337Y-128678085D01*
X78707726Y-127887237D01*
X78708473Y-127030920D01*
X78381465Y-126239500D01*
X77776485Y-125633463D01*
X76985637Y-125305074D01*
X76129320Y-125304327D01*
X75337900Y-125631335D01*
X74731863Y-126236315D01*
X74403474Y-127027163D01*
X74402727Y-127883480D01*
X59194815Y-127883480D01*
X59165527Y-127655585D01*
X58592606Y-126656143D01*
X57921786Y-126138106D01*
X58496673Y-126023754D01*
X58731033Y-125867160D01*
X58966800Y-125867160D01*
X59319775Y-125800743D01*
X59643962Y-125592135D01*
X59861446Y-125273836D01*
X59937960Y-124896000D01*
X59937960Y-124660233D01*
X60094554Y-124425873D01*
X60319300Y-123296000D01*
X60094554Y-122166127D01*
X59937960Y-121931767D01*
X59937960Y-121696000D01*
X59871543Y-121343025D01*
X59662935Y-121018838D01*
X59344636Y-120801354D01*
X58966800Y-120724840D01*
X58731033Y-120724840D01*
X58496673Y-120568246D01*
X57366800Y-120343500D01*
X55319300Y-120343500D01*
X55319300Y-111852255D01*
X55832415Y-112474535D01*
X56218450Y-112732433D01*
X56566800Y-112665907D01*
X56566800Y-111396000D01*
X58166800Y-111396000D01*
X58166800Y-112665907D01*
X58515150Y-112732433D01*
X58804266Y-112539283D01*
X71212725Y-112539283D01*
X71356367Y-112822370D01*
X72154590Y-112932568D01*
X72708593Y-112822370D01*
X72852235Y-112539283D01*
X72032480Y-111719528D01*
X71212725Y-112539283D01*
X58804266Y-112539283D01*
X58901185Y-112474535D01*
X59503271Y-111744356D01*
X59450235Y-111396000D01*
X58166800Y-111396000D01*
X56566800Y-111396000D01*
X56164300Y-111396000D01*
X56164300Y-110993110D01*
X69970912Y-110993110D01*
X70081110Y-111547113D01*
X70364197Y-111690755D01*
X71183952Y-110871000D01*
X72881008Y-110871000D01*
X73700763Y-111690755D01*
X73983850Y-111547113D01*
X74094048Y-110748890D01*
X73983850Y-110194887D01*
X73700763Y-110051245D01*
X72881008Y-110871000D01*
X71183952Y-110871000D01*
X70364197Y-110051245D01*
X70081110Y-110194887D01*
X69970912Y-110993110D01*
X56164300Y-110993110D01*
X56164300Y-109796000D01*
X56566800Y-109796000D01*
X56566800Y-108526093D01*
X58166800Y-108526093D01*
X58166800Y-109796000D01*
X59450235Y-109796000D01*
X59503271Y-109447644D01*
X59301311Y-109202717D01*
X71212725Y-109202717D01*
X72032480Y-110022472D01*
X72852235Y-109202717D01*
X72708593Y-108919630D01*
X71910370Y-108809432D01*
X71356367Y-108919630D01*
X71212725Y-109202717D01*
X59301311Y-109202717D01*
X58901185Y-108717465D01*
X58515150Y-108459567D01*
X58166800Y-108526093D01*
X56566800Y-108526093D01*
X56353003Y-108485263D01*
X57538338Y-107299928D01*
X58102073Y-107187794D01*
X58491540Y-106927561D01*
X58825175Y-106864783D01*
X59149362Y-106656175D01*
X59366846Y-106337876D01*
X59439323Y-105979975D01*
X59699954Y-105589913D01*
X59924700Y-104460040D01*
X59699954Y-103330167D01*
X59439721Y-102940700D01*
X59376943Y-102607065D01*
X59168335Y-102282878D01*
X58850036Y-102065394D01*
X58492135Y-101992917D01*
X58102073Y-101732286D01*
X57831707Y-101678507D01*
X58359615Y-101460380D01*
X59050116Y-100771083D01*
X59424273Y-99870013D01*
X59425124Y-98894348D01*
X59052540Y-97992625D01*
X58363243Y-97302124D01*
X57831971Y-97081521D01*
X58102072Y-97027794D01*
X59059933Y-96387773D01*
X59699954Y-95429912D01*
X59924700Y-94300040D01*
X59756280Y-93453338D01*
X59929861Y-91914483D01*
X70918085Y-91914483D01*
X71061727Y-92197570D01*
X71859950Y-92307768D01*
X72413953Y-92197570D01*
X72557595Y-91914483D01*
X71737840Y-91094728D01*
X70918085Y-91914483D01*
X59929861Y-91914483D01*
X60104268Y-90368310D01*
X69676272Y-90368310D01*
X69786470Y-90922313D01*
X70069557Y-91065955D01*
X70889312Y-90246200D01*
X72586368Y-90246200D01*
X73406123Y-91065955D01*
X73689210Y-90922313D01*
X73799408Y-90124090D01*
X73689210Y-89570087D01*
X73406123Y-89426445D01*
X72586368Y-90246200D01*
X70889312Y-90246200D01*
X70069557Y-89426445D01*
X69786470Y-89570087D01*
X69676272Y-90368310D01*
X60104268Y-90368310D01*
X60300694Y-88626941D01*
X60296566Y-88577917D01*
X70918085Y-88577917D01*
X71737840Y-89397672D01*
X72557595Y-88577917D01*
X72413953Y-88294830D01*
X71615730Y-88184632D01*
X71061727Y-88294830D01*
X70918085Y-88577917D01*
X60296566Y-88577917D01*
X60271843Y-88284389D01*
X60297955Y-87941617D01*
X60223954Y-87715795D01*
X60204010Y-87478997D01*
X60046266Y-87173559D01*
X59939217Y-86846889D01*
X59937960Y-86845425D01*
X59937960Y-86696000D01*
X59871543Y-86343025D01*
X59662935Y-86018838D01*
X59344636Y-85801354D01*
X58966800Y-85724840D01*
X58872722Y-85724840D01*
X55266340Y-82896438D01*
X55266340Y-76788028D01*
X55832415Y-77474535D01*
X56218450Y-77732433D01*
X56566800Y-77665907D01*
X56566800Y-76396000D01*
X58166800Y-76396000D01*
X58166800Y-77665907D01*
X58515150Y-77732433D01*
X58901185Y-77474535D01*
X59503271Y-76744356D01*
X59450235Y-76396000D01*
X58166800Y-76396000D01*
X56566800Y-76396000D01*
X56164300Y-76396000D01*
X56164300Y-74796000D01*
X56566800Y-74796000D01*
X56566800Y-74393500D01*
X58166800Y-74393500D01*
X58166800Y-74796000D01*
X59450235Y-74796000D01*
X59503271Y-74447644D01*
X59416924Y-74342927D01*
X61252704Y-74424850D01*
X61252704Y-74424850D01*
G37*
X61252704Y-74424850D02*
X65891660Y-79063806D01*
X65891660Y-83708240D01*
X66116406Y-84838113D01*
X66731679Y-85758935D01*
X66756427Y-85795973D01*
X67985785Y-87025330D01*
X67985787Y-87025333D01*
X68575625Y-87419450D01*
X68943648Y-87665355D01*
X70073520Y-87890101D01*
X70073525Y-87890100D01*
X75556154Y-87890100D01*
X76285340Y-88619286D01*
X76285340Y-110576360D01*
X76510086Y-111706233D01*
X76579980Y-111810837D01*
X76579980Y-117077740D01*
X73482200Y-117077740D01*
X72352327Y-117302486D01*
X71394467Y-117942507D01*
X68041667Y-121295307D01*
X67401646Y-122253167D01*
X67176900Y-123383040D01*
X67176900Y-123996207D01*
X67145419Y-124072022D01*
X67144383Y-125259329D01*
X67597789Y-126356655D01*
X68436609Y-127196941D01*
X69533142Y-127652261D01*
X70720449Y-127653297D01*
X71817775Y-127199891D01*
X72658061Y-126361071D01*
X73113381Y-125264538D01*
X73113984Y-124573922D01*
X74705166Y-122982740D01*
X77370851Y-122982740D01*
X77444747Y-123093333D01*
X81177380Y-126825965D01*
X81177380Y-137865100D01*
X68046600Y-137865100D01*
X66916727Y-138089846D01*
X66810614Y-138160748D01*
X56315270Y-138343950D01*
X55189492Y-138588381D01*
X54992787Y-138724840D01*
X54766800Y-138724840D01*
X54413825Y-138791257D01*
X54089638Y-138999865D01*
X53872154Y-139318164D01*
X53795640Y-139696000D01*
X53795640Y-139940441D01*
X53619742Y-140213906D01*
X53414750Y-141347530D01*
X53659181Y-142473308D01*
X53795640Y-142670013D01*
X53795640Y-142896000D01*
X53862057Y-143248975D01*
X54070665Y-143573162D01*
X54388964Y-143790646D01*
X54766800Y-143867160D01*
X55011241Y-143867160D01*
X55284706Y-144043058D01*
X56418330Y-144248050D01*
X58800276Y-144206472D01*
X58343792Y-144511485D01*
X57942220Y-145112479D01*
X57801207Y-145821400D01*
X57942220Y-146530321D01*
X58343792Y-147131315D01*
X58944786Y-147532887D01*
X59653707Y-147673900D01*
X59726293Y-147673900D01*
X60435214Y-147532887D01*
X60906515Y-147217973D01*
X61354486Y-147566603D01*
X62088991Y-147768801D01*
X62844962Y-147674527D01*
X63245023Y-147447182D01*
X63474391Y-147603902D01*
X63553531Y-148469629D01*
X63615459Y-148679054D01*
X63658065Y-148893247D01*
X63695256Y-148948907D01*
X63701788Y-148971000D01*
X55140489Y-148971000D01*
X55891900Y-148219589D01*
X55618622Y-147946311D01*
X55806283Y-147783039D01*
X55892324Y-146649515D01*
X55806283Y-146216961D01*
X55492705Y-145944136D01*
X54436841Y-147000000D01*
X54568717Y-147131876D01*
X53131876Y-148568717D01*
X53000000Y-148436841D01*
X52868125Y-148568717D01*
X51431284Y-147131876D01*
X51563159Y-147000000D01*
X51431284Y-146868125D01*
X52868125Y-145431284D01*
X53000000Y-145563159D01*
X54055864Y-144507295D01*
X53783039Y-144193717D01*
X52649515Y-144107676D01*
X52216961Y-144193717D01*
X52053689Y-144381378D01*
X51780411Y-144108100D01*
X51168300Y-144720211D01*
X51168300Y-135605080D01*
X72954927Y-135605080D01*
X73281935Y-136396500D01*
X73886915Y-137002537D01*
X74677763Y-137330926D01*
X75534080Y-137331673D01*
X76325500Y-137004665D01*
X76931537Y-136399685D01*
X77259926Y-135608837D01*
X77260673Y-134752520D01*
X76933665Y-133961100D01*
X76328685Y-133355063D01*
X75537837Y-133026674D01*
X74681520Y-133025927D01*
X73890100Y-133352935D01*
X73284063Y-133957915D01*
X72955674Y-134748763D01*
X72954927Y-135605080D01*
X51168300Y-135605080D01*
X51168300Y-134872425D01*
X69185296Y-134872425D01*
X69458121Y-135186003D01*
X70591645Y-135272044D01*
X71024199Y-135186003D01*
X71297024Y-134872425D01*
X70241160Y-133816561D01*
X69185296Y-134872425D01*
X51168300Y-134872425D01*
X51168300Y-132730205D01*
X67348836Y-132730205D01*
X67434877Y-133162759D01*
X67748455Y-133435584D01*
X68804319Y-132379720D01*
X71678001Y-132379720D01*
X72733865Y-133435584D01*
X73047443Y-133162759D01*
X73133484Y-132029235D01*
X73047443Y-131596681D01*
X72733865Y-131323856D01*
X71678001Y-132379720D01*
X68804319Y-132379720D01*
X67748455Y-131323856D01*
X67434877Y-131596681D01*
X67348836Y-132730205D01*
X51168300Y-132730205D01*
X51168300Y-130272966D01*
X51380067Y-130484733D01*
X51776453Y-130749590D01*
X52153774Y-131040973D01*
X52252701Y-131067808D01*
X52337927Y-131124754D01*
X52805498Y-131217760D01*
X53265603Y-131342568D01*
X56164603Y-131541568D01*
X57307215Y-131394727D01*
X58306657Y-130821806D01*
X59010773Y-129910026D01*
X59017014Y-129887015D01*
X69185296Y-129887015D01*
X70241160Y-130942879D01*
X71297024Y-129887015D01*
X71024199Y-129573437D01*
X69890675Y-129487396D01*
X69458121Y-129573437D01*
X69185296Y-129887015D01*
X59017014Y-129887015D01*
X59312368Y-128798197D01*
X59194815Y-127883480D01*
X74402727Y-127883480D01*
X74729735Y-128674900D01*
X75334715Y-129280937D01*
X76125563Y-129609326D01*
X76981880Y-129610073D01*
X77773300Y-129283065D01*
X78379337Y-128678085D01*
X78707726Y-127887237D01*
X78708473Y-127030920D01*
X78381465Y-126239500D01*
X77776485Y-125633463D01*
X76985637Y-125305074D01*
X76129320Y-125304327D01*
X75337900Y-125631335D01*
X74731863Y-126236315D01*
X74403474Y-127027163D01*
X74402727Y-127883480D01*
X59194815Y-127883480D01*
X59165527Y-127655585D01*
X58592606Y-126656143D01*
X57921786Y-126138106D01*
X58496673Y-126023754D01*
X58731033Y-125867160D01*
X58966800Y-125867160D01*
X59319775Y-125800743D01*
X59643962Y-125592135D01*
X59861446Y-125273836D01*
X59937960Y-124896000D01*
X59937960Y-124660233D01*
X60094554Y-124425873D01*
X60319300Y-123296000D01*
X60094554Y-122166127D01*
X59937960Y-121931767D01*
X59937960Y-121696000D01*
X59871543Y-121343025D01*
X59662935Y-121018838D01*
X59344636Y-120801354D01*
X58966800Y-120724840D01*
X58731033Y-120724840D01*
X58496673Y-120568246D01*
X57366800Y-120343500D01*
X55319300Y-120343500D01*
X55319300Y-111852255D01*
X55832415Y-112474535D01*
X56218450Y-112732433D01*
X56566800Y-112665907D01*
X56566800Y-111396000D01*
X58166800Y-111396000D01*
X58166800Y-112665907D01*
X58515150Y-112732433D01*
X58804266Y-112539283D01*
X71212725Y-112539283D01*
X71356367Y-112822370D01*
X72154590Y-112932568D01*
X72708593Y-112822370D01*
X72852235Y-112539283D01*
X72032480Y-111719528D01*
X71212725Y-112539283D01*
X58804266Y-112539283D01*
X58901185Y-112474535D01*
X59503271Y-111744356D01*
X59450235Y-111396000D01*
X58166800Y-111396000D01*
X56566800Y-111396000D01*
X56164300Y-111396000D01*
X56164300Y-110993110D01*
X69970912Y-110993110D01*
X70081110Y-111547113D01*
X70364197Y-111690755D01*
X71183952Y-110871000D01*
X72881008Y-110871000D01*
X73700763Y-111690755D01*
X73983850Y-111547113D01*
X74094048Y-110748890D01*
X73983850Y-110194887D01*
X73700763Y-110051245D01*
X72881008Y-110871000D01*
X71183952Y-110871000D01*
X70364197Y-110051245D01*
X70081110Y-110194887D01*
X69970912Y-110993110D01*
X56164300Y-110993110D01*
X56164300Y-109796000D01*
X56566800Y-109796000D01*
X56566800Y-108526093D01*
X58166800Y-108526093D01*
X58166800Y-109796000D01*
X59450235Y-109796000D01*
X59503271Y-109447644D01*
X59301311Y-109202717D01*
X71212725Y-109202717D01*
X72032480Y-110022472D01*
X72852235Y-109202717D01*
X72708593Y-108919630D01*
X71910370Y-108809432D01*
X71356367Y-108919630D01*
X71212725Y-109202717D01*
X59301311Y-109202717D01*
X58901185Y-108717465D01*
X58515150Y-108459567D01*
X58166800Y-108526093D01*
X56566800Y-108526093D01*
X56353003Y-108485263D01*
X57538338Y-107299928D01*
X58102073Y-107187794D01*
X58491540Y-106927561D01*
X58825175Y-106864783D01*
X59149362Y-106656175D01*
X59366846Y-106337876D01*
X59439323Y-105979975D01*
X59699954Y-105589913D01*
X59924700Y-104460040D01*
X59699954Y-103330167D01*
X59439721Y-102940700D01*
X59376943Y-102607065D01*
X59168335Y-102282878D01*
X58850036Y-102065394D01*
X58492135Y-101992917D01*
X58102073Y-101732286D01*
X57831707Y-101678507D01*
X58359615Y-101460380D01*
X59050116Y-100771083D01*
X59424273Y-99870013D01*
X59425124Y-98894348D01*
X59052540Y-97992625D01*
X58363243Y-97302124D01*
X57831971Y-97081521D01*
X58102072Y-97027794D01*
X59059933Y-96387773D01*
X59699954Y-95429912D01*
X59924700Y-94300040D01*
X59756280Y-93453338D01*
X59929861Y-91914483D01*
X70918085Y-91914483D01*
X71061727Y-92197570D01*
X71859950Y-92307768D01*
X72413953Y-92197570D01*
X72557595Y-91914483D01*
X71737840Y-91094728D01*
X70918085Y-91914483D01*
X59929861Y-91914483D01*
X60104268Y-90368310D01*
X69676272Y-90368310D01*
X69786470Y-90922313D01*
X70069557Y-91065955D01*
X70889312Y-90246200D01*
X72586368Y-90246200D01*
X73406123Y-91065955D01*
X73689210Y-90922313D01*
X73799408Y-90124090D01*
X73689210Y-89570087D01*
X73406123Y-89426445D01*
X72586368Y-90246200D01*
X70889312Y-90246200D01*
X70069557Y-89426445D01*
X69786470Y-89570087D01*
X69676272Y-90368310D01*
X60104268Y-90368310D01*
X60300694Y-88626941D01*
X60296566Y-88577917D01*
X70918085Y-88577917D01*
X71737840Y-89397672D01*
X72557595Y-88577917D01*
X72413953Y-88294830D01*
X71615730Y-88184632D01*
X71061727Y-88294830D01*
X70918085Y-88577917D01*
X60296566Y-88577917D01*
X60271843Y-88284389D01*
X60297955Y-87941617D01*
X60223954Y-87715795D01*
X60204010Y-87478997D01*
X60046266Y-87173559D01*
X59939217Y-86846889D01*
X59937960Y-86845425D01*
X59937960Y-86696000D01*
X59871543Y-86343025D01*
X59662935Y-86018838D01*
X59344636Y-85801354D01*
X58966800Y-85724840D01*
X58872722Y-85724840D01*
X55266340Y-82896438D01*
X55266340Y-76788028D01*
X55832415Y-77474535D01*
X56218450Y-77732433D01*
X56566800Y-77665907D01*
X56566800Y-76396000D01*
X58166800Y-76396000D01*
X58166800Y-77665907D01*
X58515150Y-77732433D01*
X58901185Y-77474535D01*
X59503271Y-76744356D01*
X59450235Y-76396000D01*
X58166800Y-76396000D01*
X56566800Y-76396000D01*
X56164300Y-76396000D01*
X56164300Y-74796000D01*
X56566800Y-74796000D01*
X56566800Y-74393500D01*
X58166800Y-74393500D01*
X58166800Y-74796000D01*
X59450235Y-74796000D01*
X59503271Y-74447644D01*
X59416924Y-74342927D01*
X61252704Y-74424850D01*
G36*
X84863257Y-104018175D02*
X85071865Y-104342362D01*
X85390164Y-104559846D01*
X85665500Y-104615603D01*
X85665500Y-105689400D01*
X85757035Y-106149577D01*
X86017704Y-106539696D01*
X88075104Y-108597096D01*
X88465223Y-108857765D01*
X88925400Y-108949300D01*
X91617800Y-108949300D01*
X92077977Y-108857765D01*
X92468096Y-108597096D01*
X93808632Y-107256560D01*
X94049768Y-107256560D01*
X94592744Y-107799536D01*
X94982863Y-108060205D01*
X95443040Y-108151740D01*
X113720584Y-108151740D01*
X113538404Y-108590477D01*
X113537796Y-109287665D01*
X113804036Y-109932015D01*
X114296592Y-110425431D01*
X114940477Y-110692796D01*
X115637665Y-110693404D01*
X116282015Y-110427164D01*
X116775431Y-109934608D01*
X117042796Y-109290723D01*
X117043404Y-108593535D01*
X116860858Y-108151740D01*
X117312440Y-108151740D01*
X117772617Y-108060205D01*
X118162736Y-107799536D01*
X118269744Y-107692528D01*
X118734747Y-108003233D01*
X118778625Y-108011961D01*
X118538404Y-108590477D01*
X118537796Y-109287665D01*
X118804036Y-109932015D01*
X119296592Y-110425431D01*
X119940477Y-110692796D01*
X120488900Y-110693274D01*
X120488900Y-112089948D01*
X120195603Y-112383245D01*
X119151400Y-112175540D01*
X118021527Y-112400286D01*
X117063667Y-113040307D01*
X116423646Y-113998167D01*
X116198900Y-115128040D01*
X116198900Y-117139720D01*
X116423646Y-118269593D01*
X117063667Y-119227453D01*
X118021527Y-119867474D01*
X119151400Y-120092220D01*
X119228017Y-120076980D01*
X139035834Y-120076980D01*
X141421100Y-122462246D01*
X141421100Y-128117600D01*
X141645846Y-129247473D01*
X141906079Y-129636940D01*
X141968857Y-129970575D01*
X142145508Y-130245100D01*
X139952685Y-130245100D01*
X138770213Y-129062627D01*
X137812353Y-128422606D01*
X137721425Y-128404519D01*
X137915126Y-127938037D01*
X137915873Y-127081720D01*
X137588865Y-126290300D01*
X136983885Y-125684263D01*
X136193037Y-125355874D01*
X135336720Y-125355127D01*
X134545300Y-125682135D01*
X133939263Y-126287115D01*
X133610874Y-127077963D01*
X133610127Y-127934280D01*
X133719036Y-128197860D01*
X114324086Y-128197860D01*
X111546493Y-125420267D01*
X111374094Y-125305074D01*
X110588633Y-124780246D01*
X109458760Y-124555500D01*
X108027589Y-124555500D01*
X107772200Y-124504700D01*
X104495600Y-124504700D01*
X103365727Y-124729446D01*
X102407867Y-125369467D01*
X101767846Y-126327327D01*
X101543100Y-127457200D01*
X101767846Y-128587073D01*
X102407867Y-129544933D01*
X103365727Y-130184954D01*
X104495600Y-130409700D01*
X104870500Y-130409700D01*
X104870500Y-132190534D01*
X104834734Y-132226300D01*
X103047800Y-132226300D01*
X101917927Y-132451046D01*
X100960067Y-133091067D01*
X100320046Y-134048927D01*
X100095300Y-135178800D01*
X100320046Y-136308673D01*
X100960067Y-137266533D01*
X101855887Y-137865100D01*
X87082380Y-137865100D01*
X87082380Y-125603000D01*
X86874675Y-124558797D01*
X87070581Y-124362891D01*
X87089377Y-124370696D01*
X87786565Y-124371304D01*
X88430915Y-124105064D01*
X88924331Y-123612508D01*
X89191696Y-122968623D01*
X89192304Y-122271435D01*
X88926064Y-121627085D01*
X88433508Y-121133669D01*
X87789623Y-120866304D01*
X87092435Y-120865696D01*
X86448085Y-121131936D01*
X85954669Y-121624492D01*
X85687304Y-122268377D01*
X85687237Y-122345051D01*
X85367317Y-122664971D01*
X82484980Y-119782634D01*
X82484980Y-116796323D01*
X90391645Y-116796323D01*
X90535287Y-117079410D01*
X91333510Y-117189608D01*
X91887513Y-117079410D01*
X92031155Y-116796323D01*
X91211400Y-115976568D01*
X90391645Y-116796323D01*
X82484980Y-116796323D01*
X82484980Y-115640045D01*
X85945927Y-115640045D01*
X86305127Y-116162776D01*
X86797960Y-116492045D01*
X87039500Y-116360086D01*
X87039500Y-115398500D01*
X87839500Y-115398500D01*
X87839500Y-116360086D01*
X88081040Y-116492045D01*
X88573873Y-116162776D01*
X88933073Y-115640045D01*
X88808669Y-115398500D01*
X87839500Y-115398500D01*
X87039500Y-115398500D01*
X86070331Y-115398500D01*
X85945927Y-115640045D01*
X82484980Y-115640045D01*
X82484980Y-115250150D01*
X89149832Y-115250150D01*
X89260030Y-115804153D01*
X89543117Y-115947795D01*
X90362872Y-115128040D01*
X92059928Y-115128040D01*
X92879683Y-115947795D01*
X93162770Y-115804153D01*
X93272968Y-115005930D01*
X93162770Y-114451927D01*
X92879683Y-114308285D01*
X92059928Y-115128040D01*
X90362872Y-115128040D01*
X89543117Y-114308285D01*
X89260030Y-114451927D01*
X89149832Y-115250150D01*
X82484980Y-115250150D01*
X82484980Y-114356955D01*
X85945927Y-114356955D01*
X86070331Y-114598500D01*
X87039500Y-114598500D01*
X87039500Y-113636914D01*
X87839500Y-113636914D01*
X87839500Y-114598500D01*
X88808669Y-114598500D01*
X88933073Y-114356955D01*
X88573873Y-113834224D01*
X88081040Y-113504955D01*
X87839500Y-113636914D01*
X87039500Y-113636914D01*
X86797960Y-113504955D01*
X86305127Y-113834224D01*
X85945927Y-114356955D01*
X82484980Y-114356955D01*
X82484980Y-113459757D01*
X90391645Y-113459757D01*
X91211400Y-114279512D01*
X92031155Y-113459757D01*
X91887513Y-113176670D01*
X91089290Y-113066472D01*
X90535287Y-113176670D01*
X90391645Y-113459757D01*
X82484980Y-113459757D01*
X82484980Y-110871000D01*
X82260234Y-109741127D01*
X82190340Y-109636523D01*
X82190340Y-103767700D01*
X84816127Y-103767700D01*
X84863257Y-104018175D01*
X84863257Y-104018175D01*
G37*
X84863257Y-104018175D02*
X85071865Y-104342362D01*
X85390164Y-104559846D01*
X85665500Y-104615603D01*
X85665500Y-105689400D01*
X85757035Y-106149577D01*
X86017704Y-106539696D01*
X88075104Y-108597096D01*
X88465223Y-108857765D01*
X88925400Y-108949300D01*
X91617800Y-108949300D01*
X92077977Y-108857765D01*
X92468096Y-108597096D01*
X93808632Y-107256560D01*
X94049768Y-107256560D01*
X94592744Y-107799536D01*
X94982863Y-108060205D01*
X95443040Y-108151740D01*
X113720584Y-108151740D01*
X113538404Y-108590477D01*
X113537796Y-109287665D01*
X113804036Y-109932015D01*
X114296592Y-110425431D01*
X114940477Y-110692796D01*
X115637665Y-110693404D01*
X116282015Y-110427164D01*
X116775431Y-109934608D01*
X117042796Y-109290723D01*
X117043404Y-108593535D01*
X116860858Y-108151740D01*
X117312440Y-108151740D01*
X117772617Y-108060205D01*
X118162736Y-107799536D01*
X118269744Y-107692528D01*
X118734747Y-108003233D01*
X118778625Y-108011961D01*
X118538404Y-108590477D01*
X118537796Y-109287665D01*
X118804036Y-109932015D01*
X119296592Y-110425431D01*
X119940477Y-110692796D01*
X120488900Y-110693274D01*
X120488900Y-112089948D01*
X120195603Y-112383245D01*
X119151400Y-112175540D01*
X118021527Y-112400286D01*
X117063667Y-113040307D01*
X116423646Y-113998167D01*
X116198900Y-115128040D01*
X116198900Y-117139720D01*
X116423646Y-118269593D01*
X117063667Y-119227453D01*
X118021527Y-119867474D01*
X119151400Y-120092220D01*
X119228017Y-120076980D01*
X139035834Y-120076980D01*
X141421100Y-122462246D01*
X141421100Y-128117600D01*
X141645846Y-129247473D01*
X141906079Y-129636940D01*
X141968857Y-129970575D01*
X142145508Y-130245100D01*
X139952685Y-130245100D01*
X138770213Y-129062627D01*
X137812353Y-128422606D01*
X137721425Y-128404519D01*
X137915126Y-127938037D01*
X137915873Y-127081720D01*
X137588865Y-126290300D01*
X136983885Y-125684263D01*
X136193037Y-125355874D01*
X135336720Y-125355127D01*
X134545300Y-125682135D01*
X133939263Y-126287115D01*
X133610874Y-127077963D01*
X133610127Y-127934280D01*
X133719036Y-128197860D01*
X114324086Y-128197860D01*
X111546493Y-125420267D01*
X111374094Y-125305074D01*
X110588633Y-124780246D01*
X109458760Y-124555500D01*
X108027589Y-124555500D01*
X107772200Y-124504700D01*
X104495600Y-124504700D01*
X103365727Y-124729446D01*
X102407867Y-125369467D01*
X101767846Y-126327327D01*
X101543100Y-127457200D01*
X101767846Y-128587073D01*
X102407867Y-129544933D01*
X103365727Y-130184954D01*
X104495600Y-130409700D01*
X104870500Y-130409700D01*
X104870500Y-132190534D01*
X104834734Y-132226300D01*
X103047800Y-132226300D01*
X101917927Y-132451046D01*
X100960067Y-133091067D01*
X100320046Y-134048927D01*
X100095300Y-135178800D01*
X100320046Y-136308673D01*
X100960067Y-137266533D01*
X101855887Y-137865100D01*
X87082380Y-137865100D01*
X87082380Y-125603000D01*
X86874675Y-124558797D01*
X87070581Y-124362891D01*
X87089377Y-124370696D01*
X87786565Y-124371304D01*
X88430915Y-124105064D01*
X88924331Y-123612508D01*
X89191696Y-122968623D01*
X89192304Y-122271435D01*
X88926064Y-121627085D01*
X88433508Y-121133669D01*
X87789623Y-120866304D01*
X87092435Y-120865696D01*
X86448085Y-121131936D01*
X85954669Y-121624492D01*
X85687304Y-122268377D01*
X85687237Y-122345051D01*
X85367317Y-122664971D01*
X82484980Y-119782634D01*
X82484980Y-116796323D01*
X90391645Y-116796323D01*
X90535287Y-117079410D01*
X91333510Y-117189608D01*
X91887513Y-117079410D01*
X92031155Y-116796323D01*
X91211400Y-115976568D01*
X90391645Y-116796323D01*
X82484980Y-116796323D01*
X82484980Y-115640045D01*
X85945927Y-115640045D01*
X86305127Y-116162776D01*
X86797960Y-116492045D01*
X87039500Y-116360086D01*
X87039500Y-115398500D01*
X87839500Y-115398500D01*
X87839500Y-116360086D01*
X88081040Y-116492045D01*
X88573873Y-116162776D01*
X88933073Y-115640045D01*
X88808669Y-115398500D01*
X87839500Y-115398500D01*
X87039500Y-115398500D01*
X86070331Y-115398500D01*
X85945927Y-115640045D01*
X82484980Y-115640045D01*
X82484980Y-115250150D01*
X89149832Y-115250150D01*
X89260030Y-115804153D01*
X89543117Y-115947795D01*
X90362872Y-115128040D01*
X92059928Y-115128040D01*
X92879683Y-115947795D01*
X93162770Y-115804153D01*
X93272968Y-115005930D01*
X93162770Y-114451927D01*
X92879683Y-114308285D01*
X92059928Y-115128040D01*
X90362872Y-115128040D01*
X89543117Y-114308285D01*
X89260030Y-114451927D01*
X89149832Y-115250150D01*
X82484980Y-115250150D01*
X82484980Y-114356955D01*
X85945927Y-114356955D01*
X86070331Y-114598500D01*
X87039500Y-114598500D01*
X87039500Y-113636914D01*
X87839500Y-113636914D01*
X87839500Y-114598500D01*
X88808669Y-114598500D01*
X88933073Y-114356955D01*
X88573873Y-113834224D01*
X88081040Y-113504955D01*
X87839500Y-113636914D01*
X87039500Y-113636914D01*
X86797960Y-113504955D01*
X86305127Y-113834224D01*
X85945927Y-114356955D01*
X82484980Y-114356955D01*
X82484980Y-113459757D01*
X90391645Y-113459757D01*
X91211400Y-114279512D01*
X92031155Y-113459757D01*
X91887513Y-113176670D01*
X91089290Y-113066472D01*
X90535287Y-113176670D01*
X90391645Y-113459757D01*
X82484980Y-113459757D01*
X82484980Y-110871000D01*
X82260234Y-109741127D01*
X82190340Y-109636523D01*
X82190340Y-103767700D01*
X84816127Y-103767700D01*
X84863257Y-104018175D01*
G36*
X148972500Y-117125996D02*
X144787968Y-113839500D01*
X145759302Y-113839500D01*
X145759302Y-113539724D01*
X146095923Y-113333570D01*
X146532658Y-112782495D01*
X146416789Y-112514000D01*
X145226800Y-112514000D01*
X145226800Y-113014000D01*
X143926800Y-113014000D01*
X143926800Y-112514000D01*
X143100274Y-112514000D01*
X142994918Y-112431254D01*
X142818289Y-112341661D01*
X142653608Y-112231625D01*
X142567647Y-112214526D01*
X142489484Y-112174879D01*
X142292008Y-112159698D01*
X142097760Y-112121060D01*
X141039532Y-112121060D01*
X142484092Y-110676500D01*
X142733025Y-110676500D01*
X142852045Y-110854626D01*
X142903482Y-110888995D01*
X142620942Y-111245505D01*
X142736811Y-111514000D01*
X143926800Y-111514000D01*
X143926800Y-111365659D01*
X144232671Y-111426500D01*
X144920929Y-111426500D01*
X145226800Y-111365659D01*
X145226800Y-111514000D01*
X146416789Y-111514000D01*
X146532658Y-111245505D01*
X146250118Y-110888995D01*
X146301555Y-110854626D01*
X146724804Y-110221189D01*
X146873429Y-109474000D01*
X146724804Y-108726811D01*
X146607678Y-108551519D01*
X146771446Y-108311836D01*
X146847960Y-107934000D01*
X146847960Y-105934000D01*
X146781543Y-105581025D01*
X146572935Y-105256838D01*
X146254636Y-105039354D01*
X145876800Y-104962840D01*
X143276800Y-104962840D01*
X142923825Y-105029257D01*
X142599638Y-105237865D01*
X142382154Y-105556164D01*
X142305640Y-105934000D01*
X142305640Y-107934000D01*
X142369145Y-108271500D01*
X141986000Y-108271500D01*
X141525823Y-108363035D01*
X141135704Y-108623704D01*
X138831068Y-110928340D01*
X138390904Y-110928340D01*
X138479621Y-110795566D01*
X138643470Y-109971840D01*
X138479621Y-109148114D01*
X138013017Y-108449793D01*
X137651300Y-108208101D01*
X137651300Y-103434660D01*
X138963300Y-103434660D01*
X139316275Y-103368243D01*
X139640462Y-103159635D01*
X139857946Y-102841336D01*
X139934460Y-102463500D01*
X139934460Y-100863500D01*
X139868043Y-100510525D01*
X139668086Y-100199782D01*
X140481618Y-100199782D01*
X140816222Y-101009586D01*
X141435255Y-101629700D01*
X142244474Y-101965717D01*
X143120682Y-101966482D01*
X143930486Y-101631878D01*
X144550600Y-101012845D01*
X144886617Y-100203626D01*
X144887382Y-99327418D01*
X144552778Y-98517614D01*
X143933745Y-97897500D01*
X143124526Y-97561483D01*
X142248318Y-97560718D01*
X141438514Y-97895322D01*
X140818400Y-98514355D01*
X140482383Y-99323574D01*
X140481618Y-100199782D01*
X139668086Y-100199782D01*
X139659435Y-100186338D01*
X139341136Y-99968854D01*
X139330712Y-99966743D01*
X139271627Y-97130660D01*
X139644300Y-97130660D01*
X139997275Y-97064243D01*
X140321462Y-96855635D01*
X140538946Y-96537336D01*
X140615460Y-96159500D01*
X140615460Y-95523705D01*
X140816222Y-96009586D01*
X141435255Y-96629700D01*
X142244474Y-96965717D01*
X143120682Y-96966482D01*
X143930486Y-96631878D01*
X144550600Y-96012845D01*
X144886617Y-95203626D01*
X144887382Y-94327418D01*
X144552778Y-93517614D01*
X143933745Y-92897500D01*
X143124526Y-92561483D01*
X142248318Y-92560718D01*
X142201539Y-92580047D01*
X141443096Y-91821604D01*
X141062299Y-91567164D01*
X141153522Y-91347475D01*
X141435255Y-91629700D01*
X142244474Y-91965717D01*
X143120682Y-91966482D01*
X143930486Y-91631878D01*
X144550600Y-91012845D01*
X144886617Y-90203626D01*
X144887382Y-89327418D01*
X144552778Y-88517614D01*
X143933745Y-87897500D01*
X143260991Y-87618148D01*
X143907466Y-87746740D01*
X143976134Y-87746740D01*
X144646787Y-87613339D01*
X145215339Y-87233445D01*
X145595233Y-86664893D01*
X145728634Y-85994240D01*
X145714326Y-85922306D01*
X148972500Y-82664132D01*
X148972500Y-117125996D01*
X148972500Y-117125996D01*
G37*
X148972500Y-117125996D02*
X144787968Y-113839500D01*
X145759302Y-113839500D01*
X145759302Y-113539724D01*
X146095923Y-113333570D01*
X146532658Y-112782495D01*
X146416789Y-112514000D01*
X145226800Y-112514000D01*
X145226800Y-113014000D01*
X143926800Y-113014000D01*
X143926800Y-112514000D01*
X143100274Y-112514000D01*
X142994918Y-112431254D01*
X142818289Y-112341661D01*
X142653608Y-112231625D01*
X142567647Y-112214526D01*
X142489484Y-112174879D01*
X142292008Y-112159698D01*
X142097760Y-112121060D01*
X141039532Y-112121060D01*
X142484092Y-110676500D01*
X142733025Y-110676500D01*
X142852045Y-110854626D01*
X142903482Y-110888995D01*
X142620942Y-111245505D01*
X142736811Y-111514000D01*
X143926800Y-111514000D01*
X143926800Y-111365659D01*
X144232671Y-111426500D01*
X144920929Y-111426500D01*
X145226800Y-111365659D01*
X145226800Y-111514000D01*
X146416789Y-111514000D01*
X146532658Y-111245505D01*
X146250118Y-110888995D01*
X146301555Y-110854626D01*
X146724804Y-110221189D01*
X146873429Y-109474000D01*
X146724804Y-108726811D01*
X146607678Y-108551519D01*
X146771446Y-108311836D01*
X146847960Y-107934000D01*
X146847960Y-105934000D01*
X146781543Y-105581025D01*
X146572935Y-105256838D01*
X146254636Y-105039354D01*
X145876800Y-104962840D01*
X143276800Y-104962840D01*
X142923825Y-105029257D01*
X142599638Y-105237865D01*
X142382154Y-105556164D01*
X142305640Y-105934000D01*
X142305640Y-107934000D01*
X142369145Y-108271500D01*
X141986000Y-108271500D01*
X141525823Y-108363035D01*
X141135704Y-108623704D01*
X138831068Y-110928340D01*
X138390904Y-110928340D01*
X138479621Y-110795566D01*
X138643470Y-109971840D01*
X138479621Y-109148114D01*
X138013017Y-108449793D01*
X137651300Y-108208101D01*
X137651300Y-103434660D01*
X138963300Y-103434660D01*
X139316275Y-103368243D01*
X139640462Y-103159635D01*
X139857946Y-102841336D01*
X139934460Y-102463500D01*
X139934460Y-100863500D01*
X139868043Y-100510525D01*
X139668086Y-100199782D01*
X140481618Y-100199782D01*
X140816222Y-101009586D01*
X141435255Y-101629700D01*
X142244474Y-101965717D01*
X143120682Y-101966482D01*
X143930486Y-101631878D01*
X144550600Y-101012845D01*
X144886617Y-100203626D01*
X144887382Y-99327418D01*
X144552778Y-98517614D01*
X143933745Y-97897500D01*
X143124526Y-97561483D01*
X142248318Y-97560718D01*
X141438514Y-97895322D01*
X140818400Y-98514355D01*
X140482383Y-99323574D01*
X140481618Y-100199782D01*
X139668086Y-100199782D01*
X139659435Y-100186338D01*
X139341136Y-99968854D01*
X139330712Y-99966743D01*
X139271627Y-97130660D01*
X139644300Y-97130660D01*
X139997275Y-97064243D01*
X140321462Y-96855635D01*
X140538946Y-96537336D01*
X140615460Y-96159500D01*
X140615460Y-95523705D01*
X140816222Y-96009586D01*
X141435255Y-96629700D01*
X142244474Y-96965717D01*
X143120682Y-96966482D01*
X143930486Y-96631878D01*
X144550600Y-96012845D01*
X144886617Y-95203626D01*
X144887382Y-94327418D01*
X144552778Y-93517614D01*
X143933745Y-92897500D01*
X143124526Y-92561483D01*
X142248318Y-92560718D01*
X142201539Y-92580047D01*
X141443096Y-91821604D01*
X141062299Y-91567164D01*
X141153522Y-91347475D01*
X141435255Y-91629700D01*
X142244474Y-91965717D01*
X143120682Y-91966482D01*
X143930486Y-91631878D01*
X144550600Y-91012845D01*
X144886617Y-90203626D01*
X144887382Y-89327418D01*
X144552778Y-88517614D01*
X143933745Y-87897500D01*
X143260991Y-87618148D01*
X143907466Y-87746740D01*
X143976134Y-87746740D01*
X144646787Y-87613339D01*
X145215339Y-87233445D01*
X145595233Y-86664893D01*
X145728634Y-85994240D01*
X145714326Y-85922306D01*
X148972500Y-82664132D01*
X148972500Y-117125996D01*
G36*
X127638144Y-85483096D02*
X128028263Y-85743765D01*
X128488440Y-85835300D01*
X131794812Y-85835300D01*
X131740966Y-86106000D01*
X131874367Y-86776653D01*
X132254261Y-87345205D01*
X132325300Y-87392672D01*
X132325300Y-88931752D01*
X131974634Y-88862000D01*
X131905966Y-88862000D01*
X131903529Y-88862485D01*
X131661564Y-88276885D01*
X131169008Y-87783469D01*
X130525123Y-87516104D01*
X129827935Y-87515496D01*
X129183585Y-87781736D01*
X128690169Y-88274292D01*
X128422804Y-88918177D01*
X128422196Y-89615365D01*
X128688436Y-90259715D01*
X129180992Y-90753131D01*
X129824877Y-91020496D01*
X130234295Y-91020853D01*
X130286867Y-91285153D01*
X130666761Y-91853705D01*
X130737800Y-91901172D01*
X130737800Y-93036099D01*
X130098631Y-93163237D01*
X129432752Y-93608163D01*
X128987826Y-94274042D01*
X128831589Y-95059500D01*
X128987826Y-95844958D01*
X129432752Y-96510837D01*
X129870074Y-96803046D01*
X129870228Y-96804320D01*
X129921991Y-96962152D01*
X129955135Y-97124915D01*
X131560959Y-100952487D01*
X131411104Y-101313377D01*
X131410496Y-102010565D01*
X131676736Y-102654915D01*
X132169292Y-103148331D01*
X132813177Y-103415696D01*
X132971427Y-103415834D01*
X133163300Y-103454000D01*
X133353498Y-103416167D01*
X133510365Y-103416304D01*
X134154715Y-103150064D01*
X134648131Y-102657508D01*
X134915496Y-102013623D01*
X134916104Y-101316435D01*
X134649864Y-100672085D01*
X134157308Y-100178669D01*
X133778381Y-100021325D01*
X132329729Y-96568380D01*
X132415848Y-96510837D01*
X132860774Y-95844958D01*
X133017011Y-95059500D01*
X132939672Y-94670688D01*
X133051265Y-94503677D01*
X133142800Y-94043500D01*
X133142800Y-91901172D01*
X133213839Y-91853705D01*
X133551567Y-91348259D01*
X135725504Y-93522196D01*
X136115623Y-93782865D01*
X136493681Y-93858066D01*
X136473140Y-93959500D01*
X136473140Y-96159500D01*
X136539557Y-96512475D01*
X136748165Y-96836662D01*
X136861595Y-96914165D01*
X136926152Y-100012921D01*
X136686138Y-100167365D01*
X136468654Y-100485664D01*
X136392140Y-100863500D01*
X136392140Y-101057102D01*
X136016571Y-101201766D01*
X136003635Y-101209949D01*
X135988623Y-101212935D01*
X135805832Y-101335072D01*
X135620050Y-101452591D01*
X135611231Y-101465100D01*
X135598504Y-101473604D01*
X135476371Y-101656389D01*
X135349699Y-101836064D01*
X135346338Y-101850997D01*
X135337835Y-101863723D01*
X135294947Y-102079335D01*
X135246677Y-102293806D01*
X135249286Y-102308887D01*
X135246300Y-102323900D01*
X135246300Y-107068748D01*
X133816756Y-105639204D01*
X133426637Y-105378535D01*
X132966460Y-105287000D01*
X124072147Y-105287000D01*
X123972077Y-105186756D01*
X123907265Y-104860923D01*
X123646596Y-104470804D01*
X120814496Y-101638704D01*
X120424377Y-101378035D01*
X119964200Y-101286500D01*
X116632618Y-101286500D01*
X116908473Y-100873653D01*
X117041874Y-100203000D01*
X116908473Y-99532347D01*
X116528579Y-98963795D01*
X116482531Y-98933027D01*
X116834605Y-98697779D01*
X117214499Y-98129227D01*
X117347900Y-97458574D01*
X117347900Y-97389906D01*
X117214499Y-96719253D01*
X116834605Y-96150701D01*
X116797900Y-96126176D01*
X116797900Y-93913960D01*
X116706365Y-93453783D01*
X116445696Y-93063664D01*
X114720604Y-91338572D01*
X115245277Y-91556436D01*
X115942465Y-91557044D01*
X116586815Y-91290804D01*
X117080231Y-90798248D01*
X117347596Y-90154363D01*
X117348110Y-89565535D01*
X117386704Y-89623296D01*
X118047148Y-90283740D01*
X117923300Y-90334913D01*
X117514349Y-90743151D01*
X117292753Y-91276812D01*
X117292249Y-91854653D01*
X117512913Y-92388700D01*
X117921151Y-92797651D01*
X118454812Y-93019247D01*
X118689500Y-93019452D01*
X118689500Y-94019502D01*
X119030069Y-94019502D01*
X119047392Y-94036825D01*
X119350798Y-94162500D01*
X119558625Y-94162500D01*
X119765000Y-93956125D01*
X119765000Y-93087000D01*
X119515000Y-93087000D01*
X119515000Y-92820449D01*
X119566700Y-92799087D01*
X119596339Y-92769500D01*
X120456708Y-92769500D01*
X120463500Y-92776292D01*
X120463500Y-93087000D01*
X120265000Y-93087000D01*
X120265000Y-93956125D01*
X120463500Y-94154625D01*
X120463500Y-94218508D01*
X118555104Y-96126904D01*
X118294435Y-96517023D01*
X118202900Y-96977200D01*
X118202900Y-97453953D01*
X117920569Y-97735792D01*
X117653204Y-98379677D01*
X117652596Y-99076865D01*
X117918836Y-99721215D01*
X118411392Y-100214631D01*
X119055277Y-100481996D01*
X119752465Y-100482604D01*
X120396815Y-100216364D01*
X120890231Y-99723808D01*
X121104338Y-99208181D01*
X121177201Y-99574487D01*
X121557095Y-100143039D01*
X122125647Y-100522933D01*
X122796300Y-100656334D01*
X123466953Y-100522933D01*
X124035505Y-100143039D01*
X124415399Y-99574487D01*
X124548800Y-98903834D01*
X124548800Y-98835166D01*
X124415399Y-98164513D01*
X124035505Y-97595961D01*
X123998800Y-97571436D01*
X123998800Y-90570621D01*
X124180992Y-90753131D01*
X124824877Y-91020496D01*
X125522065Y-91021104D01*
X126166415Y-90754864D01*
X126659831Y-90262308D01*
X126927196Y-89618423D01*
X126927804Y-88921235D01*
X126661564Y-88276885D01*
X126377500Y-87992325D01*
X126377500Y-87808132D01*
X126899215Y-87592564D01*
X127392631Y-87100008D01*
X127659996Y-86456123D01*
X127660604Y-85758935D01*
X127482191Y-85327143D01*
X127638144Y-85483096D01*
X127638144Y-85483096D01*
G37*
X127638144Y-85483096D02*
X128028263Y-85743765D01*
X128488440Y-85835300D01*
X131794812Y-85835300D01*
X131740966Y-86106000D01*
X131874367Y-86776653D01*
X132254261Y-87345205D01*
X132325300Y-87392672D01*
X132325300Y-88931752D01*
X131974634Y-88862000D01*
X131905966Y-88862000D01*
X131903529Y-88862485D01*
X131661564Y-88276885D01*
X131169008Y-87783469D01*
X130525123Y-87516104D01*
X129827935Y-87515496D01*
X129183585Y-87781736D01*
X128690169Y-88274292D01*
X128422804Y-88918177D01*
X128422196Y-89615365D01*
X128688436Y-90259715D01*
X129180992Y-90753131D01*
X129824877Y-91020496D01*
X130234295Y-91020853D01*
X130286867Y-91285153D01*
X130666761Y-91853705D01*
X130737800Y-91901172D01*
X130737800Y-93036099D01*
X130098631Y-93163237D01*
X129432752Y-93608163D01*
X128987826Y-94274042D01*
X128831589Y-95059500D01*
X128987826Y-95844958D01*
X129432752Y-96510837D01*
X129870074Y-96803046D01*
X129870228Y-96804320D01*
X129921991Y-96962152D01*
X129955135Y-97124915D01*
X131560959Y-100952487D01*
X131411104Y-101313377D01*
X131410496Y-102010565D01*
X131676736Y-102654915D01*
X132169292Y-103148331D01*
X132813177Y-103415696D01*
X132971427Y-103415834D01*
X133163300Y-103454000D01*
X133353498Y-103416167D01*
X133510365Y-103416304D01*
X134154715Y-103150064D01*
X134648131Y-102657508D01*
X134915496Y-102013623D01*
X134916104Y-101316435D01*
X134649864Y-100672085D01*
X134157308Y-100178669D01*
X133778381Y-100021325D01*
X132329729Y-96568380D01*
X132415848Y-96510837D01*
X132860774Y-95844958D01*
X133017011Y-95059500D01*
X132939672Y-94670688D01*
X133051265Y-94503677D01*
X133142800Y-94043500D01*
X133142800Y-91901172D01*
X133213839Y-91853705D01*
X133551567Y-91348259D01*
X135725504Y-93522196D01*
X136115623Y-93782865D01*
X136493681Y-93858066D01*
X136473140Y-93959500D01*
X136473140Y-96159500D01*
X136539557Y-96512475D01*
X136748165Y-96836662D01*
X136861595Y-96914165D01*
X136926152Y-100012921D01*
X136686138Y-100167365D01*
X136468654Y-100485664D01*
X136392140Y-100863500D01*
X136392140Y-101057102D01*
X136016571Y-101201766D01*
X136003635Y-101209949D01*
X135988623Y-101212935D01*
X135805832Y-101335072D01*
X135620050Y-101452591D01*
X135611231Y-101465100D01*
X135598504Y-101473604D01*
X135476371Y-101656389D01*
X135349699Y-101836064D01*
X135346338Y-101850997D01*
X135337835Y-101863723D01*
X135294947Y-102079335D01*
X135246677Y-102293806D01*
X135249286Y-102308887D01*
X135246300Y-102323900D01*
X135246300Y-107068748D01*
X133816756Y-105639204D01*
X133426637Y-105378535D01*
X132966460Y-105287000D01*
X124072147Y-105287000D01*
X123972077Y-105186756D01*
X123907265Y-104860923D01*
X123646596Y-104470804D01*
X120814496Y-101638704D01*
X120424377Y-101378035D01*
X119964200Y-101286500D01*
X116632618Y-101286500D01*
X116908473Y-100873653D01*
X117041874Y-100203000D01*
X116908473Y-99532347D01*
X116528579Y-98963795D01*
X116482531Y-98933027D01*
X116834605Y-98697779D01*
X117214499Y-98129227D01*
X117347900Y-97458574D01*
X117347900Y-97389906D01*
X117214499Y-96719253D01*
X116834605Y-96150701D01*
X116797900Y-96126176D01*
X116797900Y-93913960D01*
X116706365Y-93453783D01*
X116445696Y-93063664D01*
X114720604Y-91338572D01*
X115245277Y-91556436D01*
X115942465Y-91557044D01*
X116586815Y-91290804D01*
X117080231Y-90798248D01*
X117347596Y-90154363D01*
X117348110Y-89565535D01*
X117386704Y-89623296D01*
X118047148Y-90283740D01*
X117923300Y-90334913D01*
X117514349Y-90743151D01*
X117292753Y-91276812D01*
X117292249Y-91854653D01*
X117512913Y-92388700D01*
X117921151Y-92797651D01*
X118454812Y-93019247D01*
X118689500Y-93019452D01*
X118689500Y-94019502D01*
X119030069Y-94019502D01*
X119047392Y-94036825D01*
X119350798Y-94162500D01*
X119558625Y-94162500D01*
X119765000Y-93956125D01*
X119765000Y-93087000D01*
X119515000Y-93087000D01*
X119515000Y-92820449D01*
X119566700Y-92799087D01*
X119596339Y-92769500D01*
X120456708Y-92769500D01*
X120463500Y-92776292D01*
X120463500Y-93087000D01*
X120265000Y-93087000D01*
X120265000Y-93956125D01*
X120463500Y-94154625D01*
X120463500Y-94218508D01*
X118555104Y-96126904D01*
X118294435Y-96517023D01*
X118202900Y-96977200D01*
X118202900Y-97453953D01*
X117920569Y-97735792D01*
X117653204Y-98379677D01*
X117652596Y-99076865D01*
X117918836Y-99721215D01*
X118411392Y-100214631D01*
X119055277Y-100481996D01*
X119752465Y-100482604D01*
X120396815Y-100216364D01*
X120890231Y-99723808D01*
X121104338Y-99208181D01*
X121177201Y-99574487D01*
X121557095Y-100143039D01*
X122125647Y-100522933D01*
X122796300Y-100656334D01*
X123466953Y-100522933D01*
X124035505Y-100143039D01*
X124415399Y-99574487D01*
X124548800Y-98903834D01*
X124548800Y-98835166D01*
X124415399Y-98164513D01*
X124035505Y-97595961D01*
X123998800Y-97571436D01*
X123998800Y-90570621D01*
X124180992Y-90753131D01*
X124824877Y-91020496D01*
X125522065Y-91021104D01*
X126166415Y-90754864D01*
X126659831Y-90262308D01*
X126927196Y-89618423D01*
X126927804Y-88921235D01*
X126661564Y-88276885D01*
X126377500Y-87992325D01*
X126377500Y-87808132D01*
X126899215Y-87592564D01*
X127392631Y-87100008D01*
X127659996Y-86456123D01*
X127660604Y-85758935D01*
X127482191Y-85327143D01*
X127638144Y-85483096D01*
G36*
X111131287Y-96179639D02*
X110811461Y-96658293D01*
X110712579Y-97155406D01*
X110619138Y-96685642D01*
X110351916Y-96604009D01*
X109648525Y-97307400D01*
X110351916Y-98010791D01*
X110619138Y-97929158D01*
X110699678Y-97506297D01*
X110811461Y-98068267D01*
X111191355Y-98636819D01*
X111759907Y-99016713D01*
X112430560Y-99150114D01*
X112712821Y-99093969D01*
X112747075Y-99266177D01*
X113007744Y-99656296D01*
X113482514Y-100131066D01*
X113468206Y-100203000D01*
X113601607Y-100873653D01*
X113877462Y-101286500D01*
X111089692Y-101286500D01*
X109196824Y-99393632D01*
X109121604Y-99211585D01*
X108986403Y-99076148D01*
X109098242Y-98964309D01*
X109704598Y-98843698D01*
X109786231Y-98576476D01*
X109082840Y-97873085D01*
X108799997Y-98155928D01*
X108234312Y-97590243D01*
X108517155Y-97307400D01*
X107813764Y-96604009D01*
X107546542Y-96685642D01*
X107432257Y-97285672D01*
X107079163Y-97638767D01*
X107891118Y-98450722D01*
X107287975Y-98450196D01*
X106643625Y-98716436D01*
X106150209Y-99208992D01*
X105882844Y-99852877D01*
X105882325Y-100447933D01*
X103056500Y-97622108D01*
X103056500Y-96666807D01*
X103124153Y-96599273D01*
X103445368Y-96921050D01*
X104059860Y-97176209D01*
X104725221Y-97176789D01*
X105340157Y-96922703D01*
X105811050Y-96452632D01*
X105983085Y-96038324D01*
X108379449Y-96038324D01*
X109082840Y-96741715D01*
X109786231Y-96038324D01*
X109704598Y-95771102D01*
X109069354Y-95650110D01*
X108461082Y-95771102D01*
X108379449Y-96038324D01*
X105983085Y-96038324D01*
X106066209Y-95838140D01*
X106066789Y-95172779D01*
X105812703Y-94557843D01*
X105342632Y-94086950D01*
X104901017Y-93903575D01*
X105615008Y-93189584D01*
X105629666Y-93192500D01*
X105698334Y-93192500D01*
X106368987Y-93059099D01*
X106937539Y-92679205D01*
X106962064Y-92642500D01*
X107594148Y-92642500D01*
X111131287Y-96179639D01*
X111131287Y-96179639D01*
G37*
X111131287Y-96179639D02*
X110811461Y-96658293D01*
X110712579Y-97155406D01*
X110619138Y-96685642D01*
X110351916Y-96604009D01*
X109648525Y-97307400D01*
X110351916Y-98010791D01*
X110619138Y-97929158D01*
X110699678Y-97506297D01*
X110811461Y-98068267D01*
X111191355Y-98636819D01*
X111759907Y-99016713D01*
X112430560Y-99150114D01*
X112712821Y-99093969D01*
X112747075Y-99266177D01*
X113007744Y-99656296D01*
X113482514Y-100131066D01*
X113468206Y-100203000D01*
X113601607Y-100873653D01*
X113877462Y-101286500D01*
X111089692Y-101286500D01*
X109196824Y-99393632D01*
X109121604Y-99211585D01*
X108986403Y-99076148D01*
X109098242Y-98964309D01*
X109704598Y-98843698D01*
X109786231Y-98576476D01*
X109082840Y-97873085D01*
X108799997Y-98155928D01*
X108234312Y-97590243D01*
X108517155Y-97307400D01*
X107813764Y-96604009D01*
X107546542Y-96685642D01*
X107432257Y-97285672D01*
X107079163Y-97638767D01*
X107891118Y-98450722D01*
X107287975Y-98450196D01*
X106643625Y-98716436D01*
X106150209Y-99208992D01*
X105882844Y-99852877D01*
X105882325Y-100447933D01*
X103056500Y-97622108D01*
X103056500Y-96666807D01*
X103124153Y-96599273D01*
X103445368Y-96921050D01*
X104059860Y-97176209D01*
X104725221Y-97176789D01*
X105340157Y-96922703D01*
X105811050Y-96452632D01*
X105983085Y-96038324D01*
X108379449Y-96038324D01*
X109082840Y-96741715D01*
X109786231Y-96038324D01*
X109704598Y-95771102D01*
X109069354Y-95650110D01*
X108461082Y-95771102D01*
X108379449Y-96038324D01*
X105983085Y-96038324D01*
X106066209Y-95838140D01*
X106066789Y-95172779D01*
X105812703Y-94557843D01*
X105342632Y-94086950D01*
X104901017Y-93903575D01*
X105615008Y-93189584D01*
X105629666Y-93192500D01*
X105698334Y-93192500D01*
X106368987Y-93059099D01*
X106937539Y-92679205D01*
X106962064Y-92642500D01*
X107594148Y-92642500D01*
X111131287Y-96179639D01*
G36*
X107472795Y-88141539D02*
X107861994Y-88401594D01*
X107843635Y-88413861D01*
X107463741Y-88982413D01*
X107330340Y-89653066D01*
X107330340Y-89721734D01*
X107432932Y-90237500D01*
X106962064Y-90237500D01*
X106937539Y-90200795D01*
X106368987Y-89820901D01*
X106208610Y-89789000D01*
X106368987Y-89757099D01*
X106937539Y-89377205D01*
X107317433Y-88808653D01*
X107450834Y-88138000D01*
X107442528Y-88096240D01*
X107472795Y-88141539D01*
X107472795Y-88141539D01*
G37*
X107472795Y-88141539D02*
X107861994Y-88401594D01*
X107843635Y-88413861D01*
X107463741Y-88982413D01*
X107330340Y-89653066D01*
X107330340Y-89721734D01*
X107432932Y-90237500D01*
X106962064Y-90237500D01*
X106937539Y-90200795D01*
X106368987Y-89820901D01*
X106208610Y-89789000D01*
X106368987Y-89757099D01*
X106937539Y-89377205D01*
X107317433Y-88808653D01*
X107450834Y-88138000D01*
X107442528Y-88096240D01*
X107472795Y-88141539D01*
G36*
X147941220Y-63495172D02*
X147941220Y-80294228D01*
X143990792Y-84244656D01*
X143976134Y-84241740D01*
X143907466Y-84241740D01*
X143236813Y-84375141D01*
X142668261Y-84755035D01*
X142288367Y-85323587D01*
X142154966Y-85994240D01*
X142288367Y-86664893D01*
X142668261Y-87233445D01*
X143216135Y-87599522D01*
X143124526Y-87561483D01*
X142248318Y-87560718D01*
X141438514Y-87895322D01*
X140818400Y-88514355D01*
X140560376Y-89135747D01*
X140554308Y-89129669D01*
X139910423Y-88862304D01*
X139508345Y-88861953D01*
X137720560Y-87074168D01*
X137806631Y-86988248D01*
X138073996Y-86344363D01*
X138074440Y-85835300D01*
X139209800Y-85835300D01*
X139429126Y-85791673D01*
X139649220Y-85752137D01*
X139658805Y-85745987D01*
X139669977Y-85743765D01*
X139855925Y-85619519D01*
X140044123Y-85498774D01*
X142165869Y-83454577D01*
X142244474Y-83487217D01*
X143120682Y-83487982D01*
X143930486Y-83153378D01*
X144550600Y-82534345D01*
X144886617Y-81725126D01*
X144887382Y-80848918D01*
X144552778Y-80039114D01*
X143933745Y-79419000D01*
X143124526Y-79082983D01*
X142248318Y-79082218D01*
X141881184Y-79233915D01*
X142263663Y-78487234D01*
X143120682Y-78487982D01*
X143930486Y-78153378D01*
X144550600Y-77534345D01*
X144886617Y-76725126D01*
X144887382Y-75848918D01*
X144552778Y-75039114D01*
X144442397Y-74928540D01*
X145084800Y-74928540D01*
X145544977Y-74837005D01*
X145935096Y-74576336D01*
X146544696Y-73966736D01*
X146565062Y-73936256D01*
X146805365Y-73576617D01*
X146896900Y-73116440D01*
X146896900Y-65946339D01*
X147124800Y-65847989D01*
X147124800Y-64658000D01*
X146976459Y-64658000D01*
X147037300Y-64352129D01*
X147037300Y-63663871D01*
X146976459Y-63358000D01*
X147124800Y-63358000D01*
X147124800Y-62805500D01*
X147251548Y-62805500D01*
X147941220Y-63495172D01*
X147941220Y-63495172D01*
G37*
X147941220Y-63495172D02*
X147941220Y-80294228D01*
X143990792Y-84244656D01*
X143976134Y-84241740D01*
X143907466Y-84241740D01*
X143236813Y-84375141D01*
X142668261Y-84755035D01*
X142288367Y-85323587D01*
X142154966Y-85994240D01*
X142288367Y-86664893D01*
X142668261Y-87233445D01*
X143216135Y-87599522D01*
X143124526Y-87561483D01*
X142248318Y-87560718D01*
X141438514Y-87895322D01*
X140818400Y-88514355D01*
X140560376Y-89135747D01*
X140554308Y-89129669D01*
X139910423Y-88862304D01*
X139508345Y-88861953D01*
X137720560Y-87074168D01*
X137806631Y-86988248D01*
X138073996Y-86344363D01*
X138074440Y-85835300D01*
X139209800Y-85835300D01*
X139429126Y-85791673D01*
X139649220Y-85752137D01*
X139658805Y-85745987D01*
X139669977Y-85743765D01*
X139855925Y-85619519D01*
X140044123Y-85498774D01*
X142165869Y-83454577D01*
X142244474Y-83487217D01*
X143120682Y-83487982D01*
X143930486Y-83153378D01*
X144550600Y-82534345D01*
X144886617Y-81725126D01*
X144887382Y-80848918D01*
X144552778Y-80039114D01*
X143933745Y-79419000D01*
X143124526Y-79082983D01*
X142248318Y-79082218D01*
X141881184Y-79233915D01*
X142263663Y-78487234D01*
X143120682Y-78487982D01*
X143930486Y-78153378D01*
X144550600Y-77534345D01*
X144886617Y-76725126D01*
X144887382Y-75848918D01*
X144552778Y-75039114D01*
X144442397Y-74928540D01*
X145084800Y-74928540D01*
X145544977Y-74837005D01*
X145935096Y-74576336D01*
X146544696Y-73966736D01*
X146565062Y-73936256D01*
X146805365Y-73576617D01*
X146896900Y-73116440D01*
X146896900Y-65946339D01*
X147124800Y-65847989D01*
X147124800Y-64658000D01*
X146976459Y-64658000D01*
X147037300Y-64352129D01*
X147037300Y-63663871D01*
X146976459Y-63358000D01*
X147124800Y-63358000D01*
X147124800Y-62805500D01*
X147251548Y-62805500D01*
X147941220Y-63495172D01*
G36*
X84124800Y-81283620D02*
X85370295Y-81283620D01*
X85424275Y-81337600D01*
X86468400Y-81337600D01*
X86468400Y-81283620D01*
X87151400Y-81283620D01*
X87151400Y-82544395D01*
X86928713Y-82500100D01*
X86858087Y-82500100D01*
X86468400Y-82577613D01*
X86468400Y-82187600D01*
X85424275Y-82187600D01*
X85217900Y-82393975D01*
X85217900Y-82776802D01*
X85343575Y-83080208D01*
X85466520Y-83203153D01*
X85192794Y-83612813D01*
X85055587Y-84302600D01*
X85192794Y-84992387D01*
X85404949Y-85309900D01*
X84078900Y-85309900D01*
X84078900Y-81274490D01*
X84124800Y-81283620D01*
X84124800Y-81283620D01*
G37*
X84124800Y-81283620D02*
X85370295Y-81283620D01*
X85424275Y-81337600D01*
X86468400Y-81337600D01*
X86468400Y-81283620D01*
X87151400Y-81283620D01*
X87151400Y-82544395D01*
X86928713Y-82500100D01*
X86858087Y-82500100D01*
X86468400Y-82577613D01*
X86468400Y-82187600D01*
X85424275Y-82187600D01*
X85217900Y-82393975D01*
X85217900Y-82776802D01*
X85343575Y-83080208D01*
X85466520Y-83203153D01*
X85192794Y-83612813D01*
X85055587Y-84302600D01*
X85192794Y-84992387D01*
X85404949Y-85309900D01*
X84078900Y-85309900D01*
X84078900Y-81274490D01*
X84124800Y-81283620D01*
G36*
X115044327Y-71724427D02*
X114910926Y-72395080D01*
X115044327Y-73065733D01*
X115228535Y-73341420D01*
X113160800Y-73341420D01*
X112700623Y-73432955D01*
X112310504Y-73693624D01*
X111673424Y-74330704D01*
X111274495Y-74330356D01*
X110630145Y-74596596D01*
X110136729Y-75089152D01*
X110099013Y-75179983D01*
X109999378Y-74679082D01*
X109732156Y-74597449D01*
X109028765Y-75300840D01*
X109732156Y-76004231D01*
X109869164Y-75962377D01*
X109868756Y-76430225D01*
X110134996Y-77074575D01*
X110627552Y-77567991D01*
X110655860Y-77579745D01*
X110581347Y-77594567D01*
X110012795Y-77974461D01*
X109951966Y-78065498D01*
X109819093Y-78065498D01*
X109353540Y-77754455D01*
X109112000Y-77886414D01*
X109112000Y-78848000D01*
X109512000Y-78848000D01*
X109512000Y-79150824D01*
X109499500Y-79213666D01*
X109499500Y-79282334D01*
X109512000Y-79345176D01*
X109512000Y-79648000D01*
X109112000Y-79648000D01*
X109112000Y-80609586D01*
X109353540Y-80741545D01*
X109819093Y-80430502D01*
X109951966Y-80430502D01*
X110012795Y-80521539D01*
X110581347Y-80901433D01*
X111252000Y-81034834D01*
X111922653Y-80901433D01*
X112491205Y-80521539D01*
X112522000Y-80475451D01*
X112552795Y-80521539D01*
X113121347Y-80901433D01*
X113792000Y-81034834D01*
X114462653Y-80901433D01*
X114802970Y-80674041D01*
X114835865Y-80725162D01*
X115154164Y-80942646D01*
X115532000Y-81019160D01*
X116402568Y-81019160D01*
X117034500Y-81651092D01*
X117034500Y-85235846D01*
X117002653Y-85214567D01*
X116332000Y-85081166D01*
X116260066Y-85095474D01*
X115201096Y-84036504D01*
X114810977Y-83775835D01*
X114350800Y-83684300D01*
X109235492Y-83684300D01*
X105440737Y-79889545D01*
X107218427Y-79889545D01*
X107577627Y-80412276D01*
X108070460Y-80741545D01*
X108312000Y-80609586D01*
X108312000Y-79648000D01*
X107342831Y-79648000D01*
X107218427Y-79889545D01*
X105440737Y-79889545D01*
X105074615Y-79523423D01*
X105399933Y-79458713D01*
X105968485Y-79078819D01*
X106284108Y-78606455D01*
X107218427Y-78606455D01*
X107342831Y-78848000D01*
X108312000Y-78848000D01*
X108312000Y-77886414D01*
X108070460Y-77754455D01*
X107577627Y-78083724D01*
X107218427Y-78606455D01*
X106284108Y-78606455D01*
X106348379Y-78510267D01*
X106426817Y-78115930D01*
X107570477Y-76855720D01*
X107612652Y-76785456D01*
X108131713Y-77304517D01*
X108478482Y-76957749D01*
X109084838Y-76837138D01*
X109166471Y-76569916D01*
X108463080Y-75866525D01*
X108180237Y-76149368D01*
X107882500Y-75851631D01*
X107882500Y-75315735D01*
X107897395Y-75300840D01*
X107882500Y-75285945D01*
X107882500Y-74750049D01*
X108180237Y-74452312D01*
X108463080Y-74735155D01*
X109050677Y-74147558D01*
X109424825Y-74147884D01*
X110069175Y-73881644D01*
X110562591Y-73389088D01*
X110829956Y-72745203D01*
X110830564Y-72048015D01*
X110646252Y-71601947D01*
X115135031Y-71588679D01*
X115044327Y-71724427D01*
X115044327Y-71724427D01*
G37*
X115044327Y-71724427D02*
X114910926Y-72395080D01*
X115044327Y-73065733D01*
X115228535Y-73341420D01*
X113160800Y-73341420D01*
X112700623Y-73432955D01*
X112310504Y-73693624D01*
X111673424Y-74330704D01*
X111274495Y-74330356D01*
X110630145Y-74596596D01*
X110136729Y-75089152D01*
X110099013Y-75179983D01*
X109999378Y-74679082D01*
X109732156Y-74597449D01*
X109028765Y-75300840D01*
X109732156Y-76004231D01*
X109869164Y-75962377D01*
X109868756Y-76430225D01*
X110134996Y-77074575D01*
X110627552Y-77567991D01*
X110655860Y-77579745D01*
X110581347Y-77594567D01*
X110012795Y-77974461D01*
X109951966Y-78065498D01*
X109819093Y-78065498D01*
X109353540Y-77754455D01*
X109112000Y-77886414D01*
X109112000Y-78848000D01*
X109512000Y-78848000D01*
X109512000Y-79150824D01*
X109499500Y-79213666D01*
X109499500Y-79282334D01*
X109512000Y-79345176D01*
X109512000Y-79648000D01*
X109112000Y-79648000D01*
X109112000Y-80609586D01*
X109353540Y-80741545D01*
X109819093Y-80430502D01*
X109951966Y-80430502D01*
X110012795Y-80521539D01*
X110581347Y-80901433D01*
X111252000Y-81034834D01*
X111922653Y-80901433D01*
X112491205Y-80521539D01*
X112522000Y-80475451D01*
X112552795Y-80521539D01*
X113121347Y-80901433D01*
X113792000Y-81034834D01*
X114462653Y-80901433D01*
X114802970Y-80674041D01*
X114835865Y-80725162D01*
X115154164Y-80942646D01*
X115532000Y-81019160D01*
X116402568Y-81019160D01*
X117034500Y-81651092D01*
X117034500Y-85235846D01*
X117002653Y-85214567D01*
X116332000Y-85081166D01*
X116260066Y-85095474D01*
X115201096Y-84036504D01*
X114810977Y-83775835D01*
X114350800Y-83684300D01*
X109235492Y-83684300D01*
X105440737Y-79889545D01*
X107218427Y-79889545D01*
X107577627Y-80412276D01*
X108070460Y-80741545D01*
X108312000Y-80609586D01*
X108312000Y-79648000D01*
X107342831Y-79648000D01*
X107218427Y-79889545D01*
X105440737Y-79889545D01*
X105074615Y-79523423D01*
X105399933Y-79458713D01*
X105968485Y-79078819D01*
X106284108Y-78606455D01*
X107218427Y-78606455D01*
X107342831Y-78848000D01*
X108312000Y-78848000D01*
X108312000Y-77886414D01*
X108070460Y-77754455D01*
X107577627Y-78083724D01*
X107218427Y-78606455D01*
X106284108Y-78606455D01*
X106348379Y-78510267D01*
X106426817Y-78115930D01*
X107570477Y-76855720D01*
X107612652Y-76785456D01*
X108131713Y-77304517D01*
X108478482Y-76957749D01*
X109084838Y-76837138D01*
X109166471Y-76569916D01*
X108463080Y-75866525D01*
X108180237Y-76149368D01*
X107882500Y-75851631D01*
X107882500Y-75315735D01*
X107897395Y-75300840D01*
X107882500Y-75285945D01*
X107882500Y-74750049D01*
X108180237Y-74452312D01*
X108463080Y-74735155D01*
X109050677Y-74147558D01*
X109424825Y-74147884D01*
X110069175Y-73881644D01*
X110562591Y-73389088D01*
X110829956Y-72745203D01*
X110830564Y-72048015D01*
X110646252Y-71601947D01*
X115135031Y-71588679D01*
X115044327Y-71724427D01*
G36*
X138436300Y-75190400D02*
X139405469Y-75190400D01*
X139529873Y-74948855D01*
X139515913Y-74928540D01*
X140925902Y-74928540D01*
X140818400Y-75035855D01*
X140482383Y-75845074D01*
X140481645Y-76690914D01*
X139362282Y-78876148D01*
X139344124Y-78940006D01*
X139308837Y-78996243D01*
X139280459Y-79163900D01*
X139233953Y-79327450D01*
X139241614Y-79393394D01*
X139230534Y-79458855D01*
X139264470Y-80641919D01*
X138995345Y-80456987D01*
X138753800Y-80581391D01*
X138753800Y-81550560D01*
X138993114Y-81550560D01*
X137953800Y-82579879D01*
X137953800Y-82350560D01*
X136992214Y-82350560D01*
X136860255Y-82592100D01*
X136869745Y-82606304D01*
X132355312Y-82615405D01*
X132485996Y-82300683D01*
X132486347Y-81898605D01*
X133075932Y-81309020D01*
X136860255Y-81309020D01*
X136992214Y-81550560D01*
X137953800Y-81550560D01*
X137953800Y-80581391D01*
X137712255Y-80456987D01*
X137189524Y-80816187D01*
X136860255Y-81309020D01*
X133075932Y-81309020D01*
X133806596Y-80578356D01*
X133887975Y-80456563D01*
X134067265Y-80188237D01*
X134139386Y-79825660D01*
X136131176Y-79825660D01*
X136155701Y-79862365D01*
X136724253Y-80242259D01*
X137394906Y-80375660D01*
X137463574Y-80375660D01*
X138134227Y-80242259D01*
X138702779Y-79862365D01*
X139082673Y-79293813D01*
X139216074Y-78623160D01*
X139082673Y-77952507D01*
X138702779Y-77383955D01*
X138451267Y-77215900D01*
X139218802Y-77215900D01*
X139218802Y-76684636D01*
X139529873Y-76231945D01*
X139405469Y-75990400D01*
X138436300Y-75990400D01*
X138436300Y-76390400D01*
X137636300Y-76390400D01*
X137636300Y-75990400D01*
X137236300Y-75990400D01*
X137236300Y-75687576D01*
X137248800Y-75624734D01*
X137248800Y-75556066D01*
X137236300Y-75493224D01*
X137236300Y-75190400D01*
X137636300Y-75190400D01*
X137636300Y-74928540D01*
X138436300Y-74928540D01*
X138436300Y-75190400D01*
X138436300Y-75190400D01*
G37*
X138436300Y-75190400D02*
X139405469Y-75190400D01*
X139529873Y-74948855D01*
X139515913Y-74928540D01*
X140925902Y-74928540D01*
X140818400Y-75035855D01*
X140482383Y-75845074D01*
X140481645Y-76690914D01*
X139362282Y-78876148D01*
X139344124Y-78940006D01*
X139308837Y-78996243D01*
X139280459Y-79163900D01*
X139233953Y-79327450D01*
X139241614Y-79393394D01*
X139230534Y-79458855D01*
X139264470Y-80641919D01*
X138995345Y-80456987D01*
X138753800Y-80581391D01*
X138753800Y-81550560D01*
X138993114Y-81550560D01*
X137953800Y-82579879D01*
X137953800Y-82350560D01*
X136992214Y-82350560D01*
X136860255Y-82592100D01*
X136869745Y-82606304D01*
X132355312Y-82615405D01*
X132485996Y-82300683D01*
X132486347Y-81898605D01*
X133075932Y-81309020D01*
X136860255Y-81309020D01*
X136992214Y-81550560D01*
X137953800Y-81550560D01*
X137953800Y-80581391D01*
X137712255Y-80456987D01*
X137189524Y-80816187D01*
X136860255Y-81309020D01*
X133075932Y-81309020D01*
X133806596Y-80578356D01*
X133887975Y-80456563D01*
X134067265Y-80188237D01*
X134139386Y-79825660D01*
X136131176Y-79825660D01*
X136155701Y-79862365D01*
X136724253Y-80242259D01*
X137394906Y-80375660D01*
X137463574Y-80375660D01*
X138134227Y-80242259D01*
X138702779Y-79862365D01*
X139082673Y-79293813D01*
X139216074Y-78623160D01*
X139082673Y-77952507D01*
X138702779Y-77383955D01*
X138451267Y-77215900D01*
X139218802Y-77215900D01*
X139218802Y-76684636D01*
X139529873Y-76231945D01*
X139405469Y-75990400D01*
X138436300Y-75990400D01*
X138436300Y-76390400D01*
X137636300Y-76390400D01*
X137636300Y-75990400D01*
X137236300Y-75990400D01*
X137236300Y-75687576D01*
X137248800Y-75624734D01*
X137248800Y-75556066D01*
X137236300Y-75493224D01*
X137236300Y-75190400D01*
X137636300Y-75190400D01*
X137636300Y-74928540D01*
X138436300Y-74928540D01*
X138436300Y-75190400D01*
G36*
X79029983Y-51208353D02*
X78563379Y-51906674D01*
X78399530Y-52730400D01*
X78563379Y-53554126D01*
X79029983Y-54252447D01*
X79728304Y-54719051D01*
X80552030Y-54882900D01*
X80636370Y-54882900D01*
X81460096Y-54719051D01*
X82158417Y-54252447D01*
X82204887Y-54182900D01*
X83256454Y-54182900D01*
X83725240Y-54651686D01*
X83725240Y-55168700D01*
X83791657Y-55521675D01*
X84000265Y-55845862D01*
X84318564Y-56063346D01*
X84696400Y-56139860D01*
X85268228Y-56139860D01*
X83565856Y-57842232D01*
X83485929Y-57842232D01*
X83477984Y-57843812D01*
X83470018Y-57842337D01*
X80992788Y-57875119D01*
X80566501Y-57875119D01*
X80106324Y-57966654D01*
X79716205Y-58227323D01*
X78678825Y-59264703D01*
X78083023Y-59017304D01*
X77385835Y-59016696D01*
X76741485Y-59282936D01*
X76248069Y-59775492D01*
X75980704Y-60419377D01*
X75980662Y-60467593D01*
X73217127Y-63231127D01*
X72902265Y-63702352D01*
X72889345Y-63767304D01*
X72791699Y-64258200D01*
X72791700Y-64258205D01*
X72791700Y-66297506D01*
X72679983Y-66372153D01*
X72213379Y-67070474D01*
X72049530Y-67894200D01*
X72213379Y-68717926D01*
X72679983Y-69416247D01*
X73378304Y-69882851D01*
X74202030Y-70046700D01*
X74286370Y-70046700D01*
X75065042Y-69891813D01*
X75073700Y-70080732D01*
X75073700Y-71173194D01*
X74654008Y-70752769D01*
X74010123Y-70485404D01*
X73312935Y-70484796D01*
X72668585Y-70751036D01*
X72175169Y-71243592D01*
X71907804Y-71887477D01*
X71907453Y-72289555D01*
X71793704Y-72403304D01*
X71533035Y-72793423D01*
X71441500Y-73253600D01*
X71441500Y-76412548D01*
X71406623Y-76463592D01*
X70931893Y-75753107D01*
X66711286Y-71532500D01*
X66917327Y-71532500D01*
X66993142Y-71563981D01*
X68180449Y-71565017D01*
X69277775Y-71111611D01*
X70118061Y-70272791D01*
X70573381Y-69176258D01*
X70574417Y-67988951D01*
X70121011Y-66891625D01*
X69282191Y-66051339D01*
X68185658Y-65596019D01*
X66998351Y-65594983D01*
X66919654Y-65627500D01*
X65476120Y-65627500D01*
X64346247Y-65852246D01*
X63543873Y-66388375D01*
X63388387Y-66492267D01*
X61361811Y-68518843D01*
X57498427Y-68346436D01*
X56359658Y-68520587D01*
X56022327Y-68724840D01*
X55766800Y-68724840D01*
X55413825Y-68791257D01*
X55266340Y-68886161D01*
X55266340Y-64743025D01*
X66503056Y-64743025D01*
X66775881Y-65056603D01*
X67909405Y-65142644D01*
X68341959Y-65056603D01*
X68614784Y-64743025D01*
X67558920Y-63687161D01*
X66503056Y-64743025D01*
X55266340Y-64743025D01*
X55266340Y-64680869D01*
X57480694Y-62600805D01*
X64666596Y-62600805D01*
X64752637Y-63033359D01*
X65066215Y-63306184D01*
X66122079Y-62250320D01*
X68995761Y-62250320D01*
X70051625Y-63306184D01*
X70365203Y-63033359D01*
X70451244Y-61899835D01*
X70365203Y-61467281D01*
X70260144Y-61375875D01*
X71107400Y-61375875D01*
X71107400Y-61733702D01*
X71233075Y-62037108D01*
X71465292Y-62269325D01*
X71768698Y-62395000D01*
X72126525Y-62395000D01*
X72332900Y-62188625D01*
X72332900Y-61169500D01*
X73132900Y-61169500D01*
X73132900Y-62188625D01*
X73339275Y-62395000D01*
X73697102Y-62395000D01*
X74000508Y-62269325D01*
X74232725Y-62037108D01*
X74358400Y-61733702D01*
X74358400Y-61375875D01*
X74152025Y-61169500D01*
X73132900Y-61169500D01*
X72332900Y-61169500D01*
X71313775Y-61169500D01*
X71107400Y-61375875D01*
X70260144Y-61375875D01*
X70051625Y-61194456D01*
X68995761Y-62250320D01*
X66122079Y-62250320D01*
X65066215Y-61194456D01*
X64752637Y-61467281D01*
X64666596Y-62600805D01*
X57480694Y-62600805D01*
X58532189Y-61613079D01*
X61644899Y-61774917D01*
X61721891Y-61763721D01*
X61798200Y-61778900D01*
X62289359Y-61681202D01*
X62784918Y-61609140D01*
X62851766Y-61569332D01*
X62928072Y-61554154D01*
X63344445Y-61275943D01*
X63774717Y-61019717D01*
X63821243Y-60957358D01*
X63885933Y-60914133D01*
X65042451Y-59757615D01*
X66503056Y-59757615D01*
X67558920Y-60813479D01*
X68567101Y-59805298D01*
X71107400Y-59805298D01*
X71107400Y-60163125D01*
X71313775Y-60369500D01*
X72332900Y-60369500D01*
X72332900Y-59350375D01*
X73132900Y-59350375D01*
X73132900Y-60369500D01*
X74152025Y-60369500D01*
X74358400Y-60163125D01*
X74358400Y-59805298D01*
X74232725Y-59501892D01*
X74000508Y-59269675D01*
X73697102Y-59144000D01*
X73339275Y-59144000D01*
X73132900Y-59350375D01*
X72332900Y-59350375D01*
X72126525Y-59144000D01*
X71768698Y-59144000D01*
X71465292Y-59269675D01*
X71233075Y-59501892D01*
X71107400Y-59805298D01*
X68567101Y-59805298D01*
X68614784Y-59757615D01*
X68341959Y-59444037D01*
X67208435Y-59357996D01*
X66775881Y-59444037D01*
X66503056Y-59757615D01*
X65042451Y-59757615D01*
X69981933Y-54818133D01*
X70621954Y-53860272D01*
X70846700Y-52730400D01*
X70621954Y-51600527D01*
X70239070Y-51027500D01*
X79300648Y-51027500D01*
X79029983Y-51208353D01*
X79029983Y-51208353D01*
G37*
X79029983Y-51208353D02*
X78563379Y-51906674D01*
X78399530Y-52730400D01*
X78563379Y-53554126D01*
X79029983Y-54252447D01*
X79728304Y-54719051D01*
X80552030Y-54882900D01*
X80636370Y-54882900D01*
X81460096Y-54719051D01*
X82158417Y-54252447D01*
X82204887Y-54182900D01*
X83256454Y-54182900D01*
X83725240Y-54651686D01*
X83725240Y-55168700D01*
X83791657Y-55521675D01*
X84000265Y-55845862D01*
X84318564Y-56063346D01*
X84696400Y-56139860D01*
X85268228Y-56139860D01*
X83565856Y-57842232D01*
X83485929Y-57842232D01*
X83477984Y-57843812D01*
X83470018Y-57842337D01*
X80992788Y-57875119D01*
X80566501Y-57875119D01*
X80106324Y-57966654D01*
X79716205Y-58227323D01*
X78678825Y-59264703D01*
X78083023Y-59017304D01*
X77385835Y-59016696D01*
X76741485Y-59282936D01*
X76248069Y-59775492D01*
X75980704Y-60419377D01*
X75980662Y-60467593D01*
X73217127Y-63231127D01*
X72902265Y-63702352D01*
X72889345Y-63767304D01*
X72791699Y-64258200D01*
X72791700Y-64258205D01*
X72791700Y-66297506D01*
X72679983Y-66372153D01*
X72213379Y-67070474D01*
X72049530Y-67894200D01*
X72213379Y-68717926D01*
X72679983Y-69416247D01*
X73378304Y-69882851D01*
X74202030Y-70046700D01*
X74286370Y-70046700D01*
X75065042Y-69891813D01*
X75073700Y-70080732D01*
X75073700Y-71173194D01*
X74654008Y-70752769D01*
X74010123Y-70485404D01*
X73312935Y-70484796D01*
X72668585Y-70751036D01*
X72175169Y-71243592D01*
X71907804Y-71887477D01*
X71907453Y-72289555D01*
X71793704Y-72403304D01*
X71533035Y-72793423D01*
X71441500Y-73253600D01*
X71441500Y-76412548D01*
X71406623Y-76463592D01*
X70931893Y-75753107D01*
X66711286Y-71532500D01*
X66917327Y-71532500D01*
X66993142Y-71563981D01*
X68180449Y-71565017D01*
X69277775Y-71111611D01*
X70118061Y-70272791D01*
X70573381Y-69176258D01*
X70574417Y-67988951D01*
X70121011Y-66891625D01*
X69282191Y-66051339D01*
X68185658Y-65596019D01*
X66998351Y-65594983D01*
X66919654Y-65627500D01*
X65476120Y-65627500D01*
X64346247Y-65852246D01*
X63543873Y-66388375D01*
X63388387Y-66492267D01*
X61361811Y-68518843D01*
X57498427Y-68346436D01*
X56359658Y-68520587D01*
X56022327Y-68724840D01*
X55766800Y-68724840D01*
X55413825Y-68791257D01*
X55266340Y-68886161D01*
X55266340Y-64743025D01*
X66503056Y-64743025D01*
X66775881Y-65056603D01*
X67909405Y-65142644D01*
X68341959Y-65056603D01*
X68614784Y-64743025D01*
X67558920Y-63687161D01*
X66503056Y-64743025D01*
X55266340Y-64743025D01*
X55266340Y-64680869D01*
X57480694Y-62600805D01*
X64666596Y-62600805D01*
X64752637Y-63033359D01*
X65066215Y-63306184D01*
X66122079Y-62250320D01*
X68995761Y-62250320D01*
X70051625Y-63306184D01*
X70365203Y-63033359D01*
X70451244Y-61899835D01*
X70365203Y-61467281D01*
X70260144Y-61375875D01*
X71107400Y-61375875D01*
X71107400Y-61733702D01*
X71233075Y-62037108D01*
X71465292Y-62269325D01*
X71768698Y-62395000D01*
X72126525Y-62395000D01*
X72332900Y-62188625D01*
X72332900Y-61169500D01*
X73132900Y-61169500D01*
X73132900Y-62188625D01*
X73339275Y-62395000D01*
X73697102Y-62395000D01*
X74000508Y-62269325D01*
X74232725Y-62037108D01*
X74358400Y-61733702D01*
X74358400Y-61375875D01*
X74152025Y-61169500D01*
X73132900Y-61169500D01*
X72332900Y-61169500D01*
X71313775Y-61169500D01*
X71107400Y-61375875D01*
X70260144Y-61375875D01*
X70051625Y-61194456D01*
X68995761Y-62250320D01*
X66122079Y-62250320D01*
X65066215Y-61194456D01*
X64752637Y-61467281D01*
X64666596Y-62600805D01*
X57480694Y-62600805D01*
X58532189Y-61613079D01*
X61644899Y-61774917D01*
X61721891Y-61763721D01*
X61798200Y-61778900D01*
X62289359Y-61681202D01*
X62784918Y-61609140D01*
X62851766Y-61569332D01*
X62928072Y-61554154D01*
X63344445Y-61275943D01*
X63774717Y-61019717D01*
X63821243Y-60957358D01*
X63885933Y-60914133D01*
X65042451Y-59757615D01*
X66503056Y-59757615D01*
X67558920Y-60813479D01*
X68567101Y-59805298D01*
X71107400Y-59805298D01*
X71107400Y-60163125D01*
X71313775Y-60369500D01*
X72332900Y-60369500D01*
X72332900Y-59350375D01*
X73132900Y-59350375D01*
X73132900Y-60369500D01*
X74152025Y-60369500D01*
X74358400Y-60163125D01*
X74358400Y-59805298D01*
X74232725Y-59501892D01*
X74000508Y-59269675D01*
X73697102Y-59144000D01*
X73339275Y-59144000D01*
X73132900Y-59350375D01*
X72332900Y-59350375D01*
X72126525Y-59144000D01*
X71768698Y-59144000D01*
X71465292Y-59269675D01*
X71233075Y-59501892D01*
X71107400Y-59805298D01*
X68567101Y-59805298D01*
X68614784Y-59757615D01*
X68341959Y-59444037D01*
X67208435Y-59357996D01*
X66775881Y-59444037D01*
X66503056Y-59757615D01*
X65042451Y-59757615D01*
X69981933Y-54818133D01*
X70621954Y-53860272D01*
X70846700Y-52730400D01*
X70621954Y-51600527D01*
X70239070Y-51027500D01*
X79300648Y-51027500D01*
X79029983Y-51208353D01*
G36*
X97886674Y-61893594D02*
X97713521Y-61995499D01*
X96183146Y-63360357D01*
X95554800Y-63235371D01*
X94807611Y-63383996D01*
X94523839Y-63573606D01*
X94482408Y-63532175D01*
X94179002Y-63406500D01*
X93721175Y-63406500D01*
X93514800Y-63612875D01*
X93514800Y-64882000D01*
X93663141Y-64882000D01*
X93602300Y-65187871D01*
X93602300Y-65876129D01*
X93663141Y-66182000D01*
X93514800Y-66182000D01*
X93514800Y-67451125D01*
X93721175Y-67657500D01*
X94179002Y-67657500D01*
X94482408Y-67531825D01*
X94523839Y-67490394D01*
X94807611Y-67680004D01*
X95554800Y-67828629D01*
X96301989Y-67680004D01*
X96935426Y-67256755D01*
X97358675Y-66623318D01*
X97507300Y-65876129D01*
X97507300Y-65401927D01*
X98972224Y-64095440D01*
X98978455Y-64095440D01*
X98842507Y-64298900D01*
X98705300Y-64988687D01*
X98705300Y-65059313D01*
X98842507Y-65749100D01*
X99233240Y-66333873D01*
X99328406Y-66397461D01*
X99396835Y-66741477D01*
X99657504Y-67131596D01*
X99954103Y-67428195D01*
X99563440Y-67689227D01*
X99172707Y-68274000D01*
X99035500Y-68963787D01*
X99035500Y-69034413D01*
X99153054Y-69625400D01*
X94449900Y-69625400D01*
X93989723Y-69716935D01*
X93599604Y-69977604D01*
X91951144Y-71626064D01*
X91690475Y-72016183D01*
X91598940Y-72476360D01*
X91598940Y-74886399D01*
X91479916Y-74805074D01*
X91211618Y-74750742D01*
X91139295Y-74345240D01*
X91176031Y-74308568D01*
X91443396Y-73664683D01*
X91444004Y-72967495D01*
X91177764Y-72323145D01*
X90685208Y-71829729D01*
X90041323Y-71562364D01*
X89556400Y-71561941D01*
X89556400Y-69646800D01*
X89523071Y-69479243D01*
X89507999Y-69309069D01*
X89477658Y-69250936D01*
X89464865Y-69186623D01*
X89369951Y-69044574D01*
X89290904Y-68893123D01*
X89006780Y-68539888D01*
X89096326Y-68324237D01*
X89096333Y-68316419D01*
X91189300Y-66223452D01*
X91189300Y-66996202D01*
X91314975Y-67299608D01*
X91547192Y-67531825D01*
X91850598Y-67657500D01*
X92308425Y-67657500D01*
X92514800Y-67451125D01*
X92514800Y-66182000D01*
X92014800Y-66182000D01*
X92014800Y-64882000D01*
X92514800Y-64882000D01*
X92514800Y-63612875D01*
X92308425Y-63406500D01*
X92273972Y-63406500D01*
X92476572Y-63203900D01*
X95021400Y-63203900D01*
X95481577Y-63112365D01*
X95871696Y-62851696D01*
X96881232Y-61842160D01*
X97751800Y-61842160D01*
X98046694Y-61786672D01*
X97886674Y-61893594D01*
X97886674Y-61893594D01*
G37*
X97886674Y-61893594D02*
X97713521Y-61995499D01*
X96183146Y-63360357D01*
X95554800Y-63235371D01*
X94807611Y-63383996D01*
X94523839Y-63573606D01*
X94482408Y-63532175D01*
X94179002Y-63406500D01*
X93721175Y-63406500D01*
X93514800Y-63612875D01*
X93514800Y-64882000D01*
X93663141Y-64882000D01*
X93602300Y-65187871D01*
X93602300Y-65876129D01*
X93663141Y-66182000D01*
X93514800Y-66182000D01*
X93514800Y-67451125D01*
X93721175Y-67657500D01*
X94179002Y-67657500D01*
X94482408Y-67531825D01*
X94523839Y-67490394D01*
X94807611Y-67680004D01*
X95554800Y-67828629D01*
X96301989Y-67680004D01*
X96935426Y-67256755D01*
X97358675Y-66623318D01*
X97507300Y-65876129D01*
X97507300Y-65401927D01*
X98972224Y-64095440D01*
X98978455Y-64095440D01*
X98842507Y-64298900D01*
X98705300Y-64988687D01*
X98705300Y-65059313D01*
X98842507Y-65749100D01*
X99233240Y-66333873D01*
X99328406Y-66397461D01*
X99396835Y-66741477D01*
X99657504Y-67131596D01*
X99954103Y-67428195D01*
X99563440Y-67689227D01*
X99172707Y-68274000D01*
X99035500Y-68963787D01*
X99035500Y-69034413D01*
X99153054Y-69625400D01*
X94449900Y-69625400D01*
X93989723Y-69716935D01*
X93599604Y-69977604D01*
X91951144Y-71626064D01*
X91690475Y-72016183D01*
X91598940Y-72476360D01*
X91598940Y-74886399D01*
X91479916Y-74805074D01*
X91211618Y-74750742D01*
X91139295Y-74345240D01*
X91176031Y-74308568D01*
X91443396Y-73664683D01*
X91444004Y-72967495D01*
X91177764Y-72323145D01*
X90685208Y-71829729D01*
X90041323Y-71562364D01*
X89556400Y-71561941D01*
X89556400Y-69646800D01*
X89523071Y-69479243D01*
X89507999Y-69309069D01*
X89477658Y-69250936D01*
X89464865Y-69186623D01*
X89369951Y-69044574D01*
X89290904Y-68893123D01*
X89006780Y-68539888D01*
X89096326Y-68324237D01*
X89096333Y-68316419D01*
X91189300Y-66223452D01*
X91189300Y-66996202D01*
X91314975Y-67299608D01*
X91547192Y-67531825D01*
X91850598Y-67657500D01*
X92308425Y-67657500D01*
X92514800Y-67451125D01*
X92514800Y-66182000D01*
X92014800Y-66182000D01*
X92014800Y-64882000D01*
X92514800Y-64882000D01*
X92514800Y-63612875D01*
X92308425Y-63406500D01*
X92273972Y-63406500D01*
X92476572Y-63203900D01*
X95021400Y-63203900D01*
X95481577Y-63112365D01*
X95871696Y-62851696D01*
X96881232Y-61842160D01*
X97751800Y-61842160D01*
X98046694Y-61786672D01*
X97886674Y-61893594D01*
G36*
X128663800Y-67936066D02*
X128663800Y-68004734D01*
X128797201Y-68675387D01*
X129177095Y-69243939D01*
X129659702Y-69566406D01*
X126479904Y-72746204D01*
X126323347Y-72980509D01*
X126090995Y-73135761D01*
X126051120Y-73195438D01*
X126051120Y-71098656D01*
X126017298Y-70928620D01*
X126001267Y-70756005D01*
X125971877Y-70700276D01*
X125959585Y-70638479D01*
X125863268Y-70494330D01*
X125782400Y-70340988D01*
X124432731Y-68677600D01*
X126644400Y-68677600D01*
X127104577Y-68586065D01*
X127171030Y-68541663D01*
X127677265Y-68542104D01*
X128321615Y-68275864D01*
X128664244Y-67933832D01*
X128663800Y-67936066D01*
X128663800Y-67936066D01*
G37*
X128663800Y-67936066D02*
X128663800Y-68004734D01*
X128797201Y-68675387D01*
X129177095Y-69243939D01*
X129659702Y-69566406D01*
X126479904Y-72746204D01*
X126323347Y-72980509D01*
X126090995Y-73135761D01*
X126051120Y-73195438D01*
X126051120Y-71098656D01*
X126017298Y-70928620D01*
X126001267Y-70756005D01*
X125971877Y-70700276D01*
X125959585Y-70638479D01*
X125863268Y-70494330D01*
X125782400Y-70340988D01*
X124432731Y-68677600D01*
X126644400Y-68677600D01*
X127104577Y-68586065D01*
X127171030Y-68541663D01*
X127677265Y-68542104D01*
X128321615Y-68275864D01*
X128664244Y-67933832D01*
X128663800Y-67936066D01*
G36*
X132076461Y-51338795D02*
X131696567Y-51907347D01*
X131563166Y-52578000D01*
X131696567Y-53248653D01*
X132076461Y-53817205D01*
X132560987Y-54140954D01*
X132086621Y-54457915D01*
X131706727Y-55026467D01*
X131573326Y-55697120D01*
X131706727Y-56367773D01*
X132086621Y-56936325D01*
X132655173Y-57316219D01*
X133325826Y-57449620D01*
X133394494Y-57449620D01*
X133646434Y-57399506D01*
X133764624Y-57517696D01*
X133828959Y-57560683D01*
X133879783Y-57619019D01*
X134022351Y-57689904D01*
X134154743Y-57778365D01*
X134230631Y-57793460D01*
X134299911Y-57827906D01*
X134458755Y-57838837D01*
X134614920Y-57869900D01*
X134690806Y-57854805D01*
X134767996Y-57860117D01*
X135757665Y-57733101D01*
X135739300Y-57777438D01*
X135739300Y-58185265D01*
X135945675Y-58391640D01*
X137014800Y-58391640D01*
X137014800Y-58120641D01*
X137094698Y-58153818D01*
X137831668Y-58154461D01*
X137914800Y-58120112D01*
X137914800Y-58391640D01*
X138983925Y-58391640D01*
X139190300Y-58185265D01*
X139190300Y-57777438D01*
X139064625Y-57474032D01*
X138988619Y-57398026D01*
X139034358Y-57352367D01*
X139316978Y-56671742D01*
X139317621Y-55934772D01*
X139039320Y-55261233D01*
X139120505Y-55180048D01*
X139246180Y-54876642D01*
X139246180Y-54468815D01*
X139039805Y-54262440D01*
X137970680Y-54262440D01*
X137970680Y-54505842D01*
X137834902Y-54449462D01*
X137097932Y-54448819D01*
X137070680Y-54460079D01*
X137070680Y-54262440D01*
X136001555Y-54262440D01*
X135795180Y-54468815D01*
X135795180Y-54876642D01*
X135920855Y-55180048D01*
X135943523Y-55202716D01*
X135895242Y-55250913D01*
X135877783Y-55292958D01*
X135086794Y-55394475D01*
X135013593Y-55026467D01*
X134633699Y-54457915D01*
X134149173Y-54134166D01*
X134623539Y-53817205D01*
X135003433Y-53248653D01*
X135091453Y-52806146D01*
X135810523Y-52711196D01*
X135795180Y-52748238D01*
X135795180Y-53156065D01*
X136001555Y-53362440D01*
X137070680Y-53362440D01*
X137070680Y-53091441D01*
X137150578Y-53124618D01*
X137887548Y-53125261D01*
X137970680Y-53090912D01*
X137970680Y-53362440D01*
X139039805Y-53362440D01*
X139246180Y-53156065D01*
X139246180Y-52748238D01*
X139120505Y-52444832D01*
X139044499Y-52368826D01*
X139090238Y-52323167D01*
X139372858Y-51642542D01*
X139373395Y-51027500D01*
X144861011Y-51027500D01*
X144108100Y-51780411D01*
X144381378Y-52053689D01*
X144193717Y-52216961D01*
X144107676Y-53350485D01*
X144193717Y-53783039D01*
X144507295Y-54055864D01*
X145563159Y-53000000D01*
X145431284Y-52868125D01*
X146868125Y-51431284D01*
X147000000Y-51563159D01*
X147131876Y-51431284D01*
X148568717Y-52868125D01*
X148436841Y-53000000D01*
X148568717Y-53131876D01*
X147131876Y-54568717D01*
X147000000Y-54436841D01*
X145944136Y-55492705D01*
X146216961Y-55806283D01*
X147350485Y-55892324D01*
X147783039Y-55806283D01*
X147946311Y-55618622D01*
X148219589Y-55891900D01*
X148972500Y-55138989D01*
X148972500Y-61125268D01*
X148261736Y-60414504D01*
X147871617Y-60153835D01*
X147411440Y-60062300D01*
X144246600Y-60062300D01*
X143786423Y-60153835D01*
X143438419Y-60386364D01*
X143396304Y-60414504D01*
X142073968Y-61736840D01*
X141544800Y-61736840D01*
X141435900Y-61757331D01*
X141435900Y-60259212D01*
X141894524Y-59800588D01*
X142037615Y-59741464D01*
X142531031Y-59248908D01*
X142677388Y-58896440D01*
X147172655Y-58896440D01*
X147501924Y-59389273D01*
X148024655Y-59748473D01*
X148266200Y-59624069D01*
X148266200Y-58654900D01*
X147304614Y-58654900D01*
X147172655Y-58896440D01*
X142677388Y-58896440D01*
X142798396Y-58605023D01*
X142799004Y-57907835D01*
X142677330Y-57613360D01*
X147172655Y-57613360D01*
X147304614Y-57854900D01*
X148266200Y-57854900D01*
X148266200Y-56885731D01*
X148024655Y-56761327D01*
X147501924Y-57120527D01*
X147172655Y-57613360D01*
X142677330Y-57613360D01*
X142532764Y-57263485D01*
X142040208Y-56770069D01*
X141396323Y-56502704D01*
X140699135Y-56502096D01*
X140054785Y-56768336D01*
X139561369Y-57260892D01*
X139294004Y-57904777D01*
X139293396Y-58601965D01*
X139409930Y-58883998D01*
X139383104Y-58910824D01*
X139122435Y-59300943D01*
X139100998Y-59408713D01*
X138983925Y-59291640D01*
X137914800Y-59291640D01*
X137914800Y-60360765D01*
X138121175Y-60567140D01*
X138529002Y-60567140D01*
X138832408Y-60441465D01*
X139030900Y-60242973D01*
X139030900Y-62451108D01*
X137868056Y-61288264D01*
X137477937Y-61027595D01*
X137017760Y-60936060D01*
X136897887Y-60936060D01*
X136616048Y-60653729D01*
X136407519Y-60567140D01*
X136808425Y-60567140D01*
X137014800Y-60360765D01*
X137014800Y-59291640D01*
X135945675Y-59291640D01*
X135739300Y-59498015D01*
X135739300Y-59905842D01*
X135864975Y-60209248D01*
X136091747Y-60436020D01*
X135972163Y-60386364D01*
X135510449Y-60385961D01*
X135299897Y-60245275D01*
X134839720Y-60153740D01*
X134662504Y-60153740D01*
X135277477Y-59538767D01*
X134930709Y-59191998D01*
X134810098Y-58585642D01*
X134542876Y-58504009D01*
X133839485Y-59207400D01*
X134122328Y-59490243D01*
X133556643Y-60055928D01*
X133273800Y-59773085D01*
X132990957Y-60055928D01*
X132425272Y-59490243D01*
X132708115Y-59207400D01*
X132004724Y-58504009D01*
X131737502Y-58585642D01*
X131695880Y-58804168D01*
X131248816Y-58357104D01*
X130858697Y-58096435D01*
X130398520Y-58004900D01*
X126951864Y-58004900D01*
X126927339Y-57968195D01*
X126882634Y-57938324D01*
X132570409Y-57938324D01*
X133273800Y-58641715D01*
X133977191Y-57938324D01*
X133895558Y-57671102D01*
X133260314Y-57550110D01*
X132652042Y-57671102D01*
X132570409Y-57938324D01*
X126882634Y-57938324D01*
X126358787Y-57588301D01*
X125688134Y-57454900D01*
X125619466Y-57454900D01*
X124948813Y-57588301D01*
X124380261Y-57968195D01*
X124000367Y-58536747D01*
X123866966Y-59207400D01*
X124000367Y-59878053D01*
X124011962Y-59895406D01*
X122940828Y-60966540D01*
X122090304Y-60966540D01*
X122065779Y-60929835D01*
X121497227Y-60549941D01*
X120826574Y-60416540D01*
X120757906Y-60416540D01*
X120087253Y-60549941D01*
X119518701Y-60929835D01*
X119138807Y-61498387D01*
X119005406Y-62169040D01*
X119138807Y-62839693D01*
X119518701Y-63408245D01*
X120087253Y-63788139D01*
X120757906Y-63921540D01*
X120826574Y-63921540D01*
X121497227Y-63788139D01*
X122065779Y-63408245D01*
X122090304Y-63371540D01*
X123438920Y-63371540D01*
X123899097Y-63280005D01*
X124289216Y-63019336D01*
X126504096Y-60804456D01*
X126594688Y-60668875D01*
X126927339Y-60446605D01*
X126951864Y-60409900D01*
X129900428Y-60409900D01*
X129992854Y-60502326D01*
X129630625Y-60651996D01*
X129502134Y-60780263D01*
X129406248Y-60684209D01*
X128762363Y-60416844D01*
X128065175Y-60416236D01*
X127420825Y-60682476D01*
X126927409Y-61175032D01*
X126660044Y-61818917D01*
X126659436Y-62516105D01*
X126925676Y-63160455D01*
X127418232Y-63653871D01*
X128062117Y-63921236D01*
X128759305Y-63921844D01*
X129403655Y-63655604D01*
X129532146Y-63527337D01*
X129628032Y-63623391D01*
X130271917Y-63890756D01*
X130357409Y-63890831D01*
X130197649Y-64050312D01*
X129930284Y-64694197D01*
X129929933Y-65096275D01*
X129566004Y-65460204D01*
X129305335Y-65850323D01*
X129213800Y-66310500D01*
X129213800Y-66672336D01*
X129177095Y-66696861D01*
X129082659Y-66838195D01*
X129083004Y-66442235D01*
X128816764Y-65797885D01*
X128324208Y-65304469D01*
X127680323Y-65037104D01*
X126983135Y-65036496D01*
X126338785Y-65302736D01*
X125845369Y-65795292D01*
X125647173Y-66272600D01*
X109827312Y-66272600D01*
X109285436Y-65730724D01*
X108895317Y-65470055D01*
X108435140Y-65378520D01*
X107408960Y-65378520D01*
X107408960Y-64174000D01*
X107342543Y-63821025D01*
X107133935Y-63496838D01*
X106815636Y-63279354D01*
X106437800Y-63202840D01*
X106361272Y-63202840D01*
X106767515Y-62796597D01*
X107249357Y-62996676D01*
X107946545Y-62997284D01*
X108590895Y-62731044D01*
X109084311Y-62238488D01*
X109351676Y-61594603D01*
X109352284Y-60897415D01*
X109086044Y-60253065D01*
X108883260Y-60049927D01*
X108883260Y-59750513D01*
X109133735Y-59703383D01*
X109457922Y-59494775D01*
X109675406Y-59176476D01*
X109751920Y-58798640D01*
X109751920Y-58683598D01*
X109953456Y-58548936D01*
X112381573Y-56120819D01*
X112396763Y-56127126D01*
X113253080Y-56127873D01*
X114044500Y-55800865D01*
X114578252Y-55268044D01*
X117532640Y-58222432D01*
X117532640Y-59093000D01*
X117599057Y-59445975D01*
X117807665Y-59770162D01*
X118125964Y-59987646D01*
X118503800Y-60064160D01*
X120103800Y-60064160D01*
X120456775Y-59997743D01*
X120780962Y-59789135D01*
X120998446Y-59470836D01*
X121074960Y-59093000D01*
X121074960Y-57493000D01*
X121008543Y-57140025D01*
X120799935Y-56815838D01*
X120481636Y-56598354D01*
X120103800Y-56521840D01*
X119233232Y-56521840D01*
X117273468Y-54562076D01*
X118600409Y-54562076D01*
X118682042Y-54829298D01*
X119317286Y-54950290D01*
X119925558Y-54829298D01*
X120007191Y-54562076D01*
X119303800Y-53858685D01*
X118600409Y-54562076D01*
X117273468Y-54562076D01*
X115836096Y-53124704D01*
X115445977Y-52864035D01*
X114985800Y-52772500D01*
X114658946Y-52772500D01*
X114652665Y-52757300D01*
X114469685Y-52574000D01*
X117687756Y-52574000D01*
X117300123Y-52961633D01*
X117646891Y-53308402D01*
X117767502Y-53914758D01*
X118034724Y-53996391D01*
X118738115Y-53293000D01*
X118455272Y-53010157D01*
X118891429Y-52574000D01*
X119150485Y-52574000D01*
X119303800Y-52727315D01*
X119457115Y-52574000D01*
X119716171Y-52574000D01*
X120152328Y-53010157D01*
X119869485Y-53293000D01*
X120572876Y-53996391D01*
X120840098Y-53914758D01*
X120954383Y-53314728D01*
X121307477Y-52961633D01*
X120919844Y-52574000D01*
X123054300Y-52574000D01*
X123054300Y-54864000D01*
X123089404Y-55040479D01*
X123108034Y-55219448D01*
X123134851Y-55268956D01*
X123145835Y-55324177D01*
X123245804Y-55473791D01*
X123331503Y-55632004D01*
X123375222Y-55667479D01*
X123406504Y-55714296D01*
X123556116Y-55814263D01*
X123695839Y-55927640D01*
X124007010Y-56091750D01*
X124253596Y-56688535D01*
X124746152Y-57181951D01*
X125390037Y-57449316D01*
X126087225Y-57449924D01*
X126731575Y-57183684D01*
X127224991Y-56691128D01*
X127492356Y-56047243D01*
X127492964Y-55350055D01*
X127226724Y-54705705D01*
X126734168Y-54212289D01*
X126549488Y-54135603D01*
X126721415Y-54064564D01*
X127214831Y-53572008D01*
X127482196Y-52928123D01*
X127482804Y-52230935D01*
X127216564Y-51586585D01*
X126932500Y-51302025D01*
X126932500Y-51257200D01*
X126886810Y-51027500D01*
X132542347Y-51027500D01*
X132076461Y-51338795D01*
X132076461Y-51338795D01*
G37*
X132076461Y-51338795D02*
X131696567Y-51907347D01*
X131563166Y-52578000D01*
X131696567Y-53248653D01*
X132076461Y-53817205D01*
X132560987Y-54140954D01*
X132086621Y-54457915D01*
X131706727Y-55026467D01*
X131573326Y-55697120D01*
X131706727Y-56367773D01*
X132086621Y-56936325D01*
X132655173Y-57316219D01*
X133325826Y-57449620D01*
X133394494Y-57449620D01*
X133646434Y-57399506D01*
X133764624Y-57517696D01*
X133828959Y-57560683D01*
X133879783Y-57619019D01*
X134022351Y-57689904D01*
X134154743Y-57778365D01*
X134230631Y-57793460D01*
X134299911Y-57827906D01*
X134458755Y-57838837D01*
X134614920Y-57869900D01*
X134690806Y-57854805D01*
X134767996Y-57860117D01*
X135757665Y-57733101D01*
X135739300Y-57777438D01*
X135739300Y-58185265D01*
X135945675Y-58391640D01*
X137014800Y-58391640D01*
X137014800Y-58120641D01*
X137094698Y-58153818D01*
X137831668Y-58154461D01*
X137914800Y-58120112D01*
X137914800Y-58391640D01*
X138983925Y-58391640D01*
X139190300Y-58185265D01*
X139190300Y-57777438D01*
X139064625Y-57474032D01*
X138988619Y-57398026D01*
X139034358Y-57352367D01*
X139316978Y-56671742D01*
X139317621Y-55934772D01*
X139039320Y-55261233D01*
X139120505Y-55180048D01*
X139246180Y-54876642D01*
X139246180Y-54468815D01*
X139039805Y-54262440D01*
X137970680Y-54262440D01*
X137970680Y-54505842D01*
X137834902Y-54449462D01*
X137097932Y-54448819D01*
X137070680Y-54460079D01*
X137070680Y-54262440D01*
X136001555Y-54262440D01*
X135795180Y-54468815D01*
X135795180Y-54876642D01*
X135920855Y-55180048D01*
X135943523Y-55202716D01*
X135895242Y-55250913D01*
X135877783Y-55292958D01*
X135086794Y-55394475D01*
X135013593Y-55026467D01*
X134633699Y-54457915D01*
X134149173Y-54134166D01*
X134623539Y-53817205D01*
X135003433Y-53248653D01*
X135091453Y-52806146D01*
X135810523Y-52711196D01*
X135795180Y-52748238D01*
X135795180Y-53156065D01*
X136001555Y-53362440D01*
X137070680Y-53362440D01*
X137070680Y-53091441D01*
X137150578Y-53124618D01*
X137887548Y-53125261D01*
X137970680Y-53090912D01*
X137970680Y-53362440D01*
X139039805Y-53362440D01*
X139246180Y-53156065D01*
X139246180Y-52748238D01*
X139120505Y-52444832D01*
X139044499Y-52368826D01*
X139090238Y-52323167D01*
X139372858Y-51642542D01*
X139373395Y-51027500D01*
X144861011Y-51027500D01*
X144108100Y-51780411D01*
X144381378Y-52053689D01*
X144193717Y-52216961D01*
X144107676Y-53350485D01*
X144193717Y-53783039D01*
X144507295Y-54055864D01*
X145563159Y-53000000D01*
X145431284Y-52868125D01*
X146868125Y-51431284D01*
X147000000Y-51563159D01*
X147131876Y-51431284D01*
X148568717Y-52868125D01*
X148436841Y-53000000D01*
X148568717Y-53131876D01*
X147131876Y-54568717D01*
X147000000Y-54436841D01*
X145944136Y-55492705D01*
X146216961Y-55806283D01*
X147350485Y-55892324D01*
X147783039Y-55806283D01*
X147946311Y-55618622D01*
X148219589Y-55891900D01*
X148972500Y-55138989D01*
X148972500Y-61125268D01*
X148261736Y-60414504D01*
X147871617Y-60153835D01*
X147411440Y-60062300D01*
X144246600Y-60062300D01*
X143786423Y-60153835D01*
X143438419Y-60386364D01*
X143396304Y-60414504D01*
X142073968Y-61736840D01*
X141544800Y-61736840D01*
X141435900Y-61757331D01*
X141435900Y-60259212D01*
X141894524Y-59800588D01*
X142037615Y-59741464D01*
X142531031Y-59248908D01*
X142677388Y-58896440D01*
X147172655Y-58896440D01*
X147501924Y-59389273D01*
X148024655Y-59748473D01*
X148266200Y-59624069D01*
X148266200Y-58654900D01*
X147304614Y-58654900D01*
X147172655Y-58896440D01*
X142677388Y-58896440D01*
X142798396Y-58605023D01*
X142799004Y-57907835D01*
X142677330Y-57613360D01*
X147172655Y-57613360D01*
X147304614Y-57854900D01*
X148266200Y-57854900D01*
X148266200Y-56885731D01*
X148024655Y-56761327D01*
X147501924Y-57120527D01*
X147172655Y-57613360D01*
X142677330Y-57613360D01*
X142532764Y-57263485D01*
X142040208Y-56770069D01*
X141396323Y-56502704D01*
X140699135Y-56502096D01*
X140054785Y-56768336D01*
X139561369Y-57260892D01*
X139294004Y-57904777D01*
X139293396Y-58601965D01*
X139409930Y-58883998D01*
X139383104Y-58910824D01*
X139122435Y-59300943D01*
X139100998Y-59408713D01*
X138983925Y-59291640D01*
X137914800Y-59291640D01*
X137914800Y-60360765D01*
X138121175Y-60567140D01*
X138529002Y-60567140D01*
X138832408Y-60441465D01*
X139030900Y-60242973D01*
X139030900Y-62451108D01*
X137868056Y-61288264D01*
X137477937Y-61027595D01*
X137017760Y-60936060D01*
X136897887Y-60936060D01*
X136616048Y-60653729D01*
X136407519Y-60567140D01*
X136808425Y-60567140D01*
X137014800Y-60360765D01*
X137014800Y-59291640D01*
X135945675Y-59291640D01*
X135739300Y-59498015D01*
X135739300Y-59905842D01*
X135864975Y-60209248D01*
X136091747Y-60436020D01*
X135972163Y-60386364D01*
X135510449Y-60385961D01*
X135299897Y-60245275D01*
X134839720Y-60153740D01*
X134662504Y-60153740D01*
X135277477Y-59538767D01*
X134930709Y-59191998D01*
X134810098Y-58585642D01*
X134542876Y-58504009D01*
X133839485Y-59207400D01*
X134122328Y-59490243D01*
X133556643Y-60055928D01*
X133273800Y-59773085D01*
X132990957Y-60055928D01*
X132425272Y-59490243D01*
X132708115Y-59207400D01*
X132004724Y-58504009D01*
X131737502Y-58585642D01*
X131695880Y-58804168D01*
X131248816Y-58357104D01*
X130858697Y-58096435D01*
X130398520Y-58004900D01*
X126951864Y-58004900D01*
X126927339Y-57968195D01*
X126882634Y-57938324D01*
X132570409Y-57938324D01*
X133273800Y-58641715D01*
X133977191Y-57938324D01*
X133895558Y-57671102D01*
X133260314Y-57550110D01*
X132652042Y-57671102D01*
X132570409Y-57938324D01*
X126882634Y-57938324D01*
X126358787Y-57588301D01*
X125688134Y-57454900D01*
X125619466Y-57454900D01*
X124948813Y-57588301D01*
X124380261Y-57968195D01*
X124000367Y-58536747D01*
X123866966Y-59207400D01*
X124000367Y-59878053D01*
X124011962Y-59895406D01*
X122940828Y-60966540D01*
X122090304Y-60966540D01*
X122065779Y-60929835D01*
X121497227Y-60549941D01*
X120826574Y-60416540D01*
X120757906Y-60416540D01*
X120087253Y-60549941D01*
X119518701Y-60929835D01*
X119138807Y-61498387D01*
X119005406Y-62169040D01*
X119138807Y-62839693D01*
X119518701Y-63408245D01*
X120087253Y-63788139D01*
X120757906Y-63921540D01*
X120826574Y-63921540D01*
X121497227Y-63788139D01*
X122065779Y-63408245D01*
X122090304Y-63371540D01*
X123438920Y-63371540D01*
X123899097Y-63280005D01*
X124289216Y-63019336D01*
X126504096Y-60804456D01*
X126594688Y-60668875D01*
X126927339Y-60446605D01*
X126951864Y-60409900D01*
X129900428Y-60409900D01*
X129992854Y-60502326D01*
X129630625Y-60651996D01*
X129502134Y-60780263D01*
X129406248Y-60684209D01*
X128762363Y-60416844D01*
X128065175Y-60416236D01*
X127420825Y-60682476D01*
X126927409Y-61175032D01*
X126660044Y-61818917D01*
X126659436Y-62516105D01*
X126925676Y-63160455D01*
X127418232Y-63653871D01*
X128062117Y-63921236D01*
X128759305Y-63921844D01*
X129403655Y-63655604D01*
X129532146Y-63527337D01*
X129628032Y-63623391D01*
X130271917Y-63890756D01*
X130357409Y-63890831D01*
X130197649Y-64050312D01*
X129930284Y-64694197D01*
X129929933Y-65096275D01*
X129566004Y-65460204D01*
X129305335Y-65850323D01*
X129213800Y-66310500D01*
X129213800Y-66672336D01*
X129177095Y-66696861D01*
X129082659Y-66838195D01*
X129083004Y-66442235D01*
X128816764Y-65797885D01*
X128324208Y-65304469D01*
X127680323Y-65037104D01*
X126983135Y-65036496D01*
X126338785Y-65302736D01*
X125845369Y-65795292D01*
X125647173Y-66272600D01*
X109827312Y-66272600D01*
X109285436Y-65730724D01*
X108895317Y-65470055D01*
X108435140Y-65378520D01*
X107408960Y-65378520D01*
X107408960Y-64174000D01*
X107342543Y-63821025D01*
X107133935Y-63496838D01*
X106815636Y-63279354D01*
X106437800Y-63202840D01*
X106361272Y-63202840D01*
X106767515Y-62796597D01*
X107249357Y-62996676D01*
X107946545Y-62997284D01*
X108590895Y-62731044D01*
X109084311Y-62238488D01*
X109351676Y-61594603D01*
X109352284Y-60897415D01*
X109086044Y-60253065D01*
X108883260Y-60049927D01*
X108883260Y-59750513D01*
X109133735Y-59703383D01*
X109457922Y-59494775D01*
X109675406Y-59176476D01*
X109751920Y-58798640D01*
X109751920Y-58683598D01*
X109953456Y-58548936D01*
X112381573Y-56120819D01*
X112396763Y-56127126D01*
X113253080Y-56127873D01*
X114044500Y-55800865D01*
X114578252Y-55268044D01*
X117532640Y-58222432D01*
X117532640Y-59093000D01*
X117599057Y-59445975D01*
X117807665Y-59770162D01*
X118125964Y-59987646D01*
X118503800Y-60064160D01*
X120103800Y-60064160D01*
X120456775Y-59997743D01*
X120780962Y-59789135D01*
X120998446Y-59470836D01*
X121074960Y-59093000D01*
X121074960Y-57493000D01*
X121008543Y-57140025D01*
X120799935Y-56815838D01*
X120481636Y-56598354D01*
X120103800Y-56521840D01*
X119233232Y-56521840D01*
X117273468Y-54562076D01*
X118600409Y-54562076D01*
X118682042Y-54829298D01*
X119317286Y-54950290D01*
X119925558Y-54829298D01*
X120007191Y-54562076D01*
X119303800Y-53858685D01*
X118600409Y-54562076D01*
X117273468Y-54562076D01*
X115836096Y-53124704D01*
X115445977Y-52864035D01*
X114985800Y-52772500D01*
X114658946Y-52772500D01*
X114652665Y-52757300D01*
X114469685Y-52574000D01*
X117687756Y-52574000D01*
X117300123Y-52961633D01*
X117646891Y-53308402D01*
X117767502Y-53914758D01*
X118034724Y-53996391D01*
X118738115Y-53293000D01*
X118455272Y-53010157D01*
X118891429Y-52574000D01*
X119150485Y-52574000D01*
X119303800Y-52727315D01*
X119457115Y-52574000D01*
X119716171Y-52574000D01*
X120152328Y-53010157D01*
X119869485Y-53293000D01*
X120572876Y-53996391D01*
X120840098Y-53914758D01*
X120954383Y-53314728D01*
X121307477Y-52961633D01*
X120919844Y-52574000D01*
X123054300Y-52574000D01*
X123054300Y-54864000D01*
X123089404Y-55040479D01*
X123108034Y-55219448D01*
X123134851Y-55268956D01*
X123145835Y-55324177D01*
X123245804Y-55473791D01*
X123331503Y-55632004D01*
X123375222Y-55667479D01*
X123406504Y-55714296D01*
X123556116Y-55814263D01*
X123695839Y-55927640D01*
X124007010Y-56091750D01*
X124253596Y-56688535D01*
X124746152Y-57181951D01*
X125390037Y-57449316D01*
X126087225Y-57449924D01*
X126731575Y-57183684D01*
X127224991Y-56691128D01*
X127492356Y-56047243D01*
X127492964Y-55350055D01*
X127226724Y-54705705D01*
X126734168Y-54212289D01*
X126549488Y-54135603D01*
X126721415Y-54064564D01*
X127214831Y-53572008D01*
X127482196Y-52928123D01*
X127482804Y-52230935D01*
X127216564Y-51586585D01*
X126932500Y-51302025D01*
X126932500Y-51257200D01*
X126886810Y-51027500D01*
X132542347Y-51027500D01*
X132076461Y-51338795D01*
G36*
X137115740Y-64346209D02*
X137115740Y-64650368D01*
X136136449Y-65629660D01*
X135833952Y-65327163D01*
X136116795Y-65044320D01*
X135833952Y-64761477D01*
X136399637Y-64195792D01*
X136682480Y-64478635D01*
X136965323Y-64195792D01*
X137115740Y-64346209D01*
X137115740Y-64346209D01*
G37*
X137115740Y-64346209D02*
X137115740Y-64650368D01*
X136136449Y-65629660D01*
X135833952Y-65327163D01*
X136116795Y-65044320D01*
X135833952Y-64761477D01*
X136399637Y-64195792D01*
X136682480Y-64478635D01*
X136965323Y-64195792D01*
X137115740Y-64346209D01*
G36*
X92528880Y-53190040D02*
X92595297Y-53543015D01*
X92803905Y-53867202D01*
X93122204Y-54084686D01*
X93500040Y-54161200D01*
X95100040Y-54161200D01*
X95453015Y-54094783D01*
X95777202Y-53886175D01*
X95832775Y-53804841D01*
X96281147Y-54104433D01*
X96951800Y-54237834D01*
X97622453Y-54104433D01*
X97949905Y-53885636D01*
X97932130Y-53975000D01*
X98095979Y-54798726D01*
X98562583Y-55497047D01*
X98975785Y-55773140D01*
X98878258Y-55773140D01*
X98878258Y-56224819D01*
X98627635Y-56412628D01*
X98324239Y-56866746D01*
X98431990Y-57148640D01*
X99510760Y-57148640D01*
X99510760Y-56598640D01*
X100610760Y-56598640D01*
X100610760Y-57148640D01*
X101689530Y-57148640D01*
X101797281Y-56866746D01*
X101493885Y-56412628D01*
X101243262Y-56224819D01*
X101243262Y-55796228D01*
X101691017Y-55497047D01*
X102157621Y-54798726D01*
X102321470Y-53975000D01*
X102157621Y-53151274D01*
X101771898Y-52574000D01*
X111183493Y-52574000D01*
X111003063Y-52754115D01*
X110674674Y-53544963D01*
X110673927Y-54401280D01*
X110681529Y-54419679D01*
X109300355Y-55800853D01*
X109158596Y-55703994D01*
X108780760Y-55627480D01*
X106580760Y-55627480D01*
X106227785Y-55693897D01*
X105903598Y-55902505D01*
X105686114Y-56220804D01*
X105609600Y-56598640D01*
X105609600Y-58798640D01*
X105676017Y-59151615D01*
X105884625Y-59475802D01*
X106202924Y-59693286D01*
X106478260Y-59749043D01*
X106478260Y-59887495D01*
X106249963Y-60115394D01*
X106158863Y-60133515D01*
X105768744Y-60394184D01*
X104472488Y-61690440D01*
X101366175Y-61690440D01*
X101341066Y-61644480D01*
X100379480Y-61644480D01*
X100379480Y-61690440D01*
X99579480Y-61690440D01*
X99579480Y-61644480D01*
X99179480Y-61644480D01*
X99179480Y-60844480D01*
X99579480Y-60844480D01*
X99579480Y-59875311D01*
X100379480Y-59875311D01*
X100379480Y-60844480D01*
X101341066Y-60844480D01*
X101473025Y-60602940D01*
X101143756Y-60110107D01*
X100621025Y-59750907D01*
X100379480Y-59875311D01*
X99579480Y-59875311D01*
X99337935Y-59750907D01*
X98885244Y-60061978D01*
X98722960Y-60061978D01*
X98722960Y-59271000D01*
X98675883Y-59020808D01*
X99228861Y-59435193D01*
X99510760Y-59337576D01*
X99510760Y-58248640D01*
X100610760Y-58248640D01*
X100610760Y-59337576D01*
X100892659Y-59435193D01*
X101493885Y-58984652D01*
X101797281Y-58530534D01*
X101689530Y-58248640D01*
X100610760Y-58248640D01*
X99510760Y-58248640D01*
X98431990Y-58248640D01*
X98330669Y-58513713D01*
X98129636Y-58376354D01*
X97751800Y-58299840D01*
X96151800Y-58299840D01*
X95798825Y-58366257D01*
X95474638Y-58574865D01*
X95334947Y-58779310D01*
X94941580Y-58516495D01*
X94700040Y-58648454D01*
X94700040Y-59610040D01*
X95100040Y-59610040D01*
X95100040Y-60222168D01*
X94912168Y-60410040D01*
X94700040Y-60410040D01*
X94700040Y-60622168D01*
X94523308Y-60798900D01*
X93900040Y-60798900D01*
X93900040Y-60410040D01*
X92930871Y-60410040D01*
X92806467Y-60651585D01*
X92907696Y-60798900D01*
X91978480Y-60798900D01*
X91518303Y-60890435D01*
X91448700Y-60936942D01*
X91448700Y-59368495D01*
X92806467Y-59368495D01*
X92930871Y-59610040D01*
X93900040Y-59610040D01*
X93900040Y-58648454D01*
X93658500Y-58516495D01*
X93165667Y-58845764D01*
X92806467Y-59368495D01*
X91448700Y-59368495D01*
X91448700Y-55871426D01*
X91487815Y-55855264D01*
X91981231Y-55362708D01*
X92248596Y-54718823D01*
X92249204Y-54021635D01*
X91982964Y-53377285D01*
X91490408Y-52883869D01*
X90846523Y-52616504D01*
X90149335Y-52615896D01*
X89504985Y-52882136D01*
X89011569Y-53374692D01*
X88744204Y-54018577D01*
X88743596Y-54715765D01*
X89009836Y-55360115D01*
X89043700Y-55394038D01*
X89043700Y-59860675D01*
X88982500Y-59921875D01*
X88982500Y-60941000D01*
X89043700Y-60941000D01*
X89043700Y-61741000D01*
X88982500Y-61741000D01*
X88982500Y-61869308D01*
X88710808Y-62141000D01*
X88182500Y-62141000D01*
X88182500Y-61741000D01*
X87163375Y-61741000D01*
X86957000Y-61947375D01*
X86957000Y-62305202D01*
X87082675Y-62608608D01*
X87180044Y-62705977D01*
X87067238Y-62778565D01*
X86866606Y-63072200D01*
X85783672Y-63072200D01*
X83202176Y-60490704D01*
X83031704Y-60376798D01*
X86957000Y-60376798D01*
X86957000Y-60734625D01*
X87163375Y-60941000D01*
X88182500Y-60941000D01*
X88182500Y-59921875D01*
X87976125Y-59715500D01*
X87618298Y-59715500D01*
X87314892Y-59841175D01*
X87082675Y-60073392D01*
X86957000Y-60376798D01*
X83031704Y-60376798D01*
X82850536Y-60255746D01*
X83493906Y-60247232D01*
X84063948Y-60247232D01*
X84524125Y-60155697D01*
X84914244Y-59895028D01*
X88277096Y-56532176D01*
X88537765Y-56142057D01*
X88629300Y-55681880D01*
X88629300Y-53192932D01*
X89713052Y-52109180D01*
X92288360Y-52109180D01*
X92308883Y-52105098D01*
X92329534Y-52108475D01*
X92528880Y-52101645D01*
X92528880Y-53190040D01*
X92528880Y-53190040D01*
G37*
X92528880Y-53190040D02*
X92595297Y-53543015D01*
X92803905Y-53867202D01*
X93122204Y-54084686D01*
X93500040Y-54161200D01*
X95100040Y-54161200D01*
X95453015Y-54094783D01*
X95777202Y-53886175D01*
X95832775Y-53804841D01*
X96281147Y-54104433D01*
X96951800Y-54237834D01*
X97622453Y-54104433D01*
X97949905Y-53885636D01*
X97932130Y-53975000D01*
X98095979Y-54798726D01*
X98562583Y-55497047D01*
X98975785Y-55773140D01*
X98878258Y-55773140D01*
X98878258Y-56224819D01*
X98627635Y-56412628D01*
X98324239Y-56866746D01*
X98431990Y-57148640D01*
X99510760Y-57148640D01*
X99510760Y-56598640D01*
X100610760Y-56598640D01*
X100610760Y-57148640D01*
X101689530Y-57148640D01*
X101797281Y-56866746D01*
X101493885Y-56412628D01*
X101243262Y-56224819D01*
X101243262Y-55796228D01*
X101691017Y-55497047D01*
X102157621Y-54798726D01*
X102321470Y-53975000D01*
X102157621Y-53151274D01*
X101771898Y-52574000D01*
X111183493Y-52574000D01*
X111003063Y-52754115D01*
X110674674Y-53544963D01*
X110673927Y-54401280D01*
X110681529Y-54419679D01*
X109300355Y-55800853D01*
X109158596Y-55703994D01*
X108780760Y-55627480D01*
X106580760Y-55627480D01*
X106227785Y-55693897D01*
X105903598Y-55902505D01*
X105686114Y-56220804D01*
X105609600Y-56598640D01*
X105609600Y-58798640D01*
X105676017Y-59151615D01*
X105884625Y-59475802D01*
X106202924Y-59693286D01*
X106478260Y-59749043D01*
X106478260Y-59887495D01*
X106249963Y-60115394D01*
X106158863Y-60133515D01*
X105768744Y-60394184D01*
X104472488Y-61690440D01*
X101366175Y-61690440D01*
X101341066Y-61644480D01*
X100379480Y-61644480D01*
X100379480Y-61690440D01*
X99579480Y-61690440D01*
X99579480Y-61644480D01*
X99179480Y-61644480D01*
X99179480Y-60844480D01*
X99579480Y-60844480D01*
X99579480Y-59875311D01*
X100379480Y-59875311D01*
X100379480Y-60844480D01*
X101341066Y-60844480D01*
X101473025Y-60602940D01*
X101143756Y-60110107D01*
X100621025Y-59750907D01*
X100379480Y-59875311D01*
X99579480Y-59875311D01*
X99337935Y-59750907D01*
X98885244Y-60061978D01*
X98722960Y-60061978D01*
X98722960Y-59271000D01*
X98675883Y-59020808D01*
X99228861Y-59435193D01*
X99510760Y-59337576D01*
X99510760Y-58248640D01*
X100610760Y-58248640D01*
X100610760Y-59337576D01*
X100892659Y-59435193D01*
X101493885Y-58984652D01*
X101797281Y-58530534D01*
X101689530Y-58248640D01*
X100610760Y-58248640D01*
X99510760Y-58248640D01*
X98431990Y-58248640D01*
X98330669Y-58513713D01*
X98129636Y-58376354D01*
X97751800Y-58299840D01*
X96151800Y-58299840D01*
X95798825Y-58366257D01*
X95474638Y-58574865D01*
X95334947Y-58779310D01*
X94941580Y-58516495D01*
X94700040Y-58648454D01*
X94700040Y-59610040D01*
X95100040Y-59610040D01*
X95100040Y-60222168D01*
X94912168Y-60410040D01*
X94700040Y-60410040D01*
X94700040Y-60622168D01*
X94523308Y-60798900D01*
X93900040Y-60798900D01*
X93900040Y-60410040D01*
X92930871Y-60410040D01*
X92806467Y-60651585D01*
X92907696Y-60798900D01*
X91978480Y-60798900D01*
X91518303Y-60890435D01*
X91448700Y-60936942D01*
X91448700Y-59368495D01*
X92806467Y-59368495D01*
X92930871Y-59610040D01*
X93900040Y-59610040D01*
X93900040Y-58648454D01*
X93658500Y-58516495D01*
X93165667Y-58845764D01*
X92806467Y-59368495D01*
X91448700Y-59368495D01*
X91448700Y-55871426D01*
X91487815Y-55855264D01*
X91981231Y-55362708D01*
X92248596Y-54718823D01*
X92249204Y-54021635D01*
X91982964Y-53377285D01*
X91490408Y-52883869D01*
X90846523Y-52616504D01*
X90149335Y-52615896D01*
X89504985Y-52882136D01*
X89011569Y-53374692D01*
X88744204Y-54018577D01*
X88743596Y-54715765D01*
X89009836Y-55360115D01*
X89043700Y-55394038D01*
X89043700Y-59860675D01*
X88982500Y-59921875D01*
X88982500Y-60941000D01*
X89043700Y-60941000D01*
X89043700Y-61741000D01*
X88982500Y-61741000D01*
X88982500Y-61869308D01*
X88710808Y-62141000D01*
X88182500Y-62141000D01*
X88182500Y-61741000D01*
X87163375Y-61741000D01*
X86957000Y-61947375D01*
X86957000Y-62305202D01*
X87082675Y-62608608D01*
X87180044Y-62705977D01*
X87067238Y-62778565D01*
X86866606Y-63072200D01*
X85783672Y-63072200D01*
X83202176Y-60490704D01*
X83031704Y-60376798D01*
X86957000Y-60376798D01*
X86957000Y-60734625D01*
X87163375Y-60941000D01*
X88182500Y-60941000D01*
X88182500Y-59921875D01*
X87976125Y-59715500D01*
X87618298Y-59715500D01*
X87314892Y-59841175D01*
X87082675Y-60073392D01*
X86957000Y-60376798D01*
X83031704Y-60376798D01*
X82850536Y-60255746D01*
X83493906Y-60247232D01*
X84063948Y-60247232D01*
X84524125Y-60155697D01*
X84914244Y-59895028D01*
X88277096Y-56532176D01*
X88537765Y-56142057D01*
X88629300Y-55681880D01*
X88629300Y-53192932D01*
X89713052Y-52109180D01*
X92288360Y-52109180D01*
X92308883Y-52105098D01*
X92329534Y-52108475D01*
X92528880Y-52101645D01*
X92528880Y-53190040D01*
M02*
