G04 #@! TF.FileFunction,Copper,L1,Top,Signal*
%FSLAX46Y46*%
G04 Gerber Fmt 4.6, Leading zero omitted, Abs format (unit mm)*
G04 Created by KiCad (PCBNEW 4.0.7) date 07/12/19 10:05:36*
%MOMM*%
%LPD*%
G01*
G04 APERTURE LIST*
%ADD10C,0.100000*%
%ADD11C,1.440000*%
%ADD12C,1.600000*%
%ADD13O,1.600000X1.600000*%
%ADD14C,2.400000*%
%ADD15O,2.400000X2.400000*%
%ADD16R,2.600000X2.600000*%
%ADD17O,2.600000X2.600000*%
%ADD18R,1.600000X1.600000*%
%ADD19R,2.200000X2.200000*%
%ADD20O,2.200000X2.200000*%
%ADD21R,1.800000X1.800000*%
%ADD22C,1.800000*%
%ADD23R,3.000000X3.000000*%
%ADD24C,3.000000*%
%ADD25C,1.000000*%
%ADD26R,1.000000X1.000000*%
%ADD27C,2.500000*%
%ADD28R,2.400000X2.400000*%
%ADD29C,4.064000*%
%ADD30O,1.800000X1.800000*%
%ADD31R,1.800000X3.000000*%
%ADD32R,1.700000X1.700000*%
%ADD33O,1.700000X1.700000*%
%ADD34R,2.600000X2.000000*%
%ADD35O,2.600000X2.000000*%
%ADD36R,2.000000X2.600000*%
%ADD37O,2.000000X2.600000*%
%ADD38C,0.600000*%
%ADD39C,0.500000*%
%ADD40C,2.000000*%
%ADD41C,4.000000*%
%ADD42C,1.000000*%
G04 APERTURE END LIST*
D10*
D11*
X99314000Y-95504000D03*
X101854000Y-95504000D03*
X104394000Y-95504000D03*
D12*
X107635040Y-100203000D03*
D13*
X115255040Y-100203000D03*
D12*
X132379720Y-89100660D03*
X127379720Y-89100660D03*
X119761000Y-79629000D03*
D13*
X119761000Y-87249000D03*
D14*
X75107800Y-135178800D03*
D15*
X103047800Y-135178800D03*
D12*
X134475220Y-88988900D03*
X139475220Y-88988900D03*
X122936000Y-84455000D03*
X122936000Y-79455000D03*
X94691200Y-73314560D03*
X89691200Y-73314560D03*
X113268760Y-76024740D03*
X108268760Y-76024740D03*
D16*
X68300600Y-70662800D03*
D17*
X53060600Y-70662800D03*
D16*
X68122800Y-128905000D03*
D17*
X52882800Y-128905000D03*
D16*
X53111400Y-76352400D03*
D17*
X68351400Y-76352400D03*
D16*
X52933600Y-122859800D03*
D17*
X68173600Y-122859800D03*
D18*
X88582500Y-61341000D03*
D13*
X80962500Y-61341000D03*
D18*
X88544400Y-64274700D03*
D13*
X80924400Y-64274700D03*
D19*
X91630500Y-93218000D03*
D20*
X91630500Y-100838000D03*
D18*
X96979740Y-72280780D03*
D13*
X104599740Y-72280780D03*
D19*
X137121900Y-93687900D03*
D20*
X129501900Y-93687900D03*
D21*
X137520680Y-53812440D03*
D22*
X137520680Y-51272440D03*
D23*
X65455800Y-104902000D03*
D24*
X65455800Y-99822000D03*
X65455800Y-94742000D03*
D23*
X144373600Y-128117600D03*
D24*
X144373600Y-133197600D03*
D25*
X118745000Y-91567000D03*
X120015000Y-90297000D03*
D26*
X120015000Y-92837000D03*
D25*
X73914000Y-76301600D03*
X75184000Y-77571600D03*
D26*
X72644000Y-77571600D03*
D12*
X87439500Y-122618500D03*
D13*
X87439500Y-114998500D03*
D14*
X69303900Y-53492400D03*
D15*
X82003900Y-53492400D03*
D14*
X86944200Y-67894200D03*
D15*
X74244200Y-67894200D03*
D12*
X95186500Y-100965000D03*
D13*
X95186500Y-93345000D03*
D12*
X98044000Y-88138000D03*
D13*
X105664000Y-88138000D03*
D12*
X98044000Y-91440000D03*
D13*
X105664000Y-91440000D03*
D14*
X91211400Y-115128040D03*
D15*
X119151400Y-115128040D03*
D12*
X126751080Y-85953600D03*
D13*
X134371080Y-85953600D03*
D12*
X108242100Y-72809100D03*
D13*
X115862100Y-72809100D03*
D12*
X106619040Y-105780840D03*
D13*
X114239040Y-105780840D03*
D12*
X124548900Y-105702100D03*
D13*
X116928900Y-105702100D03*
D12*
X126187200Y-102527100D03*
D13*
X126187200Y-94907100D03*
D14*
X123748800Y-109971840D03*
D15*
X136448800Y-109971840D03*
D12*
X141046200Y-58254900D03*
D13*
X148666200Y-58254900D03*
D12*
X104902000Y-85090000D03*
D13*
X104902000Y-77470000D03*
D12*
X73660000Y-72237600D03*
D13*
X81280000Y-72237600D03*
D12*
X85801200Y-78689200D03*
D13*
X85801200Y-71069200D03*
D12*
X101600000Y-85090000D03*
D13*
X101600000Y-77470000D03*
D12*
X125730000Y-52578000D03*
D13*
X133350000Y-52578000D03*
D27*
X142290800Y-94662000D03*
X142290800Y-99662000D03*
X142290800Y-89662000D03*
X142544800Y-76297800D03*
X142544800Y-81297800D03*
X142544800Y-71297800D03*
D18*
X90302080Y-76499720D03*
D13*
X97922080Y-84119720D03*
X90302080Y-79039720D03*
X97922080Y-81579720D03*
X90302080Y-81579720D03*
X97922080Y-79039720D03*
X90302080Y-84119720D03*
X97922080Y-76499720D03*
D18*
X116332000Y-79248000D03*
D13*
X108712000Y-86868000D03*
X113792000Y-79248000D03*
X111252000Y-86868000D03*
X111252000Y-79248000D03*
X113792000Y-86868000D03*
X108712000Y-79248000D03*
X116332000Y-86868000D03*
D18*
X85496400Y-54368700D03*
D12*
X90496400Y-54368700D03*
D18*
X72732900Y-60769500D03*
D12*
X77732900Y-60769500D03*
D18*
X138226800Y-100545900D03*
D12*
X133226800Y-100545900D03*
D16*
X68046600Y-140817600D03*
D17*
X52806600Y-140817600D03*
D16*
X52933600Y-116916200D03*
D17*
X68173600Y-116916200D03*
D16*
X68046600Y-134848600D03*
D17*
X52806600Y-134848600D03*
D16*
X52959000Y-110947200D03*
D17*
X68199000Y-110947200D03*
D16*
X68351400Y-58902600D03*
D17*
X53111400Y-58902600D03*
D16*
X53263800Y-88265000D03*
D17*
X68503800Y-88265000D03*
D16*
X68326000Y-64795400D03*
D17*
X53086000Y-64795400D03*
D16*
X53136800Y-82296000D03*
D17*
X68376800Y-82296000D03*
D28*
X78143100Y-104457500D03*
D14*
X78143100Y-96957500D03*
D12*
X109082840Y-97307400D03*
D13*
X109082840Y-89687400D03*
D14*
X76555600Y-127457200D03*
D15*
X104495600Y-127457200D03*
D14*
X133985000Y-135191500D03*
D15*
X106045000Y-135191500D03*
D14*
X135763000Y-127508000D03*
D15*
X107823000Y-127508000D03*
D28*
X78333600Y-118211600D03*
D14*
X78333600Y-110711600D03*
D28*
X78181200Y-90754200D03*
D14*
X78181200Y-83254200D03*
D29*
X53000000Y-53000000D03*
X53000000Y-147000000D03*
X147000000Y-53000000D03*
X147000000Y-147000000D03*
D18*
X119303800Y-58293000D03*
D12*
X119303800Y-53293000D03*
X107599480Y-61244480D03*
D13*
X99979480Y-61244480D03*
D21*
X137464800Y-58841640D03*
D22*
X137464800Y-56301640D03*
D12*
X125740160Y-55697120D03*
D13*
X133360160Y-55697120D03*
D19*
X107680760Y-57698640D03*
D20*
X100060760Y-57698640D03*
D14*
X112826800Y-53975000D03*
D15*
X100126800Y-53975000D03*
D18*
X94300040Y-52390040D03*
D13*
X94300040Y-60010040D03*
D18*
X96951800Y-60071000D03*
D13*
X96951800Y-52451000D03*
D11*
X89471500Y-88836500D03*
X92011500Y-88836500D03*
X94551500Y-88836500D03*
D12*
X77876400Y-78282800D03*
X82876400Y-78282800D03*
D19*
X86868000Y-102565200D03*
D20*
X86868000Y-94945200D03*
D21*
X137058400Y-145796000D03*
D30*
X134518400Y-145796000D03*
X131978400Y-145796000D03*
D31*
X137058400Y-148336000D03*
X134518400Y-148336000D03*
X131978400Y-148336000D03*
D21*
X100965000Y-145770600D03*
D30*
X98425000Y-145770600D03*
X95885000Y-145770600D03*
D31*
X100965000Y-148310600D03*
X98425000Y-148310600D03*
X95885000Y-148310600D03*
D21*
X118999000Y-145770600D03*
D30*
X116459000Y-145770600D03*
X113919000Y-145770600D03*
D31*
X118999000Y-148310600D03*
X116459000Y-148310600D03*
X113919000Y-148310600D03*
D21*
X83058000Y-145770600D03*
D30*
X80518000Y-145770600D03*
X77978000Y-145770600D03*
D31*
X83058000Y-148310600D03*
X80518000Y-148310600D03*
X77978000Y-148310600D03*
D21*
X64770000Y-145821400D03*
D30*
X62230000Y-145821400D03*
X59690000Y-145821400D03*
D31*
X64770000Y-148361400D03*
X62230000Y-148361400D03*
X59690000Y-148361400D03*
D32*
X86893400Y-81762600D03*
D33*
X86893400Y-84302600D03*
D12*
X112430560Y-89743280D03*
D13*
X112430560Y-97363280D03*
D12*
X115595400Y-89804240D03*
D13*
X115595400Y-97424240D03*
D32*
X119725440Y-76611480D03*
D33*
X119725440Y-74071480D03*
D32*
X93766640Y-105864660D03*
D33*
X96306640Y-105864660D03*
D12*
X130495040Y-58806080D03*
X125495040Y-58806080D03*
D34*
X144576800Y-106934000D03*
D35*
X144576800Y-109474000D03*
X144576800Y-112014000D03*
D36*
X93014800Y-65532000D03*
D37*
X95554800Y-65532000D03*
D36*
X142544800Y-64008000D03*
D37*
X145084800Y-64008000D03*
X147624800Y-64008000D03*
D32*
X105918000Y-68999100D03*
D33*
X103378000Y-68999100D03*
X100838000Y-68999100D03*
D32*
X105587800Y-65024000D03*
D33*
X103047800Y-65024000D03*
X100507800Y-65024000D03*
D12*
X128320800Y-75946000D03*
D13*
X135940800Y-75946000D03*
D12*
X139115800Y-77597000D03*
D13*
X139115800Y-69977000D03*
D12*
X129529840Y-79070200D03*
D13*
X137149840Y-79070200D03*
D12*
X130187700Y-82219800D03*
D13*
X137807700Y-82219800D03*
D12*
X117729000Y-61569600D03*
D13*
X110109000Y-61569600D03*
D12*
X131622800Y-62103000D03*
D13*
X139242800Y-62103000D03*
D12*
X128701800Y-62026800D03*
D13*
X121081800Y-62026800D03*
D12*
X118160800Y-66675000D03*
D13*
X125780800Y-66675000D03*
D18*
X128447800Y-72898000D03*
D13*
X136067800Y-65278000D03*
X130987800Y-72898000D03*
X133527800Y-65278000D03*
X133527800Y-72898000D03*
X130987800Y-65278000D03*
X136067800Y-72898000D03*
X128447800Y-65278000D03*
D12*
X109905800Y-64643000D03*
D13*
X117525800Y-64643000D03*
D38*
X141767560Y-84714080D03*
D39*
X127379720Y-89100660D02*
X127546100Y-89100660D01*
X127546100Y-89100660D02*
X129166620Y-87480140D01*
X139923520Y-85468460D02*
X141767560Y-84714080D01*
X137185400Y-87536020D02*
X139923520Y-85468460D01*
X129166620Y-87480140D02*
X137185400Y-87536020D01*
X127379720Y-89100660D02*
X127787400Y-88582500D01*
X126187200Y-94907100D02*
X126187200Y-93764100D01*
X117398800Y-85801200D02*
X116332000Y-86868000D01*
X121234200Y-85801200D02*
X117398800Y-85801200D01*
X122224800Y-86791800D02*
X121234200Y-85801200D01*
X122224800Y-89801700D02*
X122224800Y-86791800D01*
X126187200Y-93764100D02*
X122224800Y-89801700D01*
X100126800Y-53975000D02*
X100126800Y-52451000D01*
X98221800Y-50546000D02*
X76892150Y-50514250D01*
X76892150Y-50514250D02*
X71405750Y-56000650D01*
X71405750Y-56000650D02*
X71170800Y-56083200D01*
X71170800Y-56083200D02*
X68351400Y-58902600D01*
X100126800Y-52451000D02*
X98221800Y-50546000D01*
D40*
X134518400Y-145796000D02*
X134518400Y-148336000D01*
X116459000Y-145770600D02*
X116459000Y-148310600D01*
X98425000Y-145770600D02*
X98425000Y-148310600D01*
X80518000Y-145770600D02*
X80518000Y-148310600D01*
X62230000Y-145821400D02*
X62230000Y-148361400D01*
D39*
X116332000Y-86868000D02*
X116459000Y-86868000D01*
X116332000Y-86868000D02*
X116332000Y-87122000D01*
X137464800Y-58841640D02*
X130896360Y-59207400D01*
X130896360Y-59207400D02*
X130495040Y-58806080D01*
X135067040Y-54170580D02*
X135067040Y-56619140D01*
X135067040Y-56619140D02*
X137464800Y-58841640D01*
X147736560Y-64287400D02*
X147878800Y-61595000D01*
X147878800Y-61595000D02*
X148666200Y-58254900D01*
X119303800Y-53293000D02*
X119303800Y-53784500D01*
X119303800Y-53784500D02*
X120340120Y-54170580D01*
X120340120Y-54170580D02*
X135067040Y-54170580D01*
X135067040Y-54170580D02*
X136969500Y-53754020D01*
X136969500Y-53754020D02*
X137520680Y-53812440D01*
X100060760Y-57698640D02*
X100060760Y-57571640D01*
X100060760Y-57571640D02*
X101333300Y-56134000D01*
X116462800Y-56134000D02*
X119303800Y-53293000D01*
X101333300Y-56134000D02*
X116462800Y-56134000D01*
X99979480Y-61244480D02*
X99933760Y-57825640D01*
X99933760Y-57825640D02*
X100060760Y-57698640D01*
X94300040Y-60010040D02*
X94284800Y-58610500D01*
X94284800Y-58610500D02*
X95110300Y-57785000D01*
X95110300Y-57785000D02*
X100060760Y-57698640D01*
X92125800Y-51320700D02*
X92125800Y-58293000D01*
X92125800Y-58293000D02*
X94300040Y-60010040D01*
D41*
X91211400Y-115128040D02*
X87569040Y-115128040D01*
X87569040Y-115128040D02*
X87439500Y-114998500D01*
X78333600Y-110711600D02*
X86794960Y-110711600D01*
X86794960Y-110711600D02*
X91211400Y-115128040D01*
D39*
X72732900Y-60769500D02*
X73482200Y-56248300D01*
X81419700Y-51244500D02*
X81419700Y-51320700D01*
X78486000Y-51244500D02*
X81419700Y-51244500D01*
X73482200Y-56248300D02*
X78486000Y-51244500D01*
X78181200Y-83254200D02*
X85401800Y-83254200D01*
X85401800Y-83254200D02*
X86893400Y-81762600D01*
X78181200Y-83254200D02*
X78181200Y-78587600D01*
X78181200Y-78587600D02*
X77876400Y-78282800D01*
X81419700Y-51320700D02*
X92125800Y-51320700D01*
X72732900Y-60769500D02*
X72821800Y-60769500D01*
X137220960Y-59085480D02*
X137464800Y-58841640D01*
X136885680Y-53812440D02*
X137520680Y-53812440D01*
D41*
X68503800Y-88265000D02*
X69977000Y-88265000D01*
X71577200Y-89865200D02*
X71577200Y-98653600D01*
X69977000Y-88265000D02*
X71577200Y-89865200D01*
X78181200Y-83254200D02*
X69335000Y-83254200D01*
X69335000Y-83254200D02*
X68376800Y-82296000D01*
X71577200Y-110711600D02*
X71577200Y-98653600D01*
X73273300Y-96957500D02*
X78143100Y-96957500D01*
X71577200Y-98653600D02*
X73273300Y-96957500D01*
X78333600Y-110711600D02*
X71577200Y-110711600D01*
X71577200Y-110711600D02*
X68434600Y-110711600D01*
X68434600Y-110711600D02*
X68199000Y-110947200D01*
X78143100Y-96957500D02*
X78923500Y-96957500D01*
D42*
X68503800Y-82423000D02*
X68376800Y-82296000D01*
X68351400Y-76352400D02*
X69448680Y-76352400D01*
X69448680Y-76352400D02*
X71744840Y-74056240D01*
X71744840Y-62532260D02*
X72732900Y-60769500D01*
X71744840Y-74056240D02*
X71744840Y-62532260D01*
D41*
X68173600Y-116916200D02*
X68173600Y-122859800D01*
X68199000Y-110947200D02*
X68199000Y-116890800D01*
X68199000Y-116890800D02*
X68173600Y-116916200D01*
X68376800Y-82296000D02*
X68376800Y-88138000D01*
X68376800Y-88138000D02*
X68503800Y-88265000D01*
X68351400Y-76352400D02*
X68351400Y-83235800D01*
D39*
X88775540Y-61401960D02*
X88836500Y-61341000D01*
D42*
X82003900Y-53492400D02*
X83972400Y-53797200D01*
X83972400Y-53797200D02*
X85496400Y-54368700D01*
D39*
X80962500Y-61341000D02*
X81445100Y-61341000D01*
X81445100Y-61341000D02*
X89471500Y-54521100D01*
X89471500Y-54521100D02*
X90496400Y-54368700D01*
X88544400Y-64274700D02*
X86471760Y-64373760D01*
X83566000Y-61468000D02*
X80962500Y-61341000D01*
X86471760Y-64373760D02*
X83566000Y-61468000D01*
X77732900Y-60769500D02*
X77906880Y-60769500D01*
X77906880Y-60769500D02*
X80924400Y-64274700D01*
D42*
X77732900Y-60769500D02*
X77330300Y-60769500D01*
X77330300Y-60769500D02*
X74244200Y-64630300D01*
X74244200Y-64630300D02*
X74244200Y-67894200D01*
D39*
X137807700Y-82219800D02*
X137807700Y-82207100D01*
X137807700Y-82207100D02*
X141401800Y-78613000D01*
X129844800Y-70739000D02*
X125780800Y-66675000D01*
X136829800Y-70739000D02*
X129844800Y-70739000D01*
X139750800Y-73660000D02*
X136829800Y-70739000D01*
X143687800Y-73660000D02*
X139750800Y-73660000D01*
X144957800Y-74930000D02*
X143687800Y-73660000D01*
X144957800Y-76581000D02*
X144957800Y-74930000D01*
X142925800Y-78613000D02*
X144957800Y-76581000D01*
X141401800Y-78613000D02*
X142925800Y-78613000D01*
X142290800Y-99662000D02*
X145686800Y-99662000D01*
X146100800Y-109474000D02*
X144576800Y-109474000D01*
X146862800Y-108712000D02*
X146100800Y-109474000D01*
X146862800Y-100838000D02*
X146862800Y-108712000D01*
X145686800Y-99662000D02*
X146862800Y-100838000D01*
X133226800Y-100545900D02*
X133226800Y-99996000D01*
X133226800Y-99996000D02*
X134416800Y-98806000D01*
X134416800Y-98806000D02*
X141434800Y-98806000D01*
X141434800Y-98806000D02*
X142290800Y-99662000D01*
X137807700Y-82219800D02*
X138506200Y-82219800D01*
X137807700Y-82219800D02*
X141033500Y-82219800D01*
X137408920Y-88988900D02*
X134475220Y-88988900D01*
X140398500Y-85999320D02*
X137408920Y-88988900D01*
X141544040Y-85999320D02*
X140398500Y-85999320D01*
X142913100Y-84630260D02*
X141544040Y-85999320D01*
X142913100Y-84099400D02*
X142913100Y-84630260D01*
X141033500Y-82219800D02*
X142913100Y-84099400D01*
X133226800Y-100545900D02*
X133226800Y-99907100D01*
X144576800Y-109474000D02*
X145643600Y-109474000D01*
X129501900Y-93687900D02*
X129501900Y-94195900D01*
X144576800Y-109474000D02*
X141528800Y-108712000D01*
X119151400Y-114975640D02*
X122153680Y-108071920D01*
X122153680Y-108071920D02*
X130312160Y-108071920D01*
X130903980Y-107480100D02*
X130312160Y-108071920D01*
X140766800Y-108204000D02*
X130903980Y-107480100D01*
X141528800Y-108712000D02*
X140766800Y-108204000D01*
X119151400Y-115128040D02*
X119151400Y-114975640D01*
X119151400Y-115128040D02*
X115493800Y-111760000D01*
X115493800Y-111760000D02*
X111709200Y-107975400D01*
X111709200Y-107975400D02*
X111709200Y-98084640D01*
X111709200Y-98084640D02*
X112430560Y-97363280D01*
X105664000Y-91440000D02*
X106507280Y-91440000D01*
X106507280Y-91440000D02*
X112430560Y-97363280D01*
X142290800Y-99662000D02*
X143347460Y-99662000D01*
D41*
X144373600Y-128117600D02*
X144373600Y-120751600D01*
X122936000Y-116078000D02*
X119151400Y-115128040D01*
X139700000Y-116078000D02*
X122936000Y-116078000D01*
X144373600Y-120751600D02*
X139700000Y-116078000D01*
D39*
X119151400Y-115128040D02*
X118008400Y-115128040D01*
X112430560Y-97363280D02*
X112638840Y-97363280D01*
X128435100Y-91592400D02*
X125615700Y-91592400D01*
X122936000Y-88912700D02*
X122936000Y-86474300D01*
X125615700Y-91592400D02*
X122936000Y-88912700D01*
X122936000Y-84455000D02*
X122936000Y-86474300D01*
X135026400Y-91592400D02*
X137121900Y-93687900D01*
X128435100Y-91592400D02*
X135026400Y-91592400D01*
X122936000Y-84455000D02*
X122936000Y-84175600D01*
X137896600Y-101130100D02*
X138226800Y-100799900D01*
X144373600Y-133197600D02*
X145846800Y-133197600D01*
X145846800Y-133197600D02*
X147332700Y-131711700D01*
X147332700Y-131711700D02*
X147332700Y-118554500D01*
X147332700Y-118554500D02*
X138750040Y-109971840D01*
X138750040Y-109971840D02*
X136448800Y-109971840D01*
X137121900Y-93687900D02*
X137121900Y-93941900D01*
X137121900Y-93941900D02*
X136613900Y-94449900D01*
D41*
X104495600Y-127457200D02*
X107772200Y-127457200D01*
X107772200Y-127457200D02*
X107823000Y-127508000D01*
X103047800Y-135178800D02*
X106032300Y-135178800D01*
X106032300Y-135178800D02*
X106045000Y-135191500D01*
X106045000Y-135191500D02*
X106045000Y-129286000D01*
X106045000Y-129286000D02*
X107823000Y-127508000D01*
X144373600Y-133197600D02*
X140462000Y-133096000D01*
X113817400Y-121513600D02*
X107823000Y-127508000D01*
X137515600Y-121513600D02*
X113817400Y-121513600D01*
X139852400Y-123850400D02*
X137515600Y-121513600D01*
X139852400Y-132486400D02*
X139852400Y-123850400D01*
X140462000Y-133096000D02*
X139852400Y-132486400D01*
D39*
X136448800Y-109971840D02*
X135432800Y-109971840D01*
X116928900Y-105702100D02*
X114317780Y-105702100D01*
X114317780Y-105702100D02*
X114239040Y-105780840D01*
X122936000Y-79455000D02*
X122348000Y-79455000D01*
X122348000Y-79455000D02*
X120650000Y-81153000D01*
X115697000Y-81153000D02*
X113792000Y-79248000D01*
X120650000Y-81153000D02*
X115697000Y-81153000D01*
X90302080Y-79039720D02*
X92918280Y-79039720D01*
X95250000Y-76708000D02*
X94691200Y-73314560D01*
X92918280Y-79039720D02*
X95250000Y-76708000D01*
X85801200Y-71069200D02*
X85801200Y-71120000D01*
X85801200Y-71120000D02*
X87645240Y-72964040D01*
X87645240Y-72964040D02*
X89691200Y-73314560D01*
X89691200Y-73314560D02*
X90250000Y-71294000D01*
X93014800Y-71120000D02*
X96979740Y-72280780D01*
X90250000Y-71294000D02*
X93014800Y-71120000D01*
X90250000Y-76447640D02*
X90302080Y-76499720D01*
D42*
X148657631Y-100076052D02*
X148657631Y-98429131D01*
X145821400Y-97116900D02*
X139750800Y-97116900D01*
X148657631Y-98429131D02*
X145821400Y-97116900D01*
X120015000Y-90297000D02*
X120167400Y-90297000D01*
X120167400Y-90297000D02*
X122186700Y-92316300D01*
X122186700Y-92316300D02*
X122186700Y-93802200D01*
X122186700Y-93802200D02*
X125539500Y-97155000D01*
X125539500Y-97155000D02*
X138188700Y-97155000D01*
X138188700Y-97155000D02*
X139750800Y-97116900D01*
D40*
X137058400Y-145796000D02*
X137058400Y-148336000D01*
D42*
X141147000Y-146000000D02*
X137058400Y-145796000D01*
X148780500Y-138366500D02*
X141147000Y-146000000D01*
X148657631Y-100076052D02*
X148780500Y-138366500D01*
D39*
X116179600Y-79095600D02*
X116179600Y-78841600D01*
D42*
X53111400Y-58902600D02*
X53136800Y-58902600D01*
X53136800Y-58902600D02*
X61857411Y-55569708D01*
X61857411Y-55569708D02*
X69303900Y-53492400D01*
D41*
X53086000Y-64795400D02*
X53086000Y-58928000D01*
X53086000Y-58928000D02*
X53111400Y-58902600D01*
X53060600Y-70662800D02*
X53060600Y-64820800D01*
X53060600Y-64820800D02*
X53086000Y-64795400D01*
X53111400Y-76352400D02*
X53111400Y-70713600D01*
X53111400Y-70713600D02*
X53060600Y-70662800D01*
X53136800Y-82296000D02*
X53136800Y-76377800D01*
X53136800Y-76377800D02*
X53111400Y-76352400D01*
X53263800Y-88265000D02*
X53263800Y-82423000D01*
X53263800Y-82423000D02*
X53136800Y-82296000D01*
X65455800Y-94742000D02*
X59740800Y-94742000D01*
X59740800Y-94742000D02*
X53263800Y-88265000D01*
D39*
X128473200Y-90678000D02*
X126758700Y-90678000D01*
X124434600Y-88201500D02*
X124434600Y-83667600D01*
X126758700Y-90678000D02*
X124434600Y-88201500D01*
X142290800Y-89662000D02*
X142290800Y-89877900D01*
X142290800Y-89877900D02*
X140093700Y-90678000D01*
X140093700Y-90678000D02*
X128473200Y-90678000D01*
X123926600Y-82986880D02*
X121691400Y-82986880D01*
X124434600Y-83667600D02*
X123926600Y-82986880D01*
X141433550Y-88804750D02*
X142290800Y-89662000D01*
X105664000Y-88138000D02*
X105473500Y-88138000D01*
X105473500Y-88138000D02*
X103632000Y-89979500D01*
X94869000Y-89979500D02*
X91630500Y-93218000D01*
X103632000Y-89979500D02*
X94869000Y-89979500D01*
X92011500Y-88836500D02*
X92011500Y-84950300D01*
X92011500Y-84950300D02*
X97922080Y-79039720D01*
X91630500Y-93218000D02*
X91630500Y-89217500D01*
X91630500Y-89217500D02*
X92011500Y-88836500D01*
X105664000Y-88138000D02*
X105283000Y-88138000D01*
X105664000Y-88138000D02*
X105664000Y-86995000D01*
X105664000Y-86995000D02*
X109347000Y-83312000D01*
X109347000Y-83312000D02*
X119507000Y-83312000D01*
X119507000Y-83312000D02*
X121691400Y-82986880D01*
X104599740Y-72280780D02*
X99763580Y-72280780D01*
X103428800Y-65913000D02*
X103047800Y-65024000D01*
X102412800Y-66929000D02*
X103428800Y-65913000D01*
X99110800Y-66929000D02*
X102412800Y-66929000D01*
X98348800Y-67691000D02*
X99110800Y-66929000D01*
X98348800Y-70866000D02*
X98348800Y-67691000D01*
X99763580Y-72280780D02*
X98348800Y-70866000D01*
X104599740Y-72280780D02*
X104599740Y-73052940D01*
X104599740Y-73052940D02*
X105968800Y-74422000D01*
X105968800Y-74422000D02*
X109524800Y-74422000D01*
X109524800Y-74422000D02*
X111252000Y-76149200D01*
X111252000Y-76149200D02*
X111252000Y-79248000D01*
X111252000Y-79248000D02*
X111252000Y-78562200D01*
X111252000Y-79248000D02*
X111252000Y-79131160D01*
X111252000Y-79131160D02*
X110916720Y-79085440D01*
X110744000Y-78740000D02*
X111252000Y-79248000D01*
X111252000Y-79248000D02*
X111150400Y-79248000D01*
X85801200Y-78689200D02*
X85801200Y-76758800D01*
X85801200Y-76758800D02*
X81280000Y-72237600D01*
X73914000Y-76301600D02*
X73914000Y-74777600D01*
X76454000Y-72237600D02*
X81280000Y-72237600D01*
X73914000Y-74777600D02*
X76454000Y-72237600D01*
X142290800Y-94662000D02*
X141613900Y-94662000D01*
X142519400Y-95115400D02*
X142519400Y-95173800D01*
D40*
X131978400Y-145796000D02*
X131978400Y-148336000D01*
X118999000Y-145770600D02*
X118999000Y-148310600D01*
X100965000Y-145770600D02*
X100965000Y-148310600D01*
X83058000Y-145770600D02*
X83058000Y-148310600D01*
X64770000Y-145821400D02*
X64770000Y-148361400D01*
D42*
X123748800Y-109971840D02*
X123748800Y-110670340D01*
D40*
X131978400Y-145796000D02*
X131978400Y-145879000D01*
D39*
X141046200Y-58254900D02*
X141046200Y-60731400D01*
X140614400Y-68732400D02*
X142544800Y-71297800D01*
X140614400Y-61798200D02*
X140614400Y-68732400D01*
X141046200Y-60731400D02*
X140614400Y-61798200D01*
D41*
X52959000Y-110947200D02*
X52959000Y-110185200D01*
X52959000Y-110185200D02*
X58242200Y-104902000D01*
X58242200Y-104902000D02*
X65455800Y-104902000D01*
X52933600Y-116916200D02*
X52933600Y-110972600D01*
X52933600Y-110972600D02*
X52959000Y-110947200D01*
X52933600Y-116916200D02*
X52933600Y-122859800D01*
X52882800Y-128905000D02*
X52882800Y-122910600D01*
X52882800Y-122910600D02*
X52933600Y-122859800D01*
X52806600Y-134848600D02*
X52806600Y-128981200D01*
X52806600Y-128981200D02*
X52882800Y-128905000D01*
X52806600Y-140817600D02*
X52806600Y-134848600D01*
D39*
X109082840Y-89687400D02*
X109082840Y-90225880D01*
X109082840Y-90225880D02*
X114112040Y-95255080D01*
X114112040Y-98643440D02*
X115255040Y-100203000D01*
X114112040Y-95255080D02*
X114112040Y-98643440D01*
X109082840Y-89687400D02*
X109082840Y-89768680D01*
X108712000Y-87122000D02*
X108712000Y-86868000D01*
X108712000Y-86868000D02*
X108712000Y-86741000D01*
D40*
X95885000Y-145770600D02*
X95885000Y-148310600D01*
X135763000Y-127889000D02*
X126873000Y-137604500D01*
X95920000Y-143665500D02*
X95885000Y-145770600D01*
X97282000Y-142303500D02*
X95920000Y-143665500D01*
X109728000Y-142303500D02*
X97282000Y-142303500D01*
X114427000Y-137604500D02*
X109728000Y-142303500D01*
X126873000Y-137604500D02*
X114427000Y-137604500D01*
X135763000Y-127508000D02*
X135763000Y-127889000D01*
X113919000Y-145770600D02*
X113919000Y-148310600D01*
X113919000Y-145770600D02*
X113920000Y-143001000D01*
X129413000Y-140716000D02*
X133985000Y-135191500D01*
X116205000Y-140716000D02*
X129413000Y-140716000D01*
X113920000Y-143001000D02*
X116205000Y-140716000D01*
X77978000Y-145770600D02*
X77978000Y-148310600D01*
X76555600Y-127457200D02*
X77546200Y-127457200D01*
X77546200Y-127457200D02*
X79438500Y-129349500D01*
X79438500Y-129349500D02*
X79438500Y-140779500D01*
X79438500Y-140779500D02*
X77920000Y-142298000D01*
X77920000Y-142298000D02*
X77978000Y-145770600D01*
X59690000Y-145821400D02*
X59690000Y-148361400D01*
X75107800Y-135521700D02*
X72771000Y-137858500D01*
X59920000Y-141565500D02*
X59690000Y-145821400D01*
X63627000Y-137858500D02*
X59920000Y-141565500D01*
X72771000Y-137858500D02*
X63627000Y-137858500D01*
X75107800Y-135178800D02*
X75107800Y-135521700D01*
D39*
X144576800Y-106934000D02*
X126885700Y-105359200D01*
X117462300Y-96240600D02*
X117515640Y-96240600D01*
X117462300Y-102527100D02*
X117462300Y-96240600D01*
X118795800Y-103860600D02*
X117462300Y-102527100D01*
X125387100Y-103860600D02*
X118795800Y-103860600D01*
X126885700Y-105359200D02*
X125387100Y-103860600D01*
X115595400Y-89804240D02*
X115595400Y-90393520D01*
X115595400Y-90393520D02*
X117515640Y-92313760D01*
X117515640Y-92313760D02*
X117515640Y-96240600D01*
X107599480Y-61244480D02*
X107553760Y-57825640D01*
X107553760Y-57825640D02*
X107680760Y-57698640D01*
X106368850Y-76022200D02*
X106368850Y-80422750D01*
X121666000Y-77724000D02*
X119761000Y-79629000D01*
X123825000Y-77724000D02*
X121666000Y-77724000D01*
X124739400Y-78638400D02*
X123825000Y-77724000D01*
X124739400Y-81038700D02*
X124739400Y-78638400D01*
X123634500Y-82143600D02*
X124739400Y-81038700D01*
X108089700Y-82143600D02*
X123634500Y-82143600D01*
X106368850Y-80422750D02*
X108089700Y-82143600D01*
X90886280Y-84119720D02*
X96316800Y-78689200D01*
X96316800Y-78689200D02*
X96316800Y-75869800D01*
X96316800Y-75869800D02*
X97434400Y-74752200D01*
X97434400Y-74752200D02*
X99618800Y-74752200D01*
X99618800Y-74752200D02*
X100888800Y-76022200D01*
X100888800Y-76022200D02*
X106368850Y-76022200D01*
X86944200Y-67894200D02*
X86969600Y-67894200D01*
X86969600Y-67894200D02*
X88569800Y-66294000D01*
X95300800Y-62103000D02*
X96951800Y-60071000D01*
X92379800Y-62103000D02*
X95300800Y-62103000D01*
X91391740Y-63563500D02*
X92379800Y-62103000D01*
X91475560Y-65631060D02*
X91391740Y-63563500D01*
X91109800Y-66294000D02*
X91475560Y-65631060D01*
X88569800Y-66294000D02*
X91109800Y-66294000D01*
X86893400Y-84302600D02*
X90119200Y-84302600D01*
X90119200Y-84302600D02*
X90302080Y-84119720D01*
X90302080Y-84119720D02*
X90886280Y-84119720D01*
X90302080Y-84119720D02*
X91064080Y-84119720D01*
X119761000Y-79629000D02*
X119761000Y-78994000D01*
X86944200Y-67894200D02*
X86944200Y-68148200D01*
X90302080Y-84119720D02*
X90952320Y-84119720D01*
X90302080Y-84119720D02*
X90302080Y-84206080D01*
X101854000Y-95504000D02*
X101854000Y-98165920D01*
X106619040Y-102930960D02*
X106619040Y-105780840D01*
X101854000Y-98165920D02*
X106619040Y-102930960D01*
X94551500Y-88836500D02*
X94551500Y-87820500D01*
X103441500Y-86550500D02*
X104902000Y-85090000D01*
X95821500Y-86550500D02*
X103441500Y-86550500D01*
X94551500Y-87820500D02*
X95821500Y-86550500D01*
X97922080Y-76499720D02*
X97922080Y-76586080D01*
X97922080Y-76499720D02*
X97998280Y-76499720D01*
X112430560Y-89743280D02*
X112430560Y-91246960D01*
X115595400Y-94411800D02*
X115595400Y-97424240D01*
X112430560Y-91246960D02*
X115595400Y-94411800D01*
X118745000Y-91567000D02*
X118745000Y-91757500D01*
X118745000Y-91757500D02*
X118681500Y-91821000D01*
X118681500Y-91821000D02*
X118681500Y-101384100D01*
X118681500Y-101384100D02*
X119824500Y-102527100D01*
X119824500Y-102527100D02*
X126187200Y-102527100D01*
X119761000Y-87249000D02*
X119761000Y-87503000D01*
X119761000Y-87503000D02*
X117856000Y-89408000D01*
X117856000Y-89408000D02*
X117856000Y-90678000D01*
X117856000Y-90678000D02*
X118745000Y-91567000D01*
X133527800Y-72898000D02*
X133400800Y-75565000D01*
X134670800Y-77470000D02*
X139115800Y-77597000D01*
X133400800Y-75565000D02*
X134670800Y-77470000D01*
X130987800Y-72898000D02*
X131114800Y-75565000D01*
X132829300Y-79070200D02*
X137149840Y-79070200D01*
X131114800Y-75565000D02*
X132829300Y-79070200D01*
X131622800Y-62103000D02*
X131622800Y-62230000D01*
X131622800Y-62230000D02*
X129844800Y-64008000D01*
X120827800Y-64008000D02*
X118160800Y-66675000D01*
X129844800Y-64008000D02*
X120827800Y-64008000D01*
X118160800Y-65024000D02*
X118056660Y-65039240D01*
X105587800Y-65024000D02*
X105714800Y-65024000D01*
X105714800Y-65024000D02*
X108381800Y-67310000D01*
X108381800Y-67310000D02*
X108381800Y-72669400D01*
X108381800Y-72669400D02*
X108242100Y-72809100D01*
X108242100Y-72809100D02*
X108242100Y-73012300D01*
X108242100Y-72809100D02*
X108242100Y-72732900D01*
M02*
