G04 #@! TF.FileFunction,Copper,L2,Bot,Signal*
%FSLAX46Y46*%
G04 Gerber Fmt 4.6, Leading zero omitted, Abs format (unit mm)*
G04 Created by KiCad (PCBNEW 4.0.7) date 07/13/19 15:17:35*
%MOMM*%
%LPD*%
G01*
G04 APERTURE LIST*
%ADD10C,0.100000*%
%ADD11R,2.000000X2.600000*%
%ADD12O,2.000000X2.600000*%
%ADD13C,1.600000*%
%ADD14O,1.600000X1.600000*%
%ADD15C,1.440000*%
%ADD16C,2.400000*%
%ADD17O,2.400000X2.400000*%
%ADD18R,2.600000X2.600000*%
%ADD19O,2.600000X2.600000*%
%ADD20R,1.600000X1.600000*%
%ADD21R,2.200000X2.200000*%
%ADD22O,2.200000X2.200000*%
%ADD23R,1.800000X1.800000*%
%ADD24C,1.800000*%
%ADD25R,3.000000X3.000000*%
%ADD26C,3.000000*%
%ADD27C,1.000000*%
%ADD28R,1.000000X1.000000*%
%ADD29C,2.500000*%
%ADD30R,2.400000X2.400000*%
%ADD31C,4.064000*%
%ADD32O,1.800000X1.800000*%
%ADD33R,1.700000X1.700000*%
%ADD34O,1.700000X1.700000*%
%ADD35R,2.600000X2.000000*%
%ADD36O,2.600000X2.000000*%
%ADD37C,0.600000*%
%ADD38C,0.500000*%
%ADD39C,4.000000*%
%ADD40C,2.000000*%
%ADD41C,1.000000*%
%ADD42C,0.635000*%
G04 APERTURE END LIST*
D10*
D11*
X142544800Y-64008000D03*
D12*
X145084800Y-64008000D03*
X147624800Y-64008000D03*
D13*
X127330200Y-66789300D03*
D14*
X127330200Y-74409300D03*
D13*
X130733800Y-81950560D03*
D14*
X138353800Y-81950560D03*
D15*
X99314000Y-95504000D03*
X101854000Y-95504000D03*
X104394000Y-95504000D03*
D13*
X107635040Y-100203000D03*
D14*
X115255040Y-100203000D03*
D13*
X132448300Y-89598500D03*
X127448300Y-89598500D03*
X119761000Y-79629000D03*
D14*
X119761000Y-87249000D03*
D16*
X75107800Y-135178800D03*
D17*
X103047800Y-135178800D03*
D13*
X134734300Y-89662000D03*
X139734300Y-89662000D03*
X122936000Y-84455000D03*
X122936000Y-79455000D03*
X94691200Y-73314560D03*
X89691200Y-73314560D03*
X113268760Y-76024740D03*
X108268760Y-76024740D03*
D18*
X68300600Y-70662800D03*
D19*
X53060600Y-70662800D03*
D18*
X68122800Y-128905000D03*
D19*
X52882800Y-128905000D03*
D18*
X53111400Y-76352400D03*
D19*
X68351400Y-76352400D03*
D18*
X52933600Y-122859800D03*
D19*
X68173600Y-122859800D03*
D20*
X88582500Y-61341000D03*
D14*
X80962500Y-61341000D03*
D20*
X88544400Y-64274700D03*
D14*
X80924400Y-64274700D03*
D21*
X91630500Y-93218000D03*
D22*
X91630500Y-100838000D03*
D20*
X96979740Y-72280780D03*
D14*
X104599740Y-72280780D03*
D21*
X138544300Y-95059500D03*
D22*
X130924300Y-95059500D03*
D23*
X137520680Y-53812440D03*
D24*
X137520680Y-51272440D03*
D25*
X65455800Y-104902000D03*
D26*
X65455800Y-99822000D03*
X65455800Y-94742000D03*
D25*
X144373600Y-128117600D03*
D26*
X144373600Y-133197600D03*
D27*
X118745000Y-91567000D03*
X120015000Y-90297000D03*
D28*
X120015000Y-92837000D03*
D27*
X73914000Y-76301600D03*
X75184000Y-77571600D03*
D28*
X72644000Y-77571600D03*
D13*
X87439500Y-122618500D03*
D14*
X87439500Y-114998500D03*
D16*
X69303900Y-53492400D03*
D17*
X82003900Y-53492400D03*
D16*
X86944200Y-67894200D03*
D17*
X74244200Y-67894200D03*
D13*
X95186500Y-100965000D03*
D14*
X95186500Y-93345000D03*
D13*
X98044000Y-88138000D03*
D14*
X105664000Y-88138000D03*
D13*
X98044000Y-91440000D03*
D14*
X105664000Y-91440000D03*
D16*
X91211400Y-115128040D03*
D17*
X119151400Y-115128040D03*
D13*
X126751080Y-85953600D03*
D14*
X134371080Y-85953600D03*
D13*
X108242100Y-72809100D03*
D14*
X115862100Y-72809100D03*
D13*
X106619040Y-105780840D03*
D14*
X114239040Y-105780840D03*
D13*
X124548900Y-105702100D03*
D14*
X116928900Y-105702100D03*
D13*
X126187200Y-102527100D03*
D14*
X126187200Y-94907100D03*
D16*
X123748800Y-109971840D03*
D17*
X136448800Y-109971840D03*
D13*
X141046200Y-58254900D03*
D14*
X148666200Y-58254900D03*
D13*
X104902000Y-85090000D03*
D14*
X104902000Y-77470000D03*
D13*
X73660000Y-72237600D03*
D14*
X81280000Y-72237600D03*
D13*
X85801200Y-78689200D03*
D14*
X85801200Y-71069200D03*
D13*
X101600000Y-85090000D03*
D14*
X101600000Y-77470000D03*
D13*
X125730000Y-52578000D03*
D14*
X133350000Y-52578000D03*
D29*
X142290800Y-94662000D03*
X142290800Y-99662000D03*
X142290800Y-89662000D03*
X142544800Y-76297800D03*
X142544800Y-81297800D03*
X142544800Y-71297800D03*
D20*
X90302080Y-76499720D03*
D14*
X97922080Y-84119720D03*
X90302080Y-79039720D03*
X97922080Y-81579720D03*
X90302080Y-81579720D03*
X97922080Y-79039720D03*
X90302080Y-84119720D03*
X97922080Y-76499720D03*
D20*
X116332000Y-79248000D03*
D14*
X108712000Y-86868000D03*
X113792000Y-79248000D03*
X111252000Y-86868000D03*
X111252000Y-79248000D03*
X113792000Y-86868000D03*
X108712000Y-79248000D03*
X116332000Y-86868000D03*
D20*
X85496400Y-54368700D03*
D13*
X90496400Y-54368700D03*
D20*
X72732900Y-60769500D03*
D13*
X77732900Y-60769500D03*
D20*
X138163300Y-101663500D03*
D13*
X133163300Y-101663500D03*
D18*
X68046600Y-140817600D03*
D19*
X52806600Y-140817600D03*
D18*
X52933600Y-116916200D03*
D19*
X68173600Y-116916200D03*
D18*
X68046600Y-134848600D03*
D19*
X52806600Y-134848600D03*
D18*
X52959000Y-110947200D03*
D19*
X68199000Y-110947200D03*
D18*
X68351400Y-58902600D03*
D19*
X53111400Y-58902600D03*
D18*
X53263800Y-88265000D03*
D19*
X68503800Y-88265000D03*
D18*
X68326000Y-64795400D03*
D19*
X53086000Y-64795400D03*
D18*
X53136800Y-82296000D03*
D19*
X68376800Y-82296000D03*
D30*
X78143100Y-104457500D03*
D16*
X78143100Y-96957500D03*
D13*
X109082840Y-97307400D03*
D14*
X109082840Y-89687400D03*
D16*
X76555600Y-127457200D03*
D17*
X104495600Y-127457200D03*
D16*
X133985000Y-135191500D03*
D17*
X106045000Y-135191500D03*
D16*
X135763000Y-127508000D03*
D17*
X107823000Y-127508000D03*
D30*
X78333600Y-118211600D03*
D16*
X78333600Y-110711600D03*
D30*
X78181200Y-90754200D03*
D16*
X78181200Y-83254200D03*
D31*
X53000000Y-53000000D03*
X53000000Y-147000000D03*
X147000000Y-53000000D03*
X147000000Y-147000000D03*
D20*
X119303800Y-58293000D03*
D13*
X119303800Y-53293000D03*
X107599480Y-61244480D03*
D14*
X99979480Y-61244480D03*
D23*
X137464800Y-58841640D03*
D24*
X137464800Y-56301640D03*
D13*
X125740160Y-55697120D03*
D14*
X133360160Y-55697120D03*
D21*
X107680760Y-57698640D03*
D22*
X100060760Y-57698640D03*
D16*
X112826800Y-53975000D03*
D17*
X100126800Y-53975000D03*
D20*
X94300040Y-52390040D03*
D14*
X94300040Y-60010040D03*
D20*
X96951800Y-60071000D03*
D14*
X96951800Y-52451000D03*
D15*
X89471500Y-88836500D03*
X92011500Y-88836500D03*
X94551500Y-88836500D03*
D13*
X77876400Y-78282800D03*
X82876400Y-78282800D03*
D21*
X86868000Y-102565200D03*
D22*
X86868000Y-94945200D03*
D23*
X137058400Y-145796000D03*
D32*
X134518400Y-145796000D03*
X131978400Y-145796000D03*
D23*
X100965000Y-145770600D03*
D32*
X98425000Y-145770600D03*
X95885000Y-145770600D03*
D23*
X118999000Y-145770600D03*
D32*
X116459000Y-145770600D03*
X113919000Y-145770600D03*
D23*
X83058000Y-145770600D03*
D32*
X80518000Y-145770600D03*
X77978000Y-145770600D03*
D23*
X64770000Y-145821400D03*
D32*
X62230000Y-145821400D03*
X59690000Y-145821400D03*
D33*
X86893400Y-81762600D03*
D34*
X86893400Y-84302600D03*
D13*
X112430560Y-89743280D03*
D14*
X112430560Y-97363280D03*
D13*
X115595400Y-89804240D03*
D14*
X115595400Y-97424240D03*
D33*
X119725440Y-76611480D03*
D34*
X119725440Y-74071480D03*
D33*
X93766640Y-105864660D03*
D34*
X96306640Y-105864660D03*
D13*
X137020300Y-61658500D03*
X132020300Y-61658500D03*
D35*
X144576800Y-106934000D03*
D36*
X144576800Y-109474000D03*
X144576800Y-112014000D03*
D11*
X93014800Y-65532000D03*
D12*
X95554800Y-65532000D03*
D33*
X105918000Y-68999100D03*
D34*
X103378000Y-68999100D03*
X100838000Y-68999100D03*
D33*
X105587800Y-65024000D03*
D34*
X103047800Y-65024000D03*
X100507800Y-65024000D03*
D13*
X129809240Y-78623160D03*
D14*
X137429240Y-78623160D03*
D13*
X129336800Y-62077600D03*
D14*
X121716800Y-62077600D03*
D13*
X131368800Y-64516000D03*
D14*
X138988800Y-64516000D03*
D13*
X111785400Y-61760100D03*
D14*
X119405400Y-61760100D03*
D13*
X117652800Y-65532000D03*
D14*
X125272800Y-65532000D03*
D20*
X130416300Y-75590400D03*
D14*
X138036300Y-67970400D03*
X132956300Y-75590400D03*
X135496300Y-67970400D03*
X135496300Y-75590400D03*
X132956300Y-67970400D03*
X138036300Y-75590400D03*
X130416300Y-67970400D03*
D13*
X110286800Y-65278000D03*
X115286800Y-65278000D03*
D37*
X145402300Y-87439500D03*
D38*
X145402300Y-87439500D02*
X145402300Y-86974680D01*
X149255480Y-83121500D02*
X149275800Y-61595000D01*
X149275800Y-61595000D02*
X147645120Y-60276740D01*
X136385300Y-60276740D02*
X147645120Y-60276740D01*
X145402300Y-86974680D02*
X149255480Y-83121500D01*
X136385300Y-60276740D02*
X133402060Y-60276740D01*
X133402060Y-60276740D02*
X132020300Y-61658500D01*
X132020300Y-61658500D02*
X131701540Y-61658500D01*
X131701540Y-61658500D02*
X125740160Y-55697120D01*
X136385300Y-60276740D02*
X136189720Y-60276740D01*
X126187200Y-94907100D02*
X127241300Y-91249500D01*
X127241300Y-91249500D02*
X127448300Y-89598500D01*
X125740160Y-55697120D02*
X125740160Y-55646320D01*
X125740160Y-55646320D02*
X124256800Y-54864000D01*
X100126800Y-51943000D02*
X100126800Y-53975000D01*
X100698300Y-51371500D02*
X100126800Y-51943000D01*
X123812300Y-51371500D02*
X100698300Y-51371500D01*
X124256800Y-51816000D02*
X123812300Y-51371500D01*
X124256800Y-54864000D02*
X124256800Y-51816000D01*
X100126800Y-53975000D02*
X100190300Y-53975000D01*
X86868000Y-102565200D02*
X86868000Y-103380540D01*
X86868000Y-103380540D02*
X89352120Y-105864660D01*
X89352120Y-105864660D02*
X93766640Y-105864660D01*
D39*
X68046600Y-140817600D02*
X77762100Y-140817600D01*
X68122800Y-128905000D02*
X68122800Y-134772400D01*
X68046600Y-134848600D02*
X68046600Y-140817600D01*
D40*
X80518000Y-145770600D02*
X80460000Y-143515500D01*
D39*
X77762100Y-140817600D02*
X95491300Y-140817600D01*
D40*
X80460000Y-143515500D02*
X77762100Y-140817600D01*
X134518400Y-145796000D02*
X134460000Y-144048500D01*
X134460000Y-144048500D02*
X131229100Y-140817600D01*
D39*
X113830100Y-140817600D02*
X131229100Y-140817600D01*
X132562600Y-140817600D02*
X132842000Y-141097000D01*
X131229100Y-140817600D02*
X132562600Y-140817600D01*
D40*
X98425000Y-145770600D02*
X98460000Y-143786300D01*
D39*
X95491300Y-140817600D02*
X113830100Y-140817600D01*
D40*
X116460000Y-143447500D02*
X113830100Y-140817600D01*
X116459000Y-145770600D02*
X116460000Y-143447500D01*
X98460000Y-143786300D02*
X95491300Y-140817600D01*
X62230000Y-145821400D02*
X62460000Y-142645000D01*
X62460000Y-142645000D02*
X64287400Y-140817600D01*
X64287400Y-140817600D02*
X68046600Y-140817600D01*
D38*
X86868000Y-102565200D02*
X80035400Y-102565200D01*
X80035400Y-102565200D02*
X78143100Y-104457500D01*
X87439500Y-122618500D02*
X82740500Y-122618500D01*
X82740500Y-122618500D02*
X78333600Y-118211600D01*
D39*
X72694800Y-107238800D02*
X72694800Y-93992700D01*
X75933300Y-90754200D02*
X78181200Y-90754200D01*
X72694800Y-93992700D02*
X75933300Y-90754200D01*
X78333600Y-118211600D02*
X75438000Y-118211600D01*
X72747856Y-115521456D02*
X72747856Y-115521431D01*
X75438000Y-118211600D02*
X72747856Y-115521456D01*
X68986400Y-128905000D02*
X72809100Y-125082300D01*
X72809100Y-125082300D02*
X72747856Y-115521431D01*
X72747856Y-115521431D02*
X72694800Y-107238800D01*
X75869800Y-106730800D02*
X78143100Y-104457500D01*
X72694800Y-107238800D02*
X75869800Y-106730800D01*
X68122800Y-128905000D02*
X68986400Y-128905000D01*
X68300600Y-70662800D02*
X63830200Y-70662800D01*
X63830200Y-70662800D02*
X59309000Y-75184000D01*
X59309000Y-75184000D02*
X59309000Y-79514700D01*
X63373000Y-128905000D02*
X68122800Y-128905000D01*
X59309000Y-79514700D02*
X59309000Y-124841000D01*
X59309000Y-124841000D02*
X63373000Y-128905000D01*
X68326000Y-64795400D02*
X68326000Y-58928000D01*
X68326000Y-58928000D02*
X68351400Y-58902600D01*
X68300600Y-70662800D02*
X68300600Y-64820800D01*
X68300600Y-64820800D02*
X68326000Y-64795400D01*
X68122800Y-134772400D02*
X68046600Y-134848600D01*
D38*
X137020300Y-61658500D02*
X137020300Y-65024000D01*
X139750800Y-73875900D02*
X138036300Y-75590400D01*
X139750800Y-67437000D02*
X139750800Y-73875900D01*
X138861800Y-66548000D02*
X139750800Y-67437000D01*
X138544300Y-66548000D02*
X138861800Y-66548000D01*
X137020300Y-65024000D02*
X138544300Y-66548000D01*
X139560300Y-77114400D02*
X139616180Y-77114400D01*
X140370560Y-75186540D02*
X141833600Y-73723500D01*
X140370560Y-76360020D02*
X140370560Y-75186540D01*
X139616180Y-77114400D02*
X140370560Y-76360020D01*
X138353800Y-81950560D02*
X138353800Y-80500220D01*
X139560300Y-77114400D02*
X138036300Y-75590400D01*
X139560300Y-79293720D02*
X139560300Y-77114400D01*
X138353800Y-80500220D02*
X139560300Y-79293720D01*
X147624800Y-71221600D02*
X147624800Y-64008000D01*
X141833600Y-73723500D02*
X145732500Y-73723500D01*
X145732500Y-73723500D02*
X147624800Y-71221600D01*
X148666200Y-58254900D02*
X144284700Y-58254900D01*
X139537440Y-56769000D02*
X137464800Y-58841640D01*
X142798800Y-56769000D02*
X139537440Y-56769000D01*
X144284700Y-58254900D02*
X142798800Y-56769000D01*
X99979480Y-61244480D02*
X100185220Y-61244480D01*
X138036300Y-75590400D02*
X138036300Y-75402440D01*
X93014800Y-65532000D02*
X93375480Y-60934600D01*
X93375480Y-60934600D02*
X94300040Y-60010040D01*
X105349040Y-108016040D02*
X105349040Y-110566200D01*
X105349040Y-110566200D02*
X103652320Y-112262920D01*
X94642940Y-60352940D02*
X94300040Y-60010040D01*
X143817340Y-111645700D02*
X141503400Y-111978440D01*
X103652320Y-112262920D02*
X119948960Y-112262920D01*
X121737120Y-108798360D02*
X122519440Y-108016040D01*
X121737120Y-110474760D02*
X121737120Y-108798360D01*
X119948960Y-112262920D02*
X121737120Y-110474760D01*
X126192280Y-108016040D02*
X122519440Y-108016040D01*
X130154680Y-111978440D02*
X126192280Y-108016040D01*
X141503400Y-111978440D02*
X130154680Y-111978440D01*
X95331280Y-112262920D02*
X103652320Y-112262920D01*
X92466160Y-115128040D02*
X95331280Y-112262920D01*
X91211400Y-115128040D02*
X92466160Y-115128040D01*
X88582500Y-61341000D02*
X89141300Y-61341000D01*
X89141300Y-61341000D02*
X91236800Y-60452000D01*
X91236800Y-60452000D02*
X94300040Y-60010040D01*
X148666200Y-58254900D02*
X148666200Y-57810400D01*
X106946700Y-96799400D02*
X106946700Y-97462340D01*
X105349040Y-99060000D02*
X105349040Y-108016040D01*
X106946700Y-97462340D02*
X105349040Y-99060000D01*
X109082840Y-97307400D02*
X109082840Y-95437960D01*
X111683800Y-92837000D02*
X120015000Y-92837000D01*
X109082840Y-95437960D02*
X111683800Y-92837000D01*
X106946700Y-96799400D02*
X108574840Y-96799400D01*
X108574840Y-96799400D02*
X109082840Y-97307400D01*
X106946700Y-81013300D02*
X108712000Y-79248000D01*
X106946700Y-96799400D02*
X106946700Y-81013300D01*
X108712000Y-79248000D02*
X108585000Y-79248000D01*
X87439500Y-114998500D02*
X91211400Y-115128040D01*
X108712000Y-79248000D02*
X108712000Y-79527400D01*
X130924300Y-95059500D02*
X132130800Y-90868500D01*
X132130800Y-90868500D02*
X132448300Y-89598500D01*
X132448300Y-89598500D02*
X134581900Y-89814400D01*
X134581900Y-89814400D02*
X134734300Y-89662000D01*
X101600000Y-85090000D02*
X101600000Y-89281000D01*
X101600000Y-89281000D02*
X103759000Y-91440000D01*
X103759000Y-91440000D02*
X105664000Y-91440000D01*
X130924300Y-95059500D02*
X130924300Y-95506540D01*
X130924300Y-95506540D02*
X131064000Y-96659700D01*
X131064000Y-96659700D02*
X133163300Y-101663500D01*
X99314000Y-95504000D02*
X99314000Y-94091760D01*
X103921560Y-93182440D02*
X105664000Y-91440000D01*
X100223320Y-93182440D02*
X103921560Y-93182440D01*
X99314000Y-94091760D02*
X100223320Y-93182440D01*
X95186500Y-93345000D02*
X95186500Y-94180660D01*
X96509840Y-95504000D02*
X99314000Y-95504000D01*
X95186500Y-94180660D02*
X96509840Y-95504000D01*
X132448300Y-89598500D02*
X132397500Y-89598500D01*
X130924300Y-95059500D02*
X130924300Y-95377000D01*
X133163300Y-101663500D02*
X133163300Y-102251500D01*
X105664000Y-91440000D02*
X105664000Y-91602560D01*
X133163300Y-101917500D02*
X133286500Y-101917500D01*
X133163300Y-101917500D02*
X133163300Y-101710500D01*
X115862100Y-72809100D02*
X115862100Y-72351900D01*
X115862100Y-72351900D02*
X116890800Y-71323200D01*
X116890800Y-71323200D02*
X120929400Y-71323200D01*
X126606300Y-79819500D02*
X126751080Y-85953600D01*
X124587000Y-77800200D02*
X126606300Y-79819500D01*
X122948700Y-77800200D02*
X124587000Y-77800200D01*
X122301000Y-77152500D02*
X122948700Y-77800200D01*
X122301000Y-72694800D02*
X122301000Y-77152500D01*
X120909080Y-71302880D02*
X120929400Y-71323200D01*
X120929400Y-71323200D02*
X122301000Y-72694800D01*
X126751080Y-85953600D02*
X126751080Y-85991700D01*
X126751080Y-85991700D02*
X128244600Y-87500460D01*
X128244600Y-87500460D02*
X137854700Y-87500460D01*
X137854700Y-87500460D02*
X139734300Y-89662000D01*
X136448800Y-109971840D02*
X136448800Y-102323900D01*
X136448800Y-102323900D02*
X138163300Y-101663500D01*
X136652000Y-109768640D02*
X136448800Y-109971840D01*
X124548900Y-105702100D02*
X123167140Y-105702100D01*
X108320840Y-100888800D02*
X107635040Y-100203000D01*
X108320840Y-105120440D02*
X108320840Y-100888800D01*
X110337600Y-107137200D02*
X108320840Y-105120440D01*
X121732040Y-107137200D02*
X110337600Y-107137200D01*
X123167140Y-105702100D02*
X121732040Y-107137200D01*
X136652000Y-109768640D02*
X136448800Y-109971840D01*
X124548900Y-105702100D02*
X132179060Y-105702100D01*
X132179060Y-105702100D02*
X136448800Y-109971840D01*
X138163300Y-101663500D02*
X138036300Y-95567500D01*
X138036300Y-95567500D02*
X138544300Y-95059500D01*
X136448800Y-109971840D02*
X136499600Y-109971840D01*
X113792000Y-79248000D02*
X113792000Y-78778100D01*
X113792000Y-78778100D02*
X112433100Y-77419200D01*
X109663220Y-77419200D02*
X108268760Y-76024740D01*
X112433100Y-77419200D02*
X109663220Y-77419200D01*
X124447300Y-92887800D02*
X124246640Y-92887800D01*
X116928900Y-100205540D02*
X116928900Y-105702100D01*
X124246640Y-92887800D02*
X116928900Y-100205540D01*
X124447300Y-81648300D02*
X124447300Y-92887800D01*
X122936000Y-80137000D02*
X124447300Y-81648300D01*
X122936000Y-79455000D02*
X122936000Y-80137000D01*
X94691200Y-73314560D02*
X94691200Y-73959720D01*
X94691200Y-73959720D02*
X96621600Y-74980800D01*
X96621600Y-74980800D02*
X99531747Y-74980800D01*
X99531747Y-74980800D02*
X101600000Y-77470000D01*
X94919800Y-73085960D02*
X94691200Y-73314560D01*
X94691200Y-73314560D02*
X94615000Y-73314560D01*
X90302080Y-76499720D02*
X89743280Y-73366640D01*
X89743280Y-73366640D02*
X89691200Y-73314560D01*
X89743280Y-73366640D02*
X89691200Y-73314560D01*
X116332000Y-79248000D02*
X113258600Y-76034900D01*
X113258600Y-76034900D02*
X113268760Y-76024740D01*
X120015000Y-90297000D02*
X119761000Y-90297000D01*
X119761000Y-90297000D02*
X118237000Y-88773000D01*
X118237000Y-88773000D02*
X118237000Y-81153000D01*
X118237000Y-81153000D02*
X116332000Y-79248000D01*
X105410000Y-87884000D02*
X105664000Y-88138000D01*
X91630500Y-100838000D02*
X91630500Y-100584000D01*
X91630500Y-100584000D02*
X93281500Y-98933000D01*
X97922080Y-81579720D02*
X97490280Y-81579720D01*
X97490280Y-81579720D02*
X93281500Y-85788500D01*
X93281500Y-85788500D02*
X93281500Y-98933000D01*
X93281500Y-98933000D02*
X93281500Y-99060000D01*
X93281500Y-99060000D02*
X95186500Y-100965000D01*
X111252000Y-79248000D02*
X111252000Y-78999080D01*
X133350000Y-52578000D02*
X133477000Y-52578000D01*
X133477000Y-52578000D02*
X134366000Y-51689000D01*
X134366000Y-51689000D02*
X137520680Y-51272440D01*
X133858000Y-52070000D02*
X133350000Y-52578000D01*
X137063480Y-51729640D02*
X137520680Y-51272440D01*
X101333300Y-50596800D02*
X125069600Y-50596800D01*
X125730000Y-51257200D02*
X125730000Y-52578000D01*
X125069600Y-50596800D02*
X125730000Y-51257200D01*
X88468200Y-58978800D02*
X89611200Y-58978800D01*
X92288360Y-50906680D02*
X101333300Y-50596800D01*
X101333300Y-50596800D02*
X101422200Y-50596800D01*
X92278200Y-52463700D02*
X92288360Y-50906680D01*
X92278200Y-56311800D02*
X92278200Y-52463700D01*
X89611200Y-58978800D02*
X92278200Y-56311800D01*
X76276200Y-70053200D02*
X76276200Y-76479400D01*
X76276200Y-76479400D02*
X75184000Y-77571600D01*
X125730000Y-52578000D02*
X125476000Y-52578000D01*
X76951840Y-59131200D02*
X75780900Y-59245500D01*
X88468200Y-58978800D02*
X76951840Y-59131200D01*
X75184000Y-77571600D02*
X75387200Y-77571600D01*
X76276200Y-70053200D02*
X75780900Y-59245500D01*
X98044000Y-88138000D02*
X98044000Y-91440000D01*
X97922080Y-84119720D02*
X97922080Y-88016080D01*
X97922080Y-88016080D02*
X98044000Y-88138000D01*
X142270093Y-86418920D02*
X142578320Y-86418920D01*
X142578320Y-86418920D02*
X144957800Y-88798400D01*
X134401700Y-86436874D02*
X142270093Y-86418920D01*
X144957800Y-88798400D02*
X144957800Y-91020900D01*
X144957800Y-91020900D02*
X143018500Y-94662000D01*
X143018500Y-94662000D02*
X142290800Y-94662000D01*
X142290800Y-94662000D02*
X142290800Y-94297500D01*
D41*
X118999000Y-145770600D02*
X118999000Y-145847000D01*
X118999000Y-145847000D02*
X122097800Y-149174200D01*
X100965000Y-145770600D02*
X101235600Y-145770600D01*
X101235600Y-145770600D02*
X104444800Y-149174200D01*
X83058000Y-145770600D02*
X83091400Y-145770600D01*
X83091400Y-145770600D02*
X86207600Y-149174200D01*
X131978400Y-145796000D02*
X131920000Y-147429200D01*
X65000000Y-148337400D02*
X64770000Y-145821400D01*
X65836800Y-149174200D02*
X65000000Y-148337400D01*
X130175000Y-149174200D02*
X122097800Y-149174200D01*
X122097800Y-149174200D02*
X104444800Y-149174200D01*
X104444800Y-149174200D02*
X86207600Y-149174200D01*
X86207600Y-149174200D02*
X65836800Y-149174200D01*
X131920000Y-147429200D02*
X130175000Y-149174200D01*
X123748800Y-109971840D02*
X123941840Y-109971840D01*
X123941840Y-109971840D02*
X126095760Y-113573560D01*
X131920000Y-147668000D02*
X131978400Y-145796000D01*
X133159500Y-148907500D02*
X131920000Y-147668000D01*
X138620500Y-148907500D02*
X133159500Y-148907500D01*
X148844000Y-138684000D02*
X138620500Y-148907500D01*
X148844000Y-118872000D02*
X148844000Y-138684000D01*
X142097760Y-113573560D02*
X148844000Y-118872000D01*
X126095760Y-113573560D02*
X142097760Y-113573560D01*
D38*
X142544800Y-71297800D02*
X141744700Y-71297800D01*
X137607040Y-84632800D02*
X139209800Y-84632800D01*
X137607040Y-84632800D02*
X128488440Y-84632800D01*
X128488440Y-84632800D02*
X127386080Y-83530440D01*
X121229120Y-70368160D02*
X123057920Y-72196960D01*
X127386080Y-83530440D02*
X127386080Y-79491840D01*
X127386080Y-79491840D02*
X124863860Y-76969620D01*
X124863860Y-76969620D02*
X123377960Y-76969620D01*
X123377960Y-76969620D02*
X123101100Y-75742800D01*
X123101100Y-75742800D02*
X123057920Y-72196960D01*
X139209800Y-84632800D02*
X142544800Y-81297800D01*
X106680000Y-71247000D02*
X106680000Y-71208900D01*
X106680000Y-71208900D02*
X107480100Y-70408800D01*
X107480100Y-70408800D02*
X121229120Y-70368160D01*
X105257600Y-77470000D02*
X106680000Y-76047600D01*
X106680000Y-76047600D02*
X106680000Y-71247000D01*
X104902000Y-77470000D02*
X105257600Y-77470000D01*
X142544800Y-81297800D02*
X142158700Y-81297800D01*
X121114820Y-70253860D02*
X121229120Y-70368160D01*
X109082840Y-89687400D02*
X109082840Y-87238840D01*
X109082840Y-87238840D02*
X108712000Y-86868000D01*
X108712000Y-86868000D02*
X108216700Y-86868000D01*
X113792000Y-86868000D02*
X113792000Y-88000840D01*
X113792000Y-88000840D02*
X115595400Y-89804240D01*
X107599480Y-61244480D02*
X106619040Y-61244480D01*
X98513900Y-62892940D02*
X95554800Y-65532000D01*
X104970580Y-62892940D02*
X98513900Y-62892940D01*
X106619040Y-61244480D02*
X104970580Y-62892940D01*
X112826800Y-53975000D02*
X114985800Y-53975000D01*
X114985800Y-53975000D02*
X119303800Y-58293000D01*
X107680760Y-57698640D02*
X109103160Y-57698640D01*
X109103160Y-57698640D02*
X112826800Y-53975000D01*
X133644640Y-55697120D02*
X134614920Y-56667400D01*
X134614920Y-56667400D02*
X137464800Y-56301640D01*
X133360160Y-55697120D02*
X133644640Y-55697120D01*
X94300040Y-52390040D02*
X96951800Y-52451000D01*
X119552720Y-79629000D02*
X118130320Y-78206600D01*
X118130320Y-78206600D02*
X118130320Y-75666600D01*
X118130320Y-75666600D02*
X119725440Y-74071480D01*
X119761000Y-79629000D02*
X119552720Y-79629000D01*
X90302080Y-84119720D02*
X90088720Y-84119720D01*
X90088720Y-84119720D02*
X88353900Y-82727800D01*
X88353900Y-69646800D02*
X86944200Y-67894200D01*
X88353900Y-82727800D02*
X88353900Y-69646800D01*
X90525600Y-84343240D02*
X90302080Y-84119720D01*
X104902000Y-85090000D02*
X104902000Y-84836000D01*
X86868000Y-94945200D02*
X86868000Y-96088200D01*
X94378780Y-103936800D02*
X96306640Y-105864660D01*
X90563700Y-103936800D02*
X94378780Y-103936800D01*
X89535000Y-102908100D02*
X90563700Y-103936800D01*
X89535000Y-98755200D02*
X89535000Y-102908100D01*
X86868000Y-96088200D02*
X89535000Y-98755200D01*
X72644000Y-77571600D02*
X72644000Y-77927200D01*
X72644000Y-77927200D02*
X74523600Y-79806800D01*
X74523600Y-79806800D02*
X82876400Y-79806800D01*
X97922080Y-76499720D02*
X97490280Y-76499720D01*
X97490280Y-76499720D02*
X95046800Y-78943200D01*
X90627200Y-86512400D02*
X82876400Y-86512400D01*
X95046800Y-82092800D02*
X90627200Y-86512400D01*
X95046800Y-78943200D02*
X95046800Y-82092800D01*
X82876400Y-78282800D02*
X82876400Y-79806800D01*
X82876400Y-79806800D02*
X82876400Y-86512400D01*
X82876400Y-86512400D02*
X82876400Y-90953600D01*
X82876400Y-90953600D02*
X86868000Y-94945200D01*
X72644000Y-77571600D02*
X72644000Y-73253600D01*
X72644000Y-73253600D02*
X73660000Y-72237600D01*
X72644000Y-77571600D02*
X72644000Y-77393800D01*
X97922080Y-76499720D02*
X97426780Y-76499720D01*
X111252000Y-86868000D02*
X111252000Y-88564720D01*
X111252000Y-88564720D02*
X112430560Y-89743280D01*
X111252000Y-86868000D02*
X111658400Y-87109300D01*
X119725440Y-77144880D02*
X121234200Y-78653640D01*
X121234200Y-85775800D02*
X119761000Y-87249000D01*
X121234200Y-78653640D02*
X121234200Y-85775800D01*
X119725440Y-76611480D02*
X119725440Y-77144880D01*
X142656560Y-64287400D02*
X142656560Y-63769240D01*
X142656560Y-63769240D02*
X138988800Y-64516000D01*
X135496300Y-75590400D02*
X135496300Y-75247500D01*
X119595900Y-69380100D02*
X106299000Y-69380100D01*
X106299000Y-69380100D02*
X105918000Y-68999100D01*
X142544800Y-76297800D02*
X141900900Y-76297800D01*
X141900900Y-76297800D02*
X140432540Y-79424376D01*
X123885960Y-75176380D02*
X123885960Y-71366380D01*
X124134880Y-76151740D02*
X123885960Y-75176380D01*
X125354080Y-76151740D02*
X124134880Y-76151740D01*
X128214120Y-79375000D02*
X125354080Y-76151740D01*
X128214120Y-82537300D02*
X128214120Y-79375000D01*
X128919197Y-83824835D02*
X128214120Y-82537300D01*
X138424973Y-83805671D02*
X128919197Y-83824835D01*
X140499287Y-81751307D02*
X138424973Y-83805671D01*
X140432540Y-79424376D02*
X140499287Y-81751307D01*
X121554240Y-69413120D02*
X123885960Y-71366380D01*
X119519700Y-69380100D02*
X119595900Y-69380100D01*
X119595900Y-69380100D02*
X121554240Y-69413120D01*
X142544800Y-76297800D02*
X142058400Y-76297800D01*
X98450400Y-70827900D02*
X100977700Y-70827900D01*
X100977700Y-70827900D02*
X103378000Y-68999100D01*
X91902280Y-81579720D02*
X92801440Y-79982060D01*
X92801440Y-79982060D02*
X92801440Y-72476360D01*
X91902280Y-81579720D02*
X90302080Y-81579720D01*
X98679000Y-70827900D02*
X98450400Y-70827900D01*
X98450400Y-70827900D02*
X94449900Y-70827900D01*
X94449900Y-70827900D02*
X92801440Y-72476360D01*
X124848620Y-74168000D02*
X124886720Y-74168000D01*
X124886720Y-74168000D02*
X125785880Y-75067160D01*
X129809240Y-76443840D02*
X127162560Y-76443840D01*
X108668820Y-68397120D02*
X107668060Y-67564000D01*
X107668060Y-67564000D02*
X102511860Y-67564000D01*
X102511860Y-67564000D02*
X100838000Y-68999100D01*
X119974360Y-68397120D02*
X122656600Y-68397120D01*
X124848620Y-71098656D02*
X122656600Y-68397120D01*
X119974360Y-68397120D02*
X108668820Y-68397120D01*
X124848620Y-74168000D02*
X124848620Y-71098656D01*
X127162560Y-76443840D02*
X125785880Y-75067160D01*
X129809240Y-78623160D02*
X129809240Y-76443840D01*
X129809240Y-76443840D02*
X129809240Y-76197460D01*
X129809240Y-76197460D02*
X130416300Y-75590400D01*
X129809240Y-78623160D02*
X129418080Y-78623160D01*
X100838000Y-68999100D02*
X100838000Y-68267580D01*
X100507800Y-65024000D02*
X100507800Y-66281300D01*
X126644400Y-67475100D02*
X127330200Y-66789300D01*
X109329220Y-67475100D02*
X126644400Y-67475100D01*
X108435140Y-66581020D02*
X109329220Y-67475100D01*
X100807520Y-66581020D02*
X108435140Y-66581020D01*
X100507800Y-66281300D02*
X100807520Y-66581020D01*
X100507800Y-65024000D02*
X100609400Y-65024000D01*
X100507800Y-65024000D02*
X100507800Y-65191640D01*
X100507800Y-65024000D02*
X100507800Y-65151000D01*
X131368800Y-64516000D02*
X130479800Y-64516000D01*
X122224800Y-65532000D02*
X117652800Y-65532000D01*
X123748800Y-64008000D02*
X122224800Y-65532000D01*
X126415800Y-64008000D02*
X123748800Y-64008000D01*
X127558800Y-65151000D02*
X126415800Y-64008000D01*
X129844800Y-65151000D02*
X127558800Y-65151000D01*
X130479800Y-64516000D02*
X129844800Y-65151000D01*
X131368800Y-64516000D02*
X131922520Y-64516000D01*
X108242100Y-72809100D02*
X108242100Y-73139300D01*
X137429240Y-78623160D02*
X133497320Y-78623160D01*
X133497320Y-78623160D02*
X132956300Y-78082140D01*
X132956300Y-75590400D02*
X132956300Y-78082140D01*
X132956300Y-78082140D02*
X132956300Y-79728060D01*
X132956300Y-79728060D02*
X130733800Y-81950560D01*
X110286800Y-65278000D02*
X110286800Y-63258700D01*
X110286800Y-63258700D02*
X111785400Y-61760100D01*
X127330200Y-74409300D02*
X127330200Y-73596500D01*
X127330200Y-73596500D02*
X132956300Y-67970400D01*
X132956300Y-67970400D02*
X132671820Y-67970400D01*
X121716800Y-62077600D02*
X126136400Y-62077600D01*
X135496300Y-66103500D02*
X135496300Y-67970400D01*
X132511800Y-63119000D02*
X135496300Y-66103500D01*
X130860800Y-63119000D02*
X132511800Y-63119000D01*
X129971800Y-64008000D02*
X130860800Y-63119000D01*
X128066800Y-64008000D02*
X129971800Y-64008000D01*
X126136400Y-62077600D02*
X128066800Y-64008000D01*
X115286800Y-65278000D02*
X115286800Y-63834000D01*
X117360700Y-61760100D02*
X119405400Y-61760100D01*
X115286800Y-63834000D02*
X117360700Y-61760100D01*
X135496300Y-67970400D02*
X135430260Y-67970400D01*
X119405400Y-61760100D02*
X121399300Y-61760100D01*
X121399300Y-61760100D02*
X121716800Y-62077600D01*
D42*
G36*
X91075726Y-52455854D02*
X91076480Y-52459778D01*
X91075700Y-52463700D01*
X91075700Y-52711667D01*
X90846523Y-52616504D01*
X90149335Y-52615896D01*
X89504985Y-52882136D01*
X89011569Y-53374692D01*
X88744204Y-54018577D01*
X88743596Y-54715765D01*
X89009836Y-55360115D01*
X89502392Y-55853531D01*
X90146277Y-56120896D01*
X90767970Y-56121438D01*
X89113108Y-57776300D01*
X88468200Y-57776300D01*
X88460255Y-57777880D01*
X88452288Y-57776405D01*
X76935928Y-57928805D01*
X76885906Y-57939445D01*
X76835014Y-57934388D01*
X75664075Y-58048688D01*
X75468600Y-58107800D01*
X75270345Y-58156767D01*
X75245044Y-58175403D01*
X75214967Y-58184498D01*
X75056995Y-58313913D01*
X74892569Y-58435022D01*
X74876326Y-58461920D01*
X74852018Y-58481834D01*
X74755590Y-58661862D01*
X74650033Y-58836666D01*
X74645320Y-58867731D01*
X74630483Y-58895432D01*
X74610289Y-59098657D01*
X74579661Y-59300551D01*
X74880263Y-65859832D01*
X74286370Y-65741700D01*
X74202030Y-65741700D01*
X73378304Y-65905549D01*
X72679983Y-66372153D01*
X72213379Y-67070474D01*
X72049530Y-67894200D01*
X72213379Y-68717926D01*
X72679983Y-69416247D01*
X73378304Y-69882851D01*
X74202030Y-70046700D01*
X74286370Y-70046700D01*
X75065042Y-69891813D01*
X75073700Y-70080734D01*
X75073700Y-71173194D01*
X74654008Y-70752769D01*
X74010123Y-70485404D01*
X73312935Y-70484796D01*
X72668585Y-70751036D01*
X72175169Y-71243592D01*
X71907804Y-71887477D01*
X71907453Y-72289555D01*
X71793704Y-72403304D01*
X71533035Y-72793423D01*
X71441500Y-73253600D01*
X71441500Y-76412548D01*
X71249354Y-76693764D01*
X71172840Y-77071600D01*
X71172840Y-78071600D01*
X71239257Y-78424575D01*
X71447865Y-78748762D01*
X71766164Y-78966246D01*
X72037376Y-79021168D01*
X73673304Y-80657096D01*
X74063423Y-80917765D01*
X74523600Y-81009300D01*
X81673900Y-81009300D01*
X81673900Y-90953600D01*
X81765435Y-91413777D01*
X82026104Y-91803896D01*
X84867214Y-94645006D01*
X84815500Y-94904989D01*
X84815500Y-94985411D01*
X84971737Y-95770869D01*
X85416663Y-96436748D01*
X85896818Y-96757577D01*
X86017704Y-96938496D01*
X88332500Y-99253292D01*
X88332500Y-100567853D01*
X87968000Y-100494040D01*
X85768000Y-100494040D01*
X85415025Y-100560457D01*
X85090838Y-100769065D01*
X84873354Y-101087364D01*
X84817597Y-101362700D01*
X80035400Y-101362700D01*
X79575223Y-101454235D01*
X79188144Y-101712872D01*
X78143100Y-101504999D01*
X77013228Y-101729746D01*
X76055367Y-102369767D01*
X75647300Y-102777834D01*
X75647300Y-98625783D01*
X77323345Y-98625783D01*
X77466987Y-98908870D01*
X78265210Y-99019068D01*
X78819213Y-98908870D01*
X78962855Y-98625783D01*
X78143100Y-97806028D01*
X77323345Y-98625783D01*
X75647300Y-98625783D01*
X75647300Y-97079610D01*
X76081532Y-97079610D01*
X76191730Y-97633613D01*
X76474817Y-97777255D01*
X77294572Y-96957500D01*
X78991628Y-96957500D01*
X79811383Y-97777255D01*
X80094470Y-97633613D01*
X80204668Y-96835390D01*
X80094470Y-96281387D01*
X79811383Y-96137745D01*
X78991628Y-96957500D01*
X77294572Y-96957500D01*
X76474817Y-96137745D01*
X76191730Y-96281387D01*
X76081532Y-97079610D01*
X75647300Y-97079610D01*
X75647300Y-95289217D01*
X77323345Y-95289217D01*
X78143100Y-96108972D01*
X78962855Y-95289217D01*
X78819213Y-95006130D01*
X78020990Y-94895932D01*
X77466987Y-95006130D01*
X77323345Y-95289217D01*
X75647300Y-95289217D01*
X75647300Y-95215666D01*
X77156266Y-93706700D01*
X78181200Y-93706700D01*
X79311073Y-93481954D01*
X80268933Y-92841933D01*
X80908954Y-91884073D01*
X81133700Y-90754200D01*
X80908954Y-89624327D01*
X80268933Y-88666467D01*
X79311073Y-88026446D01*
X78181200Y-87801700D01*
X75933305Y-87801700D01*
X75933300Y-87801699D01*
X75042130Y-87978965D01*
X74803427Y-88026446D01*
X73871665Y-88649029D01*
X73845567Y-88666467D01*
X70607067Y-91904967D01*
X69967046Y-92862827D01*
X69742300Y-93992700D01*
X69742300Y-107238800D01*
X69744180Y-107248251D01*
X69742361Y-107257712D01*
X69756848Y-109519247D01*
X69157575Y-109050089D01*
X68849000Y-109129866D01*
X68849000Y-110297200D01*
X69401500Y-110297200D01*
X69401500Y-111597200D01*
X68849000Y-111597200D01*
X68849000Y-112764534D01*
X69157575Y-112844311D01*
X69775050Y-112360903D01*
X69795417Y-115540343D01*
X69795451Y-115545672D01*
X69785201Y-115530329D01*
X69132175Y-115019089D01*
X68823600Y-115098866D01*
X68823600Y-116266200D01*
X69376100Y-116266200D01*
X69376100Y-117566200D01*
X68823600Y-117566200D01*
X68823600Y-118733534D01*
X69132175Y-118813311D01*
X69785201Y-118302071D01*
X69812843Y-118260696D01*
X69833893Y-121546811D01*
X69785201Y-121473929D01*
X69132175Y-120962689D01*
X68823600Y-121042466D01*
X68823600Y-122209800D01*
X69376100Y-122209800D01*
X69376100Y-123509800D01*
X68823600Y-123509800D01*
X68823600Y-124677134D01*
X68994593Y-124721341D01*
X67763434Y-125952500D01*
X64595966Y-125952500D01*
X62461835Y-123818369D01*
X66276525Y-123818369D01*
X66561999Y-124245671D01*
X67215025Y-124756911D01*
X67523600Y-124677134D01*
X67523600Y-123509800D01*
X66367903Y-123509800D01*
X66276525Y-123818369D01*
X62461835Y-123818369D01*
X62261500Y-123618034D01*
X62261500Y-121901231D01*
X66276525Y-121901231D01*
X66367903Y-122209800D01*
X67523600Y-122209800D01*
X67523600Y-121042466D01*
X67215025Y-120962689D01*
X66561999Y-121473929D01*
X66276525Y-121901231D01*
X62261500Y-121901231D01*
X62261500Y-117874769D01*
X66276525Y-117874769D01*
X66561999Y-118302071D01*
X67215025Y-118813311D01*
X67523600Y-118733534D01*
X67523600Y-117566200D01*
X66367903Y-117566200D01*
X66276525Y-117874769D01*
X62261500Y-117874769D01*
X62261500Y-115957631D01*
X66276525Y-115957631D01*
X66367903Y-116266200D01*
X67523600Y-116266200D01*
X67523600Y-115098866D01*
X67215025Y-115019089D01*
X66561999Y-115530329D01*
X66276525Y-115957631D01*
X62261500Y-115957631D01*
X62261500Y-111905769D01*
X66301925Y-111905769D01*
X66587399Y-112333071D01*
X67240425Y-112844311D01*
X67549000Y-112764534D01*
X67549000Y-111597200D01*
X66393303Y-111597200D01*
X66301925Y-111905769D01*
X62261500Y-111905769D01*
X62261500Y-109988631D01*
X66301925Y-109988631D01*
X66393303Y-110297200D01*
X67549000Y-110297200D01*
X67549000Y-109129866D01*
X67240425Y-109050089D01*
X66587399Y-109561329D01*
X66301925Y-109988631D01*
X62261500Y-109988631D01*
X62261500Y-103402000D01*
X62984640Y-103402000D01*
X62984640Y-106402000D01*
X63051057Y-106754975D01*
X63259665Y-107079162D01*
X63577964Y-107296646D01*
X63955800Y-107373160D01*
X66955800Y-107373160D01*
X67308775Y-107306743D01*
X67632962Y-107098135D01*
X67850446Y-106779836D01*
X67926960Y-106402000D01*
X67926960Y-103402000D01*
X67860543Y-103049025D01*
X67651935Y-102724838D01*
X67333636Y-102507354D01*
X66955800Y-102430840D01*
X63955800Y-102430840D01*
X63602825Y-102497257D01*
X63278638Y-102705865D01*
X63061154Y-103024164D01*
X62984640Y-103402000D01*
X62261500Y-103402000D01*
X62261500Y-100307692D01*
X63002876Y-100307692D01*
X63375460Y-101209415D01*
X64064757Y-101899916D01*
X64965827Y-102274073D01*
X65941492Y-102274924D01*
X66843215Y-101902340D01*
X67533716Y-101213043D01*
X67907873Y-100311973D01*
X67908724Y-99336308D01*
X67536140Y-98434585D01*
X66846843Y-97744084D01*
X65945773Y-97369927D01*
X64970108Y-97369076D01*
X64068385Y-97741660D01*
X63377884Y-98430957D01*
X63003727Y-99332027D01*
X63002876Y-100307692D01*
X62261500Y-100307692D01*
X62261500Y-95227692D01*
X63002876Y-95227692D01*
X63375460Y-96129415D01*
X64064757Y-96819916D01*
X64965827Y-97194073D01*
X65941492Y-97194924D01*
X66843215Y-96822340D01*
X67533716Y-96133043D01*
X67907873Y-95231973D01*
X67908724Y-94256308D01*
X67536140Y-93354585D01*
X66846843Y-92664084D01*
X65945773Y-92289927D01*
X64970108Y-92289076D01*
X64068385Y-92661660D01*
X63377884Y-93350957D01*
X63003727Y-94252027D01*
X63002876Y-95227692D01*
X62261500Y-95227692D01*
X62261500Y-89223569D01*
X66606725Y-89223569D01*
X66892199Y-89650871D01*
X67545225Y-90162111D01*
X67853800Y-90082334D01*
X67853800Y-88915000D01*
X69153800Y-88915000D01*
X69153800Y-90082334D01*
X69462375Y-90162111D01*
X70115401Y-89650871D01*
X70400875Y-89223569D01*
X70309497Y-88915000D01*
X69153800Y-88915000D01*
X67853800Y-88915000D01*
X66698103Y-88915000D01*
X66606725Y-89223569D01*
X62261500Y-89223569D01*
X62261500Y-87306431D01*
X66606725Y-87306431D01*
X66698103Y-87615000D01*
X67853800Y-87615000D01*
X67853800Y-86447666D01*
X69153800Y-86447666D01*
X69153800Y-87615000D01*
X70309497Y-87615000D01*
X70400875Y-87306431D01*
X70115401Y-86879129D01*
X69462375Y-86367889D01*
X69153800Y-86447666D01*
X67853800Y-86447666D01*
X67545225Y-86367889D01*
X66892199Y-86879129D01*
X66606725Y-87306431D01*
X62261500Y-87306431D01*
X62261500Y-84922483D01*
X77361445Y-84922483D01*
X77505087Y-85205570D01*
X78303310Y-85315768D01*
X78857313Y-85205570D01*
X79000955Y-84922483D01*
X78181200Y-84102728D01*
X77361445Y-84922483D01*
X62261500Y-84922483D01*
X62261500Y-83254569D01*
X66479725Y-83254569D01*
X66765199Y-83681871D01*
X67418225Y-84193111D01*
X67726800Y-84113334D01*
X67726800Y-82946000D01*
X69026800Y-82946000D01*
X69026800Y-84113334D01*
X69335375Y-84193111D01*
X69988401Y-83681871D01*
X70192541Y-83376310D01*
X76119632Y-83376310D01*
X76229830Y-83930313D01*
X76512917Y-84073955D01*
X77332672Y-83254200D01*
X79029728Y-83254200D01*
X79849483Y-84073955D01*
X80132570Y-83930313D01*
X80242768Y-83132090D01*
X80132570Y-82578087D01*
X79849483Y-82434445D01*
X79029728Y-83254200D01*
X77332672Y-83254200D01*
X76512917Y-82434445D01*
X76229830Y-82578087D01*
X76119632Y-83376310D01*
X70192541Y-83376310D01*
X70273875Y-83254569D01*
X70182497Y-82946000D01*
X69026800Y-82946000D01*
X67726800Y-82946000D01*
X66571103Y-82946000D01*
X66479725Y-83254569D01*
X62261500Y-83254569D01*
X62261500Y-81337431D01*
X66479725Y-81337431D01*
X66571103Y-81646000D01*
X67726800Y-81646000D01*
X67726800Y-80478666D01*
X69026800Y-80478666D01*
X69026800Y-81646000D01*
X70182497Y-81646000D01*
X70200289Y-81585917D01*
X77361445Y-81585917D01*
X78181200Y-82405672D01*
X79000955Y-81585917D01*
X78857313Y-81302830D01*
X78059090Y-81192632D01*
X77505087Y-81302830D01*
X77361445Y-81585917D01*
X70200289Y-81585917D01*
X70273875Y-81337431D01*
X69988401Y-80910129D01*
X69335375Y-80398889D01*
X69026800Y-80478666D01*
X67726800Y-80478666D01*
X67418225Y-80398889D01*
X66765199Y-80910129D01*
X66479725Y-81337431D01*
X62261500Y-81337431D01*
X62261500Y-77310969D01*
X66454325Y-77310969D01*
X66739799Y-77738271D01*
X67392825Y-78249511D01*
X67701400Y-78169734D01*
X67701400Y-77002400D01*
X69001400Y-77002400D01*
X69001400Y-78169734D01*
X69309975Y-78249511D01*
X69963001Y-77738271D01*
X70248475Y-77310969D01*
X70157097Y-77002400D01*
X69001400Y-77002400D01*
X67701400Y-77002400D01*
X66545703Y-77002400D01*
X66454325Y-77310969D01*
X62261500Y-77310969D01*
X62261500Y-76406966D01*
X63274635Y-75393831D01*
X66454325Y-75393831D01*
X66545703Y-75702400D01*
X67701400Y-75702400D01*
X67701400Y-74535066D01*
X69001400Y-74535066D01*
X69001400Y-75702400D01*
X70157097Y-75702400D01*
X70248475Y-75393831D01*
X69963001Y-74966529D01*
X69309975Y-74455289D01*
X69001400Y-74535066D01*
X67701400Y-74535066D01*
X67392825Y-74455289D01*
X66739799Y-74966529D01*
X66454325Y-75393831D01*
X63274635Y-75393831D01*
X65053166Y-73615300D01*
X68300600Y-73615300D01*
X69430473Y-73390554D01*
X70388333Y-72750533D01*
X71028354Y-71792673D01*
X71253100Y-70662800D01*
X71253100Y-64923094D01*
X71278500Y-64795400D01*
X71278500Y-62082533D01*
X71465292Y-62269325D01*
X71768698Y-62395000D01*
X72126525Y-62395000D01*
X72332900Y-62188625D01*
X72332900Y-61169500D01*
X73132900Y-61169500D01*
X73132900Y-62188625D01*
X73339275Y-62395000D01*
X73697102Y-62395000D01*
X74000508Y-62269325D01*
X74232725Y-62037108D01*
X74358400Y-61733702D01*
X74358400Y-61375875D01*
X74152025Y-61169500D01*
X73132900Y-61169500D01*
X72332900Y-61169500D01*
X71932900Y-61169500D01*
X71932900Y-60369500D01*
X72332900Y-60369500D01*
X72332900Y-59350375D01*
X73132900Y-59350375D01*
X73132900Y-60369500D01*
X74152025Y-60369500D01*
X74358400Y-60163125D01*
X74358400Y-59805298D01*
X74232725Y-59501892D01*
X74000508Y-59269675D01*
X73697102Y-59144000D01*
X73339275Y-59144000D01*
X73132900Y-59350375D01*
X72332900Y-59350375D01*
X72126525Y-59144000D01*
X71768698Y-59144000D01*
X71465292Y-59269675D01*
X71278500Y-59456467D01*
X71278500Y-59030294D01*
X71303900Y-58902600D01*
X71079154Y-57772728D01*
X70439133Y-56814867D01*
X69481272Y-56174846D01*
X68351400Y-55950100D01*
X67221527Y-56174846D01*
X66263667Y-56814867D01*
X66238267Y-56840267D01*
X65598246Y-57798127D01*
X65373500Y-58928000D01*
X65373500Y-64693106D01*
X65348100Y-64820800D01*
X65348100Y-67710300D01*
X63830200Y-67710300D01*
X62700327Y-67935046D01*
X61742467Y-68575067D01*
X57221267Y-73096267D01*
X56581246Y-74054127D01*
X56356500Y-75184000D01*
X56356500Y-124841000D01*
X56581246Y-125970873D01*
X57075351Y-126710354D01*
X57221267Y-126928733D01*
X61285267Y-130992733D01*
X62243127Y-131632754D01*
X63373000Y-131857500D01*
X65170300Y-131857500D01*
X65170300Y-134465517D01*
X65094100Y-134848600D01*
X65094100Y-138865100D01*
X64287400Y-138865100D01*
X63540210Y-139013725D01*
X62906774Y-139436974D01*
X61079374Y-141264374D01*
X60906214Y-141523526D01*
X60714797Y-141769487D01*
X60695829Y-141838388D01*
X60656125Y-141897810D01*
X60595321Y-142203493D01*
X60512598Y-142503991D01*
X60396868Y-144102285D01*
X59726293Y-143968900D01*
X59653707Y-143968900D01*
X58944786Y-144109913D01*
X58343792Y-144511485D01*
X57942220Y-145112479D01*
X57801207Y-145821400D01*
X57942220Y-146530321D01*
X58343792Y-147131315D01*
X58944786Y-147532887D01*
X59653707Y-147673900D01*
X59726293Y-147673900D01*
X60435214Y-147532887D01*
X60906515Y-147217973D01*
X61354486Y-147566603D01*
X62088991Y-147768801D01*
X62844962Y-147674527D01*
X63245023Y-147447182D01*
X63474391Y-147603902D01*
X63553531Y-148469629D01*
X63615459Y-148679054D01*
X63658065Y-148893247D01*
X63695256Y-148948907D01*
X63701788Y-148971000D01*
X55140489Y-148971000D01*
X55891900Y-148219589D01*
X55618622Y-147946311D01*
X55806283Y-147783039D01*
X55892324Y-146649515D01*
X55806283Y-146216961D01*
X55492705Y-145944136D01*
X54436841Y-147000000D01*
X54568717Y-147131876D01*
X53131876Y-148568717D01*
X53000000Y-148436841D01*
X52868125Y-148568717D01*
X51431284Y-147131876D01*
X51563159Y-147000000D01*
X51431284Y-146868125D01*
X52868125Y-145431284D01*
X53000000Y-145563159D01*
X54055864Y-144507295D01*
X53783039Y-144193717D01*
X52649515Y-144107676D01*
X52216961Y-144193717D01*
X52053689Y-144381378D01*
X51780411Y-144108100D01*
X51168300Y-144720211D01*
X51168300Y-142408243D01*
X51169713Y-142410358D01*
X51900477Y-142898639D01*
X52762471Y-143070100D01*
X52850729Y-143070100D01*
X53712723Y-142898639D01*
X54443487Y-142410358D01*
X54931768Y-141679594D01*
X55103229Y-140817600D01*
X54931768Y-139955606D01*
X54443487Y-139224842D01*
X53712723Y-138736561D01*
X52850729Y-138565100D01*
X52762471Y-138565100D01*
X51900477Y-138736561D01*
X51169713Y-139224842D01*
X51168300Y-139226957D01*
X51168300Y-136439243D01*
X51169713Y-136441358D01*
X51900477Y-136929639D01*
X52762471Y-137101100D01*
X52850729Y-137101100D01*
X53712723Y-136929639D01*
X54443487Y-136441358D01*
X54931768Y-135710594D01*
X55103229Y-134848600D01*
X54931768Y-133986606D01*
X54443487Y-133255842D01*
X53712723Y-132767561D01*
X52850729Y-132596100D01*
X52762471Y-132596100D01*
X51900477Y-132767561D01*
X51169713Y-133255842D01*
X51168300Y-133257957D01*
X51168300Y-130381602D01*
X51245913Y-130497758D01*
X51976677Y-130986039D01*
X52838671Y-131157500D01*
X52926929Y-131157500D01*
X53788923Y-130986039D01*
X54519687Y-130497758D01*
X55007968Y-129766994D01*
X55179429Y-128905000D01*
X55007968Y-128043006D01*
X54519687Y-127312242D01*
X53788923Y-126823961D01*
X52926929Y-126652500D01*
X52838671Y-126652500D01*
X51976677Y-126823961D01*
X51245913Y-127312242D01*
X51168300Y-127428398D01*
X51168300Y-124994684D01*
X51255764Y-125054446D01*
X51633600Y-125130960D01*
X54233600Y-125130960D01*
X54586575Y-125064543D01*
X54910762Y-124855935D01*
X55128246Y-124537636D01*
X55204760Y-124159800D01*
X55204760Y-121559800D01*
X55138343Y-121206825D01*
X54929735Y-120882638D01*
X54611436Y-120665154D01*
X54233600Y-120588640D01*
X51633600Y-120588640D01*
X51280625Y-120655057D01*
X51168300Y-120727336D01*
X51168300Y-119051084D01*
X51255764Y-119110846D01*
X51633600Y-119187360D01*
X54233600Y-119187360D01*
X54586575Y-119120943D01*
X54910762Y-118912335D01*
X55128246Y-118594036D01*
X55204760Y-118216200D01*
X55204760Y-115616200D01*
X55138343Y-115263225D01*
X54929735Y-114939038D01*
X54611436Y-114721554D01*
X54233600Y-114645040D01*
X51633600Y-114645040D01*
X51280625Y-114711457D01*
X51168300Y-114783736D01*
X51168300Y-113064729D01*
X51281164Y-113141846D01*
X51659000Y-113218360D01*
X54259000Y-113218360D01*
X54611975Y-113151943D01*
X54936162Y-112943335D01*
X55153646Y-112625036D01*
X55230160Y-112247200D01*
X55230160Y-109647200D01*
X55163743Y-109294225D01*
X54955135Y-108970038D01*
X54636836Y-108752554D01*
X54259000Y-108676040D01*
X51659000Y-108676040D01*
X51306025Y-108742457D01*
X51168300Y-108831080D01*
X51168300Y-90087744D01*
X51267665Y-90242162D01*
X51585964Y-90459646D01*
X51963800Y-90536160D01*
X54563800Y-90536160D01*
X54916775Y-90469743D01*
X55240962Y-90261135D01*
X55458446Y-89942836D01*
X55534960Y-89565000D01*
X55534960Y-86965000D01*
X55468543Y-86612025D01*
X55259935Y-86287838D01*
X54941636Y-86070354D01*
X54563800Y-85993840D01*
X51963800Y-85993840D01*
X51610825Y-86060257D01*
X51286638Y-86268865D01*
X51168300Y-86442059D01*
X51168300Y-84292044D01*
X51458964Y-84490646D01*
X51836800Y-84567160D01*
X54436800Y-84567160D01*
X54789775Y-84500743D01*
X55113962Y-84292135D01*
X55331446Y-83973836D01*
X55407960Y-83596000D01*
X55407960Y-80996000D01*
X55341543Y-80643025D01*
X55132935Y-80318838D01*
X54814636Y-80101354D01*
X54436800Y-80024840D01*
X51836800Y-80024840D01*
X51483825Y-80091257D01*
X51168300Y-80294291D01*
X51168300Y-78365799D01*
X51433564Y-78547046D01*
X51811400Y-78623560D01*
X54411400Y-78623560D01*
X54764375Y-78557143D01*
X55088562Y-78348535D01*
X55306046Y-78030236D01*
X55382560Y-77652400D01*
X55382560Y-75052400D01*
X55316143Y-74699425D01*
X55107535Y-74375238D01*
X54789236Y-74157754D01*
X54411400Y-74081240D01*
X51811400Y-74081240D01*
X51458425Y-74147657D01*
X51168300Y-74334347D01*
X51168300Y-71873305D01*
X51423713Y-72255558D01*
X52154477Y-72743839D01*
X53016471Y-72915300D01*
X53104729Y-72915300D01*
X53966723Y-72743839D01*
X54697487Y-72255558D01*
X55185768Y-71524794D01*
X55357229Y-70662800D01*
X55185768Y-69800806D01*
X54697487Y-69070042D01*
X53966723Y-68581761D01*
X53104729Y-68410300D01*
X53016471Y-68410300D01*
X52154477Y-68581761D01*
X51423713Y-69070042D01*
X51168300Y-69452295D01*
X51168300Y-65967892D01*
X51449113Y-66388158D01*
X52179877Y-66876439D01*
X53041871Y-67047900D01*
X53130129Y-67047900D01*
X53992123Y-66876439D01*
X54722887Y-66388158D01*
X55211168Y-65657394D01*
X55382629Y-64795400D01*
X55211168Y-63933406D01*
X54722887Y-63202642D01*
X53992123Y-62714361D01*
X53130129Y-62542900D01*
X53041871Y-62542900D01*
X52179877Y-62714361D01*
X51449113Y-63202642D01*
X51168300Y-63622908D01*
X51168300Y-60037078D01*
X51474513Y-60495358D01*
X52205277Y-60983639D01*
X53067271Y-61155100D01*
X53155529Y-61155100D01*
X54017523Y-60983639D01*
X54748287Y-60495358D01*
X55236568Y-59764594D01*
X55408029Y-58902600D01*
X55236568Y-58040606D01*
X54748287Y-57309842D01*
X54017523Y-56821561D01*
X53155529Y-56650100D01*
X53067271Y-56650100D01*
X52205277Y-56821561D01*
X51474513Y-57309842D01*
X51168300Y-57768122D01*
X51168300Y-55389509D01*
X51307209Y-55528661D01*
X52403742Y-55983981D01*
X53591049Y-55985017D01*
X54688375Y-55531611D01*
X55528661Y-54692791D01*
X55850099Y-53918680D01*
X67151027Y-53918680D01*
X67478035Y-54710100D01*
X68083015Y-55316137D01*
X68873863Y-55644526D01*
X69730180Y-55645273D01*
X70521600Y-55318265D01*
X71127637Y-54713285D01*
X71456026Y-53922437D01*
X71456401Y-53492400D01*
X79809230Y-53492400D01*
X79973079Y-54316126D01*
X80439683Y-55014447D01*
X81138004Y-55481051D01*
X81961730Y-55644900D01*
X82046070Y-55644900D01*
X82869796Y-55481051D01*
X83568117Y-55014447D01*
X83725240Y-54779296D01*
X83725240Y-55168700D01*
X83791657Y-55521675D01*
X84000265Y-55845862D01*
X84318564Y-56063346D01*
X84696400Y-56139860D01*
X86296400Y-56139860D01*
X86649375Y-56073443D01*
X86973562Y-55864835D01*
X87191046Y-55546536D01*
X87267560Y-55168700D01*
X87267560Y-53568700D01*
X87201143Y-53215725D01*
X86992535Y-52891538D01*
X86674236Y-52674054D01*
X86296400Y-52597540D01*
X84696400Y-52597540D01*
X84343425Y-52663957D01*
X84068918Y-52840597D01*
X84034721Y-52668674D01*
X83568117Y-51970353D01*
X82869796Y-51503749D01*
X82046070Y-51339900D01*
X81961730Y-51339900D01*
X81138004Y-51503749D01*
X80439683Y-51970353D01*
X79973079Y-52668674D01*
X79809230Y-53492400D01*
X71456401Y-53492400D01*
X71456773Y-53066120D01*
X71129765Y-52274700D01*
X70524785Y-51668663D01*
X69733937Y-51340274D01*
X68877620Y-51339527D01*
X68086200Y-51666535D01*
X67480163Y-52271515D01*
X67151774Y-53062363D01*
X67151027Y-53918680D01*
X55850099Y-53918680D01*
X55983981Y-53596258D01*
X55985017Y-52408951D01*
X55531611Y-51311625D01*
X55247982Y-51027500D01*
X91085046Y-51027500D01*
X91075726Y-52455854D01*
X91075726Y-52455854D01*
G37*
X91075726Y-52455854D02*
X91076480Y-52459778D01*
X91075700Y-52463700D01*
X91075700Y-52711667D01*
X90846523Y-52616504D01*
X90149335Y-52615896D01*
X89504985Y-52882136D01*
X89011569Y-53374692D01*
X88744204Y-54018577D01*
X88743596Y-54715765D01*
X89009836Y-55360115D01*
X89502392Y-55853531D01*
X90146277Y-56120896D01*
X90767970Y-56121438D01*
X89113108Y-57776300D01*
X88468200Y-57776300D01*
X88460255Y-57777880D01*
X88452288Y-57776405D01*
X76935928Y-57928805D01*
X76885906Y-57939445D01*
X76835014Y-57934388D01*
X75664075Y-58048688D01*
X75468600Y-58107800D01*
X75270345Y-58156767D01*
X75245044Y-58175403D01*
X75214967Y-58184498D01*
X75056995Y-58313913D01*
X74892569Y-58435022D01*
X74876326Y-58461920D01*
X74852018Y-58481834D01*
X74755590Y-58661862D01*
X74650033Y-58836666D01*
X74645320Y-58867731D01*
X74630483Y-58895432D01*
X74610289Y-59098657D01*
X74579661Y-59300551D01*
X74880263Y-65859832D01*
X74286370Y-65741700D01*
X74202030Y-65741700D01*
X73378304Y-65905549D01*
X72679983Y-66372153D01*
X72213379Y-67070474D01*
X72049530Y-67894200D01*
X72213379Y-68717926D01*
X72679983Y-69416247D01*
X73378304Y-69882851D01*
X74202030Y-70046700D01*
X74286370Y-70046700D01*
X75065042Y-69891813D01*
X75073700Y-70080734D01*
X75073700Y-71173194D01*
X74654008Y-70752769D01*
X74010123Y-70485404D01*
X73312935Y-70484796D01*
X72668585Y-70751036D01*
X72175169Y-71243592D01*
X71907804Y-71887477D01*
X71907453Y-72289555D01*
X71793704Y-72403304D01*
X71533035Y-72793423D01*
X71441500Y-73253600D01*
X71441500Y-76412548D01*
X71249354Y-76693764D01*
X71172840Y-77071600D01*
X71172840Y-78071600D01*
X71239257Y-78424575D01*
X71447865Y-78748762D01*
X71766164Y-78966246D01*
X72037376Y-79021168D01*
X73673304Y-80657096D01*
X74063423Y-80917765D01*
X74523600Y-81009300D01*
X81673900Y-81009300D01*
X81673900Y-90953600D01*
X81765435Y-91413777D01*
X82026104Y-91803896D01*
X84867214Y-94645006D01*
X84815500Y-94904989D01*
X84815500Y-94985411D01*
X84971737Y-95770869D01*
X85416663Y-96436748D01*
X85896818Y-96757577D01*
X86017704Y-96938496D01*
X88332500Y-99253292D01*
X88332500Y-100567853D01*
X87968000Y-100494040D01*
X85768000Y-100494040D01*
X85415025Y-100560457D01*
X85090838Y-100769065D01*
X84873354Y-101087364D01*
X84817597Y-101362700D01*
X80035400Y-101362700D01*
X79575223Y-101454235D01*
X79188144Y-101712872D01*
X78143100Y-101504999D01*
X77013228Y-101729746D01*
X76055367Y-102369767D01*
X75647300Y-102777834D01*
X75647300Y-98625783D01*
X77323345Y-98625783D01*
X77466987Y-98908870D01*
X78265210Y-99019068D01*
X78819213Y-98908870D01*
X78962855Y-98625783D01*
X78143100Y-97806028D01*
X77323345Y-98625783D01*
X75647300Y-98625783D01*
X75647300Y-97079610D01*
X76081532Y-97079610D01*
X76191730Y-97633613D01*
X76474817Y-97777255D01*
X77294572Y-96957500D01*
X78991628Y-96957500D01*
X79811383Y-97777255D01*
X80094470Y-97633613D01*
X80204668Y-96835390D01*
X80094470Y-96281387D01*
X79811383Y-96137745D01*
X78991628Y-96957500D01*
X77294572Y-96957500D01*
X76474817Y-96137745D01*
X76191730Y-96281387D01*
X76081532Y-97079610D01*
X75647300Y-97079610D01*
X75647300Y-95289217D01*
X77323345Y-95289217D01*
X78143100Y-96108972D01*
X78962855Y-95289217D01*
X78819213Y-95006130D01*
X78020990Y-94895932D01*
X77466987Y-95006130D01*
X77323345Y-95289217D01*
X75647300Y-95289217D01*
X75647300Y-95215666D01*
X77156266Y-93706700D01*
X78181200Y-93706700D01*
X79311073Y-93481954D01*
X80268933Y-92841933D01*
X80908954Y-91884073D01*
X81133700Y-90754200D01*
X80908954Y-89624327D01*
X80268933Y-88666467D01*
X79311073Y-88026446D01*
X78181200Y-87801700D01*
X75933305Y-87801700D01*
X75933300Y-87801699D01*
X75042130Y-87978965D01*
X74803427Y-88026446D01*
X73871665Y-88649029D01*
X73845567Y-88666467D01*
X70607067Y-91904967D01*
X69967046Y-92862827D01*
X69742300Y-93992700D01*
X69742300Y-107238800D01*
X69744180Y-107248251D01*
X69742361Y-107257712D01*
X69756848Y-109519247D01*
X69157575Y-109050089D01*
X68849000Y-109129866D01*
X68849000Y-110297200D01*
X69401500Y-110297200D01*
X69401500Y-111597200D01*
X68849000Y-111597200D01*
X68849000Y-112764534D01*
X69157575Y-112844311D01*
X69775050Y-112360903D01*
X69795417Y-115540343D01*
X69795451Y-115545672D01*
X69785201Y-115530329D01*
X69132175Y-115019089D01*
X68823600Y-115098866D01*
X68823600Y-116266200D01*
X69376100Y-116266200D01*
X69376100Y-117566200D01*
X68823600Y-117566200D01*
X68823600Y-118733534D01*
X69132175Y-118813311D01*
X69785201Y-118302071D01*
X69812843Y-118260696D01*
X69833893Y-121546811D01*
X69785201Y-121473929D01*
X69132175Y-120962689D01*
X68823600Y-121042466D01*
X68823600Y-122209800D01*
X69376100Y-122209800D01*
X69376100Y-123509800D01*
X68823600Y-123509800D01*
X68823600Y-124677134D01*
X68994593Y-124721341D01*
X67763434Y-125952500D01*
X64595966Y-125952500D01*
X62461835Y-123818369D01*
X66276525Y-123818369D01*
X66561999Y-124245671D01*
X67215025Y-124756911D01*
X67523600Y-124677134D01*
X67523600Y-123509800D01*
X66367903Y-123509800D01*
X66276525Y-123818369D01*
X62461835Y-123818369D01*
X62261500Y-123618034D01*
X62261500Y-121901231D01*
X66276525Y-121901231D01*
X66367903Y-122209800D01*
X67523600Y-122209800D01*
X67523600Y-121042466D01*
X67215025Y-120962689D01*
X66561999Y-121473929D01*
X66276525Y-121901231D01*
X62261500Y-121901231D01*
X62261500Y-117874769D01*
X66276525Y-117874769D01*
X66561999Y-118302071D01*
X67215025Y-118813311D01*
X67523600Y-118733534D01*
X67523600Y-117566200D01*
X66367903Y-117566200D01*
X66276525Y-117874769D01*
X62261500Y-117874769D01*
X62261500Y-115957631D01*
X66276525Y-115957631D01*
X66367903Y-116266200D01*
X67523600Y-116266200D01*
X67523600Y-115098866D01*
X67215025Y-115019089D01*
X66561999Y-115530329D01*
X66276525Y-115957631D01*
X62261500Y-115957631D01*
X62261500Y-111905769D01*
X66301925Y-111905769D01*
X66587399Y-112333071D01*
X67240425Y-112844311D01*
X67549000Y-112764534D01*
X67549000Y-111597200D01*
X66393303Y-111597200D01*
X66301925Y-111905769D01*
X62261500Y-111905769D01*
X62261500Y-109988631D01*
X66301925Y-109988631D01*
X66393303Y-110297200D01*
X67549000Y-110297200D01*
X67549000Y-109129866D01*
X67240425Y-109050089D01*
X66587399Y-109561329D01*
X66301925Y-109988631D01*
X62261500Y-109988631D01*
X62261500Y-103402000D01*
X62984640Y-103402000D01*
X62984640Y-106402000D01*
X63051057Y-106754975D01*
X63259665Y-107079162D01*
X63577964Y-107296646D01*
X63955800Y-107373160D01*
X66955800Y-107373160D01*
X67308775Y-107306743D01*
X67632962Y-107098135D01*
X67850446Y-106779836D01*
X67926960Y-106402000D01*
X67926960Y-103402000D01*
X67860543Y-103049025D01*
X67651935Y-102724838D01*
X67333636Y-102507354D01*
X66955800Y-102430840D01*
X63955800Y-102430840D01*
X63602825Y-102497257D01*
X63278638Y-102705865D01*
X63061154Y-103024164D01*
X62984640Y-103402000D01*
X62261500Y-103402000D01*
X62261500Y-100307692D01*
X63002876Y-100307692D01*
X63375460Y-101209415D01*
X64064757Y-101899916D01*
X64965827Y-102274073D01*
X65941492Y-102274924D01*
X66843215Y-101902340D01*
X67533716Y-101213043D01*
X67907873Y-100311973D01*
X67908724Y-99336308D01*
X67536140Y-98434585D01*
X66846843Y-97744084D01*
X65945773Y-97369927D01*
X64970108Y-97369076D01*
X64068385Y-97741660D01*
X63377884Y-98430957D01*
X63003727Y-99332027D01*
X63002876Y-100307692D01*
X62261500Y-100307692D01*
X62261500Y-95227692D01*
X63002876Y-95227692D01*
X63375460Y-96129415D01*
X64064757Y-96819916D01*
X64965827Y-97194073D01*
X65941492Y-97194924D01*
X66843215Y-96822340D01*
X67533716Y-96133043D01*
X67907873Y-95231973D01*
X67908724Y-94256308D01*
X67536140Y-93354585D01*
X66846843Y-92664084D01*
X65945773Y-92289927D01*
X64970108Y-92289076D01*
X64068385Y-92661660D01*
X63377884Y-93350957D01*
X63003727Y-94252027D01*
X63002876Y-95227692D01*
X62261500Y-95227692D01*
X62261500Y-89223569D01*
X66606725Y-89223569D01*
X66892199Y-89650871D01*
X67545225Y-90162111D01*
X67853800Y-90082334D01*
X67853800Y-88915000D01*
X69153800Y-88915000D01*
X69153800Y-90082334D01*
X69462375Y-90162111D01*
X70115401Y-89650871D01*
X70400875Y-89223569D01*
X70309497Y-88915000D01*
X69153800Y-88915000D01*
X67853800Y-88915000D01*
X66698103Y-88915000D01*
X66606725Y-89223569D01*
X62261500Y-89223569D01*
X62261500Y-87306431D01*
X66606725Y-87306431D01*
X66698103Y-87615000D01*
X67853800Y-87615000D01*
X67853800Y-86447666D01*
X69153800Y-86447666D01*
X69153800Y-87615000D01*
X70309497Y-87615000D01*
X70400875Y-87306431D01*
X70115401Y-86879129D01*
X69462375Y-86367889D01*
X69153800Y-86447666D01*
X67853800Y-86447666D01*
X67545225Y-86367889D01*
X66892199Y-86879129D01*
X66606725Y-87306431D01*
X62261500Y-87306431D01*
X62261500Y-84922483D01*
X77361445Y-84922483D01*
X77505087Y-85205570D01*
X78303310Y-85315768D01*
X78857313Y-85205570D01*
X79000955Y-84922483D01*
X78181200Y-84102728D01*
X77361445Y-84922483D01*
X62261500Y-84922483D01*
X62261500Y-83254569D01*
X66479725Y-83254569D01*
X66765199Y-83681871D01*
X67418225Y-84193111D01*
X67726800Y-84113334D01*
X67726800Y-82946000D01*
X69026800Y-82946000D01*
X69026800Y-84113334D01*
X69335375Y-84193111D01*
X69988401Y-83681871D01*
X70192541Y-83376310D01*
X76119632Y-83376310D01*
X76229830Y-83930313D01*
X76512917Y-84073955D01*
X77332672Y-83254200D01*
X79029728Y-83254200D01*
X79849483Y-84073955D01*
X80132570Y-83930313D01*
X80242768Y-83132090D01*
X80132570Y-82578087D01*
X79849483Y-82434445D01*
X79029728Y-83254200D01*
X77332672Y-83254200D01*
X76512917Y-82434445D01*
X76229830Y-82578087D01*
X76119632Y-83376310D01*
X70192541Y-83376310D01*
X70273875Y-83254569D01*
X70182497Y-82946000D01*
X69026800Y-82946000D01*
X67726800Y-82946000D01*
X66571103Y-82946000D01*
X66479725Y-83254569D01*
X62261500Y-83254569D01*
X62261500Y-81337431D01*
X66479725Y-81337431D01*
X66571103Y-81646000D01*
X67726800Y-81646000D01*
X67726800Y-80478666D01*
X69026800Y-80478666D01*
X69026800Y-81646000D01*
X70182497Y-81646000D01*
X70200289Y-81585917D01*
X77361445Y-81585917D01*
X78181200Y-82405672D01*
X79000955Y-81585917D01*
X78857313Y-81302830D01*
X78059090Y-81192632D01*
X77505087Y-81302830D01*
X77361445Y-81585917D01*
X70200289Y-81585917D01*
X70273875Y-81337431D01*
X69988401Y-80910129D01*
X69335375Y-80398889D01*
X69026800Y-80478666D01*
X67726800Y-80478666D01*
X67418225Y-80398889D01*
X66765199Y-80910129D01*
X66479725Y-81337431D01*
X62261500Y-81337431D01*
X62261500Y-77310969D01*
X66454325Y-77310969D01*
X66739799Y-77738271D01*
X67392825Y-78249511D01*
X67701400Y-78169734D01*
X67701400Y-77002400D01*
X69001400Y-77002400D01*
X69001400Y-78169734D01*
X69309975Y-78249511D01*
X69963001Y-77738271D01*
X70248475Y-77310969D01*
X70157097Y-77002400D01*
X69001400Y-77002400D01*
X67701400Y-77002400D01*
X66545703Y-77002400D01*
X66454325Y-77310969D01*
X62261500Y-77310969D01*
X62261500Y-76406966D01*
X63274635Y-75393831D01*
X66454325Y-75393831D01*
X66545703Y-75702400D01*
X67701400Y-75702400D01*
X67701400Y-74535066D01*
X69001400Y-74535066D01*
X69001400Y-75702400D01*
X70157097Y-75702400D01*
X70248475Y-75393831D01*
X69963001Y-74966529D01*
X69309975Y-74455289D01*
X69001400Y-74535066D01*
X67701400Y-74535066D01*
X67392825Y-74455289D01*
X66739799Y-74966529D01*
X66454325Y-75393831D01*
X63274635Y-75393831D01*
X65053166Y-73615300D01*
X68300600Y-73615300D01*
X69430473Y-73390554D01*
X70388333Y-72750533D01*
X71028354Y-71792673D01*
X71253100Y-70662800D01*
X71253100Y-64923094D01*
X71278500Y-64795400D01*
X71278500Y-62082533D01*
X71465292Y-62269325D01*
X71768698Y-62395000D01*
X72126525Y-62395000D01*
X72332900Y-62188625D01*
X72332900Y-61169500D01*
X73132900Y-61169500D01*
X73132900Y-62188625D01*
X73339275Y-62395000D01*
X73697102Y-62395000D01*
X74000508Y-62269325D01*
X74232725Y-62037108D01*
X74358400Y-61733702D01*
X74358400Y-61375875D01*
X74152025Y-61169500D01*
X73132900Y-61169500D01*
X72332900Y-61169500D01*
X71932900Y-61169500D01*
X71932900Y-60369500D01*
X72332900Y-60369500D01*
X72332900Y-59350375D01*
X73132900Y-59350375D01*
X73132900Y-60369500D01*
X74152025Y-60369500D01*
X74358400Y-60163125D01*
X74358400Y-59805298D01*
X74232725Y-59501892D01*
X74000508Y-59269675D01*
X73697102Y-59144000D01*
X73339275Y-59144000D01*
X73132900Y-59350375D01*
X72332900Y-59350375D01*
X72126525Y-59144000D01*
X71768698Y-59144000D01*
X71465292Y-59269675D01*
X71278500Y-59456467D01*
X71278500Y-59030294D01*
X71303900Y-58902600D01*
X71079154Y-57772728D01*
X70439133Y-56814867D01*
X69481272Y-56174846D01*
X68351400Y-55950100D01*
X67221527Y-56174846D01*
X66263667Y-56814867D01*
X66238267Y-56840267D01*
X65598246Y-57798127D01*
X65373500Y-58928000D01*
X65373500Y-64693106D01*
X65348100Y-64820800D01*
X65348100Y-67710300D01*
X63830200Y-67710300D01*
X62700327Y-67935046D01*
X61742467Y-68575067D01*
X57221267Y-73096267D01*
X56581246Y-74054127D01*
X56356500Y-75184000D01*
X56356500Y-124841000D01*
X56581246Y-125970873D01*
X57075351Y-126710354D01*
X57221267Y-126928733D01*
X61285267Y-130992733D01*
X62243127Y-131632754D01*
X63373000Y-131857500D01*
X65170300Y-131857500D01*
X65170300Y-134465517D01*
X65094100Y-134848600D01*
X65094100Y-138865100D01*
X64287400Y-138865100D01*
X63540210Y-139013725D01*
X62906774Y-139436974D01*
X61079374Y-141264374D01*
X60906214Y-141523526D01*
X60714797Y-141769487D01*
X60695829Y-141838388D01*
X60656125Y-141897810D01*
X60595321Y-142203493D01*
X60512598Y-142503991D01*
X60396868Y-144102285D01*
X59726293Y-143968900D01*
X59653707Y-143968900D01*
X58944786Y-144109913D01*
X58343792Y-144511485D01*
X57942220Y-145112479D01*
X57801207Y-145821400D01*
X57942220Y-146530321D01*
X58343792Y-147131315D01*
X58944786Y-147532887D01*
X59653707Y-147673900D01*
X59726293Y-147673900D01*
X60435214Y-147532887D01*
X60906515Y-147217973D01*
X61354486Y-147566603D01*
X62088991Y-147768801D01*
X62844962Y-147674527D01*
X63245023Y-147447182D01*
X63474391Y-147603902D01*
X63553531Y-148469629D01*
X63615459Y-148679054D01*
X63658065Y-148893247D01*
X63695256Y-148948907D01*
X63701788Y-148971000D01*
X55140489Y-148971000D01*
X55891900Y-148219589D01*
X55618622Y-147946311D01*
X55806283Y-147783039D01*
X55892324Y-146649515D01*
X55806283Y-146216961D01*
X55492705Y-145944136D01*
X54436841Y-147000000D01*
X54568717Y-147131876D01*
X53131876Y-148568717D01*
X53000000Y-148436841D01*
X52868125Y-148568717D01*
X51431284Y-147131876D01*
X51563159Y-147000000D01*
X51431284Y-146868125D01*
X52868125Y-145431284D01*
X53000000Y-145563159D01*
X54055864Y-144507295D01*
X53783039Y-144193717D01*
X52649515Y-144107676D01*
X52216961Y-144193717D01*
X52053689Y-144381378D01*
X51780411Y-144108100D01*
X51168300Y-144720211D01*
X51168300Y-142408243D01*
X51169713Y-142410358D01*
X51900477Y-142898639D01*
X52762471Y-143070100D01*
X52850729Y-143070100D01*
X53712723Y-142898639D01*
X54443487Y-142410358D01*
X54931768Y-141679594D01*
X55103229Y-140817600D01*
X54931768Y-139955606D01*
X54443487Y-139224842D01*
X53712723Y-138736561D01*
X52850729Y-138565100D01*
X52762471Y-138565100D01*
X51900477Y-138736561D01*
X51169713Y-139224842D01*
X51168300Y-139226957D01*
X51168300Y-136439243D01*
X51169713Y-136441358D01*
X51900477Y-136929639D01*
X52762471Y-137101100D01*
X52850729Y-137101100D01*
X53712723Y-136929639D01*
X54443487Y-136441358D01*
X54931768Y-135710594D01*
X55103229Y-134848600D01*
X54931768Y-133986606D01*
X54443487Y-133255842D01*
X53712723Y-132767561D01*
X52850729Y-132596100D01*
X52762471Y-132596100D01*
X51900477Y-132767561D01*
X51169713Y-133255842D01*
X51168300Y-133257957D01*
X51168300Y-130381602D01*
X51245913Y-130497758D01*
X51976677Y-130986039D01*
X52838671Y-131157500D01*
X52926929Y-131157500D01*
X53788923Y-130986039D01*
X54519687Y-130497758D01*
X55007968Y-129766994D01*
X55179429Y-128905000D01*
X55007968Y-128043006D01*
X54519687Y-127312242D01*
X53788923Y-126823961D01*
X52926929Y-126652500D01*
X52838671Y-126652500D01*
X51976677Y-126823961D01*
X51245913Y-127312242D01*
X51168300Y-127428398D01*
X51168300Y-124994684D01*
X51255764Y-125054446D01*
X51633600Y-125130960D01*
X54233600Y-125130960D01*
X54586575Y-125064543D01*
X54910762Y-124855935D01*
X55128246Y-124537636D01*
X55204760Y-124159800D01*
X55204760Y-121559800D01*
X55138343Y-121206825D01*
X54929735Y-120882638D01*
X54611436Y-120665154D01*
X54233600Y-120588640D01*
X51633600Y-120588640D01*
X51280625Y-120655057D01*
X51168300Y-120727336D01*
X51168300Y-119051084D01*
X51255764Y-119110846D01*
X51633600Y-119187360D01*
X54233600Y-119187360D01*
X54586575Y-119120943D01*
X54910762Y-118912335D01*
X55128246Y-118594036D01*
X55204760Y-118216200D01*
X55204760Y-115616200D01*
X55138343Y-115263225D01*
X54929735Y-114939038D01*
X54611436Y-114721554D01*
X54233600Y-114645040D01*
X51633600Y-114645040D01*
X51280625Y-114711457D01*
X51168300Y-114783736D01*
X51168300Y-113064729D01*
X51281164Y-113141846D01*
X51659000Y-113218360D01*
X54259000Y-113218360D01*
X54611975Y-113151943D01*
X54936162Y-112943335D01*
X55153646Y-112625036D01*
X55230160Y-112247200D01*
X55230160Y-109647200D01*
X55163743Y-109294225D01*
X54955135Y-108970038D01*
X54636836Y-108752554D01*
X54259000Y-108676040D01*
X51659000Y-108676040D01*
X51306025Y-108742457D01*
X51168300Y-108831080D01*
X51168300Y-90087744D01*
X51267665Y-90242162D01*
X51585964Y-90459646D01*
X51963800Y-90536160D01*
X54563800Y-90536160D01*
X54916775Y-90469743D01*
X55240962Y-90261135D01*
X55458446Y-89942836D01*
X55534960Y-89565000D01*
X55534960Y-86965000D01*
X55468543Y-86612025D01*
X55259935Y-86287838D01*
X54941636Y-86070354D01*
X54563800Y-85993840D01*
X51963800Y-85993840D01*
X51610825Y-86060257D01*
X51286638Y-86268865D01*
X51168300Y-86442059D01*
X51168300Y-84292044D01*
X51458964Y-84490646D01*
X51836800Y-84567160D01*
X54436800Y-84567160D01*
X54789775Y-84500743D01*
X55113962Y-84292135D01*
X55331446Y-83973836D01*
X55407960Y-83596000D01*
X55407960Y-80996000D01*
X55341543Y-80643025D01*
X55132935Y-80318838D01*
X54814636Y-80101354D01*
X54436800Y-80024840D01*
X51836800Y-80024840D01*
X51483825Y-80091257D01*
X51168300Y-80294291D01*
X51168300Y-78365799D01*
X51433564Y-78547046D01*
X51811400Y-78623560D01*
X54411400Y-78623560D01*
X54764375Y-78557143D01*
X55088562Y-78348535D01*
X55306046Y-78030236D01*
X55382560Y-77652400D01*
X55382560Y-75052400D01*
X55316143Y-74699425D01*
X55107535Y-74375238D01*
X54789236Y-74157754D01*
X54411400Y-74081240D01*
X51811400Y-74081240D01*
X51458425Y-74147657D01*
X51168300Y-74334347D01*
X51168300Y-71873305D01*
X51423713Y-72255558D01*
X52154477Y-72743839D01*
X53016471Y-72915300D01*
X53104729Y-72915300D01*
X53966723Y-72743839D01*
X54697487Y-72255558D01*
X55185768Y-71524794D01*
X55357229Y-70662800D01*
X55185768Y-69800806D01*
X54697487Y-69070042D01*
X53966723Y-68581761D01*
X53104729Y-68410300D01*
X53016471Y-68410300D01*
X52154477Y-68581761D01*
X51423713Y-69070042D01*
X51168300Y-69452295D01*
X51168300Y-65967892D01*
X51449113Y-66388158D01*
X52179877Y-66876439D01*
X53041871Y-67047900D01*
X53130129Y-67047900D01*
X53992123Y-66876439D01*
X54722887Y-66388158D01*
X55211168Y-65657394D01*
X55382629Y-64795400D01*
X55211168Y-63933406D01*
X54722887Y-63202642D01*
X53992123Y-62714361D01*
X53130129Y-62542900D01*
X53041871Y-62542900D01*
X52179877Y-62714361D01*
X51449113Y-63202642D01*
X51168300Y-63622908D01*
X51168300Y-60037078D01*
X51474513Y-60495358D01*
X52205277Y-60983639D01*
X53067271Y-61155100D01*
X53155529Y-61155100D01*
X54017523Y-60983639D01*
X54748287Y-60495358D01*
X55236568Y-59764594D01*
X55408029Y-58902600D01*
X55236568Y-58040606D01*
X54748287Y-57309842D01*
X54017523Y-56821561D01*
X53155529Y-56650100D01*
X53067271Y-56650100D01*
X52205277Y-56821561D01*
X51474513Y-57309842D01*
X51168300Y-57768122D01*
X51168300Y-55389509D01*
X51307209Y-55528661D01*
X52403742Y-55983981D01*
X53591049Y-55985017D01*
X54688375Y-55531611D01*
X55528661Y-54692791D01*
X55850099Y-53918680D01*
X67151027Y-53918680D01*
X67478035Y-54710100D01*
X68083015Y-55316137D01*
X68873863Y-55644526D01*
X69730180Y-55645273D01*
X70521600Y-55318265D01*
X71127637Y-54713285D01*
X71456026Y-53922437D01*
X71456401Y-53492400D01*
X79809230Y-53492400D01*
X79973079Y-54316126D01*
X80439683Y-55014447D01*
X81138004Y-55481051D01*
X81961730Y-55644900D01*
X82046070Y-55644900D01*
X82869796Y-55481051D01*
X83568117Y-55014447D01*
X83725240Y-54779296D01*
X83725240Y-55168700D01*
X83791657Y-55521675D01*
X84000265Y-55845862D01*
X84318564Y-56063346D01*
X84696400Y-56139860D01*
X86296400Y-56139860D01*
X86649375Y-56073443D01*
X86973562Y-55864835D01*
X87191046Y-55546536D01*
X87267560Y-55168700D01*
X87267560Y-53568700D01*
X87201143Y-53215725D01*
X86992535Y-52891538D01*
X86674236Y-52674054D01*
X86296400Y-52597540D01*
X84696400Y-52597540D01*
X84343425Y-52663957D01*
X84068918Y-52840597D01*
X84034721Y-52668674D01*
X83568117Y-51970353D01*
X82869796Y-51503749D01*
X82046070Y-51339900D01*
X81961730Y-51339900D01*
X81138004Y-51503749D01*
X80439683Y-51970353D01*
X79973079Y-52668674D01*
X79809230Y-53492400D01*
X71456401Y-53492400D01*
X71456773Y-53066120D01*
X71129765Y-52274700D01*
X70524785Y-51668663D01*
X69733937Y-51340274D01*
X68877620Y-51339527D01*
X68086200Y-51666535D01*
X67480163Y-52271515D01*
X67151774Y-53062363D01*
X67151027Y-53918680D01*
X55850099Y-53918680D01*
X55983981Y-53596258D01*
X55985017Y-52408951D01*
X55531611Y-51311625D01*
X55247982Y-51027500D01*
X91085046Y-51027500D01*
X91075726Y-52455854D01*
G36*
X122585877Y-86207196D02*
X123244800Y-86207771D01*
X123244800Y-92189048D01*
X117033023Y-98400825D01*
X117214499Y-98129227D01*
X117347900Y-97458574D01*
X117347900Y-97389906D01*
X117214499Y-96719253D01*
X116834605Y-96150701D01*
X116266053Y-95770807D01*
X115595400Y-95637406D01*
X114924747Y-95770807D01*
X114356195Y-96150701D01*
X114033346Y-96633879D01*
X113669765Y-96089741D01*
X113101213Y-95709847D01*
X112430560Y-95576446D01*
X111759907Y-95709847D01*
X111191355Y-96089741D01*
X110811461Y-96658293D01*
X110712579Y-97155406D01*
X110619138Y-96685642D01*
X110351916Y-96604009D01*
X109648525Y-97307400D01*
X110351916Y-98010791D01*
X110619138Y-97929158D01*
X110699678Y-97506297D01*
X110811461Y-98068267D01*
X111191355Y-98636819D01*
X111759907Y-99016713D01*
X112430560Y-99150114D01*
X113101213Y-99016713D01*
X113669765Y-98636819D01*
X113992614Y-98153641D01*
X114356195Y-98697779D01*
X114367909Y-98705606D01*
X113981501Y-98963795D01*
X113601607Y-99532347D01*
X113468206Y-100203000D01*
X113601607Y-100873653D01*
X113981501Y-101442205D01*
X114550053Y-101822099D01*
X115220706Y-101955500D01*
X115289374Y-101955500D01*
X115726400Y-101868570D01*
X115726400Y-104415428D01*
X115655361Y-104462895D01*
X115557664Y-104609109D01*
X115512579Y-104541635D01*
X114944027Y-104161741D01*
X114273374Y-104028340D01*
X114204706Y-104028340D01*
X113534053Y-104161741D01*
X112965501Y-104541635D01*
X112585607Y-105110187D01*
X112452206Y-105780840D01*
X112482811Y-105934700D01*
X110835692Y-105934700D01*
X109523340Y-104622348D01*
X109523340Y-100888800D01*
X109431805Y-100428623D01*
X109387403Y-100362170D01*
X109387844Y-99855935D01*
X109121604Y-99211585D01*
X108986403Y-99076148D01*
X109098242Y-98964309D01*
X109704598Y-98843698D01*
X109786231Y-98576476D01*
X109082840Y-97873085D01*
X108799997Y-98155928D01*
X108234312Y-97590243D01*
X108517155Y-97307400D01*
X107813764Y-96604009D01*
X107546542Y-96685642D01*
X107432257Y-97285672D01*
X107079163Y-97638767D01*
X107891118Y-98450722D01*
X107287975Y-98450196D01*
X106643625Y-98716436D01*
X106150209Y-99208992D01*
X105882844Y-99852877D01*
X105882236Y-100550065D01*
X106148476Y-101194415D01*
X106641032Y-101687831D01*
X107118340Y-101886027D01*
X107118340Y-104090588D01*
X106969163Y-104028644D01*
X106271975Y-104028036D01*
X105627625Y-104294276D01*
X105134209Y-104786832D01*
X104866844Y-105430717D01*
X104866236Y-106127905D01*
X105132476Y-106772255D01*
X105625032Y-107265671D01*
X106268917Y-107533036D01*
X106966105Y-107533644D01*
X107610455Y-107267404D01*
X108103871Y-106774848D01*
X108153980Y-106654172D01*
X109487304Y-107987496D01*
X109877423Y-108248165D01*
X110337600Y-108339700D01*
X121732040Y-108339700D01*
X122192217Y-108248165D01*
X122582336Y-107987496D01*
X123468972Y-107100860D01*
X123554892Y-107186931D01*
X124198777Y-107454296D01*
X124895965Y-107454904D01*
X125540315Y-107188664D01*
X125824875Y-106904600D01*
X131680968Y-106904600D01*
X134336103Y-109559735D01*
X134254130Y-109971840D01*
X134417979Y-110795566D01*
X134884583Y-111493887D01*
X135582904Y-111960491D01*
X136390140Y-112121060D01*
X126919545Y-112121060D01*
X125897035Y-110411248D01*
X125900926Y-110401877D01*
X125901673Y-109545560D01*
X125574665Y-108754140D01*
X124969685Y-108148103D01*
X124178837Y-107819714D01*
X123322520Y-107818967D01*
X122531100Y-108145975D01*
X121925063Y-108750955D01*
X121596674Y-109541803D01*
X121595927Y-110398120D01*
X121922935Y-111189540D01*
X122527915Y-111795577D01*
X123318763Y-112123966D01*
X123536562Y-112124156D01*
X124849167Y-114319055D01*
X124969241Y-114451801D01*
X125068687Y-114600633D01*
X125157608Y-114660048D01*
X125229347Y-114739358D01*
X125391081Y-114816050D01*
X125539912Y-114915495D01*
X125644799Y-114936358D01*
X125741430Y-114982179D01*
X125920206Y-114991140D01*
X126095760Y-115026060D01*
X141595557Y-115026060D01*
X147391500Y-119578146D01*
X147391500Y-138082355D01*
X138929560Y-146544294D01*
X138929560Y-144896000D01*
X138863143Y-144543025D01*
X138654535Y-144218838D01*
X138336236Y-144001354D01*
X137958400Y-143924840D01*
X136397741Y-143924840D01*
X136331946Y-143643527D01*
X136263875Y-143301310D01*
X136245460Y-143273750D01*
X136237912Y-143241478D01*
X136034487Y-142958007D01*
X135840626Y-142667874D01*
X135501610Y-142328858D01*
X135569754Y-142226872D01*
X135794500Y-141097000D01*
X135569754Y-139967127D01*
X134929733Y-139009267D01*
X134650333Y-138729867D01*
X134475215Y-138612857D01*
X133692473Y-138089846D01*
X132562600Y-137865100D01*
X70999100Y-137865100D01*
X70999100Y-135605080D01*
X72954927Y-135605080D01*
X73281935Y-136396500D01*
X73886915Y-137002537D01*
X74677763Y-137330926D01*
X75534080Y-137331673D01*
X76325500Y-137004665D01*
X76931537Y-136399685D01*
X77259926Y-135608837D01*
X77260301Y-135178800D01*
X100853130Y-135178800D01*
X101016979Y-136002526D01*
X101483583Y-136700847D01*
X102181904Y-137167451D01*
X103005630Y-137331300D01*
X103089970Y-137331300D01*
X103913696Y-137167451D01*
X104536897Y-136751041D01*
X105179104Y-137180151D01*
X106002830Y-137344000D01*
X106087170Y-137344000D01*
X106910896Y-137180151D01*
X107609217Y-136713547D01*
X108075821Y-136015226D01*
X108154877Y-135617780D01*
X131832127Y-135617780D01*
X132159135Y-136409200D01*
X132764115Y-137015237D01*
X133554963Y-137343626D01*
X134411280Y-137344373D01*
X135202700Y-137017365D01*
X135808737Y-136412385D01*
X136137126Y-135621537D01*
X136137873Y-134765220D01*
X135810865Y-133973800D01*
X135520864Y-133683292D01*
X141920676Y-133683292D01*
X142293260Y-134585015D01*
X142982557Y-135275516D01*
X143883627Y-135649673D01*
X144859292Y-135650524D01*
X145761015Y-135277940D01*
X146451516Y-134588643D01*
X146825673Y-133687573D01*
X146826524Y-132711908D01*
X146453940Y-131810185D01*
X145764643Y-131119684D01*
X144863573Y-130745527D01*
X143887908Y-130744676D01*
X142986185Y-131117260D01*
X142295684Y-131806557D01*
X141921527Y-132707627D01*
X141920676Y-133683292D01*
X135520864Y-133683292D01*
X135205885Y-133367763D01*
X134415037Y-133039374D01*
X133558720Y-133038627D01*
X132767300Y-133365635D01*
X132161263Y-133970615D01*
X131832874Y-134761463D01*
X131832127Y-135617780D01*
X108154877Y-135617780D01*
X108239670Y-135191500D01*
X108075821Y-134367774D01*
X107609217Y-133669453D01*
X106910896Y-133202849D01*
X106087170Y-133039000D01*
X106002830Y-133039000D01*
X105179104Y-133202849D01*
X104555903Y-133619259D01*
X103913696Y-133190149D01*
X103089970Y-133026300D01*
X103005630Y-133026300D01*
X102181904Y-133190149D01*
X101483583Y-133656753D01*
X101016979Y-134355074D01*
X100853130Y-135178800D01*
X77260301Y-135178800D01*
X77260673Y-134752520D01*
X76933665Y-133961100D01*
X76328685Y-133355063D01*
X75537837Y-133026674D01*
X74681520Y-133025927D01*
X73890100Y-133352935D01*
X73284063Y-133957915D01*
X72955674Y-134748763D01*
X72954927Y-135605080D01*
X70999100Y-135605080D01*
X70999100Y-135155483D01*
X71075300Y-134772400D01*
X71075300Y-130991566D01*
X74402919Y-127663947D01*
X74402727Y-127883480D01*
X74729735Y-128674900D01*
X75334715Y-129280937D01*
X76125563Y-129609326D01*
X76981880Y-129610073D01*
X77773300Y-129283065D01*
X78379337Y-128678085D01*
X78707726Y-127887237D01*
X78708101Y-127457200D01*
X102300930Y-127457200D01*
X102464779Y-128280926D01*
X102931383Y-128979247D01*
X103629704Y-129445851D01*
X104453430Y-129609700D01*
X104537770Y-129609700D01*
X105361496Y-129445851D01*
X106059817Y-128979247D01*
X106142328Y-128855760D01*
X106258783Y-129030047D01*
X106957104Y-129496651D01*
X107780830Y-129660500D01*
X107865170Y-129660500D01*
X108688896Y-129496651D01*
X109387217Y-129030047D01*
X109853821Y-128331726D01*
X109932877Y-127934280D01*
X133610127Y-127934280D01*
X133937135Y-128725700D01*
X134542115Y-129331737D01*
X135332963Y-129660126D01*
X136189280Y-129660873D01*
X136980700Y-129333865D01*
X137586737Y-128728885D01*
X137915126Y-127938037D01*
X137915873Y-127081720D01*
X137724103Y-126617600D01*
X141902440Y-126617600D01*
X141902440Y-129617600D01*
X141968857Y-129970575D01*
X142177465Y-130294762D01*
X142495764Y-130512246D01*
X142873600Y-130588760D01*
X145873600Y-130588760D01*
X146226575Y-130522343D01*
X146550762Y-130313735D01*
X146768246Y-129995436D01*
X146844760Y-129617600D01*
X146844760Y-126617600D01*
X146778343Y-126264625D01*
X146569735Y-125940438D01*
X146251436Y-125722954D01*
X145873600Y-125646440D01*
X142873600Y-125646440D01*
X142520625Y-125712857D01*
X142196438Y-125921465D01*
X141978954Y-126239764D01*
X141902440Y-126617600D01*
X137724103Y-126617600D01*
X137588865Y-126290300D01*
X136983885Y-125684263D01*
X136193037Y-125355874D01*
X135336720Y-125355127D01*
X134545300Y-125682135D01*
X133939263Y-126287115D01*
X133610874Y-127077963D01*
X133610127Y-127934280D01*
X109932877Y-127934280D01*
X110017670Y-127508000D01*
X109853821Y-126684274D01*
X109387217Y-125985953D01*
X108688896Y-125519349D01*
X107865170Y-125355500D01*
X107780830Y-125355500D01*
X106957104Y-125519349D01*
X106258783Y-125985953D01*
X106176272Y-126109440D01*
X106059817Y-125935153D01*
X105361496Y-125468549D01*
X104537770Y-125304700D01*
X104453430Y-125304700D01*
X103629704Y-125468549D01*
X102931383Y-125935153D01*
X102464779Y-126633474D01*
X102300930Y-127457200D01*
X78708101Y-127457200D01*
X78708473Y-127030920D01*
X78381465Y-126239500D01*
X77776485Y-125633463D01*
X76985637Y-125305074D01*
X76129320Y-125304327D01*
X75680552Y-125489754D01*
X75761600Y-125082300D01*
X75759720Y-125072848D01*
X75761539Y-125063387D01*
X75736561Y-121164100D01*
X78333600Y-121164100D01*
X79377803Y-120956395D01*
X81890204Y-123468796D01*
X82280323Y-123729465D01*
X82740500Y-123821000D01*
X86163653Y-123821000D01*
X86445492Y-124103331D01*
X87089377Y-124370696D01*
X87786565Y-124371304D01*
X88430915Y-124105064D01*
X88924331Y-123612508D01*
X89191696Y-122968623D01*
X89192304Y-122271435D01*
X88926064Y-121627085D01*
X88433508Y-121133669D01*
X87789623Y-120866304D01*
X87092435Y-120865696D01*
X86448085Y-121131936D01*
X86163525Y-121416000D01*
X83238592Y-121416000D01*
X81078395Y-119255803D01*
X81286100Y-118211600D01*
X81061354Y-117081727D01*
X80870654Y-116796323D01*
X90391645Y-116796323D01*
X90535287Y-117079410D01*
X91333510Y-117189608D01*
X91887513Y-117079410D01*
X92031155Y-116796323D01*
X91211400Y-115976568D01*
X90391645Y-116796323D01*
X80870654Y-116796323D01*
X80421333Y-116123867D01*
X79697242Y-115640045D01*
X85945927Y-115640045D01*
X86305127Y-116162776D01*
X86797960Y-116492045D01*
X87039500Y-116360086D01*
X87039500Y-115398500D01*
X87839500Y-115398500D01*
X87839500Y-116360086D01*
X88081040Y-116492045D01*
X88573873Y-116162776D01*
X88933073Y-115640045D01*
X88808669Y-115398500D01*
X87839500Y-115398500D01*
X87039500Y-115398500D01*
X86070331Y-115398500D01*
X85945927Y-115640045D01*
X79697242Y-115640045D01*
X79463473Y-115483846D01*
X78333600Y-115259100D01*
X76660966Y-115259100D01*
X76652016Y-115250150D01*
X89149832Y-115250150D01*
X89260030Y-115804153D01*
X89543117Y-115947795D01*
X90362872Y-115128040D01*
X92059928Y-115128040D01*
X92879683Y-115947795D01*
X93162770Y-115804153D01*
X93256110Y-115128040D01*
X116956730Y-115128040D01*
X117120579Y-115951766D01*
X117587183Y-116650087D01*
X118285504Y-117116691D01*
X119109230Y-117280540D01*
X119193570Y-117280540D01*
X120017296Y-117116691D01*
X120715617Y-116650087D01*
X121182221Y-115951766D01*
X121346070Y-115128040D01*
X121182221Y-114304314D01*
X120715617Y-113605993D01*
X120017296Y-113139389D01*
X119193570Y-112975540D01*
X119109230Y-112975540D01*
X118285504Y-113139389D01*
X117587183Y-113605993D01*
X117120579Y-114304314D01*
X116956730Y-115128040D01*
X93256110Y-115128040D01*
X93272968Y-115005930D01*
X93162770Y-114451927D01*
X92879683Y-114308285D01*
X92059928Y-115128040D01*
X90362872Y-115128040D01*
X89543117Y-114308285D01*
X89260030Y-114451927D01*
X89149832Y-115250150D01*
X76652016Y-115250150D01*
X75758821Y-114356955D01*
X85945927Y-114356955D01*
X86070331Y-114598500D01*
X87039500Y-114598500D01*
X87039500Y-113636914D01*
X87839500Y-113636914D01*
X87839500Y-114598500D01*
X88808669Y-114598500D01*
X88933073Y-114356955D01*
X88573873Y-113834224D01*
X88081040Y-113504955D01*
X87839500Y-113636914D01*
X87039500Y-113636914D01*
X86797960Y-113504955D01*
X86305127Y-113834224D01*
X85945927Y-114356955D01*
X75758821Y-114356955D01*
X75692532Y-114290666D01*
X75687210Y-113459757D01*
X90391645Y-113459757D01*
X91211400Y-114279512D01*
X92031155Y-113459757D01*
X91887513Y-113176670D01*
X91089290Y-113066472D01*
X90535287Y-113176670D01*
X90391645Y-113459757D01*
X75687210Y-113459757D01*
X75680293Y-112379883D01*
X77513845Y-112379883D01*
X77657487Y-112662970D01*
X78455710Y-112773168D01*
X79009713Y-112662970D01*
X79153355Y-112379883D01*
X78333600Y-111560128D01*
X77513845Y-112379883D01*
X75680293Y-112379883D01*
X75663471Y-109753865D01*
X76336267Y-109646218D01*
X76576065Y-109557323D01*
X76041539Y-110091849D01*
X76334065Y-110384375D01*
X76272032Y-110833710D01*
X76382230Y-111387713D01*
X76665317Y-111531355D01*
X77485072Y-110711600D01*
X79182128Y-110711600D01*
X80001883Y-111531355D01*
X80284970Y-111387713D01*
X80395168Y-110589490D01*
X80284970Y-110035487D01*
X80001883Y-109891845D01*
X79182128Y-110711600D01*
X77485072Y-110711600D01*
X77060808Y-110287336D01*
X77909336Y-109438808D01*
X78333600Y-109863072D01*
X79153355Y-109043317D01*
X79009713Y-108760230D01*
X78211490Y-108650032D01*
X78104815Y-108671251D01*
X80230833Y-106545233D01*
X80870854Y-105587372D01*
X81095601Y-104457500D01*
X80958390Y-103767700D01*
X84816127Y-103767700D01*
X84863257Y-104018175D01*
X85071865Y-104342362D01*
X85390164Y-104559846D01*
X85768000Y-104636360D01*
X86423228Y-104636360D01*
X88501824Y-106714956D01*
X88891943Y-106975625D01*
X89352120Y-107067160D01*
X92011808Y-107067160D01*
X92011897Y-107067635D01*
X92220505Y-107391822D01*
X92538804Y-107609306D01*
X92916640Y-107685820D01*
X94616640Y-107685820D01*
X94969615Y-107619403D01*
X95293802Y-107410795D01*
X95322598Y-107368651D01*
X95616853Y-107565266D01*
X96306640Y-107702473D01*
X96996427Y-107565266D01*
X97581200Y-107174533D01*
X97971933Y-106589760D01*
X98109140Y-105899973D01*
X98109140Y-105829347D01*
X97971933Y-105139560D01*
X97581200Y-104554787D01*
X96996427Y-104164054D01*
X96306640Y-104026847D01*
X96192185Y-104049613D01*
X95229076Y-103086504D01*
X94838957Y-102825835D01*
X94378780Y-102734300D01*
X92476083Y-102734300D01*
X93081837Y-102329548D01*
X93526763Y-101663669D01*
X93543730Y-101578368D01*
X93699936Y-101956415D01*
X94192492Y-102449831D01*
X94836377Y-102717196D01*
X95533565Y-102717804D01*
X96177915Y-102451564D01*
X96671331Y-101959008D01*
X96938696Y-101315123D01*
X96939304Y-100617935D01*
X96673064Y-99973585D01*
X96180508Y-99480169D01*
X95536623Y-99212804D01*
X95134545Y-99212453D01*
X94484000Y-98561908D01*
X94484000Y-95178752D01*
X95659544Y-96354296D01*
X96049663Y-96614965D01*
X96509840Y-96706500D01*
X98151193Y-96706500D01*
X98365368Y-96921050D01*
X98979860Y-97176209D01*
X99645221Y-97176789D01*
X100260157Y-96922703D01*
X100584153Y-96599273D01*
X100905368Y-96921050D01*
X101519860Y-97176209D01*
X102185221Y-97176789D01*
X102800157Y-96922703D01*
X103124153Y-96599273D01*
X103445368Y-96921050D01*
X104059860Y-97176209D01*
X104725221Y-97176789D01*
X105340157Y-96922703D01*
X105811050Y-96452632D01*
X105983085Y-96038324D01*
X108379449Y-96038324D01*
X109082840Y-96741715D01*
X109786231Y-96038324D01*
X109704598Y-95771102D01*
X109069354Y-95650110D01*
X108461082Y-95771102D01*
X108379449Y-96038324D01*
X105983085Y-96038324D01*
X106066209Y-95838140D01*
X106066789Y-95172779D01*
X105812703Y-94557843D01*
X105342632Y-94086950D01*
X104901017Y-93903575D01*
X105615008Y-93189584D01*
X105629666Y-93192500D01*
X105698334Y-93192500D01*
X106368987Y-93059099D01*
X106937539Y-92679205D01*
X107317433Y-92110653D01*
X107450834Y-91440000D01*
X107317433Y-90769347D01*
X106937539Y-90200795D01*
X106368987Y-89820901D01*
X106208610Y-89789000D01*
X106368987Y-89757099D01*
X106937539Y-89377205D01*
X107317433Y-88808653D01*
X107450834Y-88138000D01*
X107442528Y-88096240D01*
X107472795Y-88141539D01*
X107861994Y-88401594D01*
X107843635Y-88413861D01*
X107463741Y-88982413D01*
X107330340Y-89653066D01*
X107330340Y-89721734D01*
X107463741Y-90392387D01*
X107843635Y-90960939D01*
X108412187Y-91340833D01*
X109082840Y-91474234D01*
X109753493Y-91340833D01*
X110322045Y-90960939D01*
X110701939Y-90392387D01*
X110734636Y-90228006D01*
X110943996Y-90734695D01*
X111436552Y-91228111D01*
X112080437Y-91495476D01*
X112777625Y-91496084D01*
X113421975Y-91229844D01*
X113915391Y-90737288D01*
X114000264Y-90532891D01*
X114108836Y-90795655D01*
X114601392Y-91289071D01*
X115245277Y-91556436D01*
X115942465Y-91557044D01*
X116586815Y-91290804D01*
X117080231Y-90798248D01*
X117347596Y-90154363D01*
X117348110Y-89565535D01*
X117386704Y-89623296D01*
X118047148Y-90283740D01*
X117923300Y-90334913D01*
X117514349Y-90743151D01*
X117292753Y-91276812D01*
X117292249Y-91854653D01*
X117512913Y-92388700D01*
X117921151Y-92797651D01*
X118454812Y-93019247D01*
X118689500Y-93019452D01*
X118689500Y-94019502D01*
X119030069Y-94019502D01*
X119047392Y-94036825D01*
X119350798Y-94162500D01*
X119558625Y-94162500D01*
X119765000Y-93956125D01*
X119765000Y-93087000D01*
X120265000Y-93087000D01*
X120265000Y-93956125D01*
X120471375Y-94162500D01*
X120679202Y-94162500D01*
X120982608Y-94036825D01*
X121214825Y-93804608D01*
X121340500Y-93501202D01*
X121340500Y-93293375D01*
X121134125Y-93087000D01*
X120265000Y-93087000D01*
X119765000Y-93087000D01*
X119515000Y-93087000D01*
X119515000Y-92820449D01*
X119566700Y-92799087D01*
X119975651Y-92390849D01*
X119998011Y-92337000D01*
X120265000Y-92337000D01*
X120265000Y-92587000D01*
X121134125Y-92587000D01*
X121340500Y-92380625D01*
X121340500Y-92172798D01*
X121214825Y-91869392D01*
X121197502Y-91852069D01*
X121197502Y-91511500D01*
X120854318Y-91511500D01*
X121245651Y-91120849D01*
X121467247Y-90587188D01*
X121467751Y-90009347D01*
X121247087Y-89475300D01*
X120838849Y-89066349D01*
X120436422Y-88899246D01*
X121000205Y-88522539D01*
X121380099Y-87953987D01*
X121513500Y-87283334D01*
X121513500Y-87214666D01*
X121510584Y-87200008D01*
X122084496Y-86626096D01*
X122345165Y-86235977D01*
X122368818Y-86117065D01*
X122585877Y-86207196D01*
X122585877Y-86207196D01*
G37*
X122585877Y-86207196D02*
X123244800Y-86207771D01*
X123244800Y-92189048D01*
X117033023Y-98400825D01*
X117214499Y-98129227D01*
X117347900Y-97458574D01*
X117347900Y-97389906D01*
X117214499Y-96719253D01*
X116834605Y-96150701D01*
X116266053Y-95770807D01*
X115595400Y-95637406D01*
X114924747Y-95770807D01*
X114356195Y-96150701D01*
X114033346Y-96633879D01*
X113669765Y-96089741D01*
X113101213Y-95709847D01*
X112430560Y-95576446D01*
X111759907Y-95709847D01*
X111191355Y-96089741D01*
X110811461Y-96658293D01*
X110712579Y-97155406D01*
X110619138Y-96685642D01*
X110351916Y-96604009D01*
X109648525Y-97307400D01*
X110351916Y-98010791D01*
X110619138Y-97929158D01*
X110699678Y-97506297D01*
X110811461Y-98068267D01*
X111191355Y-98636819D01*
X111759907Y-99016713D01*
X112430560Y-99150114D01*
X113101213Y-99016713D01*
X113669765Y-98636819D01*
X113992614Y-98153641D01*
X114356195Y-98697779D01*
X114367909Y-98705606D01*
X113981501Y-98963795D01*
X113601607Y-99532347D01*
X113468206Y-100203000D01*
X113601607Y-100873653D01*
X113981501Y-101442205D01*
X114550053Y-101822099D01*
X115220706Y-101955500D01*
X115289374Y-101955500D01*
X115726400Y-101868570D01*
X115726400Y-104415428D01*
X115655361Y-104462895D01*
X115557664Y-104609109D01*
X115512579Y-104541635D01*
X114944027Y-104161741D01*
X114273374Y-104028340D01*
X114204706Y-104028340D01*
X113534053Y-104161741D01*
X112965501Y-104541635D01*
X112585607Y-105110187D01*
X112452206Y-105780840D01*
X112482811Y-105934700D01*
X110835692Y-105934700D01*
X109523340Y-104622348D01*
X109523340Y-100888800D01*
X109431805Y-100428623D01*
X109387403Y-100362170D01*
X109387844Y-99855935D01*
X109121604Y-99211585D01*
X108986403Y-99076148D01*
X109098242Y-98964309D01*
X109704598Y-98843698D01*
X109786231Y-98576476D01*
X109082840Y-97873085D01*
X108799997Y-98155928D01*
X108234312Y-97590243D01*
X108517155Y-97307400D01*
X107813764Y-96604009D01*
X107546542Y-96685642D01*
X107432257Y-97285672D01*
X107079163Y-97638767D01*
X107891118Y-98450722D01*
X107287975Y-98450196D01*
X106643625Y-98716436D01*
X106150209Y-99208992D01*
X105882844Y-99852877D01*
X105882236Y-100550065D01*
X106148476Y-101194415D01*
X106641032Y-101687831D01*
X107118340Y-101886027D01*
X107118340Y-104090588D01*
X106969163Y-104028644D01*
X106271975Y-104028036D01*
X105627625Y-104294276D01*
X105134209Y-104786832D01*
X104866844Y-105430717D01*
X104866236Y-106127905D01*
X105132476Y-106772255D01*
X105625032Y-107265671D01*
X106268917Y-107533036D01*
X106966105Y-107533644D01*
X107610455Y-107267404D01*
X108103871Y-106774848D01*
X108153980Y-106654172D01*
X109487304Y-107987496D01*
X109877423Y-108248165D01*
X110337600Y-108339700D01*
X121732040Y-108339700D01*
X122192217Y-108248165D01*
X122582336Y-107987496D01*
X123468972Y-107100860D01*
X123554892Y-107186931D01*
X124198777Y-107454296D01*
X124895965Y-107454904D01*
X125540315Y-107188664D01*
X125824875Y-106904600D01*
X131680968Y-106904600D01*
X134336103Y-109559735D01*
X134254130Y-109971840D01*
X134417979Y-110795566D01*
X134884583Y-111493887D01*
X135582904Y-111960491D01*
X136390140Y-112121060D01*
X126919545Y-112121060D01*
X125897035Y-110411248D01*
X125900926Y-110401877D01*
X125901673Y-109545560D01*
X125574665Y-108754140D01*
X124969685Y-108148103D01*
X124178837Y-107819714D01*
X123322520Y-107818967D01*
X122531100Y-108145975D01*
X121925063Y-108750955D01*
X121596674Y-109541803D01*
X121595927Y-110398120D01*
X121922935Y-111189540D01*
X122527915Y-111795577D01*
X123318763Y-112123966D01*
X123536562Y-112124156D01*
X124849167Y-114319055D01*
X124969241Y-114451801D01*
X125068687Y-114600633D01*
X125157608Y-114660048D01*
X125229347Y-114739358D01*
X125391081Y-114816050D01*
X125539912Y-114915495D01*
X125644799Y-114936358D01*
X125741430Y-114982179D01*
X125920206Y-114991140D01*
X126095760Y-115026060D01*
X141595557Y-115026060D01*
X147391500Y-119578146D01*
X147391500Y-138082355D01*
X138929560Y-146544294D01*
X138929560Y-144896000D01*
X138863143Y-144543025D01*
X138654535Y-144218838D01*
X138336236Y-144001354D01*
X137958400Y-143924840D01*
X136397741Y-143924840D01*
X136331946Y-143643527D01*
X136263875Y-143301310D01*
X136245460Y-143273750D01*
X136237912Y-143241478D01*
X136034487Y-142958007D01*
X135840626Y-142667874D01*
X135501610Y-142328858D01*
X135569754Y-142226872D01*
X135794500Y-141097000D01*
X135569754Y-139967127D01*
X134929733Y-139009267D01*
X134650333Y-138729867D01*
X134475215Y-138612857D01*
X133692473Y-138089846D01*
X132562600Y-137865100D01*
X70999100Y-137865100D01*
X70999100Y-135605080D01*
X72954927Y-135605080D01*
X73281935Y-136396500D01*
X73886915Y-137002537D01*
X74677763Y-137330926D01*
X75534080Y-137331673D01*
X76325500Y-137004665D01*
X76931537Y-136399685D01*
X77259926Y-135608837D01*
X77260301Y-135178800D01*
X100853130Y-135178800D01*
X101016979Y-136002526D01*
X101483583Y-136700847D01*
X102181904Y-137167451D01*
X103005630Y-137331300D01*
X103089970Y-137331300D01*
X103913696Y-137167451D01*
X104536897Y-136751041D01*
X105179104Y-137180151D01*
X106002830Y-137344000D01*
X106087170Y-137344000D01*
X106910896Y-137180151D01*
X107609217Y-136713547D01*
X108075821Y-136015226D01*
X108154877Y-135617780D01*
X131832127Y-135617780D01*
X132159135Y-136409200D01*
X132764115Y-137015237D01*
X133554963Y-137343626D01*
X134411280Y-137344373D01*
X135202700Y-137017365D01*
X135808737Y-136412385D01*
X136137126Y-135621537D01*
X136137873Y-134765220D01*
X135810865Y-133973800D01*
X135520864Y-133683292D01*
X141920676Y-133683292D01*
X142293260Y-134585015D01*
X142982557Y-135275516D01*
X143883627Y-135649673D01*
X144859292Y-135650524D01*
X145761015Y-135277940D01*
X146451516Y-134588643D01*
X146825673Y-133687573D01*
X146826524Y-132711908D01*
X146453940Y-131810185D01*
X145764643Y-131119684D01*
X144863573Y-130745527D01*
X143887908Y-130744676D01*
X142986185Y-131117260D01*
X142295684Y-131806557D01*
X141921527Y-132707627D01*
X141920676Y-133683292D01*
X135520864Y-133683292D01*
X135205885Y-133367763D01*
X134415037Y-133039374D01*
X133558720Y-133038627D01*
X132767300Y-133365635D01*
X132161263Y-133970615D01*
X131832874Y-134761463D01*
X131832127Y-135617780D01*
X108154877Y-135617780D01*
X108239670Y-135191500D01*
X108075821Y-134367774D01*
X107609217Y-133669453D01*
X106910896Y-133202849D01*
X106087170Y-133039000D01*
X106002830Y-133039000D01*
X105179104Y-133202849D01*
X104555903Y-133619259D01*
X103913696Y-133190149D01*
X103089970Y-133026300D01*
X103005630Y-133026300D01*
X102181904Y-133190149D01*
X101483583Y-133656753D01*
X101016979Y-134355074D01*
X100853130Y-135178800D01*
X77260301Y-135178800D01*
X77260673Y-134752520D01*
X76933665Y-133961100D01*
X76328685Y-133355063D01*
X75537837Y-133026674D01*
X74681520Y-133025927D01*
X73890100Y-133352935D01*
X73284063Y-133957915D01*
X72955674Y-134748763D01*
X72954927Y-135605080D01*
X70999100Y-135605080D01*
X70999100Y-135155483D01*
X71075300Y-134772400D01*
X71075300Y-130991566D01*
X74402919Y-127663947D01*
X74402727Y-127883480D01*
X74729735Y-128674900D01*
X75334715Y-129280937D01*
X76125563Y-129609326D01*
X76981880Y-129610073D01*
X77773300Y-129283065D01*
X78379337Y-128678085D01*
X78707726Y-127887237D01*
X78708101Y-127457200D01*
X102300930Y-127457200D01*
X102464779Y-128280926D01*
X102931383Y-128979247D01*
X103629704Y-129445851D01*
X104453430Y-129609700D01*
X104537770Y-129609700D01*
X105361496Y-129445851D01*
X106059817Y-128979247D01*
X106142328Y-128855760D01*
X106258783Y-129030047D01*
X106957104Y-129496651D01*
X107780830Y-129660500D01*
X107865170Y-129660500D01*
X108688896Y-129496651D01*
X109387217Y-129030047D01*
X109853821Y-128331726D01*
X109932877Y-127934280D01*
X133610127Y-127934280D01*
X133937135Y-128725700D01*
X134542115Y-129331737D01*
X135332963Y-129660126D01*
X136189280Y-129660873D01*
X136980700Y-129333865D01*
X137586737Y-128728885D01*
X137915126Y-127938037D01*
X137915873Y-127081720D01*
X137724103Y-126617600D01*
X141902440Y-126617600D01*
X141902440Y-129617600D01*
X141968857Y-129970575D01*
X142177465Y-130294762D01*
X142495764Y-130512246D01*
X142873600Y-130588760D01*
X145873600Y-130588760D01*
X146226575Y-130522343D01*
X146550762Y-130313735D01*
X146768246Y-129995436D01*
X146844760Y-129617600D01*
X146844760Y-126617600D01*
X146778343Y-126264625D01*
X146569735Y-125940438D01*
X146251436Y-125722954D01*
X145873600Y-125646440D01*
X142873600Y-125646440D01*
X142520625Y-125712857D01*
X142196438Y-125921465D01*
X141978954Y-126239764D01*
X141902440Y-126617600D01*
X137724103Y-126617600D01*
X137588865Y-126290300D01*
X136983885Y-125684263D01*
X136193037Y-125355874D01*
X135336720Y-125355127D01*
X134545300Y-125682135D01*
X133939263Y-126287115D01*
X133610874Y-127077963D01*
X133610127Y-127934280D01*
X109932877Y-127934280D01*
X110017670Y-127508000D01*
X109853821Y-126684274D01*
X109387217Y-125985953D01*
X108688896Y-125519349D01*
X107865170Y-125355500D01*
X107780830Y-125355500D01*
X106957104Y-125519349D01*
X106258783Y-125985953D01*
X106176272Y-126109440D01*
X106059817Y-125935153D01*
X105361496Y-125468549D01*
X104537770Y-125304700D01*
X104453430Y-125304700D01*
X103629704Y-125468549D01*
X102931383Y-125935153D01*
X102464779Y-126633474D01*
X102300930Y-127457200D01*
X78708101Y-127457200D01*
X78708473Y-127030920D01*
X78381465Y-126239500D01*
X77776485Y-125633463D01*
X76985637Y-125305074D01*
X76129320Y-125304327D01*
X75680552Y-125489754D01*
X75761600Y-125082300D01*
X75759720Y-125072848D01*
X75761539Y-125063387D01*
X75736561Y-121164100D01*
X78333600Y-121164100D01*
X79377803Y-120956395D01*
X81890204Y-123468796D01*
X82280323Y-123729465D01*
X82740500Y-123821000D01*
X86163653Y-123821000D01*
X86445492Y-124103331D01*
X87089377Y-124370696D01*
X87786565Y-124371304D01*
X88430915Y-124105064D01*
X88924331Y-123612508D01*
X89191696Y-122968623D01*
X89192304Y-122271435D01*
X88926064Y-121627085D01*
X88433508Y-121133669D01*
X87789623Y-120866304D01*
X87092435Y-120865696D01*
X86448085Y-121131936D01*
X86163525Y-121416000D01*
X83238592Y-121416000D01*
X81078395Y-119255803D01*
X81286100Y-118211600D01*
X81061354Y-117081727D01*
X80870654Y-116796323D01*
X90391645Y-116796323D01*
X90535287Y-117079410D01*
X91333510Y-117189608D01*
X91887513Y-117079410D01*
X92031155Y-116796323D01*
X91211400Y-115976568D01*
X90391645Y-116796323D01*
X80870654Y-116796323D01*
X80421333Y-116123867D01*
X79697242Y-115640045D01*
X85945927Y-115640045D01*
X86305127Y-116162776D01*
X86797960Y-116492045D01*
X87039500Y-116360086D01*
X87039500Y-115398500D01*
X87839500Y-115398500D01*
X87839500Y-116360086D01*
X88081040Y-116492045D01*
X88573873Y-116162776D01*
X88933073Y-115640045D01*
X88808669Y-115398500D01*
X87839500Y-115398500D01*
X87039500Y-115398500D01*
X86070331Y-115398500D01*
X85945927Y-115640045D01*
X79697242Y-115640045D01*
X79463473Y-115483846D01*
X78333600Y-115259100D01*
X76660966Y-115259100D01*
X76652016Y-115250150D01*
X89149832Y-115250150D01*
X89260030Y-115804153D01*
X89543117Y-115947795D01*
X90362872Y-115128040D01*
X92059928Y-115128040D01*
X92879683Y-115947795D01*
X93162770Y-115804153D01*
X93256110Y-115128040D01*
X116956730Y-115128040D01*
X117120579Y-115951766D01*
X117587183Y-116650087D01*
X118285504Y-117116691D01*
X119109230Y-117280540D01*
X119193570Y-117280540D01*
X120017296Y-117116691D01*
X120715617Y-116650087D01*
X121182221Y-115951766D01*
X121346070Y-115128040D01*
X121182221Y-114304314D01*
X120715617Y-113605993D01*
X120017296Y-113139389D01*
X119193570Y-112975540D01*
X119109230Y-112975540D01*
X118285504Y-113139389D01*
X117587183Y-113605993D01*
X117120579Y-114304314D01*
X116956730Y-115128040D01*
X93256110Y-115128040D01*
X93272968Y-115005930D01*
X93162770Y-114451927D01*
X92879683Y-114308285D01*
X92059928Y-115128040D01*
X90362872Y-115128040D01*
X89543117Y-114308285D01*
X89260030Y-114451927D01*
X89149832Y-115250150D01*
X76652016Y-115250150D01*
X75758821Y-114356955D01*
X85945927Y-114356955D01*
X86070331Y-114598500D01*
X87039500Y-114598500D01*
X87039500Y-113636914D01*
X87839500Y-113636914D01*
X87839500Y-114598500D01*
X88808669Y-114598500D01*
X88933073Y-114356955D01*
X88573873Y-113834224D01*
X88081040Y-113504955D01*
X87839500Y-113636914D01*
X87039500Y-113636914D01*
X86797960Y-113504955D01*
X86305127Y-113834224D01*
X85945927Y-114356955D01*
X75758821Y-114356955D01*
X75692532Y-114290666D01*
X75687210Y-113459757D01*
X90391645Y-113459757D01*
X91211400Y-114279512D01*
X92031155Y-113459757D01*
X91887513Y-113176670D01*
X91089290Y-113066472D01*
X90535287Y-113176670D01*
X90391645Y-113459757D01*
X75687210Y-113459757D01*
X75680293Y-112379883D01*
X77513845Y-112379883D01*
X77657487Y-112662970D01*
X78455710Y-112773168D01*
X79009713Y-112662970D01*
X79153355Y-112379883D01*
X78333600Y-111560128D01*
X77513845Y-112379883D01*
X75680293Y-112379883D01*
X75663471Y-109753865D01*
X76336267Y-109646218D01*
X76576065Y-109557323D01*
X76041539Y-110091849D01*
X76334065Y-110384375D01*
X76272032Y-110833710D01*
X76382230Y-111387713D01*
X76665317Y-111531355D01*
X77485072Y-110711600D01*
X79182128Y-110711600D01*
X80001883Y-111531355D01*
X80284970Y-111387713D01*
X80395168Y-110589490D01*
X80284970Y-110035487D01*
X80001883Y-109891845D01*
X79182128Y-110711600D01*
X77485072Y-110711600D01*
X77060808Y-110287336D01*
X77909336Y-109438808D01*
X78333600Y-109863072D01*
X79153355Y-109043317D01*
X79009713Y-108760230D01*
X78211490Y-108650032D01*
X78104815Y-108671251D01*
X80230833Y-106545233D01*
X80870854Y-105587372D01*
X81095601Y-104457500D01*
X80958390Y-103767700D01*
X84816127Y-103767700D01*
X84863257Y-104018175D01*
X85071865Y-104342362D01*
X85390164Y-104559846D01*
X85768000Y-104636360D01*
X86423228Y-104636360D01*
X88501824Y-106714956D01*
X88891943Y-106975625D01*
X89352120Y-107067160D01*
X92011808Y-107067160D01*
X92011897Y-107067635D01*
X92220505Y-107391822D01*
X92538804Y-107609306D01*
X92916640Y-107685820D01*
X94616640Y-107685820D01*
X94969615Y-107619403D01*
X95293802Y-107410795D01*
X95322598Y-107368651D01*
X95616853Y-107565266D01*
X96306640Y-107702473D01*
X96996427Y-107565266D01*
X97581200Y-107174533D01*
X97971933Y-106589760D01*
X98109140Y-105899973D01*
X98109140Y-105829347D01*
X97971933Y-105139560D01*
X97581200Y-104554787D01*
X96996427Y-104164054D01*
X96306640Y-104026847D01*
X96192185Y-104049613D01*
X95229076Y-103086504D01*
X94838957Y-102825835D01*
X94378780Y-102734300D01*
X92476083Y-102734300D01*
X93081837Y-102329548D01*
X93526763Y-101663669D01*
X93543730Y-101578368D01*
X93699936Y-101956415D01*
X94192492Y-102449831D01*
X94836377Y-102717196D01*
X95533565Y-102717804D01*
X96177915Y-102451564D01*
X96671331Y-101959008D01*
X96938696Y-101315123D01*
X96939304Y-100617935D01*
X96673064Y-99973585D01*
X96180508Y-99480169D01*
X95536623Y-99212804D01*
X95134545Y-99212453D01*
X94484000Y-98561908D01*
X94484000Y-95178752D01*
X95659544Y-96354296D01*
X96049663Y-96614965D01*
X96509840Y-96706500D01*
X98151193Y-96706500D01*
X98365368Y-96921050D01*
X98979860Y-97176209D01*
X99645221Y-97176789D01*
X100260157Y-96922703D01*
X100584153Y-96599273D01*
X100905368Y-96921050D01*
X101519860Y-97176209D01*
X102185221Y-97176789D01*
X102800157Y-96922703D01*
X103124153Y-96599273D01*
X103445368Y-96921050D01*
X104059860Y-97176209D01*
X104725221Y-97176789D01*
X105340157Y-96922703D01*
X105811050Y-96452632D01*
X105983085Y-96038324D01*
X108379449Y-96038324D01*
X109082840Y-96741715D01*
X109786231Y-96038324D01*
X109704598Y-95771102D01*
X109069354Y-95650110D01*
X108461082Y-95771102D01*
X108379449Y-96038324D01*
X105983085Y-96038324D01*
X106066209Y-95838140D01*
X106066789Y-95172779D01*
X105812703Y-94557843D01*
X105342632Y-94086950D01*
X104901017Y-93903575D01*
X105615008Y-93189584D01*
X105629666Y-93192500D01*
X105698334Y-93192500D01*
X106368987Y-93059099D01*
X106937539Y-92679205D01*
X107317433Y-92110653D01*
X107450834Y-91440000D01*
X107317433Y-90769347D01*
X106937539Y-90200795D01*
X106368987Y-89820901D01*
X106208610Y-89789000D01*
X106368987Y-89757099D01*
X106937539Y-89377205D01*
X107317433Y-88808653D01*
X107450834Y-88138000D01*
X107442528Y-88096240D01*
X107472795Y-88141539D01*
X107861994Y-88401594D01*
X107843635Y-88413861D01*
X107463741Y-88982413D01*
X107330340Y-89653066D01*
X107330340Y-89721734D01*
X107463741Y-90392387D01*
X107843635Y-90960939D01*
X108412187Y-91340833D01*
X109082840Y-91474234D01*
X109753493Y-91340833D01*
X110322045Y-90960939D01*
X110701939Y-90392387D01*
X110734636Y-90228006D01*
X110943996Y-90734695D01*
X111436552Y-91228111D01*
X112080437Y-91495476D01*
X112777625Y-91496084D01*
X113421975Y-91229844D01*
X113915391Y-90737288D01*
X114000264Y-90532891D01*
X114108836Y-90795655D01*
X114601392Y-91289071D01*
X115245277Y-91556436D01*
X115942465Y-91557044D01*
X116586815Y-91290804D01*
X117080231Y-90798248D01*
X117347596Y-90154363D01*
X117348110Y-89565535D01*
X117386704Y-89623296D01*
X118047148Y-90283740D01*
X117923300Y-90334913D01*
X117514349Y-90743151D01*
X117292753Y-91276812D01*
X117292249Y-91854653D01*
X117512913Y-92388700D01*
X117921151Y-92797651D01*
X118454812Y-93019247D01*
X118689500Y-93019452D01*
X118689500Y-94019502D01*
X119030069Y-94019502D01*
X119047392Y-94036825D01*
X119350798Y-94162500D01*
X119558625Y-94162500D01*
X119765000Y-93956125D01*
X119765000Y-93087000D01*
X120265000Y-93087000D01*
X120265000Y-93956125D01*
X120471375Y-94162500D01*
X120679202Y-94162500D01*
X120982608Y-94036825D01*
X121214825Y-93804608D01*
X121340500Y-93501202D01*
X121340500Y-93293375D01*
X121134125Y-93087000D01*
X120265000Y-93087000D01*
X119765000Y-93087000D01*
X119515000Y-93087000D01*
X119515000Y-92820449D01*
X119566700Y-92799087D01*
X119975651Y-92390849D01*
X119998011Y-92337000D01*
X120265000Y-92337000D01*
X120265000Y-92587000D01*
X121134125Y-92587000D01*
X121340500Y-92380625D01*
X121340500Y-92172798D01*
X121214825Y-91869392D01*
X121197502Y-91852069D01*
X121197502Y-91511500D01*
X120854318Y-91511500D01*
X121245651Y-91120849D01*
X121467247Y-90587188D01*
X121467751Y-90009347D01*
X121247087Y-89475300D01*
X120838849Y-89066349D01*
X120436422Y-88899246D01*
X121000205Y-88522539D01*
X121380099Y-87953987D01*
X121513500Y-87283334D01*
X121513500Y-87214666D01*
X121510584Y-87200008D01*
X122084496Y-86626096D01*
X122345165Y-86235977D01*
X122368818Y-86117065D01*
X122585877Y-86207196D01*
G36*
X148972500Y-117125996D02*
X144787968Y-113839500D01*
X145759302Y-113839500D01*
X145759302Y-113539724D01*
X146095923Y-113333570D01*
X146532658Y-112782495D01*
X146416789Y-112514000D01*
X145226800Y-112514000D01*
X145226800Y-113014000D01*
X143926800Y-113014000D01*
X143926800Y-112514000D01*
X143100274Y-112514000D01*
X142994918Y-112431254D01*
X142818289Y-112341661D01*
X142653608Y-112231625D01*
X142567647Y-112214526D01*
X142489484Y-112174879D01*
X142292008Y-112159698D01*
X142097760Y-112121060D01*
X136507460Y-112121060D01*
X137314696Y-111960491D01*
X138013017Y-111493887D01*
X138479621Y-110795566D01*
X138643470Y-109971840D01*
X138544444Y-109474000D01*
X142280171Y-109474000D01*
X142428796Y-110221189D01*
X142852045Y-110854626D01*
X142903482Y-110888995D01*
X142620942Y-111245505D01*
X142736811Y-111514000D01*
X143926800Y-111514000D01*
X143926800Y-111365659D01*
X144232671Y-111426500D01*
X144920929Y-111426500D01*
X145226800Y-111365659D01*
X145226800Y-111514000D01*
X146416789Y-111514000D01*
X146532658Y-111245505D01*
X146250118Y-110888995D01*
X146301555Y-110854626D01*
X146724804Y-110221189D01*
X146873429Y-109474000D01*
X146724804Y-108726811D01*
X146607678Y-108551519D01*
X146771446Y-108311836D01*
X146847960Y-107934000D01*
X146847960Y-105934000D01*
X146781543Y-105581025D01*
X146572935Y-105256838D01*
X146254636Y-105039354D01*
X145876800Y-104962840D01*
X143276800Y-104962840D01*
X142923825Y-105029257D01*
X142599638Y-105237865D01*
X142382154Y-105556164D01*
X142305640Y-105934000D01*
X142305640Y-107934000D01*
X142372057Y-108286975D01*
X142544070Y-108554291D01*
X142428796Y-108726811D01*
X142280171Y-109474000D01*
X138544444Y-109474000D01*
X138479621Y-109148114D01*
X138013017Y-108449793D01*
X137651300Y-108208101D01*
X137651300Y-103434660D01*
X138963300Y-103434660D01*
X139316275Y-103368243D01*
X139640462Y-103159635D01*
X139857946Y-102841336D01*
X139934460Y-102463500D01*
X139934460Y-100863500D01*
X139868043Y-100510525D01*
X139659435Y-100186338D01*
X139530415Y-100098182D01*
X140087918Y-100098182D01*
X140422522Y-100907986D01*
X141041555Y-101528100D01*
X141850774Y-101864117D01*
X142726982Y-101864882D01*
X143536786Y-101530278D01*
X144156900Y-100911245D01*
X144492917Y-100102026D01*
X144493682Y-99225818D01*
X144159078Y-98416014D01*
X143540045Y-97795900D01*
X142730826Y-97459883D01*
X141854618Y-97459118D01*
X141044814Y-97793722D01*
X140424700Y-98412755D01*
X140088683Y-99221974D01*
X140087918Y-100098182D01*
X139530415Y-100098182D01*
X139341136Y-99968854D01*
X139330712Y-99966743D01*
X139271627Y-97130660D01*
X139644300Y-97130660D01*
X139997275Y-97064243D01*
X140321462Y-96855635D01*
X140538946Y-96537336D01*
X140615460Y-96159500D01*
X140615460Y-96101261D01*
X141041555Y-96528100D01*
X141850774Y-96864117D01*
X142726982Y-96864882D01*
X143536786Y-96530278D01*
X144156900Y-95911245D01*
X144492917Y-95102026D01*
X144493486Y-94450666D01*
X146019146Y-91586187D01*
X146036119Y-91529935D01*
X146068765Y-91481077D01*
X146103399Y-91306961D01*
X146154683Y-91136998D01*
X146148837Y-91078528D01*
X146160300Y-91020900D01*
X146160300Y-88798400D01*
X146102053Y-88505575D01*
X146110857Y-88501937D01*
X146463499Y-88149911D01*
X146654582Y-87689731D01*
X146654815Y-87422757D01*
X148972500Y-85105072D01*
X148972500Y-117125996D01*
X148972500Y-117125996D01*
G37*
X148972500Y-117125996D02*
X144787968Y-113839500D01*
X145759302Y-113839500D01*
X145759302Y-113539724D01*
X146095923Y-113333570D01*
X146532658Y-112782495D01*
X146416789Y-112514000D01*
X145226800Y-112514000D01*
X145226800Y-113014000D01*
X143926800Y-113014000D01*
X143926800Y-112514000D01*
X143100274Y-112514000D01*
X142994918Y-112431254D01*
X142818289Y-112341661D01*
X142653608Y-112231625D01*
X142567647Y-112214526D01*
X142489484Y-112174879D01*
X142292008Y-112159698D01*
X142097760Y-112121060D01*
X136507460Y-112121060D01*
X137314696Y-111960491D01*
X138013017Y-111493887D01*
X138479621Y-110795566D01*
X138643470Y-109971840D01*
X138544444Y-109474000D01*
X142280171Y-109474000D01*
X142428796Y-110221189D01*
X142852045Y-110854626D01*
X142903482Y-110888995D01*
X142620942Y-111245505D01*
X142736811Y-111514000D01*
X143926800Y-111514000D01*
X143926800Y-111365659D01*
X144232671Y-111426500D01*
X144920929Y-111426500D01*
X145226800Y-111365659D01*
X145226800Y-111514000D01*
X146416789Y-111514000D01*
X146532658Y-111245505D01*
X146250118Y-110888995D01*
X146301555Y-110854626D01*
X146724804Y-110221189D01*
X146873429Y-109474000D01*
X146724804Y-108726811D01*
X146607678Y-108551519D01*
X146771446Y-108311836D01*
X146847960Y-107934000D01*
X146847960Y-105934000D01*
X146781543Y-105581025D01*
X146572935Y-105256838D01*
X146254636Y-105039354D01*
X145876800Y-104962840D01*
X143276800Y-104962840D01*
X142923825Y-105029257D01*
X142599638Y-105237865D01*
X142382154Y-105556164D01*
X142305640Y-105934000D01*
X142305640Y-107934000D01*
X142372057Y-108286975D01*
X142544070Y-108554291D01*
X142428796Y-108726811D01*
X142280171Y-109474000D01*
X138544444Y-109474000D01*
X138479621Y-109148114D01*
X138013017Y-108449793D01*
X137651300Y-108208101D01*
X137651300Y-103434660D01*
X138963300Y-103434660D01*
X139316275Y-103368243D01*
X139640462Y-103159635D01*
X139857946Y-102841336D01*
X139934460Y-102463500D01*
X139934460Y-100863500D01*
X139868043Y-100510525D01*
X139659435Y-100186338D01*
X139530415Y-100098182D01*
X140087918Y-100098182D01*
X140422522Y-100907986D01*
X141041555Y-101528100D01*
X141850774Y-101864117D01*
X142726982Y-101864882D01*
X143536786Y-101530278D01*
X144156900Y-100911245D01*
X144492917Y-100102026D01*
X144493682Y-99225818D01*
X144159078Y-98416014D01*
X143540045Y-97795900D01*
X142730826Y-97459883D01*
X141854618Y-97459118D01*
X141044814Y-97793722D01*
X140424700Y-98412755D01*
X140088683Y-99221974D01*
X140087918Y-100098182D01*
X139530415Y-100098182D01*
X139341136Y-99968854D01*
X139330712Y-99966743D01*
X139271627Y-97130660D01*
X139644300Y-97130660D01*
X139997275Y-97064243D01*
X140321462Y-96855635D01*
X140538946Y-96537336D01*
X140615460Y-96159500D01*
X140615460Y-96101261D01*
X141041555Y-96528100D01*
X141850774Y-96864117D01*
X142726982Y-96864882D01*
X143536786Y-96530278D01*
X144156900Y-95911245D01*
X144492917Y-95102026D01*
X144493486Y-94450666D01*
X146019146Y-91586187D01*
X146036119Y-91529935D01*
X146068765Y-91481077D01*
X146103399Y-91306961D01*
X146154683Y-91136998D01*
X146148837Y-91078528D01*
X146160300Y-91020900D01*
X146160300Y-88798400D01*
X146102053Y-88505575D01*
X146110857Y-88501937D01*
X146463499Y-88149911D01*
X146654582Y-87689731D01*
X146654815Y-87422757D01*
X148972500Y-85105072D01*
X148972500Y-117125996D01*
G36*
X99878510Y-77279766D02*
X99847500Y-77435666D01*
X99847500Y-77504334D01*
X99980901Y-78174987D01*
X100360795Y-78743539D01*
X100929347Y-79123433D01*
X101600000Y-79256834D01*
X102270653Y-79123433D01*
X102839205Y-78743539D01*
X103219099Y-78174987D01*
X103251000Y-78014610D01*
X103282901Y-78174987D01*
X103662795Y-78743539D01*
X104231347Y-79123433D01*
X104902000Y-79256834D01*
X105572653Y-79123433D01*
X106141205Y-78743539D01*
X106521099Y-78174987D01*
X106587618Y-77840574D01*
X107096842Y-77331350D01*
X107274752Y-77509571D01*
X107546715Y-77622500D01*
X107529498Y-77622500D01*
X107529498Y-78153764D01*
X107218427Y-78606455D01*
X107342831Y-78848000D01*
X108312000Y-78848000D01*
X108312000Y-78448000D01*
X109080074Y-78448000D01*
X109112000Y-78469332D01*
X109112000Y-78848000D01*
X109512000Y-78848000D01*
X109512000Y-79150824D01*
X109499500Y-79213666D01*
X109499500Y-79282334D01*
X109512000Y-79345176D01*
X109512000Y-79648000D01*
X109112000Y-79648000D01*
X109112000Y-80609586D01*
X109353540Y-80741545D01*
X109819093Y-80430502D01*
X109951966Y-80430502D01*
X110012795Y-80521539D01*
X110581347Y-80901433D01*
X111252000Y-81034834D01*
X111922653Y-80901433D01*
X112491205Y-80521539D01*
X112522000Y-80475451D01*
X112552795Y-80521539D01*
X113121347Y-80901433D01*
X113792000Y-81034834D01*
X114462653Y-80901433D01*
X114802970Y-80674041D01*
X114835865Y-80725162D01*
X115154164Y-80942646D01*
X115532000Y-81019160D01*
X116402568Y-81019160D01*
X117034500Y-81651092D01*
X117034500Y-85235846D01*
X117002653Y-85214567D01*
X116332000Y-85081166D01*
X115661347Y-85214567D01*
X115092795Y-85594461D01*
X115062000Y-85640549D01*
X115031205Y-85594461D01*
X114462653Y-85214567D01*
X113792000Y-85081166D01*
X113121347Y-85214567D01*
X112552795Y-85594461D01*
X112522000Y-85640549D01*
X112491205Y-85594461D01*
X111922653Y-85214567D01*
X111252000Y-85081166D01*
X110581347Y-85214567D01*
X110012795Y-85594461D01*
X109982000Y-85640549D01*
X109951205Y-85594461D01*
X109382653Y-85214567D01*
X108712000Y-85081166D01*
X108041347Y-85214567D01*
X107472795Y-85594461D01*
X107092901Y-86163013D01*
X106959500Y-86833666D01*
X106959500Y-86902334D01*
X106967806Y-86944094D01*
X106937539Y-86898795D01*
X106368987Y-86518901D01*
X106020598Y-86449602D01*
X106386831Y-86084008D01*
X106654196Y-85440123D01*
X106654804Y-84742935D01*
X106388564Y-84098585D01*
X105896008Y-83605169D01*
X105252123Y-83337804D01*
X104554935Y-83337196D01*
X103910585Y-83603436D01*
X103417169Y-84095992D01*
X103250921Y-84496360D01*
X103086564Y-84098585D01*
X102594008Y-83605169D01*
X101950123Y-83337804D01*
X101252935Y-83337196D01*
X100608585Y-83603436D01*
X100115169Y-84095992D01*
X99847804Y-84739877D01*
X99847196Y-85437065D01*
X100113436Y-86081415D01*
X100397500Y-86365975D01*
X100397500Y-89281000D01*
X100489035Y-89741177D01*
X100749704Y-90131296D01*
X102598348Y-91979940D01*
X100223320Y-91979940D01*
X99763143Y-92071475D01*
X99647199Y-92148946D01*
X99796196Y-91790123D01*
X99796804Y-91092935D01*
X99530564Y-90448585D01*
X99246500Y-90164025D01*
X99246500Y-89413847D01*
X99528831Y-89132008D01*
X99796196Y-88488123D01*
X99796804Y-87790935D01*
X99530564Y-87146585D01*
X99124580Y-86739892D01*
X99124580Y-85406392D01*
X99195619Y-85358925D01*
X99575513Y-84790373D01*
X99708914Y-84119720D01*
X99575513Y-83449067D01*
X99195619Y-82880515D01*
X99149531Y-82849720D01*
X99195619Y-82818925D01*
X99575513Y-82250373D01*
X99708914Y-81579720D01*
X99575513Y-80909067D01*
X99195619Y-80340515D01*
X99149531Y-80309720D01*
X99195619Y-80278925D01*
X99455794Y-79889545D01*
X107218427Y-79889545D01*
X107577627Y-80412276D01*
X108070460Y-80741545D01*
X108312000Y-80609586D01*
X108312000Y-79648000D01*
X107342831Y-79648000D01*
X107218427Y-79889545D01*
X99455794Y-79889545D01*
X99575513Y-79710373D01*
X99708914Y-79039720D01*
X99575513Y-78369067D01*
X99195619Y-77800515D01*
X99149531Y-77769720D01*
X99195619Y-77738925D01*
X99575513Y-77170373D01*
X99616482Y-76964407D01*
X99878510Y-77279766D01*
X99878510Y-77279766D01*
G37*
X99878510Y-77279766D02*
X99847500Y-77435666D01*
X99847500Y-77504334D01*
X99980901Y-78174987D01*
X100360795Y-78743539D01*
X100929347Y-79123433D01*
X101600000Y-79256834D01*
X102270653Y-79123433D01*
X102839205Y-78743539D01*
X103219099Y-78174987D01*
X103251000Y-78014610D01*
X103282901Y-78174987D01*
X103662795Y-78743539D01*
X104231347Y-79123433D01*
X104902000Y-79256834D01*
X105572653Y-79123433D01*
X106141205Y-78743539D01*
X106521099Y-78174987D01*
X106587618Y-77840574D01*
X107096842Y-77331350D01*
X107274752Y-77509571D01*
X107546715Y-77622500D01*
X107529498Y-77622500D01*
X107529498Y-78153764D01*
X107218427Y-78606455D01*
X107342831Y-78848000D01*
X108312000Y-78848000D01*
X108312000Y-78448000D01*
X109080074Y-78448000D01*
X109112000Y-78469332D01*
X109112000Y-78848000D01*
X109512000Y-78848000D01*
X109512000Y-79150824D01*
X109499500Y-79213666D01*
X109499500Y-79282334D01*
X109512000Y-79345176D01*
X109512000Y-79648000D01*
X109112000Y-79648000D01*
X109112000Y-80609586D01*
X109353540Y-80741545D01*
X109819093Y-80430502D01*
X109951966Y-80430502D01*
X110012795Y-80521539D01*
X110581347Y-80901433D01*
X111252000Y-81034834D01*
X111922653Y-80901433D01*
X112491205Y-80521539D01*
X112522000Y-80475451D01*
X112552795Y-80521539D01*
X113121347Y-80901433D01*
X113792000Y-81034834D01*
X114462653Y-80901433D01*
X114802970Y-80674041D01*
X114835865Y-80725162D01*
X115154164Y-80942646D01*
X115532000Y-81019160D01*
X116402568Y-81019160D01*
X117034500Y-81651092D01*
X117034500Y-85235846D01*
X117002653Y-85214567D01*
X116332000Y-85081166D01*
X115661347Y-85214567D01*
X115092795Y-85594461D01*
X115062000Y-85640549D01*
X115031205Y-85594461D01*
X114462653Y-85214567D01*
X113792000Y-85081166D01*
X113121347Y-85214567D01*
X112552795Y-85594461D01*
X112522000Y-85640549D01*
X112491205Y-85594461D01*
X111922653Y-85214567D01*
X111252000Y-85081166D01*
X110581347Y-85214567D01*
X110012795Y-85594461D01*
X109982000Y-85640549D01*
X109951205Y-85594461D01*
X109382653Y-85214567D01*
X108712000Y-85081166D01*
X108041347Y-85214567D01*
X107472795Y-85594461D01*
X107092901Y-86163013D01*
X106959500Y-86833666D01*
X106959500Y-86902334D01*
X106967806Y-86944094D01*
X106937539Y-86898795D01*
X106368987Y-86518901D01*
X106020598Y-86449602D01*
X106386831Y-86084008D01*
X106654196Y-85440123D01*
X106654804Y-84742935D01*
X106388564Y-84098585D01*
X105896008Y-83605169D01*
X105252123Y-83337804D01*
X104554935Y-83337196D01*
X103910585Y-83603436D01*
X103417169Y-84095992D01*
X103250921Y-84496360D01*
X103086564Y-84098585D01*
X102594008Y-83605169D01*
X101950123Y-83337804D01*
X101252935Y-83337196D01*
X100608585Y-83603436D01*
X100115169Y-84095992D01*
X99847804Y-84739877D01*
X99847196Y-85437065D01*
X100113436Y-86081415D01*
X100397500Y-86365975D01*
X100397500Y-89281000D01*
X100489035Y-89741177D01*
X100749704Y-90131296D01*
X102598348Y-91979940D01*
X100223320Y-91979940D01*
X99763143Y-92071475D01*
X99647199Y-92148946D01*
X99796196Y-91790123D01*
X99796804Y-91092935D01*
X99530564Y-90448585D01*
X99246500Y-90164025D01*
X99246500Y-89413847D01*
X99528831Y-89132008D01*
X99796196Y-88488123D01*
X99796804Y-87790935D01*
X99530564Y-87146585D01*
X99124580Y-86739892D01*
X99124580Y-85406392D01*
X99195619Y-85358925D01*
X99575513Y-84790373D01*
X99708914Y-84119720D01*
X99575513Y-83449067D01*
X99195619Y-82880515D01*
X99149531Y-82849720D01*
X99195619Y-82818925D01*
X99575513Y-82250373D01*
X99708914Y-81579720D01*
X99575513Y-80909067D01*
X99195619Y-80340515D01*
X99149531Y-80309720D01*
X99195619Y-80278925D01*
X99455794Y-79889545D01*
X107218427Y-79889545D01*
X107577627Y-80412276D01*
X108070460Y-80741545D01*
X108312000Y-80609586D01*
X108312000Y-79648000D01*
X107342831Y-79648000D01*
X107218427Y-79889545D01*
X99455794Y-79889545D01*
X99575513Y-79710373D01*
X99708914Y-79039720D01*
X99575513Y-78369067D01*
X99195619Y-77800515D01*
X99149531Y-77769720D01*
X99195619Y-77738925D01*
X99575513Y-77170373D01*
X99616482Y-76964407D01*
X99878510Y-77279766D01*
G36*
X135363391Y-61673902D02*
X135484002Y-62280258D01*
X135751224Y-62361891D01*
X136454615Y-61658500D01*
X136275355Y-61479240D01*
X137765245Y-61479240D01*
X137585985Y-61658500D01*
X138289376Y-62361891D01*
X138556598Y-62280258D01*
X138670883Y-61680228D01*
X138871870Y-61479240D01*
X147219853Y-61479240D01*
X148072758Y-62168738D01*
X148053451Y-82622937D01*
X144552004Y-86124384D01*
X144324644Y-86464652D01*
X143428616Y-85568624D01*
X143038497Y-85307955D01*
X142578320Y-85216420D01*
X142270093Y-85216420D01*
X142268722Y-85216693D01*
X142267349Y-85216423D01*
X140322331Y-85220861D01*
X142061319Y-83481873D01*
X142104774Y-83499917D01*
X142980982Y-83500682D01*
X143790786Y-83166078D01*
X144410900Y-82547045D01*
X144746917Y-81737826D01*
X144747682Y-80861618D01*
X144413078Y-80051814D01*
X143794045Y-79431700D01*
X142984826Y-79095683D01*
X142108618Y-79094918D01*
X141869344Y-79193784D01*
X142195174Y-78499996D01*
X142980982Y-78500682D01*
X143790786Y-78166078D01*
X144410900Y-77547045D01*
X144746917Y-76737826D01*
X144747682Y-75861618D01*
X144413078Y-75051814D01*
X143794045Y-74431700D01*
X142984826Y-74095683D01*
X142108618Y-74094918D01*
X141298814Y-74429522D01*
X140678700Y-75048555D01*
X140342683Y-75857774D01*
X140341918Y-76733982D01*
X140353911Y-76763008D01*
X139344098Y-78913202D01*
X139333119Y-78957545D01*
X139308837Y-78996243D01*
X139277073Y-79183901D01*
X139231332Y-79368642D01*
X139238158Y-79413812D01*
X139230534Y-79458855D01*
X139264470Y-80641919D01*
X138995345Y-80456987D01*
X138753800Y-80581391D01*
X138753800Y-81550560D01*
X138993114Y-81550560D01*
X137953800Y-82579879D01*
X137953800Y-82350560D01*
X136992214Y-82350560D01*
X136860255Y-82592100D01*
X136869745Y-82606304D01*
X132355312Y-82615405D01*
X132485996Y-82300683D01*
X132486347Y-81898605D01*
X133075932Y-81309020D01*
X136860255Y-81309020D01*
X136992214Y-81550560D01*
X137953800Y-81550560D01*
X137953800Y-80581391D01*
X137712255Y-80456987D01*
X137189524Y-80816187D01*
X136860255Y-81309020D01*
X133075932Y-81309020D01*
X133806596Y-80578356D01*
X133887975Y-80456563D01*
X134067265Y-80188237D01*
X134139386Y-79825660D01*
X136131176Y-79825660D01*
X136155701Y-79862365D01*
X136724253Y-80242259D01*
X137394906Y-80375660D01*
X137463574Y-80375660D01*
X138134227Y-80242259D01*
X138702779Y-79862365D01*
X139082673Y-79293813D01*
X139216074Y-78623160D01*
X139082673Y-77952507D01*
X138702779Y-77383955D01*
X138451267Y-77215900D01*
X139218802Y-77215900D01*
X139218802Y-76684636D01*
X139529873Y-76231945D01*
X139405469Y-75990400D01*
X138436300Y-75990400D01*
X138436300Y-76390400D01*
X137636300Y-76390400D01*
X137636300Y-75990400D01*
X137236300Y-75990400D01*
X137236300Y-75687576D01*
X137248800Y-75624734D01*
X137248800Y-75556066D01*
X137236300Y-75493224D01*
X137236300Y-75190400D01*
X137636300Y-75190400D01*
X137636300Y-74228814D01*
X138436300Y-74228814D01*
X138436300Y-75190400D01*
X139405469Y-75190400D01*
X139529873Y-74948855D01*
X139170673Y-74426124D01*
X138677840Y-74096855D01*
X138436300Y-74228814D01*
X137636300Y-74228814D01*
X137394760Y-74096855D01*
X136929207Y-74407898D01*
X136796334Y-74407898D01*
X136735505Y-74316861D01*
X136166953Y-73936967D01*
X135496300Y-73803566D01*
X134825647Y-73936967D01*
X134257095Y-74316861D01*
X134226300Y-74362949D01*
X134195505Y-74316861D01*
X133626953Y-73936967D01*
X132956300Y-73803566D01*
X132285647Y-73936967D01*
X131945330Y-74164359D01*
X131912435Y-74113238D01*
X131594136Y-73895754D01*
X131216300Y-73819240D01*
X129616300Y-73819240D01*
X129263325Y-73885657D01*
X129016911Y-74044220D01*
X128949299Y-73704313D01*
X128938757Y-73688535D01*
X130893310Y-71733982D01*
X140341918Y-71733982D01*
X140676522Y-72543786D01*
X141295555Y-73163900D01*
X142104774Y-73499917D01*
X142980982Y-73500682D01*
X143790786Y-73166078D01*
X144410900Y-72547045D01*
X144746917Y-71737826D01*
X144747682Y-70861618D01*
X144413078Y-70051814D01*
X143794045Y-69431700D01*
X142984826Y-69095683D01*
X142108618Y-69094918D01*
X141298814Y-69429522D01*
X140678700Y-70048555D01*
X140342683Y-70857774D01*
X140341918Y-71733982D01*
X130893310Y-71733982D01*
X132884366Y-69742926D01*
X132956300Y-69757234D01*
X133626953Y-69623833D01*
X134195505Y-69243939D01*
X134226300Y-69197851D01*
X134257095Y-69243939D01*
X134825647Y-69623833D01*
X135496300Y-69757234D01*
X136166953Y-69623833D01*
X136735505Y-69243939D01*
X136766300Y-69197851D01*
X136797095Y-69243939D01*
X137365647Y-69623833D01*
X138036300Y-69757234D01*
X138706953Y-69623833D01*
X139275505Y-69243939D01*
X139655399Y-68675387D01*
X139788800Y-68004734D01*
X139788800Y-67936066D01*
X139655399Y-67265413D01*
X139275505Y-66696861D01*
X138706953Y-66316967D01*
X138036300Y-66183566D01*
X137365647Y-66316967D01*
X136797095Y-66696861D01*
X136766300Y-66742949D01*
X136735505Y-66696861D01*
X136698800Y-66672336D01*
X136698800Y-66103500D01*
X136607265Y-65643323D01*
X136346596Y-65253204D01*
X135609392Y-64516000D01*
X137201966Y-64516000D01*
X137335367Y-65186653D01*
X137715261Y-65755205D01*
X138283813Y-66135099D01*
X138954466Y-66268500D01*
X139023134Y-66268500D01*
X139693787Y-66135099D01*
X140262339Y-65755205D01*
X140472182Y-65441152D01*
X140594027Y-65416345D01*
X140640057Y-65660975D01*
X140848665Y-65985162D01*
X141166964Y-66202646D01*
X141544800Y-66279160D01*
X143544800Y-66279160D01*
X143897775Y-66212743D01*
X144165091Y-66040730D01*
X144337611Y-66156004D01*
X145084800Y-66304629D01*
X145831989Y-66156004D01*
X146465426Y-65732755D01*
X146499795Y-65681318D01*
X146856305Y-65963858D01*
X147124800Y-65847989D01*
X147124800Y-64658000D01*
X146976459Y-64658000D01*
X147037300Y-64352129D01*
X147037300Y-63663871D01*
X146976459Y-63358000D01*
X147124800Y-63358000D01*
X147124800Y-62168011D01*
X146856305Y-62052142D01*
X146499795Y-62334682D01*
X146465426Y-62283245D01*
X145831989Y-61859996D01*
X145084800Y-61711371D01*
X144337611Y-61859996D01*
X144162319Y-61977122D01*
X143922636Y-61813354D01*
X143544800Y-61736840D01*
X141544800Y-61736840D01*
X141191825Y-61803257D01*
X140867638Y-62011865D01*
X140650154Y-62330164D01*
X140573640Y-62708000D01*
X140573640Y-62966154D01*
X139978713Y-63087282D01*
X139693787Y-62896901D01*
X139023134Y-62763500D01*
X138954466Y-62763500D01*
X138283813Y-62896901D01*
X137715261Y-63276795D01*
X137335367Y-63845347D01*
X137201966Y-64516000D01*
X135609392Y-64516000D01*
X134020968Y-62927576D01*
X136316909Y-62927576D01*
X136398542Y-63194798D01*
X137033786Y-63315790D01*
X137642058Y-63194798D01*
X137723691Y-62927576D01*
X137020300Y-62224185D01*
X136316909Y-62927576D01*
X134020968Y-62927576D01*
X133575774Y-62482382D01*
X133772496Y-62008623D01*
X133772847Y-61606545D01*
X133900152Y-61479240D01*
X135168730Y-61479240D01*
X135363391Y-61673902D01*
X135363391Y-61673902D01*
G37*
X135363391Y-61673902D02*
X135484002Y-62280258D01*
X135751224Y-62361891D01*
X136454615Y-61658500D01*
X136275355Y-61479240D01*
X137765245Y-61479240D01*
X137585985Y-61658500D01*
X138289376Y-62361891D01*
X138556598Y-62280258D01*
X138670883Y-61680228D01*
X138871870Y-61479240D01*
X147219853Y-61479240D01*
X148072758Y-62168738D01*
X148053451Y-82622937D01*
X144552004Y-86124384D01*
X144324644Y-86464652D01*
X143428616Y-85568624D01*
X143038497Y-85307955D01*
X142578320Y-85216420D01*
X142270093Y-85216420D01*
X142268722Y-85216693D01*
X142267349Y-85216423D01*
X140322331Y-85220861D01*
X142061319Y-83481873D01*
X142104774Y-83499917D01*
X142980982Y-83500682D01*
X143790786Y-83166078D01*
X144410900Y-82547045D01*
X144746917Y-81737826D01*
X144747682Y-80861618D01*
X144413078Y-80051814D01*
X143794045Y-79431700D01*
X142984826Y-79095683D01*
X142108618Y-79094918D01*
X141869344Y-79193784D01*
X142195174Y-78499996D01*
X142980982Y-78500682D01*
X143790786Y-78166078D01*
X144410900Y-77547045D01*
X144746917Y-76737826D01*
X144747682Y-75861618D01*
X144413078Y-75051814D01*
X143794045Y-74431700D01*
X142984826Y-74095683D01*
X142108618Y-74094918D01*
X141298814Y-74429522D01*
X140678700Y-75048555D01*
X140342683Y-75857774D01*
X140341918Y-76733982D01*
X140353911Y-76763008D01*
X139344098Y-78913202D01*
X139333119Y-78957545D01*
X139308837Y-78996243D01*
X139277073Y-79183901D01*
X139231332Y-79368642D01*
X139238158Y-79413812D01*
X139230534Y-79458855D01*
X139264470Y-80641919D01*
X138995345Y-80456987D01*
X138753800Y-80581391D01*
X138753800Y-81550560D01*
X138993114Y-81550560D01*
X137953800Y-82579879D01*
X137953800Y-82350560D01*
X136992214Y-82350560D01*
X136860255Y-82592100D01*
X136869745Y-82606304D01*
X132355312Y-82615405D01*
X132485996Y-82300683D01*
X132486347Y-81898605D01*
X133075932Y-81309020D01*
X136860255Y-81309020D01*
X136992214Y-81550560D01*
X137953800Y-81550560D01*
X137953800Y-80581391D01*
X137712255Y-80456987D01*
X137189524Y-80816187D01*
X136860255Y-81309020D01*
X133075932Y-81309020D01*
X133806596Y-80578356D01*
X133887975Y-80456563D01*
X134067265Y-80188237D01*
X134139386Y-79825660D01*
X136131176Y-79825660D01*
X136155701Y-79862365D01*
X136724253Y-80242259D01*
X137394906Y-80375660D01*
X137463574Y-80375660D01*
X138134227Y-80242259D01*
X138702779Y-79862365D01*
X139082673Y-79293813D01*
X139216074Y-78623160D01*
X139082673Y-77952507D01*
X138702779Y-77383955D01*
X138451267Y-77215900D01*
X139218802Y-77215900D01*
X139218802Y-76684636D01*
X139529873Y-76231945D01*
X139405469Y-75990400D01*
X138436300Y-75990400D01*
X138436300Y-76390400D01*
X137636300Y-76390400D01*
X137636300Y-75990400D01*
X137236300Y-75990400D01*
X137236300Y-75687576D01*
X137248800Y-75624734D01*
X137248800Y-75556066D01*
X137236300Y-75493224D01*
X137236300Y-75190400D01*
X137636300Y-75190400D01*
X137636300Y-74228814D01*
X138436300Y-74228814D01*
X138436300Y-75190400D01*
X139405469Y-75190400D01*
X139529873Y-74948855D01*
X139170673Y-74426124D01*
X138677840Y-74096855D01*
X138436300Y-74228814D01*
X137636300Y-74228814D01*
X137394760Y-74096855D01*
X136929207Y-74407898D01*
X136796334Y-74407898D01*
X136735505Y-74316861D01*
X136166953Y-73936967D01*
X135496300Y-73803566D01*
X134825647Y-73936967D01*
X134257095Y-74316861D01*
X134226300Y-74362949D01*
X134195505Y-74316861D01*
X133626953Y-73936967D01*
X132956300Y-73803566D01*
X132285647Y-73936967D01*
X131945330Y-74164359D01*
X131912435Y-74113238D01*
X131594136Y-73895754D01*
X131216300Y-73819240D01*
X129616300Y-73819240D01*
X129263325Y-73885657D01*
X129016911Y-74044220D01*
X128949299Y-73704313D01*
X128938757Y-73688535D01*
X130893310Y-71733982D01*
X140341918Y-71733982D01*
X140676522Y-72543786D01*
X141295555Y-73163900D01*
X142104774Y-73499917D01*
X142980982Y-73500682D01*
X143790786Y-73166078D01*
X144410900Y-72547045D01*
X144746917Y-71737826D01*
X144747682Y-70861618D01*
X144413078Y-70051814D01*
X143794045Y-69431700D01*
X142984826Y-69095683D01*
X142108618Y-69094918D01*
X141298814Y-69429522D01*
X140678700Y-70048555D01*
X140342683Y-70857774D01*
X140341918Y-71733982D01*
X130893310Y-71733982D01*
X132884366Y-69742926D01*
X132956300Y-69757234D01*
X133626953Y-69623833D01*
X134195505Y-69243939D01*
X134226300Y-69197851D01*
X134257095Y-69243939D01*
X134825647Y-69623833D01*
X135496300Y-69757234D01*
X136166953Y-69623833D01*
X136735505Y-69243939D01*
X136766300Y-69197851D01*
X136797095Y-69243939D01*
X137365647Y-69623833D01*
X138036300Y-69757234D01*
X138706953Y-69623833D01*
X139275505Y-69243939D01*
X139655399Y-68675387D01*
X139788800Y-68004734D01*
X139788800Y-67936066D01*
X139655399Y-67265413D01*
X139275505Y-66696861D01*
X138706953Y-66316967D01*
X138036300Y-66183566D01*
X137365647Y-66316967D01*
X136797095Y-66696861D01*
X136766300Y-66742949D01*
X136735505Y-66696861D01*
X136698800Y-66672336D01*
X136698800Y-66103500D01*
X136607265Y-65643323D01*
X136346596Y-65253204D01*
X135609392Y-64516000D01*
X137201966Y-64516000D01*
X137335367Y-65186653D01*
X137715261Y-65755205D01*
X138283813Y-66135099D01*
X138954466Y-66268500D01*
X139023134Y-66268500D01*
X139693787Y-66135099D01*
X140262339Y-65755205D01*
X140472182Y-65441152D01*
X140594027Y-65416345D01*
X140640057Y-65660975D01*
X140848665Y-65985162D01*
X141166964Y-66202646D01*
X141544800Y-66279160D01*
X143544800Y-66279160D01*
X143897775Y-66212743D01*
X144165091Y-66040730D01*
X144337611Y-66156004D01*
X145084800Y-66304629D01*
X145831989Y-66156004D01*
X146465426Y-65732755D01*
X146499795Y-65681318D01*
X146856305Y-65963858D01*
X147124800Y-65847989D01*
X147124800Y-64658000D01*
X146976459Y-64658000D01*
X147037300Y-64352129D01*
X147037300Y-63663871D01*
X146976459Y-63358000D01*
X147124800Y-63358000D01*
X147124800Y-62168011D01*
X146856305Y-62052142D01*
X146499795Y-62334682D01*
X146465426Y-62283245D01*
X145831989Y-61859996D01*
X145084800Y-61711371D01*
X144337611Y-61859996D01*
X144162319Y-61977122D01*
X143922636Y-61813354D01*
X143544800Y-61736840D01*
X141544800Y-61736840D01*
X141191825Y-61803257D01*
X140867638Y-62011865D01*
X140650154Y-62330164D01*
X140573640Y-62708000D01*
X140573640Y-62966154D01*
X139978713Y-63087282D01*
X139693787Y-62896901D01*
X139023134Y-62763500D01*
X138954466Y-62763500D01*
X138283813Y-62896901D01*
X137715261Y-63276795D01*
X137335367Y-63845347D01*
X137201966Y-64516000D01*
X135609392Y-64516000D01*
X134020968Y-62927576D01*
X136316909Y-62927576D01*
X136398542Y-63194798D01*
X137033786Y-63315790D01*
X137642058Y-63194798D01*
X137723691Y-62927576D01*
X137020300Y-62224185D01*
X136316909Y-62927576D01*
X134020968Y-62927576D01*
X133575774Y-62482382D01*
X133772496Y-62008623D01*
X133772847Y-61606545D01*
X133900152Y-61479240D01*
X135168730Y-61479240D01*
X135363391Y-61673902D01*
G36*
X84314636Y-79680615D02*
X84807192Y-80174031D01*
X85377658Y-80410909D01*
X85343575Y-80444992D01*
X85217900Y-80748398D01*
X85217900Y-81131225D01*
X85424275Y-81337600D01*
X86468400Y-81337600D01*
X86468400Y-80309727D01*
X86792615Y-80175764D01*
X87151400Y-79817604D01*
X87151400Y-82544395D01*
X86928713Y-82500100D01*
X86858087Y-82500100D01*
X86468400Y-82577613D01*
X86468400Y-82187600D01*
X85424275Y-82187600D01*
X85217900Y-82393975D01*
X85217900Y-82776802D01*
X85343575Y-83080208D01*
X85466520Y-83203153D01*
X85192794Y-83612813D01*
X85055587Y-84302600D01*
X85192794Y-84992387D01*
X85404949Y-85309900D01*
X84078900Y-85309900D01*
X84078900Y-79558647D01*
X84210117Y-79427659D01*
X84314636Y-79680615D01*
X84314636Y-79680615D01*
G37*
X84314636Y-79680615D02*
X84807192Y-80174031D01*
X85377658Y-80410909D01*
X85343575Y-80444992D01*
X85217900Y-80748398D01*
X85217900Y-81131225D01*
X85424275Y-81337600D01*
X86468400Y-81337600D01*
X86468400Y-80309727D01*
X86792615Y-80175764D01*
X87151400Y-79817604D01*
X87151400Y-82544395D01*
X86928713Y-82500100D01*
X86858087Y-82500100D01*
X86468400Y-82577613D01*
X86468400Y-82187600D01*
X85424275Y-82187600D01*
X85217900Y-82393975D01*
X85217900Y-82776802D01*
X85343575Y-83080208D01*
X85466520Y-83203153D01*
X85192794Y-83612813D01*
X85055587Y-84302600D01*
X85192794Y-84992387D01*
X85404949Y-85309900D01*
X84078900Y-85309900D01*
X84078900Y-79558647D01*
X84210117Y-79427659D01*
X84314636Y-79680615D01*
G36*
X111003063Y-52754115D02*
X110674674Y-53544963D01*
X110673927Y-54401280D01*
X110681529Y-54419679D01*
X109300355Y-55800853D01*
X109158596Y-55703994D01*
X108780760Y-55627480D01*
X106580760Y-55627480D01*
X106227785Y-55693897D01*
X105903598Y-55902505D01*
X105686114Y-56220804D01*
X105609600Y-56598640D01*
X105609600Y-58798640D01*
X105676017Y-59151615D01*
X105884625Y-59475802D01*
X106202924Y-59693286D01*
X106580760Y-59769800D01*
X106596160Y-59769800D01*
X106249963Y-60115394D01*
X106158863Y-60133515D01*
X105768744Y-60394184D01*
X104472488Y-61690440D01*
X101366175Y-61690440D01*
X101341066Y-61644480D01*
X100379480Y-61644480D01*
X100379480Y-61690440D01*
X99579480Y-61690440D01*
X99579480Y-61644480D01*
X99179480Y-61644480D01*
X99179480Y-60844480D01*
X99579480Y-60844480D01*
X99579480Y-59875311D01*
X100379480Y-59875311D01*
X100379480Y-60844480D01*
X101341066Y-60844480D01*
X101473025Y-60602940D01*
X101143756Y-60110107D01*
X100621025Y-59750907D01*
X100379480Y-59875311D01*
X99579480Y-59875311D01*
X99337935Y-59750907D01*
X98885244Y-60061978D01*
X98722960Y-60061978D01*
X98722960Y-59271000D01*
X98675883Y-59020808D01*
X99228861Y-59435193D01*
X99510760Y-59337576D01*
X99510760Y-58248640D01*
X100610760Y-58248640D01*
X100610760Y-59337576D01*
X100892659Y-59435193D01*
X101493885Y-58984652D01*
X101797281Y-58530534D01*
X101689530Y-58248640D01*
X100610760Y-58248640D01*
X99510760Y-58248640D01*
X98431990Y-58248640D01*
X98330669Y-58513713D01*
X98129636Y-58376354D01*
X97751800Y-58299840D01*
X96151800Y-58299840D01*
X95798825Y-58366257D01*
X95474638Y-58574865D01*
X95334947Y-58779310D01*
X94941580Y-58516495D01*
X94700040Y-58648454D01*
X94700040Y-59610040D01*
X95100040Y-59610040D01*
X95100040Y-60410040D01*
X94700040Y-60410040D01*
X94700040Y-61371626D01*
X94941580Y-61503585D01*
X95281040Y-61276787D01*
X95455665Y-61548162D01*
X95773964Y-61765646D01*
X96151800Y-61842160D01*
X97751800Y-61842160D01*
X98046694Y-61786672D01*
X97886674Y-61893594D01*
X97713521Y-61995499D01*
X96183146Y-63360357D01*
X95554800Y-63235371D01*
X94807611Y-63383996D01*
X94523839Y-63573606D01*
X94482408Y-63532175D01*
X94179002Y-63406500D01*
X93721175Y-63406500D01*
X93514800Y-63612875D01*
X93514800Y-64882000D01*
X93663141Y-64882000D01*
X93602300Y-65187871D01*
X93602300Y-65876129D01*
X93663141Y-66182000D01*
X93514800Y-66182000D01*
X93514800Y-67451125D01*
X93721175Y-67657500D01*
X94179002Y-67657500D01*
X94482408Y-67531825D01*
X94523839Y-67490394D01*
X94807611Y-67680004D01*
X95554800Y-67828629D01*
X96301989Y-67680004D01*
X96935426Y-67256755D01*
X97358675Y-66623318D01*
X97507300Y-65876129D01*
X97507300Y-65401927D01*
X98972224Y-64095440D01*
X98978455Y-64095440D01*
X98842507Y-64298900D01*
X98705300Y-64988687D01*
X98705300Y-65059313D01*
X98842507Y-65749100D01*
X99233240Y-66333873D01*
X99328406Y-66397461D01*
X99396835Y-66741477D01*
X99657504Y-67131596D01*
X99954103Y-67428195D01*
X99563440Y-67689227D01*
X99172707Y-68274000D01*
X99035500Y-68963787D01*
X99035500Y-69034413D01*
X99153054Y-69625400D01*
X94449900Y-69625400D01*
X93989723Y-69716935D01*
X93599604Y-69977604D01*
X91951144Y-71626064D01*
X91690475Y-72016183D01*
X91598940Y-72476360D01*
X91598940Y-74886399D01*
X91479916Y-74805074D01*
X91211618Y-74750742D01*
X91139295Y-74345240D01*
X91176031Y-74308568D01*
X91443396Y-73664683D01*
X91444004Y-72967495D01*
X91177764Y-72323145D01*
X90685208Y-71829729D01*
X90041323Y-71562364D01*
X89556400Y-71561941D01*
X89556400Y-69646800D01*
X89523071Y-69479243D01*
X89507999Y-69309069D01*
X89477658Y-69250936D01*
X89464865Y-69186623D01*
X89369951Y-69044574D01*
X89290904Y-68893123D01*
X89006780Y-68539888D01*
X89096326Y-68324237D01*
X89097073Y-67467920D01*
X88770065Y-66676500D01*
X88482443Y-66388375D01*
X91189300Y-66388375D01*
X91189300Y-66996202D01*
X91314975Y-67299608D01*
X91547192Y-67531825D01*
X91850598Y-67657500D01*
X92308425Y-67657500D01*
X92514800Y-67451125D01*
X92514800Y-66182000D01*
X91395675Y-66182000D01*
X91189300Y-66388375D01*
X88482443Y-66388375D01*
X88165085Y-66070463D01*
X88105834Y-66045860D01*
X89344400Y-66045860D01*
X89697375Y-65979443D01*
X90021562Y-65770835D01*
X90239046Y-65452536D01*
X90315560Y-65074700D01*
X90315560Y-64067798D01*
X91189300Y-64067798D01*
X91189300Y-64675625D01*
X91395675Y-64882000D01*
X92514800Y-64882000D01*
X92514800Y-63612875D01*
X92308425Y-63406500D01*
X91850598Y-63406500D01*
X91547192Y-63532175D01*
X91314975Y-63764392D01*
X91189300Y-64067798D01*
X90315560Y-64067798D01*
X90315560Y-63474700D01*
X90249143Y-63121725D01*
X90040535Y-62797538D01*
X89953122Y-62737811D01*
X90082325Y-62608608D01*
X90208000Y-62305202D01*
X90208000Y-61947375D01*
X90001625Y-61741000D01*
X88982500Y-61741000D01*
X88982500Y-62141000D01*
X88182500Y-62141000D01*
X88182500Y-61741000D01*
X87163375Y-61741000D01*
X86957000Y-61947375D01*
X86957000Y-62305202D01*
X87082675Y-62608608D01*
X87180044Y-62705977D01*
X87067238Y-62778565D01*
X86849754Y-63096864D01*
X86773240Y-63474700D01*
X86773240Y-65074700D01*
X86839657Y-65427675D01*
X87041780Y-65741784D01*
X86517920Y-65741327D01*
X85726500Y-66068335D01*
X85120463Y-66673315D01*
X84792074Y-67464163D01*
X84791327Y-68320480D01*
X85118335Y-69111900D01*
X85373442Y-69367452D01*
X85130547Y-69415767D01*
X84561995Y-69795661D01*
X84182101Y-70364213D01*
X84048700Y-71034866D01*
X84048700Y-71103534D01*
X84182101Y-71774187D01*
X84561995Y-72342739D01*
X85130547Y-72722633D01*
X85801200Y-72856034D01*
X86471853Y-72722633D01*
X87040405Y-72342739D01*
X87151400Y-72176623D01*
X87151400Y-77561183D01*
X86795208Y-77204369D01*
X86151323Y-76937004D01*
X85454135Y-76936396D01*
X84809785Y-77202636D01*
X84467483Y-77544341D01*
X84362964Y-77291385D01*
X83870408Y-76797969D01*
X83226523Y-76530604D01*
X82529335Y-76529996D01*
X81884985Y-76796236D01*
X81391569Y-77288792D01*
X81124204Y-77932677D01*
X81123618Y-78604300D01*
X79870210Y-78604300D01*
X79533309Y-78267398D01*
X79412698Y-77661042D01*
X79145476Y-77579409D01*
X78442085Y-78282800D01*
X78724928Y-78565643D01*
X78686271Y-78604300D01*
X77066529Y-78604300D01*
X77027872Y-78565643D01*
X77310715Y-78282800D01*
X77027872Y-77999957D01*
X77593557Y-77434272D01*
X77876400Y-77717115D01*
X78579791Y-77013724D01*
X78498158Y-76746502D01*
X77898128Y-76632217D01*
X77545033Y-76279123D01*
X77478700Y-76345456D01*
X77478700Y-72237600D01*
X79493166Y-72237600D01*
X79626567Y-72908253D01*
X80006461Y-73476805D01*
X80575013Y-73856699D01*
X81245666Y-73990100D01*
X81314334Y-73990100D01*
X81984987Y-73856699D01*
X82553539Y-73476805D01*
X82933433Y-72908253D01*
X83066834Y-72237600D01*
X82933433Y-71566947D01*
X82553539Y-70998395D01*
X81984987Y-70618501D01*
X81314334Y-70485100D01*
X81245666Y-70485100D01*
X80575013Y-70618501D01*
X80006461Y-70998395D01*
X79626567Y-71566947D01*
X79493166Y-72237600D01*
X77478700Y-72237600D01*
X77478700Y-70053200D01*
X77473247Y-70025784D01*
X77477439Y-69998149D01*
X77129994Y-62416731D01*
X77382777Y-62521696D01*
X78079965Y-62522304D01*
X78724315Y-62256064D01*
X79217731Y-61763508D01*
X79246112Y-61695158D01*
X79309067Y-62011653D01*
X79688961Y-62580205D01*
X80010606Y-62795121D01*
X79650861Y-63035495D01*
X79270967Y-63604047D01*
X79137566Y-64274700D01*
X79270967Y-64945353D01*
X79650861Y-65513905D01*
X80219413Y-65893799D01*
X80890066Y-66027200D01*
X80958734Y-66027200D01*
X81629387Y-65893799D01*
X82197939Y-65513905D01*
X82577833Y-64945353D01*
X82711234Y-64274700D01*
X82577833Y-63604047D01*
X82197939Y-63035495D01*
X81876294Y-62820579D01*
X82236039Y-62580205D01*
X82615933Y-62011653D01*
X82749334Y-61341000D01*
X82615933Y-60670347D01*
X82343390Y-60262457D01*
X87030051Y-60200437D01*
X86957000Y-60376798D01*
X86957000Y-60734625D01*
X87163375Y-60941000D01*
X88182500Y-60941000D01*
X88182500Y-60541000D01*
X88982500Y-60541000D01*
X88982500Y-60941000D01*
X90001625Y-60941000D01*
X90208000Y-60734625D01*
X90208000Y-60651585D01*
X92806467Y-60651585D01*
X93165667Y-61174316D01*
X93658500Y-61503585D01*
X93900040Y-61371626D01*
X93900040Y-60410040D01*
X92930871Y-60410040D01*
X92806467Y-60651585D01*
X90208000Y-60651585D01*
X90208000Y-60376798D01*
X90085264Y-60080486D01*
X90461496Y-59829096D01*
X90922097Y-59368495D01*
X92806467Y-59368495D01*
X92930871Y-59610040D01*
X93900040Y-59610040D01*
X93900040Y-58648454D01*
X93658500Y-58516495D01*
X93165667Y-58845764D01*
X92806467Y-59368495D01*
X90922097Y-59368495D01*
X93128496Y-57162096D01*
X93279351Y-56936325D01*
X93389165Y-56771977D01*
X93480700Y-56311800D01*
X93480700Y-54157284D01*
X93500040Y-54161200D01*
X95100040Y-54161200D01*
X95453015Y-54094783D01*
X95777202Y-53886175D01*
X95832775Y-53804841D01*
X96281147Y-54104433D01*
X96951800Y-54237834D01*
X97622453Y-54104433D01*
X97949905Y-53885636D01*
X97932130Y-53975000D01*
X98095979Y-54798726D01*
X98562583Y-55497047D01*
X98975785Y-55773140D01*
X98878258Y-55773140D01*
X98878258Y-56224819D01*
X98627635Y-56412628D01*
X98324239Y-56866746D01*
X98431990Y-57148640D01*
X99510760Y-57148640D01*
X99510760Y-56598640D01*
X100610760Y-56598640D01*
X100610760Y-57148640D01*
X101689530Y-57148640D01*
X101797281Y-56866746D01*
X101493885Y-56412628D01*
X101243262Y-56224819D01*
X101243262Y-55796228D01*
X101691017Y-55497047D01*
X102157621Y-54798726D01*
X102321470Y-53975000D01*
X102157621Y-53151274D01*
X101771898Y-52574000D01*
X111183493Y-52574000D01*
X111003063Y-52754115D01*
X111003063Y-52754115D01*
G37*
X111003063Y-52754115D02*
X110674674Y-53544963D01*
X110673927Y-54401280D01*
X110681529Y-54419679D01*
X109300355Y-55800853D01*
X109158596Y-55703994D01*
X108780760Y-55627480D01*
X106580760Y-55627480D01*
X106227785Y-55693897D01*
X105903598Y-55902505D01*
X105686114Y-56220804D01*
X105609600Y-56598640D01*
X105609600Y-58798640D01*
X105676017Y-59151615D01*
X105884625Y-59475802D01*
X106202924Y-59693286D01*
X106580760Y-59769800D01*
X106596160Y-59769800D01*
X106249963Y-60115394D01*
X106158863Y-60133515D01*
X105768744Y-60394184D01*
X104472488Y-61690440D01*
X101366175Y-61690440D01*
X101341066Y-61644480D01*
X100379480Y-61644480D01*
X100379480Y-61690440D01*
X99579480Y-61690440D01*
X99579480Y-61644480D01*
X99179480Y-61644480D01*
X99179480Y-60844480D01*
X99579480Y-60844480D01*
X99579480Y-59875311D01*
X100379480Y-59875311D01*
X100379480Y-60844480D01*
X101341066Y-60844480D01*
X101473025Y-60602940D01*
X101143756Y-60110107D01*
X100621025Y-59750907D01*
X100379480Y-59875311D01*
X99579480Y-59875311D01*
X99337935Y-59750907D01*
X98885244Y-60061978D01*
X98722960Y-60061978D01*
X98722960Y-59271000D01*
X98675883Y-59020808D01*
X99228861Y-59435193D01*
X99510760Y-59337576D01*
X99510760Y-58248640D01*
X100610760Y-58248640D01*
X100610760Y-59337576D01*
X100892659Y-59435193D01*
X101493885Y-58984652D01*
X101797281Y-58530534D01*
X101689530Y-58248640D01*
X100610760Y-58248640D01*
X99510760Y-58248640D01*
X98431990Y-58248640D01*
X98330669Y-58513713D01*
X98129636Y-58376354D01*
X97751800Y-58299840D01*
X96151800Y-58299840D01*
X95798825Y-58366257D01*
X95474638Y-58574865D01*
X95334947Y-58779310D01*
X94941580Y-58516495D01*
X94700040Y-58648454D01*
X94700040Y-59610040D01*
X95100040Y-59610040D01*
X95100040Y-60410040D01*
X94700040Y-60410040D01*
X94700040Y-61371626D01*
X94941580Y-61503585D01*
X95281040Y-61276787D01*
X95455665Y-61548162D01*
X95773964Y-61765646D01*
X96151800Y-61842160D01*
X97751800Y-61842160D01*
X98046694Y-61786672D01*
X97886674Y-61893594D01*
X97713521Y-61995499D01*
X96183146Y-63360357D01*
X95554800Y-63235371D01*
X94807611Y-63383996D01*
X94523839Y-63573606D01*
X94482408Y-63532175D01*
X94179002Y-63406500D01*
X93721175Y-63406500D01*
X93514800Y-63612875D01*
X93514800Y-64882000D01*
X93663141Y-64882000D01*
X93602300Y-65187871D01*
X93602300Y-65876129D01*
X93663141Y-66182000D01*
X93514800Y-66182000D01*
X93514800Y-67451125D01*
X93721175Y-67657500D01*
X94179002Y-67657500D01*
X94482408Y-67531825D01*
X94523839Y-67490394D01*
X94807611Y-67680004D01*
X95554800Y-67828629D01*
X96301989Y-67680004D01*
X96935426Y-67256755D01*
X97358675Y-66623318D01*
X97507300Y-65876129D01*
X97507300Y-65401927D01*
X98972224Y-64095440D01*
X98978455Y-64095440D01*
X98842507Y-64298900D01*
X98705300Y-64988687D01*
X98705300Y-65059313D01*
X98842507Y-65749100D01*
X99233240Y-66333873D01*
X99328406Y-66397461D01*
X99396835Y-66741477D01*
X99657504Y-67131596D01*
X99954103Y-67428195D01*
X99563440Y-67689227D01*
X99172707Y-68274000D01*
X99035500Y-68963787D01*
X99035500Y-69034413D01*
X99153054Y-69625400D01*
X94449900Y-69625400D01*
X93989723Y-69716935D01*
X93599604Y-69977604D01*
X91951144Y-71626064D01*
X91690475Y-72016183D01*
X91598940Y-72476360D01*
X91598940Y-74886399D01*
X91479916Y-74805074D01*
X91211618Y-74750742D01*
X91139295Y-74345240D01*
X91176031Y-74308568D01*
X91443396Y-73664683D01*
X91444004Y-72967495D01*
X91177764Y-72323145D01*
X90685208Y-71829729D01*
X90041323Y-71562364D01*
X89556400Y-71561941D01*
X89556400Y-69646800D01*
X89523071Y-69479243D01*
X89507999Y-69309069D01*
X89477658Y-69250936D01*
X89464865Y-69186623D01*
X89369951Y-69044574D01*
X89290904Y-68893123D01*
X89006780Y-68539888D01*
X89096326Y-68324237D01*
X89097073Y-67467920D01*
X88770065Y-66676500D01*
X88482443Y-66388375D01*
X91189300Y-66388375D01*
X91189300Y-66996202D01*
X91314975Y-67299608D01*
X91547192Y-67531825D01*
X91850598Y-67657500D01*
X92308425Y-67657500D01*
X92514800Y-67451125D01*
X92514800Y-66182000D01*
X91395675Y-66182000D01*
X91189300Y-66388375D01*
X88482443Y-66388375D01*
X88165085Y-66070463D01*
X88105834Y-66045860D01*
X89344400Y-66045860D01*
X89697375Y-65979443D01*
X90021562Y-65770835D01*
X90239046Y-65452536D01*
X90315560Y-65074700D01*
X90315560Y-64067798D01*
X91189300Y-64067798D01*
X91189300Y-64675625D01*
X91395675Y-64882000D01*
X92514800Y-64882000D01*
X92514800Y-63612875D01*
X92308425Y-63406500D01*
X91850598Y-63406500D01*
X91547192Y-63532175D01*
X91314975Y-63764392D01*
X91189300Y-64067798D01*
X90315560Y-64067798D01*
X90315560Y-63474700D01*
X90249143Y-63121725D01*
X90040535Y-62797538D01*
X89953122Y-62737811D01*
X90082325Y-62608608D01*
X90208000Y-62305202D01*
X90208000Y-61947375D01*
X90001625Y-61741000D01*
X88982500Y-61741000D01*
X88982500Y-62141000D01*
X88182500Y-62141000D01*
X88182500Y-61741000D01*
X87163375Y-61741000D01*
X86957000Y-61947375D01*
X86957000Y-62305202D01*
X87082675Y-62608608D01*
X87180044Y-62705977D01*
X87067238Y-62778565D01*
X86849754Y-63096864D01*
X86773240Y-63474700D01*
X86773240Y-65074700D01*
X86839657Y-65427675D01*
X87041780Y-65741784D01*
X86517920Y-65741327D01*
X85726500Y-66068335D01*
X85120463Y-66673315D01*
X84792074Y-67464163D01*
X84791327Y-68320480D01*
X85118335Y-69111900D01*
X85373442Y-69367452D01*
X85130547Y-69415767D01*
X84561995Y-69795661D01*
X84182101Y-70364213D01*
X84048700Y-71034866D01*
X84048700Y-71103534D01*
X84182101Y-71774187D01*
X84561995Y-72342739D01*
X85130547Y-72722633D01*
X85801200Y-72856034D01*
X86471853Y-72722633D01*
X87040405Y-72342739D01*
X87151400Y-72176623D01*
X87151400Y-77561183D01*
X86795208Y-77204369D01*
X86151323Y-76937004D01*
X85454135Y-76936396D01*
X84809785Y-77202636D01*
X84467483Y-77544341D01*
X84362964Y-77291385D01*
X83870408Y-76797969D01*
X83226523Y-76530604D01*
X82529335Y-76529996D01*
X81884985Y-76796236D01*
X81391569Y-77288792D01*
X81124204Y-77932677D01*
X81123618Y-78604300D01*
X79870210Y-78604300D01*
X79533309Y-78267398D01*
X79412698Y-77661042D01*
X79145476Y-77579409D01*
X78442085Y-78282800D01*
X78724928Y-78565643D01*
X78686271Y-78604300D01*
X77066529Y-78604300D01*
X77027872Y-78565643D01*
X77310715Y-78282800D01*
X77027872Y-77999957D01*
X77593557Y-77434272D01*
X77876400Y-77717115D01*
X78579791Y-77013724D01*
X78498158Y-76746502D01*
X77898128Y-76632217D01*
X77545033Y-76279123D01*
X77478700Y-76345456D01*
X77478700Y-72237600D01*
X79493166Y-72237600D01*
X79626567Y-72908253D01*
X80006461Y-73476805D01*
X80575013Y-73856699D01*
X81245666Y-73990100D01*
X81314334Y-73990100D01*
X81984987Y-73856699D01*
X82553539Y-73476805D01*
X82933433Y-72908253D01*
X83066834Y-72237600D01*
X82933433Y-71566947D01*
X82553539Y-70998395D01*
X81984987Y-70618501D01*
X81314334Y-70485100D01*
X81245666Y-70485100D01*
X80575013Y-70618501D01*
X80006461Y-70998395D01*
X79626567Y-71566947D01*
X79493166Y-72237600D01*
X77478700Y-72237600D01*
X77478700Y-70053200D01*
X77473247Y-70025784D01*
X77477439Y-69998149D01*
X77129994Y-62416731D01*
X77382777Y-62521696D01*
X78079965Y-62522304D01*
X78724315Y-62256064D01*
X79217731Y-61763508D01*
X79246112Y-61695158D01*
X79309067Y-62011653D01*
X79688961Y-62580205D01*
X80010606Y-62795121D01*
X79650861Y-63035495D01*
X79270967Y-63604047D01*
X79137566Y-64274700D01*
X79270967Y-64945353D01*
X79650861Y-65513905D01*
X80219413Y-65893799D01*
X80890066Y-66027200D01*
X80958734Y-66027200D01*
X81629387Y-65893799D01*
X82197939Y-65513905D01*
X82577833Y-64945353D01*
X82711234Y-64274700D01*
X82577833Y-63604047D01*
X82197939Y-63035495D01*
X81876294Y-62820579D01*
X82236039Y-62580205D01*
X82615933Y-62011653D01*
X82749334Y-61341000D01*
X82615933Y-60670347D01*
X82343390Y-60262457D01*
X87030051Y-60200437D01*
X86957000Y-60376798D01*
X86957000Y-60734625D01*
X87163375Y-60941000D01*
X88182500Y-60941000D01*
X88182500Y-60541000D01*
X88982500Y-60541000D01*
X88982500Y-60941000D01*
X90001625Y-60941000D01*
X90208000Y-60734625D01*
X90208000Y-60651585D01*
X92806467Y-60651585D01*
X93165667Y-61174316D01*
X93658500Y-61503585D01*
X93900040Y-61371626D01*
X93900040Y-60410040D01*
X92930871Y-60410040D01*
X92806467Y-60651585D01*
X90208000Y-60651585D01*
X90208000Y-60376798D01*
X90085264Y-60080486D01*
X90461496Y-59829096D01*
X90922097Y-59368495D01*
X92806467Y-59368495D01*
X92930871Y-59610040D01*
X93900040Y-59610040D01*
X93900040Y-58648454D01*
X93658500Y-58516495D01*
X93165667Y-58845764D01*
X92806467Y-59368495D01*
X90922097Y-59368495D01*
X93128496Y-57162096D01*
X93279351Y-56936325D01*
X93389165Y-56771977D01*
X93480700Y-56311800D01*
X93480700Y-54157284D01*
X93500040Y-54161200D01*
X95100040Y-54161200D01*
X95453015Y-54094783D01*
X95777202Y-53886175D01*
X95832775Y-53804841D01*
X96281147Y-54104433D01*
X96951800Y-54237834D01*
X97622453Y-54104433D01*
X97949905Y-53885636D01*
X97932130Y-53975000D01*
X98095979Y-54798726D01*
X98562583Y-55497047D01*
X98975785Y-55773140D01*
X98878258Y-55773140D01*
X98878258Y-56224819D01*
X98627635Y-56412628D01*
X98324239Y-56866746D01*
X98431990Y-57148640D01*
X99510760Y-57148640D01*
X99510760Y-56598640D01*
X100610760Y-56598640D01*
X100610760Y-57148640D01*
X101689530Y-57148640D01*
X101797281Y-56866746D01*
X101493885Y-56412628D01*
X101243262Y-56224819D01*
X101243262Y-55796228D01*
X101691017Y-55497047D01*
X102157621Y-54798726D01*
X102321470Y-53975000D01*
X102157621Y-53151274D01*
X101771898Y-52574000D01*
X111183493Y-52574000D01*
X111003063Y-52754115D01*
G36*
X117300123Y-52961633D02*
X117646891Y-53308402D01*
X117767502Y-53914758D01*
X118034724Y-53996391D01*
X118738115Y-53293000D01*
X118455272Y-53010157D01*
X118891429Y-52574000D01*
X119150485Y-52574000D01*
X119303800Y-52727315D01*
X119457115Y-52574000D01*
X119716171Y-52574000D01*
X120152328Y-53010157D01*
X119869485Y-53293000D01*
X120572876Y-53996391D01*
X120840098Y-53914758D01*
X120954383Y-53314728D01*
X121307477Y-52961633D01*
X120919844Y-52574000D01*
X123054300Y-52574000D01*
X123054300Y-54864000D01*
X123089404Y-55040479D01*
X123108034Y-55219448D01*
X123134851Y-55268956D01*
X123145835Y-55324177D01*
X123245804Y-55473791D01*
X123331503Y-55632004D01*
X123375222Y-55667479D01*
X123406504Y-55714296D01*
X123556116Y-55814263D01*
X123695839Y-55927640D01*
X124007010Y-56091750D01*
X124253596Y-56688535D01*
X124746152Y-57181951D01*
X125390037Y-57449316D01*
X125792115Y-57449667D01*
X128855760Y-60513312D01*
X128715042Y-60541302D01*
X128633409Y-60808524D01*
X129336800Y-61511915D01*
X129595582Y-61253134D01*
X130161267Y-61818819D01*
X129902485Y-62077600D01*
X130060310Y-62235425D01*
X130010504Y-62268704D01*
X129486362Y-62792847D01*
X129336800Y-62643285D01*
X129174585Y-62805500D01*
X128933329Y-62805500D01*
X128488272Y-62360443D01*
X128771115Y-62077600D01*
X128067724Y-61374209D01*
X127800502Y-61455842D01*
X127706864Y-61947472D01*
X126986696Y-61227304D01*
X126596577Y-60966635D01*
X126136400Y-60875100D01*
X123014864Y-60875100D01*
X122990339Y-60838395D01*
X122421787Y-60458501D01*
X121751134Y-60325100D01*
X121682466Y-60325100D01*
X121011813Y-60458501D01*
X120863501Y-60557600D01*
X120703464Y-60557600D01*
X120678939Y-60520895D01*
X120110387Y-60141001D01*
X119724081Y-60064160D01*
X120103800Y-60064160D01*
X120456775Y-59997743D01*
X120780962Y-59789135D01*
X120998446Y-59470836D01*
X121074960Y-59093000D01*
X121074960Y-57493000D01*
X121008543Y-57140025D01*
X120799935Y-56815838D01*
X120481636Y-56598354D01*
X120103800Y-56521840D01*
X119233232Y-56521840D01*
X117273468Y-54562076D01*
X118600409Y-54562076D01*
X118682042Y-54829298D01*
X119317286Y-54950290D01*
X119925558Y-54829298D01*
X120007191Y-54562076D01*
X119303800Y-53858685D01*
X118600409Y-54562076D01*
X117273468Y-54562076D01*
X115836096Y-53124704D01*
X115445977Y-52864035D01*
X114985800Y-52772500D01*
X114658946Y-52772500D01*
X114652665Y-52757300D01*
X114469685Y-52574000D01*
X117687756Y-52574000D01*
X117300123Y-52961633D01*
X117300123Y-52961633D01*
G37*
X117300123Y-52961633D02*
X117646891Y-53308402D01*
X117767502Y-53914758D01*
X118034724Y-53996391D01*
X118738115Y-53293000D01*
X118455272Y-53010157D01*
X118891429Y-52574000D01*
X119150485Y-52574000D01*
X119303800Y-52727315D01*
X119457115Y-52574000D01*
X119716171Y-52574000D01*
X120152328Y-53010157D01*
X119869485Y-53293000D01*
X120572876Y-53996391D01*
X120840098Y-53914758D01*
X120954383Y-53314728D01*
X121307477Y-52961633D01*
X120919844Y-52574000D01*
X123054300Y-52574000D01*
X123054300Y-54864000D01*
X123089404Y-55040479D01*
X123108034Y-55219448D01*
X123134851Y-55268956D01*
X123145835Y-55324177D01*
X123245804Y-55473791D01*
X123331503Y-55632004D01*
X123375222Y-55667479D01*
X123406504Y-55714296D01*
X123556116Y-55814263D01*
X123695839Y-55927640D01*
X124007010Y-56091750D01*
X124253596Y-56688535D01*
X124746152Y-57181951D01*
X125390037Y-57449316D01*
X125792115Y-57449667D01*
X128855760Y-60513312D01*
X128715042Y-60541302D01*
X128633409Y-60808524D01*
X129336800Y-61511915D01*
X129595582Y-61253134D01*
X130161267Y-61818819D01*
X129902485Y-62077600D01*
X130060310Y-62235425D01*
X130010504Y-62268704D01*
X129486362Y-62792847D01*
X129336800Y-62643285D01*
X129174585Y-62805500D01*
X128933329Y-62805500D01*
X128488272Y-62360443D01*
X128771115Y-62077600D01*
X128067724Y-61374209D01*
X127800502Y-61455842D01*
X127706864Y-61947472D01*
X126986696Y-61227304D01*
X126596577Y-60966635D01*
X126136400Y-60875100D01*
X123014864Y-60875100D01*
X122990339Y-60838395D01*
X122421787Y-60458501D01*
X121751134Y-60325100D01*
X121682466Y-60325100D01*
X121011813Y-60458501D01*
X120863501Y-60557600D01*
X120703464Y-60557600D01*
X120678939Y-60520895D01*
X120110387Y-60141001D01*
X119724081Y-60064160D01*
X120103800Y-60064160D01*
X120456775Y-59997743D01*
X120780962Y-59789135D01*
X120998446Y-59470836D01*
X121074960Y-59093000D01*
X121074960Y-57493000D01*
X121008543Y-57140025D01*
X120799935Y-56815838D01*
X120481636Y-56598354D01*
X120103800Y-56521840D01*
X119233232Y-56521840D01*
X117273468Y-54562076D01*
X118600409Y-54562076D01*
X118682042Y-54829298D01*
X119317286Y-54950290D01*
X119925558Y-54829298D01*
X120007191Y-54562076D01*
X119303800Y-53858685D01*
X118600409Y-54562076D01*
X117273468Y-54562076D01*
X115836096Y-53124704D01*
X115445977Y-52864035D01*
X114985800Y-52772500D01*
X114658946Y-52772500D01*
X114652665Y-52757300D01*
X114469685Y-52574000D01*
X117687756Y-52574000D01*
X117300123Y-52961633D01*
G36*
X132076461Y-51338795D02*
X131696567Y-51907347D01*
X131563166Y-52578000D01*
X131696567Y-53248653D01*
X132076461Y-53817205D01*
X132560987Y-54140954D01*
X132086621Y-54457915D01*
X131706727Y-55026467D01*
X131573326Y-55697120D01*
X131706727Y-56367773D01*
X132086621Y-56936325D01*
X132655173Y-57316219D01*
X133325826Y-57449620D01*
X133394494Y-57449620D01*
X133646434Y-57399506D01*
X133764624Y-57517696D01*
X133828959Y-57560683D01*
X133879783Y-57619019D01*
X134022351Y-57689904D01*
X134154743Y-57778365D01*
X134230631Y-57793460D01*
X134299911Y-57827906D01*
X134458755Y-57838837D01*
X134614920Y-57869900D01*
X134690806Y-57854805D01*
X134767996Y-57860117D01*
X135757665Y-57733101D01*
X135739300Y-57777438D01*
X135739300Y-58185265D01*
X135945675Y-58391640D01*
X137014800Y-58391640D01*
X137014800Y-58120641D01*
X137094698Y-58153818D01*
X137831668Y-58154461D01*
X137914800Y-58120112D01*
X137914800Y-58391640D01*
X138983925Y-58391640D01*
X139190300Y-58185265D01*
X139190300Y-57777438D01*
X139064625Y-57474032D01*
X138988619Y-57398026D01*
X139034358Y-57352367D01*
X139316978Y-56671742D01*
X139317621Y-55934772D01*
X139039320Y-55261233D01*
X139120505Y-55180048D01*
X139246180Y-54876642D01*
X139246180Y-54468815D01*
X139039805Y-54262440D01*
X137970680Y-54262440D01*
X137970680Y-54505842D01*
X137834902Y-54449462D01*
X137097932Y-54448819D01*
X137070680Y-54460079D01*
X137070680Y-54262440D01*
X136001555Y-54262440D01*
X135795180Y-54468815D01*
X135795180Y-54876642D01*
X135920855Y-55180048D01*
X135943523Y-55202716D01*
X135895242Y-55250913D01*
X135877783Y-55292958D01*
X135086794Y-55394475D01*
X135013593Y-55026467D01*
X134633699Y-54457915D01*
X134149173Y-54134166D01*
X134623539Y-53817205D01*
X135003433Y-53248653D01*
X135091453Y-52806146D01*
X135810523Y-52711196D01*
X135795180Y-52748238D01*
X135795180Y-53156065D01*
X136001555Y-53362440D01*
X137070680Y-53362440D01*
X137070680Y-53091441D01*
X137150578Y-53124618D01*
X137887548Y-53125261D01*
X137970680Y-53090912D01*
X137970680Y-53362440D01*
X139039805Y-53362440D01*
X139246180Y-53156065D01*
X139246180Y-52748238D01*
X139120505Y-52444832D01*
X139044499Y-52368826D01*
X139090238Y-52323167D01*
X139372858Y-51642542D01*
X139373395Y-51027500D01*
X144861011Y-51027500D01*
X144108100Y-51780411D01*
X144381378Y-52053689D01*
X144193717Y-52216961D01*
X144107676Y-53350485D01*
X144193717Y-53783039D01*
X144507295Y-54055864D01*
X145563159Y-53000000D01*
X145431284Y-52868125D01*
X146868125Y-51431284D01*
X147000000Y-51563159D01*
X147131876Y-51431284D01*
X148568717Y-52868125D01*
X148436841Y-53000000D01*
X148568717Y-53131876D01*
X147131876Y-54568717D01*
X147000000Y-54436841D01*
X145944136Y-55492705D01*
X146216961Y-55806283D01*
X147350485Y-55892324D01*
X147783039Y-55806283D01*
X147946311Y-55618622D01*
X148219589Y-55891900D01*
X148972500Y-55138989D01*
X148972500Y-59054900D01*
X148266200Y-59054900D01*
X148266200Y-58654900D01*
X147304614Y-58654900D01*
X147172655Y-58896440D01*
X147291446Y-59074240D01*
X142603560Y-59074240D01*
X142798396Y-58605023D01*
X142799004Y-57907835D01*
X142677330Y-57613360D01*
X147172655Y-57613360D01*
X147304614Y-57854900D01*
X148266200Y-57854900D01*
X148266200Y-56885731D01*
X148024655Y-56761327D01*
X147501924Y-57120527D01*
X147172655Y-57613360D01*
X142677330Y-57613360D01*
X142532764Y-57263485D01*
X142040208Y-56770069D01*
X141396323Y-56502704D01*
X140699135Y-56502096D01*
X140054785Y-56768336D01*
X139561369Y-57260892D01*
X139294004Y-57904777D01*
X139293396Y-58601965D01*
X139488536Y-59074240D01*
X133402060Y-59074240D01*
X132941883Y-59165775D01*
X132585406Y-59403965D01*
X132551764Y-59426444D01*
X132072164Y-59906044D01*
X131673235Y-59905696D01*
X131656318Y-59912686D01*
X127492616Y-55748984D01*
X127492964Y-55350055D01*
X127226724Y-54705705D01*
X126734168Y-54212289D01*
X126549488Y-54135603D01*
X126721415Y-54064564D01*
X127214831Y-53572008D01*
X127482196Y-52928123D01*
X127482804Y-52230935D01*
X127216564Y-51586585D01*
X126932500Y-51302025D01*
X126932500Y-51257200D01*
X126886810Y-51027500D01*
X132542347Y-51027500D01*
X132076461Y-51338795D01*
X132076461Y-51338795D01*
G37*
X132076461Y-51338795D02*
X131696567Y-51907347D01*
X131563166Y-52578000D01*
X131696567Y-53248653D01*
X132076461Y-53817205D01*
X132560987Y-54140954D01*
X132086621Y-54457915D01*
X131706727Y-55026467D01*
X131573326Y-55697120D01*
X131706727Y-56367773D01*
X132086621Y-56936325D01*
X132655173Y-57316219D01*
X133325826Y-57449620D01*
X133394494Y-57449620D01*
X133646434Y-57399506D01*
X133764624Y-57517696D01*
X133828959Y-57560683D01*
X133879783Y-57619019D01*
X134022351Y-57689904D01*
X134154743Y-57778365D01*
X134230631Y-57793460D01*
X134299911Y-57827906D01*
X134458755Y-57838837D01*
X134614920Y-57869900D01*
X134690806Y-57854805D01*
X134767996Y-57860117D01*
X135757665Y-57733101D01*
X135739300Y-57777438D01*
X135739300Y-58185265D01*
X135945675Y-58391640D01*
X137014800Y-58391640D01*
X137014800Y-58120641D01*
X137094698Y-58153818D01*
X137831668Y-58154461D01*
X137914800Y-58120112D01*
X137914800Y-58391640D01*
X138983925Y-58391640D01*
X139190300Y-58185265D01*
X139190300Y-57777438D01*
X139064625Y-57474032D01*
X138988619Y-57398026D01*
X139034358Y-57352367D01*
X139316978Y-56671742D01*
X139317621Y-55934772D01*
X139039320Y-55261233D01*
X139120505Y-55180048D01*
X139246180Y-54876642D01*
X139246180Y-54468815D01*
X139039805Y-54262440D01*
X137970680Y-54262440D01*
X137970680Y-54505842D01*
X137834902Y-54449462D01*
X137097932Y-54448819D01*
X137070680Y-54460079D01*
X137070680Y-54262440D01*
X136001555Y-54262440D01*
X135795180Y-54468815D01*
X135795180Y-54876642D01*
X135920855Y-55180048D01*
X135943523Y-55202716D01*
X135895242Y-55250913D01*
X135877783Y-55292958D01*
X135086794Y-55394475D01*
X135013593Y-55026467D01*
X134633699Y-54457915D01*
X134149173Y-54134166D01*
X134623539Y-53817205D01*
X135003433Y-53248653D01*
X135091453Y-52806146D01*
X135810523Y-52711196D01*
X135795180Y-52748238D01*
X135795180Y-53156065D01*
X136001555Y-53362440D01*
X137070680Y-53362440D01*
X137070680Y-53091441D01*
X137150578Y-53124618D01*
X137887548Y-53125261D01*
X137970680Y-53090912D01*
X137970680Y-53362440D01*
X139039805Y-53362440D01*
X139246180Y-53156065D01*
X139246180Y-52748238D01*
X139120505Y-52444832D01*
X139044499Y-52368826D01*
X139090238Y-52323167D01*
X139372858Y-51642542D01*
X139373395Y-51027500D01*
X144861011Y-51027500D01*
X144108100Y-51780411D01*
X144381378Y-52053689D01*
X144193717Y-52216961D01*
X144107676Y-53350485D01*
X144193717Y-53783039D01*
X144507295Y-54055864D01*
X145563159Y-53000000D01*
X145431284Y-52868125D01*
X146868125Y-51431284D01*
X147000000Y-51563159D01*
X147131876Y-51431284D01*
X148568717Y-52868125D01*
X148436841Y-53000000D01*
X148568717Y-53131876D01*
X147131876Y-54568717D01*
X147000000Y-54436841D01*
X145944136Y-55492705D01*
X146216961Y-55806283D01*
X147350485Y-55892324D01*
X147783039Y-55806283D01*
X147946311Y-55618622D01*
X148219589Y-55891900D01*
X148972500Y-55138989D01*
X148972500Y-59054900D01*
X148266200Y-59054900D01*
X148266200Y-58654900D01*
X147304614Y-58654900D01*
X147172655Y-58896440D01*
X147291446Y-59074240D01*
X142603560Y-59074240D01*
X142798396Y-58605023D01*
X142799004Y-57907835D01*
X142677330Y-57613360D01*
X147172655Y-57613360D01*
X147304614Y-57854900D01*
X148266200Y-57854900D01*
X148266200Y-56885731D01*
X148024655Y-56761327D01*
X147501924Y-57120527D01*
X147172655Y-57613360D01*
X142677330Y-57613360D01*
X142532764Y-57263485D01*
X142040208Y-56770069D01*
X141396323Y-56502704D01*
X140699135Y-56502096D01*
X140054785Y-56768336D01*
X139561369Y-57260892D01*
X139294004Y-57904777D01*
X139293396Y-58601965D01*
X139488536Y-59074240D01*
X133402060Y-59074240D01*
X132941883Y-59165775D01*
X132585406Y-59403965D01*
X132551764Y-59426444D01*
X132072164Y-59906044D01*
X131673235Y-59905696D01*
X131656318Y-59912686D01*
X127492616Y-55748984D01*
X127492964Y-55350055D01*
X127226724Y-54705705D01*
X126734168Y-54212289D01*
X126549488Y-54135603D01*
X126721415Y-54064564D01*
X127214831Y-53572008D01*
X127482196Y-52928123D01*
X127482804Y-52230935D01*
X127216564Y-51586585D01*
X126932500Y-51302025D01*
X126932500Y-51257200D01*
X126886810Y-51027500D01*
X132542347Y-51027500D01*
X132076461Y-51338795D01*
M02*
