G04 #@! TF.FileFunction,Soldermask,Top*
%FSLAX46Y46*%
G04 Gerber Fmt 4.6, Leading zero omitted, Abs format (unit mm)*
G04 Created by KiCad (PCBNEW 4.0.7) date 06/09/19 09:30:05*
%MOMM*%
%LPD*%
G01*
G04 APERTURE LIST*
%ADD10C,0.100000*%
%ADD11C,1.840000*%
%ADD12C,2.000000*%
%ADD13O,2.000000X2.000000*%
%ADD14R,3.400000X3.400000*%
%ADD15C,3.400000*%
%ADD16C,2.800000*%
%ADD17O,2.800000X2.800000*%
%ADD18R,3.000000X3.000000*%
%ADD19O,3.000000X3.000000*%
%ADD20R,2.000000X2.000000*%
%ADD21R,2.600000X2.600000*%
%ADD22O,2.600000X2.600000*%
%ADD23R,2.200000X2.200000*%
%ADD24C,2.200000*%
%ADD25C,1.400000*%
%ADD26R,1.400000X1.400000*%
%ADD27C,2.900000*%
%ADD28R,2.800000X2.800000*%
%ADD29C,4.464000*%
%ADD30O,2.200000X2.200000*%
%ADD31R,2.200000X3.400000*%
%ADD32R,2.100000X2.100000*%
%ADD33O,2.100000X2.100000*%
G04 APERTURE END LIST*
D10*
D11*
X99314000Y-95504000D03*
X101854000Y-95504000D03*
X104394000Y-95504000D03*
D12*
X107635040Y-100203000D03*
D13*
X115255040Y-100203000D03*
D12*
X130708400Y-80060800D03*
X125708400Y-80060800D03*
X119761000Y-79629000D03*
D13*
X119761000Y-87249000D03*
D14*
X143611600Y-99910900D03*
D15*
X143611600Y-104990900D03*
X143611600Y-110070900D03*
D16*
X75107800Y-135178800D03*
D17*
X103047800Y-135178800D03*
D12*
X123190000Y-76835000D03*
X123190000Y-71835000D03*
X122936000Y-84455000D03*
X122936000Y-79455000D03*
X95250000Y-72964040D03*
X90250000Y-72964040D03*
X116342160Y-74711560D03*
X111342160Y-74711560D03*
D18*
X68300600Y-70662800D03*
D19*
X53060600Y-70662800D03*
D18*
X68122800Y-128905000D03*
D19*
X52882800Y-128905000D03*
D18*
X53111400Y-76352400D03*
D19*
X68351400Y-76352400D03*
D18*
X52933600Y-122859800D03*
D19*
X68173600Y-122859800D03*
D20*
X89662000Y-61468000D03*
D13*
X82042000Y-61468000D03*
D20*
X89855040Y-64373760D03*
D13*
X82235040Y-64373760D03*
D21*
X91630500Y-93218000D03*
D22*
X91630500Y-100838000D03*
D20*
X96520000Y-68834000D03*
D13*
X104140000Y-68834000D03*
D21*
X137160000Y-84836000D03*
D22*
X129540000Y-84836000D03*
D23*
X137541000Y-54229000D03*
D24*
X137541000Y-51689000D03*
D14*
X65455800Y-104902000D03*
D15*
X65455800Y-99822000D03*
X65455800Y-94742000D03*
D14*
X144373600Y-128117600D03*
D15*
X144373600Y-133197600D03*
D25*
X118745000Y-91567000D03*
X120015000Y-90297000D03*
D26*
X120015000Y-92837000D03*
D25*
X73914000Y-76301600D03*
X75184000Y-77571600D03*
D26*
X72644000Y-77571600D03*
D12*
X87439500Y-122618500D03*
D13*
X87439500Y-114998500D03*
D16*
X73647300Y-53479700D03*
D17*
X86347300Y-53479700D03*
D16*
X86944200Y-67894200D03*
D17*
X74244200Y-67894200D03*
D12*
X95186500Y-100965000D03*
D13*
X95186500Y-93345000D03*
D12*
X98044000Y-88138000D03*
D13*
X105664000Y-88138000D03*
D12*
X98044000Y-91440000D03*
D13*
X105664000Y-91440000D03*
D16*
X90678000Y-111760000D03*
D17*
X118618000Y-111760000D03*
D12*
X130683000Y-72136000D03*
D13*
X138303000Y-72136000D03*
D12*
X109301280Y-71302880D03*
D13*
X116921280Y-71302880D03*
D12*
X106619040Y-105780840D03*
D13*
X114239040Y-105780840D03*
D12*
X124548900Y-105702100D03*
D13*
X116928900Y-105702100D03*
D12*
X127063500Y-96647000D03*
D13*
X127063500Y-89027000D03*
D16*
X123748800Y-109971840D03*
D17*
X136448800Y-109971840D03*
D12*
X138696700Y-66548000D03*
D13*
X131076700Y-66548000D03*
D12*
X104902000Y-85090000D03*
D13*
X104902000Y-77470000D03*
D12*
X73660000Y-72237600D03*
D13*
X81280000Y-72237600D03*
D12*
X85801200Y-78689200D03*
D13*
X85801200Y-71069200D03*
D12*
X101600000Y-85090000D03*
D13*
X101600000Y-77470000D03*
D12*
X125730000Y-52578000D03*
D13*
X133350000Y-52578000D03*
D27*
X142938500Y-86915000D03*
X142938500Y-91915000D03*
X142938500Y-81915000D03*
X142684500Y-69922400D03*
X142684500Y-74922400D03*
X142684500Y-64922400D03*
D20*
X90302080Y-76499720D03*
D13*
X97922080Y-84119720D03*
X90302080Y-79039720D03*
X97922080Y-81579720D03*
X90302080Y-81579720D03*
X97922080Y-79039720D03*
X90302080Y-84119720D03*
X97922080Y-76499720D03*
D20*
X116332000Y-79248000D03*
D13*
X108712000Y-86868000D03*
X113792000Y-79248000D03*
X111252000Y-86868000D03*
X111252000Y-79248000D03*
X113792000Y-86868000D03*
X108712000Y-79248000D03*
X116332000Y-86868000D03*
D20*
X90246200Y-54533800D03*
D12*
X95246200Y-54533800D03*
D20*
X73482200Y-60794900D03*
D12*
X78482200Y-60794900D03*
D20*
X136652000Y-90932000D03*
D12*
X131652000Y-90932000D03*
D18*
X68046600Y-140817600D03*
D19*
X52806600Y-140817600D03*
D18*
X52933600Y-116916200D03*
D19*
X68173600Y-116916200D03*
D18*
X68046600Y-134848600D03*
D19*
X52806600Y-134848600D03*
D18*
X52959000Y-110947200D03*
D19*
X68199000Y-110947200D03*
D18*
X68351400Y-58902600D03*
D19*
X53111400Y-58902600D03*
D18*
X53263800Y-88265000D03*
D19*
X68503800Y-88265000D03*
D18*
X68326000Y-64795400D03*
D19*
X53086000Y-64795400D03*
D18*
X53136800Y-82296000D03*
D19*
X68376800Y-82296000D03*
D28*
X78143100Y-104457500D03*
D16*
X78143100Y-96957500D03*
D12*
X109082840Y-97307400D03*
D13*
X109082840Y-89687400D03*
D16*
X76555600Y-127457200D03*
D17*
X104495600Y-127457200D03*
D16*
X133985000Y-135191500D03*
D17*
X106045000Y-135191500D03*
D16*
X135763000Y-127508000D03*
D17*
X107823000Y-127508000D03*
D28*
X78333600Y-118211600D03*
D16*
X78333600Y-110711600D03*
D28*
X78181200Y-90754200D03*
D16*
X78181200Y-83254200D03*
D29*
X53000000Y-53000000D03*
X53000000Y-147000000D03*
X147000000Y-53000000D03*
X147000000Y-147000000D03*
D20*
X117576600Y-56352440D03*
D12*
X122576600Y-56352440D03*
D14*
X118630700Y-64452500D03*
D15*
X123710700Y-64452500D03*
D12*
X114046000Y-54356000D03*
D13*
X114046000Y-61976000D03*
D23*
X137668000Y-60452000D03*
D24*
X137668000Y-57912000D03*
D12*
X125730000Y-56388000D03*
D13*
X133350000Y-56388000D03*
D21*
X110490000Y-54102000D03*
D22*
X110490000Y-61722000D03*
D16*
X106781600Y-65773300D03*
D17*
X106781600Y-53073300D03*
D20*
X100076000Y-61722000D03*
D13*
X92456000Y-61722000D03*
D20*
X92456000Y-64516000D03*
D13*
X100076000Y-64516000D03*
D11*
X89471500Y-88836500D03*
X92011500Y-88836500D03*
X94551500Y-88836500D03*
D12*
X77876400Y-78282800D03*
X82876400Y-78282800D03*
D21*
X86868000Y-102565200D03*
D22*
X86868000Y-94945200D03*
D23*
X137058400Y-145796000D03*
D30*
X134518400Y-145796000D03*
X131978400Y-145796000D03*
D31*
X137058400Y-148336000D03*
X134518400Y-148336000D03*
X131978400Y-148336000D03*
D23*
X100965000Y-145770600D03*
D30*
X98425000Y-145770600D03*
X95885000Y-145770600D03*
D31*
X100965000Y-148310600D03*
X98425000Y-148310600D03*
X95885000Y-148310600D03*
D23*
X118999000Y-145770600D03*
D30*
X116459000Y-145770600D03*
X113919000Y-145770600D03*
D31*
X118999000Y-148310600D03*
X116459000Y-148310600D03*
X113919000Y-148310600D03*
D23*
X83058000Y-145770600D03*
D30*
X80518000Y-145770600D03*
X77978000Y-145770600D03*
D31*
X83058000Y-148310600D03*
X80518000Y-148310600D03*
X77978000Y-148310600D03*
D23*
X64770000Y-145821400D03*
D30*
X62230000Y-145821400D03*
X59690000Y-145821400D03*
D31*
X64770000Y-148361400D03*
X62230000Y-148361400D03*
X59690000Y-148361400D03*
D32*
X86893400Y-81762600D03*
D33*
X86893400Y-84302600D03*
D12*
X112430560Y-89743280D03*
D13*
X112430560Y-97363280D03*
D12*
X115595400Y-89804240D03*
D13*
X115595400Y-97424240D03*
D32*
X119725440Y-76611480D03*
D33*
X119725440Y-74071480D03*
M02*
