G04 #@! TF.FileFunction,Copper,L2,Bot,Signal*
%FSLAX46Y46*%
G04 Gerber Fmt 4.6, Leading zero omitted, Abs format (unit mm)*
G04 Created by KiCad (PCBNEW 4.0.7) date 06/01/19 09:45:53*
%MOMM*%
%LPD*%
G01*
G04 APERTURE LIST*
%ADD10C,0.100000*%
%ADD11C,1.600000*%
%ADD12O,1.600000X1.600000*%
%ADD13R,3.000000X3.000000*%
%ADD14C,3.000000*%
%ADD15C,2.400000*%
%ADD16O,2.400000X2.400000*%
%ADD17R,2.600000X2.600000*%
%ADD18O,2.600000X2.600000*%
%ADD19R,1.600000X1.600000*%
%ADD20R,2.200000X2.200000*%
%ADD21O,2.200000X2.200000*%
%ADD22R,1.800000X1.800000*%
%ADD23C,1.800000*%
%ADD24C,1.000000*%
%ADD25R,1.000000X1.000000*%
%ADD26C,2.500000*%
%ADD27R,2.400000X2.400000*%
%ADD28C,4.064000*%
%ADD29C,1.440000*%
%ADD30O,1.800000X1.800000*%
%ADD31R,1.700000X1.700000*%
%ADD32O,1.700000X1.700000*%
%ADD33C,4.000000*%
%ADD34C,2.000000*%
%ADD35C,0.500000*%
%ADD36C,1.000000*%
G04 APERTURE END LIST*
D10*
D11*
X130708400Y-80060800D03*
X125708400Y-80060800D03*
X119761000Y-79629000D03*
D12*
X119761000Y-87249000D03*
D13*
X143611600Y-99910900D03*
D14*
X143611600Y-104990900D03*
X143611600Y-110070900D03*
D15*
X75107800Y-135178800D03*
D16*
X103047800Y-135178800D03*
D11*
X123190000Y-76835000D03*
X123190000Y-71835000D03*
X122936000Y-84455000D03*
X122936000Y-79455000D03*
X95250000Y-72964040D03*
X90250000Y-72964040D03*
X118033800Y-74752200D03*
X113033800Y-74752200D03*
D17*
X68300600Y-70662800D03*
D18*
X53060600Y-70662800D03*
D17*
X68122800Y-128905000D03*
D18*
X52882800Y-128905000D03*
D17*
X53111400Y-76352400D03*
D18*
X68351400Y-76352400D03*
D17*
X52933600Y-122859800D03*
D18*
X68173600Y-122859800D03*
D19*
X89662000Y-61468000D03*
D12*
X82042000Y-61468000D03*
D19*
X89855040Y-64373760D03*
D12*
X82235040Y-64373760D03*
D20*
X91630500Y-93218000D03*
D21*
X91630500Y-100838000D03*
D19*
X96520000Y-68834000D03*
D12*
X104140000Y-68834000D03*
D20*
X137160000Y-84836000D03*
D21*
X129540000Y-84836000D03*
D22*
X137541000Y-54229000D03*
D23*
X137541000Y-51689000D03*
D13*
X65455800Y-104902000D03*
D14*
X65455800Y-99822000D03*
X65455800Y-94742000D03*
D13*
X144373600Y-128117600D03*
D14*
X144373600Y-133197600D03*
D24*
X118745000Y-91567000D03*
X120015000Y-90297000D03*
D25*
X120015000Y-92837000D03*
D24*
X73914000Y-76301600D03*
X75184000Y-77571600D03*
D25*
X72644000Y-77571600D03*
D11*
X87439500Y-122618500D03*
D12*
X87439500Y-114998500D03*
D15*
X73647300Y-53479700D03*
D16*
X86347300Y-53479700D03*
D15*
X86944200Y-67894200D03*
D16*
X74244200Y-67894200D03*
D11*
X95186500Y-100965000D03*
D12*
X95186500Y-93345000D03*
D11*
X98044000Y-88138000D03*
D12*
X105664000Y-88138000D03*
D11*
X98044000Y-91440000D03*
D12*
X105664000Y-91440000D03*
D15*
X90678000Y-111760000D03*
D16*
X118618000Y-111760000D03*
D11*
X130683000Y-72136000D03*
D12*
X138303000Y-72136000D03*
D11*
X112509300Y-71437500D03*
D12*
X120129300Y-71437500D03*
D11*
X106553000Y-97790000D03*
D12*
X114173000Y-97790000D03*
D11*
X124333000Y-99695000D03*
D12*
X116713000Y-99695000D03*
D11*
X127063500Y-96647000D03*
D12*
X127063500Y-89027000D03*
D15*
X123748800Y-109971840D03*
D16*
X136448800Y-109971840D03*
D11*
X138696700Y-66548000D03*
D12*
X131076700Y-66548000D03*
D11*
X104902000Y-85090000D03*
D12*
X104902000Y-77470000D03*
D11*
X73660000Y-72237600D03*
D12*
X81280000Y-72237600D03*
D11*
X85801200Y-78689200D03*
D12*
X85801200Y-71069200D03*
D11*
X101600000Y-85090000D03*
D12*
X101600000Y-77470000D03*
D11*
X125730000Y-52578000D03*
D12*
X133350000Y-52578000D03*
D26*
X142938500Y-86915000D03*
X142938500Y-91915000D03*
X142938500Y-81915000D03*
X142684500Y-69922400D03*
X142684500Y-74922400D03*
X142684500Y-64922400D03*
D19*
X90302080Y-76499720D03*
D12*
X97922080Y-84119720D03*
X90302080Y-79039720D03*
X97922080Y-81579720D03*
X90302080Y-81579720D03*
X97922080Y-79039720D03*
X90302080Y-84119720D03*
X97922080Y-76499720D03*
D19*
X116332000Y-79248000D03*
D12*
X108712000Y-86868000D03*
X113792000Y-79248000D03*
X111252000Y-86868000D03*
X111252000Y-79248000D03*
X113792000Y-86868000D03*
X108712000Y-79248000D03*
X116332000Y-86868000D03*
D19*
X90246200Y-54533800D03*
D11*
X95246200Y-54533800D03*
D19*
X73482200Y-60794900D03*
D11*
X78482200Y-60794900D03*
D19*
X136652000Y-90932000D03*
D11*
X131652000Y-90932000D03*
D17*
X68046600Y-140817600D03*
D18*
X52806600Y-140817600D03*
D17*
X52933600Y-116916200D03*
D18*
X68173600Y-116916200D03*
D17*
X68046600Y-134848600D03*
D18*
X52806600Y-134848600D03*
D17*
X52959000Y-110947200D03*
D18*
X68199000Y-110947200D03*
D17*
X68351400Y-58902600D03*
D18*
X53111400Y-58902600D03*
D17*
X53263800Y-88265000D03*
D18*
X68503800Y-88265000D03*
D17*
X68326000Y-64795400D03*
D18*
X53086000Y-64795400D03*
D17*
X53136800Y-82296000D03*
D18*
X68376800Y-82296000D03*
D27*
X78143100Y-104457500D03*
D15*
X78143100Y-96957500D03*
D11*
X108204000Y-93726000D03*
D12*
X115824000Y-93726000D03*
D11*
X115824000Y-90170000D03*
D12*
X108204000Y-90170000D03*
D15*
X76555600Y-127457200D03*
D16*
X104495600Y-127457200D03*
D15*
X133985000Y-135191500D03*
D16*
X106045000Y-135191500D03*
D15*
X135763000Y-127508000D03*
D16*
X107823000Y-127508000D03*
D27*
X78333600Y-118211600D03*
D15*
X78333600Y-110711600D03*
D27*
X78181200Y-90754200D03*
D15*
X78181200Y-83254200D03*
D28*
X53000000Y-53000000D03*
X53000000Y-147000000D03*
X147000000Y-53000000D03*
X147000000Y-147000000D03*
D19*
X117576600Y-56352440D03*
D11*
X122576600Y-56352440D03*
D13*
X118630700Y-64452500D03*
D14*
X123710700Y-64452500D03*
D11*
X114046000Y-54356000D03*
D12*
X114046000Y-61976000D03*
D22*
X137668000Y-60452000D03*
D23*
X137668000Y-57912000D03*
D11*
X125730000Y-56388000D03*
D12*
X133350000Y-56388000D03*
D20*
X110490000Y-54102000D03*
D21*
X110490000Y-61722000D03*
D15*
X106781600Y-65773300D03*
D16*
X106781600Y-53073300D03*
D29*
X128016000Y-100167440D03*
X128016000Y-102707440D03*
X128016000Y-105247440D03*
X133804660Y-97901760D03*
X133804660Y-100441760D03*
X133804660Y-102981760D03*
D19*
X100076000Y-61722000D03*
D12*
X92456000Y-61722000D03*
D19*
X92456000Y-64516000D03*
D12*
X100076000Y-64516000D03*
D29*
X99314000Y-95504000D03*
X101854000Y-95504000D03*
X104394000Y-95504000D03*
X89471500Y-88836500D03*
X92011500Y-88836500D03*
X94551500Y-88836500D03*
D11*
X77876400Y-78282800D03*
X82876400Y-78282800D03*
D20*
X86868000Y-102565200D03*
D21*
X86868000Y-94945200D03*
D22*
X137058400Y-145796000D03*
D30*
X134518400Y-145796000D03*
X131978400Y-145796000D03*
D22*
X100965000Y-145770600D03*
D30*
X98425000Y-145770600D03*
X95885000Y-145770600D03*
D22*
X118999000Y-145770600D03*
D30*
X116459000Y-145770600D03*
X113919000Y-145770600D03*
D22*
X83058000Y-145770600D03*
D30*
X80518000Y-145770600D03*
X77978000Y-145770600D03*
D22*
X64770000Y-145821400D03*
D30*
X62230000Y-145821400D03*
X59690000Y-145821400D03*
D31*
X86893400Y-81762600D03*
D32*
X86893400Y-84302600D03*
D33*
X68046600Y-140817600D02*
X77762100Y-140817600D01*
X68122800Y-128905000D02*
X68122800Y-134772400D01*
X68046600Y-134848600D02*
X68046600Y-140817600D01*
D34*
X80518000Y-145770600D02*
X80460000Y-143515500D01*
D33*
X77762100Y-140817600D02*
X95491300Y-140817600D01*
D34*
X80460000Y-143515500D02*
X77762100Y-140817600D01*
X134518400Y-145796000D02*
X134460000Y-144048500D01*
X134460000Y-144048500D02*
X131229100Y-140817600D01*
D33*
X113830100Y-140817600D02*
X131229100Y-140817600D01*
X132562600Y-140817600D02*
X132842000Y-141097000D01*
X131229100Y-140817600D02*
X132562600Y-140817600D01*
D34*
X98425000Y-145770600D02*
X98460000Y-143786300D01*
D33*
X95491300Y-140817600D02*
X113830100Y-140817600D01*
D34*
X116460000Y-143447500D02*
X113830100Y-140817600D01*
X116459000Y-145770600D02*
X116460000Y-143447500D01*
X98460000Y-143786300D02*
X95491300Y-140817600D01*
X62230000Y-145821400D02*
X62460000Y-142645000D01*
X62460000Y-142645000D02*
X64287400Y-140817600D01*
X64287400Y-140817600D02*
X68046600Y-140817600D01*
D35*
X125708400Y-80060800D02*
X125708400Y-87671900D01*
X125708400Y-87671900D02*
X127063500Y-89027000D01*
X86868000Y-102565200D02*
X80035400Y-102565200D01*
X80035400Y-102565200D02*
X78143100Y-104457500D01*
X87439500Y-122618500D02*
X82740500Y-122618500D01*
X82740500Y-122618500D02*
X78333600Y-118211600D01*
X106781600Y-53073300D02*
X106781600Y-52984400D01*
X106781600Y-52984400D02*
X107442000Y-52324000D01*
X107442000Y-52324000D02*
X122174000Y-52324000D01*
X122174000Y-52324000D02*
X125730000Y-55880000D01*
X125730000Y-55880000D02*
X125730000Y-56388000D01*
D33*
X72694800Y-107238800D02*
X72694800Y-93992700D01*
X75933300Y-90754200D02*
X78181200Y-90754200D01*
X72694800Y-93992700D02*
X75933300Y-90754200D01*
X78333600Y-118211600D02*
X75438000Y-118211600D01*
X72747856Y-115521456D02*
X72747856Y-115521431D01*
X75438000Y-118211600D02*
X72747856Y-115521456D01*
X68986400Y-128905000D02*
X72809100Y-125082300D01*
X72809100Y-125082300D02*
X72747856Y-115521431D01*
X72747856Y-115521431D02*
X72694800Y-107238800D01*
X75869800Y-106730800D02*
X78143100Y-104457500D01*
X72694800Y-107238800D02*
X75869800Y-106730800D01*
X68122800Y-128905000D02*
X68986400Y-128905000D01*
X68300600Y-70662800D02*
X63830200Y-70662800D01*
X63830200Y-70662800D02*
X59309000Y-75184000D01*
X59309000Y-75184000D02*
X59309000Y-79514700D01*
X63373000Y-128905000D02*
X68122800Y-128905000D01*
X59309000Y-79514700D02*
X59309000Y-124841000D01*
X59309000Y-124841000D02*
X63373000Y-128905000D01*
X68326000Y-64795400D02*
X68326000Y-58928000D01*
X68326000Y-58928000D02*
X68351400Y-58902600D01*
X68300600Y-70662800D02*
X68300600Y-64820800D01*
X68300600Y-64820800D02*
X68326000Y-64795400D01*
X68122800Y-134772400D02*
X68046600Y-134848600D01*
D35*
X108712000Y-79248000D02*
X108585000Y-79248000D01*
X108585000Y-79248000D02*
X106934000Y-80899000D01*
X106934000Y-92456000D02*
X108204000Y-93726000D01*
X106934000Y-80899000D02*
X106934000Y-92456000D01*
X114046000Y-61976000D02*
X116154200Y-61976000D01*
X116154200Y-61976000D02*
X118630700Y-64452500D01*
X118630700Y-64452500D02*
X118630700Y-65239900D01*
X118630700Y-65239900D02*
X119938800Y-66548000D01*
X119938800Y-66548000D02*
X131076700Y-66548000D01*
X87439500Y-114998500D02*
X90678000Y-111760000D01*
X120015000Y-92837000D02*
X117602000Y-95250000D01*
X111760000Y-95250000D02*
X110744000Y-96266000D01*
X117602000Y-95250000D02*
X111760000Y-95250000D01*
X128016000Y-105247440D02*
X119725440Y-105247440D01*
X119725440Y-105247440D02*
X110744000Y-96266000D01*
X110744000Y-96266000D02*
X108204000Y-93726000D01*
X108204000Y-93726000D02*
X108966000Y-93726000D01*
X128016000Y-105247440D02*
X128016000Y-106410760D01*
X128016000Y-106410760D02*
X128742440Y-107137200D01*
X143611600Y-110070900D02*
X142760700Y-110070900D01*
X142760700Y-110070900D02*
X139827000Y-107137200D01*
X139827000Y-107137200D02*
X128742440Y-107137200D01*
X143611600Y-110070900D02*
X143611600Y-109359700D01*
X108712000Y-79248000D02*
X108712000Y-79527400D01*
X130708400Y-80060800D02*
X130657600Y-80060800D01*
X130657600Y-80060800D02*
X129540000Y-81178400D01*
X129540000Y-81178400D02*
X129540000Y-84836000D01*
X130708400Y-80060800D02*
X130708400Y-78790800D01*
X128752600Y-76835000D02*
X123190000Y-76835000D01*
X130708400Y-78790800D02*
X128752600Y-76835000D01*
X129540000Y-85153500D02*
X131652000Y-87265500D01*
X131652000Y-87265500D02*
X131652000Y-90932000D01*
X129540000Y-84836000D02*
X129540000Y-85153500D01*
X95186500Y-93345000D02*
X97155000Y-93345000D01*
X97155000Y-93345000D02*
X99314000Y-95504000D01*
X101600000Y-85090000D02*
X101600000Y-87376000D01*
X101600000Y-87376000D02*
X105664000Y-91440000D01*
X131652000Y-90932000D02*
X131652000Y-91520000D01*
X131652000Y-91520000D02*
X133858000Y-93726000D01*
X141127500Y-93726000D02*
X142938500Y-91915000D01*
X133858000Y-93726000D02*
X141127500Y-93726000D01*
X105664000Y-91440000D02*
X105664000Y-93980000D01*
X105664000Y-93980000D02*
X118618000Y-106934000D01*
X118618000Y-106934000D02*
X118618000Y-111760000D01*
X99314000Y-95504000D02*
X99314000Y-94234000D01*
X99314000Y-94234000D02*
X100330000Y-93218000D01*
X100330000Y-93218000D02*
X103886000Y-93218000D01*
X103886000Y-93218000D02*
X105664000Y-91440000D01*
X105664000Y-91440000D02*
X105664000Y-91602560D01*
X131652000Y-91186000D02*
X131775200Y-91186000D01*
X131652000Y-91186000D02*
X131652000Y-90979000D01*
X108712000Y-86868000D02*
X108216700Y-86868000D01*
X123190000Y-71835000D02*
X122889000Y-71835000D01*
X122889000Y-71835000D02*
X122491500Y-71437500D01*
X122491500Y-71437500D02*
X120129300Y-71437500D01*
X130683000Y-72136000D02*
X130683000Y-72009000D01*
X130683000Y-72009000D02*
X129794000Y-71120000D01*
X129794000Y-71120000D02*
X123905000Y-71120000D01*
X123905000Y-71120000D02*
X123190000Y-71835000D01*
X136652000Y-90932000D02*
X136652000Y-85344000D01*
X136652000Y-85344000D02*
X137160000Y-84836000D01*
X124333000Y-99695000D02*
X124269500Y-96202500D01*
X124269500Y-96202500D02*
X124714000Y-95758000D01*
X124714000Y-95758000D02*
X124714000Y-86233000D01*
X124714000Y-86233000D02*
X122936000Y-84455000D01*
X124333000Y-99695000D02*
X125003560Y-99695000D01*
X125003560Y-99695000D02*
X125841760Y-98628200D01*
X133078220Y-98628200D02*
X133804660Y-97901760D01*
X125841760Y-98628200D02*
X133078220Y-98628200D01*
X136448800Y-109971840D02*
X136499600Y-109971840D01*
X113792000Y-79248000D02*
X113792000Y-75510400D01*
X113792000Y-75510400D02*
X113033800Y-74752200D01*
X120396000Y-81026000D02*
X120396000Y-85598000D01*
X120840500Y-97726500D02*
X116713000Y-99695000D01*
X122809000Y-95758000D02*
X120840500Y-97726500D01*
X122809000Y-88011000D02*
X122809000Y-95758000D01*
X120396000Y-85598000D02*
X122809000Y-88011000D01*
X122936000Y-79455000D02*
X122094000Y-79455000D01*
X120523000Y-81026000D02*
X120396000Y-81026000D01*
X122094000Y-79455000D02*
X120523000Y-81026000D01*
X114173000Y-97790000D02*
X116649500Y-99758500D01*
X116649500Y-99758500D02*
X116713000Y-99695000D01*
X95250000Y-72964040D02*
X97856040Y-72964040D01*
X97856040Y-72964040D02*
X101600000Y-77470000D01*
X95478600Y-72735440D02*
X95250000Y-72964040D01*
X95250000Y-72964040D02*
X95173800Y-72964040D01*
X90302080Y-76499720D02*
X90302080Y-73016120D01*
X90302080Y-73016120D02*
X90250000Y-72964040D01*
X90302080Y-73016120D02*
X90250000Y-72964040D01*
X120015000Y-90297000D02*
X119761000Y-90297000D01*
X119761000Y-90297000D02*
X118237000Y-88773000D01*
X118237000Y-88773000D02*
X118237000Y-81153000D01*
X118237000Y-81153000D02*
X116332000Y-79248000D01*
X116332000Y-79248000D02*
X116332000Y-76454000D01*
X116332000Y-76454000D02*
X118033800Y-74752200D01*
X118033800Y-74752200D02*
X118033800Y-74244200D01*
X118033800Y-74752200D02*
X117348000Y-74980800D01*
X117348000Y-74980800D02*
X118071900Y-75044300D01*
X105410000Y-87884000D02*
X105664000Y-88138000D01*
X91630500Y-100838000D02*
X91630500Y-100584000D01*
X91630500Y-100584000D02*
X93281500Y-98933000D01*
X97922080Y-81579720D02*
X97490280Y-81579720D01*
X97490280Y-81579720D02*
X93281500Y-85788500D01*
X93281500Y-85788500D02*
X93281500Y-98933000D01*
X93281500Y-98933000D02*
X93281500Y-99060000D01*
X93281500Y-99060000D02*
X95186500Y-100965000D01*
X112509300Y-71437500D02*
X112509300Y-71767700D01*
X112509300Y-71767700D02*
X111252000Y-73025000D01*
X111252000Y-73025000D02*
X111252000Y-79248000D01*
X111252000Y-79248000D02*
X111252000Y-78999080D01*
X133350000Y-52578000D02*
X133477000Y-52578000D01*
X133477000Y-52578000D02*
X134366000Y-51689000D01*
X134366000Y-51689000D02*
X137541000Y-51689000D01*
X133858000Y-52070000D02*
X133350000Y-52578000D01*
X137083800Y-52146200D02*
X137541000Y-51689000D01*
X76276200Y-70053200D02*
X76276200Y-76479400D01*
X76276200Y-76479400D02*
X75184000Y-77571600D01*
X125730000Y-52578000D02*
X125476000Y-52578000D01*
X125476000Y-52578000D02*
X124104400Y-51206400D01*
X101193600Y-51206400D02*
X100355400Y-51206400D01*
X77838300Y-58978800D02*
X76276200Y-60540900D01*
X96621600Y-58978800D02*
X77838300Y-58978800D01*
X99098100Y-56502300D02*
X96621600Y-58978800D01*
X99098100Y-52463700D02*
X99098100Y-56502300D01*
X100355400Y-51206400D02*
X99098100Y-52463700D01*
X75184000Y-77571600D02*
X75387200Y-77571600D01*
X76276200Y-70053200D02*
X76276200Y-60540900D01*
X101193600Y-51206400D02*
X124104400Y-51206400D01*
X98044000Y-88138000D02*
X98044000Y-91440000D01*
X97922080Y-84119720D02*
X97922080Y-88016080D01*
X97922080Y-88016080D02*
X98044000Y-88138000D01*
X142938500Y-86915000D02*
X142938500Y-86550500D01*
X142938500Y-86550500D02*
X139954000Y-83566000D01*
X139954000Y-73787000D02*
X138303000Y-72136000D01*
X139954000Y-83566000D02*
X139954000Y-73787000D01*
D36*
X118999000Y-145770600D02*
X118999000Y-145847000D01*
X118999000Y-145847000D02*
X122097800Y-149174200D01*
X100965000Y-145770600D02*
X101235600Y-145770600D01*
X101235600Y-145770600D02*
X104444800Y-149174200D01*
X83058000Y-145770600D02*
X83091400Y-145770600D01*
X83091400Y-145770600D02*
X86207600Y-149174200D01*
X131978400Y-145796000D02*
X131920000Y-147429200D01*
X65000000Y-148337400D02*
X64770000Y-145821400D01*
X65836800Y-149174200D02*
X65000000Y-148337400D01*
X130175000Y-149174200D02*
X122097800Y-149174200D01*
X122097800Y-149174200D02*
X104444800Y-149174200D01*
X104444800Y-149174200D02*
X86207600Y-149174200D01*
X86207600Y-149174200D02*
X65836800Y-149174200D01*
X131920000Y-147429200D02*
X130175000Y-149174200D01*
X123748800Y-109971840D02*
X123941840Y-109971840D01*
X123941840Y-109971840D02*
X126365000Y-112395000D01*
X131920000Y-147668000D02*
X131978400Y-145796000D01*
X133159500Y-148907500D02*
X131920000Y-147668000D01*
X138620500Y-148907500D02*
X133159500Y-148907500D01*
X148844000Y-138684000D02*
X138620500Y-148907500D01*
X148844000Y-118872000D02*
X148844000Y-138684000D01*
X142367000Y-112395000D02*
X148844000Y-118872000D01*
X126365000Y-112395000D02*
X142367000Y-112395000D01*
D35*
X142684500Y-64922400D02*
X141884400Y-64922400D01*
X141884400Y-64922400D02*
X140258800Y-66548000D01*
X140258800Y-66548000D02*
X138696700Y-66548000D01*
X142684500Y-74922400D02*
X142684500Y-73723500D01*
X142684500Y-73723500D02*
X138125200Y-69164200D01*
X131483100Y-69164200D02*
X109093000Y-69164200D01*
X138125200Y-69164200D02*
X131483100Y-69164200D01*
X108331000Y-69596000D02*
X108762800Y-69164200D01*
X108762800Y-69164200D02*
X109042200Y-69164200D01*
X108331000Y-69596000D02*
X104902000Y-73025000D01*
X104902000Y-73025000D02*
X104902000Y-77470000D01*
X141940300Y-75666600D02*
X142684500Y-74922400D01*
X142684500Y-69922400D02*
X142198100Y-69922400D01*
X142198100Y-69922400D02*
X140604240Y-68328540D01*
X140604240Y-68328540D02*
X138590020Y-68328540D01*
X102743000Y-70739000D02*
X105664000Y-70739000D01*
X105664000Y-70739000D02*
X108074460Y-68328540D01*
X102743000Y-70739000D02*
X94869000Y-70739000D01*
X133151880Y-68328540D02*
X138590020Y-68328540D01*
X108074460Y-68328540D02*
X133151880Y-68328540D01*
X94869000Y-70739000D02*
X93472000Y-72136000D01*
X90302080Y-81579720D02*
X91902280Y-81579720D01*
X93472000Y-80010000D02*
X93472000Y-72136000D01*
X91902280Y-81579720D02*
X93472000Y-80010000D01*
X128016000Y-102707440D02*
X128016000Y-103149400D01*
X128016000Y-103149400D02*
X131124960Y-106258360D01*
X131124960Y-106258360D02*
X142344140Y-106258360D01*
X142344140Y-106258360D02*
X143611600Y-104990900D01*
X111252000Y-86868000D02*
X111252000Y-89880440D01*
X111252000Y-89880440D02*
X110962440Y-90170000D01*
X115824000Y-93726000D02*
X115824000Y-92923360D01*
X115824000Y-92923360D02*
X113070640Y-90170000D01*
X113070640Y-90170000D02*
X110962440Y-90170000D01*
X110962440Y-90170000D02*
X108204000Y-90170000D01*
X115824000Y-93726000D02*
X115824000Y-93662500D01*
X111252000Y-86868000D02*
X111658400Y-87109300D01*
X133804660Y-100441760D02*
X143080740Y-100441760D01*
X143080740Y-100441760D02*
X143611600Y-99910900D01*
X143611600Y-99910900D02*
X143167100Y-99910900D01*
X113792000Y-86868000D02*
X113792000Y-88138000D01*
X113792000Y-88138000D02*
X115824000Y-90170000D01*
X115824000Y-90170000D02*
X115214400Y-90170000D01*
X110490000Y-54102000D02*
X113792000Y-54102000D01*
X113792000Y-54102000D02*
X114046000Y-54356000D01*
X106781600Y-65773300D02*
X106781600Y-57810400D01*
X106781600Y-57810400D02*
X110490000Y-54102000D01*
X117576600Y-56352440D02*
X118950740Y-56352440D01*
X123710700Y-61112400D02*
X123710700Y-64452500D01*
X118950740Y-56352440D02*
X123710700Y-61112400D01*
X110779560Y-53812440D02*
X110490000Y-54102000D01*
X133350000Y-56388000D02*
X133350000Y-57531000D01*
X133731000Y-57912000D02*
X137668000Y-57912000D01*
X133350000Y-57531000D02*
X133731000Y-57912000D01*
X90302080Y-84119720D02*
X90088720Y-84119720D01*
X90088720Y-84119720D02*
X88773000Y-82804000D01*
X88773000Y-69723000D02*
X86944200Y-67894200D01*
X88773000Y-82804000D02*
X88773000Y-69723000D01*
X90525600Y-84343240D02*
X90302080Y-84119720D01*
X101854000Y-95504000D02*
X101854000Y-96266000D01*
X103378000Y-97790000D02*
X106553000Y-97790000D01*
X101854000Y-96266000D02*
X103378000Y-97790000D01*
X106807000Y-97536000D02*
X106553000Y-97790000D01*
X104902000Y-85090000D02*
X104902000Y-84836000D01*
X72644000Y-77571600D02*
X72644000Y-77927200D01*
X72644000Y-77927200D02*
X74523600Y-79806800D01*
X74523600Y-79806800D02*
X82876400Y-79806800D01*
X97922080Y-76499720D02*
X97490280Y-76499720D01*
X97490280Y-76499720D02*
X95046800Y-78943200D01*
X90627200Y-86512400D02*
X82876400Y-86512400D01*
X95046800Y-82092800D02*
X90627200Y-86512400D01*
X95046800Y-78943200D02*
X95046800Y-82092800D01*
X82876400Y-78282800D02*
X82876400Y-79806800D01*
X82876400Y-79806800D02*
X82876400Y-86512400D01*
X82876400Y-86512400D02*
X82876400Y-90953600D01*
X82876400Y-90953600D02*
X86868000Y-94945200D01*
X72644000Y-77571600D02*
X72644000Y-73253600D01*
X72644000Y-73253600D02*
X73660000Y-72237600D01*
X72644000Y-77571600D02*
X72644000Y-77393800D01*
X97922080Y-76499720D02*
X97426780Y-76499720D01*
M02*
