M48
;DRILL file {KiCad 4.0.7} date 09/02/19 11:37:13
;FORMAT={-:-/ absolute / metric / decimal}
FMAT,2
METRIC,TZ
T1C0.400
T2C0.600
T3C0.800
T4C0.900
T5C1.000
T6C1.100
T7C1.200
T8C1.520
T9C1.600
T10C2.000
T11C3.048
%
G90
G05
M71
T1
X70.79Y-51.399
X71.288Y-52.502
X71.552Y-53.533
X73.228Y-51.435
X96.926Y-113.157
X99.974Y-112.319
X102.53Y-110.607
X105.044Y-109.042
X105.532Y-89.799
X106.594Y-89.743
X107.32Y-90.134
X107.412Y-85.755
X107.544Y-85.049
X108.626Y-108.966
X108.996Y-83.683
X110.338Y-83.596
X111.252Y-73.05
X112.238Y-82.453
X112.552Y-72.847
X113.751Y-72.563
X114.849Y-72.217
X117.404Y-97.485
X124.511Y-66.294
X124.765Y-61.976
X124.765Y-63.5
X124.765Y-64.77
X128.321Y-72.39
X129.337Y-71.12
X130.099Y-69.85
X138.836Y-103.556
X140.665Y-103.063
X142.23Y-102.987
X143.83Y-103.139
T2
X72.644Y-77.572
X73.914Y-76.302
X75.184Y-77.572
X118.745Y-91.567
X120.015Y-90.297
X120.015Y-92.837
T3
X72.733Y-60.77
X73.66Y-72.238
X77.733Y-60.77
X78.124Y-77.785
X80.924Y-64.275
X80.962Y-61.341
X81.28Y-72.238
X83.124Y-77.785
X85.496Y-54.369
X85.801Y-71.069
X85.801Y-78.689
X87.439Y-114.998
X87.439Y-122.618
X88.544Y-64.275
X88.582Y-61.341
X89.471Y-88.837
X89.691Y-73.315
X90.302Y-76.5
X90.302Y-79.04
X90.302Y-81.58
X90.302Y-84.12
X90.496Y-54.369
X92.011Y-88.837
X94.3Y-52.39
X94.3Y-60.01
X94.551Y-88.837
X94.691Y-73.315
X95.186Y-93.345
X95.186Y-100.965
X96.952Y-52.451
X96.952Y-60.071
X96.98Y-72.281
X97.922Y-76.5
X97.922Y-79.04
X97.922Y-81.58
X97.922Y-84.12
X98.044Y-88.138
X98.044Y-91.44
X99.314Y-95.504
X99.979Y-61.244
X101.336Y-77.805
X101.336Y-85.425
X101.854Y-95.504
X103.463Y-75.301
X104.394Y-95.504
X104.6Y-72.281
X104.729Y-77.805
X104.729Y-85.425
X105.664Y-88.138
X105.664Y-91.44
X107.599Y-61.244
X107.635Y-100.203
X107.721Y-103.988
X108.463Y-75.301
X108.712Y-79.248
X108.712Y-86.868
X109.078Y-72.395
X109.083Y-89.687
X109.083Y-97.307
X110.858Y-61.976
X111.252Y-79.248
X111.252Y-86.868
X111.622Y-76.083
X112.431Y-89.743
X112.431Y-97.363
X113.792Y-79.248
X113.792Y-86.868
X115.255Y-100.203
X115.291Y-108.941
X115.341Y-103.988
X115.595Y-89.804
X115.595Y-97.424
X116.332Y-79.248
X116.332Y-86.868
X116.622Y-76.083
X116.698Y-72.395
X118.478Y-61.976
X119.304Y-53.293
X119.304Y-58.293
X119.405Y-98.73
X119.405Y-106.35
X119.761Y-79.629
X119.761Y-87.249
X120.291Y-108.941
X120.701Y-61.976
X120.701Y-64.77
X122.796Y-98.87
X122.796Y-106.489
X122.936Y-79.455
X122.936Y-84.455
X125.175Y-89.268
X125.654Y-59.207
X125.73Y-52.578
X125.74Y-55.697
X125.908Y-86.106
X127.559Y-67.818
X127.559Y-75.438
X128.321Y-61.976
X128.321Y-64.77
X129.809Y-78.623
X129.845Y-81.788
X130.099Y-67.818
X130.099Y-75.438
X130.175Y-89.268
X130.622Y-62.139
X131.703Y-64.77
X131.94Y-90.614
X132.639Y-67.818
X132.639Y-75.438
X133.163Y-101.663
X133.274Y-59.207
X133.35Y-52.578
X133.36Y-55.697
X133.528Y-86.106
X135.179Y-67.818
X135.179Y-75.438
X135.622Y-62.139
X136.322Y-85.994
X136.703Y-64.77
X137.429Y-78.623
X137.465Y-81.788
X138.163Y-101.663
X139.56Y-90.614
X140.767Y-67.437
X143.942Y-85.994
X148.387Y-67.437
T4
X137.465Y-56.302
X137.465Y-58.842
X137.521Y-51.272
X137.521Y-53.812
T5
X59.69Y-145.821
X62.23Y-145.821
X64.77Y-145.821
X77.978Y-145.771
X80.518Y-145.771
X83.058Y-145.771
X86.893Y-81.763
X86.893Y-84.303
X91.389Y-105.435
X93.929Y-105.435
X95.885Y-145.771
X98.425Y-145.771
X100.508Y-65.024
X100.838Y-68.999
X100.965Y-145.771
X103.048Y-65.024
X103.378Y-68.999
X105.588Y-65.024
X105.918Y-68.999
X113.919Y-145.771
X116.459Y-145.771
X118.999Y-145.771
X119.725Y-74.071
X119.725Y-76.611
X131.978Y-145.796
X134.518Y-145.796
X137.058Y-145.796
T6
X86.868Y-94.945
X86.868Y-102.565
X91.63Y-93.218
X91.63Y-100.838
X100.061Y-57.699
X107.681Y-57.699
X130.924Y-95.059
X138.544Y-95.059
T7
X67.894Y-52.73
X71.738Y-90.246
X72.032Y-110.871
X74.244Y-67.894
X75.108Y-135.179
X76.556Y-127.457
X79.238Y-90.246
X79.532Y-110.871
X80.594Y-52.73
X86.944Y-67.894
X91.211Y-115.128
X93.015Y-65.532
X95.555Y-65.532
X100.127Y-53.975
X103.048Y-135.179
X104.496Y-127.457
X106.045Y-135.191
X107.823Y-127.508
X112.827Y-53.975
X119.151Y-115.128
X123.749Y-109.972
X133.985Y-135.191
X135.763Y-127.508
X136.449Y-109.972
X142.418Y-60.452
X142.545Y-71.755
X142.545Y-76.755
X142.545Y-81.755
X142.684Y-89.764
X142.684Y-94.764
X142.684Y-99.764
X144.577Y-106.934
X144.577Y-109.474
X144.577Y-112.014
X144.958Y-60.452
X147.498Y-60.452
X147.498Y-128.333
X147.498Y-141.034
T8
X56.972Y-94.3
X56.972Y-99.38
X56.972Y-104.46
X141.91Y-118.046
X141.91Y-123.126
T9
X56.367Y-128.596
X56.367Y-141.296
X57.367Y-58.596
X57.367Y-71.296
X57.367Y-75.596
X57.367Y-88.296
X57.367Y-110.596
X57.367Y-123.296
T10
X67.559Y-62.25
X67.589Y-68.58
X70.129Y-124.668
X70.241Y-132.38
T11
X53.Y-53.
X53.Y-147.
X147.Y-53.
X147.Y-147.
T0
M30
