G04 #@! TF.FileFunction,Legend,Top*
%FSLAX46Y46*%
G04 Gerber Fmt 4.6, Leading zero omitted, Abs format (unit mm)*
G04 Created by KiCad (PCBNEW 4.0.7) date 06/01/19 09:45:53*
%MOMM*%
%LPD*%
G01*
G04 APERTURE LIST*
%ADD10C,0.100000*%
%ADD11C,0.150000*%
%ADD12C,0.120000*%
G04 APERTURE END LIST*
D10*
D11*
X147283943Y-72548428D02*
X147331562Y-72596047D01*
X147379181Y-72738904D01*
X147379181Y-72834142D01*
X147331562Y-72977000D01*
X147236324Y-73072238D01*
X147141086Y-73119857D01*
X146950610Y-73167476D01*
X146807752Y-73167476D01*
X146617276Y-73119857D01*
X146522038Y-73072238D01*
X146426800Y-72977000D01*
X146379181Y-72834142D01*
X146379181Y-72738904D01*
X146426800Y-72596047D01*
X146474419Y-72548428D01*
X146379181Y-72119857D02*
X147188705Y-72119857D01*
X147283943Y-72072238D01*
X147331562Y-72024619D01*
X147379181Y-71929381D01*
X147379181Y-71738904D01*
X147331562Y-71643666D01*
X147283943Y-71596047D01*
X147188705Y-71548428D01*
X146379181Y-71548428D01*
X147379181Y-70500809D02*
X146902990Y-70834143D01*
X147379181Y-71072238D02*
X146379181Y-71072238D01*
X146379181Y-70691285D01*
X146426800Y-70596047D01*
X146474419Y-70548428D01*
X146569657Y-70500809D01*
X146712514Y-70500809D01*
X146807752Y-70548428D01*
X146855371Y-70596047D01*
X146902990Y-70691285D01*
X146902990Y-71072238D01*
X147379181Y-69500809D02*
X146902990Y-69834143D01*
X147379181Y-70072238D02*
X146379181Y-70072238D01*
X146379181Y-69691285D01*
X146426800Y-69596047D01*
X146474419Y-69548428D01*
X146569657Y-69500809D01*
X146712514Y-69500809D01*
X146807752Y-69548428D01*
X146855371Y-69596047D01*
X146902990Y-69691285D01*
X146902990Y-70072238D01*
X146855371Y-69072238D02*
X146855371Y-68738904D01*
X147379181Y-68596047D02*
X147379181Y-69072238D01*
X146379181Y-69072238D01*
X146379181Y-68596047D01*
X147379181Y-68167476D02*
X146379181Y-68167476D01*
X147379181Y-67596047D01*
X146379181Y-67596047D01*
X146379181Y-67262714D02*
X146379181Y-66691285D01*
X147379181Y-66977000D02*
X146379181Y-66977000D01*
X148743467Y-72477000D02*
X148743467Y-72000809D01*
X149029181Y-72572238D02*
X148029181Y-72238905D01*
X149029181Y-71905571D01*
X149029181Y-71572238D02*
X148029181Y-71572238D01*
X148029181Y-71334143D01*
X148076800Y-71191285D01*
X148172038Y-71096047D01*
X148267276Y-71048428D01*
X148457752Y-71000809D01*
X148600610Y-71000809D01*
X148791086Y-71048428D01*
X148886324Y-71096047D01*
X148981562Y-71191285D01*
X149029181Y-71334143D01*
X149029181Y-71572238D01*
X148029181Y-70286523D02*
X148743467Y-70286523D01*
X148886324Y-70334143D01*
X148981562Y-70429381D01*
X149029181Y-70572238D01*
X149029181Y-70667476D01*
X148029181Y-69810333D02*
X148838705Y-69810333D01*
X148933943Y-69762714D01*
X148981562Y-69715095D01*
X149029181Y-69619857D01*
X149029181Y-69429380D01*
X148981562Y-69334142D01*
X148933943Y-69286523D01*
X148838705Y-69238904D01*
X148029181Y-69238904D01*
X148981562Y-68810333D02*
X149029181Y-68667476D01*
X149029181Y-68429380D01*
X148981562Y-68334142D01*
X148933943Y-68286523D01*
X148838705Y-68238904D01*
X148743467Y-68238904D01*
X148648229Y-68286523D01*
X148600610Y-68334142D01*
X148552990Y-68429380D01*
X148505371Y-68619857D01*
X148457752Y-68715095D01*
X148410133Y-68762714D01*
X148314895Y-68810333D01*
X148219657Y-68810333D01*
X148124419Y-68762714D01*
X148076800Y-68715095D01*
X148029181Y-68619857D01*
X148029181Y-68381761D01*
X148076800Y-68238904D01*
X148029181Y-67953190D02*
X148029181Y-67381761D01*
X149029181Y-67667476D02*
X148029181Y-67667476D01*
X146556981Y-89968010D02*
X147556981Y-89634677D01*
X146556981Y-89301343D01*
X146556981Y-88777534D02*
X146556981Y-88587057D01*
X146604600Y-88491819D01*
X146699838Y-88396581D01*
X146890314Y-88348962D01*
X147223648Y-88348962D01*
X147414124Y-88396581D01*
X147509362Y-88491819D01*
X147556981Y-88587057D01*
X147556981Y-88777534D01*
X147509362Y-88872772D01*
X147414124Y-88968010D01*
X147223648Y-89015629D01*
X146890314Y-89015629D01*
X146699838Y-88968010D01*
X146604600Y-88872772D01*
X146556981Y-88777534D01*
X147556981Y-87444200D02*
X147556981Y-87920391D01*
X146556981Y-87920391D01*
X146556981Y-87253724D02*
X146556981Y-86682295D01*
X147556981Y-86968010D02*
X146556981Y-86968010D01*
X147271267Y-86396581D02*
X147271267Y-85920390D01*
X147556981Y-86491819D02*
X146556981Y-86158486D01*
X147556981Y-85825152D01*
X146604600Y-84968009D02*
X146556981Y-85063247D01*
X146556981Y-85206104D01*
X146604600Y-85348962D01*
X146699838Y-85444200D01*
X146795076Y-85491819D01*
X146985552Y-85539438D01*
X147128410Y-85539438D01*
X147318886Y-85491819D01*
X147414124Y-85444200D01*
X147509362Y-85348962D01*
X147556981Y-85206104D01*
X147556981Y-85110866D01*
X147509362Y-84968009D01*
X147461743Y-84920390D01*
X147128410Y-84920390D01*
X147128410Y-85110866D01*
X147033171Y-84491819D02*
X147033171Y-84158485D01*
X147556981Y-84015628D02*
X147556981Y-84491819D01*
X146556981Y-84491819D01*
X146556981Y-84015628D01*
X148921267Y-89444200D02*
X148921267Y-88968009D01*
X149206981Y-89539438D02*
X148206981Y-89206105D01*
X149206981Y-88872771D01*
X149206981Y-88539438D02*
X148206981Y-88539438D01*
X148206981Y-88301343D01*
X148254600Y-88158485D01*
X148349838Y-88063247D01*
X148445076Y-88015628D01*
X148635552Y-87968009D01*
X148778410Y-87968009D01*
X148968886Y-88015628D01*
X149064124Y-88063247D01*
X149159362Y-88158485D01*
X149206981Y-88301343D01*
X149206981Y-88539438D01*
X148206981Y-87253723D02*
X148921267Y-87253723D01*
X149064124Y-87301343D01*
X149159362Y-87396581D01*
X149206981Y-87539438D01*
X149206981Y-87634676D01*
X148206981Y-86777533D02*
X149016505Y-86777533D01*
X149111743Y-86729914D01*
X149159362Y-86682295D01*
X149206981Y-86587057D01*
X149206981Y-86396580D01*
X149159362Y-86301342D01*
X149111743Y-86253723D01*
X149016505Y-86206104D01*
X148206981Y-86206104D01*
X149159362Y-85777533D02*
X149206981Y-85634676D01*
X149206981Y-85396580D01*
X149159362Y-85301342D01*
X149111743Y-85253723D01*
X149016505Y-85206104D01*
X148921267Y-85206104D01*
X148826029Y-85253723D01*
X148778410Y-85301342D01*
X148730790Y-85396580D01*
X148683171Y-85587057D01*
X148635552Y-85682295D01*
X148587933Y-85729914D01*
X148492695Y-85777533D01*
X148397457Y-85777533D01*
X148302219Y-85729914D01*
X148254600Y-85682295D01*
X148206981Y-85587057D01*
X148206981Y-85348961D01*
X148254600Y-85206104D01*
X148206981Y-84920390D02*
X148206981Y-84348961D01*
X149206981Y-84634676D02*
X148206981Y-84634676D01*
X68083181Y-148407190D02*
X68083181Y-147835761D01*
X69083181Y-148121476D02*
X68083181Y-148121476D01*
X69083181Y-147502428D02*
X68083181Y-147502428D01*
X69083181Y-147026238D02*
X68083181Y-147026238D01*
X68083181Y-146645285D01*
X68130800Y-146550047D01*
X68178419Y-146502428D01*
X68273657Y-146454809D01*
X68416514Y-146454809D01*
X68511752Y-146502428D01*
X68559371Y-146550047D01*
X68606990Y-146645285D01*
X68606990Y-147026238D01*
X68416514Y-145597666D02*
X69083181Y-145597666D01*
X68035562Y-145835762D02*
X68749848Y-146073857D01*
X68749848Y-145454809D01*
X69083181Y-144550047D02*
X69083181Y-145121476D01*
X69083181Y-144835762D02*
X68083181Y-144835762D01*
X68226038Y-144931000D01*
X68321276Y-145026238D01*
X68368895Y-145121476D01*
X86091781Y-148076990D02*
X86091781Y-147505561D01*
X87091781Y-147791276D02*
X86091781Y-147791276D01*
X87091781Y-147172228D02*
X86091781Y-147172228D01*
X87091781Y-146696038D02*
X86091781Y-146696038D01*
X86091781Y-146315085D01*
X86139400Y-146219847D01*
X86187019Y-146172228D01*
X86282257Y-146124609D01*
X86425114Y-146124609D01*
X86520352Y-146172228D01*
X86567971Y-146219847D01*
X86615590Y-146315085D01*
X86615590Y-146696038D01*
X86425114Y-145267466D02*
X87091781Y-145267466D01*
X86044162Y-145505562D02*
X86758448Y-145743657D01*
X86758448Y-145124609D01*
X87091781Y-144219847D02*
X87091781Y-144791276D01*
X87091781Y-144505562D02*
X86091781Y-144505562D01*
X86234638Y-144600800D01*
X86329876Y-144696038D01*
X86377495Y-144791276D01*
X104176581Y-147873790D02*
X104176581Y-147302361D01*
X105176581Y-147588076D02*
X104176581Y-147588076D01*
X105176581Y-146969028D02*
X104176581Y-146969028D01*
X105176581Y-146492838D02*
X104176581Y-146492838D01*
X104176581Y-146111885D01*
X104224200Y-146016647D01*
X104271819Y-145969028D01*
X104367057Y-145921409D01*
X104509914Y-145921409D01*
X104605152Y-145969028D01*
X104652771Y-146016647D01*
X104700390Y-146111885D01*
X104700390Y-146492838D01*
X104509914Y-145064266D02*
X105176581Y-145064266D01*
X104128962Y-145302362D02*
X104843248Y-145540457D01*
X104843248Y-144921409D01*
X105176581Y-144016647D02*
X105176581Y-144588076D01*
X105176581Y-144302362D02*
X104176581Y-144302362D01*
X104319438Y-144397600D01*
X104414676Y-144492838D01*
X104462295Y-144588076D01*
X140320781Y-147975390D02*
X140320781Y-147403961D01*
X141320781Y-147689676D02*
X140320781Y-147689676D01*
X141320781Y-147070628D02*
X140320781Y-147070628D01*
X141320781Y-146594438D02*
X140320781Y-146594438D01*
X140320781Y-146213485D01*
X140368400Y-146118247D01*
X140416019Y-146070628D01*
X140511257Y-146023009D01*
X140654114Y-146023009D01*
X140749352Y-146070628D01*
X140796971Y-146118247D01*
X140844590Y-146213485D01*
X140844590Y-146594438D01*
X140654114Y-145165866D02*
X141320781Y-145165866D01*
X140273162Y-145403962D02*
X140987448Y-145642057D01*
X140987448Y-145023009D01*
X141320781Y-144118247D02*
X141320781Y-144689676D01*
X141320781Y-144403962D02*
X140320781Y-144403962D01*
X140463638Y-144499200D01*
X140558876Y-144594438D01*
X140606495Y-144689676D01*
X122058181Y-147975390D02*
X122058181Y-147403961D01*
X123058181Y-147689676D02*
X122058181Y-147689676D01*
X123058181Y-147070628D02*
X122058181Y-147070628D01*
X123058181Y-146594438D02*
X122058181Y-146594438D01*
X122058181Y-146213485D01*
X122105800Y-146118247D01*
X122153419Y-146070628D01*
X122248657Y-146023009D01*
X122391514Y-146023009D01*
X122486752Y-146070628D01*
X122534371Y-146118247D01*
X122581990Y-146213485D01*
X122581990Y-146594438D01*
X122391514Y-145165866D02*
X123058181Y-145165866D01*
X122010562Y-145403962D02*
X122724848Y-145642057D01*
X122724848Y-145023009D01*
X123058181Y-144118247D02*
X123058181Y-144689676D01*
X123058181Y-144403962D02*
X122058181Y-144403962D01*
X122201038Y-144499200D01*
X122296276Y-144594438D01*
X122343895Y-144689676D01*
X122742486Y-69311829D02*
X123504391Y-69311829D01*
X123123439Y-69692781D02*
X123123439Y-68930876D01*
X124456772Y-68692781D02*
X123980581Y-68692781D01*
X123932962Y-69168971D01*
X123980581Y-69121352D01*
X124075819Y-69073733D01*
X124313915Y-69073733D01*
X124409153Y-69121352D01*
X124456772Y-69168971D01*
X124504391Y-69264210D01*
X124504391Y-69502305D01*
X124456772Y-69597543D01*
X124409153Y-69645162D01*
X124313915Y-69692781D01*
X124075819Y-69692781D01*
X123980581Y-69645162D01*
X123932962Y-69597543D01*
X124790105Y-68692781D02*
X125123438Y-69692781D01*
X125456772Y-68692781D01*
X117411596Y-68715000D02*
X117316358Y-68667381D01*
X117173501Y-68667381D01*
X117030643Y-68715000D01*
X116935405Y-68810238D01*
X116887786Y-68905476D01*
X116840167Y-69095952D01*
X116840167Y-69238810D01*
X116887786Y-69429286D01*
X116935405Y-69524524D01*
X117030643Y-69619762D01*
X117173501Y-69667381D01*
X117268739Y-69667381D01*
X117411596Y-69619762D01*
X117459215Y-69572143D01*
X117459215Y-69238810D01*
X117268739Y-69238810D01*
X117887786Y-69667381D02*
X117887786Y-68667381D01*
X118459215Y-69667381D01*
X118459215Y-68667381D01*
X118935405Y-69667381D02*
X118935405Y-68667381D01*
X119173500Y-68667381D01*
X119316358Y-68715000D01*
X119411596Y-68810238D01*
X119459215Y-68905476D01*
X119506834Y-69095952D01*
X119506834Y-69238810D01*
X119459215Y-69429286D01*
X119411596Y-69524524D01*
X119316358Y-69619762D01*
X119173500Y-69667381D01*
X118935405Y-69667381D01*
X98862429Y-118150643D02*
X98814810Y-118198262D01*
X98671953Y-118245881D01*
X98576715Y-118245881D01*
X98433857Y-118198262D01*
X98338619Y-118103024D01*
X98291000Y-118007786D01*
X98243381Y-117817310D01*
X98243381Y-117674452D01*
X98291000Y-117483976D01*
X98338619Y-117388738D01*
X98433857Y-117293500D01*
X98576715Y-117245881D01*
X98671953Y-117245881D01*
X98814810Y-117293500D01*
X98862429Y-117341119D01*
X99481476Y-117245881D02*
X99671953Y-117245881D01*
X99767191Y-117293500D01*
X99862429Y-117388738D01*
X99910048Y-117579214D01*
X99910048Y-117912548D01*
X99862429Y-118103024D01*
X99767191Y-118198262D01*
X99671953Y-118245881D01*
X99481476Y-118245881D01*
X99386238Y-118198262D01*
X99291000Y-118103024D01*
X99243381Y-117912548D01*
X99243381Y-117579214D01*
X99291000Y-117388738D01*
X99386238Y-117293500D01*
X99481476Y-117245881D01*
X100338619Y-118245881D02*
X100338619Y-117245881D01*
X100910048Y-118245881D01*
X100910048Y-117245881D01*
X101338619Y-118198262D02*
X101481476Y-118245881D01*
X101719572Y-118245881D01*
X101814810Y-118198262D01*
X101862429Y-118150643D01*
X101910048Y-118055405D01*
X101910048Y-117960167D01*
X101862429Y-117864929D01*
X101814810Y-117817310D01*
X101719572Y-117769690D01*
X101529095Y-117722071D01*
X101433857Y-117674452D01*
X101386238Y-117626833D01*
X101338619Y-117531595D01*
X101338619Y-117436357D01*
X101386238Y-117341119D01*
X101433857Y-117293500D01*
X101529095Y-117245881D01*
X101767191Y-117245881D01*
X101910048Y-117293500D01*
X102195762Y-117245881D02*
X102767191Y-117245881D01*
X102481476Y-118245881D02*
X102481476Y-117245881D01*
X103052905Y-117960167D02*
X103529096Y-117960167D01*
X102957667Y-118245881D02*
X103291000Y-117245881D01*
X103624334Y-118245881D01*
X103957667Y-118245881D02*
X103957667Y-117245881D01*
X104529096Y-118245881D01*
X104529096Y-117245881D01*
X104862429Y-117245881D02*
X105433858Y-117245881D01*
X105148143Y-118245881D02*
X105148143Y-117245881D01*
X107100525Y-118150643D02*
X107052906Y-118198262D01*
X106910049Y-118245881D01*
X106814811Y-118245881D01*
X106671953Y-118198262D01*
X106576715Y-118103024D01*
X106529096Y-118007786D01*
X106481477Y-117817310D01*
X106481477Y-117674452D01*
X106529096Y-117483976D01*
X106576715Y-117388738D01*
X106671953Y-117293500D01*
X106814811Y-117245881D01*
X106910049Y-117245881D01*
X107052906Y-117293500D01*
X107100525Y-117341119D01*
X107529096Y-117245881D02*
X107529096Y-118055405D01*
X107576715Y-118150643D01*
X107624334Y-118198262D01*
X107719572Y-118245881D01*
X107910049Y-118245881D01*
X108005287Y-118198262D01*
X108052906Y-118150643D01*
X108100525Y-118055405D01*
X108100525Y-117245881D01*
X109148144Y-118245881D02*
X108814810Y-117769690D01*
X108576715Y-118245881D02*
X108576715Y-117245881D01*
X108957668Y-117245881D01*
X109052906Y-117293500D01*
X109100525Y-117341119D01*
X109148144Y-117436357D01*
X109148144Y-117579214D01*
X109100525Y-117674452D01*
X109052906Y-117722071D01*
X108957668Y-117769690D01*
X108576715Y-117769690D01*
X110148144Y-118245881D02*
X109814810Y-117769690D01*
X109576715Y-118245881D02*
X109576715Y-117245881D01*
X109957668Y-117245881D01*
X110052906Y-117293500D01*
X110100525Y-117341119D01*
X110148144Y-117436357D01*
X110148144Y-117579214D01*
X110100525Y-117674452D01*
X110052906Y-117722071D01*
X109957668Y-117769690D01*
X109576715Y-117769690D01*
X110576715Y-117722071D02*
X110910049Y-117722071D01*
X111052906Y-118245881D02*
X110576715Y-118245881D01*
X110576715Y-117245881D01*
X111052906Y-117245881D01*
X111481477Y-118245881D02*
X111481477Y-117245881D01*
X112052906Y-118245881D01*
X112052906Y-117245881D01*
X112386239Y-117245881D02*
X112957668Y-117245881D01*
X112671953Y-118245881D02*
X112671953Y-117245881D01*
X113338620Y-118198262D02*
X113338620Y-118245881D01*
X113291001Y-118341119D01*
X113243382Y-118388738D01*
X99362428Y-119800643D02*
X99314809Y-119848262D01*
X99171952Y-119895881D01*
X99076714Y-119895881D01*
X98933856Y-119848262D01*
X98838618Y-119753024D01*
X98790999Y-119657786D01*
X98743380Y-119467310D01*
X98743380Y-119324452D01*
X98790999Y-119133976D01*
X98838618Y-119038738D01*
X98933856Y-118943500D01*
X99076714Y-118895881D01*
X99171952Y-118895881D01*
X99314809Y-118943500D01*
X99362428Y-118991119D01*
X99981475Y-118895881D02*
X100171952Y-118895881D01*
X100267190Y-118943500D01*
X100362428Y-119038738D01*
X100410047Y-119229214D01*
X100410047Y-119562548D01*
X100362428Y-119753024D01*
X100267190Y-119848262D01*
X100171952Y-119895881D01*
X99981475Y-119895881D01*
X99886237Y-119848262D01*
X99790999Y-119753024D01*
X99743380Y-119562548D01*
X99743380Y-119229214D01*
X99790999Y-119038738D01*
X99886237Y-118943500D01*
X99981475Y-118895881D01*
X100838618Y-119895881D02*
X100838618Y-118895881D01*
X101410047Y-119895881D01*
X101410047Y-118895881D01*
X101838618Y-119848262D02*
X101981475Y-119895881D01*
X102219571Y-119895881D01*
X102314809Y-119848262D01*
X102362428Y-119800643D01*
X102410047Y-119705405D01*
X102410047Y-119610167D01*
X102362428Y-119514929D01*
X102314809Y-119467310D01*
X102219571Y-119419690D01*
X102029094Y-119372071D01*
X101933856Y-119324452D01*
X101886237Y-119276833D01*
X101838618Y-119181595D01*
X101838618Y-119086357D01*
X101886237Y-118991119D01*
X101933856Y-118943500D01*
X102029094Y-118895881D01*
X102267190Y-118895881D01*
X102410047Y-118943500D01*
X102695761Y-118895881D02*
X103267190Y-118895881D01*
X102981475Y-119895881D02*
X102981475Y-118895881D01*
X103552904Y-119610167D02*
X104029095Y-119610167D01*
X103457666Y-119895881D02*
X103790999Y-118895881D01*
X104124333Y-119895881D01*
X104457666Y-119895881D02*
X104457666Y-118895881D01*
X105029095Y-119895881D01*
X105029095Y-118895881D01*
X105362428Y-118895881D02*
X105933857Y-118895881D01*
X105648142Y-119895881D02*
X105648142Y-118895881D01*
X106886238Y-118895881D02*
X107219571Y-119895881D01*
X107552905Y-118895881D01*
X108076714Y-118895881D02*
X108267191Y-118895881D01*
X108362429Y-118943500D01*
X108457667Y-119038738D01*
X108505286Y-119229214D01*
X108505286Y-119562548D01*
X108457667Y-119753024D01*
X108362429Y-119848262D01*
X108267191Y-119895881D01*
X108076714Y-119895881D01*
X107981476Y-119848262D01*
X107886238Y-119753024D01*
X107838619Y-119562548D01*
X107838619Y-119229214D01*
X107886238Y-119038738D01*
X107981476Y-118943500D01*
X108076714Y-118895881D01*
X109410048Y-119895881D02*
X108933857Y-119895881D01*
X108933857Y-118895881D01*
X109600524Y-118895881D02*
X110171953Y-118895881D01*
X109886238Y-119895881D02*
X109886238Y-118895881D01*
X110457667Y-119610167D02*
X110933858Y-119610167D01*
X110362429Y-119895881D02*
X110695762Y-118895881D01*
X111029096Y-119895881D01*
X111886239Y-118943500D02*
X111791001Y-118895881D01*
X111648144Y-118895881D01*
X111505286Y-118943500D01*
X111410048Y-119038738D01*
X111362429Y-119133976D01*
X111314810Y-119324452D01*
X111314810Y-119467310D01*
X111362429Y-119657786D01*
X111410048Y-119753024D01*
X111505286Y-119848262D01*
X111648144Y-119895881D01*
X111743382Y-119895881D01*
X111886239Y-119848262D01*
X111933858Y-119800643D01*
X111933858Y-119467310D01*
X111743382Y-119467310D01*
X112362429Y-119372071D02*
X112695763Y-119372071D01*
X112838620Y-119895881D02*
X112362429Y-119895881D01*
X112362429Y-118895881D01*
X112838620Y-118895881D01*
X93481476Y-121498262D02*
X93624333Y-121545881D01*
X93862429Y-121545881D01*
X93957667Y-121498262D01*
X94005286Y-121450643D01*
X94052905Y-121355405D01*
X94052905Y-121260167D01*
X94005286Y-121164929D01*
X93957667Y-121117310D01*
X93862429Y-121069690D01*
X93671952Y-121022071D01*
X93576714Y-120974452D01*
X93529095Y-120926833D01*
X93481476Y-120831595D01*
X93481476Y-120736357D01*
X93529095Y-120641119D01*
X93576714Y-120593500D01*
X93671952Y-120545881D01*
X93910048Y-120545881D01*
X94052905Y-120593500D01*
X94481476Y-120545881D02*
X94481476Y-121355405D01*
X94529095Y-121450643D01*
X94576714Y-121498262D01*
X94671952Y-121545881D01*
X94862429Y-121545881D01*
X94957667Y-121498262D01*
X95005286Y-121450643D01*
X95052905Y-121355405D01*
X95052905Y-120545881D01*
X95529095Y-121545881D02*
X95529095Y-120545881D01*
X95910048Y-120545881D01*
X96005286Y-120593500D01*
X96052905Y-120641119D01*
X96100524Y-120736357D01*
X96100524Y-120879214D01*
X96052905Y-120974452D01*
X96005286Y-121022071D01*
X95910048Y-121069690D01*
X95529095Y-121069690D01*
X96529095Y-121545881D02*
X96529095Y-120545881D01*
X96910048Y-120545881D01*
X97005286Y-120593500D01*
X97052905Y-120641119D01*
X97100524Y-120736357D01*
X97100524Y-120879214D01*
X97052905Y-120974452D01*
X97005286Y-121022071D01*
X96910048Y-121069690D01*
X96529095Y-121069690D01*
X98005286Y-121545881D02*
X97529095Y-121545881D01*
X97529095Y-120545881D01*
X98529095Y-121069690D02*
X98529095Y-121545881D01*
X98195762Y-120545881D02*
X98529095Y-121069690D01*
X98862429Y-120545881D01*
X100148143Y-120545881D02*
X100243382Y-120545881D01*
X100338620Y-120593500D01*
X100386239Y-120641119D01*
X100433858Y-120736357D01*
X100481477Y-120926833D01*
X100481477Y-121164929D01*
X100433858Y-121355405D01*
X100386239Y-121450643D01*
X100338620Y-121498262D01*
X100243382Y-121545881D01*
X100148143Y-121545881D01*
X100052905Y-121498262D01*
X100005286Y-121450643D01*
X99957667Y-121355405D01*
X99910048Y-121164929D01*
X99910048Y-120926833D01*
X99957667Y-120736357D01*
X100005286Y-120641119D01*
X100052905Y-120593500D01*
X100148143Y-120545881D01*
X100910048Y-121164929D02*
X101671953Y-121164929D01*
X102052905Y-120545881D02*
X102671953Y-120545881D01*
X102338619Y-120926833D01*
X102481477Y-120926833D01*
X102576715Y-120974452D01*
X102624334Y-121022071D01*
X102671953Y-121117310D01*
X102671953Y-121355405D01*
X102624334Y-121450643D01*
X102576715Y-121498262D01*
X102481477Y-121545881D01*
X102195762Y-121545881D01*
X102100524Y-121498262D01*
X102052905Y-121450643D01*
X103291000Y-120545881D02*
X103386239Y-120545881D01*
X103481477Y-120593500D01*
X103529096Y-120641119D01*
X103576715Y-120736357D01*
X103624334Y-120926833D01*
X103624334Y-121164929D01*
X103576715Y-121355405D01*
X103529096Y-121450643D01*
X103481477Y-121498262D01*
X103386239Y-121545881D01*
X103291000Y-121545881D01*
X103195762Y-121498262D01*
X103148143Y-121450643D01*
X103100524Y-121355405D01*
X103052905Y-121164929D01*
X103052905Y-120926833D01*
X103100524Y-120736357D01*
X103148143Y-120641119D01*
X103195762Y-120593500D01*
X103291000Y-120545881D01*
X104671953Y-120545881D02*
X105005286Y-121545881D01*
X105338620Y-120545881D01*
X105671953Y-121545881D02*
X105671953Y-120545881D01*
X105910048Y-120545881D01*
X106052906Y-120593500D01*
X106148144Y-120688738D01*
X106195763Y-120783976D01*
X106243382Y-120974452D01*
X106243382Y-121117310D01*
X106195763Y-121307786D01*
X106148144Y-121403024D01*
X106052906Y-121498262D01*
X105910048Y-121545881D01*
X105671953Y-121545881D01*
X107243382Y-121450643D02*
X107195763Y-121498262D01*
X107052906Y-121545881D01*
X106957668Y-121545881D01*
X106814810Y-121498262D01*
X106719572Y-121403024D01*
X106671953Y-121307786D01*
X106624334Y-121117310D01*
X106624334Y-120974452D01*
X106671953Y-120783976D01*
X106719572Y-120688738D01*
X106814810Y-120593500D01*
X106957668Y-120545881D01*
X107052906Y-120545881D01*
X107195763Y-120593500D01*
X107243382Y-120641119D01*
X107719572Y-121498262D02*
X107719572Y-121545881D01*
X107671953Y-121641119D01*
X107624334Y-121688738D01*
X108862429Y-120641119D02*
X108910048Y-120593500D01*
X109005286Y-120545881D01*
X109243382Y-120545881D01*
X109338620Y-120593500D01*
X109386239Y-120641119D01*
X109433858Y-120736357D01*
X109433858Y-120831595D01*
X109386239Y-120974452D01*
X108814810Y-121545881D01*
X109433858Y-121545881D01*
X110052905Y-120545881D02*
X110148144Y-120545881D01*
X110243382Y-120593500D01*
X110291001Y-120641119D01*
X110338620Y-120736357D01*
X110386239Y-120926833D01*
X110386239Y-121164929D01*
X110338620Y-121355405D01*
X110291001Y-121450643D01*
X110243382Y-121498262D01*
X110148144Y-121545881D01*
X110052905Y-121545881D01*
X109957667Y-121498262D01*
X109910048Y-121450643D01*
X109862429Y-121355405D01*
X109814810Y-121164929D01*
X109814810Y-120926833D01*
X109862429Y-120736357D01*
X109910048Y-120641119D01*
X109957667Y-120593500D01*
X110052905Y-120545881D01*
X111576715Y-121545881D02*
X111576715Y-120879214D01*
X111576715Y-120974452D02*
X111624334Y-120926833D01*
X111719572Y-120879214D01*
X111862430Y-120879214D01*
X111957668Y-120926833D01*
X112005287Y-121022071D01*
X112005287Y-121545881D01*
X112005287Y-121022071D02*
X112052906Y-120926833D01*
X112148144Y-120879214D01*
X112291001Y-120879214D01*
X112386239Y-120926833D01*
X112433858Y-121022071D01*
X112433858Y-121545881D01*
X112862429Y-121260167D02*
X113338620Y-121260167D01*
X112767191Y-121545881D02*
X113100524Y-120545881D01*
X113433858Y-121545881D01*
X113767191Y-121164929D02*
X114529096Y-121164929D01*
X114957667Y-120641119D02*
X115005286Y-120593500D01*
X115100524Y-120545881D01*
X115338620Y-120545881D01*
X115433858Y-120593500D01*
X115481477Y-120641119D01*
X115529096Y-120736357D01*
X115529096Y-120831595D01*
X115481477Y-120974452D01*
X114910048Y-121545881D01*
X115529096Y-121545881D01*
X116148143Y-120545881D02*
X116243382Y-120545881D01*
X116338620Y-120593500D01*
X116386239Y-120641119D01*
X116433858Y-120736357D01*
X116481477Y-120926833D01*
X116481477Y-121164929D01*
X116433858Y-121355405D01*
X116386239Y-121450643D01*
X116338620Y-121498262D01*
X116243382Y-121545881D01*
X116148143Y-121545881D01*
X116052905Y-121498262D01*
X116005286Y-121450643D01*
X115957667Y-121355405D01*
X115910048Y-121164929D01*
X115910048Y-120926833D01*
X115957667Y-120736357D01*
X116005286Y-120641119D01*
X116052905Y-120593500D01*
X116148143Y-120545881D01*
X117624334Y-121260167D02*
X118100525Y-121260167D01*
X117529096Y-121545881D02*
X117862429Y-120545881D01*
X118195763Y-121545881D01*
X59878933Y-104417905D02*
X59878933Y-104894096D01*
X59593219Y-104322667D02*
X60593219Y-104656000D01*
X59593219Y-104989334D01*
X59688457Y-105894096D02*
X59640838Y-105846477D01*
X59593219Y-105703620D01*
X59593219Y-105608382D01*
X59640838Y-105465524D01*
X59736076Y-105370286D01*
X59831314Y-105322667D01*
X60021790Y-105275048D01*
X60164648Y-105275048D01*
X60355124Y-105322667D01*
X60450362Y-105370286D01*
X60545600Y-105465524D01*
X60593219Y-105608382D01*
X60593219Y-105703620D01*
X60545600Y-105846477D01*
X60497981Y-105894096D01*
X59955133Y-94054705D02*
X59955133Y-94530896D01*
X59669419Y-93959467D02*
X60669419Y-94292800D01*
X59669419Y-94626134D01*
X59764657Y-95530896D02*
X59717038Y-95483277D01*
X59669419Y-95340420D01*
X59669419Y-95245182D01*
X59717038Y-95102324D01*
X59812276Y-95007086D01*
X59907514Y-94959467D01*
X60097990Y-94911848D01*
X60240848Y-94911848D01*
X60431324Y-94959467D01*
X60526562Y-95007086D01*
X60621800Y-95102324D01*
X60669419Y-95245182D01*
X60669419Y-95340420D01*
X60621800Y-95483277D01*
X60574181Y-95530896D01*
X147966181Y-101407719D02*
X148966181Y-101074386D01*
X147966181Y-100741052D01*
X148966181Y-100407719D02*
X147966181Y-100407719D01*
X147966181Y-100169624D01*
X148013800Y-100026766D01*
X148109038Y-99931528D01*
X148204276Y-99883909D01*
X148394752Y-99836290D01*
X148537610Y-99836290D01*
X148728086Y-99883909D01*
X148823324Y-99931528D01*
X148918562Y-100026766D01*
X148966181Y-100169624D01*
X148966181Y-100407719D01*
X148966181Y-99407719D02*
X147966181Y-99407719D01*
X148918562Y-98979148D02*
X148966181Y-98836291D01*
X148966181Y-98598195D01*
X148918562Y-98502957D01*
X148870943Y-98455338D01*
X148775705Y-98407719D01*
X148680467Y-98407719D01*
X148585229Y-98455338D01*
X148537610Y-98502957D01*
X148489990Y-98598195D01*
X148442371Y-98788672D01*
X148394752Y-98883910D01*
X148347133Y-98931529D01*
X148251895Y-98979148D01*
X148156657Y-98979148D01*
X148061419Y-98931529D01*
X148013800Y-98883910D01*
X147966181Y-98788672D01*
X147966181Y-98550576D01*
X148013800Y-98407719D01*
X148928081Y-106141685D02*
X147928081Y-106141685D01*
X148928081Y-105665495D02*
X147928081Y-105665495D01*
X147928081Y-105427400D01*
X147975700Y-105284542D01*
X148070938Y-105189304D01*
X148166176Y-105141685D01*
X148356652Y-105094066D01*
X148499510Y-105094066D01*
X148689986Y-105141685D01*
X148785224Y-105189304D01*
X148880462Y-105284542D01*
X148928081Y-105427400D01*
X148928081Y-105665495D01*
X148928081Y-104665495D02*
X147928081Y-104665495D01*
X148880462Y-104236924D02*
X148928081Y-104094067D01*
X148928081Y-103855971D01*
X148880462Y-103760733D01*
X148832843Y-103713114D01*
X148737605Y-103665495D01*
X148642367Y-103665495D01*
X148547129Y-103713114D01*
X148499510Y-103760733D01*
X148451890Y-103855971D01*
X148404271Y-104046448D01*
X148356652Y-104141686D01*
X148309033Y-104189305D01*
X148213795Y-104236924D01*
X148118557Y-104236924D01*
X148023319Y-104189305D01*
X147975700Y-104141686D01*
X147928081Y-104046448D01*
X147928081Y-103808352D01*
X147975700Y-103665495D01*
X147937600Y-110947104D02*
X147889981Y-111042342D01*
X147889981Y-111185199D01*
X147937600Y-111328057D01*
X148032838Y-111423295D01*
X148128076Y-111470914D01*
X148318552Y-111518533D01*
X148461410Y-111518533D01*
X148651886Y-111470914D01*
X148747124Y-111423295D01*
X148842362Y-111328057D01*
X148889981Y-111185199D01*
X148889981Y-111089961D01*
X148842362Y-110947104D01*
X148794743Y-110899485D01*
X148461410Y-110899485D01*
X148461410Y-111089961D01*
X148889981Y-110470914D02*
X147889981Y-110470914D01*
X148889981Y-109899485D01*
X147889981Y-109899485D01*
X148889981Y-109423295D02*
X147889981Y-109423295D01*
X147889981Y-109185200D01*
X147937600Y-109042342D01*
X148032838Y-108947104D01*
X148128076Y-108899485D01*
X148318552Y-108851866D01*
X148461410Y-108851866D01*
X148651886Y-108899485D01*
X148747124Y-108947104D01*
X148842362Y-109042342D01*
X148889981Y-109185200D01*
X148889981Y-109423295D01*
X149271029Y-128876324D02*
X149271029Y-128114419D01*
X148651981Y-127781086D02*
X149651981Y-127447753D01*
X148651981Y-127114419D01*
X149220229Y-135531124D02*
X149220229Y-134769219D01*
X149601181Y-135150171D02*
X148839276Y-135150171D01*
X148601181Y-134435886D02*
X149601181Y-134102553D01*
X148601181Y-133769219D01*
X94889581Y-82995876D02*
X94889581Y-83472067D01*
X93889581Y-83472067D01*
X94889581Y-82662543D02*
X93889581Y-82662543D01*
X94603867Y-82329209D01*
X93889581Y-81995876D01*
X94889581Y-81995876D01*
X93889581Y-81614924D02*
X93889581Y-80995876D01*
X94270533Y-81329210D01*
X94270533Y-81186352D01*
X94318152Y-81091114D01*
X94365771Y-81043495D01*
X94461010Y-80995876D01*
X94699105Y-80995876D01*
X94794343Y-81043495D01*
X94841962Y-81091114D01*
X94889581Y-81186352D01*
X94889581Y-81472067D01*
X94841962Y-81567305D01*
X94794343Y-81614924D01*
X93889581Y-80091114D02*
X93889581Y-80567305D01*
X94365771Y-80614924D01*
X94318152Y-80567305D01*
X94270533Y-80472067D01*
X94270533Y-80233971D01*
X94318152Y-80138733D01*
X94365771Y-80091114D01*
X94461010Y-80043495D01*
X94699105Y-80043495D01*
X94794343Y-80091114D01*
X94841962Y-80138733D01*
X94889581Y-80233971D01*
X94889581Y-80472067D01*
X94841962Y-80567305D01*
X94794343Y-80614924D01*
X94318152Y-79472067D02*
X94270533Y-79567305D01*
X94222914Y-79614924D01*
X94127676Y-79662543D01*
X94080057Y-79662543D01*
X93984819Y-79614924D01*
X93937200Y-79567305D01*
X93889581Y-79472067D01*
X93889581Y-79281590D01*
X93937200Y-79186352D01*
X93984819Y-79138733D01*
X94080057Y-79091114D01*
X94127676Y-79091114D01*
X94222914Y-79138733D01*
X94270533Y-79186352D01*
X94318152Y-79281590D01*
X94318152Y-79472067D01*
X94365771Y-79567305D01*
X94413390Y-79614924D01*
X94508629Y-79662543D01*
X94699105Y-79662543D01*
X94794343Y-79614924D01*
X94841962Y-79567305D01*
X94889581Y-79472067D01*
X94889581Y-79281590D01*
X94841962Y-79186352D01*
X94794343Y-79138733D01*
X94699105Y-79091114D01*
X94508629Y-79091114D01*
X94413390Y-79138733D01*
X94365771Y-79186352D01*
X94318152Y-79281590D01*
X109764724Y-83611981D02*
X109288533Y-83611981D01*
X109288533Y-82611981D01*
X110098057Y-83611981D02*
X110098057Y-82611981D01*
X110431391Y-83326267D01*
X110764724Y-82611981D01*
X110764724Y-83611981D01*
X111145676Y-82611981D02*
X111764724Y-82611981D01*
X111431390Y-82992933D01*
X111574248Y-82992933D01*
X111669486Y-83040552D01*
X111717105Y-83088171D01*
X111764724Y-83183410D01*
X111764724Y-83421505D01*
X111717105Y-83516743D01*
X111669486Y-83564362D01*
X111574248Y-83611981D01*
X111288533Y-83611981D01*
X111193295Y-83564362D01*
X111145676Y-83516743D01*
X112669486Y-82611981D02*
X112193295Y-82611981D01*
X112145676Y-83088171D01*
X112193295Y-83040552D01*
X112288533Y-82992933D01*
X112526629Y-82992933D01*
X112621867Y-83040552D01*
X112669486Y-83088171D01*
X112717105Y-83183410D01*
X112717105Y-83421505D01*
X112669486Y-83516743D01*
X112621867Y-83564362D01*
X112526629Y-83611981D01*
X112288533Y-83611981D01*
X112193295Y-83564362D01*
X112145676Y-83516743D01*
X113288533Y-83040552D02*
X113193295Y-82992933D01*
X113145676Y-82945314D01*
X113098057Y-82850076D01*
X113098057Y-82802457D01*
X113145676Y-82707219D01*
X113193295Y-82659600D01*
X113288533Y-82611981D01*
X113479010Y-82611981D01*
X113574248Y-82659600D01*
X113621867Y-82707219D01*
X113669486Y-82802457D01*
X113669486Y-82850076D01*
X113621867Y-82945314D01*
X113574248Y-82992933D01*
X113479010Y-83040552D01*
X113288533Y-83040552D01*
X113193295Y-83088171D01*
X113145676Y-83135790D01*
X113098057Y-83231029D01*
X113098057Y-83421505D01*
X113145676Y-83516743D01*
X113193295Y-83564362D01*
X113288533Y-83611981D01*
X113479010Y-83611981D01*
X113574248Y-83564362D01*
X113621867Y-83516743D01*
X113669486Y-83421505D01*
X113669486Y-83231029D01*
X113621867Y-83135790D01*
X113574248Y-83088171D01*
X113479010Y-83040552D01*
D12*
X130768400Y-81370800D02*
X125648400Y-81370800D01*
X130768400Y-78750800D02*
X125648400Y-78750800D01*
X130768400Y-81370800D02*
X130768400Y-81056800D01*
X130768400Y-79064800D02*
X130768400Y-78750800D01*
X125648400Y-81370800D02*
X125648400Y-81056800D01*
X125648400Y-79064800D02*
X125648400Y-78750800D01*
X120741000Y-80229000D02*
X121071000Y-80229000D01*
X121071000Y-80229000D02*
X121071000Y-86649000D01*
X121071000Y-86649000D02*
X120741000Y-86649000D01*
X118781000Y-80229000D02*
X118451000Y-80229000D01*
X118451000Y-80229000D02*
X118451000Y-86649000D01*
X118451000Y-86649000D02*
X118781000Y-86649000D01*
X139801600Y-97370900D02*
X147421600Y-97370900D01*
X139801600Y-112610900D02*
X147421600Y-112610900D01*
X141071600Y-97370900D02*
X141071600Y-112610900D01*
X147421600Y-97370900D02*
X147421600Y-112610900D01*
X139801600Y-97370900D02*
X139801600Y-112610900D01*
X76517800Y-131918800D02*
X76517800Y-138438800D01*
X76517800Y-138438800D02*
X101637800Y-138438800D01*
X101637800Y-138438800D02*
X101637800Y-131918800D01*
X101637800Y-131918800D02*
X76517800Y-131918800D01*
X76487800Y-135178800D02*
X76517800Y-135178800D01*
X101667800Y-135178800D02*
X101637800Y-135178800D01*
X121880000Y-76895000D02*
X121880000Y-71775000D01*
X124500000Y-76895000D02*
X124500000Y-71775000D01*
X121880000Y-76895000D02*
X122194000Y-76895000D01*
X124186000Y-76895000D02*
X124500000Y-76895000D01*
X121880000Y-71775000D02*
X122194000Y-71775000D01*
X124186000Y-71775000D02*
X124500000Y-71775000D01*
X121626000Y-84515000D02*
X121626000Y-79395000D01*
X124246000Y-84515000D02*
X124246000Y-79395000D01*
X121626000Y-84515000D02*
X121940000Y-84515000D01*
X123932000Y-84515000D02*
X124246000Y-84515000D01*
X121626000Y-79395000D02*
X121940000Y-79395000D01*
X123932000Y-79395000D02*
X124246000Y-79395000D01*
X95310000Y-74274040D02*
X90190000Y-74274040D01*
X95310000Y-71654040D02*
X90190000Y-71654040D01*
X95310000Y-74274040D02*
X95310000Y-73960040D01*
X95310000Y-71968040D02*
X95310000Y-71654040D01*
X90190000Y-74274040D02*
X90190000Y-73960040D01*
X90190000Y-71968040D02*
X90190000Y-71654040D01*
X118093800Y-76062200D02*
X112973800Y-76062200D01*
X118093800Y-73442200D02*
X112973800Y-73442200D01*
X118093800Y-76062200D02*
X118093800Y-75748200D01*
X118093800Y-73756200D02*
X118093800Y-73442200D01*
X112973800Y-76062200D02*
X112973800Y-75748200D01*
X112973800Y-73756200D02*
X112973800Y-73442200D01*
X65505600Y-73327800D02*
X65505600Y-67997800D01*
X65505600Y-67997800D02*
X55855600Y-67997800D01*
X55855600Y-67997800D02*
X55855600Y-73327800D01*
X55855600Y-73327800D02*
X65505600Y-73327800D01*
X66820600Y-70662800D02*
X65505600Y-70662800D01*
X54540600Y-70662800D02*
X55855600Y-70662800D01*
X64016100Y-73327800D02*
X64016100Y-67997800D01*
X65327800Y-131570000D02*
X65327800Y-126240000D01*
X65327800Y-126240000D02*
X55677800Y-126240000D01*
X55677800Y-126240000D02*
X55677800Y-131570000D01*
X55677800Y-131570000D02*
X65327800Y-131570000D01*
X66642800Y-128905000D02*
X65327800Y-128905000D01*
X54362800Y-128905000D02*
X55677800Y-128905000D01*
X63838300Y-131570000D02*
X63838300Y-126240000D01*
X55906400Y-73687400D02*
X55906400Y-79017400D01*
X55906400Y-79017400D02*
X65556400Y-79017400D01*
X65556400Y-79017400D02*
X65556400Y-73687400D01*
X65556400Y-73687400D02*
X55906400Y-73687400D01*
X54591400Y-76352400D02*
X55906400Y-76352400D01*
X66871400Y-76352400D02*
X65556400Y-76352400D01*
X57395900Y-73687400D02*
X57395900Y-79017400D01*
X55728600Y-120194800D02*
X55728600Y-125524800D01*
X55728600Y-125524800D02*
X65378600Y-125524800D01*
X65378600Y-125524800D02*
X65378600Y-120194800D01*
X65378600Y-120194800D02*
X55728600Y-120194800D01*
X54413600Y-122859800D02*
X55728600Y-122859800D01*
X66693600Y-122859800D02*
X65378600Y-122859800D01*
X57218100Y-120194800D02*
X57218100Y-125524800D01*
X87912000Y-62528000D02*
X87912000Y-60408000D01*
X87912000Y-60408000D02*
X83792000Y-60408000D01*
X83792000Y-60408000D02*
X83792000Y-62528000D01*
X83792000Y-62528000D02*
X87912000Y-62528000D01*
X88682000Y-61468000D02*
X87912000Y-61468000D01*
X83022000Y-61468000D02*
X83792000Y-61468000D01*
X87252000Y-62528000D02*
X87252000Y-60408000D01*
X88105040Y-65433760D02*
X88105040Y-63313760D01*
X88105040Y-63313760D02*
X83985040Y-63313760D01*
X83985040Y-63313760D02*
X83985040Y-65433760D01*
X83985040Y-65433760D02*
X88105040Y-65433760D01*
X88875040Y-64373760D02*
X88105040Y-64373760D01*
X83215040Y-64373760D02*
X83985040Y-64373760D01*
X87445040Y-65433760D02*
X87445040Y-63313760D01*
X92910500Y-94368000D02*
X93040500Y-94368000D01*
X93040500Y-94368000D02*
X93040500Y-99688000D01*
X93040500Y-99688000D02*
X92910500Y-99688000D01*
X90350500Y-94368000D02*
X90220500Y-94368000D01*
X90220500Y-94368000D02*
X90220500Y-99688000D01*
X90220500Y-99688000D02*
X90350500Y-99688000D01*
X93040500Y-95208000D02*
X90220500Y-95208000D01*
X98270000Y-67774000D02*
X98270000Y-69894000D01*
X98270000Y-69894000D02*
X102390000Y-69894000D01*
X102390000Y-69894000D02*
X102390000Y-67774000D01*
X102390000Y-67774000D02*
X98270000Y-67774000D01*
X97500000Y-68834000D02*
X98270000Y-68834000D01*
X103160000Y-68834000D02*
X102390000Y-68834000D01*
X98930000Y-67774000D02*
X98930000Y-69894000D01*
X136010000Y-86116000D02*
X136010000Y-86246000D01*
X136010000Y-86246000D02*
X130690000Y-86246000D01*
X130690000Y-86246000D02*
X130690000Y-86116000D01*
X136010000Y-83556000D02*
X136010000Y-83426000D01*
X136010000Y-83426000D02*
X130690000Y-83426000D01*
X130690000Y-83426000D02*
X130690000Y-83556000D01*
X135170000Y-86246000D02*
X135170000Y-83426000D01*
X136462392Y-51286665D02*
G75*
G03X136305484Y-54519000I1078608J-1672335D01*
G01*
X138619608Y-51286665D02*
G75*
G02X138776516Y-54519000I-1078608J-1672335D01*
G01*
X136461163Y-51917870D02*
G75*
G03X136461000Y-53999961I1079837J-1041130D01*
G01*
X138620837Y-51917870D02*
G75*
G02X138621000Y-53999961I-1079837J-1041130D01*
G01*
X136305000Y-54519000D02*
X136461000Y-54519000D01*
X138621000Y-54519000D02*
X138777000Y-54519000D01*
X69265800Y-107442000D02*
X61645800Y-107442000D01*
X69265800Y-92202000D02*
X61645800Y-92202000D01*
X67995800Y-107442000D02*
X67995800Y-92202000D01*
X61645800Y-107442000D02*
X61645800Y-92202000D01*
X69265800Y-107442000D02*
X69265800Y-92202000D01*
X141833600Y-135737600D02*
X141833600Y-125577600D01*
X140563600Y-135737600D02*
X148183600Y-135737600D01*
X148183600Y-135737600D02*
X148183600Y-125577600D01*
X148183600Y-125577600D02*
X140563600Y-125577600D01*
X140563600Y-125577600D02*
X140563600Y-135737600D01*
X121865000Y-93367000D02*
X121865000Y-89767000D01*
X121853478Y-93405478D02*
G75*
G02X117415000Y-91567000I-1838478J1838478D01*
G01*
X121853478Y-89728522D02*
G75*
G03X117415000Y-91567000I-1838478J-1838478D01*
G01*
X72114000Y-79421600D02*
X75714000Y-79421600D01*
X72075522Y-79410078D02*
G75*
G02X73914000Y-74971600I1838478J1838478D01*
G01*
X75752478Y-79410078D02*
G75*
G03X73914000Y-74971600I-1838478J1838478D01*
G01*
X86459500Y-122018500D02*
X86129500Y-122018500D01*
X86129500Y-122018500D02*
X86129500Y-115598500D01*
X86129500Y-115598500D02*
X86459500Y-115598500D01*
X88419500Y-122018500D02*
X88749500Y-122018500D01*
X88749500Y-122018500D02*
X88749500Y-115598500D01*
X88749500Y-115598500D02*
X88419500Y-115598500D01*
X74987300Y-52099700D02*
X74987300Y-51619700D01*
X74987300Y-51619700D02*
X85007300Y-51619700D01*
X85007300Y-51619700D02*
X85007300Y-52099700D01*
X74987300Y-54859700D02*
X74987300Y-55339700D01*
X74987300Y-55339700D02*
X85007300Y-55339700D01*
X85007300Y-55339700D02*
X85007300Y-54859700D01*
X85604200Y-69274200D02*
X85604200Y-69754200D01*
X85604200Y-69754200D02*
X75584200Y-69754200D01*
X75584200Y-69754200D02*
X75584200Y-69274200D01*
X85604200Y-66514200D02*
X85604200Y-66034200D01*
X85604200Y-66034200D02*
X75584200Y-66034200D01*
X75584200Y-66034200D02*
X75584200Y-66514200D01*
X94206500Y-100365000D02*
X93876500Y-100365000D01*
X93876500Y-100365000D02*
X93876500Y-93945000D01*
X93876500Y-93945000D02*
X94206500Y-93945000D01*
X96166500Y-100365000D02*
X96496500Y-100365000D01*
X96496500Y-100365000D02*
X96496500Y-93945000D01*
X96496500Y-93945000D02*
X96166500Y-93945000D01*
X98644000Y-87158000D02*
X98644000Y-86828000D01*
X98644000Y-86828000D02*
X105064000Y-86828000D01*
X105064000Y-86828000D02*
X105064000Y-87158000D01*
X98644000Y-89118000D02*
X98644000Y-89448000D01*
X98644000Y-89448000D02*
X105064000Y-89448000D01*
X105064000Y-89448000D02*
X105064000Y-89118000D01*
X98644000Y-90460000D02*
X98644000Y-90130000D01*
X98644000Y-90130000D02*
X105064000Y-90130000D01*
X105064000Y-90130000D02*
X105064000Y-90460000D01*
X98644000Y-92420000D02*
X98644000Y-92750000D01*
X98644000Y-92750000D02*
X105064000Y-92750000D01*
X105064000Y-92750000D02*
X105064000Y-92420000D01*
X92088000Y-108500000D02*
X92088000Y-115020000D01*
X92088000Y-115020000D02*
X117208000Y-115020000D01*
X117208000Y-115020000D02*
X117208000Y-108500000D01*
X117208000Y-108500000D02*
X92088000Y-108500000D01*
X92058000Y-111760000D02*
X92088000Y-111760000D01*
X117238000Y-111760000D02*
X117208000Y-111760000D01*
X131283000Y-71156000D02*
X131283000Y-70826000D01*
X131283000Y-70826000D02*
X137703000Y-70826000D01*
X137703000Y-70826000D02*
X137703000Y-71156000D01*
X131283000Y-73116000D02*
X131283000Y-73446000D01*
X131283000Y-73446000D02*
X137703000Y-73446000D01*
X137703000Y-73446000D02*
X137703000Y-73116000D01*
X113109300Y-70457500D02*
X113109300Y-70127500D01*
X113109300Y-70127500D02*
X119529300Y-70127500D01*
X119529300Y-70127500D02*
X119529300Y-70457500D01*
X113109300Y-72417500D02*
X113109300Y-72747500D01*
X113109300Y-72747500D02*
X119529300Y-72747500D01*
X119529300Y-72747500D02*
X119529300Y-72417500D01*
X107153000Y-96810000D02*
X107153000Y-96480000D01*
X107153000Y-96480000D02*
X113573000Y-96480000D01*
X113573000Y-96480000D02*
X113573000Y-96810000D01*
X107153000Y-98770000D02*
X107153000Y-99100000D01*
X107153000Y-99100000D02*
X113573000Y-99100000D01*
X113573000Y-99100000D02*
X113573000Y-98770000D01*
X123733000Y-100675000D02*
X123733000Y-101005000D01*
X123733000Y-101005000D02*
X117313000Y-101005000D01*
X117313000Y-101005000D02*
X117313000Y-100675000D01*
X123733000Y-98715000D02*
X123733000Y-98385000D01*
X123733000Y-98385000D02*
X117313000Y-98385000D01*
X117313000Y-98385000D02*
X117313000Y-98715000D01*
X126083500Y-96047000D02*
X125753500Y-96047000D01*
X125753500Y-96047000D02*
X125753500Y-89627000D01*
X125753500Y-89627000D02*
X126083500Y-89627000D01*
X128043500Y-96047000D02*
X128373500Y-96047000D01*
X128373500Y-96047000D02*
X128373500Y-89627000D01*
X128373500Y-89627000D02*
X128043500Y-89627000D01*
X125088800Y-108591840D02*
X125088800Y-108111840D01*
X125088800Y-108111840D02*
X135108800Y-108111840D01*
X135108800Y-108111840D02*
X135108800Y-108591840D01*
X125088800Y-111351840D02*
X125088800Y-111831840D01*
X125088800Y-111831840D02*
X135108800Y-111831840D01*
X135108800Y-111831840D02*
X135108800Y-111351840D01*
X138096700Y-67528000D02*
X138096700Y-67858000D01*
X138096700Y-67858000D02*
X131676700Y-67858000D01*
X131676700Y-67858000D02*
X131676700Y-67528000D01*
X138096700Y-65568000D02*
X138096700Y-65238000D01*
X138096700Y-65238000D02*
X131676700Y-65238000D01*
X131676700Y-65238000D02*
X131676700Y-65568000D01*
X103922000Y-84490000D02*
X103592000Y-84490000D01*
X103592000Y-84490000D02*
X103592000Y-78070000D01*
X103592000Y-78070000D02*
X103922000Y-78070000D01*
X105882000Y-84490000D02*
X106212000Y-84490000D01*
X106212000Y-84490000D02*
X106212000Y-78070000D01*
X106212000Y-78070000D02*
X105882000Y-78070000D01*
X74260000Y-71257600D02*
X74260000Y-70927600D01*
X74260000Y-70927600D02*
X80680000Y-70927600D01*
X80680000Y-70927600D02*
X80680000Y-71257600D01*
X74260000Y-73217600D02*
X74260000Y-73547600D01*
X74260000Y-73547600D02*
X80680000Y-73547600D01*
X80680000Y-73547600D02*
X80680000Y-73217600D01*
X84821200Y-78089200D02*
X84491200Y-78089200D01*
X84491200Y-78089200D02*
X84491200Y-71669200D01*
X84491200Y-71669200D02*
X84821200Y-71669200D01*
X86781200Y-78089200D02*
X87111200Y-78089200D01*
X87111200Y-78089200D02*
X87111200Y-71669200D01*
X87111200Y-71669200D02*
X86781200Y-71669200D01*
X100620000Y-84490000D02*
X100290000Y-84490000D01*
X100290000Y-84490000D02*
X100290000Y-78070000D01*
X100290000Y-78070000D02*
X100620000Y-78070000D01*
X102580000Y-84490000D02*
X102910000Y-84490000D01*
X102910000Y-84490000D02*
X102910000Y-78070000D01*
X102910000Y-78070000D02*
X102580000Y-78070000D01*
X126330000Y-51598000D02*
X126330000Y-51268000D01*
X126330000Y-51268000D02*
X132750000Y-51268000D01*
X132750000Y-51268000D02*
X132750000Y-51598000D01*
X126330000Y-53558000D02*
X126330000Y-53888000D01*
X126330000Y-53888000D02*
X132750000Y-53888000D01*
X132750000Y-53888000D02*
X132750000Y-53558000D01*
X146988500Y-86915000D02*
X144638500Y-86915000D01*
X148438500Y-91965000D02*
X144888500Y-91965000D01*
X148438500Y-90215000D02*
X148438500Y-91965000D01*
X148438500Y-83615000D02*
X148438500Y-81865000D01*
X148438500Y-81865000D02*
X144838500Y-81865000D01*
X147038500Y-86915000D02*
X146038500Y-87865000D01*
X147038500Y-86965000D02*
X146088500Y-85965000D01*
X147038500Y-83615000D02*
X149738500Y-83615000D01*
X149738500Y-83615000D02*
X149738500Y-90215000D01*
X149738500Y-90215000D02*
X147038500Y-90215000D01*
X147038500Y-90215000D02*
X147038500Y-83615000D01*
X146734500Y-69922400D02*
X144384500Y-69922400D01*
X148184500Y-74972400D02*
X144634500Y-74972400D01*
X148184500Y-73222400D02*
X148184500Y-74972400D01*
X148184500Y-66622400D02*
X148184500Y-64872400D01*
X148184500Y-64872400D02*
X144584500Y-64872400D01*
X146784500Y-69922400D02*
X145784500Y-70872400D01*
X146784500Y-69972400D02*
X145834500Y-68972400D01*
X146784500Y-66622400D02*
X149484500Y-66622400D01*
X149484500Y-66622400D02*
X149484500Y-73222400D01*
X149484500Y-73222400D02*
X146784500Y-73222400D01*
X146784500Y-73222400D02*
X146784500Y-66622400D01*
X95112080Y-75169720D02*
G75*
G02X93112080Y-75169720I-1000000J0D01*
G01*
X93112080Y-75169720D02*
X91462080Y-75169720D01*
X91462080Y-75169720D02*
X91462080Y-85449720D01*
X91462080Y-85449720D02*
X96762080Y-85449720D01*
X96762080Y-85449720D02*
X96762080Y-75169720D01*
X96762080Y-75169720D02*
X95112080Y-75169720D01*
X88972080Y-75109720D02*
X88972080Y-85509720D01*
X88972080Y-85509720D02*
X99252080Y-85509720D01*
X99252080Y-85509720D02*
X99252080Y-75109720D01*
X99252080Y-75109720D02*
X88972080Y-75109720D01*
X117662000Y-84058000D02*
G75*
G02X117662000Y-82058000I0J1000000D01*
G01*
X117662000Y-82058000D02*
X117662000Y-80408000D01*
X117662000Y-80408000D02*
X107382000Y-80408000D01*
X107382000Y-80408000D02*
X107382000Y-85708000D01*
X107382000Y-85708000D02*
X117662000Y-85708000D01*
X117662000Y-85708000D02*
X117662000Y-84058000D01*
X117722000Y-77918000D02*
X107322000Y-77918000D01*
X107322000Y-77918000D02*
X107322000Y-88198000D01*
X107322000Y-88198000D02*
X117722000Y-88198000D01*
X117722000Y-88198000D02*
X117722000Y-77918000D01*
X96663051Y-53356355D02*
G75*
G03X88830118Y-53353800I-3916851J-1177445D01*
G01*
X96663051Y-55711245D02*
G75*
G02X88830118Y-55713800I-3916851J1177445D01*
G01*
X96663051Y-55711245D02*
G75*
G03X96662282Y-53353800I-3916851J1177445D01*
G01*
X92746200Y-50483800D02*
X92746200Y-58583800D01*
X92786200Y-50483800D02*
X92786200Y-58583800D01*
X92826200Y-50483800D02*
X92826200Y-58583800D01*
X92866200Y-50484800D02*
X92866200Y-58582800D01*
X92906200Y-50486800D02*
X92906200Y-58580800D01*
X92946200Y-50487800D02*
X92946200Y-58579800D01*
X92986200Y-50490800D02*
X92986200Y-58576800D01*
X93026200Y-50492800D02*
X93026200Y-58574800D01*
X93066200Y-50495800D02*
X93066200Y-58571800D01*
X93106200Y-50498800D02*
X93106200Y-58568800D01*
X93146200Y-50502800D02*
X93146200Y-58564800D01*
X93186200Y-50506800D02*
X93186200Y-58560800D01*
X93226200Y-50511800D02*
X93226200Y-58555800D01*
X93266200Y-50516800D02*
X93266200Y-58550800D01*
X93306200Y-50521800D02*
X93306200Y-58545800D01*
X93346200Y-50527800D02*
X93346200Y-58539800D01*
X93386200Y-50533800D02*
X93386200Y-58533800D01*
X93426200Y-50539800D02*
X93426200Y-58527800D01*
X93467200Y-50546800D02*
X93467200Y-58520800D01*
X93507200Y-50554800D02*
X93507200Y-58512800D01*
X93547200Y-50562800D02*
X93547200Y-58504800D01*
X93587200Y-50570800D02*
X93587200Y-58496800D01*
X93627200Y-50578800D02*
X93627200Y-58488800D01*
X93667200Y-50587800D02*
X93667200Y-58479800D01*
X93707200Y-50597800D02*
X93707200Y-58469800D01*
X93747200Y-50607800D02*
X93747200Y-58459800D01*
X93787200Y-50617800D02*
X93787200Y-58449800D01*
X93827200Y-50628800D02*
X93827200Y-58438800D01*
X93867200Y-50639800D02*
X93867200Y-58427800D01*
X93907200Y-50650800D02*
X93907200Y-58416800D01*
X93947200Y-50663800D02*
X93947200Y-58403800D01*
X93987200Y-50675800D02*
X93987200Y-58391800D01*
X94027200Y-50688800D02*
X94027200Y-58378800D01*
X94067200Y-50701800D02*
X94067200Y-58365800D01*
X94107200Y-50715800D02*
X94107200Y-58351800D01*
X94147200Y-50730800D02*
X94147200Y-58336800D01*
X94187200Y-50744800D02*
X94187200Y-58322800D01*
X94227200Y-50760800D02*
X94227200Y-58306800D01*
X94267200Y-50775800D02*
X94267200Y-53553800D01*
X94267200Y-55513800D02*
X94267200Y-58291800D01*
X94307200Y-50792800D02*
X94307200Y-53553800D01*
X94307200Y-55513800D02*
X94307200Y-58274800D01*
X94347200Y-50808800D02*
X94347200Y-53553800D01*
X94347200Y-55513800D02*
X94347200Y-58258800D01*
X94387200Y-50826800D02*
X94387200Y-53553800D01*
X94387200Y-55513800D02*
X94387200Y-58240800D01*
X94427200Y-50843800D02*
X94427200Y-53553800D01*
X94427200Y-55513800D02*
X94427200Y-58223800D01*
X94467200Y-50862800D02*
X94467200Y-53553800D01*
X94467200Y-55513800D02*
X94467200Y-58204800D01*
X94507200Y-50881800D02*
X94507200Y-53553800D01*
X94507200Y-55513800D02*
X94507200Y-58185800D01*
X94547200Y-50900800D02*
X94547200Y-53553800D01*
X94547200Y-55513800D02*
X94547200Y-58166800D01*
X94587200Y-50920800D02*
X94587200Y-53553800D01*
X94587200Y-55513800D02*
X94587200Y-58146800D01*
X94627200Y-50940800D02*
X94627200Y-53553800D01*
X94627200Y-55513800D02*
X94627200Y-58126800D01*
X94667200Y-50961800D02*
X94667200Y-53553800D01*
X94667200Y-55513800D02*
X94667200Y-58105800D01*
X94707200Y-50983800D02*
X94707200Y-53553800D01*
X94707200Y-55513800D02*
X94707200Y-58083800D01*
X94747200Y-51005800D02*
X94747200Y-53553800D01*
X94747200Y-55513800D02*
X94747200Y-58061800D01*
X94787200Y-51028800D02*
X94787200Y-53553800D01*
X94787200Y-55513800D02*
X94787200Y-58038800D01*
X94827200Y-51051800D02*
X94827200Y-53553800D01*
X94827200Y-55513800D02*
X94827200Y-58015800D01*
X94867200Y-51075800D02*
X94867200Y-53553800D01*
X94867200Y-55513800D02*
X94867200Y-57991800D01*
X94907200Y-51099800D02*
X94907200Y-53553800D01*
X94907200Y-55513800D02*
X94907200Y-57967800D01*
X94947200Y-51125800D02*
X94947200Y-53553800D01*
X94947200Y-55513800D02*
X94947200Y-57941800D01*
X94987200Y-51150800D02*
X94987200Y-53553800D01*
X94987200Y-55513800D02*
X94987200Y-57916800D01*
X95027200Y-51177800D02*
X95027200Y-53553800D01*
X95027200Y-55513800D02*
X95027200Y-57889800D01*
X95067200Y-51204800D02*
X95067200Y-53553800D01*
X95067200Y-55513800D02*
X95067200Y-57862800D01*
X95107200Y-51232800D02*
X95107200Y-53553800D01*
X95107200Y-55513800D02*
X95107200Y-57834800D01*
X95147200Y-51261800D02*
X95147200Y-53553800D01*
X95147200Y-55513800D02*
X95147200Y-57805800D01*
X95187200Y-51290800D02*
X95187200Y-53553800D01*
X95187200Y-55513800D02*
X95187200Y-57776800D01*
X95227200Y-51320800D02*
X95227200Y-53553800D01*
X95227200Y-55513800D02*
X95227200Y-57746800D01*
X95267200Y-51351800D02*
X95267200Y-53553800D01*
X95267200Y-55513800D02*
X95267200Y-57715800D01*
X95307200Y-51383800D02*
X95307200Y-53553800D01*
X95307200Y-55513800D02*
X95307200Y-57683800D01*
X95347200Y-51415800D02*
X95347200Y-53553800D01*
X95347200Y-55513800D02*
X95347200Y-57651800D01*
X95387200Y-51449800D02*
X95387200Y-53553800D01*
X95387200Y-55513800D02*
X95387200Y-57617800D01*
X95427200Y-51483800D02*
X95427200Y-53553800D01*
X95427200Y-55513800D02*
X95427200Y-57583800D01*
X95467200Y-51518800D02*
X95467200Y-53553800D01*
X95467200Y-55513800D02*
X95467200Y-57548800D01*
X95507200Y-51554800D02*
X95507200Y-53553800D01*
X95507200Y-55513800D02*
X95507200Y-57512800D01*
X95547200Y-51591800D02*
X95547200Y-53553800D01*
X95547200Y-55513800D02*
X95547200Y-57475800D01*
X95587200Y-51629800D02*
X95587200Y-53553800D01*
X95587200Y-55513800D02*
X95587200Y-57437800D01*
X95627200Y-51668800D02*
X95627200Y-53553800D01*
X95627200Y-55513800D02*
X95627200Y-57398800D01*
X95667200Y-51709800D02*
X95667200Y-53553800D01*
X95667200Y-55513800D02*
X95667200Y-57357800D01*
X95707200Y-51750800D02*
X95707200Y-53553800D01*
X95707200Y-55513800D02*
X95707200Y-57316800D01*
X95747200Y-51793800D02*
X95747200Y-53553800D01*
X95747200Y-55513800D02*
X95747200Y-57273800D01*
X95787200Y-51836800D02*
X95787200Y-53553800D01*
X95787200Y-55513800D02*
X95787200Y-57230800D01*
X95827200Y-51881800D02*
X95827200Y-53553800D01*
X95827200Y-55513800D02*
X95827200Y-57185800D01*
X95867200Y-51928800D02*
X95867200Y-53553800D01*
X95867200Y-55513800D02*
X95867200Y-57138800D01*
X95907200Y-51976800D02*
X95907200Y-53553800D01*
X95907200Y-55513800D02*
X95907200Y-57090800D01*
X95947200Y-52025800D02*
X95947200Y-53553800D01*
X95947200Y-55513800D02*
X95947200Y-57041800D01*
X95987200Y-52076800D02*
X95987200Y-53553800D01*
X95987200Y-55513800D02*
X95987200Y-56990800D01*
X96027200Y-52129800D02*
X96027200Y-53553800D01*
X96027200Y-55513800D02*
X96027200Y-56937800D01*
X96067200Y-52184800D02*
X96067200Y-53553800D01*
X96067200Y-55513800D02*
X96067200Y-56882800D01*
X96107200Y-52240800D02*
X96107200Y-53553800D01*
X96107200Y-55513800D02*
X96107200Y-56826800D01*
X96147200Y-52299800D02*
X96147200Y-53553800D01*
X96147200Y-55513800D02*
X96147200Y-56767800D01*
X96187200Y-52360800D02*
X96187200Y-53553800D01*
X96187200Y-55513800D02*
X96187200Y-56706800D01*
X96227200Y-52424800D02*
X96227200Y-56642800D01*
X96267200Y-52490800D02*
X96267200Y-56576800D01*
X96307200Y-52559800D02*
X96307200Y-56507800D01*
X96347200Y-52631800D02*
X96347200Y-56435800D01*
X96387200Y-52707800D02*
X96387200Y-56359800D01*
X96427200Y-52788800D02*
X96427200Y-56278800D01*
X96467200Y-52873800D02*
X96467200Y-56193800D01*
X96507200Y-52963800D02*
X96507200Y-56103800D01*
X96547200Y-53060800D02*
X96547200Y-56006800D01*
X96587200Y-53164800D02*
X96587200Y-55902800D01*
X96627200Y-53279800D02*
X96627200Y-55787800D01*
X96667200Y-53406800D02*
X96667200Y-55660800D01*
X96707200Y-53550800D02*
X96707200Y-55516800D01*
X96747200Y-53719800D02*
X96747200Y-55347800D01*
X96787200Y-53935800D02*
X96787200Y-55131800D01*
X96827200Y-54287800D02*
X96827200Y-54779800D01*
X88046200Y-54533800D02*
X89246200Y-54533800D01*
X88646200Y-53883800D02*
X88646200Y-55183800D01*
X79899051Y-59617455D02*
G75*
G03X72066118Y-59614900I-3916851J-1177445D01*
G01*
X79899051Y-61972345D02*
G75*
G02X72066118Y-61974900I-3916851J1177445D01*
G01*
X79899051Y-61972345D02*
G75*
G03X79898282Y-59614900I-3916851J1177445D01*
G01*
X75982200Y-56744900D02*
X75982200Y-64844900D01*
X76022200Y-56744900D02*
X76022200Y-64844900D01*
X76062200Y-56744900D02*
X76062200Y-64844900D01*
X76102200Y-56745900D02*
X76102200Y-64843900D01*
X76142200Y-56747900D02*
X76142200Y-64841900D01*
X76182200Y-56748900D02*
X76182200Y-64840900D01*
X76222200Y-56751900D02*
X76222200Y-64837900D01*
X76262200Y-56753900D02*
X76262200Y-64835900D01*
X76302200Y-56756900D02*
X76302200Y-64832900D01*
X76342200Y-56759900D02*
X76342200Y-64829900D01*
X76382200Y-56763900D02*
X76382200Y-64825900D01*
X76422200Y-56767900D02*
X76422200Y-64821900D01*
X76462200Y-56772900D02*
X76462200Y-64816900D01*
X76502200Y-56777900D02*
X76502200Y-64811900D01*
X76542200Y-56782900D02*
X76542200Y-64806900D01*
X76582200Y-56788900D02*
X76582200Y-64800900D01*
X76622200Y-56794900D02*
X76622200Y-64794900D01*
X76662200Y-56800900D02*
X76662200Y-64788900D01*
X76703200Y-56807900D02*
X76703200Y-64781900D01*
X76743200Y-56815900D02*
X76743200Y-64773900D01*
X76783200Y-56823900D02*
X76783200Y-64765900D01*
X76823200Y-56831900D02*
X76823200Y-64757900D01*
X76863200Y-56839900D02*
X76863200Y-64749900D01*
X76903200Y-56848900D02*
X76903200Y-64740900D01*
X76943200Y-56858900D02*
X76943200Y-64730900D01*
X76983200Y-56868900D02*
X76983200Y-64720900D01*
X77023200Y-56878900D02*
X77023200Y-64710900D01*
X77063200Y-56889900D02*
X77063200Y-64699900D01*
X77103200Y-56900900D02*
X77103200Y-64688900D01*
X77143200Y-56911900D02*
X77143200Y-64677900D01*
X77183200Y-56924900D02*
X77183200Y-64664900D01*
X77223200Y-56936900D02*
X77223200Y-64652900D01*
X77263200Y-56949900D02*
X77263200Y-64639900D01*
X77303200Y-56962900D02*
X77303200Y-64626900D01*
X77343200Y-56976900D02*
X77343200Y-64612900D01*
X77383200Y-56991900D02*
X77383200Y-64597900D01*
X77423200Y-57005900D02*
X77423200Y-64583900D01*
X77463200Y-57021900D02*
X77463200Y-64567900D01*
X77503200Y-57036900D02*
X77503200Y-59814900D01*
X77503200Y-61774900D02*
X77503200Y-64552900D01*
X77543200Y-57053900D02*
X77543200Y-59814900D01*
X77543200Y-61774900D02*
X77543200Y-64535900D01*
X77583200Y-57069900D02*
X77583200Y-59814900D01*
X77583200Y-61774900D02*
X77583200Y-64519900D01*
X77623200Y-57087900D02*
X77623200Y-59814900D01*
X77623200Y-61774900D02*
X77623200Y-64501900D01*
X77663200Y-57104900D02*
X77663200Y-59814900D01*
X77663200Y-61774900D02*
X77663200Y-64484900D01*
X77703200Y-57123900D02*
X77703200Y-59814900D01*
X77703200Y-61774900D02*
X77703200Y-64465900D01*
X77743200Y-57142900D02*
X77743200Y-59814900D01*
X77743200Y-61774900D02*
X77743200Y-64446900D01*
X77783200Y-57161900D02*
X77783200Y-59814900D01*
X77783200Y-61774900D02*
X77783200Y-64427900D01*
X77823200Y-57181900D02*
X77823200Y-59814900D01*
X77823200Y-61774900D02*
X77823200Y-64407900D01*
X77863200Y-57201900D02*
X77863200Y-59814900D01*
X77863200Y-61774900D02*
X77863200Y-64387900D01*
X77903200Y-57222900D02*
X77903200Y-59814900D01*
X77903200Y-61774900D02*
X77903200Y-64366900D01*
X77943200Y-57244900D02*
X77943200Y-59814900D01*
X77943200Y-61774900D02*
X77943200Y-64344900D01*
X77983200Y-57266900D02*
X77983200Y-59814900D01*
X77983200Y-61774900D02*
X77983200Y-64322900D01*
X78023200Y-57289900D02*
X78023200Y-59814900D01*
X78023200Y-61774900D02*
X78023200Y-64299900D01*
X78063200Y-57312900D02*
X78063200Y-59814900D01*
X78063200Y-61774900D02*
X78063200Y-64276900D01*
X78103200Y-57336900D02*
X78103200Y-59814900D01*
X78103200Y-61774900D02*
X78103200Y-64252900D01*
X78143200Y-57360900D02*
X78143200Y-59814900D01*
X78143200Y-61774900D02*
X78143200Y-64228900D01*
X78183200Y-57386900D02*
X78183200Y-59814900D01*
X78183200Y-61774900D02*
X78183200Y-64202900D01*
X78223200Y-57411900D02*
X78223200Y-59814900D01*
X78223200Y-61774900D02*
X78223200Y-64177900D01*
X78263200Y-57438900D02*
X78263200Y-59814900D01*
X78263200Y-61774900D02*
X78263200Y-64150900D01*
X78303200Y-57465900D02*
X78303200Y-59814900D01*
X78303200Y-61774900D02*
X78303200Y-64123900D01*
X78343200Y-57493900D02*
X78343200Y-59814900D01*
X78343200Y-61774900D02*
X78343200Y-64095900D01*
X78383200Y-57522900D02*
X78383200Y-59814900D01*
X78383200Y-61774900D02*
X78383200Y-64066900D01*
X78423200Y-57551900D02*
X78423200Y-59814900D01*
X78423200Y-61774900D02*
X78423200Y-64037900D01*
X78463200Y-57581900D02*
X78463200Y-59814900D01*
X78463200Y-61774900D02*
X78463200Y-64007900D01*
X78503200Y-57612900D02*
X78503200Y-59814900D01*
X78503200Y-61774900D02*
X78503200Y-63976900D01*
X78543200Y-57644900D02*
X78543200Y-59814900D01*
X78543200Y-61774900D02*
X78543200Y-63944900D01*
X78583200Y-57676900D02*
X78583200Y-59814900D01*
X78583200Y-61774900D02*
X78583200Y-63912900D01*
X78623200Y-57710900D02*
X78623200Y-59814900D01*
X78623200Y-61774900D02*
X78623200Y-63878900D01*
X78663200Y-57744900D02*
X78663200Y-59814900D01*
X78663200Y-61774900D02*
X78663200Y-63844900D01*
X78703200Y-57779900D02*
X78703200Y-59814900D01*
X78703200Y-61774900D02*
X78703200Y-63809900D01*
X78743200Y-57815900D02*
X78743200Y-59814900D01*
X78743200Y-61774900D02*
X78743200Y-63773900D01*
X78783200Y-57852900D02*
X78783200Y-59814900D01*
X78783200Y-61774900D02*
X78783200Y-63736900D01*
X78823200Y-57890900D02*
X78823200Y-59814900D01*
X78823200Y-61774900D02*
X78823200Y-63698900D01*
X78863200Y-57929900D02*
X78863200Y-59814900D01*
X78863200Y-61774900D02*
X78863200Y-63659900D01*
X78903200Y-57970900D02*
X78903200Y-59814900D01*
X78903200Y-61774900D02*
X78903200Y-63618900D01*
X78943200Y-58011900D02*
X78943200Y-59814900D01*
X78943200Y-61774900D02*
X78943200Y-63577900D01*
X78983200Y-58054900D02*
X78983200Y-59814900D01*
X78983200Y-61774900D02*
X78983200Y-63534900D01*
X79023200Y-58097900D02*
X79023200Y-59814900D01*
X79023200Y-61774900D02*
X79023200Y-63491900D01*
X79063200Y-58142900D02*
X79063200Y-59814900D01*
X79063200Y-61774900D02*
X79063200Y-63446900D01*
X79103200Y-58189900D02*
X79103200Y-59814900D01*
X79103200Y-61774900D02*
X79103200Y-63399900D01*
X79143200Y-58237900D02*
X79143200Y-59814900D01*
X79143200Y-61774900D02*
X79143200Y-63351900D01*
X79183200Y-58286900D02*
X79183200Y-59814900D01*
X79183200Y-61774900D02*
X79183200Y-63302900D01*
X79223200Y-58337900D02*
X79223200Y-59814900D01*
X79223200Y-61774900D02*
X79223200Y-63251900D01*
X79263200Y-58390900D02*
X79263200Y-59814900D01*
X79263200Y-61774900D02*
X79263200Y-63198900D01*
X79303200Y-58445900D02*
X79303200Y-59814900D01*
X79303200Y-61774900D02*
X79303200Y-63143900D01*
X79343200Y-58501900D02*
X79343200Y-59814900D01*
X79343200Y-61774900D02*
X79343200Y-63087900D01*
X79383200Y-58560900D02*
X79383200Y-59814900D01*
X79383200Y-61774900D02*
X79383200Y-63028900D01*
X79423200Y-58621900D02*
X79423200Y-59814900D01*
X79423200Y-61774900D02*
X79423200Y-62967900D01*
X79463200Y-58685900D02*
X79463200Y-62903900D01*
X79503200Y-58751900D02*
X79503200Y-62837900D01*
X79543200Y-58820900D02*
X79543200Y-62768900D01*
X79583200Y-58892900D02*
X79583200Y-62696900D01*
X79623200Y-58968900D02*
X79623200Y-62620900D01*
X79663200Y-59049900D02*
X79663200Y-62539900D01*
X79703200Y-59134900D02*
X79703200Y-62454900D01*
X79743200Y-59224900D02*
X79743200Y-62364900D01*
X79783200Y-59321900D02*
X79783200Y-62267900D01*
X79823200Y-59425900D02*
X79823200Y-62163900D01*
X79863200Y-59540900D02*
X79863200Y-62048900D01*
X79903200Y-59667900D02*
X79903200Y-61921900D01*
X79943200Y-59811900D02*
X79943200Y-61777900D01*
X79983200Y-59980900D02*
X79983200Y-61608900D01*
X80023200Y-60196900D02*
X80023200Y-61392900D01*
X80063200Y-60548900D02*
X80063200Y-61040900D01*
X71282200Y-60794900D02*
X72482200Y-60794900D01*
X71882200Y-60144900D02*
X71882200Y-61444900D01*
X130235149Y-92109445D02*
G75*
G03X138068082Y-92112000I3916851J1177445D01*
G01*
X130235149Y-89754555D02*
G75*
G02X138068082Y-89752000I3916851J-1177445D01*
G01*
X130235149Y-89754555D02*
G75*
G03X130235918Y-92112000I3916851J-1177445D01*
G01*
X134152000Y-94982000D02*
X134152000Y-86882000D01*
X134112000Y-94982000D02*
X134112000Y-86882000D01*
X134072000Y-94982000D02*
X134072000Y-86882000D01*
X134032000Y-94981000D02*
X134032000Y-86883000D01*
X133992000Y-94979000D02*
X133992000Y-86885000D01*
X133952000Y-94978000D02*
X133952000Y-86886000D01*
X133912000Y-94975000D02*
X133912000Y-86889000D01*
X133872000Y-94973000D02*
X133872000Y-86891000D01*
X133832000Y-94970000D02*
X133832000Y-86894000D01*
X133792000Y-94967000D02*
X133792000Y-86897000D01*
X133752000Y-94963000D02*
X133752000Y-86901000D01*
X133712000Y-94959000D02*
X133712000Y-86905000D01*
X133672000Y-94954000D02*
X133672000Y-86910000D01*
X133632000Y-94949000D02*
X133632000Y-86915000D01*
X133592000Y-94944000D02*
X133592000Y-86920000D01*
X133552000Y-94938000D02*
X133552000Y-86926000D01*
X133512000Y-94932000D02*
X133512000Y-86932000D01*
X133472000Y-94926000D02*
X133472000Y-86938000D01*
X133431000Y-94919000D02*
X133431000Y-86945000D01*
X133391000Y-94911000D02*
X133391000Y-86953000D01*
X133351000Y-94903000D02*
X133351000Y-86961000D01*
X133311000Y-94895000D02*
X133311000Y-86969000D01*
X133271000Y-94887000D02*
X133271000Y-86977000D01*
X133231000Y-94878000D02*
X133231000Y-86986000D01*
X133191000Y-94868000D02*
X133191000Y-86996000D01*
X133151000Y-94858000D02*
X133151000Y-87006000D01*
X133111000Y-94848000D02*
X133111000Y-87016000D01*
X133071000Y-94837000D02*
X133071000Y-87027000D01*
X133031000Y-94826000D02*
X133031000Y-87038000D01*
X132991000Y-94815000D02*
X132991000Y-87049000D01*
X132951000Y-94802000D02*
X132951000Y-87062000D01*
X132911000Y-94790000D02*
X132911000Y-87074000D01*
X132871000Y-94777000D02*
X132871000Y-87087000D01*
X132831000Y-94764000D02*
X132831000Y-87100000D01*
X132791000Y-94750000D02*
X132791000Y-87114000D01*
X132751000Y-94735000D02*
X132751000Y-87129000D01*
X132711000Y-94721000D02*
X132711000Y-87143000D01*
X132671000Y-94705000D02*
X132671000Y-87159000D01*
X132631000Y-94690000D02*
X132631000Y-91912000D01*
X132631000Y-89952000D02*
X132631000Y-87174000D01*
X132591000Y-94673000D02*
X132591000Y-91912000D01*
X132591000Y-89952000D02*
X132591000Y-87191000D01*
X132551000Y-94657000D02*
X132551000Y-91912000D01*
X132551000Y-89952000D02*
X132551000Y-87207000D01*
X132511000Y-94639000D02*
X132511000Y-91912000D01*
X132511000Y-89952000D02*
X132511000Y-87225000D01*
X132471000Y-94622000D02*
X132471000Y-91912000D01*
X132471000Y-89952000D02*
X132471000Y-87242000D01*
X132431000Y-94603000D02*
X132431000Y-91912000D01*
X132431000Y-89952000D02*
X132431000Y-87261000D01*
X132391000Y-94584000D02*
X132391000Y-91912000D01*
X132391000Y-89952000D02*
X132391000Y-87280000D01*
X132351000Y-94565000D02*
X132351000Y-91912000D01*
X132351000Y-89952000D02*
X132351000Y-87299000D01*
X132311000Y-94545000D02*
X132311000Y-91912000D01*
X132311000Y-89952000D02*
X132311000Y-87319000D01*
X132271000Y-94525000D02*
X132271000Y-91912000D01*
X132271000Y-89952000D02*
X132271000Y-87339000D01*
X132231000Y-94504000D02*
X132231000Y-91912000D01*
X132231000Y-89952000D02*
X132231000Y-87360000D01*
X132191000Y-94482000D02*
X132191000Y-91912000D01*
X132191000Y-89952000D02*
X132191000Y-87382000D01*
X132151000Y-94460000D02*
X132151000Y-91912000D01*
X132151000Y-89952000D02*
X132151000Y-87404000D01*
X132111000Y-94437000D02*
X132111000Y-91912000D01*
X132111000Y-89952000D02*
X132111000Y-87427000D01*
X132071000Y-94414000D02*
X132071000Y-91912000D01*
X132071000Y-89952000D02*
X132071000Y-87450000D01*
X132031000Y-94390000D02*
X132031000Y-91912000D01*
X132031000Y-89952000D02*
X132031000Y-87474000D01*
X131991000Y-94366000D02*
X131991000Y-91912000D01*
X131991000Y-89952000D02*
X131991000Y-87498000D01*
X131951000Y-94340000D02*
X131951000Y-91912000D01*
X131951000Y-89952000D02*
X131951000Y-87524000D01*
X131911000Y-94315000D02*
X131911000Y-91912000D01*
X131911000Y-89952000D02*
X131911000Y-87549000D01*
X131871000Y-94288000D02*
X131871000Y-91912000D01*
X131871000Y-89952000D02*
X131871000Y-87576000D01*
X131831000Y-94261000D02*
X131831000Y-91912000D01*
X131831000Y-89952000D02*
X131831000Y-87603000D01*
X131791000Y-94233000D02*
X131791000Y-91912000D01*
X131791000Y-89952000D02*
X131791000Y-87631000D01*
X131751000Y-94204000D02*
X131751000Y-91912000D01*
X131751000Y-89952000D02*
X131751000Y-87660000D01*
X131711000Y-94175000D02*
X131711000Y-91912000D01*
X131711000Y-89952000D02*
X131711000Y-87689000D01*
X131671000Y-94145000D02*
X131671000Y-91912000D01*
X131671000Y-89952000D02*
X131671000Y-87719000D01*
X131631000Y-94114000D02*
X131631000Y-91912000D01*
X131631000Y-89952000D02*
X131631000Y-87750000D01*
X131591000Y-94082000D02*
X131591000Y-91912000D01*
X131591000Y-89952000D02*
X131591000Y-87782000D01*
X131551000Y-94050000D02*
X131551000Y-91912000D01*
X131551000Y-89952000D02*
X131551000Y-87814000D01*
X131511000Y-94016000D02*
X131511000Y-91912000D01*
X131511000Y-89952000D02*
X131511000Y-87848000D01*
X131471000Y-93982000D02*
X131471000Y-91912000D01*
X131471000Y-89952000D02*
X131471000Y-87882000D01*
X131431000Y-93947000D02*
X131431000Y-91912000D01*
X131431000Y-89952000D02*
X131431000Y-87917000D01*
X131391000Y-93911000D02*
X131391000Y-91912000D01*
X131391000Y-89952000D02*
X131391000Y-87953000D01*
X131351000Y-93874000D02*
X131351000Y-91912000D01*
X131351000Y-89952000D02*
X131351000Y-87990000D01*
X131311000Y-93836000D02*
X131311000Y-91912000D01*
X131311000Y-89952000D02*
X131311000Y-88028000D01*
X131271000Y-93797000D02*
X131271000Y-91912000D01*
X131271000Y-89952000D02*
X131271000Y-88067000D01*
X131231000Y-93756000D02*
X131231000Y-91912000D01*
X131231000Y-89952000D02*
X131231000Y-88108000D01*
X131191000Y-93715000D02*
X131191000Y-91912000D01*
X131191000Y-89952000D02*
X131191000Y-88149000D01*
X131151000Y-93672000D02*
X131151000Y-91912000D01*
X131151000Y-89952000D02*
X131151000Y-88192000D01*
X131111000Y-93629000D02*
X131111000Y-91912000D01*
X131111000Y-89952000D02*
X131111000Y-88235000D01*
X131071000Y-93584000D02*
X131071000Y-91912000D01*
X131071000Y-89952000D02*
X131071000Y-88280000D01*
X131031000Y-93537000D02*
X131031000Y-91912000D01*
X131031000Y-89952000D02*
X131031000Y-88327000D01*
X130991000Y-93489000D02*
X130991000Y-91912000D01*
X130991000Y-89952000D02*
X130991000Y-88375000D01*
X130951000Y-93440000D02*
X130951000Y-91912000D01*
X130951000Y-89952000D02*
X130951000Y-88424000D01*
X130911000Y-93389000D02*
X130911000Y-91912000D01*
X130911000Y-89952000D02*
X130911000Y-88475000D01*
X130871000Y-93336000D02*
X130871000Y-91912000D01*
X130871000Y-89952000D02*
X130871000Y-88528000D01*
X130831000Y-93281000D02*
X130831000Y-91912000D01*
X130831000Y-89952000D02*
X130831000Y-88583000D01*
X130791000Y-93225000D02*
X130791000Y-91912000D01*
X130791000Y-89952000D02*
X130791000Y-88639000D01*
X130751000Y-93166000D02*
X130751000Y-91912000D01*
X130751000Y-89952000D02*
X130751000Y-88698000D01*
X130711000Y-93105000D02*
X130711000Y-91912000D01*
X130711000Y-89952000D02*
X130711000Y-88759000D01*
X130671000Y-93041000D02*
X130671000Y-88823000D01*
X130631000Y-92975000D02*
X130631000Y-88889000D01*
X130591000Y-92906000D02*
X130591000Y-88958000D01*
X130551000Y-92834000D02*
X130551000Y-89030000D01*
X130511000Y-92758000D02*
X130511000Y-89106000D01*
X130471000Y-92677000D02*
X130471000Y-89187000D01*
X130431000Y-92592000D02*
X130431000Y-89272000D01*
X130391000Y-92502000D02*
X130391000Y-89362000D01*
X130351000Y-92405000D02*
X130351000Y-89459000D01*
X130311000Y-92301000D02*
X130311000Y-89563000D01*
X130271000Y-92186000D02*
X130271000Y-89678000D01*
X130231000Y-92059000D02*
X130231000Y-89805000D01*
X130191000Y-91915000D02*
X130191000Y-89949000D01*
X130151000Y-91746000D02*
X130151000Y-90118000D01*
X130111000Y-91530000D02*
X130111000Y-90334000D01*
X130071000Y-91178000D02*
X130071000Y-90686000D01*
X138852000Y-90932000D02*
X137652000Y-90932000D01*
X138252000Y-91582000D02*
X138252000Y-90282000D01*
X65251600Y-143482600D02*
X65251600Y-138152600D01*
X65251600Y-138152600D02*
X55601600Y-138152600D01*
X55601600Y-138152600D02*
X55601600Y-143482600D01*
X55601600Y-143482600D02*
X65251600Y-143482600D01*
X66566600Y-140817600D02*
X65251600Y-140817600D01*
X54286600Y-140817600D02*
X55601600Y-140817600D01*
X63762100Y-143482600D02*
X63762100Y-138152600D01*
X55728600Y-114251200D02*
X55728600Y-119581200D01*
X55728600Y-119581200D02*
X65378600Y-119581200D01*
X65378600Y-119581200D02*
X65378600Y-114251200D01*
X65378600Y-114251200D02*
X55728600Y-114251200D01*
X54413600Y-116916200D02*
X55728600Y-116916200D01*
X66693600Y-116916200D02*
X65378600Y-116916200D01*
X57218100Y-114251200D02*
X57218100Y-119581200D01*
X65251600Y-137513600D02*
X65251600Y-132183600D01*
X65251600Y-132183600D02*
X55601600Y-132183600D01*
X55601600Y-132183600D02*
X55601600Y-137513600D01*
X55601600Y-137513600D02*
X65251600Y-137513600D01*
X66566600Y-134848600D02*
X65251600Y-134848600D01*
X54286600Y-134848600D02*
X55601600Y-134848600D01*
X63762100Y-137513600D02*
X63762100Y-132183600D01*
X55754000Y-108282200D02*
X55754000Y-113612200D01*
X55754000Y-113612200D02*
X65404000Y-113612200D01*
X65404000Y-113612200D02*
X65404000Y-108282200D01*
X65404000Y-108282200D02*
X55754000Y-108282200D01*
X54439000Y-110947200D02*
X55754000Y-110947200D01*
X66719000Y-110947200D02*
X65404000Y-110947200D01*
X57243500Y-108282200D02*
X57243500Y-113612200D01*
X65556400Y-61567600D02*
X65556400Y-56237600D01*
X65556400Y-56237600D02*
X55906400Y-56237600D01*
X55906400Y-56237600D02*
X55906400Y-61567600D01*
X55906400Y-61567600D02*
X65556400Y-61567600D01*
X66871400Y-58902600D02*
X65556400Y-58902600D01*
X54591400Y-58902600D02*
X55906400Y-58902600D01*
X64066900Y-61567600D02*
X64066900Y-56237600D01*
X56058800Y-85600000D02*
X56058800Y-90930000D01*
X56058800Y-90930000D02*
X65708800Y-90930000D01*
X65708800Y-90930000D02*
X65708800Y-85600000D01*
X65708800Y-85600000D02*
X56058800Y-85600000D01*
X54743800Y-88265000D02*
X56058800Y-88265000D01*
X67023800Y-88265000D02*
X65708800Y-88265000D01*
X57548300Y-85600000D02*
X57548300Y-90930000D01*
X65531000Y-67460400D02*
X65531000Y-62130400D01*
X65531000Y-62130400D02*
X55881000Y-62130400D01*
X55881000Y-62130400D02*
X55881000Y-67460400D01*
X55881000Y-67460400D02*
X65531000Y-67460400D01*
X66846000Y-64795400D02*
X65531000Y-64795400D01*
X54566000Y-64795400D02*
X55881000Y-64795400D01*
X64041500Y-67460400D02*
X64041500Y-62130400D01*
X55931800Y-79631000D02*
X55931800Y-84961000D01*
X55931800Y-84961000D02*
X65581800Y-84961000D01*
X65581800Y-84961000D02*
X65581800Y-79631000D01*
X65581800Y-79631000D02*
X55931800Y-79631000D01*
X54616800Y-82296000D02*
X55931800Y-82296000D01*
X66896800Y-82296000D02*
X65581800Y-82296000D01*
X57421300Y-79631000D02*
X57421300Y-84961000D01*
X76568061Y-94308488D02*
G75*
G03X76563100Y-107105289I1575039J-6399012D01*
G01*
X79718139Y-94308488D02*
G75*
G02X79723100Y-107105289I-1575039J-6399012D01*
G01*
X79718139Y-94308488D02*
G75*
G03X76563100Y-94309711I-1575039J-6399012D01*
G01*
X71593100Y-100707500D02*
X84693100Y-100707500D01*
X71593100Y-100667500D02*
X84693100Y-100667500D01*
X71593100Y-100627500D02*
X84693100Y-100627500D01*
X71594100Y-100587500D02*
X84692100Y-100587500D01*
X71594100Y-100547500D02*
X84692100Y-100547500D01*
X71596100Y-100507500D02*
X84690100Y-100507500D01*
X71597100Y-100467500D02*
X84689100Y-100467500D01*
X71598100Y-100427500D02*
X84688100Y-100427500D01*
X71600100Y-100387500D02*
X84686100Y-100387500D01*
X71602100Y-100347500D02*
X84684100Y-100347500D01*
X71605100Y-100307500D02*
X84681100Y-100307500D01*
X71607100Y-100267500D02*
X84679100Y-100267500D01*
X71610100Y-100227500D02*
X84676100Y-100227500D01*
X71613100Y-100187500D02*
X84673100Y-100187500D01*
X71616100Y-100147500D02*
X84670100Y-100147500D01*
X71620100Y-100107500D02*
X84666100Y-100107500D01*
X71624100Y-100067500D02*
X84662100Y-100067500D01*
X71628100Y-100027500D02*
X84658100Y-100027500D01*
X71632100Y-99986500D02*
X84654100Y-99986500D01*
X71636100Y-99946500D02*
X84650100Y-99946500D01*
X71641100Y-99906500D02*
X84645100Y-99906500D01*
X71646100Y-99866500D02*
X84640100Y-99866500D01*
X71652100Y-99826500D02*
X84634100Y-99826500D01*
X71657100Y-99786500D02*
X84629100Y-99786500D01*
X71663100Y-99746500D02*
X84623100Y-99746500D01*
X71669100Y-99706500D02*
X84617100Y-99706500D01*
X71675100Y-99666500D02*
X84611100Y-99666500D01*
X71682100Y-99626500D02*
X84604100Y-99626500D01*
X71688100Y-99586500D02*
X84598100Y-99586500D01*
X71695100Y-99546500D02*
X84591100Y-99546500D01*
X71703100Y-99506500D02*
X84583100Y-99506500D01*
X71710100Y-99466500D02*
X84576100Y-99466500D01*
X71718100Y-99426500D02*
X84568100Y-99426500D01*
X71726100Y-99386500D02*
X84560100Y-99386500D01*
X71734100Y-99346500D02*
X84552100Y-99346500D01*
X71743100Y-99306500D02*
X84543100Y-99306500D01*
X71752100Y-99266500D02*
X84534100Y-99266500D01*
X71761100Y-99226500D02*
X84525100Y-99226500D01*
X71770100Y-99186500D02*
X84516100Y-99186500D01*
X71780100Y-99146500D02*
X84506100Y-99146500D01*
X71790100Y-99106500D02*
X84496100Y-99106500D01*
X71800100Y-99066500D02*
X84486100Y-99066500D01*
X71810100Y-99026500D02*
X84476100Y-99026500D01*
X71821100Y-98986500D02*
X84465100Y-98986500D01*
X71832100Y-98946500D02*
X84454100Y-98946500D01*
X71843100Y-98906500D02*
X84443100Y-98906500D01*
X71855100Y-98866500D02*
X84431100Y-98866500D01*
X71866100Y-98826500D02*
X84420100Y-98826500D01*
X71878100Y-98786500D02*
X84408100Y-98786500D01*
X71891100Y-98746500D02*
X84395100Y-98746500D01*
X71903100Y-98706500D02*
X84383100Y-98706500D01*
X71916100Y-98666500D02*
X84370100Y-98666500D01*
X71929100Y-98626500D02*
X84357100Y-98626500D01*
X71943100Y-98586500D02*
X84343100Y-98586500D01*
X71957100Y-98546500D02*
X84329100Y-98546500D01*
X71971100Y-98506500D02*
X84315100Y-98506500D01*
X71985100Y-98466500D02*
X84301100Y-98466500D01*
X71999100Y-98426500D02*
X84287100Y-98426500D01*
X72014100Y-98386500D02*
X84272100Y-98386500D01*
X72030100Y-98346500D02*
X84256100Y-98346500D01*
X72045100Y-98306500D02*
X76763100Y-98306500D01*
X79523100Y-98306500D02*
X84241100Y-98306500D01*
X72061100Y-98266500D02*
X76763100Y-98266500D01*
X79523100Y-98266500D02*
X84225100Y-98266500D01*
X72077100Y-98226500D02*
X76763100Y-98226500D01*
X79523100Y-98226500D02*
X84209100Y-98226500D01*
X72093100Y-98186500D02*
X76763100Y-98186500D01*
X79523100Y-98186500D02*
X84193100Y-98186500D01*
X72110100Y-98146500D02*
X76763100Y-98146500D01*
X79523100Y-98146500D02*
X84176100Y-98146500D01*
X72127100Y-98106500D02*
X76763100Y-98106500D01*
X79523100Y-98106500D02*
X84159100Y-98106500D01*
X72144100Y-98066500D02*
X76763100Y-98066500D01*
X79523100Y-98066500D02*
X84142100Y-98066500D01*
X72162100Y-98026500D02*
X76763100Y-98026500D01*
X79523100Y-98026500D02*
X84124100Y-98026500D01*
X72180100Y-97986500D02*
X76763100Y-97986500D01*
X79523100Y-97986500D02*
X84106100Y-97986500D01*
X72198100Y-97946500D02*
X76763100Y-97946500D01*
X79523100Y-97946500D02*
X84088100Y-97946500D01*
X72217100Y-97906500D02*
X76763100Y-97906500D01*
X79523100Y-97906500D02*
X84069100Y-97906500D01*
X72236100Y-97866500D02*
X76763100Y-97866500D01*
X79523100Y-97866500D02*
X84050100Y-97866500D01*
X72255100Y-97826500D02*
X76763100Y-97826500D01*
X79523100Y-97826500D02*
X84031100Y-97826500D01*
X72275100Y-97786500D02*
X76763100Y-97786500D01*
X79523100Y-97786500D02*
X84011100Y-97786500D01*
X72295100Y-97746500D02*
X76763100Y-97746500D01*
X79523100Y-97746500D02*
X83991100Y-97746500D01*
X72315100Y-97706500D02*
X76763100Y-97706500D01*
X79523100Y-97706500D02*
X83971100Y-97706500D01*
X72336100Y-97666500D02*
X76763100Y-97666500D01*
X79523100Y-97666500D02*
X83950100Y-97666500D01*
X72357100Y-97626500D02*
X76763100Y-97626500D01*
X79523100Y-97626500D02*
X83929100Y-97626500D01*
X72378100Y-97586500D02*
X76763100Y-97586500D01*
X79523100Y-97586500D02*
X83908100Y-97586500D01*
X72400100Y-97546500D02*
X76763100Y-97546500D01*
X79523100Y-97546500D02*
X83886100Y-97546500D01*
X72422100Y-97506500D02*
X76763100Y-97506500D01*
X79523100Y-97506500D02*
X83864100Y-97506500D01*
X72444100Y-97466500D02*
X76763100Y-97466500D01*
X79523100Y-97466500D02*
X83842100Y-97466500D01*
X72467100Y-97426500D02*
X76763100Y-97426500D01*
X79523100Y-97426500D02*
X83819100Y-97426500D01*
X72490100Y-97386500D02*
X76763100Y-97386500D01*
X79523100Y-97386500D02*
X83796100Y-97386500D01*
X72513100Y-97346500D02*
X76763100Y-97346500D01*
X79523100Y-97346500D02*
X83773100Y-97346500D01*
X72537100Y-97306500D02*
X76763100Y-97306500D01*
X79523100Y-97306500D02*
X83749100Y-97306500D01*
X72562100Y-97266500D02*
X76763100Y-97266500D01*
X79523100Y-97266500D02*
X83724100Y-97266500D01*
X72586100Y-97226500D02*
X76763100Y-97226500D01*
X79523100Y-97226500D02*
X83700100Y-97226500D01*
X72611100Y-97186500D02*
X76763100Y-97186500D01*
X79523100Y-97186500D02*
X83675100Y-97186500D01*
X72637100Y-97146500D02*
X76763100Y-97146500D01*
X79523100Y-97146500D02*
X83649100Y-97146500D01*
X72663100Y-97106500D02*
X76763100Y-97106500D01*
X79523100Y-97106500D02*
X83623100Y-97106500D01*
X72689100Y-97066500D02*
X76763100Y-97066500D01*
X79523100Y-97066500D02*
X83597100Y-97066500D01*
X72716100Y-97026500D02*
X76763100Y-97026500D01*
X79523100Y-97026500D02*
X83570100Y-97026500D01*
X72743100Y-96986500D02*
X76763100Y-96986500D01*
X79523100Y-96986500D02*
X83543100Y-96986500D01*
X72770100Y-96946500D02*
X76763100Y-96946500D01*
X79523100Y-96946500D02*
X83516100Y-96946500D01*
X72798100Y-96906500D02*
X76763100Y-96906500D01*
X79523100Y-96906500D02*
X83488100Y-96906500D01*
X72827100Y-96866500D02*
X76763100Y-96866500D01*
X79523100Y-96866500D02*
X83459100Y-96866500D01*
X72856100Y-96826500D02*
X76763100Y-96826500D01*
X79523100Y-96826500D02*
X83430100Y-96826500D01*
X72885100Y-96786500D02*
X76763100Y-96786500D01*
X79523100Y-96786500D02*
X83401100Y-96786500D01*
X72915100Y-96746500D02*
X76763100Y-96746500D01*
X79523100Y-96746500D02*
X83371100Y-96746500D01*
X72945100Y-96706500D02*
X76763100Y-96706500D01*
X79523100Y-96706500D02*
X83341100Y-96706500D01*
X72976100Y-96666500D02*
X76763100Y-96666500D01*
X79523100Y-96666500D02*
X83310100Y-96666500D01*
X73007100Y-96626500D02*
X76763100Y-96626500D01*
X79523100Y-96626500D02*
X83279100Y-96626500D01*
X73039100Y-96586500D02*
X76763100Y-96586500D01*
X79523100Y-96586500D02*
X83247100Y-96586500D01*
X73071100Y-96546500D02*
X76763100Y-96546500D01*
X79523100Y-96546500D02*
X83215100Y-96546500D01*
X73104100Y-96506500D02*
X76763100Y-96506500D01*
X79523100Y-96506500D02*
X83182100Y-96506500D01*
X73138100Y-96466500D02*
X76763100Y-96466500D01*
X79523100Y-96466500D02*
X83148100Y-96466500D01*
X73172100Y-96426500D02*
X76763100Y-96426500D01*
X79523100Y-96426500D02*
X83114100Y-96426500D01*
X73206100Y-96386500D02*
X76763100Y-96386500D01*
X79523100Y-96386500D02*
X83080100Y-96386500D01*
X73241100Y-96346500D02*
X76763100Y-96346500D01*
X79523100Y-96346500D02*
X83045100Y-96346500D01*
X73277100Y-96306500D02*
X76763100Y-96306500D01*
X79523100Y-96306500D02*
X83009100Y-96306500D01*
X73313100Y-96266500D02*
X76763100Y-96266500D01*
X79523100Y-96266500D02*
X82973100Y-96266500D01*
X73350100Y-96226500D02*
X76763100Y-96226500D01*
X79523100Y-96226500D02*
X82936100Y-96226500D01*
X73387100Y-96186500D02*
X76763100Y-96186500D01*
X79523100Y-96186500D02*
X82899100Y-96186500D01*
X73425100Y-96146500D02*
X76763100Y-96146500D01*
X79523100Y-96146500D02*
X82861100Y-96146500D01*
X73464100Y-96106500D02*
X76763100Y-96106500D01*
X79523100Y-96106500D02*
X82822100Y-96106500D01*
X73503100Y-96066500D02*
X76763100Y-96066500D01*
X79523100Y-96066500D02*
X82783100Y-96066500D01*
X73543100Y-96026500D02*
X76763100Y-96026500D01*
X79523100Y-96026500D02*
X82743100Y-96026500D01*
X73584100Y-95986500D02*
X76763100Y-95986500D01*
X79523100Y-95986500D02*
X82702100Y-95986500D01*
X73625100Y-95946500D02*
X76763100Y-95946500D01*
X79523100Y-95946500D02*
X82661100Y-95946500D01*
X73667100Y-95906500D02*
X76763100Y-95906500D01*
X79523100Y-95906500D02*
X82619100Y-95906500D01*
X73710100Y-95866500D02*
X76763100Y-95866500D01*
X79523100Y-95866500D02*
X82576100Y-95866500D01*
X73754100Y-95826500D02*
X76763100Y-95826500D01*
X79523100Y-95826500D02*
X82532100Y-95826500D01*
X73798100Y-95786500D02*
X76763100Y-95786500D01*
X79523100Y-95786500D02*
X82488100Y-95786500D01*
X73844100Y-95746500D02*
X76763100Y-95746500D01*
X79523100Y-95746500D02*
X82442100Y-95746500D01*
X73890100Y-95706500D02*
X76763100Y-95706500D01*
X79523100Y-95706500D02*
X82396100Y-95706500D01*
X73937100Y-95666500D02*
X76763100Y-95666500D01*
X79523100Y-95666500D02*
X82349100Y-95666500D01*
X73985100Y-95626500D02*
X76763100Y-95626500D01*
X79523100Y-95626500D02*
X82301100Y-95626500D01*
X74034100Y-95586500D02*
X76763100Y-95586500D01*
X79523100Y-95586500D02*
X82252100Y-95586500D01*
X74083100Y-95546500D02*
X82203100Y-95546500D01*
X74134100Y-95506500D02*
X82152100Y-95506500D01*
X74186100Y-95466500D02*
X82100100Y-95466500D01*
X74239100Y-95426500D02*
X82047100Y-95426500D01*
X74293100Y-95386500D02*
X81993100Y-95386500D01*
X74349100Y-95346500D02*
X81937100Y-95346500D01*
X74405100Y-95306500D02*
X81881100Y-95306500D01*
X74463100Y-95266500D02*
X81823100Y-95266500D01*
X74522100Y-95226500D02*
X81764100Y-95226500D01*
X74583100Y-95186500D02*
X81703100Y-95186500D01*
X74645100Y-95146500D02*
X81641100Y-95146500D01*
X74709100Y-95106500D02*
X81577100Y-95106500D01*
X74774100Y-95066500D02*
X81512100Y-95066500D01*
X74841100Y-95026500D02*
X81445100Y-95026500D01*
X74910100Y-94986500D02*
X81376100Y-94986500D01*
X74981100Y-94946500D02*
X81305100Y-94946500D01*
X75054100Y-94906500D02*
X81232100Y-94906500D01*
X75129100Y-94866500D02*
X81157100Y-94866500D01*
X75207100Y-94826500D02*
X81079100Y-94826500D01*
X75287100Y-94786500D02*
X80999100Y-94786500D01*
X75371100Y-94746500D02*
X80915100Y-94746500D01*
X75457100Y-94706500D02*
X80829100Y-94706500D01*
X75547100Y-94666500D02*
X80739100Y-94666500D01*
X75641100Y-94626500D02*
X80645100Y-94626500D01*
X75738100Y-94586500D02*
X80548100Y-94586500D01*
X75841100Y-94546500D02*
X80445100Y-94546500D01*
X75949100Y-94506500D02*
X80337100Y-94506500D01*
X76063100Y-94466500D02*
X80223100Y-94466500D01*
X76185100Y-94426500D02*
X80101100Y-94426500D01*
X76315100Y-94386500D02*
X79971100Y-94386500D01*
X76457100Y-94346500D02*
X79829100Y-94346500D01*
X76611100Y-94306500D02*
X79675100Y-94306500D01*
X76784100Y-94266500D02*
X79502100Y-94266500D01*
X76983100Y-94226500D02*
X79303100Y-94226500D01*
X77225100Y-94186500D02*
X79061100Y-94186500D01*
X77554100Y-94146500D02*
X78732100Y-94146500D01*
X78143100Y-107657500D02*
X78143100Y-105857500D01*
X77243100Y-106757500D02*
X79043100Y-106757500D01*
X108804000Y-92746000D02*
X108804000Y-92416000D01*
X108804000Y-92416000D02*
X115224000Y-92416000D01*
X115224000Y-92416000D02*
X115224000Y-92746000D01*
X108804000Y-94706000D02*
X108804000Y-95036000D01*
X108804000Y-95036000D02*
X115224000Y-95036000D01*
X115224000Y-95036000D02*
X115224000Y-94706000D01*
X115224000Y-91150000D02*
X115224000Y-91480000D01*
X115224000Y-91480000D02*
X108804000Y-91480000D01*
X108804000Y-91480000D02*
X108804000Y-91150000D01*
X115224000Y-89190000D02*
X115224000Y-88860000D01*
X115224000Y-88860000D02*
X108804000Y-88860000D01*
X108804000Y-88860000D02*
X108804000Y-89190000D01*
X77965600Y-124197200D02*
X77965600Y-130717200D01*
X77965600Y-130717200D02*
X103085600Y-130717200D01*
X103085600Y-130717200D02*
X103085600Y-124197200D01*
X103085600Y-124197200D02*
X77965600Y-124197200D01*
X77935600Y-127457200D02*
X77965600Y-127457200D01*
X103115600Y-127457200D02*
X103085600Y-127457200D01*
X132575000Y-138451500D02*
X132575000Y-131931500D01*
X132575000Y-131931500D02*
X107455000Y-131931500D01*
X107455000Y-131931500D02*
X107455000Y-138451500D01*
X107455000Y-138451500D02*
X132575000Y-138451500D01*
X132605000Y-135191500D02*
X132575000Y-135191500D01*
X107425000Y-135191500D02*
X107455000Y-135191500D01*
X134353000Y-130768000D02*
X134353000Y-124248000D01*
X134353000Y-124248000D02*
X109233000Y-124248000D01*
X109233000Y-124248000D02*
X109233000Y-130768000D01*
X109233000Y-130768000D02*
X134353000Y-130768000D01*
X134383000Y-127508000D02*
X134353000Y-127508000D01*
X109203000Y-127508000D02*
X109233000Y-127508000D01*
X76758561Y-108062588D02*
G75*
G03X76753600Y-120859389I1575039J-6399012D01*
G01*
X79908639Y-108062588D02*
G75*
G02X79913600Y-120859389I-1575039J-6399012D01*
G01*
X79908639Y-108062588D02*
G75*
G03X76753600Y-108063811I-1575039J-6399012D01*
G01*
X71783600Y-114461600D02*
X84883600Y-114461600D01*
X71783600Y-114421600D02*
X84883600Y-114421600D01*
X71783600Y-114381600D02*
X84883600Y-114381600D01*
X71784600Y-114341600D02*
X84882600Y-114341600D01*
X71784600Y-114301600D02*
X84882600Y-114301600D01*
X71786600Y-114261600D02*
X84880600Y-114261600D01*
X71787600Y-114221600D02*
X84879600Y-114221600D01*
X71788600Y-114181600D02*
X84878600Y-114181600D01*
X71790600Y-114141600D02*
X84876600Y-114141600D01*
X71792600Y-114101600D02*
X84874600Y-114101600D01*
X71795600Y-114061600D02*
X84871600Y-114061600D01*
X71797600Y-114021600D02*
X84869600Y-114021600D01*
X71800600Y-113981600D02*
X84866600Y-113981600D01*
X71803600Y-113941600D02*
X84863600Y-113941600D01*
X71806600Y-113901600D02*
X84860600Y-113901600D01*
X71810600Y-113861600D02*
X84856600Y-113861600D01*
X71814600Y-113821600D02*
X84852600Y-113821600D01*
X71818600Y-113781600D02*
X84848600Y-113781600D01*
X71822600Y-113740600D02*
X84844600Y-113740600D01*
X71826600Y-113700600D02*
X84840600Y-113700600D01*
X71831600Y-113660600D02*
X84835600Y-113660600D01*
X71836600Y-113620600D02*
X84830600Y-113620600D01*
X71842600Y-113580600D02*
X84824600Y-113580600D01*
X71847600Y-113540600D02*
X84819600Y-113540600D01*
X71853600Y-113500600D02*
X84813600Y-113500600D01*
X71859600Y-113460600D02*
X84807600Y-113460600D01*
X71865600Y-113420600D02*
X84801600Y-113420600D01*
X71872600Y-113380600D02*
X84794600Y-113380600D01*
X71878600Y-113340600D02*
X84788600Y-113340600D01*
X71885600Y-113300600D02*
X84781600Y-113300600D01*
X71893600Y-113260600D02*
X84773600Y-113260600D01*
X71900600Y-113220600D02*
X84766600Y-113220600D01*
X71908600Y-113180600D02*
X84758600Y-113180600D01*
X71916600Y-113140600D02*
X84750600Y-113140600D01*
X71924600Y-113100600D02*
X84742600Y-113100600D01*
X71933600Y-113060600D02*
X84733600Y-113060600D01*
X71942600Y-113020600D02*
X84724600Y-113020600D01*
X71951600Y-112980600D02*
X84715600Y-112980600D01*
X71960600Y-112940600D02*
X84706600Y-112940600D01*
X71970600Y-112900600D02*
X84696600Y-112900600D01*
X71980600Y-112860600D02*
X84686600Y-112860600D01*
X71990600Y-112820600D02*
X84676600Y-112820600D01*
X72000600Y-112780600D02*
X84666600Y-112780600D01*
X72011600Y-112740600D02*
X84655600Y-112740600D01*
X72022600Y-112700600D02*
X84644600Y-112700600D01*
X72033600Y-112660600D02*
X84633600Y-112660600D01*
X72045600Y-112620600D02*
X84621600Y-112620600D01*
X72056600Y-112580600D02*
X84610600Y-112580600D01*
X72068600Y-112540600D02*
X84598600Y-112540600D01*
X72081600Y-112500600D02*
X84585600Y-112500600D01*
X72093600Y-112460600D02*
X84573600Y-112460600D01*
X72106600Y-112420600D02*
X84560600Y-112420600D01*
X72119600Y-112380600D02*
X84547600Y-112380600D01*
X72133600Y-112340600D02*
X84533600Y-112340600D01*
X72147600Y-112300600D02*
X84519600Y-112300600D01*
X72161600Y-112260600D02*
X84505600Y-112260600D01*
X72175600Y-112220600D02*
X84491600Y-112220600D01*
X72189600Y-112180600D02*
X84477600Y-112180600D01*
X72204600Y-112140600D02*
X84462600Y-112140600D01*
X72220600Y-112100600D02*
X84446600Y-112100600D01*
X72235600Y-112060600D02*
X76953600Y-112060600D01*
X79713600Y-112060600D02*
X84431600Y-112060600D01*
X72251600Y-112020600D02*
X76953600Y-112020600D01*
X79713600Y-112020600D02*
X84415600Y-112020600D01*
X72267600Y-111980600D02*
X76953600Y-111980600D01*
X79713600Y-111980600D02*
X84399600Y-111980600D01*
X72283600Y-111940600D02*
X76953600Y-111940600D01*
X79713600Y-111940600D02*
X84383600Y-111940600D01*
X72300600Y-111900600D02*
X76953600Y-111900600D01*
X79713600Y-111900600D02*
X84366600Y-111900600D01*
X72317600Y-111860600D02*
X76953600Y-111860600D01*
X79713600Y-111860600D02*
X84349600Y-111860600D01*
X72334600Y-111820600D02*
X76953600Y-111820600D01*
X79713600Y-111820600D02*
X84332600Y-111820600D01*
X72352600Y-111780600D02*
X76953600Y-111780600D01*
X79713600Y-111780600D02*
X84314600Y-111780600D01*
X72370600Y-111740600D02*
X76953600Y-111740600D01*
X79713600Y-111740600D02*
X84296600Y-111740600D01*
X72388600Y-111700600D02*
X76953600Y-111700600D01*
X79713600Y-111700600D02*
X84278600Y-111700600D01*
X72407600Y-111660600D02*
X76953600Y-111660600D01*
X79713600Y-111660600D02*
X84259600Y-111660600D01*
X72426600Y-111620600D02*
X76953600Y-111620600D01*
X79713600Y-111620600D02*
X84240600Y-111620600D01*
X72445600Y-111580600D02*
X76953600Y-111580600D01*
X79713600Y-111580600D02*
X84221600Y-111580600D01*
X72465600Y-111540600D02*
X76953600Y-111540600D01*
X79713600Y-111540600D02*
X84201600Y-111540600D01*
X72485600Y-111500600D02*
X76953600Y-111500600D01*
X79713600Y-111500600D02*
X84181600Y-111500600D01*
X72505600Y-111460600D02*
X76953600Y-111460600D01*
X79713600Y-111460600D02*
X84161600Y-111460600D01*
X72526600Y-111420600D02*
X76953600Y-111420600D01*
X79713600Y-111420600D02*
X84140600Y-111420600D01*
X72547600Y-111380600D02*
X76953600Y-111380600D01*
X79713600Y-111380600D02*
X84119600Y-111380600D01*
X72568600Y-111340600D02*
X76953600Y-111340600D01*
X79713600Y-111340600D02*
X84098600Y-111340600D01*
X72590600Y-111300600D02*
X76953600Y-111300600D01*
X79713600Y-111300600D02*
X84076600Y-111300600D01*
X72612600Y-111260600D02*
X76953600Y-111260600D01*
X79713600Y-111260600D02*
X84054600Y-111260600D01*
X72634600Y-111220600D02*
X76953600Y-111220600D01*
X79713600Y-111220600D02*
X84032600Y-111220600D01*
X72657600Y-111180600D02*
X76953600Y-111180600D01*
X79713600Y-111180600D02*
X84009600Y-111180600D01*
X72680600Y-111140600D02*
X76953600Y-111140600D01*
X79713600Y-111140600D02*
X83986600Y-111140600D01*
X72703600Y-111100600D02*
X76953600Y-111100600D01*
X79713600Y-111100600D02*
X83963600Y-111100600D01*
X72727600Y-111060600D02*
X76953600Y-111060600D01*
X79713600Y-111060600D02*
X83939600Y-111060600D01*
X72752600Y-111020600D02*
X76953600Y-111020600D01*
X79713600Y-111020600D02*
X83914600Y-111020600D01*
X72776600Y-110980600D02*
X76953600Y-110980600D01*
X79713600Y-110980600D02*
X83890600Y-110980600D01*
X72801600Y-110940600D02*
X76953600Y-110940600D01*
X79713600Y-110940600D02*
X83865600Y-110940600D01*
X72827600Y-110900600D02*
X76953600Y-110900600D01*
X79713600Y-110900600D02*
X83839600Y-110900600D01*
X72853600Y-110860600D02*
X76953600Y-110860600D01*
X79713600Y-110860600D02*
X83813600Y-110860600D01*
X72879600Y-110820600D02*
X76953600Y-110820600D01*
X79713600Y-110820600D02*
X83787600Y-110820600D01*
X72906600Y-110780600D02*
X76953600Y-110780600D01*
X79713600Y-110780600D02*
X83760600Y-110780600D01*
X72933600Y-110740600D02*
X76953600Y-110740600D01*
X79713600Y-110740600D02*
X83733600Y-110740600D01*
X72960600Y-110700600D02*
X76953600Y-110700600D01*
X79713600Y-110700600D02*
X83706600Y-110700600D01*
X72988600Y-110660600D02*
X76953600Y-110660600D01*
X79713600Y-110660600D02*
X83678600Y-110660600D01*
X73017600Y-110620600D02*
X76953600Y-110620600D01*
X79713600Y-110620600D02*
X83649600Y-110620600D01*
X73046600Y-110580600D02*
X76953600Y-110580600D01*
X79713600Y-110580600D02*
X83620600Y-110580600D01*
X73075600Y-110540600D02*
X76953600Y-110540600D01*
X79713600Y-110540600D02*
X83591600Y-110540600D01*
X73105600Y-110500600D02*
X76953600Y-110500600D01*
X79713600Y-110500600D02*
X83561600Y-110500600D01*
X73135600Y-110460600D02*
X76953600Y-110460600D01*
X79713600Y-110460600D02*
X83531600Y-110460600D01*
X73166600Y-110420600D02*
X76953600Y-110420600D01*
X79713600Y-110420600D02*
X83500600Y-110420600D01*
X73197600Y-110380600D02*
X76953600Y-110380600D01*
X79713600Y-110380600D02*
X83469600Y-110380600D01*
X73229600Y-110340600D02*
X76953600Y-110340600D01*
X79713600Y-110340600D02*
X83437600Y-110340600D01*
X73261600Y-110300600D02*
X76953600Y-110300600D01*
X79713600Y-110300600D02*
X83405600Y-110300600D01*
X73294600Y-110260600D02*
X76953600Y-110260600D01*
X79713600Y-110260600D02*
X83372600Y-110260600D01*
X73328600Y-110220600D02*
X76953600Y-110220600D01*
X79713600Y-110220600D02*
X83338600Y-110220600D01*
X73362600Y-110180600D02*
X76953600Y-110180600D01*
X79713600Y-110180600D02*
X83304600Y-110180600D01*
X73396600Y-110140600D02*
X76953600Y-110140600D01*
X79713600Y-110140600D02*
X83270600Y-110140600D01*
X73431600Y-110100600D02*
X76953600Y-110100600D01*
X79713600Y-110100600D02*
X83235600Y-110100600D01*
X73467600Y-110060600D02*
X76953600Y-110060600D01*
X79713600Y-110060600D02*
X83199600Y-110060600D01*
X73503600Y-110020600D02*
X76953600Y-110020600D01*
X79713600Y-110020600D02*
X83163600Y-110020600D01*
X73540600Y-109980600D02*
X76953600Y-109980600D01*
X79713600Y-109980600D02*
X83126600Y-109980600D01*
X73577600Y-109940600D02*
X76953600Y-109940600D01*
X79713600Y-109940600D02*
X83089600Y-109940600D01*
X73615600Y-109900600D02*
X76953600Y-109900600D01*
X79713600Y-109900600D02*
X83051600Y-109900600D01*
X73654600Y-109860600D02*
X76953600Y-109860600D01*
X79713600Y-109860600D02*
X83012600Y-109860600D01*
X73693600Y-109820600D02*
X76953600Y-109820600D01*
X79713600Y-109820600D02*
X82973600Y-109820600D01*
X73733600Y-109780600D02*
X76953600Y-109780600D01*
X79713600Y-109780600D02*
X82933600Y-109780600D01*
X73774600Y-109740600D02*
X76953600Y-109740600D01*
X79713600Y-109740600D02*
X82892600Y-109740600D01*
X73815600Y-109700600D02*
X76953600Y-109700600D01*
X79713600Y-109700600D02*
X82851600Y-109700600D01*
X73857600Y-109660600D02*
X76953600Y-109660600D01*
X79713600Y-109660600D02*
X82809600Y-109660600D01*
X73900600Y-109620600D02*
X76953600Y-109620600D01*
X79713600Y-109620600D02*
X82766600Y-109620600D01*
X73944600Y-109580600D02*
X76953600Y-109580600D01*
X79713600Y-109580600D02*
X82722600Y-109580600D01*
X73988600Y-109540600D02*
X76953600Y-109540600D01*
X79713600Y-109540600D02*
X82678600Y-109540600D01*
X74034600Y-109500600D02*
X76953600Y-109500600D01*
X79713600Y-109500600D02*
X82632600Y-109500600D01*
X74080600Y-109460600D02*
X76953600Y-109460600D01*
X79713600Y-109460600D02*
X82586600Y-109460600D01*
X74127600Y-109420600D02*
X76953600Y-109420600D01*
X79713600Y-109420600D02*
X82539600Y-109420600D01*
X74175600Y-109380600D02*
X76953600Y-109380600D01*
X79713600Y-109380600D02*
X82491600Y-109380600D01*
X74224600Y-109340600D02*
X76953600Y-109340600D01*
X79713600Y-109340600D02*
X82442600Y-109340600D01*
X74273600Y-109300600D02*
X82393600Y-109300600D01*
X74324600Y-109260600D02*
X82342600Y-109260600D01*
X74376600Y-109220600D02*
X82290600Y-109220600D01*
X74429600Y-109180600D02*
X82237600Y-109180600D01*
X74483600Y-109140600D02*
X82183600Y-109140600D01*
X74539600Y-109100600D02*
X82127600Y-109100600D01*
X74595600Y-109060600D02*
X82071600Y-109060600D01*
X74653600Y-109020600D02*
X82013600Y-109020600D01*
X74712600Y-108980600D02*
X81954600Y-108980600D01*
X74773600Y-108940600D02*
X81893600Y-108940600D01*
X74835600Y-108900600D02*
X81831600Y-108900600D01*
X74899600Y-108860600D02*
X81767600Y-108860600D01*
X74964600Y-108820600D02*
X81702600Y-108820600D01*
X75031600Y-108780600D02*
X81635600Y-108780600D01*
X75100600Y-108740600D02*
X81566600Y-108740600D01*
X75171600Y-108700600D02*
X81495600Y-108700600D01*
X75244600Y-108660600D02*
X81422600Y-108660600D01*
X75319600Y-108620600D02*
X81347600Y-108620600D01*
X75397600Y-108580600D02*
X81269600Y-108580600D01*
X75477600Y-108540600D02*
X81189600Y-108540600D01*
X75561600Y-108500600D02*
X81105600Y-108500600D01*
X75647600Y-108460600D02*
X81019600Y-108460600D01*
X75737600Y-108420600D02*
X80929600Y-108420600D01*
X75831600Y-108380600D02*
X80835600Y-108380600D01*
X75928600Y-108340600D02*
X80738600Y-108340600D01*
X76031600Y-108300600D02*
X80635600Y-108300600D01*
X76139600Y-108260600D02*
X80527600Y-108260600D01*
X76253600Y-108220600D02*
X80413600Y-108220600D01*
X76375600Y-108180600D02*
X80291600Y-108180600D01*
X76505600Y-108140600D02*
X80161600Y-108140600D01*
X76647600Y-108100600D02*
X80019600Y-108100600D01*
X76801600Y-108060600D02*
X79865600Y-108060600D01*
X76974600Y-108020600D02*
X79692600Y-108020600D01*
X77173600Y-107980600D02*
X79493600Y-107980600D01*
X77415600Y-107940600D02*
X79251600Y-107940600D01*
X77744600Y-107900600D02*
X78922600Y-107900600D01*
X78333600Y-121411600D02*
X78333600Y-119611600D01*
X77433600Y-120511600D02*
X79233600Y-120511600D01*
X76606161Y-80605188D02*
G75*
G03X76601200Y-93401989I1575039J-6399012D01*
G01*
X79756239Y-80605188D02*
G75*
G02X79761200Y-93401989I-1575039J-6399012D01*
G01*
X79756239Y-80605188D02*
G75*
G03X76601200Y-80606411I-1575039J-6399012D01*
G01*
X71631200Y-87004200D02*
X84731200Y-87004200D01*
X71631200Y-86964200D02*
X84731200Y-86964200D01*
X71631200Y-86924200D02*
X84731200Y-86924200D01*
X71632200Y-86884200D02*
X84730200Y-86884200D01*
X71632200Y-86844200D02*
X84730200Y-86844200D01*
X71634200Y-86804200D02*
X84728200Y-86804200D01*
X71635200Y-86764200D02*
X84727200Y-86764200D01*
X71636200Y-86724200D02*
X84726200Y-86724200D01*
X71638200Y-86684200D02*
X84724200Y-86684200D01*
X71640200Y-86644200D02*
X84722200Y-86644200D01*
X71643200Y-86604200D02*
X84719200Y-86604200D01*
X71645200Y-86564200D02*
X84717200Y-86564200D01*
X71648200Y-86524200D02*
X84714200Y-86524200D01*
X71651200Y-86484200D02*
X84711200Y-86484200D01*
X71654200Y-86444200D02*
X84708200Y-86444200D01*
X71658200Y-86404200D02*
X84704200Y-86404200D01*
X71662200Y-86364200D02*
X84700200Y-86364200D01*
X71666200Y-86324200D02*
X84696200Y-86324200D01*
X71670200Y-86283200D02*
X84692200Y-86283200D01*
X71674200Y-86243200D02*
X84688200Y-86243200D01*
X71679200Y-86203200D02*
X84683200Y-86203200D01*
X71684200Y-86163200D02*
X84678200Y-86163200D01*
X71690200Y-86123200D02*
X84672200Y-86123200D01*
X71695200Y-86083200D02*
X84667200Y-86083200D01*
X71701200Y-86043200D02*
X84661200Y-86043200D01*
X71707200Y-86003200D02*
X84655200Y-86003200D01*
X71713200Y-85963200D02*
X84649200Y-85963200D01*
X71720200Y-85923200D02*
X84642200Y-85923200D01*
X71726200Y-85883200D02*
X84636200Y-85883200D01*
X71733200Y-85843200D02*
X84629200Y-85843200D01*
X71741200Y-85803200D02*
X84621200Y-85803200D01*
X71748200Y-85763200D02*
X84614200Y-85763200D01*
X71756200Y-85723200D02*
X84606200Y-85723200D01*
X71764200Y-85683200D02*
X84598200Y-85683200D01*
X71772200Y-85643200D02*
X84590200Y-85643200D01*
X71781200Y-85603200D02*
X84581200Y-85603200D01*
X71790200Y-85563200D02*
X84572200Y-85563200D01*
X71799200Y-85523200D02*
X84563200Y-85523200D01*
X71808200Y-85483200D02*
X84554200Y-85483200D01*
X71818200Y-85443200D02*
X84544200Y-85443200D01*
X71828200Y-85403200D02*
X84534200Y-85403200D01*
X71838200Y-85363200D02*
X84524200Y-85363200D01*
X71848200Y-85323200D02*
X84514200Y-85323200D01*
X71859200Y-85283200D02*
X84503200Y-85283200D01*
X71870200Y-85243200D02*
X84492200Y-85243200D01*
X71881200Y-85203200D02*
X84481200Y-85203200D01*
X71893200Y-85163200D02*
X84469200Y-85163200D01*
X71904200Y-85123200D02*
X84458200Y-85123200D01*
X71916200Y-85083200D02*
X84446200Y-85083200D01*
X71929200Y-85043200D02*
X84433200Y-85043200D01*
X71941200Y-85003200D02*
X84421200Y-85003200D01*
X71954200Y-84963200D02*
X84408200Y-84963200D01*
X71967200Y-84923200D02*
X84395200Y-84923200D01*
X71981200Y-84883200D02*
X84381200Y-84883200D01*
X71995200Y-84843200D02*
X84367200Y-84843200D01*
X72009200Y-84803200D02*
X84353200Y-84803200D01*
X72023200Y-84763200D02*
X84339200Y-84763200D01*
X72037200Y-84723200D02*
X84325200Y-84723200D01*
X72052200Y-84683200D02*
X84310200Y-84683200D01*
X72068200Y-84643200D02*
X84294200Y-84643200D01*
X72083200Y-84603200D02*
X76801200Y-84603200D01*
X79561200Y-84603200D02*
X84279200Y-84603200D01*
X72099200Y-84563200D02*
X76801200Y-84563200D01*
X79561200Y-84563200D02*
X84263200Y-84563200D01*
X72115200Y-84523200D02*
X76801200Y-84523200D01*
X79561200Y-84523200D02*
X84247200Y-84523200D01*
X72131200Y-84483200D02*
X76801200Y-84483200D01*
X79561200Y-84483200D02*
X84231200Y-84483200D01*
X72148200Y-84443200D02*
X76801200Y-84443200D01*
X79561200Y-84443200D02*
X84214200Y-84443200D01*
X72165200Y-84403200D02*
X76801200Y-84403200D01*
X79561200Y-84403200D02*
X84197200Y-84403200D01*
X72182200Y-84363200D02*
X76801200Y-84363200D01*
X79561200Y-84363200D02*
X84180200Y-84363200D01*
X72200200Y-84323200D02*
X76801200Y-84323200D01*
X79561200Y-84323200D02*
X84162200Y-84323200D01*
X72218200Y-84283200D02*
X76801200Y-84283200D01*
X79561200Y-84283200D02*
X84144200Y-84283200D01*
X72236200Y-84243200D02*
X76801200Y-84243200D01*
X79561200Y-84243200D02*
X84126200Y-84243200D01*
X72255200Y-84203200D02*
X76801200Y-84203200D01*
X79561200Y-84203200D02*
X84107200Y-84203200D01*
X72274200Y-84163200D02*
X76801200Y-84163200D01*
X79561200Y-84163200D02*
X84088200Y-84163200D01*
X72293200Y-84123200D02*
X76801200Y-84123200D01*
X79561200Y-84123200D02*
X84069200Y-84123200D01*
X72313200Y-84083200D02*
X76801200Y-84083200D01*
X79561200Y-84083200D02*
X84049200Y-84083200D01*
X72333200Y-84043200D02*
X76801200Y-84043200D01*
X79561200Y-84043200D02*
X84029200Y-84043200D01*
X72353200Y-84003200D02*
X76801200Y-84003200D01*
X79561200Y-84003200D02*
X84009200Y-84003200D01*
X72374200Y-83963200D02*
X76801200Y-83963200D01*
X79561200Y-83963200D02*
X83988200Y-83963200D01*
X72395200Y-83923200D02*
X76801200Y-83923200D01*
X79561200Y-83923200D02*
X83967200Y-83923200D01*
X72416200Y-83883200D02*
X76801200Y-83883200D01*
X79561200Y-83883200D02*
X83946200Y-83883200D01*
X72438200Y-83843200D02*
X76801200Y-83843200D01*
X79561200Y-83843200D02*
X83924200Y-83843200D01*
X72460200Y-83803200D02*
X76801200Y-83803200D01*
X79561200Y-83803200D02*
X83902200Y-83803200D01*
X72482200Y-83763200D02*
X76801200Y-83763200D01*
X79561200Y-83763200D02*
X83880200Y-83763200D01*
X72505200Y-83723200D02*
X76801200Y-83723200D01*
X79561200Y-83723200D02*
X83857200Y-83723200D01*
X72528200Y-83683200D02*
X76801200Y-83683200D01*
X79561200Y-83683200D02*
X83834200Y-83683200D01*
X72551200Y-83643200D02*
X76801200Y-83643200D01*
X79561200Y-83643200D02*
X83811200Y-83643200D01*
X72575200Y-83603200D02*
X76801200Y-83603200D01*
X79561200Y-83603200D02*
X83787200Y-83603200D01*
X72600200Y-83563200D02*
X76801200Y-83563200D01*
X79561200Y-83563200D02*
X83762200Y-83563200D01*
X72624200Y-83523200D02*
X76801200Y-83523200D01*
X79561200Y-83523200D02*
X83738200Y-83523200D01*
X72649200Y-83483200D02*
X76801200Y-83483200D01*
X79561200Y-83483200D02*
X83713200Y-83483200D01*
X72675200Y-83443200D02*
X76801200Y-83443200D01*
X79561200Y-83443200D02*
X83687200Y-83443200D01*
X72701200Y-83403200D02*
X76801200Y-83403200D01*
X79561200Y-83403200D02*
X83661200Y-83403200D01*
X72727200Y-83363200D02*
X76801200Y-83363200D01*
X79561200Y-83363200D02*
X83635200Y-83363200D01*
X72754200Y-83323200D02*
X76801200Y-83323200D01*
X79561200Y-83323200D02*
X83608200Y-83323200D01*
X72781200Y-83283200D02*
X76801200Y-83283200D01*
X79561200Y-83283200D02*
X83581200Y-83283200D01*
X72808200Y-83243200D02*
X76801200Y-83243200D01*
X79561200Y-83243200D02*
X83554200Y-83243200D01*
X72836200Y-83203200D02*
X76801200Y-83203200D01*
X79561200Y-83203200D02*
X83526200Y-83203200D01*
X72865200Y-83163200D02*
X76801200Y-83163200D01*
X79561200Y-83163200D02*
X83497200Y-83163200D01*
X72894200Y-83123200D02*
X76801200Y-83123200D01*
X79561200Y-83123200D02*
X83468200Y-83123200D01*
X72923200Y-83083200D02*
X76801200Y-83083200D01*
X79561200Y-83083200D02*
X83439200Y-83083200D01*
X72953200Y-83043200D02*
X76801200Y-83043200D01*
X79561200Y-83043200D02*
X83409200Y-83043200D01*
X72983200Y-83003200D02*
X76801200Y-83003200D01*
X79561200Y-83003200D02*
X83379200Y-83003200D01*
X73014200Y-82963200D02*
X76801200Y-82963200D01*
X79561200Y-82963200D02*
X83348200Y-82963200D01*
X73045200Y-82923200D02*
X76801200Y-82923200D01*
X79561200Y-82923200D02*
X83317200Y-82923200D01*
X73077200Y-82883200D02*
X76801200Y-82883200D01*
X79561200Y-82883200D02*
X83285200Y-82883200D01*
X73109200Y-82843200D02*
X76801200Y-82843200D01*
X79561200Y-82843200D02*
X83253200Y-82843200D01*
X73142200Y-82803200D02*
X76801200Y-82803200D01*
X79561200Y-82803200D02*
X83220200Y-82803200D01*
X73176200Y-82763200D02*
X76801200Y-82763200D01*
X79561200Y-82763200D02*
X83186200Y-82763200D01*
X73210200Y-82723200D02*
X76801200Y-82723200D01*
X79561200Y-82723200D02*
X83152200Y-82723200D01*
X73244200Y-82683200D02*
X76801200Y-82683200D01*
X79561200Y-82683200D02*
X83118200Y-82683200D01*
X73279200Y-82643200D02*
X76801200Y-82643200D01*
X79561200Y-82643200D02*
X83083200Y-82643200D01*
X73315200Y-82603200D02*
X76801200Y-82603200D01*
X79561200Y-82603200D02*
X83047200Y-82603200D01*
X73351200Y-82563200D02*
X76801200Y-82563200D01*
X79561200Y-82563200D02*
X83011200Y-82563200D01*
X73388200Y-82523200D02*
X76801200Y-82523200D01*
X79561200Y-82523200D02*
X82974200Y-82523200D01*
X73425200Y-82483200D02*
X76801200Y-82483200D01*
X79561200Y-82483200D02*
X82937200Y-82483200D01*
X73463200Y-82443200D02*
X76801200Y-82443200D01*
X79561200Y-82443200D02*
X82899200Y-82443200D01*
X73502200Y-82403200D02*
X76801200Y-82403200D01*
X79561200Y-82403200D02*
X82860200Y-82403200D01*
X73541200Y-82363200D02*
X76801200Y-82363200D01*
X79561200Y-82363200D02*
X82821200Y-82363200D01*
X73581200Y-82323200D02*
X76801200Y-82323200D01*
X79561200Y-82323200D02*
X82781200Y-82323200D01*
X73622200Y-82283200D02*
X76801200Y-82283200D01*
X79561200Y-82283200D02*
X82740200Y-82283200D01*
X73663200Y-82243200D02*
X76801200Y-82243200D01*
X79561200Y-82243200D02*
X82699200Y-82243200D01*
X73705200Y-82203200D02*
X76801200Y-82203200D01*
X79561200Y-82203200D02*
X82657200Y-82203200D01*
X73748200Y-82163200D02*
X76801200Y-82163200D01*
X79561200Y-82163200D02*
X82614200Y-82163200D01*
X73792200Y-82123200D02*
X76801200Y-82123200D01*
X79561200Y-82123200D02*
X82570200Y-82123200D01*
X73836200Y-82083200D02*
X76801200Y-82083200D01*
X79561200Y-82083200D02*
X82526200Y-82083200D01*
X73882200Y-82043200D02*
X76801200Y-82043200D01*
X79561200Y-82043200D02*
X82480200Y-82043200D01*
X73928200Y-82003200D02*
X76801200Y-82003200D01*
X79561200Y-82003200D02*
X82434200Y-82003200D01*
X73975200Y-81963200D02*
X76801200Y-81963200D01*
X79561200Y-81963200D02*
X82387200Y-81963200D01*
X74023200Y-81923200D02*
X76801200Y-81923200D01*
X79561200Y-81923200D02*
X82339200Y-81923200D01*
X74072200Y-81883200D02*
X76801200Y-81883200D01*
X79561200Y-81883200D02*
X82290200Y-81883200D01*
X74121200Y-81843200D02*
X82241200Y-81843200D01*
X74172200Y-81803200D02*
X82190200Y-81803200D01*
X74224200Y-81763200D02*
X82138200Y-81763200D01*
X74277200Y-81723200D02*
X82085200Y-81723200D01*
X74331200Y-81683200D02*
X82031200Y-81683200D01*
X74387200Y-81643200D02*
X81975200Y-81643200D01*
X74443200Y-81603200D02*
X81919200Y-81603200D01*
X74501200Y-81563200D02*
X81861200Y-81563200D01*
X74560200Y-81523200D02*
X81802200Y-81523200D01*
X74621200Y-81483200D02*
X81741200Y-81483200D01*
X74683200Y-81443200D02*
X81679200Y-81443200D01*
X74747200Y-81403200D02*
X81615200Y-81403200D01*
X74812200Y-81363200D02*
X81550200Y-81363200D01*
X74879200Y-81323200D02*
X81483200Y-81323200D01*
X74948200Y-81283200D02*
X81414200Y-81283200D01*
X75019200Y-81243200D02*
X81343200Y-81243200D01*
X75092200Y-81203200D02*
X81270200Y-81203200D01*
X75167200Y-81163200D02*
X81195200Y-81163200D01*
X75245200Y-81123200D02*
X81117200Y-81123200D01*
X75325200Y-81083200D02*
X81037200Y-81083200D01*
X75409200Y-81043200D02*
X80953200Y-81043200D01*
X75495200Y-81003200D02*
X80867200Y-81003200D01*
X75585200Y-80963200D02*
X80777200Y-80963200D01*
X75679200Y-80923200D02*
X80683200Y-80923200D01*
X75776200Y-80883200D02*
X80586200Y-80883200D01*
X75879200Y-80843200D02*
X80483200Y-80843200D01*
X75987200Y-80803200D02*
X80375200Y-80803200D01*
X76101200Y-80763200D02*
X80261200Y-80763200D01*
X76223200Y-80723200D02*
X80139200Y-80723200D01*
X76353200Y-80683200D02*
X80009200Y-80683200D01*
X76495200Y-80643200D02*
X79867200Y-80643200D01*
X76649200Y-80603200D02*
X79713200Y-80603200D01*
X76822200Y-80563200D02*
X79540200Y-80563200D01*
X77021200Y-80523200D02*
X79341200Y-80523200D01*
X77263200Y-80483200D02*
X79099200Y-80483200D01*
X77592200Y-80443200D02*
X78770200Y-80443200D01*
X78181200Y-93954200D02*
X78181200Y-92154200D01*
X77281200Y-93054200D02*
X79081200Y-93054200D01*
X55286000Y-53000000D02*
G75*
G03X55286000Y-53000000I-2286000J0D01*
G01*
X55286000Y-147000000D02*
G75*
G03X55286000Y-147000000I-2286000J0D01*
G01*
X149286000Y-53000000D02*
G75*
G03X149286000Y-53000000I-2286000J0D01*
G01*
X149286000Y-147000000D02*
G75*
G03X149286000Y-147000000I-2286000J0D01*
G01*
X123993451Y-55174995D02*
G75*
G03X116160518Y-55172440I-3916851J-1177445D01*
G01*
X123993451Y-57529885D02*
G75*
G02X116160518Y-57532440I-3916851J1177445D01*
G01*
X123993451Y-57529885D02*
G75*
G03X123992682Y-55172440I-3916851J1177445D01*
G01*
X120076600Y-52302440D02*
X120076600Y-60402440D01*
X120116600Y-52302440D02*
X120116600Y-60402440D01*
X120156600Y-52302440D02*
X120156600Y-60402440D01*
X120196600Y-52303440D02*
X120196600Y-60401440D01*
X120236600Y-52305440D02*
X120236600Y-60399440D01*
X120276600Y-52306440D02*
X120276600Y-60398440D01*
X120316600Y-52309440D02*
X120316600Y-60395440D01*
X120356600Y-52311440D02*
X120356600Y-60393440D01*
X120396600Y-52314440D02*
X120396600Y-60390440D01*
X120436600Y-52317440D02*
X120436600Y-60387440D01*
X120476600Y-52321440D02*
X120476600Y-60383440D01*
X120516600Y-52325440D02*
X120516600Y-60379440D01*
X120556600Y-52330440D02*
X120556600Y-60374440D01*
X120596600Y-52335440D02*
X120596600Y-60369440D01*
X120636600Y-52340440D02*
X120636600Y-60364440D01*
X120676600Y-52346440D02*
X120676600Y-60358440D01*
X120716600Y-52352440D02*
X120716600Y-60352440D01*
X120756600Y-52358440D02*
X120756600Y-60346440D01*
X120797600Y-52365440D02*
X120797600Y-60339440D01*
X120837600Y-52373440D02*
X120837600Y-60331440D01*
X120877600Y-52381440D02*
X120877600Y-60323440D01*
X120917600Y-52389440D02*
X120917600Y-60315440D01*
X120957600Y-52397440D02*
X120957600Y-60307440D01*
X120997600Y-52406440D02*
X120997600Y-60298440D01*
X121037600Y-52416440D02*
X121037600Y-60288440D01*
X121077600Y-52426440D02*
X121077600Y-60278440D01*
X121117600Y-52436440D02*
X121117600Y-60268440D01*
X121157600Y-52447440D02*
X121157600Y-60257440D01*
X121197600Y-52458440D02*
X121197600Y-60246440D01*
X121237600Y-52469440D02*
X121237600Y-60235440D01*
X121277600Y-52482440D02*
X121277600Y-60222440D01*
X121317600Y-52494440D02*
X121317600Y-60210440D01*
X121357600Y-52507440D02*
X121357600Y-60197440D01*
X121397600Y-52520440D02*
X121397600Y-60184440D01*
X121437600Y-52534440D02*
X121437600Y-60170440D01*
X121477600Y-52549440D02*
X121477600Y-60155440D01*
X121517600Y-52563440D02*
X121517600Y-60141440D01*
X121557600Y-52579440D02*
X121557600Y-60125440D01*
X121597600Y-52594440D02*
X121597600Y-55372440D01*
X121597600Y-57332440D02*
X121597600Y-60110440D01*
X121637600Y-52611440D02*
X121637600Y-55372440D01*
X121637600Y-57332440D02*
X121637600Y-60093440D01*
X121677600Y-52627440D02*
X121677600Y-55372440D01*
X121677600Y-57332440D02*
X121677600Y-60077440D01*
X121717600Y-52645440D02*
X121717600Y-55372440D01*
X121717600Y-57332440D02*
X121717600Y-60059440D01*
X121757600Y-52662440D02*
X121757600Y-55372440D01*
X121757600Y-57332440D02*
X121757600Y-60042440D01*
X121797600Y-52681440D02*
X121797600Y-55372440D01*
X121797600Y-57332440D02*
X121797600Y-60023440D01*
X121837600Y-52700440D02*
X121837600Y-55372440D01*
X121837600Y-57332440D02*
X121837600Y-60004440D01*
X121877600Y-52719440D02*
X121877600Y-55372440D01*
X121877600Y-57332440D02*
X121877600Y-59985440D01*
X121917600Y-52739440D02*
X121917600Y-55372440D01*
X121917600Y-57332440D02*
X121917600Y-59965440D01*
X121957600Y-52759440D02*
X121957600Y-55372440D01*
X121957600Y-57332440D02*
X121957600Y-59945440D01*
X121997600Y-52780440D02*
X121997600Y-55372440D01*
X121997600Y-57332440D02*
X121997600Y-59924440D01*
X122037600Y-52802440D02*
X122037600Y-55372440D01*
X122037600Y-57332440D02*
X122037600Y-59902440D01*
X122077600Y-52824440D02*
X122077600Y-55372440D01*
X122077600Y-57332440D02*
X122077600Y-59880440D01*
X122117600Y-52847440D02*
X122117600Y-55372440D01*
X122117600Y-57332440D02*
X122117600Y-59857440D01*
X122157600Y-52870440D02*
X122157600Y-55372440D01*
X122157600Y-57332440D02*
X122157600Y-59834440D01*
X122197600Y-52894440D02*
X122197600Y-55372440D01*
X122197600Y-57332440D02*
X122197600Y-59810440D01*
X122237600Y-52918440D02*
X122237600Y-55372440D01*
X122237600Y-57332440D02*
X122237600Y-59786440D01*
X122277600Y-52944440D02*
X122277600Y-55372440D01*
X122277600Y-57332440D02*
X122277600Y-59760440D01*
X122317600Y-52969440D02*
X122317600Y-55372440D01*
X122317600Y-57332440D02*
X122317600Y-59735440D01*
X122357600Y-52996440D02*
X122357600Y-55372440D01*
X122357600Y-57332440D02*
X122357600Y-59708440D01*
X122397600Y-53023440D02*
X122397600Y-55372440D01*
X122397600Y-57332440D02*
X122397600Y-59681440D01*
X122437600Y-53051440D02*
X122437600Y-55372440D01*
X122437600Y-57332440D02*
X122437600Y-59653440D01*
X122477600Y-53080440D02*
X122477600Y-55372440D01*
X122477600Y-57332440D02*
X122477600Y-59624440D01*
X122517600Y-53109440D02*
X122517600Y-55372440D01*
X122517600Y-57332440D02*
X122517600Y-59595440D01*
X122557600Y-53139440D02*
X122557600Y-55372440D01*
X122557600Y-57332440D02*
X122557600Y-59565440D01*
X122597600Y-53170440D02*
X122597600Y-55372440D01*
X122597600Y-57332440D02*
X122597600Y-59534440D01*
X122637600Y-53202440D02*
X122637600Y-55372440D01*
X122637600Y-57332440D02*
X122637600Y-59502440D01*
X122677600Y-53234440D02*
X122677600Y-55372440D01*
X122677600Y-57332440D02*
X122677600Y-59470440D01*
X122717600Y-53268440D02*
X122717600Y-55372440D01*
X122717600Y-57332440D02*
X122717600Y-59436440D01*
X122757600Y-53302440D02*
X122757600Y-55372440D01*
X122757600Y-57332440D02*
X122757600Y-59402440D01*
X122797600Y-53337440D02*
X122797600Y-55372440D01*
X122797600Y-57332440D02*
X122797600Y-59367440D01*
X122837600Y-53373440D02*
X122837600Y-55372440D01*
X122837600Y-57332440D02*
X122837600Y-59331440D01*
X122877600Y-53410440D02*
X122877600Y-55372440D01*
X122877600Y-57332440D02*
X122877600Y-59294440D01*
X122917600Y-53448440D02*
X122917600Y-55372440D01*
X122917600Y-57332440D02*
X122917600Y-59256440D01*
X122957600Y-53487440D02*
X122957600Y-55372440D01*
X122957600Y-57332440D02*
X122957600Y-59217440D01*
X122997600Y-53528440D02*
X122997600Y-55372440D01*
X122997600Y-57332440D02*
X122997600Y-59176440D01*
X123037600Y-53569440D02*
X123037600Y-55372440D01*
X123037600Y-57332440D02*
X123037600Y-59135440D01*
X123077600Y-53612440D02*
X123077600Y-55372440D01*
X123077600Y-57332440D02*
X123077600Y-59092440D01*
X123117600Y-53655440D02*
X123117600Y-55372440D01*
X123117600Y-57332440D02*
X123117600Y-59049440D01*
X123157600Y-53700440D02*
X123157600Y-55372440D01*
X123157600Y-57332440D02*
X123157600Y-59004440D01*
X123197600Y-53747440D02*
X123197600Y-55372440D01*
X123197600Y-57332440D02*
X123197600Y-58957440D01*
X123237600Y-53795440D02*
X123237600Y-55372440D01*
X123237600Y-57332440D02*
X123237600Y-58909440D01*
X123277600Y-53844440D02*
X123277600Y-55372440D01*
X123277600Y-57332440D02*
X123277600Y-58860440D01*
X123317600Y-53895440D02*
X123317600Y-55372440D01*
X123317600Y-57332440D02*
X123317600Y-58809440D01*
X123357600Y-53948440D02*
X123357600Y-55372440D01*
X123357600Y-57332440D02*
X123357600Y-58756440D01*
X123397600Y-54003440D02*
X123397600Y-55372440D01*
X123397600Y-57332440D02*
X123397600Y-58701440D01*
X123437600Y-54059440D02*
X123437600Y-55372440D01*
X123437600Y-57332440D02*
X123437600Y-58645440D01*
X123477600Y-54118440D02*
X123477600Y-55372440D01*
X123477600Y-57332440D02*
X123477600Y-58586440D01*
X123517600Y-54179440D02*
X123517600Y-55372440D01*
X123517600Y-57332440D02*
X123517600Y-58525440D01*
X123557600Y-54243440D02*
X123557600Y-58461440D01*
X123597600Y-54309440D02*
X123597600Y-58395440D01*
X123637600Y-54378440D02*
X123637600Y-58326440D01*
X123677600Y-54450440D02*
X123677600Y-58254440D01*
X123717600Y-54526440D02*
X123717600Y-58178440D01*
X123757600Y-54607440D02*
X123757600Y-58097440D01*
X123797600Y-54692440D02*
X123797600Y-58012440D01*
X123837600Y-54782440D02*
X123837600Y-57922440D01*
X123877600Y-54879440D02*
X123877600Y-57825440D01*
X123917600Y-54983440D02*
X123917600Y-57721440D01*
X123957600Y-55098440D02*
X123957600Y-57606440D01*
X123997600Y-55225440D02*
X123997600Y-57479440D01*
X124037600Y-55369440D02*
X124037600Y-57335440D01*
X124077600Y-55538440D02*
X124077600Y-57166440D01*
X124117600Y-55754440D02*
X124117600Y-56950440D01*
X124157600Y-56106440D02*
X124157600Y-56598440D01*
X115376600Y-56352440D02*
X116576600Y-56352440D01*
X115976600Y-55702440D02*
X115976600Y-57002440D01*
X126250700Y-66992500D02*
X116090700Y-66992500D01*
X126250700Y-68262500D02*
X126250700Y-60642500D01*
X126250700Y-60642500D02*
X116090700Y-60642500D01*
X116090700Y-60642500D02*
X116090700Y-68262500D01*
X116090700Y-68262500D02*
X126250700Y-68262500D01*
X115026000Y-54956000D02*
X115356000Y-54956000D01*
X115356000Y-54956000D02*
X115356000Y-61376000D01*
X115356000Y-61376000D02*
X115026000Y-61376000D01*
X113066000Y-54956000D02*
X112736000Y-54956000D01*
X112736000Y-54956000D02*
X112736000Y-61376000D01*
X112736000Y-61376000D02*
X113066000Y-61376000D01*
X136589392Y-57509665D02*
G75*
G03X136432484Y-60742000I1078608J-1672335D01*
G01*
X138746608Y-57509665D02*
G75*
G02X138903516Y-60742000I-1078608J-1672335D01*
G01*
X136588163Y-58140870D02*
G75*
G03X136588000Y-60222961I1079837J-1041130D01*
G01*
X138747837Y-58140870D02*
G75*
G02X138748000Y-60222961I-1079837J-1041130D01*
G01*
X136432000Y-60742000D02*
X136588000Y-60742000D01*
X138748000Y-60742000D02*
X138904000Y-60742000D01*
X126330000Y-55408000D02*
X126330000Y-55078000D01*
X126330000Y-55078000D02*
X132750000Y-55078000D01*
X132750000Y-55078000D02*
X132750000Y-55408000D01*
X126330000Y-57368000D02*
X126330000Y-57698000D01*
X126330000Y-57698000D02*
X132750000Y-57698000D01*
X132750000Y-57698000D02*
X132750000Y-57368000D01*
X111770000Y-55252000D02*
X111900000Y-55252000D01*
X111900000Y-55252000D02*
X111900000Y-60572000D01*
X111900000Y-60572000D02*
X111770000Y-60572000D01*
X109210000Y-55252000D02*
X109080000Y-55252000D01*
X109080000Y-55252000D02*
X109080000Y-60572000D01*
X109080000Y-60572000D02*
X109210000Y-60572000D01*
X111900000Y-56092000D02*
X109080000Y-56092000D01*
X105401600Y-64433300D02*
X104921600Y-64433300D01*
X104921600Y-64433300D02*
X104921600Y-54413300D01*
X104921600Y-54413300D02*
X105401600Y-54413300D01*
X108161600Y-64433300D02*
X108641600Y-64433300D01*
X108641600Y-64433300D02*
X108641600Y-54413300D01*
X108641600Y-54413300D02*
X108161600Y-54413300D01*
X128011704Y-99252749D02*
G75*
G02X130321000Y-99212440I1154296J40309D01*
G01*
X130320052Y-99192319D02*
G75*
G02X128926000Y-100341440I-1154052J-20121D01*
G01*
X125546000Y-107532440D02*
X125546000Y-97882440D01*
X130497000Y-107532440D02*
X130497000Y-97882440D01*
X125546000Y-107532440D02*
X130497000Y-107532440D01*
X125546000Y-97882440D02*
X130497000Y-97882440D01*
X128432000Y-98336440D02*
X130042000Y-99947440D01*
X128291000Y-98476440D02*
X129901000Y-100088440D01*
X133800364Y-96987069D02*
G75*
G02X136109660Y-96946760I1154296J40309D01*
G01*
X136108712Y-96926639D02*
G75*
G02X134714660Y-98075760I-1154052J-20121D01*
G01*
X131334660Y-105266760D02*
X131334660Y-95616760D01*
X136285660Y-105266760D02*
X136285660Y-95616760D01*
X131334660Y-105266760D02*
X136285660Y-105266760D01*
X131334660Y-95616760D02*
X136285660Y-95616760D01*
X134220660Y-96070760D02*
X135830660Y-97681760D01*
X134079660Y-96210760D02*
X135689660Y-97822760D01*
X98326000Y-62782000D02*
X98326000Y-60662000D01*
X98326000Y-60662000D02*
X94206000Y-60662000D01*
X94206000Y-60662000D02*
X94206000Y-62782000D01*
X94206000Y-62782000D02*
X98326000Y-62782000D01*
X99096000Y-61722000D02*
X98326000Y-61722000D01*
X93436000Y-61722000D02*
X94206000Y-61722000D01*
X97666000Y-62782000D02*
X97666000Y-60662000D01*
X94206000Y-63456000D02*
X94206000Y-65576000D01*
X94206000Y-65576000D02*
X98326000Y-65576000D01*
X98326000Y-65576000D02*
X98326000Y-63456000D01*
X98326000Y-63456000D02*
X94206000Y-63456000D01*
X93436000Y-64516000D02*
X94206000Y-64516000D01*
X99096000Y-64516000D02*
X98326000Y-64516000D01*
X94866000Y-63456000D02*
X94866000Y-65576000D01*
X98399309Y-95508296D02*
G75*
G02X98359000Y-93199000I-40309J1154296D01*
G01*
X98338879Y-93199948D02*
G75*
G02X99488000Y-94594000I20121J-1154052D01*
G01*
X106679000Y-97974000D02*
X97029000Y-97974000D01*
X106679000Y-93023000D02*
X97029000Y-93023000D01*
X106679000Y-97974000D02*
X106679000Y-93023000D01*
X97029000Y-97974000D02*
X97029000Y-93023000D01*
X97483000Y-95088000D02*
X99094000Y-93478000D01*
X97623000Y-95229000D02*
X99235000Y-93619000D01*
X88556809Y-88840796D02*
G75*
G02X88516500Y-86531500I-40309J1154296D01*
G01*
X88496379Y-86532448D02*
G75*
G02X89645500Y-87926500I20121J-1154052D01*
G01*
X96836500Y-91306500D02*
X87186500Y-91306500D01*
X96836500Y-86355500D02*
X87186500Y-86355500D01*
X96836500Y-91306500D02*
X96836500Y-86355500D01*
X87186500Y-91306500D02*
X87186500Y-86355500D01*
X87640500Y-88420500D02*
X89251500Y-86810500D01*
X87780500Y-88561500D02*
X89392500Y-86951500D01*
X77816400Y-76972800D02*
X82936400Y-76972800D01*
X77816400Y-79592800D02*
X82936400Y-79592800D01*
X77816400Y-76972800D02*
X77816400Y-77286800D01*
X77816400Y-79278800D02*
X77816400Y-79592800D01*
X82936400Y-76972800D02*
X82936400Y-77286800D01*
X82936400Y-79278800D02*
X82936400Y-79592800D01*
X85588000Y-101415200D02*
X85458000Y-101415200D01*
X85458000Y-101415200D02*
X85458000Y-96095200D01*
X85458000Y-96095200D02*
X85588000Y-96095200D01*
X88148000Y-101415200D02*
X88278000Y-101415200D01*
X88278000Y-101415200D02*
X88278000Y-96095200D01*
X88278000Y-96095200D02*
X88148000Y-96095200D01*
X85458000Y-100575200D02*
X88278000Y-100575200D01*
X139638400Y-148416000D02*
X129398400Y-148416000D01*
X139638400Y-143775000D02*
X129398400Y-143775000D01*
X139638400Y-148416000D02*
X139638400Y-143775000D01*
X129398400Y-148416000D02*
X129398400Y-143775000D01*
X139638400Y-146906000D02*
X129398400Y-146906000D01*
X136368400Y-148416000D02*
X136368400Y-146906000D01*
X132667400Y-148416000D02*
X132667400Y-146906000D01*
X103545000Y-148390600D02*
X93305000Y-148390600D01*
X103545000Y-143749600D02*
X93305000Y-143749600D01*
X103545000Y-148390600D02*
X103545000Y-143749600D01*
X93305000Y-148390600D02*
X93305000Y-143749600D01*
X103545000Y-146880600D02*
X93305000Y-146880600D01*
X100275000Y-148390600D02*
X100275000Y-146880600D01*
X96574000Y-148390600D02*
X96574000Y-146880600D01*
X121579000Y-148390600D02*
X111339000Y-148390600D01*
X121579000Y-143749600D02*
X111339000Y-143749600D01*
X121579000Y-148390600D02*
X121579000Y-143749600D01*
X111339000Y-148390600D02*
X111339000Y-143749600D01*
X121579000Y-146880600D02*
X111339000Y-146880600D01*
X118309000Y-148390600D02*
X118309000Y-146880600D01*
X114608000Y-148390600D02*
X114608000Y-146880600D01*
X85638000Y-148390600D02*
X75398000Y-148390600D01*
X85638000Y-143749600D02*
X75398000Y-143749600D01*
X85638000Y-148390600D02*
X85638000Y-143749600D01*
X75398000Y-148390600D02*
X75398000Y-143749600D01*
X85638000Y-146880600D02*
X75398000Y-146880600D01*
X82368000Y-148390600D02*
X82368000Y-146880600D01*
X78667000Y-148390600D02*
X78667000Y-146880600D01*
X67350000Y-148441400D02*
X57110000Y-148441400D01*
X67350000Y-143800400D02*
X57110000Y-143800400D01*
X67350000Y-148441400D02*
X67350000Y-143800400D01*
X57110000Y-148441400D02*
X57110000Y-143800400D01*
X67350000Y-146931400D02*
X57110000Y-146931400D01*
X64080000Y-148441400D02*
X64080000Y-146931400D01*
X60379000Y-148441400D02*
X60379000Y-146931400D01*
X85563400Y-85632600D02*
X88223400Y-85632600D01*
X85563400Y-83032600D02*
X85563400Y-85632600D01*
X88223400Y-83032600D02*
X88223400Y-85632600D01*
X85563400Y-83032600D02*
X88223400Y-83032600D01*
X85563400Y-81762600D02*
X85563400Y-80432600D01*
X85563400Y-80432600D02*
X86893400Y-80432600D01*
D11*
X128001734Y-80417943D02*
X127954115Y-80465562D01*
X127811258Y-80513181D01*
X127716020Y-80513181D01*
X127573162Y-80465562D01*
X127477924Y-80370324D01*
X127430305Y-80275086D01*
X127382686Y-80084610D01*
X127382686Y-79941752D01*
X127430305Y-79751276D01*
X127477924Y-79656038D01*
X127573162Y-79560800D01*
X127716020Y-79513181D01*
X127811258Y-79513181D01*
X127954115Y-79560800D01*
X128001734Y-79608419D01*
X128906496Y-79513181D02*
X128430305Y-79513181D01*
X128382686Y-79989371D01*
X128430305Y-79941752D01*
X128525543Y-79894133D01*
X128763639Y-79894133D01*
X128858877Y-79941752D01*
X128906496Y-79989371D01*
X128954115Y-80084610D01*
X128954115Y-80322705D01*
X128906496Y-80417943D01*
X128858877Y-80465562D01*
X128763639Y-80513181D01*
X128525543Y-80513181D01*
X128430305Y-80465562D01*
X128382686Y-80417943D01*
X120213381Y-84145357D02*
X119737190Y-84478691D01*
X120213381Y-84716786D02*
X119213381Y-84716786D01*
X119213381Y-84335833D01*
X119261000Y-84240595D01*
X119308619Y-84192976D01*
X119403857Y-84145357D01*
X119546714Y-84145357D01*
X119641952Y-84192976D01*
X119689571Y-84240595D01*
X119737190Y-84335833D01*
X119737190Y-84716786D01*
X120213381Y-83192976D02*
X120213381Y-83764405D01*
X120213381Y-83478691D02*
X119213381Y-83478691D01*
X119356238Y-83573929D01*
X119451476Y-83669167D01*
X119499095Y-83764405D01*
X119546714Y-82335833D02*
X120213381Y-82335833D01*
X119165762Y-82573929D02*
X119880048Y-82812024D01*
X119880048Y-82192976D01*
X147928081Y-114480933D02*
X148642367Y-114480933D01*
X148785224Y-114528553D01*
X148880462Y-114623791D01*
X148928081Y-114766648D01*
X148928081Y-114861886D01*
X147928081Y-114099981D02*
X147928081Y-113480933D01*
X148309033Y-113814267D01*
X148309033Y-113671409D01*
X148356652Y-113576171D01*
X148404271Y-113528552D01*
X148499510Y-113480933D01*
X148737605Y-113480933D01*
X148832843Y-113528552D01*
X148880462Y-113576171D01*
X148928081Y-113671409D01*
X148928081Y-113957124D01*
X148880462Y-114052362D01*
X148832843Y-114099981D01*
X89196943Y-135504181D02*
X88863609Y-135027990D01*
X88625514Y-135504181D02*
X88625514Y-134504181D01*
X89006467Y-134504181D01*
X89101705Y-134551800D01*
X89149324Y-134599419D01*
X89196943Y-134694657D01*
X89196943Y-134837514D01*
X89149324Y-134932752D01*
X89101705Y-134980371D01*
X89006467Y-135027990D01*
X88625514Y-135027990D01*
X89577895Y-134599419D02*
X89625514Y-134551800D01*
X89720752Y-134504181D01*
X89958848Y-134504181D01*
X90054086Y-134551800D01*
X90101705Y-134599419D01*
X90149324Y-134694657D01*
X90149324Y-134789895D01*
X90101705Y-134932752D01*
X89530276Y-135504181D01*
X90149324Y-135504181D01*
X91006467Y-134837514D02*
X91006467Y-135504181D01*
X90768371Y-134456562D02*
X90530276Y-135170848D01*
X91149324Y-135170848D01*
X123597943Y-74423566D02*
X123645562Y-74471185D01*
X123693181Y-74614042D01*
X123693181Y-74709280D01*
X123645562Y-74852138D01*
X123550324Y-74947376D01*
X123455086Y-74994995D01*
X123264610Y-75042614D01*
X123121752Y-75042614D01*
X122931276Y-74994995D01*
X122836038Y-74947376D01*
X122740800Y-74852138D01*
X122693181Y-74709280D01*
X122693181Y-74614042D01*
X122740800Y-74471185D01*
X122788419Y-74423566D01*
X123026514Y-73566423D02*
X123693181Y-73566423D01*
X122645562Y-73804519D02*
X123359848Y-74042614D01*
X123359848Y-73423566D01*
X123168683Y-82117226D02*
X123216302Y-82164845D01*
X123263921Y-82307702D01*
X123263921Y-82402940D01*
X123216302Y-82545798D01*
X123121064Y-82641036D01*
X123025826Y-82688655D01*
X122835350Y-82736274D01*
X122692492Y-82736274D01*
X122502016Y-82688655D01*
X122406778Y-82641036D01*
X122311540Y-82545798D01*
X122263921Y-82402940D01*
X122263921Y-82307702D01*
X122311540Y-82164845D01*
X122359159Y-82117226D01*
X122263921Y-81260083D02*
X122263921Y-81450560D01*
X122311540Y-81545798D01*
X122359159Y-81593417D01*
X122502016Y-81688655D01*
X122692492Y-81736274D01*
X123073445Y-81736274D01*
X123168683Y-81688655D01*
X123216302Y-81641036D01*
X123263921Y-81545798D01*
X123263921Y-81355321D01*
X123216302Y-81260083D01*
X123168683Y-81212464D01*
X123073445Y-81164845D01*
X122835350Y-81164845D01*
X122740111Y-81212464D01*
X122692492Y-81260083D01*
X122644873Y-81355321D01*
X122644873Y-81545798D01*
X122692492Y-81641036D01*
X122740111Y-81688655D01*
X122835350Y-81736274D01*
X92657634Y-73333883D02*
X92610015Y-73381502D01*
X92467158Y-73429121D01*
X92371920Y-73429121D01*
X92229062Y-73381502D01*
X92133824Y-73286264D01*
X92086205Y-73191026D01*
X92038586Y-73000550D01*
X92038586Y-72857692D01*
X92086205Y-72667216D01*
X92133824Y-72571978D01*
X92229062Y-72476740D01*
X92371920Y-72429121D01*
X92467158Y-72429121D01*
X92610015Y-72476740D01*
X92657634Y-72524359D01*
X93229062Y-72857692D02*
X93133824Y-72810073D01*
X93086205Y-72762454D01*
X93038586Y-72667216D01*
X93038586Y-72619597D01*
X93086205Y-72524359D01*
X93133824Y-72476740D01*
X93229062Y-72429121D01*
X93419539Y-72429121D01*
X93514777Y-72476740D01*
X93562396Y-72524359D01*
X93610015Y-72619597D01*
X93610015Y-72667216D01*
X93562396Y-72762454D01*
X93514777Y-72810073D01*
X93419539Y-72857692D01*
X93229062Y-72857692D01*
X93133824Y-72905311D01*
X93086205Y-72952930D01*
X93038586Y-73048169D01*
X93038586Y-73238645D01*
X93086205Y-73333883D01*
X93133824Y-73381502D01*
X93229062Y-73429121D01*
X93419539Y-73429121D01*
X93514777Y-73381502D01*
X93562396Y-73333883D01*
X93610015Y-73238645D01*
X93610015Y-73048169D01*
X93562396Y-72952930D01*
X93514777Y-72905311D01*
X93419539Y-72857692D01*
X115416034Y-75147443D02*
X115368415Y-75195062D01*
X115225558Y-75242681D01*
X115130320Y-75242681D01*
X114987462Y-75195062D01*
X114892224Y-75099824D01*
X114844605Y-75004586D01*
X114796986Y-74814110D01*
X114796986Y-74671252D01*
X114844605Y-74480776D01*
X114892224Y-74385538D01*
X114987462Y-74290300D01*
X115130320Y-74242681D01*
X115225558Y-74242681D01*
X115368415Y-74290300D01*
X115416034Y-74337919D01*
X115892224Y-75242681D02*
X116082700Y-75242681D01*
X116177939Y-75195062D01*
X116225558Y-75147443D01*
X116320796Y-75004586D01*
X116368415Y-74814110D01*
X116368415Y-74433157D01*
X116320796Y-74337919D01*
X116273177Y-74290300D01*
X116177939Y-74242681D01*
X115987462Y-74242681D01*
X115892224Y-74290300D01*
X115844605Y-74337919D01*
X115796986Y-74433157D01*
X115796986Y-74671252D01*
X115844605Y-74766490D01*
X115892224Y-74814110D01*
X115987462Y-74861729D01*
X116177939Y-74861729D01*
X116273177Y-74814110D01*
X116320796Y-74766490D01*
X116368415Y-74671252D01*
X59942505Y-71178681D02*
X59942505Y-70178681D01*
X60180600Y-70178681D01*
X60323458Y-70226300D01*
X60418696Y-70321538D01*
X60466315Y-70416776D01*
X60513934Y-70607252D01*
X60513934Y-70750110D01*
X60466315Y-70940586D01*
X60418696Y-71035824D01*
X60323458Y-71131062D01*
X60180600Y-71178681D01*
X59942505Y-71178681D01*
X61466315Y-71178681D02*
X60894886Y-71178681D01*
X61180600Y-71178681D02*
X61180600Y-70178681D01*
X61085362Y-70321538D01*
X60990124Y-70416776D01*
X60894886Y-70464395D01*
X59637705Y-129408181D02*
X59637705Y-128408181D01*
X59875800Y-128408181D01*
X60018658Y-128455800D01*
X60113896Y-128551038D01*
X60161515Y-128646276D01*
X60209134Y-128836752D01*
X60209134Y-128979610D01*
X60161515Y-129170086D01*
X60113896Y-129265324D01*
X60018658Y-129360562D01*
X59875800Y-129408181D01*
X59637705Y-129408181D01*
X60590086Y-128503419D02*
X60637705Y-128455800D01*
X60732943Y-128408181D01*
X60971039Y-128408181D01*
X61066277Y-128455800D01*
X61113896Y-128503419D01*
X61161515Y-128598657D01*
X61161515Y-128693895D01*
X61113896Y-128836752D01*
X60542467Y-129408181D01*
X61161515Y-129408181D01*
X59866305Y-76931781D02*
X59866305Y-75931781D01*
X60104400Y-75931781D01*
X60247258Y-75979400D01*
X60342496Y-76074638D01*
X60390115Y-76169876D01*
X60437734Y-76360352D01*
X60437734Y-76503210D01*
X60390115Y-76693686D01*
X60342496Y-76788924D01*
X60247258Y-76884162D01*
X60104400Y-76931781D01*
X59866305Y-76931781D01*
X60771067Y-75931781D02*
X61390115Y-75931781D01*
X61056781Y-76312733D01*
X61199639Y-76312733D01*
X61294877Y-76360352D01*
X61342496Y-76407971D01*
X61390115Y-76503210D01*
X61390115Y-76741305D01*
X61342496Y-76836543D01*
X61294877Y-76884162D01*
X61199639Y-76931781D01*
X60913924Y-76931781D01*
X60818686Y-76884162D01*
X60771067Y-76836543D01*
X59688505Y-123312181D02*
X59688505Y-122312181D01*
X59926600Y-122312181D01*
X60069458Y-122359800D01*
X60164696Y-122455038D01*
X60212315Y-122550276D01*
X60259934Y-122740752D01*
X60259934Y-122883610D01*
X60212315Y-123074086D01*
X60164696Y-123169324D01*
X60069458Y-123264562D01*
X59926600Y-123312181D01*
X59688505Y-123312181D01*
X61117077Y-122645514D02*
X61117077Y-123312181D01*
X60878981Y-122264562D02*
X60640886Y-122978848D01*
X61259934Y-122978848D01*
X85113905Y-61958481D02*
X85113905Y-60958481D01*
X85352000Y-60958481D01*
X85494858Y-61006100D01*
X85590096Y-61101338D01*
X85637715Y-61196576D01*
X85685334Y-61387052D01*
X85685334Y-61529910D01*
X85637715Y-61720386D01*
X85590096Y-61815624D01*
X85494858Y-61910862D01*
X85352000Y-61958481D01*
X85113905Y-61958481D01*
X86590096Y-60958481D02*
X86113905Y-60958481D01*
X86066286Y-61434671D01*
X86113905Y-61387052D01*
X86209143Y-61339433D01*
X86447239Y-61339433D01*
X86542477Y-61387052D01*
X86590096Y-61434671D01*
X86637715Y-61529910D01*
X86637715Y-61768005D01*
X86590096Y-61863243D01*
X86542477Y-61910862D01*
X86447239Y-61958481D01*
X86209143Y-61958481D01*
X86113905Y-61910862D01*
X86066286Y-61863243D01*
X85294245Y-64826141D02*
X85294245Y-63826141D01*
X85532340Y-63826141D01*
X85675198Y-63873760D01*
X85770436Y-63968998D01*
X85818055Y-64064236D01*
X85865674Y-64254712D01*
X85865674Y-64397570D01*
X85818055Y-64588046D01*
X85770436Y-64683284D01*
X85675198Y-64778522D01*
X85532340Y-64826141D01*
X85294245Y-64826141D01*
X86722817Y-63826141D02*
X86532340Y-63826141D01*
X86437102Y-63873760D01*
X86389483Y-63921379D01*
X86294245Y-64064236D01*
X86246626Y-64254712D01*
X86246626Y-64635665D01*
X86294245Y-64730903D01*
X86341864Y-64778522D01*
X86437102Y-64826141D01*
X86627579Y-64826141D01*
X86722817Y-64778522D01*
X86770436Y-64730903D01*
X86818055Y-64635665D01*
X86818055Y-64397570D01*
X86770436Y-64302331D01*
X86722817Y-64254712D01*
X86627579Y-64207093D01*
X86437102Y-64207093D01*
X86341864Y-64254712D01*
X86294245Y-64302331D01*
X86246626Y-64397570D01*
X92019381Y-97829595D02*
X91019381Y-97829595D01*
X91019381Y-97591500D01*
X91067000Y-97448642D01*
X91162238Y-97353404D01*
X91257476Y-97305785D01*
X91447952Y-97258166D01*
X91590810Y-97258166D01*
X91781286Y-97305785D01*
X91876524Y-97353404D01*
X91971762Y-97448642D01*
X92019381Y-97591500D01*
X92019381Y-97829595D01*
X91447952Y-96686738D02*
X91400333Y-96781976D01*
X91352714Y-96829595D01*
X91257476Y-96877214D01*
X91209857Y-96877214D01*
X91114619Y-96829595D01*
X91067000Y-96781976D01*
X91019381Y-96686738D01*
X91019381Y-96496261D01*
X91067000Y-96401023D01*
X91114619Y-96353404D01*
X91209857Y-96305785D01*
X91257476Y-96305785D01*
X91352714Y-96353404D01*
X91400333Y-96401023D01*
X91447952Y-96496261D01*
X91447952Y-96686738D01*
X91495571Y-96781976D01*
X91543190Y-96829595D01*
X91638429Y-96877214D01*
X91828905Y-96877214D01*
X91924143Y-96829595D01*
X91971762Y-96781976D01*
X92019381Y-96686738D01*
X92019381Y-96496261D01*
X91971762Y-96401023D01*
X91924143Y-96353404D01*
X91828905Y-96305785D01*
X91638429Y-96305785D01*
X91543190Y-96353404D01*
X91495571Y-96401023D01*
X91447952Y-96496261D01*
X99617305Y-69311781D02*
X99617305Y-68311781D01*
X99855400Y-68311781D01*
X99998258Y-68359400D01*
X100093496Y-68454638D01*
X100141115Y-68549876D01*
X100188734Y-68740352D01*
X100188734Y-68883210D01*
X100141115Y-69073686D01*
X100093496Y-69168924D01*
X99998258Y-69264162D01*
X99855400Y-69311781D01*
X99617305Y-69311781D01*
X100664924Y-69311781D02*
X100855400Y-69311781D01*
X100950639Y-69264162D01*
X100998258Y-69216543D01*
X101093496Y-69073686D01*
X101141115Y-68883210D01*
X101141115Y-68502257D01*
X101093496Y-68407019D01*
X101045877Y-68359400D01*
X100950639Y-68311781D01*
X100760162Y-68311781D01*
X100664924Y-68359400D01*
X100617305Y-68407019D01*
X100569686Y-68502257D01*
X100569686Y-68740352D01*
X100617305Y-68835590D01*
X100664924Y-68883210D01*
X100760162Y-68930829D01*
X100950639Y-68930829D01*
X101045877Y-68883210D01*
X101093496Y-68835590D01*
X101141115Y-68740352D01*
X132008714Y-85224881D02*
X132008714Y-84224881D01*
X132246809Y-84224881D01*
X132389667Y-84272500D01*
X132484905Y-84367738D01*
X132532524Y-84462976D01*
X132580143Y-84653452D01*
X132580143Y-84796310D01*
X132532524Y-84986786D01*
X132484905Y-85082024D01*
X132389667Y-85177262D01*
X132246809Y-85224881D01*
X132008714Y-85224881D01*
X133532524Y-85224881D02*
X132961095Y-85224881D01*
X133246809Y-85224881D02*
X133246809Y-84224881D01*
X133151571Y-84367738D01*
X133056333Y-84462976D01*
X132961095Y-84510595D01*
X134484905Y-85224881D02*
X133913476Y-85224881D01*
X134199190Y-85224881D02*
X134199190Y-84224881D01*
X134103952Y-84367738D01*
X134008714Y-84462976D01*
X133913476Y-84510595D01*
X141435081Y-53741486D02*
X140435081Y-53741486D01*
X140435081Y-53503391D01*
X140482700Y-53360533D01*
X140577938Y-53265295D01*
X140673176Y-53217676D01*
X140863652Y-53170057D01*
X141006510Y-53170057D01*
X141196986Y-53217676D01*
X141292224Y-53265295D01*
X141387462Y-53360533D01*
X141435081Y-53503391D01*
X141435081Y-53741486D01*
X141435081Y-52217676D02*
X141435081Y-52789105D01*
X141435081Y-52503391D02*
X140435081Y-52503391D01*
X140577938Y-52598629D01*
X140673176Y-52693867D01*
X140720795Y-52789105D01*
X140530319Y-51836724D02*
X140482700Y-51789105D01*
X140435081Y-51693867D01*
X140435081Y-51455771D01*
X140482700Y-51360533D01*
X140530319Y-51312914D01*
X140625557Y-51265295D01*
X140720795Y-51265295D01*
X140863652Y-51312914D01*
X141435081Y-51884343D01*
X141435081Y-51265295D01*
X60258181Y-100185333D02*
X60972467Y-100185333D01*
X61115324Y-100232953D01*
X61210562Y-100328191D01*
X61258181Y-100471048D01*
X61258181Y-100566286D01*
X61258181Y-99185333D02*
X61258181Y-99756762D01*
X61258181Y-99471048D02*
X60258181Y-99471048D01*
X60401038Y-99566286D01*
X60496276Y-99661524D01*
X60543895Y-99756762D01*
X148905981Y-130990933D02*
X149620267Y-130990933D01*
X149763124Y-131038553D01*
X149858362Y-131133791D01*
X149905981Y-131276648D01*
X149905981Y-131371886D01*
X149001219Y-130562362D02*
X148953600Y-130514743D01*
X148905981Y-130419505D01*
X148905981Y-130181409D01*
X148953600Y-130086171D01*
X149001219Y-130038552D01*
X149096457Y-129990933D01*
X149191695Y-129990933D01*
X149334552Y-130038552D01*
X149905981Y-130609981D01*
X149905981Y-129990933D01*
X121553219Y-91560638D02*
X121505600Y-91655876D01*
X121410362Y-91751114D01*
X121267505Y-91893971D01*
X121219886Y-91989210D01*
X121219886Y-92084448D01*
X121457981Y-92036829D02*
X121410362Y-92132067D01*
X121315124Y-92227305D01*
X121124648Y-92274924D01*
X120791314Y-92274924D01*
X120600838Y-92227305D01*
X120505600Y-92132067D01*
X120457981Y-92036829D01*
X120457981Y-91846352D01*
X120505600Y-91751114D01*
X120600838Y-91655876D01*
X120791314Y-91608257D01*
X121124648Y-91608257D01*
X121315124Y-91655876D01*
X121410362Y-91751114D01*
X121457981Y-91846352D01*
X121457981Y-92036829D01*
X121457981Y-90655876D02*
X121457981Y-91227305D01*
X121457981Y-90941591D02*
X120457981Y-90941591D01*
X120600838Y-91036829D01*
X120696076Y-91132067D01*
X120743695Y-91227305D01*
X73742562Y-79351119D02*
X73647324Y-79303500D01*
X73552086Y-79208262D01*
X73409229Y-79065405D01*
X73313990Y-79017786D01*
X73218752Y-79017786D01*
X73266371Y-79255881D02*
X73171133Y-79208262D01*
X73075895Y-79113024D01*
X73028276Y-78922548D01*
X73028276Y-78589214D01*
X73075895Y-78398738D01*
X73171133Y-78303500D01*
X73266371Y-78255881D01*
X73456848Y-78255881D01*
X73552086Y-78303500D01*
X73647324Y-78398738D01*
X73694943Y-78589214D01*
X73694943Y-78922548D01*
X73647324Y-79113024D01*
X73552086Y-79208262D01*
X73456848Y-79255881D01*
X73266371Y-79255881D01*
X74028276Y-78255881D02*
X74647324Y-78255881D01*
X74313990Y-78636833D01*
X74456848Y-78636833D01*
X74552086Y-78684452D01*
X74599705Y-78732071D01*
X74647324Y-78827310D01*
X74647324Y-79065405D01*
X74599705Y-79160643D01*
X74552086Y-79208262D01*
X74456848Y-79255881D01*
X74171133Y-79255881D01*
X74075895Y-79208262D01*
X74028276Y-79160643D01*
X88018881Y-119229166D02*
X87542690Y-119562500D01*
X88018881Y-119800595D02*
X87018881Y-119800595D01*
X87018881Y-119419642D01*
X87066500Y-119324404D01*
X87114119Y-119276785D01*
X87209357Y-119229166D01*
X87352214Y-119229166D01*
X87447452Y-119276785D01*
X87495071Y-119324404D01*
X87542690Y-119419642D01*
X87542690Y-119800595D01*
X88018881Y-118276785D02*
X88018881Y-118848214D01*
X88018881Y-118562500D02*
X87018881Y-118562500D01*
X87161738Y-118657738D01*
X87256976Y-118752976D01*
X87304595Y-118848214D01*
X79703634Y-53995581D02*
X79370300Y-53519390D01*
X79132205Y-53995581D02*
X79132205Y-52995581D01*
X79513158Y-52995581D01*
X79608396Y-53043200D01*
X79656015Y-53090819D01*
X79703634Y-53186057D01*
X79703634Y-53328914D01*
X79656015Y-53424152D01*
X79608396Y-53471771D01*
X79513158Y-53519390D01*
X79132205Y-53519390D01*
X80084586Y-53090819D02*
X80132205Y-53043200D01*
X80227443Y-52995581D01*
X80465539Y-52995581D01*
X80560777Y-53043200D01*
X80608396Y-53090819D01*
X80656015Y-53186057D01*
X80656015Y-53281295D01*
X80608396Y-53424152D01*
X80036967Y-53995581D01*
X80656015Y-53995581D01*
X80681534Y-68156081D02*
X80348200Y-67679890D01*
X80110105Y-68156081D02*
X80110105Y-67156081D01*
X80491058Y-67156081D01*
X80586296Y-67203700D01*
X80633915Y-67251319D01*
X80681534Y-67346557D01*
X80681534Y-67489414D01*
X80633915Y-67584652D01*
X80586296Y-67632271D01*
X80491058Y-67679890D01*
X80110105Y-67679890D01*
X81014867Y-67156081D02*
X81633915Y-67156081D01*
X81300581Y-67537033D01*
X81443439Y-67537033D01*
X81538677Y-67584652D01*
X81586296Y-67632271D01*
X81633915Y-67727510D01*
X81633915Y-67965605D01*
X81586296Y-68060843D01*
X81538677Y-68108462D01*
X81443439Y-68156081D01*
X81157724Y-68156081D01*
X81062486Y-68108462D01*
X81014867Y-68060843D01*
X95588081Y-97550266D02*
X95111890Y-97883600D01*
X95588081Y-98121695D02*
X94588081Y-98121695D01*
X94588081Y-97740742D01*
X94635700Y-97645504D01*
X94683319Y-97597885D01*
X94778557Y-97550266D01*
X94921414Y-97550266D01*
X95016652Y-97597885D01*
X95064271Y-97645504D01*
X95111890Y-97740742D01*
X95111890Y-98121695D01*
X94921414Y-96693123D02*
X95588081Y-96693123D01*
X94540462Y-96931219D02*
X95254748Y-97169314D01*
X95254748Y-96550266D01*
X101623834Y-88653881D02*
X101290500Y-88177690D01*
X101052405Y-88653881D02*
X101052405Y-87653881D01*
X101433358Y-87653881D01*
X101528596Y-87701500D01*
X101576215Y-87749119D01*
X101623834Y-87844357D01*
X101623834Y-87987214D01*
X101576215Y-88082452D01*
X101528596Y-88130071D01*
X101433358Y-88177690D01*
X101052405Y-88177690D01*
X102528596Y-87653881D02*
X102052405Y-87653881D01*
X102004786Y-88130071D01*
X102052405Y-88082452D01*
X102147643Y-88034833D01*
X102385739Y-88034833D01*
X102480977Y-88082452D01*
X102528596Y-88130071D01*
X102576215Y-88225310D01*
X102576215Y-88463405D01*
X102528596Y-88558643D01*
X102480977Y-88606262D01*
X102385739Y-88653881D01*
X102147643Y-88653881D01*
X102052405Y-88606262D01*
X102004786Y-88558643D01*
X101433334Y-91892381D02*
X101100000Y-91416190D01*
X100861905Y-91892381D02*
X100861905Y-90892381D01*
X101242858Y-90892381D01*
X101338096Y-90940000D01*
X101385715Y-90987619D01*
X101433334Y-91082857D01*
X101433334Y-91225714D01*
X101385715Y-91320952D01*
X101338096Y-91368571D01*
X101242858Y-91416190D01*
X100861905Y-91416190D01*
X102290477Y-90892381D02*
X102100000Y-90892381D01*
X102004762Y-90940000D01*
X101957143Y-90987619D01*
X101861905Y-91130476D01*
X101814286Y-91320952D01*
X101814286Y-91701905D01*
X101861905Y-91797143D01*
X101909524Y-91844762D01*
X102004762Y-91892381D01*
X102195239Y-91892381D01*
X102290477Y-91844762D01*
X102338096Y-91797143D01*
X102385715Y-91701905D01*
X102385715Y-91463810D01*
X102338096Y-91368571D01*
X102290477Y-91320952D01*
X102195239Y-91273333D01*
X102004762Y-91273333D01*
X101909524Y-91320952D01*
X101861905Y-91368571D01*
X101814286Y-91463810D01*
X104735334Y-111958381D02*
X104402000Y-111482190D01*
X104163905Y-111958381D02*
X104163905Y-110958381D01*
X104544858Y-110958381D01*
X104640096Y-111006000D01*
X104687715Y-111053619D01*
X104735334Y-111148857D01*
X104735334Y-111291714D01*
X104687715Y-111386952D01*
X104640096Y-111434571D01*
X104544858Y-111482190D01*
X104163905Y-111482190D01*
X105068667Y-110958381D02*
X105735334Y-110958381D01*
X105306762Y-111958381D01*
X134326334Y-72715381D02*
X133993000Y-72239190D01*
X133754905Y-72715381D02*
X133754905Y-71715381D01*
X134135858Y-71715381D01*
X134231096Y-71763000D01*
X134278715Y-71810619D01*
X134326334Y-71905857D01*
X134326334Y-72048714D01*
X134278715Y-72143952D01*
X134231096Y-72191571D01*
X134135858Y-72239190D01*
X133754905Y-72239190D01*
X134897762Y-72143952D02*
X134802524Y-72096333D01*
X134754905Y-72048714D01*
X134707286Y-71953476D01*
X134707286Y-71905857D01*
X134754905Y-71810619D01*
X134802524Y-71763000D01*
X134897762Y-71715381D01*
X135088239Y-71715381D01*
X135183477Y-71763000D01*
X135231096Y-71810619D01*
X135278715Y-71905857D01*
X135278715Y-71953476D01*
X135231096Y-72048714D01*
X135183477Y-72096333D01*
X135088239Y-72143952D01*
X134897762Y-72143952D01*
X134802524Y-72191571D01*
X134754905Y-72239190D01*
X134707286Y-72334429D01*
X134707286Y-72524905D01*
X134754905Y-72620143D01*
X134802524Y-72667762D01*
X134897762Y-72715381D01*
X135088239Y-72715381D01*
X135183477Y-72667762D01*
X135231096Y-72620143D01*
X135278715Y-72524905D01*
X135278715Y-72334429D01*
X135231096Y-72239190D01*
X135183477Y-72191571D01*
X135088239Y-72143952D01*
X116216134Y-72016881D02*
X115882800Y-71540690D01*
X115644705Y-72016881D02*
X115644705Y-71016881D01*
X116025658Y-71016881D01*
X116120896Y-71064500D01*
X116168515Y-71112119D01*
X116216134Y-71207357D01*
X116216134Y-71350214D01*
X116168515Y-71445452D01*
X116120896Y-71493071D01*
X116025658Y-71540690D01*
X115644705Y-71540690D01*
X116692324Y-72016881D02*
X116882800Y-72016881D01*
X116978039Y-71969262D01*
X117025658Y-71921643D01*
X117120896Y-71778786D01*
X117168515Y-71588310D01*
X117168515Y-71207357D01*
X117120896Y-71112119D01*
X117073277Y-71064500D01*
X116978039Y-71016881D01*
X116787562Y-71016881D01*
X116692324Y-71064500D01*
X116644705Y-71112119D01*
X116597086Y-71207357D01*
X116597086Y-71445452D01*
X116644705Y-71540690D01*
X116692324Y-71588310D01*
X116787562Y-71635929D01*
X116978039Y-71635929D01*
X117073277Y-71588310D01*
X117120896Y-71540690D01*
X117168515Y-71445452D01*
X109872543Y-98293181D02*
X109539209Y-97816990D01*
X109301114Y-98293181D02*
X109301114Y-97293181D01*
X109682067Y-97293181D01*
X109777305Y-97340800D01*
X109824924Y-97388419D01*
X109872543Y-97483657D01*
X109872543Y-97626514D01*
X109824924Y-97721752D01*
X109777305Y-97769371D01*
X109682067Y-97816990D01*
X109301114Y-97816990D01*
X110824924Y-98293181D02*
X110253495Y-98293181D01*
X110539209Y-98293181D02*
X110539209Y-97293181D01*
X110443971Y-97436038D01*
X110348733Y-97531276D01*
X110253495Y-97578895D01*
X111777305Y-98293181D02*
X111205876Y-98293181D01*
X111491590Y-98293181D02*
X111491590Y-97293181D01*
X111396352Y-97436038D01*
X111301114Y-97531276D01*
X111205876Y-97578895D01*
X120070643Y-100020381D02*
X119737309Y-99544190D01*
X119499214Y-100020381D02*
X119499214Y-99020381D01*
X119880167Y-99020381D01*
X119975405Y-99068000D01*
X120023024Y-99115619D01*
X120070643Y-99210857D01*
X120070643Y-99353714D01*
X120023024Y-99448952D01*
X119975405Y-99496571D01*
X119880167Y-99544190D01*
X119499214Y-99544190D01*
X121023024Y-100020381D02*
X120451595Y-100020381D01*
X120737309Y-100020381D02*
X120737309Y-99020381D01*
X120642071Y-99163238D01*
X120546833Y-99258476D01*
X120451595Y-99306095D01*
X121403976Y-99115619D02*
X121451595Y-99068000D01*
X121546833Y-99020381D01*
X121784929Y-99020381D01*
X121880167Y-99068000D01*
X121927786Y-99115619D01*
X121975405Y-99210857D01*
X121975405Y-99306095D01*
X121927786Y-99448952D01*
X121356357Y-100020381D01*
X121975405Y-100020381D01*
X127515881Y-93479857D02*
X127039690Y-93813191D01*
X127515881Y-94051286D02*
X126515881Y-94051286D01*
X126515881Y-93670333D01*
X126563500Y-93575095D01*
X126611119Y-93527476D01*
X126706357Y-93479857D01*
X126849214Y-93479857D01*
X126944452Y-93527476D01*
X126992071Y-93575095D01*
X127039690Y-93670333D01*
X127039690Y-94051286D01*
X127515881Y-92527476D02*
X127515881Y-93098905D01*
X127515881Y-92813191D02*
X126515881Y-92813191D01*
X126658738Y-92908429D01*
X126753976Y-93003667D01*
X126801595Y-93098905D01*
X126515881Y-92194143D02*
X126515881Y-91575095D01*
X126896833Y-91908429D01*
X126896833Y-91765571D01*
X126944452Y-91670333D01*
X126992071Y-91622714D01*
X127087310Y-91575095D01*
X127325405Y-91575095D01*
X127420643Y-91622714D01*
X127468262Y-91670333D01*
X127515881Y-91765571D01*
X127515881Y-92051286D01*
X127468262Y-92146524D01*
X127420643Y-92194143D01*
X129138443Y-110233721D02*
X128805109Y-109757530D01*
X128567014Y-110233721D02*
X128567014Y-109233721D01*
X128947967Y-109233721D01*
X129043205Y-109281340D01*
X129090824Y-109328959D01*
X129138443Y-109424197D01*
X129138443Y-109567054D01*
X129090824Y-109662292D01*
X129043205Y-109709911D01*
X128947967Y-109757530D01*
X128567014Y-109757530D01*
X130090824Y-110233721D02*
X129519395Y-110233721D01*
X129805109Y-110233721D02*
X129805109Y-109233721D01*
X129709871Y-109376578D01*
X129614633Y-109471816D01*
X129519395Y-109519435D01*
X130947967Y-109233721D02*
X130757490Y-109233721D01*
X130662252Y-109281340D01*
X130614633Y-109328959D01*
X130519395Y-109471816D01*
X130471776Y-109662292D01*
X130471776Y-110043245D01*
X130519395Y-110138483D01*
X130567014Y-110186102D01*
X130662252Y-110233721D01*
X130852729Y-110233721D01*
X130947967Y-110186102D01*
X130995586Y-110138483D01*
X131043205Y-110043245D01*
X131043205Y-109805150D01*
X130995586Y-109709911D01*
X130947967Y-109662292D01*
X130852729Y-109614673D01*
X130662252Y-109614673D01*
X130567014Y-109662292D01*
X130519395Y-109709911D01*
X130471776Y-109805150D01*
X134386083Y-66903861D02*
X134052749Y-66427670D01*
X133814654Y-66903861D02*
X133814654Y-65903861D01*
X134195607Y-65903861D01*
X134290845Y-65951480D01*
X134338464Y-65999099D01*
X134386083Y-66094337D01*
X134386083Y-66237194D01*
X134338464Y-66332432D01*
X134290845Y-66380051D01*
X134195607Y-66427670D01*
X133814654Y-66427670D01*
X135338464Y-66903861D02*
X134767035Y-66903861D01*
X135052749Y-66903861D02*
X135052749Y-65903861D01*
X134957511Y-66046718D01*
X134862273Y-66141956D01*
X134767035Y-66189575D01*
X135671797Y-65903861D02*
X136338464Y-65903861D01*
X135909892Y-66903861D01*
X105405181Y-82202257D02*
X104928990Y-82535591D01*
X105405181Y-82773686D02*
X104405181Y-82773686D01*
X104405181Y-82392733D01*
X104452800Y-82297495D01*
X104500419Y-82249876D01*
X104595657Y-82202257D01*
X104738514Y-82202257D01*
X104833752Y-82249876D01*
X104881371Y-82297495D01*
X104928990Y-82392733D01*
X104928990Y-82773686D01*
X105405181Y-81249876D02*
X105405181Y-81821305D01*
X105405181Y-81535591D02*
X104405181Y-81535591D01*
X104548038Y-81630829D01*
X104643276Y-81726067D01*
X104690895Y-81821305D01*
X104833752Y-80678448D02*
X104786133Y-80773686D01*
X104738514Y-80821305D01*
X104643276Y-80868924D01*
X104595657Y-80868924D01*
X104500419Y-80821305D01*
X104452800Y-80773686D01*
X104405181Y-80678448D01*
X104405181Y-80487971D01*
X104452800Y-80392733D01*
X104500419Y-80345114D01*
X104595657Y-80297495D01*
X104643276Y-80297495D01*
X104738514Y-80345114D01*
X104786133Y-80392733D01*
X104833752Y-80487971D01*
X104833752Y-80678448D01*
X104881371Y-80773686D01*
X104928990Y-80821305D01*
X105024229Y-80868924D01*
X105214705Y-80868924D01*
X105309943Y-80821305D01*
X105357562Y-80773686D01*
X105405181Y-80678448D01*
X105405181Y-80487971D01*
X105357562Y-80392733D01*
X105309943Y-80345114D01*
X105214705Y-80297495D01*
X105024229Y-80297495D01*
X104928990Y-80345114D01*
X104881371Y-80392733D01*
X104833752Y-80487971D01*
X76966843Y-72639181D02*
X76633509Y-72162990D01*
X76395414Y-72639181D02*
X76395414Y-71639181D01*
X76776367Y-71639181D01*
X76871605Y-71686800D01*
X76919224Y-71734419D01*
X76966843Y-71829657D01*
X76966843Y-71972514D01*
X76919224Y-72067752D01*
X76871605Y-72115371D01*
X76776367Y-72162990D01*
X76395414Y-72162990D01*
X77919224Y-72639181D02*
X77347795Y-72639181D01*
X77633509Y-72639181D02*
X77633509Y-71639181D01*
X77538271Y-71782038D01*
X77443033Y-71877276D01*
X77347795Y-71924895D01*
X78395414Y-72639181D02*
X78585890Y-72639181D01*
X78681129Y-72591562D01*
X78728748Y-72543943D01*
X78823986Y-72401086D01*
X78871605Y-72210610D01*
X78871605Y-71829657D01*
X78823986Y-71734419D01*
X78776367Y-71686800D01*
X78681129Y-71639181D01*
X78490652Y-71639181D01*
X78395414Y-71686800D01*
X78347795Y-71734419D01*
X78300176Y-71829657D01*
X78300176Y-72067752D01*
X78347795Y-72162990D01*
X78395414Y-72210610D01*
X78490652Y-72258229D01*
X78681129Y-72258229D01*
X78776367Y-72210610D01*
X78823986Y-72162990D01*
X78871605Y-72067752D01*
X86190081Y-75458557D02*
X85713890Y-75791891D01*
X86190081Y-76029986D02*
X85190081Y-76029986D01*
X85190081Y-75649033D01*
X85237700Y-75553795D01*
X85285319Y-75506176D01*
X85380557Y-75458557D01*
X85523414Y-75458557D01*
X85618652Y-75506176D01*
X85666271Y-75553795D01*
X85713890Y-75649033D01*
X85713890Y-76029986D01*
X85285319Y-75077605D02*
X85237700Y-75029986D01*
X85190081Y-74934748D01*
X85190081Y-74696652D01*
X85237700Y-74601414D01*
X85285319Y-74553795D01*
X85380557Y-74506176D01*
X85475795Y-74506176D01*
X85618652Y-74553795D01*
X86190081Y-75125224D01*
X86190081Y-74506176D01*
X85190081Y-73887129D02*
X85190081Y-73791890D01*
X85237700Y-73696652D01*
X85285319Y-73649033D01*
X85380557Y-73601414D01*
X85571033Y-73553795D01*
X85809129Y-73553795D01*
X85999605Y-73601414D01*
X86094843Y-73649033D01*
X86142462Y-73696652D01*
X86190081Y-73791890D01*
X86190081Y-73887129D01*
X86142462Y-73982367D01*
X86094843Y-74029986D01*
X85999605Y-74077605D01*
X85809129Y-74125224D01*
X85571033Y-74125224D01*
X85380557Y-74077605D01*
X85285319Y-74029986D01*
X85237700Y-73982367D01*
X85190081Y-73887129D01*
X102166681Y-82214957D02*
X101690490Y-82548291D01*
X102166681Y-82786386D02*
X101166681Y-82786386D01*
X101166681Y-82405433D01*
X101214300Y-82310195D01*
X101261919Y-82262576D01*
X101357157Y-82214957D01*
X101500014Y-82214957D01*
X101595252Y-82262576D01*
X101642871Y-82310195D01*
X101690490Y-82405433D01*
X101690490Y-82786386D01*
X101261919Y-81834005D02*
X101214300Y-81786386D01*
X101166681Y-81691148D01*
X101166681Y-81453052D01*
X101214300Y-81357814D01*
X101261919Y-81310195D01*
X101357157Y-81262576D01*
X101452395Y-81262576D01*
X101595252Y-81310195D01*
X102166681Y-81881624D01*
X102166681Y-81262576D01*
X102166681Y-80310195D02*
X102166681Y-80881624D01*
X102166681Y-80595910D02*
X101166681Y-80595910D01*
X101309538Y-80691148D01*
X101404776Y-80786386D01*
X101452395Y-80881624D01*
X128820943Y-52928781D02*
X128487609Y-52452590D01*
X128249514Y-52928781D02*
X128249514Y-51928781D01*
X128630467Y-51928781D01*
X128725705Y-51976400D01*
X128773324Y-52024019D01*
X128820943Y-52119257D01*
X128820943Y-52262114D01*
X128773324Y-52357352D01*
X128725705Y-52404971D01*
X128630467Y-52452590D01*
X128249514Y-52452590D01*
X129201895Y-52024019D02*
X129249514Y-51976400D01*
X129344752Y-51928781D01*
X129582848Y-51928781D01*
X129678086Y-51976400D01*
X129725705Y-52024019D01*
X129773324Y-52119257D01*
X129773324Y-52214495D01*
X129725705Y-52357352D01*
X129154276Y-52928781D01*
X129773324Y-52928781D01*
X130154276Y-52024019D02*
X130201895Y-51976400D01*
X130297133Y-51928781D01*
X130535229Y-51928781D01*
X130630467Y-51976400D01*
X130678086Y-52024019D01*
X130725705Y-52119257D01*
X130725705Y-52214495D01*
X130678086Y-52357352D01*
X130106657Y-52928781D01*
X130725705Y-52928781D01*
X144243262Y-80217381D02*
X143909928Y-79741190D01*
X143671833Y-80217381D02*
X143671833Y-79217381D01*
X144052786Y-79217381D01*
X144148024Y-79265000D01*
X144195643Y-79312619D01*
X144243262Y-79407857D01*
X144243262Y-79550714D01*
X144195643Y-79645952D01*
X144148024Y-79693571D01*
X144052786Y-79741190D01*
X143671833Y-79741190D01*
X144528976Y-79217381D02*
X144862309Y-80217381D01*
X145195643Y-79217381D01*
X146052786Y-80217381D02*
X145481357Y-80217381D01*
X145767071Y-80217381D02*
X145767071Y-79217381D01*
X145671833Y-79360238D01*
X145576595Y-79455476D01*
X145481357Y-79503095D01*
X143989262Y-63224781D02*
X143655928Y-62748590D01*
X143417833Y-63224781D02*
X143417833Y-62224781D01*
X143798786Y-62224781D01*
X143894024Y-62272400D01*
X143941643Y-62320019D01*
X143989262Y-62415257D01*
X143989262Y-62558114D01*
X143941643Y-62653352D01*
X143894024Y-62700971D01*
X143798786Y-62748590D01*
X143417833Y-62748590D01*
X144274976Y-62224781D02*
X144608309Y-63224781D01*
X144941643Y-62224781D01*
X145227357Y-62320019D02*
X145274976Y-62272400D01*
X145370214Y-62224781D01*
X145608310Y-62224781D01*
X145703548Y-62272400D01*
X145751167Y-62320019D01*
X145798786Y-62415257D01*
X145798786Y-62510495D01*
X145751167Y-62653352D01*
X145179738Y-63224781D01*
X145798786Y-63224781D01*
X93350175Y-76978261D02*
X93350175Y-77787785D01*
X93397794Y-77883023D01*
X93445413Y-77930642D01*
X93540651Y-77978261D01*
X93731128Y-77978261D01*
X93826366Y-77930642D01*
X93873985Y-77883023D01*
X93921604Y-77787785D01*
X93921604Y-76978261D01*
X94921604Y-77978261D02*
X94350175Y-77978261D01*
X94635889Y-77978261D02*
X94635889Y-76978261D01*
X94540651Y-77121118D01*
X94445413Y-77216356D01*
X94350175Y-77263975D01*
X114895381Y-83883405D02*
X115704905Y-83883405D01*
X115800143Y-83835786D01*
X115847762Y-83788167D01*
X115895381Y-83692929D01*
X115895381Y-83502452D01*
X115847762Y-83407214D01*
X115800143Y-83359595D01*
X115704905Y-83311976D01*
X114895381Y-83311976D01*
X114990619Y-82883405D02*
X114943000Y-82835786D01*
X114895381Y-82740548D01*
X114895381Y-82502452D01*
X114943000Y-82407214D01*
X114990619Y-82359595D01*
X115085857Y-82311976D01*
X115181095Y-82311976D01*
X115323952Y-82359595D01*
X115895381Y-82931024D01*
X115895381Y-82311976D01*
X91222534Y-52477943D02*
X91174915Y-52525562D01*
X91032058Y-52573181D01*
X90936820Y-52573181D01*
X90793962Y-52525562D01*
X90698724Y-52430324D01*
X90651105Y-52335086D01*
X90603486Y-52144610D01*
X90603486Y-52001752D01*
X90651105Y-51811276D01*
X90698724Y-51716038D01*
X90793962Y-51620800D01*
X90936820Y-51573181D01*
X91032058Y-51573181D01*
X91174915Y-51620800D01*
X91222534Y-51668419D01*
X91603486Y-51668419D02*
X91651105Y-51620800D01*
X91746343Y-51573181D01*
X91984439Y-51573181D01*
X92079677Y-51620800D01*
X92127296Y-51668419D01*
X92174915Y-51763657D01*
X92174915Y-51858895D01*
X92127296Y-52001752D01*
X91555867Y-52573181D01*
X92174915Y-52573181D01*
X74522034Y-58802543D02*
X74474415Y-58850162D01*
X74331558Y-58897781D01*
X74236320Y-58897781D01*
X74093462Y-58850162D01*
X73998224Y-58754924D01*
X73950605Y-58659686D01*
X73902986Y-58469210D01*
X73902986Y-58326352D01*
X73950605Y-58135876D01*
X73998224Y-58040638D01*
X74093462Y-57945400D01*
X74236320Y-57897781D01*
X74331558Y-57897781D01*
X74474415Y-57945400D01*
X74522034Y-57993019D01*
X74855367Y-57897781D02*
X75474415Y-57897781D01*
X75141081Y-58278733D01*
X75283939Y-58278733D01*
X75379177Y-58326352D01*
X75426796Y-58373971D01*
X75474415Y-58469210D01*
X75474415Y-58707305D01*
X75426796Y-58802543D01*
X75379177Y-58850162D01*
X75283939Y-58897781D01*
X74998224Y-58897781D01*
X74902986Y-58850162D01*
X74855367Y-58802543D01*
X135469334Y-93321143D02*
X135421715Y-93368762D01*
X135278858Y-93416381D01*
X135183620Y-93416381D01*
X135040762Y-93368762D01*
X134945524Y-93273524D01*
X134897905Y-93178286D01*
X134850286Y-92987810D01*
X134850286Y-92844952D01*
X134897905Y-92654476D01*
X134945524Y-92559238D01*
X135040762Y-92464000D01*
X135183620Y-92416381D01*
X135278858Y-92416381D01*
X135421715Y-92464000D01*
X135469334Y-92511619D01*
X135802667Y-92416381D02*
X136469334Y-92416381D01*
X136040762Y-93416381D01*
X59186914Y-141269981D02*
X59186914Y-140269981D01*
X59425009Y-140269981D01*
X59567867Y-140317600D01*
X59663105Y-140412838D01*
X59710724Y-140508076D01*
X59758343Y-140698552D01*
X59758343Y-140841410D01*
X59710724Y-141031886D01*
X59663105Y-141127124D01*
X59567867Y-141222362D01*
X59425009Y-141269981D01*
X59186914Y-141269981D01*
X60710724Y-141269981D02*
X60139295Y-141269981D01*
X60425009Y-141269981D02*
X60425009Y-140269981D01*
X60329771Y-140412838D01*
X60234533Y-140508076D01*
X60139295Y-140555695D01*
X61044057Y-140269981D02*
X61663105Y-140269981D01*
X61329771Y-140650933D01*
X61472629Y-140650933D01*
X61567867Y-140698552D01*
X61615486Y-140746171D01*
X61663105Y-140841410D01*
X61663105Y-141079505D01*
X61615486Y-141174743D01*
X61567867Y-141222362D01*
X61472629Y-141269981D01*
X61186914Y-141269981D01*
X61091676Y-141222362D01*
X61044057Y-141174743D01*
X59263114Y-117368581D02*
X59263114Y-116368581D01*
X59501209Y-116368581D01*
X59644067Y-116416200D01*
X59739305Y-116511438D01*
X59786924Y-116606676D01*
X59834543Y-116797152D01*
X59834543Y-116940010D01*
X59786924Y-117130486D01*
X59739305Y-117225724D01*
X59644067Y-117320962D01*
X59501209Y-117368581D01*
X59263114Y-117368581D01*
X60786924Y-117368581D02*
X60215495Y-117368581D01*
X60501209Y-117368581D02*
X60501209Y-116368581D01*
X60405971Y-116511438D01*
X60310733Y-116606676D01*
X60215495Y-116654295D01*
X61644067Y-116701914D02*
X61644067Y-117368581D01*
X61405971Y-116320962D02*
X61167876Y-117035248D01*
X61786924Y-117035248D01*
X59313914Y-135250181D02*
X59313914Y-134250181D01*
X59552009Y-134250181D01*
X59694867Y-134297800D01*
X59790105Y-134393038D01*
X59837724Y-134488276D01*
X59885343Y-134678752D01*
X59885343Y-134821610D01*
X59837724Y-135012086D01*
X59790105Y-135107324D01*
X59694867Y-135202562D01*
X59552009Y-135250181D01*
X59313914Y-135250181D01*
X60837724Y-135250181D02*
X60266295Y-135250181D01*
X60552009Y-135250181D02*
X60552009Y-134250181D01*
X60456771Y-134393038D01*
X60361533Y-134488276D01*
X60266295Y-134535895D01*
X61742486Y-134250181D02*
X61266295Y-134250181D01*
X61218676Y-134726371D01*
X61266295Y-134678752D01*
X61361533Y-134631133D01*
X61599629Y-134631133D01*
X61694867Y-134678752D01*
X61742486Y-134726371D01*
X61790105Y-134821610D01*
X61790105Y-135059705D01*
X61742486Y-135154943D01*
X61694867Y-135202562D01*
X61599629Y-135250181D01*
X61361533Y-135250181D01*
X61266295Y-135202562D01*
X61218676Y-135154943D01*
X59364714Y-111424981D02*
X59364714Y-110424981D01*
X59602809Y-110424981D01*
X59745667Y-110472600D01*
X59840905Y-110567838D01*
X59888524Y-110663076D01*
X59936143Y-110853552D01*
X59936143Y-110996410D01*
X59888524Y-111186886D01*
X59840905Y-111282124D01*
X59745667Y-111377362D01*
X59602809Y-111424981D01*
X59364714Y-111424981D01*
X60888524Y-111424981D02*
X60317095Y-111424981D01*
X60602809Y-111424981D02*
X60602809Y-110424981D01*
X60507571Y-110567838D01*
X60412333Y-110663076D01*
X60317095Y-110710695D01*
X61745667Y-110424981D02*
X61555190Y-110424981D01*
X61459952Y-110472600D01*
X61412333Y-110520219D01*
X61317095Y-110663076D01*
X61269476Y-110853552D01*
X61269476Y-111234505D01*
X61317095Y-111329743D01*
X61364714Y-111377362D01*
X61459952Y-111424981D01*
X61650429Y-111424981D01*
X61745667Y-111377362D01*
X61793286Y-111329743D01*
X61840905Y-111234505D01*
X61840905Y-110996410D01*
X61793286Y-110901171D01*
X61745667Y-110853552D01*
X61650429Y-110805933D01*
X61459952Y-110805933D01*
X61364714Y-110853552D01*
X61317095Y-110901171D01*
X61269476Y-110996410D01*
X59593314Y-59405781D02*
X59593314Y-58405781D01*
X59831409Y-58405781D01*
X59974267Y-58453400D01*
X60069505Y-58548638D01*
X60117124Y-58643876D01*
X60164743Y-58834352D01*
X60164743Y-58977210D01*
X60117124Y-59167686D01*
X60069505Y-59262924D01*
X59974267Y-59358162D01*
X59831409Y-59405781D01*
X59593314Y-59405781D01*
X61117124Y-59405781D02*
X60545695Y-59405781D01*
X60831409Y-59405781D02*
X60831409Y-58405781D01*
X60736171Y-58548638D01*
X60640933Y-58643876D01*
X60545695Y-58691495D01*
X61450457Y-58405781D02*
X62117124Y-58405781D01*
X61688552Y-59405781D01*
X59644114Y-88641181D02*
X59644114Y-87641181D01*
X59882209Y-87641181D01*
X60025067Y-87688800D01*
X60120305Y-87784038D01*
X60167924Y-87879276D01*
X60215543Y-88069752D01*
X60215543Y-88212610D01*
X60167924Y-88403086D01*
X60120305Y-88498324D01*
X60025067Y-88593562D01*
X59882209Y-88641181D01*
X59644114Y-88641181D01*
X61167924Y-88641181D02*
X60596495Y-88641181D01*
X60882209Y-88641181D02*
X60882209Y-87641181D01*
X60786971Y-87784038D01*
X60691733Y-87879276D01*
X60596495Y-87926895D01*
X61739352Y-88069752D02*
X61644114Y-88022133D01*
X61596495Y-87974514D01*
X61548876Y-87879276D01*
X61548876Y-87831657D01*
X61596495Y-87736419D01*
X61644114Y-87688800D01*
X61739352Y-87641181D01*
X61929829Y-87641181D01*
X62025067Y-87688800D01*
X62072686Y-87736419D01*
X62120305Y-87831657D01*
X62120305Y-87879276D01*
X62072686Y-87974514D01*
X62025067Y-88022133D01*
X61929829Y-88069752D01*
X61739352Y-88069752D01*
X61644114Y-88117371D01*
X61596495Y-88164990D01*
X61548876Y-88260229D01*
X61548876Y-88450705D01*
X61596495Y-88545943D01*
X61644114Y-88593562D01*
X61739352Y-88641181D01*
X61929829Y-88641181D01*
X62025067Y-88593562D01*
X62072686Y-88545943D01*
X62120305Y-88450705D01*
X62120305Y-88260229D01*
X62072686Y-88164990D01*
X62025067Y-88117371D01*
X61929829Y-88069752D01*
X59466314Y-65273181D02*
X59466314Y-64273181D01*
X59704409Y-64273181D01*
X59847267Y-64320800D01*
X59942505Y-64416038D01*
X59990124Y-64511276D01*
X60037743Y-64701752D01*
X60037743Y-64844610D01*
X59990124Y-65035086D01*
X59942505Y-65130324D01*
X59847267Y-65225562D01*
X59704409Y-65273181D01*
X59466314Y-65273181D01*
X60990124Y-65273181D02*
X60418695Y-65273181D01*
X60704409Y-65273181D02*
X60704409Y-64273181D01*
X60609171Y-64416038D01*
X60513933Y-64511276D01*
X60418695Y-64558895D01*
X61466314Y-65273181D02*
X61656790Y-65273181D01*
X61752029Y-65225562D01*
X61799648Y-65177943D01*
X61894886Y-65035086D01*
X61942505Y-64844610D01*
X61942505Y-64463657D01*
X61894886Y-64368419D01*
X61847267Y-64320800D01*
X61752029Y-64273181D01*
X61561552Y-64273181D01*
X61466314Y-64320800D01*
X61418695Y-64368419D01*
X61371076Y-64463657D01*
X61371076Y-64701752D01*
X61418695Y-64796990D01*
X61466314Y-64844610D01*
X61561552Y-64892229D01*
X61752029Y-64892229D01*
X61847267Y-64844610D01*
X61894886Y-64796990D01*
X61942505Y-64701752D01*
X59644114Y-82773781D02*
X59644114Y-81773781D01*
X59882209Y-81773781D01*
X60025067Y-81821400D01*
X60120305Y-81916638D01*
X60167924Y-82011876D01*
X60215543Y-82202352D01*
X60215543Y-82345210D01*
X60167924Y-82535686D01*
X60120305Y-82630924D01*
X60025067Y-82726162D01*
X59882209Y-82773781D01*
X59644114Y-82773781D01*
X60596495Y-81869019D02*
X60644114Y-81821400D01*
X60739352Y-81773781D01*
X60977448Y-81773781D01*
X61072686Y-81821400D01*
X61120305Y-81869019D01*
X61167924Y-81964257D01*
X61167924Y-82059495D01*
X61120305Y-82202352D01*
X60548876Y-82773781D01*
X61167924Y-82773781D01*
X61786971Y-81773781D02*
X61882210Y-81773781D01*
X61977448Y-81821400D01*
X62025067Y-81869019D01*
X62072686Y-81964257D01*
X62120305Y-82154733D01*
X62120305Y-82392829D01*
X62072686Y-82583305D01*
X62025067Y-82678543D01*
X61977448Y-82726162D01*
X61882210Y-82773781D01*
X61786971Y-82773781D01*
X61691733Y-82726162D01*
X61644114Y-82678543D01*
X61596495Y-82583305D01*
X61548876Y-82392829D01*
X61548876Y-82154733D01*
X61596495Y-81964257D01*
X61644114Y-81869019D01*
X61691733Y-81821400D01*
X61786971Y-81773781D01*
X74804543Y-103392266D02*
X74852162Y-103439885D01*
X74899781Y-103582742D01*
X74899781Y-103677980D01*
X74852162Y-103820838D01*
X74756924Y-103916076D01*
X74661686Y-103963695D01*
X74471210Y-104011314D01*
X74328352Y-104011314D01*
X74137876Y-103963695D01*
X74042638Y-103916076D01*
X73947400Y-103820838D01*
X73899781Y-103677980D01*
X73899781Y-103582742D01*
X73947400Y-103439885D01*
X73995019Y-103392266D01*
X74899781Y-102439885D02*
X74899781Y-103011314D01*
X74899781Y-102725600D02*
X73899781Y-102725600D01*
X74042638Y-102820838D01*
X74137876Y-102916076D01*
X74185495Y-103011314D01*
X111383843Y-94178381D02*
X111050509Y-93702190D01*
X110812414Y-94178381D02*
X110812414Y-93178381D01*
X111193367Y-93178381D01*
X111288605Y-93226000D01*
X111336224Y-93273619D01*
X111383843Y-93368857D01*
X111383843Y-93511714D01*
X111336224Y-93606952D01*
X111288605Y-93654571D01*
X111193367Y-93702190D01*
X110812414Y-93702190D01*
X112336224Y-94178381D02*
X111764795Y-94178381D01*
X112050509Y-94178381D02*
X112050509Y-93178381D01*
X111955271Y-93321238D01*
X111860033Y-93416476D01*
X111764795Y-93464095D01*
X112955271Y-93178381D02*
X113050510Y-93178381D01*
X113145748Y-93226000D01*
X113193367Y-93273619D01*
X113240986Y-93368857D01*
X113288605Y-93559333D01*
X113288605Y-93797429D01*
X113240986Y-93987905D01*
X113193367Y-94083143D01*
X113145748Y-94130762D01*
X113050510Y-94178381D01*
X112955271Y-94178381D01*
X112860033Y-94130762D01*
X112812414Y-94083143D01*
X112764795Y-93987905D01*
X112717176Y-93797429D01*
X112717176Y-93559333D01*
X112764795Y-93368857D01*
X112812414Y-93273619D01*
X112860033Y-93226000D01*
X112955271Y-93178381D01*
X111447343Y-90635081D02*
X111114009Y-90158890D01*
X110875914Y-90635081D02*
X110875914Y-89635081D01*
X111256867Y-89635081D01*
X111352105Y-89682700D01*
X111399724Y-89730319D01*
X111447343Y-89825557D01*
X111447343Y-89968414D01*
X111399724Y-90063652D01*
X111352105Y-90111271D01*
X111256867Y-90158890D01*
X110875914Y-90158890D01*
X111828295Y-89730319D02*
X111875914Y-89682700D01*
X111971152Y-89635081D01*
X112209248Y-89635081D01*
X112304486Y-89682700D01*
X112352105Y-89730319D01*
X112399724Y-89825557D01*
X112399724Y-89920795D01*
X112352105Y-90063652D01*
X111780676Y-90635081D01*
X112399724Y-90635081D01*
X112733057Y-89635081D02*
X113352105Y-89635081D01*
X113018771Y-90016033D01*
X113161629Y-90016033D01*
X113256867Y-90063652D01*
X113304486Y-90111271D01*
X113352105Y-90206510D01*
X113352105Y-90444605D01*
X113304486Y-90539843D01*
X113256867Y-90587462D01*
X113161629Y-90635081D01*
X112875914Y-90635081D01*
X112780676Y-90587462D01*
X112733057Y-90539843D01*
X89882743Y-128163581D02*
X89549409Y-127687390D01*
X89311314Y-128163581D02*
X89311314Y-127163581D01*
X89692267Y-127163581D01*
X89787505Y-127211200D01*
X89835124Y-127258819D01*
X89882743Y-127354057D01*
X89882743Y-127496914D01*
X89835124Y-127592152D01*
X89787505Y-127639771D01*
X89692267Y-127687390D01*
X89311314Y-127687390D01*
X90263695Y-127258819D02*
X90311314Y-127211200D01*
X90406552Y-127163581D01*
X90644648Y-127163581D01*
X90739886Y-127211200D01*
X90787505Y-127258819D01*
X90835124Y-127354057D01*
X90835124Y-127449295D01*
X90787505Y-127592152D01*
X90216076Y-128163581D01*
X90835124Y-128163581D01*
X91739886Y-127163581D02*
X91263695Y-127163581D01*
X91216076Y-127639771D01*
X91263695Y-127592152D01*
X91358933Y-127544533D01*
X91597029Y-127544533D01*
X91692267Y-127592152D01*
X91739886Y-127639771D01*
X91787505Y-127735010D01*
X91787505Y-127973105D01*
X91739886Y-128068343D01*
X91692267Y-128115962D01*
X91597029Y-128163581D01*
X91358933Y-128163581D01*
X91263695Y-128115962D01*
X91216076Y-128068343D01*
X119245143Y-136024881D02*
X118911809Y-135548690D01*
X118673714Y-136024881D02*
X118673714Y-135024881D01*
X119054667Y-135024881D01*
X119149905Y-135072500D01*
X119197524Y-135120119D01*
X119245143Y-135215357D01*
X119245143Y-135358214D01*
X119197524Y-135453452D01*
X119149905Y-135501071D01*
X119054667Y-135548690D01*
X118673714Y-135548690D01*
X119626095Y-135120119D02*
X119673714Y-135072500D01*
X119768952Y-135024881D01*
X120007048Y-135024881D01*
X120102286Y-135072500D01*
X120149905Y-135120119D01*
X120197524Y-135215357D01*
X120197524Y-135310595D01*
X120149905Y-135453452D01*
X119578476Y-136024881D01*
X120197524Y-136024881D01*
X121054667Y-135024881D02*
X120864190Y-135024881D01*
X120768952Y-135072500D01*
X120721333Y-135120119D01*
X120626095Y-135262976D01*
X120578476Y-135453452D01*
X120578476Y-135834405D01*
X120626095Y-135929643D01*
X120673714Y-135977262D01*
X120768952Y-136024881D01*
X120959429Y-136024881D01*
X121054667Y-135977262D01*
X121102286Y-135929643D01*
X121149905Y-135834405D01*
X121149905Y-135596310D01*
X121102286Y-135501071D01*
X121054667Y-135453452D01*
X120959429Y-135405833D01*
X120768952Y-135405833D01*
X120673714Y-135453452D01*
X120626095Y-135501071D01*
X120578476Y-135596310D01*
X121582143Y-127697882D02*
X121248809Y-127221691D01*
X121010714Y-127697882D02*
X121010714Y-126697882D01*
X121391667Y-126697882D01*
X121486905Y-126745501D01*
X121534524Y-126793120D01*
X121582143Y-126888358D01*
X121582143Y-127031215D01*
X121534524Y-127126453D01*
X121486905Y-127174072D01*
X121391667Y-127221691D01*
X121010714Y-127221691D01*
X121963095Y-126793120D02*
X122010714Y-126745501D01*
X122105952Y-126697882D01*
X122344048Y-126697882D01*
X122439286Y-126745501D01*
X122486905Y-126793120D01*
X122534524Y-126888358D01*
X122534524Y-126983596D01*
X122486905Y-127126453D01*
X121915476Y-127697882D01*
X122534524Y-127697882D01*
X122867857Y-126697882D02*
X123534524Y-126697882D01*
X123105952Y-127697882D01*
X74728343Y-117825757D02*
X74775962Y-117873376D01*
X74823581Y-118016233D01*
X74823581Y-118111471D01*
X74775962Y-118254329D01*
X74680724Y-118349567D01*
X74585486Y-118397186D01*
X74395010Y-118444805D01*
X74252152Y-118444805D01*
X74061676Y-118397186D01*
X73966438Y-118349567D01*
X73871200Y-118254329D01*
X73823581Y-118111471D01*
X73823581Y-118016233D01*
X73871200Y-117873376D01*
X73918819Y-117825757D01*
X74823581Y-116873376D02*
X74823581Y-117444805D01*
X74823581Y-117159091D02*
X73823581Y-117159091D01*
X73966438Y-117254329D01*
X74061676Y-117349567D01*
X74109295Y-117444805D01*
X73823581Y-116254329D02*
X73823581Y-116159090D01*
X73871200Y-116063852D01*
X73918819Y-116016233D01*
X74014057Y-115968614D01*
X74204533Y-115920995D01*
X74442629Y-115920995D01*
X74633105Y-115968614D01*
X74728343Y-116016233D01*
X74775962Y-116063852D01*
X74823581Y-116159090D01*
X74823581Y-116254329D01*
X74775962Y-116349567D01*
X74728343Y-116397186D01*
X74633105Y-116444805D01*
X74442629Y-116492424D01*
X74204533Y-116492424D01*
X74014057Y-116444805D01*
X73918819Y-116397186D01*
X73871200Y-116349567D01*
X73823581Y-116254329D01*
X74563243Y-90495357D02*
X74610862Y-90542976D01*
X74658481Y-90685833D01*
X74658481Y-90781071D01*
X74610862Y-90923929D01*
X74515624Y-91019167D01*
X74420386Y-91066786D01*
X74229910Y-91114405D01*
X74087052Y-91114405D01*
X73896576Y-91066786D01*
X73801338Y-91019167D01*
X73706100Y-90923929D01*
X73658481Y-90781071D01*
X73658481Y-90685833D01*
X73706100Y-90542976D01*
X73753719Y-90495357D01*
X74658481Y-89542976D02*
X74658481Y-90114405D01*
X74658481Y-89828691D02*
X73658481Y-89828691D01*
X73801338Y-89923929D01*
X73896576Y-90019167D01*
X73944195Y-90114405D01*
X74658481Y-88590595D02*
X74658481Y-89162024D01*
X74658481Y-88876310D02*
X73658481Y-88876310D01*
X73801338Y-88971548D01*
X73896576Y-89066786D01*
X73944195Y-89162024D01*
X56435667Y-52106581D02*
X56435667Y-52820867D01*
X56388047Y-52963724D01*
X56292809Y-53058962D01*
X56149952Y-53106581D01*
X56054714Y-53106581D01*
X57340429Y-52439914D02*
X57340429Y-53106581D01*
X57102333Y-52058962D02*
X56864238Y-52773248D01*
X57483286Y-52773248D01*
X52666667Y-143404381D02*
X52666667Y-144118667D01*
X52619047Y-144261524D01*
X52523809Y-144356762D01*
X52380952Y-144404381D01*
X52285714Y-144404381D01*
X53619048Y-143404381D02*
X53142857Y-143404381D01*
X53095238Y-143880571D01*
X53142857Y-143832952D01*
X53238095Y-143785333D01*
X53476191Y-143785333D01*
X53571429Y-143832952D01*
X53619048Y-143880571D01*
X53666667Y-143975810D01*
X53666667Y-144213905D01*
X53619048Y-144309143D01*
X53571429Y-144356762D01*
X53476191Y-144404381D01*
X53238095Y-144404381D01*
X53142857Y-144356762D01*
X53095238Y-144309143D01*
X144027567Y-50303181D02*
X144027567Y-51017467D01*
X143979947Y-51160324D01*
X143884709Y-51255562D01*
X143741852Y-51303181D01*
X143646614Y-51303181D01*
X144932329Y-50303181D02*
X144741852Y-50303181D01*
X144646614Y-50350800D01*
X144598995Y-50398419D01*
X144503757Y-50541276D01*
X144456138Y-50731752D01*
X144456138Y-51112705D01*
X144503757Y-51207943D01*
X144551376Y-51255562D01*
X144646614Y-51303181D01*
X144837091Y-51303181D01*
X144932329Y-51255562D01*
X144979948Y-51207943D01*
X145027567Y-51112705D01*
X145027567Y-50874610D01*
X144979948Y-50779371D01*
X144932329Y-50731752D01*
X144837091Y-50684133D01*
X144646614Y-50684133D01*
X144551376Y-50731752D01*
X144503757Y-50779371D01*
X144456138Y-50874610D01*
X146666667Y-143404381D02*
X146666667Y-144118667D01*
X146619047Y-144261524D01*
X146523809Y-144356762D01*
X146380952Y-144404381D01*
X146285714Y-144404381D01*
X147047619Y-143404381D02*
X147714286Y-143404381D01*
X147285714Y-144404381D01*
X119433743Y-51399583D02*
X119386124Y-51447202D01*
X119243267Y-51494821D01*
X119148029Y-51494821D01*
X119005171Y-51447202D01*
X118909933Y-51351964D01*
X118862314Y-51256726D01*
X118814695Y-51066250D01*
X118814695Y-50923392D01*
X118862314Y-50732916D01*
X118909933Y-50637678D01*
X119005171Y-50542440D01*
X119148029Y-50494821D01*
X119243267Y-50494821D01*
X119386124Y-50542440D01*
X119433743Y-50590059D01*
X120386124Y-51494821D02*
X119814695Y-51494821D01*
X120100409Y-51494821D02*
X120100409Y-50494821D01*
X120005171Y-50637678D01*
X119909933Y-50732916D01*
X119814695Y-50780535D01*
X120767076Y-50590059D02*
X120814695Y-50542440D01*
X120909933Y-50494821D01*
X121148029Y-50494821D01*
X121243267Y-50542440D01*
X121290886Y-50590059D01*
X121338505Y-50685297D01*
X121338505Y-50780535D01*
X121290886Y-50923392D01*
X120719457Y-51494821D01*
X121338505Y-51494821D01*
X126958767Y-65403481D02*
X126958767Y-66117767D01*
X126911147Y-66260624D01*
X126815909Y-66355862D01*
X126673052Y-66403481D01*
X126577814Y-66403481D01*
X127577814Y-65832052D02*
X127482576Y-65784433D01*
X127434957Y-65736814D01*
X127387338Y-65641576D01*
X127387338Y-65593957D01*
X127434957Y-65498719D01*
X127482576Y-65451100D01*
X127577814Y-65403481D01*
X127768291Y-65403481D01*
X127863529Y-65451100D01*
X127911148Y-65498719D01*
X127958767Y-65593957D01*
X127958767Y-65641576D01*
X127911148Y-65736814D01*
X127863529Y-65784433D01*
X127768291Y-65832052D01*
X127577814Y-65832052D01*
X127482576Y-65879671D01*
X127434957Y-65927290D01*
X127387338Y-66022529D01*
X127387338Y-66213005D01*
X127434957Y-66308243D01*
X127482576Y-66355862D01*
X127577814Y-66403481D01*
X127768291Y-66403481D01*
X127863529Y-66355862D01*
X127911148Y-66308243D01*
X127958767Y-66213005D01*
X127958767Y-66022529D01*
X127911148Y-65927290D01*
X127863529Y-65879671D01*
X127768291Y-65832052D01*
X114409481Y-58694557D02*
X113933290Y-59027891D01*
X114409481Y-59265986D02*
X113409481Y-59265986D01*
X113409481Y-58885033D01*
X113457100Y-58789795D01*
X113504719Y-58742176D01*
X113599957Y-58694557D01*
X113742814Y-58694557D01*
X113838052Y-58742176D01*
X113885671Y-58789795D01*
X113933290Y-58885033D01*
X113933290Y-59265986D01*
X113409481Y-58361224D02*
X113409481Y-57742176D01*
X113790433Y-58075510D01*
X113790433Y-57932652D01*
X113838052Y-57837414D01*
X113885671Y-57789795D01*
X113980910Y-57742176D01*
X114219005Y-57742176D01*
X114314243Y-57789795D01*
X114361862Y-57837414D01*
X114409481Y-57932652D01*
X114409481Y-58218367D01*
X114361862Y-58313605D01*
X114314243Y-58361224D01*
X113409481Y-57123129D02*
X113409481Y-57027890D01*
X113457100Y-56932652D01*
X113504719Y-56885033D01*
X113599957Y-56837414D01*
X113790433Y-56789795D01*
X114028529Y-56789795D01*
X114219005Y-56837414D01*
X114314243Y-56885033D01*
X114361862Y-56932652D01*
X114409481Y-57027890D01*
X114409481Y-57123129D01*
X114361862Y-57218367D01*
X114314243Y-57265986D01*
X114219005Y-57313605D01*
X114028529Y-57361224D01*
X113790433Y-57361224D01*
X113599957Y-57313605D01*
X113504719Y-57265986D01*
X113457100Y-57218367D01*
X113409481Y-57123129D01*
X135160381Y-60396286D02*
X134160381Y-60396286D01*
X134160381Y-60158191D01*
X134208000Y-60015333D01*
X134303238Y-59920095D01*
X134398476Y-59872476D01*
X134588952Y-59824857D01*
X134731810Y-59824857D01*
X134922286Y-59872476D01*
X135017524Y-59920095D01*
X135112762Y-60015333D01*
X135160381Y-60158191D01*
X135160381Y-60396286D01*
X134255619Y-59443905D02*
X134208000Y-59396286D01*
X134160381Y-59301048D01*
X134160381Y-59062952D01*
X134208000Y-58967714D01*
X134255619Y-58920095D01*
X134350857Y-58872476D01*
X134446095Y-58872476D01*
X134588952Y-58920095D01*
X135160381Y-59491524D01*
X135160381Y-58872476D01*
X135160381Y-57920095D02*
X135160381Y-58491524D01*
X135160381Y-58205810D02*
X134160381Y-58205810D01*
X134303238Y-58301048D01*
X134398476Y-58396286D01*
X134446095Y-58491524D01*
X129074943Y-56891181D02*
X128741609Y-56414990D01*
X128503514Y-56891181D02*
X128503514Y-55891181D01*
X128884467Y-55891181D01*
X128979705Y-55938800D01*
X129027324Y-55986419D01*
X129074943Y-56081657D01*
X129074943Y-56224514D01*
X129027324Y-56319752D01*
X128979705Y-56367371D01*
X128884467Y-56414990D01*
X128503514Y-56414990D01*
X129408276Y-55891181D02*
X130027324Y-55891181D01*
X129693990Y-56272133D01*
X129836848Y-56272133D01*
X129932086Y-56319752D01*
X129979705Y-56367371D01*
X130027324Y-56462610D01*
X130027324Y-56700705D01*
X129979705Y-56795943D01*
X129932086Y-56843562D01*
X129836848Y-56891181D01*
X129551133Y-56891181D01*
X129455895Y-56843562D01*
X129408276Y-56795943D01*
X130979705Y-56891181D02*
X130408276Y-56891181D01*
X130693990Y-56891181D02*
X130693990Y-55891181D01*
X130598752Y-56034038D01*
X130503514Y-56129276D01*
X130408276Y-56176895D01*
X110891581Y-59240586D02*
X109891581Y-59240586D01*
X109891581Y-59002491D01*
X109939200Y-58859633D01*
X110034438Y-58764395D01*
X110129676Y-58716776D01*
X110320152Y-58669157D01*
X110463010Y-58669157D01*
X110653486Y-58716776D01*
X110748724Y-58764395D01*
X110843962Y-58859633D01*
X110891581Y-59002491D01*
X110891581Y-59240586D01*
X109986819Y-58288205D02*
X109939200Y-58240586D01*
X109891581Y-58145348D01*
X109891581Y-57907252D01*
X109939200Y-57812014D01*
X109986819Y-57764395D01*
X110082057Y-57716776D01*
X110177295Y-57716776D01*
X110320152Y-57764395D01*
X110891581Y-58335824D01*
X110891581Y-57716776D01*
X109986819Y-57335824D02*
X109939200Y-57288205D01*
X109891581Y-57192967D01*
X109891581Y-56954871D01*
X109939200Y-56859633D01*
X109986819Y-56812014D01*
X110082057Y-56764395D01*
X110177295Y-56764395D01*
X110320152Y-56812014D01*
X110891581Y-57383443D01*
X110891581Y-56764395D01*
X107005381Y-59939157D02*
X106529190Y-60272491D01*
X107005381Y-60510586D02*
X106005381Y-60510586D01*
X106005381Y-60129633D01*
X106053000Y-60034395D01*
X106100619Y-59986776D01*
X106195857Y-59939157D01*
X106338714Y-59939157D01*
X106433952Y-59986776D01*
X106481571Y-60034395D01*
X106529190Y-60129633D01*
X106529190Y-60510586D01*
X106005381Y-59605824D02*
X106005381Y-58986776D01*
X106386333Y-59320110D01*
X106386333Y-59177252D01*
X106433952Y-59082014D01*
X106481571Y-59034395D01*
X106576810Y-58986776D01*
X106814905Y-58986776D01*
X106910143Y-59034395D01*
X106957762Y-59082014D01*
X107005381Y-59177252D01*
X107005381Y-59462967D01*
X106957762Y-59558205D01*
X106910143Y-59605824D01*
X106100619Y-58605824D02*
X106053000Y-58558205D01*
X106005381Y-58462967D01*
X106005381Y-58224871D01*
X106053000Y-58129633D01*
X106100619Y-58082014D01*
X106195857Y-58034395D01*
X106291095Y-58034395D01*
X106433952Y-58082014D01*
X107005381Y-58653443D01*
X107005381Y-58034395D01*
X124808381Y-103302678D02*
X124332190Y-103636012D01*
X124808381Y-103874107D02*
X123808381Y-103874107D01*
X123808381Y-103493154D01*
X123856000Y-103397916D01*
X123903619Y-103350297D01*
X123998857Y-103302678D01*
X124141714Y-103302678D01*
X124236952Y-103350297D01*
X124284571Y-103397916D01*
X124332190Y-103493154D01*
X124332190Y-103874107D01*
X123808381Y-103016964D02*
X124808381Y-102683631D01*
X123808381Y-102350297D01*
X124141714Y-101588392D02*
X124808381Y-101588392D01*
X123760762Y-101826488D02*
X124475048Y-102064583D01*
X124475048Y-101445535D01*
X138056881Y-101011598D02*
X137580690Y-101344932D01*
X138056881Y-101583027D02*
X137056881Y-101583027D01*
X137056881Y-101202074D01*
X137104500Y-101106836D01*
X137152119Y-101059217D01*
X137247357Y-101011598D01*
X137390214Y-101011598D01*
X137485452Y-101059217D01*
X137533071Y-101106836D01*
X137580690Y-101202074D01*
X137580690Y-101583027D01*
X137056881Y-100725884D02*
X138056881Y-100392551D01*
X137056881Y-100059217D01*
X137056881Y-99249693D02*
X137056881Y-99725884D01*
X137533071Y-99773503D01*
X137485452Y-99725884D01*
X137437833Y-99630646D01*
X137437833Y-99392550D01*
X137485452Y-99297312D01*
X137533071Y-99249693D01*
X137628310Y-99202074D01*
X137866405Y-99202074D01*
X137961643Y-99249693D01*
X138009262Y-99297312D01*
X138056881Y-99392550D01*
X138056881Y-99630646D01*
X138009262Y-99725884D01*
X137961643Y-99773503D01*
X95614265Y-62131201D02*
X95614265Y-61131201D01*
X95852360Y-61131201D01*
X95995218Y-61178820D01*
X96090456Y-61274058D01*
X96138075Y-61369296D01*
X96185694Y-61559772D01*
X96185694Y-61702630D01*
X96138075Y-61893106D01*
X96090456Y-61988344D01*
X95995218Y-62083582D01*
X95852360Y-62131201D01*
X95614265Y-62131201D01*
X96519027Y-61131201D02*
X97185694Y-61131201D01*
X96757122Y-62131201D01*
X94975514Y-65146181D02*
X94975514Y-64146181D01*
X95213609Y-64146181D01*
X95356467Y-64193800D01*
X95451705Y-64289038D01*
X95499324Y-64384276D01*
X95546943Y-64574752D01*
X95546943Y-64717610D01*
X95499324Y-64908086D01*
X95451705Y-65003324D01*
X95356467Y-65098562D01*
X95213609Y-65146181D01*
X94975514Y-65146181D01*
X95927895Y-64241419D02*
X95975514Y-64193800D01*
X96070752Y-64146181D01*
X96308848Y-64146181D01*
X96404086Y-64193800D01*
X96451705Y-64241419D01*
X96499324Y-64336657D01*
X96499324Y-64431895D01*
X96451705Y-64574752D01*
X95880276Y-65146181D01*
X96499324Y-65146181D01*
X96832657Y-64146181D02*
X97451705Y-64146181D01*
X97118371Y-64527133D01*
X97261229Y-64527133D01*
X97356467Y-64574752D01*
X97404086Y-64622371D01*
X97451705Y-64717610D01*
X97451705Y-64955705D01*
X97404086Y-65050943D01*
X97356467Y-65098562D01*
X97261229Y-65146181D01*
X96975514Y-65146181D01*
X96880276Y-65098562D01*
X96832657Y-65050943D01*
X101258762Y-99616381D02*
X100925428Y-99140190D01*
X100687333Y-99616381D02*
X100687333Y-98616381D01*
X101068286Y-98616381D01*
X101163524Y-98664000D01*
X101211143Y-98711619D01*
X101258762Y-98806857D01*
X101258762Y-98949714D01*
X101211143Y-99044952D01*
X101163524Y-99092571D01*
X101068286Y-99140190D01*
X100687333Y-99140190D01*
X101544476Y-98616381D02*
X101877809Y-99616381D01*
X102211143Y-98616381D01*
X102973048Y-98616381D02*
X102782571Y-98616381D01*
X102687333Y-98664000D01*
X102639714Y-98711619D01*
X102544476Y-98854476D01*
X102496857Y-99044952D01*
X102496857Y-99425905D01*
X102544476Y-99521143D01*
X102592095Y-99568762D01*
X102687333Y-99616381D01*
X102877810Y-99616381D01*
X102973048Y-99568762D01*
X103020667Y-99521143D01*
X103068286Y-99425905D01*
X103068286Y-99187810D01*
X103020667Y-99092571D01*
X102973048Y-99044952D01*
X102877810Y-98997333D01*
X102687333Y-98997333D01*
X102592095Y-99044952D01*
X102544476Y-99092571D01*
X102496857Y-99187810D01*
X86526762Y-92844881D02*
X86193428Y-92368690D01*
X85955333Y-92844881D02*
X85955333Y-91844881D01*
X86336286Y-91844881D01*
X86431524Y-91892500D01*
X86479143Y-91940119D01*
X86526762Y-92035357D01*
X86526762Y-92178214D01*
X86479143Y-92273452D01*
X86431524Y-92321071D01*
X86336286Y-92368690D01*
X85955333Y-92368690D01*
X86812476Y-91844881D02*
X87145809Y-92844881D01*
X87479143Y-91844881D01*
X87717238Y-91844881D02*
X88336286Y-91844881D01*
X88002952Y-92225833D01*
X88145810Y-92225833D01*
X88241048Y-92273452D01*
X88288667Y-92321071D01*
X88336286Y-92416310D01*
X88336286Y-92654405D01*
X88288667Y-92749643D01*
X88241048Y-92797262D01*
X88145810Y-92844881D01*
X87860095Y-92844881D01*
X87764857Y-92797262D01*
X87717238Y-92749643D01*
X79773543Y-78538343D02*
X79725924Y-78585962D01*
X79583067Y-78633581D01*
X79487829Y-78633581D01*
X79344971Y-78585962D01*
X79249733Y-78490724D01*
X79202114Y-78395486D01*
X79154495Y-78205010D01*
X79154495Y-78062152D01*
X79202114Y-77871676D01*
X79249733Y-77776438D01*
X79344971Y-77681200D01*
X79487829Y-77633581D01*
X79583067Y-77633581D01*
X79725924Y-77681200D01*
X79773543Y-77728819D01*
X80725924Y-78633581D02*
X80154495Y-78633581D01*
X80440209Y-78633581D02*
X80440209Y-77633581D01*
X80344971Y-77776438D01*
X80249733Y-77871676D01*
X80154495Y-77919295D01*
X81059257Y-77633581D02*
X81678305Y-77633581D01*
X81344971Y-78014533D01*
X81487829Y-78014533D01*
X81583067Y-78062152D01*
X81630686Y-78109771D01*
X81678305Y-78205010D01*
X81678305Y-78443105D01*
X81630686Y-78538343D01*
X81583067Y-78585962D01*
X81487829Y-78633581D01*
X81202114Y-78633581D01*
X81106876Y-78585962D01*
X81059257Y-78538343D01*
X87320381Y-100020286D02*
X86320381Y-100020286D01*
X86320381Y-99782191D01*
X86368000Y-99639333D01*
X86463238Y-99544095D01*
X86558476Y-99496476D01*
X86748952Y-99448857D01*
X86891810Y-99448857D01*
X87082286Y-99496476D01*
X87177524Y-99544095D01*
X87272762Y-99639333D01*
X87320381Y-99782191D01*
X87320381Y-100020286D01*
X87320381Y-98496476D02*
X87320381Y-99067905D01*
X87320381Y-98782191D02*
X86320381Y-98782191D01*
X86463238Y-98877429D01*
X86558476Y-98972667D01*
X86606095Y-99067905D01*
X86320381Y-97877429D02*
X86320381Y-97782190D01*
X86368000Y-97686952D01*
X86415619Y-97639333D01*
X86510857Y-97591714D01*
X86701333Y-97544095D01*
X86939429Y-97544095D01*
X87129905Y-97591714D01*
X87225143Y-97639333D01*
X87272762Y-97686952D01*
X87320381Y-97782190D01*
X87320381Y-97877429D01*
X87272762Y-97972667D01*
X87225143Y-98020286D01*
X87129905Y-98067905D01*
X86939429Y-98115524D01*
X86701333Y-98115524D01*
X86510857Y-98067905D01*
X86415619Y-98020286D01*
X86368000Y-97972667D01*
X86320381Y-97877429D01*
X128919219Y-146297638D02*
X128871600Y-146392876D01*
X128776362Y-146488114D01*
X128633505Y-146630971D01*
X128585886Y-146726210D01*
X128585886Y-146821448D01*
X128823981Y-146773829D02*
X128776362Y-146869067D01*
X128681124Y-146964305D01*
X128490648Y-147011924D01*
X128157314Y-147011924D01*
X127966838Y-146964305D01*
X127871600Y-146869067D01*
X127823981Y-146773829D01*
X127823981Y-146583352D01*
X127871600Y-146488114D01*
X127966838Y-146392876D01*
X128157314Y-146345257D01*
X128490648Y-146345257D01*
X128681124Y-146392876D01*
X128776362Y-146488114D01*
X128823981Y-146583352D01*
X128823981Y-146773829D01*
X127919219Y-145964305D02*
X127871600Y-145916686D01*
X127823981Y-145821448D01*
X127823981Y-145583352D01*
X127871600Y-145488114D01*
X127919219Y-145440495D01*
X128014457Y-145392876D01*
X128109695Y-145392876D01*
X128252552Y-145440495D01*
X128823981Y-146011924D01*
X128823981Y-145392876D01*
X92851219Y-146094438D02*
X92803600Y-146189676D01*
X92708362Y-146284914D01*
X92565505Y-146427771D01*
X92517886Y-146523010D01*
X92517886Y-146618248D01*
X92755981Y-146570629D02*
X92708362Y-146665867D01*
X92613124Y-146761105D01*
X92422648Y-146808724D01*
X92089314Y-146808724D01*
X91898838Y-146761105D01*
X91803600Y-146665867D01*
X91755981Y-146570629D01*
X91755981Y-146380152D01*
X91803600Y-146284914D01*
X91898838Y-146189676D01*
X92089314Y-146142057D01*
X92422648Y-146142057D01*
X92613124Y-146189676D01*
X92708362Y-146284914D01*
X92755981Y-146380152D01*
X92755981Y-146570629D01*
X92089314Y-145284914D02*
X92755981Y-145284914D01*
X91708362Y-145523010D02*
X92422648Y-145761105D01*
X92422648Y-145142057D01*
X110809019Y-146170638D02*
X110761400Y-146265876D01*
X110666162Y-146361114D01*
X110523305Y-146503971D01*
X110475686Y-146599210D01*
X110475686Y-146694448D01*
X110713781Y-146646829D02*
X110666162Y-146742067D01*
X110570924Y-146837305D01*
X110380448Y-146884924D01*
X110047114Y-146884924D01*
X109856638Y-146837305D01*
X109761400Y-146742067D01*
X109713781Y-146646829D01*
X109713781Y-146456352D01*
X109761400Y-146361114D01*
X109856638Y-146265876D01*
X110047114Y-146218257D01*
X110380448Y-146218257D01*
X110570924Y-146265876D01*
X110666162Y-146361114D01*
X110713781Y-146456352D01*
X110713781Y-146646829D01*
X109713781Y-145313495D02*
X109713781Y-145789686D01*
X110189971Y-145837305D01*
X110142352Y-145789686D01*
X110094733Y-145694448D01*
X110094733Y-145456352D01*
X110142352Y-145361114D01*
X110189971Y-145313495D01*
X110285210Y-145265876D01*
X110523305Y-145265876D01*
X110618543Y-145313495D01*
X110666162Y-145361114D01*
X110713781Y-145456352D01*
X110713781Y-145694448D01*
X110666162Y-145789686D01*
X110618543Y-145837305D01*
X75122019Y-146170638D02*
X75074400Y-146265876D01*
X74979162Y-146361114D01*
X74836305Y-146503971D01*
X74788686Y-146599210D01*
X74788686Y-146694448D01*
X75026781Y-146646829D02*
X74979162Y-146742067D01*
X74883924Y-146837305D01*
X74693448Y-146884924D01*
X74360114Y-146884924D01*
X74169638Y-146837305D01*
X74074400Y-146742067D01*
X74026781Y-146646829D01*
X74026781Y-146456352D01*
X74074400Y-146361114D01*
X74169638Y-146265876D01*
X74360114Y-146218257D01*
X74693448Y-146218257D01*
X74883924Y-146265876D01*
X74979162Y-146361114D01*
X75026781Y-146456352D01*
X75026781Y-146646829D01*
X74026781Y-145361114D02*
X74026781Y-145551591D01*
X74074400Y-145646829D01*
X74122019Y-145694448D01*
X74264876Y-145789686D01*
X74455352Y-145837305D01*
X74836305Y-145837305D01*
X74931543Y-145789686D01*
X74979162Y-145742067D01*
X75026781Y-145646829D01*
X75026781Y-145456352D01*
X74979162Y-145361114D01*
X74931543Y-145313495D01*
X74836305Y-145265876D01*
X74598210Y-145265876D01*
X74502971Y-145313495D01*
X74455352Y-145361114D01*
X74407733Y-145456352D01*
X74407733Y-145646829D01*
X74455352Y-145742067D01*
X74502971Y-145789686D01*
X74598210Y-145837305D01*
X56910219Y-146602438D02*
X56862600Y-146697676D01*
X56767362Y-146792914D01*
X56624505Y-146935771D01*
X56576886Y-147031010D01*
X56576886Y-147126248D01*
X56814981Y-147078629D02*
X56767362Y-147173867D01*
X56672124Y-147269105D01*
X56481648Y-147316724D01*
X56148314Y-147316724D01*
X55957838Y-147269105D01*
X55862600Y-147173867D01*
X55814981Y-147078629D01*
X55814981Y-146888152D01*
X55862600Y-146792914D01*
X55957838Y-146697676D01*
X56148314Y-146650057D01*
X56481648Y-146650057D01*
X56672124Y-146697676D01*
X56767362Y-146792914D01*
X56814981Y-146888152D01*
X56814981Y-147078629D01*
X55814981Y-146316724D02*
X55814981Y-145650057D01*
X56814981Y-146078629D01*
X85609181Y-89072933D02*
X86323467Y-89072933D01*
X86466324Y-89120553D01*
X86561562Y-89215791D01*
X86609181Y-89358648D01*
X86609181Y-89453886D01*
X86609181Y-88596743D02*
X85609181Y-88596743D01*
X85609181Y-88215790D01*
X85656800Y-88120552D01*
X85704419Y-88072933D01*
X85799657Y-88025314D01*
X85942514Y-88025314D01*
X86037752Y-88072933D01*
X86085371Y-88120552D01*
X86132990Y-88215790D01*
X86132990Y-88596743D01*
X86609181Y-87072933D02*
X86609181Y-87644362D01*
X86609181Y-87358648D02*
X85609181Y-87358648D01*
X85752038Y-87453886D01*
X85847276Y-87549124D01*
X85894895Y-87644362D01*
M02*
