G04 #@! TF.FileFunction,Soldermask,Top*
%FSLAX46Y46*%
G04 Gerber Fmt 4.6, Leading zero omitted, Abs format (unit mm)*
G04 Created by KiCad (PCBNEW 4.0.7) date 08/28/19 13:25:43*
%MOMM*%
%LPD*%
G01*
G04 APERTURE LIST*
%ADD10C,0.100000*%
%ADD11R,3.600000X3.600000*%
%ADD12O,3.600000X3.600000*%
%ADD13C,2.000000*%
%ADD14O,2.000000X2.000000*%
%ADD15R,2.400000X3.000000*%
%ADD16O,2.400000X3.000000*%
%ADD17C,1.840000*%
%ADD18C,2.800000*%
%ADD19O,2.800000X2.800000*%
%ADD20R,2.000000X2.000000*%
%ADD21R,2.600000X2.600000*%
%ADD22O,2.600000X2.600000*%
%ADD23R,2.200000X2.200000*%
%ADD24C,2.200000*%
%ADD25R,3.400000X3.400000*%
%ADD26C,3.400000*%
%ADD27C,1.400000*%
%ADD28R,1.400000X1.400000*%
%ADD29C,2.900000*%
%ADD30C,4.464000*%
%ADD31O,2.200000X2.200000*%
%ADD32R,2.200000X3.400000*%
%ADD33R,2.100000X2.100000*%
%ADD34O,2.100000X2.100000*%
%ADD35R,3.000000X2.400000*%
%ADD36O,3.000000X2.400000*%
%ADD37R,2.800000X2.800000*%
%ADD38R,4.200000X3.400000*%
G04 APERTURE END LIST*
D10*
D11*
X57366800Y-123296000D03*
D12*
X57366800Y-110596000D03*
D13*
X128412240Y-62169040D03*
D14*
X120792240Y-62169040D03*
D13*
X116621560Y-76083160D03*
X111621560Y-76083160D03*
D15*
X142544800Y-64008000D03*
D16*
X145084800Y-64008000D03*
X147624800Y-64008000D03*
D13*
X127330200Y-66789300D03*
D14*
X127330200Y-74409300D03*
D13*
X130733800Y-81950560D03*
D14*
X138353800Y-81950560D03*
D17*
X99314000Y-95504000D03*
X101854000Y-95504000D03*
X104394000Y-95504000D03*
D13*
X107635040Y-100203000D03*
D14*
X115255040Y-100203000D03*
D13*
X115290600Y-108940600D03*
X120290600Y-108940600D03*
X119761000Y-79629000D03*
D14*
X119761000Y-87249000D03*
D18*
X75107800Y-135178800D03*
D19*
X103047800Y-135178800D03*
D13*
X130175000Y-89268300D03*
X125175000Y-89268300D03*
X122936000Y-84455000D03*
X122936000Y-79455000D03*
X94691200Y-73314560D03*
X89691200Y-73314560D03*
D20*
X88582500Y-61341000D03*
D14*
X80962500Y-61341000D03*
D20*
X88544400Y-64274700D03*
D14*
X80924400Y-64274700D03*
D21*
X91630500Y-93218000D03*
D22*
X91630500Y-100838000D03*
D20*
X96979740Y-72280780D03*
D14*
X104599740Y-72280780D03*
D21*
X138544300Y-95059500D03*
D22*
X130924300Y-95059500D03*
D23*
X137520680Y-53812440D03*
D24*
X137520680Y-51272440D03*
D25*
X56972200Y-104460040D03*
D26*
X56972200Y-99380040D03*
X56972200Y-94300040D03*
D25*
X144373600Y-128117600D03*
D26*
X144373600Y-133197600D03*
D27*
X118745000Y-91567000D03*
X120015000Y-90297000D03*
D28*
X120015000Y-92837000D03*
D27*
X73914000Y-76301600D03*
X75184000Y-77571600D03*
D28*
X72644000Y-77571600D03*
D13*
X87439500Y-122618500D03*
D14*
X87439500Y-114998500D03*
D18*
X67894200Y-52730400D03*
D19*
X80594200Y-52730400D03*
D18*
X86944200Y-67894200D03*
D19*
X74244200Y-67894200D03*
D13*
X95186500Y-100965000D03*
D14*
X95186500Y-93345000D03*
D13*
X98044000Y-88138000D03*
D14*
X105664000Y-88138000D03*
D13*
X98044000Y-91440000D03*
D14*
X105664000Y-91440000D03*
D18*
X91211400Y-115128040D03*
D19*
X119151400Y-115128040D03*
D13*
X125907800Y-86106000D03*
D14*
X133527800Y-86106000D03*
D13*
X109077760Y-72395080D03*
D14*
X116697760Y-72395080D03*
D13*
X107721400Y-103987600D03*
D14*
X115341400Y-103987600D03*
D13*
X122796300Y-106489500D03*
D14*
X122796300Y-98869500D03*
D13*
X119405400Y-98729800D03*
D14*
X119405400Y-106349800D03*
D18*
X123748800Y-109971840D03*
D19*
X136448800Y-109971840D03*
D13*
X141046200Y-58254900D03*
D14*
X148666200Y-58254900D03*
D13*
X104729280Y-85425280D03*
D14*
X104729280Y-77805280D03*
D13*
X73660000Y-72237600D03*
D14*
X81280000Y-72237600D03*
D13*
X85801200Y-78689200D03*
D14*
X85801200Y-71069200D03*
D13*
X101335840Y-85425280D03*
D14*
X101335840Y-77805280D03*
D13*
X125730000Y-52578000D03*
D14*
X133350000Y-52578000D03*
D29*
X142684500Y-94763600D03*
X142684500Y-99763600D03*
X142684500Y-89763600D03*
X142684500Y-76285100D03*
X142684500Y-81285100D03*
X142684500Y-71285100D03*
D20*
X90302080Y-76499720D03*
D14*
X97922080Y-84119720D03*
X90302080Y-79039720D03*
X97922080Y-81579720D03*
X90302080Y-81579720D03*
X97922080Y-79039720D03*
X90302080Y-84119720D03*
X97922080Y-76499720D03*
D20*
X116332000Y-79248000D03*
D14*
X108712000Y-86868000D03*
X113792000Y-79248000D03*
X111252000Y-86868000D03*
X111252000Y-79248000D03*
X113792000Y-86868000D03*
X108712000Y-79248000D03*
X116332000Y-86868000D03*
D20*
X85496400Y-54368700D03*
D13*
X90496400Y-54368700D03*
D20*
X72732900Y-60769500D03*
D13*
X77732900Y-60769500D03*
D20*
X138163300Y-101663500D03*
D13*
X133163300Y-101663500D03*
X109082840Y-97307400D03*
D14*
X109082840Y-89687400D03*
D18*
X76555600Y-127457200D03*
D19*
X104495600Y-127457200D03*
D18*
X133985000Y-135191500D03*
D19*
X106045000Y-135191500D03*
D18*
X135763000Y-127508000D03*
D19*
X107823000Y-127508000D03*
D30*
X53000000Y-53000000D03*
X53000000Y-147000000D03*
X147000000Y-53000000D03*
X147000000Y-147000000D03*
D20*
X119303800Y-58293000D03*
D13*
X119303800Y-53293000D03*
X107599480Y-61244480D03*
D14*
X99979480Y-61244480D03*
D23*
X137464800Y-58841640D03*
D24*
X137464800Y-56301640D03*
D13*
X125740160Y-55697120D03*
D14*
X133360160Y-55697120D03*
D21*
X107680760Y-57698640D03*
D22*
X100060760Y-57698640D03*
D18*
X112826800Y-53975000D03*
D19*
X100126800Y-53975000D03*
D20*
X94300040Y-52390040D03*
D14*
X94300040Y-60010040D03*
D20*
X96951800Y-60071000D03*
D14*
X96951800Y-52451000D03*
D17*
X89471500Y-88836500D03*
X92011500Y-88836500D03*
X94551500Y-88836500D03*
D13*
X83124040Y-77784960D03*
X78124040Y-77784960D03*
D21*
X86868000Y-102565200D03*
D22*
X86868000Y-94945200D03*
D23*
X137058400Y-145796000D03*
D31*
X134518400Y-145796000D03*
X131978400Y-145796000D03*
D32*
X137058400Y-148336000D03*
X134518400Y-148336000D03*
X131978400Y-148336000D03*
D33*
X86893400Y-81762600D03*
D34*
X86893400Y-84302600D03*
D13*
X112430560Y-89743280D03*
D14*
X112430560Y-97363280D03*
D13*
X115595400Y-89804240D03*
D14*
X115595400Y-97424240D03*
D33*
X119725440Y-76611480D03*
D34*
X119725440Y-74071480D03*
D33*
X93929200Y-105435400D03*
D34*
X91389200Y-105435400D03*
D13*
X136682480Y-65044320D03*
X131682480Y-65044320D03*
D35*
X144576800Y-106934000D03*
D36*
X144576800Y-109474000D03*
X144576800Y-112014000D03*
D15*
X93014800Y-65532000D03*
D16*
X95554800Y-65532000D03*
D33*
X105918000Y-68999100D03*
D34*
X103378000Y-68999100D03*
X100838000Y-68999100D03*
D33*
X105587800Y-65024000D03*
D34*
X103047800Y-65024000D03*
X100507800Y-65024000D03*
D13*
X129809240Y-78623160D03*
D14*
X137429240Y-78623160D03*
D13*
X133273800Y-59207400D03*
D14*
X125653800Y-59207400D03*
D13*
X136321800Y-85994240D03*
D14*
X143941800Y-85994240D03*
D13*
X139560300Y-90614500D03*
D14*
X131940300Y-90614500D03*
D20*
X130416300Y-75590400D03*
D14*
X138036300Y-67970400D03*
X132956300Y-75590400D03*
X135496300Y-67970400D03*
X135496300Y-75590400D03*
X132956300Y-67970400D03*
X138036300Y-75590400D03*
X130416300Y-67970400D03*
D13*
X130622040Y-62138560D03*
X135622040Y-62138560D03*
X108463080Y-75300840D03*
X103463080Y-75300840D03*
D11*
X57366800Y-71296000D03*
D12*
X57366800Y-58596000D03*
D11*
X56366800Y-141296000D03*
D12*
X56366800Y-128596000D03*
D11*
X57366800Y-88296000D03*
D12*
X57366800Y-75596000D03*
D37*
X79237840Y-90246200D03*
D18*
X71737840Y-90246200D03*
D37*
X79532480Y-110871000D03*
D18*
X72032480Y-110871000D03*
D30*
X70241160Y-132379720D03*
X67558920Y-62250320D03*
X70129400Y-124668280D03*
X67589400Y-68580000D03*
D23*
X100965000Y-145770600D03*
D31*
X98425000Y-145770600D03*
X95885000Y-145770600D03*
D38*
X101965000Y-148310600D03*
D32*
X98425000Y-148310600D03*
D38*
X94885000Y-148310600D03*
D23*
X118999000Y-145770600D03*
D31*
X116459000Y-145770600D03*
X113919000Y-145770600D03*
D38*
X119999000Y-148310600D03*
D32*
X116459000Y-148310600D03*
D38*
X112919000Y-148310600D03*
D23*
X83058000Y-145770600D03*
D31*
X80518000Y-145770600D03*
X77978000Y-145770600D03*
D38*
X84058000Y-148310600D03*
D32*
X80518000Y-148310600D03*
D38*
X76978000Y-148310600D03*
D23*
X64770000Y-145821400D03*
D31*
X62230000Y-145821400D03*
X59690000Y-145821400D03*
D38*
X65770000Y-148361400D03*
D32*
X62230000Y-148361400D03*
D38*
X58690000Y-148361400D03*
M02*
