G04 #@! TF.FileFunction,Copper,L1,Top,Signal*
%FSLAX46Y46*%
G04 Gerber Fmt 4.6, Leading zero omitted, Abs format (unit mm)*
G04 Created by KiCad (PCBNEW 4.0.7) date 06/02/19 08:16:53*
%MOMM*%
%LPD*%
G01*
G04 APERTURE LIST*
%ADD10C,0.100000*%
%ADD11C,1.600000*%
%ADD12O,1.600000X1.600000*%
%ADD13R,3.000000X3.000000*%
%ADD14C,3.000000*%
%ADD15C,2.400000*%
%ADD16O,2.400000X2.400000*%
%ADD17R,2.600000X2.600000*%
%ADD18O,2.600000X2.600000*%
%ADD19R,1.600000X1.600000*%
%ADD20R,2.200000X2.200000*%
%ADD21O,2.200000X2.200000*%
%ADD22R,1.800000X1.800000*%
%ADD23C,1.800000*%
%ADD24C,1.000000*%
%ADD25R,1.000000X1.000000*%
%ADD26C,2.500000*%
%ADD27R,2.400000X2.400000*%
%ADD28C,4.064000*%
%ADD29C,1.440000*%
%ADD30O,1.800000X1.800000*%
%ADD31R,1.800000X3.000000*%
%ADD32R,1.700000X1.700000*%
%ADD33O,1.700000X1.700000*%
%ADD34C,2.000000*%
%ADD35C,0.500000*%
%ADD36C,4.000000*%
%ADD37C,1.000000*%
G04 APERTURE END LIST*
D10*
D11*
X108204000Y-93726000D03*
D12*
X115824000Y-93726000D03*
D11*
X130708400Y-80060800D03*
X125708400Y-80060800D03*
X119761000Y-79629000D03*
D12*
X119761000Y-87249000D03*
D13*
X143611600Y-99910900D03*
D14*
X143611600Y-104990900D03*
X143611600Y-110070900D03*
D15*
X75107800Y-135178800D03*
D16*
X103047800Y-135178800D03*
D11*
X123190000Y-76835000D03*
X123190000Y-71835000D03*
X122936000Y-84455000D03*
X122936000Y-79455000D03*
X95250000Y-72964040D03*
X90250000Y-72964040D03*
X118033800Y-74752200D03*
X113033800Y-74752200D03*
D17*
X68300600Y-70662800D03*
D18*
X53060600Y-70662800D03*
D17*
X68122800Y-128905000D03*
D18*
X52882800Y-128905000D03*
D17*
X53111400Y-76352400D03*
D18*
X68351400Y-76352400D03*
D17*
X52933600Y-122859800D03*
D18*
X68173600Y-122859800D03*
D19*
X89662000Y-61468000D03*
D12*
X82042000Y-61468000D03*
D19*
X89855040Y-64373760D03*
D12*
X82235040Y-64373760D03*
D20*
X91630500Y-93218000D03*
D21*
X91630500Y-100838000D03*
D19*
X96520000Y-68834000D03*
D12*
X104140000Y-68834000D03*
D20*
X137160000Y-84836000D03*
D21*
X129540000Y-84836000D03*
D22*
X137541000Y-54229000D03*
D23*
X137541000Y-51689000D03*
D13*
X65455800Y-104902000D03*
D14*
X65455800Y-99822000D03*
X65455800Y-94742000D03*
D13*
X144373600Y-128117600D03*
D14*
X144373600Y-133197600D03*
D24*
X118745000Y-91567000D03*
X120015000Y-90297000D03*
D25*
X120015000Y-92837000D03*
D24*
X73914000Y-76301600D03*
X75184000Y-77571600D03*
D25*
X72644000Y-77571600D03*
D11*
X87439500Y-122618500D03*
D12*
X87439500Y-114998500D03*
D15*
X73647300Y-53479700D03*
D16*
X86347300Y-53479700D03*
D15*
X86944200Y-67894200D03*
D16*
X74244200Y-67894200D03*
D11*
X95186500Y-100965000D03*
D12*
X95186500Y-93345000D03*
D11*
X98044000Y-88138000D03*
D12*
X105664000Y-88138000D03*
D11*
X98044000Y-91440000D03*
D12*
X105664000Y-91440000D03*
D15*
X90678000Y-111760000D03*
D16*
X118618000Y-111760000D03*
D11*
X130683000Y-72136000D03*
D12*
X138303000Y-72136000D03*
D11*
X112509300Y-71437500D03*
D12*
X120129300Y-71437500D03*
D11*
X106680000Y-99949000D03*
D12*
X114300000Y-99949000D03*
D11*
X124104400Y-99949000D03*
D12*
X116484400Y-99949000D03*
D11*
X127063500Y-96647000D03*
D12*
X127063500Y-89027000D03*
D15*
X123748800Y-109971840D03*
D16*
X136448800Y-109971840D03*
D11*
X138696700Y-66548000D03*
D12*
X131076700Y-66548000D03*
D11*
X104902000Y-85090000D03*
D12*
X104902000Y-77470000D03*
D11*
X73660000Y-72237600D03*
D12*
X81280000Y-72237600D03*
D11*
X85801200Y-78689200D03*
D12*
X85801200Y-71069200D03*
D11*
X101600000Y-85090000D03*
D12*
X101600000Y-77470000D03*
D11*
X125730000Y-52578000D03*
D12*
X133350000Y-52578000D03*
D26*
X142938500Y-86915000D03*
X142938500Y-91915000D03*
X142938500Y-81915000D03*
X142684500Y-69922400D03*
X142684500Y-74922400D03*
X142684500Y-64922400D03*
D19*
X90302080Y-76499720D03*
D12*
X97922080Y-84119720D03*
X90302080Y-79039720D03*
X97922080Y-81579720D03*
X90302080Y-81579720D03*
X97922080Y-79039720D03*
X90302080Y-84119720D03*
X97922080Y-76499720D03*
D19*
X116332000Y-79248000D03*
D12*
X108712000Y-86868000D03*
X113792000Y-79248000D03*
X111252000Y-86868000D03*
X111252000Y-79248000D03*
X113792000Y-86868000D03*
X108712000Y-79248000D03*
X116332000Y-86868000D03*
D19*
X90246200Y-54533800D03*
D11*
X95246200Y-54533800D03*
D19*
X73482200Y-60794900D03*
D11*
X78482200Y-60794900D03*
D19*
X136652000Y-90932000D03*
D11*
X131652000Y-90932000D03*
D17*
X68046600Y-140817600D03*
D18*
X52806600Y-140817600D03*
D17*
X52933600Y-116916200D03*
D18*
X68173600Y-116916200D03*
D17*
X68046600Y-134848600D03*
D18*
X52806600Y-134848600D03*
D17*
X52959000Y-110947200D03*
D18*
X68199000Y-110947200D03*
D17*
X68351400Y-58902600D03*
D18*
X53111400Y-58902600D03*
D17*
X53263800Y-88265000D03*
D18*
X68503800Y-88265000D03*
D17*
X68326000Y-64795400D03*
D18*
X53086000Y-64795400D03*
D17*
X53136800Y-82296000D03*
D18*
X68376800Y-82296000D03*
D27*
X78143100Y-104457500D03*
D15*
X78143100Y-96957500D03*
D11*
X115824000Y-90170000D03*
D12*
X108204000Y-90170000D03*
D15*
X76555600Y-127457200D03*
D16*
X104495600Y-127457200D03*
D15*
X133985000Y-135191500D03*
D16*
X106045000Y-135191500D03*
D15*
X135763000Y-127508000D03*
D16*
X107823000Y-127508000D03*
D27*
X78333600Y-118211600D03*
D15*
X78333600Y-110711600D03*
D27*
X78181200Y-90754200D03*
D15*
X78181200Y-83254200D03*
D28*
X53000000Y-53000000D03*
X53000000Y-147000000D03*
X147000000Y-53000000D03*
X147000000Y-147000000D03*
D19*
X117576600Y-56352440D03*
D11*
X122576600Y-56352440D03*
D13*
X118630700Y-64452500D03*
D14*
X123710700Y-64452500D03*
D11*
X114046000Y-54356000D03*
D12*
X114046000Y-61976000D03*
D22*
X137668000Y-60452000D03*
D23*
X137668000Y-57912000D03*
D11*
X125730000Y-56388000D03*
D12*
X133350000Y-56388000D03*
D20*
X110490000Y-54102000D03*
D21*
X110490000Y-61722000D03*
D15*
X106781600Y-65773300D03*
D16*
X106781600Y-53073300D03*
D29*
X128016000Y-100167440D03*
X128016000Y-102707440D03*
X128016000Y-105247440D03*
X133804660Y-97901760D03*
X133804660Y-100441760D03*
X133804660Y-102981760D03*
D19*
X100076000Y-61722000D03*
D12*
X92456000Y-61722000D03*
D19*
X92456000Y-64516000D03*
D12*
X100076000Y-64516000D03*
D29*
X99314000Y-95504000D03*
X101854000Y-95504000D03*
X104394000Y-95504000D03*
X89471500Y-88836500D03*
X92011500Y-88836500D03*
X94551500Y-88836500D03*
D11*
X77876400Y-78282800D03*
X82876400Y-78282800D03*
D20*
X86868000Y-102565200D03*
D21*
X86868000Y-94945200D03*
D22*
X137058400Y-145796000D03*
D30*
X134518400Y-145796000D03*
X131978400Y-145796000D03*
D31*
X137058400Y-148336000D03*
X134518400Y-148336000D03*
X131978400Y-148336000D03*
D22*
X100965000Y-145770600D03*
D30*
X98425000Y-145770600D03*
X95885000Y-145770600D03*
D31*
X100965000Y-148310600D03*
X98425000Y-148310600D03*
X95885000Y-148310600D03*
D22*
X118999000Y-145770600D03*
D30*
X116459000Y-145770600D03*
X113919000Y-145770600D03*
D31*
X118999000Y-148310600D03*
X116459000Y-148310600D03*
X113919000Y-148310600D03*
D22*
X83058000Y-145770600D03*
D30*
X80518000Y-145770600D03*
X77978000Y-145770600D03*
D31*
X83058000Y-148310600D03*
X80518000Y-148310600D03*
X77978000Y-148310600D03*
D22*
X64770000Y-145821400D03*
D30*
X62230000Y-145821400D03*
X59690000Y-145821400D03*
D31*
X64770000Y-148361400D03*
X62230000Y-148361400D03*
X59690000Y-148361400D03*
D32*
X86893400Y-81762600D03*
D33*
X86893400Y-84302600D03*
D34*
X134518400Y-145796000D02*
X134518400Y-148336000D01*
X116459000Y-145770600D02*
X116459000Y-148310600D01*
X98425000Y-145770600D02*
X98425000Y-148310600D01*
X80518000Y-145770600D02*
X80518000Y-148310600D01*
X62230000Y-145821400D02*
X62230000Y-148361400D01*
D35*
X125708400Y-80060800D02*
X125708400Y-67788800D01*
X126796800Y-57454800D02*
X125730000Y-56388000D01*
X126796800Y-66700400D02*
X126796800Y-57454800D01*
X125708400Y-67788800D02*
X126796800Y-66700400D01*
X116332000Y-86868000D02*
X116459000Y-86868000D01*
X116459000Y-86868000D02*
X117475000Y-85852000D01*
X123888500Y-85852000D02*
X127063500Y-89027000D01*
X117475000Y-85852000D02*
X123888500Y-85852000D01*
X106095800Y-53759100D02*
X102831900Y-53759100D01*
X71170800Y-56083200D02*
X68351400Y-58902600D01*
X74917300Y-56083200D02*
X71170800Y-56083200D01*
X80403700Y-50596800D02*
X74917300Y-56083200D01*
X99669600Y-50596800D02*
X80403700Y-50596800D01*
X102831900Y-53759100D02*
X99669600Y-50596800D01*
X106095800Y-53759100D02*
X106781600Y-53073300D01*
X116332000Y-86868000D02*
X116332000Y-87122000D01*
X78181200Y-83254200D02*
X85401800Y-83254200D01*
X85401800Y-83254200D02*
X86893400Y-81762600D01*
X78181200Y-83254200D02*
X78181200Y-78587600D01*
X78181200Y-78587600D02*
X77876400Y-78282800D01*
X87249000Y-96957500D02*
X87249000Y-96901000D01*
X87249000Y-96901000D02*
X87249000Y-96957500D01*
X78143100Y-96957500D02*
X87249000Y-96957500D01*
X87249000Y-96957500D02*
X104972500Y-96957500D01*
X104972500Y-96957500D02*
X108204000Y-93726000D01*
D36*
X90678000Y-111760000D02*
X79382000Y-111760000D01*
X79382000Y-111760000D02*
X78333600Y-110711600D01*
D35*
X89662000Y-61468000D02*
X92202000Y-61468000D01*
X92202000Y-61468000D02*
X92456000Y-61722000D01*
X101600000Y-54610000D02*
X101600000Y-55118000D01*
X94996000Y-61722000D02*
X92456000Y-61722000D01*
X101600000Y-55118000D02*
X94996000Y-61722000D01*
X118110000Y-60695840D02*
X115326160Y-60695840D01*
X115326160Y-60695840D02*
X114046000Y-61976000D01*
X110490000Y-61722000D02*
X113792000Y-61722000D01*
X113792000Y-61722000D02*
X114046000Y-61976000D01*
X73482200Y-60794900D02*
X73482200Y-59613800D01*
X110490000Y-57404000D02*
X110490000Y-61722000D01*
X108458000Y-55372000D02*
X110490000Y-57404000D01*
X102362000Y-55372000D02*
X108458000Y-55372000D01*
X98806000Y-51816000D02*
X101600000Y-54610000D01*
X101600000Y-54610000D02*
X102362000Y-55372000D01*
X81280000Y-51816000D02*
X98806000Y-51816000D01*
X73482200Y-59613800D02*
X81280000Y-51816000D01*
X73482200Y-60794900D02*
X73571100Y-60794900D01*
X133804660Y-102981760D02*
X133804660Y-103601520D01*
X133804660Y-103601520D02*
X132158740Y-105247440D01*
X132158740Y-105247440D02*
X128016000Y-105247440D01*
X107937300Y-93992700D02*
X108204000Y-93726000D01*
X110779560Y-61432440D02*
X110490000Y-61722000D01*
X137668000Y-60452000D02*
X137668000Y-63614300D01*
X134734300Y-66548000D02*
X131076700Y-66548000D01*
X137668000Y-63614300D02*
X134734300Y-66548000D01*
X117856000Y-60695840D02*
X118110000Y-60695840D01*
X137424160Y-60695840D02*
X137668000Y-60452000D01*
X122576600Y-56352440D02*
X122576600Y-56112400D01*
X122576600Y-56112400D02*
X124460000Y-54229000D01*
X124460000Y-54229000D02*
X137541000Y-54229000D01*
X137668000Y-60452000D02*
X136017000Y-60452000D01*
X135255000Y-55880000D02*
X136906000Y-54229000D01*
X135255000Y-59690000D02*
X135255000Y-55880000D01*
X136017000Y-60452000D02*
X135255000Y-59690000D01*
X136906000Y-54229000D02*
X137541000Y-54229000D01*
X122576600Y-56352440D02*
X122576600Y-56282600D01*
X117856000Y-60695840D02*
X118233200Y-60695840D01*
X118233200Y-60695840D02*
X122576600Y-56352440D01*
D36*
X68503800Y-88265000D02*
X69977000Y-88265000D01*
X71577200Y-89865200D02*
X71577200Y-98653600D01*
X69977000Y-88265000D02*
X71577200Y-89865200D01*
X78181200Y-83254200D02*
X69335000Y-83254200D01*
X69335000Y-83254200D02*
X68376800Y-82296000D01*
X71577200Y-110711600D02*
X71577200Y-98653600D01*
X73273300Y-96957500D02*
X78143100Y-96957500D01*
X71577200Y-98653600D02*
X73273300Y-96957500D01*
X78333600Y-110711600D02*
X71577200Y-110711600D01*
X71577200Y-110711600D02*
X68434600Y-110711600D01*
X68434600Y-110711600D02*
X68199000Y-110947200D01*
X78143100Y-96957500D02*
X78923500Y-96957500D01*
D37*
X68503800Y-82423000D02*
X68376800Y-82296000D01*
X68351400Y-76352400D02*
X69448680Y-76352400D01*
X69448680Y-76352400D02*
X71744840Y-74056240D01*
X71744840Y-62532260D02*
X73482200Y-60794900D01*
X71744840Y-74056240D02*
X71744840Y-62532260D01*
D36*
X68173600Y-116916200D02*
X68173600Y-122859800D01*
X68199000Y-110947200D02*
X68199000Y-116890800D01*
X68199000Y-116890800D02*
X68173600Y-116916200D01*
X68376800Y-82296000D02*
X68376800Y-88138000D01*
X68376800Y-88138000D02*
X68503800Y-88265000D01*
X68351400Y-76352400D02*
X68351400Y-83235800D01*
D35*
X89855040Y-61528960D02*
X89916000Y-61468000D01*
D37*
X86347300Y-53479700D02*
X89192100Y-53479700D01*
X89192100Y-53479700D02*
X90246200Y-54533800D01*
D35*
X82042000Y-61468000D02*
X86106000Y-61468000D01*
X93040200Y-54533800D02*
X95246200Y-54533800D01*
X86106000Y-61468000D02*
X93040200Y-54533800D01*
X89855040Y-64373760D02*
X86471760Y-64373760D01*
X83566000Y-61468000D02*
X82042000Y-61468000D01*
X86471760Y-64373760D02*
X83566000Y-61468000D01*
X78482200Y-60794900D02*
X78656180Y-60794900D01*
X78656180Y-60794900D02*
X82235040Y-64373760D01*
D37*
X78482200Y-60794900D02*
X78079600Y-60794900D01*
X78079600Y-60794900D02*
X74244200Y-64630300D01*
X74244200Y-64630300D02*
X74244200Y-67894200D01*
D35*
X105664000Y-91440000D02*
X105664000Y-90170000D01*
X105664000Y-90170000D02*
X108712000Y-87122000D01*
X108712000Y-87122000D02*
X108712000Y-86868000D01*
X123190000Y-76835000D02*
X123977400Y-76835000D01*
X108712000Y-86868000D02*
X108712000Y-86741000D01*
X108712000Y-86741000D02*
X110998000Y-84836000D01*
X127635000Y-82931000D02*
X129540000Y-84836000D01*
X121285000Y-82931000D02*
X127635000Y-82931000D01*
X119761000Y-84836000D02*
X121285000Y-82931000D01*
X110998000Y-84836000D02*
X119761000Y-84836000D01*
X129540000Y-84836000D02*
X129540000Y-85344000D01*
D36*
X144373600Y-128117600D02*
X144373600Y-120751600D01*
X144373600Y-120751600D02*
X139700000Y-116078000D01*
X139700000Y-116078000D02*
X122936000Y-116078000D01*
X122936000Y-116078000D02*
X118618000Y-111760000D01*
D35*
X118618000Y-111760000D02*
X117475000Y-111760000D01*
X137160000Y-84836000D02*
X137160000Y-85090000D01*
X137160000Y-85090000D02*
X136652000Y-85598000D01*
X107823000Y-127508000D02*
X107823000Y-114173000D01*
X107823000Y-114173000D02*
X124104400Y-99949000D01*
X133804660Y-97901760D02*
X136354820Y-97901760D01*
X136354820Y-97901760D02*
X136448800Y-97807780D01*
X136448800Y-109971840D02*
X136448800Y-97807780D01*
X136448800Y-97807780D02*
X136321800Y-91516200D01*
X136321800Y-91516200D02*
X136652000Y-91186000D01*
D36*
X104495600Y-127457200D02*
X107772200Y-127457200D01*
X107772200Y-127457200D02*
X107823000Y-127508000D01*
X103047800Y-135178800D02*
X106032300Y-135178800D01*
X106032300Y-135178800D02*
X106045000Y-135191500D01*
X106045000Y-135191500D02*
X106045000Y-129286000D01*
X106045000Y-129286000D02*
X107823000Y-127508000D01*
X144373600Y-133197600D02*
X140462000Y-133096000D01*
X113817400Y-121513600D02*
X107823000Y-127508000D01*
X137515600Y-121513600D02*
X113817400Y-121513600D01*
X139852400Y-123850400D02*
X137515600Y-121513600D01*
X139852400Y-132486400D02*
X139852400Y-123850400D01*
X140462000Y-133096000D02*
X139852400Y-132486400D01*
D35*
X136448800Y-109971840D02*
X135432800Y-109971840D01*
X122936000Y-79455000D02*
X122348000Y-79455000D01*
X122348000Y-79455000D02*
X120650000Y-81153000D01*
X115697000Y-81153000D02*
X113792000Y-79248000D01*
X120650000Y-81153000D02*
X115697000Y-81153000D01*
X90302080Y-79039720D02*
X92918280Y-79039720D01*
X95250000Y-76708000D02*
X95250000Y-72964040D01*
X92918280Y-79039720D02*
X95250000Y-76708000D01*
X85801200Y-71069200D02*
X85801200Y-71120000D01*
X85801200Y-71120000D02*
X87645240Y-72964040D01*
X87645240Y-72964040D02*
X90250000Y-72964040D01*
X90250000Y-72964040D02*
X90250000Y-71294000D01*
X92710000Y-68834000D02*
X96520000Y-68834000D01*
X90250000Y-71294000D02*
X92710000Y-68834000D01*
X90250000Y-76447640D02*
X90302080Y-76499720D01*
D34*
X137058400Y-145796000D02*
X137058400Y-148336000D01*
D37*
X120015000Y-90297000D02*
X122682000Y-90297000D01*
X141147000Y-146000000D02*
X137058400Y-145796000D01*
X148780500Y-138366500D02*
X141147000Y-146000000D01*
X148780500Y-92583000D02*
X148780500Y-138366500D01*
X145605500Y-89408000D02*
X148780500Y-92583000D01*
X129794000Y-89408000D02*
X145605500Y-89408000D01*
X127190500Y-92011500D02*
X129794000Y-89408000D01*
X124396500Y-92011500D02*
X127190500Y-92011500D01*
X122682000Y-90297000D02*
X124396500Y-92011500D01*
D35*
X117922040Y-75176380D02*
X118033800Y-74752200D01*
X116179600Y-79095600D02*
X116179600Y-78841600D01*
D37*
X53111400Y-58902600D02*
X53136800Y-58902600D01*
X53136800Y-58902600D02*
X61857411Y-55569708D01*
X61857411Y-55569708D02*
X73647300Y-53479700D01*
D36*
X53086000Y-64795400D02*
X53086000Y-58928000D01*
X53086000Y-58928000D02*
X53111400Y-58902600D01*
X53060600Y-70662800D02*
X53060600Y-64820800D01*
X53060600Y-64820800D02*
X53086000Y-64795400D01*
X53111400Y-76352400D02*
X53111400Y-70713600D01*
X53111400Y-70713600D02*
X53060600Y-70662800D01*
X53136800Y-82296000D02*
X53136800Y-76377800D01*
X53136800Y-76377800D02*
X53111400Y-76352400D01*
X53263800Y-88265000D02*
X53263800Y-82423000D01*
X53263800Y-82423000D02*
X53136800Y-82296000D01*
X65455800Y-94742000D02*
X59740800Y-94742000D01*
X59740800Y-94742000D02*
X53263800Y-88265000D01*
D35*
X105664000Y-88138000D02*
X105473500Y-88138000D01*
X105473500Y-88138000D02*
X103632000Y-89979500D01*
X94869000Y-89979500D02*
X91630500Y-93218000D01*
X103632000Y-89979500D02*
X94869000Y-89979500D01*
X92011500Y-88836500D02*
X92011500Y-84950300D01*
X92011500Y-84950300D02*
X97922080Y-79039720D01*
X91630500Y-93218000D02*
X91630500Y-89217500D01*
X91630500Y-89217500D02*
X92011500Y-88836500D01*
X105664000Y-88138000D02*
X105283000Y-88138000D01*
X105664000Y-88138000D02*
X105664000Y-86995000D01*
X120904000Y-81915000D02*
X142938500Y-81915000D01*
X119507000Y-83312000D02*
X120904000Y-81915000D01*
X109347000Y-83312000D02*
X119507000Y-83312000D01*
X105664000Y-86995000D02*
X109347000Y-83312000D01*
X112509300Y-71437500D02*
X112509300Y-71640700D01*
X110744000Y-78740000D02*
X111252000Y-79248000D01*
X112509300Y-71437500D02*
X112509300Y-71361300D01*
X112509300Y-71361300D02*
X109982000Y-68834000D01*
X109982000Y-68834000D02*
X104140000Y-68834000D01*
X111252000Y-79248000D02*
X111150400Y-79248000D01*
X119761000Y-87249000D02*
X119761000Y-87503000D01*
X119761000Y-87503000D02*
X117856000Y-89408000D01*
X117856000Y-89408000D02*
X117856000Y-90678000D01*
X117856000Y-90678000D02*
X118745000Y-91567000D01*
X118745000Y-91567000D02*
X118745000Y-95123000D01*
X126174500Y-95758000D02*
X127063500Y-96647000D01*
X119380000Y-95758000D02*
X126174500Y-95758000D01*
X118745000Y-95123000D02*
X119380000Y-95758000D01*
X85801200Y-78689200D02*
X85801200Y-76758800D01*
X85801200Y-76758800D02*
X81280000Y-72237600D01*
X73914000Y-76301600D02*
X73914000Y-74777600D01*
X76454000Y-72237600D02*
X81280000Y-72237600D01*
X73914000Y-74777600D02*
X76454000Y-72237600D01*
X142938500Y-86915000D02*
X142261600Y-86915000D01*
X143167100Y-87368400D02*
X143167100Y-87426800D01*
D34*
X131978400Y-145796000D02*
X131978400Y-148336000D01*
X118999000Y-145770600D02*
X118999000Y-148310600D01*
X100965000Y-145770600D02*
X100965000Y-148310600D01*
X83058000Y-145770600D02*
X83058000Y-148310600D01*
X64770000Y-145821400D02*
X64770000Y-148361400D01*
D37*
X123748800Y-109971840D02*
X123748800Y-110670340D01*
D34*
X131978400Y-145796000D02*
X131978400Y-145879000D01*
D36*
X52959000Y-110947200D02*
X52959000Y-110185200D01*
X52959000Y-110185200D02*
X58242200Y-104902000D01*
X58242200Y-104902000D02*
X65455800Y-104902000D01*
X52933600Y-116916200D02*
X52933600Y-110972600D01*
X52933600Y-110972600D02*
X52959000Y-110947200D01*
X52933600Y-116916200D02*
X52933600Y-122859800D01*
X52882800Y-128905000D02*
X52882800Y-122910600D01*
X52882800Y-122910600D02*
X52933600Y-122859800D01*
X52806600Y-134848600D02*
X52806600Y-128981200D01*
X52806600Y-128981200D02*
X52882800Y-128905000D01*
X52806600Y-140817600D02*
X52806600Y-134848600D01*
D34*
X95885000Y-145770600D02*
X95885000Y-148310600D01*
X135763000Y-127889000D02*
X126873000Y-137604500D01*
X95920000Y-143665500D02*
X95885000Y-145770600D01*
X97282000Y-142303500D02*
X95920000Y-143665500D01*
X109728000Y-142303500D02*
X97282000Y-142303500D01*
X114427000Y-137604500D02*
X109728000Y-142303500D01*
X126873000Y-137604500D02*
X114427000Y-137604500D01*
X135763000Y-127508000D02*
X135763000Y-127889000D01*
X113919000Y-145770600D02*
X113919000Y-148310600D01*
X113919000Y-145770600D02*
X113920000Y-143001000D01*
X129413000Y-140716000D02*
X133985000Y-135191500D01*
X116205000Y-140716000D02*
X129413000Y-140716000D01*
X113920000Y-143001000D02*
X116205000Y-140716000D01*
X77978000Y-145770600D02*
X77978000Y-148310600D01*
X76555600Y-127457200D02*
X77546200Y-127457200D01*
X77546200Y-127457200D02*
X79438500Y-129349500D01*
X79438500Y-129349500D02*
X79438500Y-140779500D01*
X79438500Y-140779500D02*
X77920000Y-142298000D01*
X77920000Y-142298000D02*
X77978000Y-145770600D01*
X59690000Y-145821400D02*
X59690000Y-148361400D01*
X75107800Y-135521700D02*
X72771000Y-137858500D01*
X59920000Y-141565500D02*
X59690000Y-145821400D01*
X63627000Y-137858500D02*
X59920000Y-141565500D01*
X72771000Y-137858500D02*
X63627000Y-137858500D01*
X75107800Y-135178800D02*
X75107800Y-135521700D01*
D35*
X128016000Y-100167440D02*
X127726440Y-100167440D01*
X127726440Y-100167440D02*
X124460000Y-96901000D01*
X124460000Y-96901000D02*
X118745000Y-96901000D01*
X118745000Y-96901000D02*
X117602000Y-95758000D01*
X117602000Y-95758000D02*
X117602000Y-91948000D01*
X117602000Y-91948000D02*
X115824000Y-90170000D01*
X113756440Y-54645560D02*
X114046000Y-54356000D01*
X110159800Y-54432200D02*
X110490000Y-54102000D01*
X114046000Y-54356000D02*
X113548160Y-54356000D01*
X114046000Y-54356000D02*
X114274600Y-54356000D01*
X114274600Y-54356000D02*
X117576600Y-56352440D01*
X100076000Y-64516000D02*
X100076000Y-61722000D01*
X86893400Y-84302600D02*
X90119200Y-84302600D01*
X90119200Y-84302600D02*
X90302080Y-84119720D01*
X90302080Y-84119720D02*
X90886280Y-84119720D01*
X90886280Y-84119720D02*
X96316800Y-78689200D01*
X117297200Y-77165200D02*
X119761000Y-79629000D01*
X107365800Y-77165200D02*
X117297200Y-77165200D01*
X106222800Y-76022200D02*
X107365800Y-77165200D01*
X100888800Y-76022200D02*
X106222800Y-76022200D01*
X99618800Y-74752200D02*
X100888800Y-76022200D01*
X97434400Y-74752200D02*
X99618800Y-74752200D01*
X96316800Y-75869800D02*
X97434400Y-74752200D01*
X96316800Y-78689200D02*
X96316800Y-75869800D01*
X90302080Y-84119720D02*
X91064080Y-84119720D01*
X119761000Y-79629000D02*
X119761000Y-78994000D01*
X86944200Y-67894200D02*
X86944200Y-68148200D01*
X86944200Y-67894200D02*
X88646000Y-67894200D01*
X88646000Y-67894200D02*
X89585800Y-67894200D01*
X89585800Y-67894200D02*
X92456000Y-64516000D01*
X90302080Y-84119720D02*
X90952320Y-84119720D01*
X90302080Y-84119720D02*
X90302080Y-84206080D01*
X94551500Y-88836500D02*
X94551500Y-87820500D01*
X103441500Y-86550500D02*
X104902000Y-85090000D01*
X95821500Y-86550500D02*
X103441500Y-86550500D01*
X94551500Y-87820500D02*
X95821500Y-86550500D01*
X97922080Y-76499720D02*
X97922080Y-76586080D01*
X97922080Y-76499720D02*
X97998280Y-76499720D01*
M02*
