G04 #@! TF.FileFunction,Soldermask,Bot*
%FSLAX46Y46*%
G04 Gerber Fmt 4.6, Leading zero omitted, Abs format (unit mm)*
G04 Created by KiCad (PCBNEW 4.0.7) date 07/13/19 15:17:35*
%MOMM*%
%LPD*%
G01*
G04 APERTURE LIST*
%ADD10C,0.100000*%
%ADD11R,2.400000X3.000000*%
%ADD12O,2.400000X3.000000*%
%ADD13C,2.000000*%
%ADD14O,2.000000X2.000000*%
%ADD15C,1.840000*%
%ADD16C,2.800000*%
%ADD17O,2.800000X2.800000*%
%ADD18R,3.000000X3.000000*%
%ADD19O,3.000000X3.000000*%
%ADD20R,2.000000X2.000000*%
%ADD21R,2.600000X2.600000*%
%ADD22O,2.600000X2.600000*%
%ADD23R,2.200000X2.200000*%
%ADD24C,2.200000*%
%ADD25R,3.400000X3.400000*%
%ADD26C,3.400000*%
%ADD27C,1.400000*%
%ADD28R,1.400000X1.400000*%
%ADD29C,2.900000*%
%ADD30R,2.800000X2.800000*%
%ADD31C,4.464000*%
%ADD32O,2.200000X2.200000*%
%ADD33R,2.100000X2.100000*%
%ADD34O,2.100000X2.100000*%
%ADD35R,3.000000X2.400000*%
%ADD36O,3.000000X2.400000*%
G04 APERTURE END LIST*
D10*
D11*
X142544800Y-64008000D03*
D12*
X145084800Y-64008000D03*
X147624800Y-64008000D03*
D13*
X127330200Y-66789300D03*
D14*
X127330200Y-74409300D03*
D13*
X130733800Y-81950560D03*
D14*
X138353800Y-81950560D03*
D15*
X99314000Y-95504000D03*
X101854000Y-95504000D03*
X104394000Y-95504000D03*
D13*
X107635040Y-100203000D03*
D14*
X115255040Y-100203000D03*
D13*
X132448300Y-89598500D03*
X127448300Y-89598500D03*
X119761000Y-79629000D03*
D14*
X119761000Y-87249000D03*
D16*
X75107800Y-135178800D03*
D17*
X103047800Y-135178800D03*
D13*
X134734300Y-89662000D03*
X139734300Y-89662000D03*
X122936000Y-84455000D03*
X122936000Y-79455000D03*
X94691200Y-73314560D03*
X89691200Y-73314560D03*
X113268760Y-76024740D03*
X108268760Y-76024740D03*
D18*
X68300600Y-70662800D03*
D19*
X53060600Y-70662800D03*
D18*
X68122800Y-128905000D03*
D19*
X52882800Y-128905000D03*
D18*
X53111400Y-76352400D03*
D19*
X68351400Y-76352400D03*
D18*
X52933600Y-122859800D03*
D19*
X68173600Y-122859800D03*
D20*
X88582500Y-61341000D03*
D14*
X80962500Y-61341000D03*
D20*
X88544400Y-64274700D03*
D14*
X80924400Y-64274700D03*
D21*
X91630500Y-93218000D03*
D22*
X91630500Y-100838000D03*
D20*
X96979740Y-72280780D03*
D14*
X104599740Y-72280780D03*
D21*
X138544300Y-95059500D03*
D22*
X130924300Y-95059500D03*
D23*
X137520680Y-53812440D03*
D24*
X137520680Y-51272440D03*
D25*
X65455800Y-104902000D03*
D26*
X65455800Y-99822000D03*
X65455800Y-94742000D03*
D25*
X144373600Y-128117600D03*
D26*
X144373600Y-133197600D03*
D27*
X118745000Y-91567000D03*
X120015000Y-90297000D03*
D28*
X120015000Y-92837000D03*
D27*
X73914000Y-76301600D03*
X75184000Y-77571600D03*
D28*
X72644000Y-77571600D03*
D13*
X87439500Y-122618500D03*
D14*
X87439500Y-114998500D03*
D16*
X69303900Y-53492400D03*
D17*
X82003900Y-53492400D03*
D16*
X86944200Y-67894200D03*
D17*
X74244200Y-67894200D03*
D13*
X95186500Y-100965000D03*
D14*
X95186500Y-93345000D03*
D13*
X98044000Y-88138000D03*
D14*
X105664000Y-88138000D03*
D13*
X98044000Y-91440000D03*
D14*
X105664000Y-91440000D03*
D16*
X91211400Y-115128040D03*
D17*
X119151400Y-115128040D03*
D13*
X126751080Y-85953600D03*
D14*
X134371080Y-85953600D03*
D13*
X108242100Y-72809100D03*
D14*
X115862100Y-72809100D03*
D13*
X106619040Y-105780840D03*
D14*
X114239040Y-105780840D03*
D13*
X124548900Y-105702100D03*
D14*
X116928900Y-105702100D03*
D13*
X126187200Y-102527100D03*
D14*
X126187200Y-94907100D03*
D16*
X123748800Y-109971840D03*
D17*
X136448800Y-109971840D03*
D13*
X141046200Y-58254900D03*
D14*
X148666200Y-58254900D03*
D13*
X104902000Y-85090000D03*
D14*
X104902000Y-77470000D03*
D13*
X73660000Y-72237600D03*
D14*
X81280000Y-72237600D03*
D13*
X85801200Y-78689200D03*
D14*
X85801200Y-71069200D03*
D13*
X101600000Y-85090000D03*
D14*
X101600000Y-77470000D03*
D13*
X125730000Y-52578000D03*
D14*
X133350000Y-52578000D03*
D29*
X142290800Y-94662000D03*
X142290800Y-99662000D03*
X142290800Y-89662000D03*
X142544800Y-76297800D03*
X142544800Y-81297800D03*
X142544800Y-71297800D03*
D20*
X90302080Y-76499720D03*
D14*
X97922080Y-84119720D03*
X90302080Y-79039720D03*
X97922080Y-81579720D03*
X90302080Y-81579720D03*
X97922080Y-79039720D03*
X90302080Y-84119720D03*
X97922080Y-76499720D03*
D20*
X116332000Y-79248000D03*
D14*
X108712000Y-86868000D03*
X113792000Y-79248000D03*
X111252000Y-86868000D03*
X111252000Y-79248000D03*
X113792000Y-86868000D03*
X108712000Y-79248000D03*
X116332000Y-86868000D03*
D20*
X85496400Y-54368700D03*
D13*
X90496400Y-54368700D03*
D20*
X72732900Y-60769500D03*
D13*
X77732900Y-60769500D03*
D20*
X138163300Y-101663500D03*
D13*
X133163300Y-101663500D03*
D18*
X68046600Y-140817600D03*
D19*
X52806600Y-140817600D03*
D18*
X52933600Y-116916200D03*
D19*
X68173600Y-116916200D03*
D18*
X68046600Y-134848600D03*
D19*
X52806600Y-134848600D03*
D18*
X52959000Y-110947200D03*
D19*
X68199000Y-110947200D03*
D18*
X68351400Y-58902600D03*
D19*
X53111400Y-58902600D03*
D18*
X53263800Y-88265000D03*
D19*
X68503800Y-88265000D03*
D18*
X68326000Y-64795400D03*
D19*
X53086000Y-64795400D03*
D18*
X53136800Y-82296000D03*
D19*
X68376800Y-82296000D03*
D30*
X78143100Y-104457500D03*
D16*
X78143100Y-96957500D03*
D13*
X109082840Y-97307400D03*
D14*
X109082840Y-89687400D03*
D16*
X76555600Y-127457200D03*
D17*
X104495600Y-127457200D03*
D16*
X133985000Y-135191500D03*
D17*
X106045000Y-135191500D03*
D16*
X135763000Y-127508000D03*
D17*
X107823000Y-127508000D03*
D30*
X78333600Y-118211600D03*
D16*
X78333600Y-110711600D03*
D30*
X78181200Y-90754200D03*
D16*
X78181200Y-83254200D03*
D31*
X53000000Y-53000000D03*
X53000000Y-147000000D03*
X147000000Y-53000000D03*
X147000000Y-147000000D03*
D20*
X119303800Y-58293000D03*
D13*
X119303800Y-53293000D03*
X107599480Y-61244480D03*
D14*
X99979480Y-61244480D03*
D23*
X137464800Y-58841640D03*
D24*
X137464800Y-56301640D03*
D13*
X125740160Y-55697120D03*
D14*
X133360160Y-55697120D03*
D21*
X107680760Y-57698640D03*
D22*
X100060760Y-57698640D03*
D16*
X112826800Y-53975000D03*
D17*
X100126800Y-53975000D03*
D20*
X94300040Y-52390040D03*
D14*
X94300040Y-60010040D03*
D20*
X96951800Y-60071000D03*
D14*
X96951800Y-52451000D03*
D15*
X89471500Y-88836500D03*
X92011500Y-88836500D03*
X94551500Y-88836500D03*
D13*
X77876400Y-78282800D03*
X82876400Y-78282800D03*
D21*
X86868000Y-102565200D03*
D22*
X86868000Y-94945200D03*
D23*
X137058400Y-145796000D03*
D32*
X134518400Y-145796000D03*
X131978400Y-145796000D03*
D23*
X100965000Y-145770600D03*
D32*
X98425000Y-145770600D03*
X95885000Y-145770600D03*
D23*
X118999000Y-145770600D03*
D32*
X116459000Y-145770600D03*
X113919000Y-145770600D03*
D23*
X83058000Y-145770600D03*
D32*
X80518000Y-145770600D03*
X77978000Y-145770600D03*
D23*
X64770000Y-145821400D03*
D32*
X62230000Y-145821400D03*
X59690000Y-145821400D03*
D33*
X86893400Y-81762600D03*
D34*
X86893400Y-84302600D03*
D13*
X112430560Y-89743280D03*
D14*
X112430560Y-97363280D03*
D13*
X115595400Y-89804240D03*
D14*
X115595400Y-97424240D03*
D33*
X119725440Y-76611480D03*
D34*
X119725440Y-74071480D03*
D33*
X93766640Y-105864660D03*
D34*
X96306640Y-105864660D03*
D13*
X137020300Y-61658500D03*
X132020300Y-61658500D03*
D35*
X144576800Y-106934000D03*
D36*
X144576800Y-109474000D03*
X144576800Y-112014000D03*
D11*
X93014800Y-65532000D03*
D12*
X95554800Y-65532000D03*
D33*
X105918000Y-68999100D03*
D34*
X103378000Y-68999100D03*
X100838000Y-68999100D03*
D33*
X105587800Y-65024000D03*
D34*
X103047800Y-65024000D03*
X100507800Y-65024000D03*
D13*
X129809240Y-78623160D03*
D14*
X137429240Y-78623160D03*
D13*
X129336800Y-62077600D03*
D14*
X121716800Y-62077600D03*
D13*
X131368800Y-64516000D03*
D14*
X138988800Y-64516000D03*
D13*
X111785400Y-61760100D03*
D14*
X119405400Y-61760100D03*
D13*
X117652800Y-65532000D03*
D14*
X125272800Y-65532000D03*
D20*
X130416300Y-75590400D03*
D14*
X138036300Y-67970400D03*
X132956300Y-75590400D03*
X135496300Y-67970400D03*
X135496300Y-75590400D03*
X132956300Y-67970400D03*
X138036300Y-75590400D03*
X130416300Y-67970400D03*
D13*
X110286800Y-65278000D03*
X115286800Y-65278000D03*
M02*
