G04 #@! TF.FileFunction,Copper,L2,Bot,Signal*
%FSLAX46Y46*%
G04 Gerber Fmt 4.6, Leading zero omitted, Abs format (unit mm)*
G04 Created by KiCad (PCBNEW 4.0.7) date 09/22/19 19:45:20*
%MOMM*%
%LPD*%
G01*
G04 APERTURE LIST*
%ADD10C,0.100000*%
%ADD11C,1.600000*%
%ADD12O,1.600000X1.600000*%
%ADD13R,3.200000X3.200000*%
%ADD14O,3.200000X3.200000*%
%ADD15C,1.440000*%
%ADD16C,2.400000*%
%ADD17O,2.400000X2.400000*%
%ADD18R,1.600000X1.600000*%
%ADD19R,2.200000X2.200000*%
%ADD20O,2.200000X2.200000*%
%ADD21R,1.800000X1.800000*%
%ADD22C,1.800000*%
%ADD23R,3.000000X3.000000*%
%ADD24C,3.000000*%
%ADD25C,1.000000*%
%ADD26R,1.000000X1.000000*%
%ADD27C,2.500000*%
%ADD28C,5.000000*%
%ADD29O,1.800000X1.800000*%
%ADD30R,1.700000X1.700000*%
%ADD31O,1.700000X1.700000*%
%ADD32R,2.000000X2.600000*%
%ADD33O,2.000000X2.600000*%
%ADD34R,2.400000X2.400000*%
%ADD35C,4.064000*%
%ADD36R,2.600000X2.000000*%
%ADD37O,2.600000X2.000000*%
%ADD38C,0.600000*%
%ADD39C,4.000000*%
%ADD40C,0.500000*%
%ADD41C,2.000000*%
%ADD42C,0.350000*%
%ADD43C,1.000000*%
%ADD44C,0.635000*%
G04 APERTURE END LIST*
D10*
D11*
X107599480Y-61244480D03*
D12*
X99979480Y-61244480D03*
D11*
X129809240Y-78623160D03*
D12*
X137429240Y-78623160D03*
D13*
X57366800Y-123296000D03*
D14*
X57366800Y-110596000D03*
D11*
X128320800Y-61976000D03*
D12*
X120700800Y-61976000D03*
D11*
X116621560Y-76083160D03*
X111621560Y-76083160D03*
X120700800Y-64770000D03*
D12*
X128320800Y-64770000D03*
D11*
X129844800Y-81788000D03*
D12*
X137464800Y-81788000D03*
D15*
X99314000Y-95504000D03*
X101854000Y-95504000D03*
X104394000Y-95504000D03*
D11*
X107635040Y-100203000D03*
D12*
X115255040Y-100203000D03*
D11*
X115290600Y-108940600D03*
X120290600Y-108940600D03*
X119761000Y-79629000D03*
D12*
X119761000Y-87249000D03*
D16*
X75107800Y-135178800D03*
D17*
X103047800Y-135178800D03*
D11*
X130175000Y-89268300D03*
X125175000Y-89268300D03*
X122936000Y-84455000D03*
X122936000Y-79455000D03*
X94691200Y-73314560D03*
X89691200Y-73314560D03*
D18*
X88582500Y-61341000D03*
D12*
X80962500Y-61341000D03*
D18*
X88544400Y-64274700D03*
D12*
X80924400Y-64274700D03*
D19*
X91630500Y-93218000D03*
D20*
X91630500Y-100838000D03*
D18*
X96979740Y-72280780D03*
D12*
X104599740Y-72280780D03*
D19*
X138544300Y-95059500D03*
D20*
X130924300Y-95059500D03*
D21*
X136829800Y-53911500D03*
D22*
X136829800Y-51371500D03*
D23*
X56972200Y-104460040D03*
D24*
X56972200Y-99380040D03*
X56972200Y-94300040D03*
D23*
X141909800Y-118046500D03*
D24*
X141909800Y-123126500D03*
D25*
X118745000Y-91567000D03*
X120015000Y-90297000D03*
D26*
X120015000Y-92837000D03*
D25*
X73914000Y-76301600D03*
X75184000Y-77571600D03*
D26*
X72644000Y-77571600D03*
D11*
X87439500Y-122618500D03*
D12*
X87439500Y-114998500D03*
D16*
X67894200Y-52730400D03*
D17*
X80594200Y-52730400D03*
D16*
X86944200Y-67894200D03*
D17*
X74244200Y-67894200D03*
D11*
X95186500Y-100965000D03*
D12*
X95186500Y-93345000D03*
D11*
X98044000Y-88138000D03*
D12*
X105664000Y-88138000D03*
D11*
X98044000Y-91440000D03*
D12*
X105664000Y-91440000D03*
D16*
X91211400Y-115128040D03*
D17*
X119151400Y-115128040D03*
D11*
X125907800Y-86106000D03*
D12*
X133527800Y-86106000D03*
D11*
X109077760Y-72395080D03*
D12*
X116697760Y-72395080D03*
D11*
X107721400Y-103987600D03*
D12*
X115341400Y-103987600D03*
D11*
X122796300Y-106489500D03*
D12*
X122796300Y-98869500D03*
D11*
X119405400Y-98729800D03*
D12*
X119405400Y-106349800D03*
D16*
X123748800Y-109971840D03*
D17*
X136448800Y-109971840D03*
D11*
X140703300Y-67119500D03*
D12*
X148323300Y-67119500D03*
D11*
X104729280Y-85425280D03*
D12*
X104729280Y-77805280D03*
D11*
X73660000Y-72237600D03*
D12*
X81280000Y-72237600D03*
D11*
X85801200Y-78689200D03*
D12*
X85801200Y-71069200D03*
D11*
X101335840Y-85425280D03*
D12*
X101335840Y-77805280D03*
D11*
X125730000Y-52578000D03*
D12*
X133350000Y-52578000D03*
D27*
X142684500Y-94763600D03*
X142684500Y-99763600D03*
X142684500Y-89763600D03*
X142544800Y-76755000D03*
X142544800Y-81755000D03*
X142544800Y-71755000D03*
D18*
X90302080Y-76499720D03*
D12*
X97922080Y-84119720D03*
X90302080Y-79039720D03*
X97922080Y-81579720D03*
X90302080Y-81579720D03*
X97922080Y-79039720D03*
X90302080Y-84119720D03*
X97922080Y-76499720D03*
D18*
X116332000Y-79248000D03*
D12*
X108712000Y-86868000D03*
X113792000Y-79248000D03*
X111252000Y-86868000D03*
X111252000Y-79248000D03*
X113792000Y-86868000D03*
X108712000Y-79248000D03*
X116332000Y-86868000D03*
D18*
X85496400Y-54368700D03*
D11*
X90496400Y-54368700D03*
D18*
X72732900Y-60769500D03*
D11*
X77732900Y-60769500D03*
D18*
X138163300Y-101663500D03*
D11*
X133163300Y-101663500D03*
X109082840Y-97307400D03*
D12*
X109082840Y-89687400D03*
D16*
X76555600Y-127457200D03*
D17*
X104495600Y-127457200D03*
D16*
X133985000Y-135191500D03*
D17*
X106045000Y-135191500D03*
D16*
X135763000Y-127508000D03*
D17*
X107823000Y-127508000D03*
D28*
X53000000Y-53000000D03*
X53000000Y-147000000D03*
X147000000Y-53000000D03*
X147000000Y-147000000D03*
D18*
X119303800Y-58293000D03*
D11*
X119303800Y-53293000D03*
D21*
X136766300Y-58991500D03*
D22*
X136766300Y-56451500D03*
D11*
X125740160Y-55697120D03*
D12*
X133360160Y-55697120D03*
D19*
X107680760Y-57698640D03*
D20*
X100060760Y-57698640D03*
D16*
X112826800Y-53975000D03*
D17*
X100126800Y-53975000D03*
D18*
X94300040Y-52390040D03*
D12*
X94300040Y-60010040D03*
D18*
X96951800Y-60071000D03*
D12*
X96951800Y-52451000D03*
D15*
X89471500Y-88836500D03*
X92011500Y-88836500D03*
X94551500Y-88836500D03*
D11*
X83124040Y-77784960D03*
X78124040Y-77784960D03*
D19*
X86868000Y-102565200D03*
D20*
X86868000Y-94945200D03*
D21*
X137058400Y-145796000D03*
D29*
X134518400Y-145796000D03*
X131978400Y-145796000D03*
D30*
X86893400Y-81762600D03*
D31*
X86893400Y-84302600D03*
D11*
X112430560Y-89743280D03*
D12*
X112430560Y-97363280D03*
D11*
X115595400Y-89804240D03*
D12*
X115595400Y-97424240D03*
D30*
X119725440Y-76611480D03*
D31*
X119725440Y-74071480D03*
D30*
X93929200Y-105435400D03*
D31*
X91389200Y-105435400D03*
D11*
X136702800Y-64770000D03*
X131702800Y-64770000D03*
D32*
X93014800Y-65532000D03*
D33*
X95554800Y-65532000D03*
D30*
X105918000Y-68999100D03*
D31*
X103378000Y-68999100D03*
X100838000Y-68999100D03*
D30*
X105587800Y-65024000D03*
D31*
X103047800Y-65024000D03*
X100507800Y-65024000D03*
D11*
X133273800Y-59207400D03*
D12*
X125653800Y-59207400D03*
D11*
X136321800Y-85994240D03*
D12*
X143941800Y-85994240D03*
D11*
X139560300Y-90614500D03*
D12*
X131940300Y-90614500D03*
D18*
X127558800Y-75438000D03*
D12*
X135178800Y-67818000D03*
X130098800Y-75438000D03*
X132638800Y-67818000D03*
X132638800Y-75438000D03*
X130098800Y-67818000D03*
X135178800Y-75438000D03*
X127558800Y-67818000D03*
D11*
X130622040Y-62138560D03*
X135622040Y-62138560D03*
X108463080Y-75300840D03*
X103463080Y-75300840D03*
D13*
X57366800Y-71296000D03*
D14*
X57366800Y-58596000D03*
D13*
X56366800Y-141296000D03*
D14*
X56366800Y-128596000D03*
D13*
X57366800Y-88296000D03*
D14*
X57366800Y-75596000D03*
D34*
X79237840Y-90246200D03*
D16*
X71737840Y-90246200D03*
D34*
X79532480Y-110871000D03*
D16*
X72032480Y-110871000D03*
D35*
X70241160Y-132379720D03*
X67558920Y-62250320D03*
X70129400Y-124668280D03*
X67589400Y-68580000D03*
D21*
X100965000Y-145770600D03*
D29*
X98425000Y-145770600D03*
X95885000Y-145770600D03*
D21*
X118999000Y-145770600D03*
D29*
X116459000Y-145770600D03*
X113919000Y-145770600D03*
D21*
X83058000Y-145770600D03*
D29*
X80518000Y-145770600D03*
X77978000Y-145770600D03*
D21*
X64770000Y-145821400D03*
D29*
X62230000Y-145821400D03*
X59690000Y-145821400D03*
D16*
X147497800Y-141033500D03*
D17*
X147497800Y-128333500D03*
D11*
X118478300Y-61976000D03*
D12*
X110858300Y-61976000D03*
D32*
X140957300Y-60515500D03*
D33*
X143497300Y-60515500D03*
X146037300Y-60515500D03*
X148577300Y-60515500D03*
D36*
X144322800Y-104902000D03*
D37*
X144322800Y-107442000D03*
X144322800Y-109982000D03*
X144322800Y-112522000D03*
D38*
X128320800Y-72390000D03*
X129336800Y-71120000D03*
X130098800Y-69850000D03*
X107411520Y-85755480D03*
X107543600Y-85049360D03*
X112237520Y-82453480D03*
X110337600Y-83596480D03*
X108996480Y-83682840D03*
X124764800Y-61976000D03*
X124764800Y-63500000D03*
X124764800Y-64770000D03*
X124510800Y-66294000D03*
X108625640Y-108966000D03*
X105044240Y-109042200D03*
X102529640Y-110606840D03*
X99974400Y-112318800D03*
X96926400Y-113157000D03*
X105531920Y-89799160D03*
X106593640Y-89743280D03*
X107320080Y-90134440D03*
X111252000Y-73050400D03*
X112552480Y-72847200D03*
X113751360Y-72562720D03*
X114848640Y-72217280D03*
X73228200Y-51435000D03*
X70789800Y-51399440D03*
X71287640Y-52501800D03*
X71551800Y-53533040D03*
X117403880Y-97485200D03*
D39*
X70129400Y-124668280D02*
X70129400Y-123383040D01*
X70129400Y-123383040D02*
X73482200Y-120030240D01*
X73482200Y-120030240D02*
X79532480Y-120030240D01*
X67589400Y-68580000D02*
X65476120Y-68580000D01*
X65476120Y-68580000D02*
X62529720Y-71526400D01*
D40*
X86868000Y-102565200D02*
X81721960Y-102565200D01*
X81721960Y-102565200D02*
X79237840Y-100081080D01*
X87439500Y-122618500D02*
X87114380Y-122618500D01*
X87114380Y-122618500D02*
X84129880Y-125603000D01*
D39*
X79532480Y-110871000D02*
X79532480Y-120030240D01*
X79532480Y-120030240D02*
X79532480Y-121005600D01*
X84129880Y-125603000D02*
X84129880Y-140817600D01*
X79532480Y-121005600D02*
X84129880Y-125603000D01*
X79237840Y-90246200D02*
X79237840Y-100081080D01*
X79237840Y-100081080D02*
X79237840Y-110576360D01*
X79237840Y-110576360D02*
X79532480Y-110871000D01*
X57366800Y-71296000D02*
X62529720Y-71526400D01*
X79237840Y-87396320D02*
X79237840Y-90246200D01*
X76779120Y-84937600D02*
X79237840Y-87396320D01*
X70073520Y-84937600D02*
X76779120Y-84937600D01*
X68844160Y-83708240D02*
X70073520Y-84937600D01*
X68844160Y-77840840D02*
X68844160Y-83708240D01*
X62529720Y-71526400D02*
X68844160Y-77840840D01*
X56366800Y-141296000D02*
X67767200Y-141097000D01*
X67767200Y-141097000D02*
X68046600Y-140817600D01*
D40*
X119405400Y-106349800D02*
X117911880Y-106349800D01*
X95443040Y-106949240D02*
X93929200Y-105435400D01*
X117312440Y-106949240D02*
X95443040Y-106949240D01*
X117911880Y-106349800D02*
X117312440Y-106949240D01*
X86868000Y-102565200D02*
X86868000Y-105689400D01*
X86868000Y-105689400D02*
X88925400Y-107746800D01*
X88925400Y-107746800D02*
X91617800Y-107746800D01*
X91617800Y-107746800D02*
X93929200Y-105435400D01*
X125740160Y-55697120D02*
X125740160Y-55646320D01*
X125740160Y-55646320D02*
X124256800Y-54864000D01*
X100126800Y-51943000D02*
X100126800Y-53975000D01*
X100698300Y-51371500D02*
X100126800Y-51943000D01*
X123812300Y-51371500D02*
X100698300Y-51371500D01*
X124256800Y-51816000D02*
X123812300Y-51371500D01*
X124256800Y-54864000D02*
X124256800Y-51816000D01*
X100126800Y-53975000D02*
X100190300Y-53975000D01*
X86868000Y-102565200D02*
X86868000Y-103380540D01*
D39*
X68046600Y-140817600D02*
X77762100Y-140817600D01*
D41*
X80518000Y-145770600D02*
X80460000Y-143515500D01*
D39*
X77762100Y-140817600D02*
X84129880Y-140817600D01*
X84129880Y-140817600D02*
X95491300Y-140817600D01*
D41*
X80460000Y-143515500D02*
X77762100Y-140817600D01*
X134518400Y-145796000D02*
X134460000Y-144048500D01*
X134460000Y-144048500D02*
X131229100Y-140817600D01*
D39*
X113830100Y-140817600D02*
X131229100Y-140817600D01*
X132562600Y-140817600D02*
X132842000Y-141097000D01*
X131229100Y-140817600D02*
X132562600Y-140817600D01*
D41*
X98425000Y-145770600D02*
X98460000Y-143786300D01*
D39*
X95491300Y-140817600D02*
X113830100Y-140817600D01*
D41*
X116460000Y-143447500D02*
X113830100Y-140817600D01*
X116459000Y-145770600D02*
X116460000Y-143447500D01*
X98460000Y-143786300D02*
X95491300Y-140817600D01*
X62230000Y-145821400D02*
X62460000Y-142645000D01*
X62460000Y-142645000D02*
X64287400Y-140817600D01*
X64287400Y-140817600D02*
X68046600Y-140817600D01*
D40*
X99979480Y-61244480D02*
X100185220Y-61244480D01*
D42*
X129590800Y-70612000D02*
X129336800Y-71120000D01*
X130098800Y-69850000D02*
X129590800Y-70612000D01*
D40*
X107243880Y-85923120D02*
X107411520Y-85755480D01*
X107320080Y-90134440D02*
X107243880Y-85923120D01*
X109082840Y-83596480D02*
X110337600Y-83596480D01*
X108996480Y-83682840D02*
X109082840Y-83596480D01*
X124764800Y-63500000D02*
X124764800Y-61976000D01*
X124764800Y-66040000D02*
X124764800Y-64770000D01*
X124510800Y-66294000D02*
X124764800Y-66040000D01*
X104094280Y-109042200D02*
X105044240Y-109042200D01*
X102529640Y-110606840D02*
X104094280Y-109042200D01*
X97764600Y-112318800D02*
X99974400Y-112318800D01*
X96926400Y-113157000D02*
X97764600Y-112318800D01*
X106928920Y-89743280D02*
X106593640Y-89743280D01*
X107320080Y-90134440D02*
X106928920Y-89743280D01*
X108463080Y-75300840D02*
X109001560Y-75300840D01*
X109001560Y-75300840D02*
X111252000Y-73050400D01*
X112552480Y-72847200D02*
X112836960Y-72562720D01*
X112836960Y-72562720D02*
X113751360Y-72562720D01*
X72732900Y-60769500D02*
X72732900Y-54714140D01*
X70789800Y-52003960D02*
X70789800Y-51399440D01*
X71287640Y-52501800D02*
X70789800Y-52003960D01*
X72732900Y-54714140D02*
X71551800Y-53533040D01*
X108712000Y-79248000D02*
X108712000Y-79375000D01*
X120015000Y-93253560D02*
X117403880Y-95864680D01*
X117403880Y-95864680D02*
X117403880Y-97485200D01*
X120015000Y-92837000D02*
X120015000Y-93253560D01*
X135178800Y-75438000D02*
X135178800Y-75250040D01*
X94642940Y-60352940D02*
X94300040Y-60010040D01*
X88582500Y-61341000D02*
X89141300Y-61341000D01*
X108574840Y-96799400D02*
X109082840Y-97307400D01*
X108712000Y-79248000D02*
X108585000Y-79248000D01*
X87439500Y-114998500D02*
X91211400Y-115128040D01*
X108712000Y-79248000D02*
X108712000Y-79527400D01*
D43*
X80594200Y-52730400D02*
X83858100Y-52730400D01*
X83858100Y-52730400D02*
X85496400Y-54368700D01*
D40*
X88544400Y-64274700D02*
X88544400Y-64008000D01*
X88544400Y-64008000D02*
X90246200Y-62306200D01*
X90246200Y-62306200D02*
X90246200Y-54618900D01*
X90246200Y-54618900D02*
X90496400Y-54368700D01*
X80962500Y-61341000D02*
X82351880Y-61341000D01*
X85285580Y-64274700D02*
X88544400Y-64274700D01*
X82351880Y-61341000D02*
X85285580Y-64274700D01*
D43*
X74244200Y-64258200D02*
X77732900Y-60769500D01*
X74244200Y-67894200D02*
X74244200Y-64258200D01*
D40*
X144322800Y-107442000D02*
X141986000Y-109474000D01*
X141986000Y-109474000D02*
X139329160Y-112130840D01*
X139329160Y-112130840D02*
X131292600Y-112130840D01*
X131292600Y-112130840D02*
X127025400Y-107863640D01*
X127025400Y-107863640D02*
X122834400Y-107863640D01*
X122834400Y-107863640D02*
X121691400Y-109006640D01*
X121691400Y-109006640D02*
X121691400Y-112588040D01*
X121691400Y-112588040D02*
X119151400Y-115128040D01*
D39*
X119151400Y-115128040D02*
X119496840Y-115128040D01*
X119496840Y-115128040D02*
X121081800Y-116713000D01*
X137909300Y-118237000D02*
X141909800Y-118046500D01*
X135305800Y-116713000D02*
X137909300Y-118237000D01*
X121081800Y-116713000D02*
X135305800Y-116713000D01*
D40*
X105664000Y-91440000D02*
X108092240Y-91440000D01*
X108092240Y-91440000D02*
X112430560Y-95778320D01*
X112430560Y-95778320D02*
X112430560Y-97363280D01*
X130175000Y-89268300D02*
X130594100Y-89268300D01*
X130594100Y-89268300D02*
X131940300Y-90614500D01*
X131940300Y-90614500D02*
X131940300Y-94043500D01*
X131940300Y-94043500D02*
X130924300Y-95059500D01*
X130175000Y-89268300D02*
X130683000Y-89141300D01*
X130924300Y-95059500D02*
X130924300Y-95506540D01*
X130924300Y-95506540D02*
X131064000Y-96659700D01*
X131064000Y-96659700D02*
X133163300Y-101663500D01*
X99314000Y-95504000D02*
X99314000Y-94091760D01*
X103921560Y-93182440D02*
X105664000Y-91440000D01*
X100223320Y-93182440D02*
X103921560Y-93182440D01*
X99314000Y-94091760D02*
X100223320Y-93182440D01*
X95186500Y-93345000D02*
X95186500Y-94180660D01*
X96509840Y-95504000D02*
X99314000Y-95504000D01*
X95186500Y-94180660D02*
X96509840Y-95504000D01*
X130924300Y-95059500D02*
X130924300Y-95377000D01*
X133163300Y-101663500D02*
X133163300Y-102251500D01*
X105664000Y-91440000D02*
X105664000Y-91602560D01*
X133163300Y-101917500D02*
X133286500Y-101917500D01*
X133163300Y-101917500D02*
X133163300Y-101710500D01*
X125175000Y-89268300D02*
X125175000Y-86838800D01*
X125175000Y-86838800D02*
X125907800Y-86106000D01*
X125907800Y-86106000D02*
X126368800Y-86106000D01*
X116697760Y-72395080D02*
X116697760Y-71937880D01*
X116697760Y-71937880D02*
X117627400Y-71358760D01*
X117627400Y-71358760D02*
X120929400Y-71323200D01*
X125780800Y-78994000D02*
X125907800Y-86106000D01*
X124587000Y-77800200D02*
X125780800Y-78994000D01*
X122948700Y-77800200D02*
X124587000Y-77800200D01*
X122301000Y-77152500D02*
X122948700Y-77800200D01*
X122301000Y-72694800D02*
X122301000Y-77152500D01*
X120909080Y-71302880D02*
X120929400Y-71323200D01*
X120929400Y-71323200D02*
X122301000Y-72694800D01*
X125907800Y-86106000D02*
X125907800Y-86144100D01*
D39*
X107823000Y-131318000D02*
X138353800Y-131318000D01*
X141274800Y-128397000D02*
X141147800Y-123888500D01*
X138353800Y-131318000D02*
X141274800Y-128397000D01*
X141147800Y-123888500D02*
X142036800Y-122999500D01*
X107823000Y-127508000D02*
X107823000Y-131318000D01*
X107823000Y-131318000D02*
X107823000Y-133413500D01*
X107823000Y-133413500D02*
X106045000Y-135191500D01*
X103047800Y-135178800D02*
X106032300Y-135178800D01*
X106032300Y-135178800D02*
X106045000Y-135191500D01*
X104495600Y-127457200D02*
X107772200Y-127457200D01*
X107772200Y-127457200D02*
X107823000Y-127508000D01*
D40*
X122796300Y-106489500D02*
X132966460Y-106489500D01*
X132966460Y-106489500D02*
X136448800Y-109971840D01*
X107635040Y-100203000D02*
X108305600Y-100203000D01*
X108305600Y-100203000D02*
X110591600Y-102489000D01*
X110591600Y-102489000D02*
X119964200Y-102489000D01*
X119964200Y-102489000D02*
X122796300Y-105321100D01*
X122796300Y-105321100D02*
X122796300Y-106489500D01*
X136448800Y-109971840D02*
X136448800Y-102323900D01*
X136448800Y-102323900D02*
X138163300Y-101663500D01*
X136652000Y-109768640D02*
X136448800Y-109971840D01*
X136652000Y-109768640D02*
X136448800Y-109971840D01*
X138163300Y-101663500D02*
X138036300Y-95567500D01*
X138036300Y-95567500D02*
X138544300Y-95059500D01*
X136448800Y-109971840D02*
X136499600Y-109971840D01*
X122936000Y-79455000D02*
X123351280Y-79455000D01*
X123351280Y-79455000D02*
X124322840Y-80426560D01*
X124322840Y-86563200D02*
X122796300Y-88089740D01*
X122796300Y-88089740D02*
X122796300Y-98869500D01*
X124322840Y-80426560D02*
X124322840Y-86563200D01*
X122936000Y-79455000D02*
X122936000Y-78958440D01*
X122936000Y-78958440D02*
X121513600Y-77536040D01*
X113160800Y-74543920D02*
X111621560Y-76083160D01*
X116850160Y-74543920D02*
X113160800Y-74543920D01*
X118973600Y-72420480D02*
X116850160Y-74543920D01*
X120451880Y-72420480D02*
X118973600Y-72420480D01*
X121513600Y-73482200D02*
X120451880Y-72420480D01*
X121513600Y-77536040D02*
X121513600Y-73482200D01*
X111621560Y-76083160D02*
X112963960Y-76083160D01*
X113792000Y-76911200D02*
X113792000Y-79248000D01*
X112963960Y-76083160D02*
X113792000Y-76911200D01*
X122936000Y-79455000D02*
X122936000Y-79730600D01*
X115341400Y-103987600D02*
X115824000Y-103987600D01*
X113792000Y-79248000D02*
X113792000Y-78778100D01*
X94691200Y-73314560D02*
X94691200Y-73959720D01*
X94691200Y-73959720D02*
X96621600Y-74980800D01*
X96621600Y-74980800D02*
X98877120Y-75021440D01*
X98877120Y-75021440D02*
X101335840Y-77805280D01*
X94919800Y-73085960D02*
X94691200Y-73314560D01*
X94691200Y-73314560D02*
X94615000Y-73314560D01*
X90302080Y-76499720D02*
X89743280Y-73366640D01*
X89743280Y-73366640D02*
X89691200Y-73314560D01*
X89743280Y-73366640D02*
X89691200Y-73314560D01*
X116332000Y-79248000D02*
X116332000Y-79705200D01*
X116332000Y-79705200D02*
X118097300Y-81470500D01*
X118097300Y-88379300D02*
X120015000Y-90297000D01*
X118097300Y-81470500D02*
X118097300Y-88379300D01*
X116621560Y-76083160D02*
X116621560Y-78958440D01*
X116621560Y-78958440D02*
X116332000Y-79248000D01*
X120015000Y-90297000D02*
X119761000Y-90297000D01*
D39*
X57366800Y-58596000D02*
X57366800Y-58656960D01*
X57366800Y-58656960D02*
X52313840Y-63403480D01*
X52313840Y-84333080D02*
X57366800Y-88296000D01*
X52313840Y-63403480D02*
X52313840Y-84333080D01*
X57366800Y-58596000D02*
X61798200Y-58826400D01*
X61798200Y-58826400D02*
X67894200Y-52730400D01*
X57366800Y-88296000D02*
X56718200Y-94046040D01*
X56718200Y-94046040D02*
X56972200Y-94300040D01*
D40*
X142684500Y-89763600D02*
X145173700Y-89763600D01*
X148577300Y-62738000D02*
X148577300Y-60515500D01*
X146037300Y-65278000D02*
X148577300Y-62738000D01*
X146037300Y-88900000D02*
X146037300Y-65278000D01*
X145173700Y-89763600D02*
X146037300Y-88900000D01*
X92011500Y-88836500D02*
X92011500Y-92837000D01*
X92011500Y-92837000D02*
X91630500Y-93218000D01*
X97922080Y-79039720D02*
X97922080Y-79288640D01*
X97922080Y-79288640D02*
X102204520Y-83571080D01*
X106563160Y-87238840D02*
X105664000Y-88138000D01*
X106563160Y-84490560D02*
X106563160Y-87238840D01*
X105643680Y-83571080D02*
X106563160Y-84490560D01*
X102204520Y-83571080D02*
X105643680Y-83571080D01*
X105410000Y-87884000D02*
X105664000Y-88138000D01*
X91630500Y-100838000D02*
X91630500Y-100584000D01*
X91630500Y-100584000D02*
X93281500Y-98933000D01*
X97922080Y-81579720D02*
X97490280Y-81579720D01*
X97490280Y-81579720D02*
X93281500Y-85788500D01*
X93281500Y-85788500D02*
X93281500Y-98933000D01*
X93281500Y-98933000D02*
X93281500Y-99060000D01*
X93281500Y-99060000D02*
X95186500Y-100965000D01*
X111252000Y-79248000D02*
X111252000Y-78999080D01*
X133350000Y-52578000D02*
X133477000Y-52578000D01*
X133477000Y-52578000D02*
X134366000Y-51689000D01*
X134366000Y-51689000D02*
X136829800Y-51371500D01*
X133858000Y-52070000D02*
X133350000Y-52578000D01*
X136372600Y-51828700D02*
X136829800Y-51371500D01*
X81280000Y-72237600D02*
X82308400Y-72237600D01*
X85801200Y-75730400D02*
X85801200Y-78689200D01*
X82308400Y-72237600D02*
X85801200Y-75730400D01*
X83485929Y-59044732D02*
X84063948Y-59044732D01*
X89214960Y-50906680D02*
X92288360Y-50906680D01*
X87426800Y-52694840D02*
X89214960Y-50906680D01*
X87426800Y-55681880D02*
X87426800Y-52694840D01*
X84063948Y-59044732D02*
X87426800Y-55681880D01*
X81000765Y-59077619D02*
X80566501Y-59077619D01*
X76198510Y-68357910D02*
X76198510Y-68357904D01*
X79435960Y-65120520D02*
X76198510Y-68357910D01*
X79435960Y-60208160D02*
X79435960Y-65120520D01*
X80566501Y-59077619D02*
X79435960Y-60208160D01*
X76276200Y-70053200D02*
X76198510Y-68357904D01*
X76276200Y-70053200D02*
X76276200Y-76479400D01*
X76276200Y-76479400D02*
X75184000Y-77571600D01*
X83485929Y-59044732D02*
X81000765Y-59077619D01*
X92288360Y-50906680D02*
X101333300Y-50596800D01*
X101333300Y-50596800D02*
X125069600Y-50596800D01*
X125730000Y-51257200D02*
X125730000Y-52578000D01*
X125069600Y-50596800D02*
X125730000Y-51257200D01*
X101333300Y-50596800D02*
X101422200Y-50596800D01*
X125730000Y-52578000D02*
X125476000Y-52578000D01*
X75184000Y-77571600D02*
X75387200Y-77571600D01*
X98044000Y-88138000D02*
X98044000Y-91440000D01*
X97922080Y-88016080D02*
X98044000Y-88138000D01*
X133527800Y-86106000D02*
X133527800Y-89623900D01*
X140592800Y-92671900D02*
X142684500Y-94763600D01*
X136575800Y-92671900D02*
X140592800Y-92671900D01*
X133527800Y-89623900D02*
X136575800Y-92671900D01*
X143412200Y-94763600D02*
X142684500Y-94763600D01*
X142684500Y-94763600D02*
X142684500Y-94399100D01*
D43*
X123748800Y-109971840D02*
X123748800Y-111506000D01*
X139242800Y-149098000D02*
X129336800Y-149098000D01*
X140512800Y-147828000D02*
X139242800Y-149098000D01*
X140512800Y-146050000D02*
X140512800Y-147828000D01*
X144576800Y-141986000D02*
X140512800Y-146050000D01*
X144576800Y-125730000D02*
X144576800Y-141986000D01*
X145846800Y-124460000D02*
X144576800Y-125730000D01*
X145846800Y-117094000D02*
X145846800Y-124460000D01*
X143814800Y-115062000D02*
X145846800Y-117094000D01*
X138988800Y-115062000D02*
X143814800Y-115062000D01*
X137718800Y-113792000D02*
X138988800Y-115062000D01*
X126034800Y-113792000D02*
X137718800Y-113792000D01*
X123748800Y-111506000D02*
X126034800Y-113792000D01*
X131978400Y-145796000D02*
X131978400Y-146456400D01*
X131978400Y-146456400D02*
X129336800Y-149098000D01*
X129336800Y-149098000D02*
X117398800Y-149098000D01*
X83058000Y-145770600D02*
X83058000Y-149098000D01*
X83058000Y-149098000D02*
X83108800Y-149098000D01*
X100965000Y-145770600D02*
X100965000Y-149098000D01*
X100965000Y-149098000D02*
X101142800Y-149098000D01*
X64770000Y-145821400D02*
X64770000Y-147015200D01*
X66852800Y-149098000D02*
X83108800Y-149098000D01*
X64770000Y-147015200D02*
X66852800Y-149098000D01*
X83108800Y-149098000D02*
X101142800Y-149098000D01*
X118999000Y-148513800D02*
X118999000Y-145770600D01*
X101142800Y-149098000D02*
X117398800Y-149098000D01*
X117398800Y-149098000D02*
X118414800Y-149098000D01*
X118414800Y-149098000D02*
X118999000Y-148513800D01*
X118999000Y-145770600D02*
X118999000Y-145847000D01*
X100965000Y-145770600D02*
X101235600Y-145770600D01*
X83058000Y-145770600D02*
X83091400Y-145770600D01*
X123748800Y-109971840D02*
X123941840Y-109971840D01*
D40*
X140703300Y-67119500D02*
X141338300Y-67119500D01*
X141338300Y-67119500D02*
X141655800Y-68453000D01*
X141655800Y-68453000D02*
X142544800Y-71755000D01*
X140703300Y-67119500D02*
X141211300Y-67119500D01*
X142544800Y-82677000D02*
X139573000Y-84632800D01*
X139209800Y-84632800D02*
X139573000Y-84632800D01*
X123101100Y-75742800D02*
X123057920Y-72196960D01*
X123377960Y-76969620D02*
X123101100Y-75742800D01*
X124863860Y-76969620D02*
X123377960Y-76969620D01*
X127386080Y-79491840D02*
X124863860Y-76969620D01*
X127386080Y-83530440D02*
X127386080Y-79491840D01*
X121229120Y-70368160D02*
X123057920Y-72196960D01*
X128488440Y-84632800D02*
X127386080Y-83530440D01*
X137607040Y-84632800D02*
X128488440Y-84632800D01*
X137607040Y-84632800D02*
X139209800Y-84632800D01*
X142544800Y-81755000D02*
X142544800Y-82677000D01*
X143065500Y-81767700D02*
X142671800Y-81374000D01*
X106680000Y-71247000D02*
X106680000Y-71208900D01*
X106680000Y-71208900D02*
X107480100Y-70408800D01*
X107480100Y-70408800D02*
X121229120Y-70368160D01*
X105084880Y-77805280D02*
X106680000Y-76047600D01*
X106680000Y-76047600D02*
X106680000Y-71247000D01*
X104729280Y-77805280D02*
X105084880Y-77805280D01*
X121114820Y-70253860D02*
X121229120Y-70368160D01*
X109082840Y-89687400D02*
X109082840Y-90058240D01*
X109082840Y-90058240D02*
X113858040Y-94833440D01*
X113858040Y-98806000D02*
X115255040Y-100203000D01*
X113858040Y-94833440D02*
X113858040Y-98806000D01*
X109082840Y-89687400D02*
X109082840Y-87238840D01*
X109082840Y-87238840D02*
X108712000Y-86868000D01*
X108712000Y-86868000D02*
X108216700Y-86868000D01*
X113792000Y-86868000D02*
X113792000Y-88000840D01*
X113792000Y-88000840D02*
X115595400Y-89804240D01*
X107599480Y-61244480D02*
X107599480Y-61361320D01*
X107599480Y-61361320D02*
X105968800Y-62992000D01*
X98094800Y-62992000D02*
X95554800Y-65532000D01*
X105968800Y-62992000D02*
X98094800Y-62992000D01*
X107680760Y-57698640D02*
X107680760Y-61163200D01*
X107680760Y-61163200D02*
X107599480Y-61244480D01*
X112826800Y-53975000D02*
X114985800Y-53975000D01*
X114985800Y-53975000D02*
X119303800Y-58293000D01*
X107680760Y-57698640D02*
X109103160Y-57698640D01*
X109103160Y-57698640D02*
X112826800Y-53975000D01*
X133360160Y-55697120D02*
X136011920Y-55697120D01*
X136011920Y-55697120D02*
X136766300Y-56451500D01*
X133360160Y-55697120D02*
X133644640Y-55697120D01*
X94300040Y-52390040D02*
X96951800Y-52451000D01*
X101854000Y-95504000D02*
X101854000Y-98120200D01*
X101854000Y-98120200D02*
X107721400Y-103987600D01*
X94551500Y-88836500D02*
X94592140Y-88836500D01*
X94592140Y-88836500D02*
X96672400Y-86756240D01*
X96672400Y-86756240D02*
X100670360Y-86756240D01*
X100670360Y-86756240D02*
X101478080Y-87563960D01*
X101478080Y-87563960D02*
X102590600Y-87563960D01*
X102590600Y-87563960D02*
X104729280Y-85425280D01*
X104729280Y-85425280D02*
X104729280Y-85171280D01*
X78028800Y-79806800D02*
X78028800Y-77880200D01*
X78028800Y-77880200D02*
X78124040Y-77784960D01*
X77266800Y-79806800D02*
X78028800Y-79806800D01*
X78028800Y-79806800D02*
X78079600Y-79806800D01*
X78079600Y-79806800D02*
X82876400Y-84603600D01*
X103463080Y-75300840D02*
X103463080Y-76445120D01*
X114350800Y-84886800D02*
X116332000Y-86868000D01*
X108737400Y-84886800D02*
X114350800Y-84886800D01*
X103098600Y-79248000D02*
X108737400Y-84886800D01*
X103098600Y-76809600D02*
X103098600Y-79248000D01*
X103463080Y-76445120D02*
X103098600Y-76809600D01*
X127558800Y-67818000D02*
X129844800Y-66040000D01*
X129844800Y-66040000D02*
X131702800Y-64770000D01*
X86868000Y-94945200D02*
X86868000Y-96469200D01*
X88900000Y-102946200D02*
X91389200Y-105435400D01*
X88900000Y-98501200D02*
X88900000Y-102946200D01*
X86868000Y-96469200D02*
X88900000Y-98501200D01*
X72644000Y-77571600D02*
X72644000Y-77927200D01*
X72644000Y-77927200D02*
X74523600Y-79806800D01*
X74523600Y-79806800D02*
X77266800Y-79806800D01*
X97922080Y-76499720D02*
X97490280Y-76499720D01*
X97490280Y-76499720D02*
X95046800Y-78943200D01*
X90627200Y-86512400D02*
X82876400Y-86512400D01*
X95046800Y-82092800D02*
X90627200Y-86512400D01*
X95046800Y-78943200D02*
X95046800Y-82092800D01*
X82876400Y-84603600D02*
X82876400Y-86512400D01*
X82876400Y-86512400D02*
X82876400Y-90953600D01*
X82876400Y-90953600D02*
X86868000Y-94945200D01*
X72644000Y-77571600D02*
X72644000Y-73253600D01*
X72644000Y-73253600D02*
X73660000Y-72237600D01*
X72644000Y-77571600D02*
X72644000Y-77393800D01*
X97922080Y-76499720D02*
X97426780Y-76499720D01*
X112430560Y-89743280D02*
X112430560Y-90749120D01*
X115595400Y-93913960D02*
X115595400Y-97424240D01*
X112430560Y-90749120D02*
X115595400Y-93913960D01*
X111252000Y-86868000D02*
X111252000Y-88564720D01*
X111252000Y-88564720D02*
X112430560Y-89743280D01*
X111252000Y-86868000D02*
X111658400Y-87109300D01*
X118745000Y-91567000D02*
X120954800Y-91567000D01*
X119405400Y-96977200D02*
X119405400Y-98729800D01*
X121666000Y-94716600D02*
X119405400Y-96977200D01*
X121666000Y-92278200D02*
X121666000Y-94716600D01*
X120954800Y-91567000D02*
X121666000Y-92278200D01*
X119725440Y-77144880D02*
X121234200Y-78653640D01*
X121234200Y-85775800D02*
X119761000Y-87249000D01*
X121234200Y-78653640D02*
X121234200Y-85775800D01*
X119725440Y-76611480D02*
X119725440Y-77144880D01*
X143497300Y-60515500D02*
X143497300Y-61087000D01*
X143497300Y-61087000D02*
X141147800Y-63436500D01*
X141147800Y-63436500D02*
X138036300Y-63436500D01*
X133591300Y-57531000D02*
X133908800Y-57531000D01*
X122986800Y-57531000D02*
X133591300Y-57531000D01*
X118541800Y-61976000D02*
X122986800Y-57531000D01*
X138036300Y-62293500D02*
X138036300Y-63436500D01*
X138036300Y-63436500D02*
X138036300Y-68897500D01*
X136448800Y-60706000D02*
X138036300Y-62293500D01*
X135750300Y-60706000D02*
X136448800Y-60706000D01*
X134924800Y-59880500D02*
X135750300Y-60706000D01*
X134924800Y-58547000D02*
X134924800Y-59880500D01*
X133908800Y-57531000D02*
X134924800Y-58547000D01*
X118478300Y-61976000D02*
X118541800Y-61976000D01*
X132638800Y-75438000D02*
X132638800Y-74295000D01*
X132638800Y-74295000D02*
X138036300Y-68897500D01*
X132638800Y-75438000D02*
X132638800Y-74676000D01*
X132638800Y-75438000D02*
X132638800Y-75095100D01*
X129809240Y-78623160D02*
X129418080Y-78623160D01*
X105918000Y-68999100D02*
X106641900Y-69253100D01*
X124637800Y-75565000D02*
X127431800Y-75565000D01*
X124129800Y-75057000D02*
X124637800Y-75565000D01*
X124129800Y-71501000D02*
X124129800Y-75057000D01*
X121589800Y-69342000D02*
X124129800Y-71501000D01*
X106730800Y-69342000D02*
X121589800Y-69342000D01*
X106641900Y-69253100D02*
X106730800Y-69342000D01*
X127431800Y-75565000D02*
X127558800Y-75438000D01*
X106299000Y-69380100D02*
X105918000Y-68999100D01*
X98450400Y-70827900D02*
X100977700Y-70827900D01*
X100977700Y-70827900D02*
X103378000Y-68999100D01*
X91902280Y-81579720D02*
X92801440Y-79982060D01*
X92801440Y-79982060D02*
X92801440Y-72476360D01*
X91902280Y-81579720D02*
X90302080Y-81579720D01*
X98679000Y-70827900D02*
X98450400Y-70827900D01*
X98450400Y-70827900D02*
X94449900Y-70827900D01*
X94449900Y-70827900D02*
X92801440Y-72476360D01*
D42*
X100838000Y-68999100D02*
X100850700Y-68999100D01*
X100850700Y-68999100D02*
X102285800Y-67564000D01*
X102285800Y-67564000D02*
X107111800Y-67564000D01*
X107111800Y-67564000D02*
X107873800Y-68326000D01*
X107873800Y-68326000D02*
X123367800Y-68326000D01*
X123367800Y-68326000D02*
X125780800Y-70739000D01*
X125780800Y-70739000D02*
X125780800Y-72644000D01*
X125780800Y-72644000D02*
X126669800Y-73533000D01*
X126669800Y-73533000D02*
X128320800Y-73533000D01*
X128320800Y-73533000D02*
X128828800Y-74104500D01*
X128828800Y-74104500D02*
X128828800Y-76644500D01*
X128828800Y-76644500D02*
X128066800Y-77597000D01*
X128066800Y-77597000D02*
X128066800Y-82677000D01*
X128066800Y-82677000D02*
X129209800Y-83820000D01*
X129209800Y-83820000D02*
X137337800Y-83820000D01*
X137337800Y-83820000D02*
X139242800Y-81915000D01*
X139242800Y-81915000D02*
X139242800Y-79041000D01*
X139242800Y-79041000D02*
X142544800Y-76755000D01*
D40*
X120700800Y-64770000D02*
X120192800Y-64770000D01*
X120192800Y-64770000D02*
X117995700Y-67475100D01*
X100507800Y-65024000D02*
X100507800Y-66281300D01*
X109329220Y-67475100D02*
X117995700Y-67475100D01*
X108435140Y-66581020D02*
X109329220Y-67475100D01*
X100807520Y-66581020D02*
X108435140Y-66581020D01*
X100507800Y-66281300D02*
X100807520Y-66581020D01*
X100507800Y-65024000D02*
X100609400Y-65024000D01*
X100507800Y-65024000D02*
X100507800Y-65191640D01*
X100507800Y-65024000D02*
X100507800Y-65151000D01*
X136321800Y-85994240D02*
X136512300Y-87566500D01*
X136512300Y-87566500D02*
X139560300Y-90614500D01*
X109077760Y-72395080D02*
X109077760Y-72725280D01*
X128320800Y-61976000D02*
X130459480Y-61976000D01*
X130459480Y-61976000D02*
X130622040Y-62138560D01*
X128320800Y-61976000D02*
X128320800Y-64770000D01*
X128412240Y-64678560D02*
X128320800Y-64770000D01*
X128351280Y-61945520D02*
X128320800Y-61976000D01*
X130098800Y-67818000D02*
X129814320Y-67818000D01*
X125653800Y-59207400D02*
X130124200Y-59207400D01*
X133055360Y-62138560D02*
X134508240Y-62138560D01*
X130124200Y-59207400D02*
X133055360Y-62138560D01*
X135622040Y-62138560D02*
X134508240Y-62138560D01*
X134416800Y-66040000D02*
X132638800Y-67818000D01*
X134508240Y-62138560D02*
X134416800Y-62230000D01*
X134416800Y-62230000D02*
X134416800Y-66040000D01*
X125653800Y-59207400D02*
X123469400Y-59207400D01*
X123469400Y-59207400D02*
X120700800Y-61976000D01*
X132638800Y-67818000D02*
X132572760Y-67818000D01*
X90302080Y-84119720D02*
X87076280Y-84119720D01*
X87076280Y-84119720D02*
X86893400Y-84302600D01*
X86944200Y-67894200D02*
X87817960Y-67894200D01*
X87817960Y-67894200D02*
X90611960Y-65100200D01*
X95021400Y-62001400D02*
X96951800Y-60071000D01*
X91978480Y-62001400D02*
X95021400Y-62001400D01*
X90611960Y-63367920D02*
X91978480Y-62001400D01*
X90611960Y-65100200D02*
X90611960Y-63367920D01*
X88353900Y-80081120D02*
X84124800Y-80081120D01*
X84084160Y-78745080D02*
X83124040Y-77784960D01*
X84084160Y-80040480D02*
X84084160Y-78745080D01*
X84124800Y-80081120D02*
X84084160Y-80040480D01*
X119552720Y-79629000D02*
X118130320Y-78206600D01*
X118130320Y-78206600D02*
X118130320Y-75666600D01*
X118130320Y-75666600D02*
X119725440Y-74071480D01*
X119761000Y-79629000D02*
X119552720Y-79629000D01*
X90302080Y-84119720D02*
X90088720Y-84119720D01*
X90088720Y-84119720D02*
X88353900Y-82727800D01*
X88353900Y-69646800D02*
X86944200Y-67894200D01*
X88353900Y-82727800D02*
X88353900Y-80081120D01*
X88353900Y-80081120D02*
X88353900Y-69646800D01*
X90525600Y-84343240D02*
X90302080Y-84119720D01*
D39*
X57366800Y-123296000D02*
X52366800Y-123296000D01*
X56972200Y-104460040D02*
X56202760Y-104460040D01*
X56202760Y-104460040D02*
X52366800Y-108296000D01*
X52366800Y-108296000D02*
X52366800Y-123296000D01*
X52366800Y-123296000D02*
X52366800Y-127296000D01*
X52366800Y-127296000D02*
X53467800Y-128397000D01*
X53467800Y-128397000D02*
X56366800Y-128596000D01*
D40*
X137429240Y-78623160D02*
X137429240Y-81752440D01*
X137429240Y-81752440D02*
X137464800Y-81788000D01*
X130098800Y-75438000D02*
X130098800Y-76073000D01*
X130098800Y-76073000D02*
X132648960Y-78623160D01*
X132648960Y-78623160D02*
X137429240Y-78623160D01*
X130098800Y-75438000D02*
X130098800Y-75692000D01*
X146037300Y-60515500D02*
X146037300Y-63309500D01*
X144576800Y-85359240D02*
X143941800Y-85994240D01*
X144576800Y-64770000D02*
X144576800Y-85359240D01*
X146037300Y-63309500D02*
X144576800Y-64770000D01*
D44*
G36*
X61252704Y-74424850D02*
X65891660Y-79063806D01*
X65891660Y-83708240D01*
X66116406Y-84838113D01*
X66731679Y-85758935D01*
X66756427Y-85795973D01*
X67985785Y-87025330D01*
X67985787Y-87025333D01*
X68575625Y-87419450D01*
X68943648Y-87665355D01*
X70073520Y-87890101D01*
X70073525Y-87890100D01*
X75556154Y-87890100D01*
X76285340Y-88619286D01*
X76285340Y-110576360D01*
X76510086Y-111706233D01*
X76579980Y-111810837D01*
X76579980Y-117077740D01*
X73482200Y-117077740D01*
X72352327Y-117302486D01*
X71394467Y-117942507D01*
X68041667Y-121295307D01*
X67401646Y-122253167D01*
X67176900Y-123383040D01*
X67176900Y-123996207D01*
X67145419Y-124072022D01*
X67144383Y-125259329D01*
X67597789Y-126356655D01*
X68436609Y-127196941D01*
X69533142Y-127652261D01*
X70720449Y-127653297D01*
X71817775Y-127199891D01*
X72658061Y-126361071D01*
X73113381Y-125264538D01*
X73113984Y-124573922D01*
X74705166Y-122982740D01*
X77370851Y-122982740D01*
X77444747Y-123093333D01*
X81177380Y-126825965D01*
X81177380Y-137865100D01*
X68046600Y-137865100D01*
X66916727Y-138089846D01*
X66810614Y-138160748D01*
X56315270Y-138343950D01*
X55189492Y-138588381D01*
X54992787Y-138724840D01*
X54766800Y-138724840D01*
X54413825Y-138791257D01*
X54089638Y-138999865D01*
X53872154Y-139318164D01*
X53795640Y-139696000D01*
X53795640Y-139940441D01*
X53619742Y-140213906D01*
X53414750Y-141347530D01*
X53659181Y-142473308D01*
X53795640Y-142670013D01*
X53795640Y-142896000D01*
X53862057Y-143248975D01*
X54070665Y-143573162D01*
X54388964Y-143790646D01*
X54766800Y-143867160D01*
X55011241Y-143867160D01*
X55284706Y-144043058D01*
X56418330Y-144248050D01*
X58800276Y-144206472D01*
X58343792Y-144511485D01*
X57942220Y-145112479D01*
X57801207Y-145821400D01*
X57942220Y-146530321D01*
X58343792Y-147131315D01*
X58944786Y-147532887D01*
X59653707Y-147673900D01*
X59726293Y-147673900D01*
X60435214Y-147532887D01*
X60906515Y-147217973D01*
X61354486Y-147566603D01*
X62088991Y-147768801D01*
X62844962Y-147674527D01*
X63245023Y-147447182D01*
X63429542Y-147573258D01*
X63579933Y-147798335D01*
X63742927Y-148042273D01*
X64671654Y-148971000D01*
X55815307Y-148971000D01*
X56229309Y-148556998D01*
X55926765Y-148254455D01*
X56265924Y-147911182D01*
X56366014Y-146592007D01*
X56265924Y-146088818D01*
X55926764Y-145745544D01*
X54672308Y-147000000D01*
X54686450Y-147014142D01*
X53014142Y-148686450D01*
X53000000Y-148672308D01*
X52985858Y-148686450D01*
X51313550Y-147014142D01*
X51327692Y-147000000D01*
X51313550Y-146985858D01*
X52985858Y-145313550D01*
X53000000Y-145327692D01*
X54254456Y-144073236D01*
X53911182Y-143734076D01*
X52592007Y-143633986D01*
X52088818Y-143734076D01*
X51745545Y-144073235D01*
X51443002Y-143770691D01*
X51168300Y-144045393D01*
X51168300Y-135605080D01*
X72954927Y-135605080D01*
X73281935Y-136396500D01*
X73886915Y-137002537D01*
X74677763Y-137330926D01*
X75534080Y-137331673D01*
X76325500Y-137004665D01*
X76931537Y-136399685D01*
X77259926Y-135608837D01*
X77260673Y-134752520D01*
X76933665Y-133961100D01*
X76328685Y-133355063D01*
X75537837Y-133026674D01*
X74681520Y-133025927D01*
X73890100Y-133352935D01*
X73284063Y-133957915D01*
X72955674Y-134748763D01*
X72954927Y-135605080D01*
X51168300Y-135605080D01*
X51168300Y-134872425D01*
X69185296Y-134872425D01*
X69458121Y-135186003D01*
X70591645Y-135272044D01*
X71024199Y-135186003D01*
X71297024Y-134872425D01*
X70241160Y-133816561D01*
X69185296Y-134872425D01*
X51168300Y-134872425D01*
X51168300Y-132730205D01*
X67348836Y-132730205D01*
X67434877Y-133162759D01*
X67748455Y-133435584D01*
X68804319Y-132379720D01*
X71678001Y-132379720D01*
X72733865Y-133435584D01*
X73047443Y-133162759D01*
X73133484Y-132029235D01*
X73047443Y-131596681D01*
X72733865Y-131323856D01*
X71678001Y-132379720D01*
X68804319Y-132379720D01*
X67748455Y-131323856D01*
X67434877Y-131596681D01*
X67348836Y-132730205D01*
X51168300Y-132730205D01*
X51168300Y-130272966D01*
X51380067Y-130484733D01*
X51776453Y-130749590D01*
X52153774Y-131040973D01*
X52252701Y-131067808D01*
X52337927Y-131124754D01*
X52805498Y-131217760D01*
X53265603Y-131342568D01*
X56164603Y-131541568D01*
X57307215Y-131394727D01*
X58306657Y-130821806D01*
X59010773Y-129910026D01*
X59017014Y-129887015D01*
X69185296Y-129887015D01*
X70241160Y-130942879D01*
X71297024Y-129887015D01*
X71024199Y-129573437D01*
X69890675Y-129487396D01*
X69458121Y-129573437D01*
X69185296Y-129887015D01*
X59017014Y-129887015D01*
X59312368Y-128798197D01*
X59194815Y-127883480D01*
X74402727Y-127883480D01*
X74729735Y-128674900D01*
X75334715Y-129280937D01*
X76125563Y-129609326D01*
X76981880Y-129610073D01*
X77773300Y-129283065D01*
X78379337Y-128678085D01*
X78707726Y-127887237D01*
X78708473Y-127030920D01*
X78381465Y-126239500D01*
X77776485Y-125633463D01*
X76985637Y-125305074D01*
X76129320Y-125304327D01*
X75337900Y-125631335D01*
X74731863Y-126236315D01*
X74403474Y-127027163D01*
X74402727Y-127883480D01*
X59194815Y-127883480D01*
X59165527Y-127655585D01*
X58592606Y-126656143D01*
X57921786Y-126138106D01*
X58496673Y-126023754D01*
X58731033Y-125867160D01*
X58966800Y-125867160D01*
X59319775Y-125800743D01*
X59643962Y-125592135D01*
X59861446Y-125273836D01*
X59937960Y-124896000D01*
X59937960Y-124660233D01*
X60094554Y-124425873D01*
X60319300Y-123296000D01*
X60094554Y-122166127D01*
X59937960Y-121931767D01*
X59937960Y-121696000D01*
X59871543Y-121343025D01*
X59662935Y-121018838D01*
X59344636Y-120801354D01*
X58966800Y-120724840D01*
X58731033Y-120724840D01*
X58496673Y-120568246D01*
X57366800Y-120343500D01*
X55319300Y-120343500D01*
X55319300Y-111852255D01*
X55832415Y-112474535D01*
X56218450Y-112732433D01*
X56566800Y-112665907D01*
X56566800Y-111396000D01*
X58166800Y-111396000D01*
X58166800Y-112665907D01*
X58515150Y-112732433D01*
X58804266Y-112539283D01*
X71212725Y-112539283D01*
X71356367Y-112822370D01*
X72154590Y-112932568D01*
X72708593Y-112822370D01*
X72852235Y-112539283D01*
X72032480Y-111719528D01*
X71212725Y-112539283D01*
X58804266Y-112539283D01*
X58901185Y-112474535D01*
X59503271Y-111744356D01*
X59450235Y-111396000D01*
X58166800Y-111396000D01*
X56566800Y-111396000D01*
X56164300Y-111396000D01*
X56164300Y-110993110D01*
X69970912Y-110993110D01*
X70081110Y-111547113D01*
X70364197Y-111690755D01*
X71183952Y-110871000D01*
X72881008Y-110871000D01*
X73700763Y-111690755D01*
X73983850Y-111547113D01*
X74094048Y-110748890D01*
X73983850Y-110194887D01*
X73700763Y-110051245D01*
X72881008Y-110871000D01*
X71183952Y-110871000D01*
X70364197Y-110051245D01*
X70081110Y-110194887D01*
X69970912Y-110993110D01*
X56164300Y-110993110D01*
X56164300Y-109796000D01*
X56566800Y-109796000D01*
X56566800Y-108526093D01*
X58166800Y-108526093D01*
X58166800Y-109796000D01*
X59450235Y-109796000D01*
X59503271Y-109447644D01*
X59301311Y-109202717D01*
X71212725Y-109202717D01*
X72032480Y-110022472D01*
X72852235Y-109202717D01*
X72708593Y-108919630D01*
X71910370Y-108809432D01*
X71356367Y-108919630D01*
X71212725Y-109202717D01*
X59301311Y-109202717D01*
X58901185Y-108717465D01*
X58515150Y-108459567D01*
X58166800Y-108526093D01*
X56566800Y-108526093D01*
X56353003Y-108485263D01*
X57538338Y-107299928D01*
X58102073Y-107187794D01*
X58491540Y-106927561D01*
X58825175Y-106864783D01*
X59149362Y-106656175D01*
X59366846Y-106337876D01*
X59439323Y-105979975D01*
X59699954Y-105589913D01*
X59924700Y-104460040D01*
X59699954Y-103330167D01*
X59439721Y-102940700D01*
X59376943Y-102607065D01*
X59168335Y-102282878D01*
X58850036Y-102065394D01*
X58492135Y-101992917D01*
X58102073Y-101732286D01*
X57831707Y-101678507D01*
X58359615Y-101460380D01*
X59050116Y-100771083D01*
X59424273Y-99870013D01*
X59425124Y-98894348D01*
X59052540Y-97992625D01*
X58363243Y-97302124D01*
X57831971Y-97081521D01*
X58102072Y-97027794D01*
X59059933Y-96387773D01*
X59699954Y-95429912D01*
X59924700Y-94300040D01*
X59756280Y-93453338D01*
X59929861Y-91914483D01*
X70918085Y-91914483D01*
X71061727Y-92197570D01*
X71859950Y-92307768D01*
X72413953Y-92197570D01*
X72557595Y-91914483D01*
X71737840Y-91094728D01*
X70918085Y-91914483D01*
X59929861Y-91914483D01*
X60104268Y-90368310D01*
X69676272Y-90368310D01*
X69786470Y-90922313D01*
X70069557Y-91065955D01*
X70889312Y-90246200D01*
X72586368Y-90246200D01*
X73406123Y-91065955D01*
X73689210Y-90922313D01*
X73799408Y-90124090D01*
X73689210Y-89570087D01*
X73406123Y-89426445D01*
X72586368Y-90246200D01*
X70889312Y-90246200D01*
X70069557Y-89426445D01*
X69786470Y-89570087D01*
X69676272Y-90368310D01*
X60104268Y-90368310D01*
X60300694Y-88626941D01*
X60296566Y-88577917D01*
X70918085Y-88577917D01*
X71737840Y-89397672D01*
X72557595Y-88577917D01*
X72413953Y-88294830D01*
X71615730Y-88184632D01*
X71061727Y-88294830D01*
X70918085Y-88577917D01*
X60296566Y-88577917D01*
X60271843Y-88284389D01*
X60297955Y-87941617D01*
X60223954Y-87715795D01*
X60204010Y-87478997D01*
X60046266Y-87173559D01*
X59939217Y-86846889D01*
X59937960Y-86845425D01*
X59937960Y-86696000D01*
X59871543Y-86343025D01*
X59662935Y-86018838D01*
X59344636Y-85801354D01*
X58966800Y-85724840D01*
X58872722Y-85724840D01*
X55266340Y-82896438D01*
X55266340Y-76788028D01*
X55832415Y-77474535D01*
X56218450Y-77732433D01*
X56566800Y-77665907D01*
X56566800Y-76396000D01*
X58166800Y-76396000D01*
X58166800Y-77665907D01*
X58515150Y-77732433D01*
X58901185Y-77474535D01*
X59503271Y-76744356D01*
X59450235Y-76396000D01*
X58166800Y-76396000D01*
X56566800Y-76396000D01*
X56164300Y-76396000D01*
X56164300Y-74796000D01*
X56566800Y-74796000D01*
X56566800Y-74393500D01*
X58166800Y-74393500D01*
X58166800Y-74796000D01*
X59450235Y-74796000D01*
X59503271Y-74447644D01*
X59416924Y-74342927D01*
X61252704Y-74424850D01*
X61252704Y-74424850D01*
G37*
X61252704Y-74424850D02*
X65891660Y-79063806D01*
X65891660Y-83708240D01*
X66116406Y-84838113D01*
X66731679Y-85758935D01*
X66756427Y-85795973D01*
X67985785Y-87025330D01*
X67985787Y-87025333D01*
X68575625Y-87419450D01*
X68943648Y-87665355D01*
X70073520Y-87890101D01*
X70073525Y-87890100D01*
X75556154Y-87890100D01*
X76285340Y-88619286D01*
X76285340Y-110576360D01*
X76510086Y-111706233D01*
X76579980Y-111810837D01*
X76579980Y-117077740D01*
X73482200Y-117077740D01*
X72352327Y-117302486D01*
X71394467Y-117942507D01*
X68041667Y-121295307D01*
X67401646Y-122253167D01*
X67176900Y-123383040D01*
X67176900Y-123996207D01*
X67145419Y-124072022D01*
X67144383Y-125259329D01*
X67597789Y-126356655D01*
X68436609Y-127196941D01*
X69533142Y-127652261D01*
X70720449Y-127653297D01*
X71817775Y-127199891D01*
X72658061Y-126361071D01*
X73113381Y-125264538D01*
X73113984Y-124573922D01*
X74705166Y-122982740D01*
X77370851Y-122982740D01*
X77444747Y-123093333D01*
X81177380Y-126825965D01*
X81177380Y-137865100D01*
X68046600Y-137865100D01*
X66916727Y-138089846D01*
X66810614Y-138160748D01*
X56315270Y-138343950D01*
X55189492Y-138588381D01*
X54992787Y-138724840D01*
X54766800Y-138724840D01*
X54413825Y-138791257D01*
X54089638Y-138999865D01*
X53872154Y-139318164D01*
X53795640Y-139696000D01*
X53795640Y-139940441D01*
X53619742Y-140213906D01*
X53414750Y-141347530D01*
X53659181Y-142473308D01*
X53795640Y-142670013D01*
X53795640Y-142896000D01*
X53862057Y-143248975D01*
X54070665Y-143573162D01*
X54388964Y-143790646D01*
X54766800Y-143867160D01*
X55011241Y-143867160D01*
X55284706Y-144043058D01*
X56418330Y-144248050D01*
X58800276Y-144206472D01*
X58343792Y-144511485D01*
X57942220Y-145112479D01*
X57801207Y-145821400D01*
X57942220Y-146530321D01*
X58343792Y-147131315D01*
X58944786Y-147532887D01*
X59653707Y-147673900D01*
X59726293Y-147673900D01*
X60435214Y-147532887D01*
X60906515Y-147217973D01*
X61354486Y-147566603D01*
X62088991Y-147768801D01*
X62844962Y-147674527D01*
X63245023Y-147447182D01*
X63429542Y-147573258D01*
X63579933Y-147798335D01*
X63742927Y-148042273D01*
X64671654Y-148971000D01*
X55815307Y-148971000D01*
X56229309Y-148556998D01*
X55926765Y-148254455D01*
X56265924Y-147911182D01*
X56366014Y-146592007D01*
X56265924Y-146088818D01*
X55926764Y-145745544D01*
X54672308Y-147000000D01*
X54686450Y-147014142D01*
X53014142Y-148686450D01*
X53000000Y-148672308D01*
X52985858Y-148686450D01*
X51313550Y-147014142D01*
X51327692Y-147000000D01*
X51313550Y-146985858D01*
X52985858Y-145313550D01*
X53000000Y-145327692D01*
X54254456Y-144073236D01*
X53911182Y-143734076D01*
X52592007Y-143633986D01*
X52088818Y-143734076D01*
X51745545Y-144073235D01*
X51443002Y-143770691D01*
X51168300Y-144045393D01*
X51168300Y-135605080D01*
X72954927Y-135605080D01*
X73281935Y-136396500D01*
X73886915Y-137002537D01*
X74677763Y-137330926D01*
X75534080Y-137331673D01*
X76325500Y-137004665D01*
X76931537Y-136399685D01*
X77259926Y-135608837D01*
X77260673Y-134752520D01*
X76933665Y-133961100D01*
X76328685Y-133355063D01*
X75537837Y-133026674D01*
X74681520Y-133025927D01*
X73890100Y-133352935D01*
X73284063Y-133957915D01*
X72955674Y-134748763D01*
X72954927Y-135605080D01*
X51168300Y-135605080D01*
X51168300Y-134872425D01*
X69185296Y-134872425D01*
X69458121Y-135186003D01*
X70591645Y-135272044D01*
X71024199Y-135186003D01*
X71297024Y-134872425D01*
X70241160Y-133816561D01*
X69185296Y-134872425D01*
X51168300Y-134872425D01*
X51168300Y-132730205D01*
X67348836Y-132730205D01*
X67434877Y-133162759D01*
X67748455Y-133435584D01*
X68804319Y-132379720D01*
X71678001Y-132379720D01*
X72733865Y-133435584D01*
X73047443Y-133162759D01*
X73133484Y-132029235D01*
X73047443Y-131596681D01*
X72733865Y-131323856D01*
X71678001Y-132379720D01*
X68804319Y-132379720D01*
X67748455Y-131323856D01*
X67434877Y-131596681D01*
X67348836Y-132730205D01*
X51168300Y-132730205D01*
X51168300Y-130272966D01*
X51380067Y-130484733D01*
X51776453Y-130749590D01*
X52153774Y-131040973D01*
X52252701Y-131067808D01*
X52337927Y-131124754D01*
X52805498Y-131217760D01*
X53265603Y-131342568D01*
X56164603Y-131541568D01*
X57307215Y-131394727D01*
X58306657Y-130821806D01*
X59010773Y-129910026D01*
X59017014Y-129887015D01*
X69185296Y-129887015D01*
X70241160Y-130942879D01*
X71297024Y-129887015D01*
X71024199Y-129573437D01*
X69890675Y-129487396D01*
X69458121Y-129573437D01*
X69185296Y-129887015D01*
X59017014Y-129887015D01*
X59312368Y-128798197D01*
X59194815Y-127883480D01*
X74402727Y-127883480D01*
X74729735Y-128674900D01*
X75334715Y-129280937D01*
X76125563Y-129609326D01*
X76981880Y-129610073D01*
X77773300Y-129283065D01*
X78379337Y-128678085D01*
X78707726Y-127887237D01*
X78708473Y-127030920D01*
X78381465Y-126239500D01*
X77776485Y-125633463D01*
X76985637Y-125305074D01*
X76129320Y-125304327D01*
X75337900Y-125631335D01*
X74731863Y-126236315D01*
X74403474Y-127027163D01*
X74402727Y-127883480D01*
X59194815Y-127883480D01*
X59165527Y-127655585D01*
X58592606Y-126656143D01*
X57921786Y-126138106D01*
X58496673Y-126023754D01*
X58731033Y-125867160D01*
X58966800Y-125867160D01*
X59319775Y-125800743D01*
X59643962Y-125592135D01*
X59861446Y-125273836D01*
X59937960Y-124896000D01*
X59937960Y-124660233D01*
X60094554Y-124425873D01*
X60319300Y-123296000D01*
X60094554Y-122166127D01*
X59937960Y-121931767D01*
X59937960Y-121696000D01*
X59871543Y-121343025D01*
X59662935Y-121018838D01*
X59344636Y-120801354D01*
X58966800Y-120724840D01*
X58731033Y-120724840D01*
X58496673Y-120568246D01*
X57366800Y-120343500D01*
X55319300Y-120343500D01*
X55319300Y-111852255D01*
X55832415Y-112474535D01*
X56218450Y-112732433D01*
X56566800Y-112665907D01*
X56566800Y-111396000D01*
X58166800Y-111396000D01*
X58166800Y-112665907D01*
X58515150Y-112732433D01*
X58804266Y-112539283D01*
X71212725Y-112539283D01*
X71356367Y-112822370D01*
X72154590Y-112932568D01*
X72708593Y-112822370D01*
X72852235Y-112539283D01*
X72032480Y-111719528D01*
X71212725Y-112539283D01*
X58804266Y-112539283D01*
X58901185Y-112474535D01*
X59503271Y-111744356D01*
X59450235Y-111396000D01*
X58166800Y-111396000D01*
X56566800Y-111396000D01*
X56164300Y-111396000D01*
X56164300Y-110993110D01*
X69970912Y-110993110D01*
X70081110Y-111547113D01*
X70364197Y-111690755D01*
X71183952Y-110871000D01*
X72881008Y-110871000D01*
X73700763Y-111690755D01*
X73983850Y-111547113D01*
X74094048Y-110748890D01*
X73983850Y-110194887D01*
X73700763Y-110051245D01*
X72881008Y-110871000D01*
X71183952Y-110871000D01*
X70364197Y-110051245D01*
X70081110Y-110194887D01*
X69970912Y-110993110D01*
X56164300Y-110993110D01*
X56164300Y-109796000D01*
X56566800Y-109796000D01*
X56566800Y-108526093D01*
X58166800Y-108526093D01*
X58166800Y-109796000D01*
X59450235Y-109796000D01*
X59503271Y-109447644D01*
X59301311Y-109202717D01*
X71212725Y-109202717D01*
X72032480Y-110022472D01*
X72852235Y-109202717D01*
X72708593Y-108919630D01*
X71910370Y-108809432D01*
X71356367Y-108919630D01*
X71212725Y-109202717D01*
X59301311Y-109202717D01*
X58901185Y-108717465D01*
X58515150Y-108459567D01*
X58166800Y-108526093D01*
X56566800Y-108526093D01*
X56353003Y-108485263D01*
X57538338Y-107299928D01*
X58102073Y-107187794D01*
X58491540Y-106927561D01*
X58825175Y-106864783D01*
X59149362Y-106656175D01*
X59366846Y-106337876D01*
X59439323Y-105979975D01*
X59699954Y-105589913D01*
X59924700Y-104460040D01*
X59699954Y-103330167D01*
X59439721Y-102940700D01*
X59376943Y-102607065D01*
X59168335Y-102282878D01*
X58850036Y-102065394D01*
X58492135Y-101992917D01*
X58102073Y-101732286D01*
X57831707Y-101678507D01*
X58359615Y-101460380D01*
X59050116Y-100771083D01*
X59424273Y-99870013D01*
X59425124Y-98894348D01*
X59052540Y-97992625D01*
X58363243Y-97302124D01*
X57831971Y-97081521D01*
X58102072Y-97027794D01*
X59059933Y-96387773D01*
X59699954Y-95429912D01*
X59924700Y-94300040D01*
X59756280Y-93453338D01*
X59929861Y-91914483D01*
X70918085Y-91914483D01*
X71061727Y-92197570D01*
X71859950Y-92307768D01*
X72413953Y-92197570D01*
X72557595Y-91914483D01*
X71737840Y-91094728D01*
X70918085Y-91914483D01*
X59929861Y-91914483D01*
X60104268Y-90368310D01*
X69676272Y-90368310D01*
X69786470Y-90922313D01*
X70069557Y-91065955D01*
X70889312Y-90246200D01*
X72586368Y-90246200D01*
X73406123Y-91065955D01*
X73689210Y-90922313D01*
X73799408Y-90124090D01*
X73689210Y-89570087D01*
X73406123Y-89426445D01*
X72586368Y-90246200D01*
X70889312Y-90246200D01*
X70069557Y-89426445D01*
X69786470Y-89570087D01*
X69676272Y-90368310D01*
X60104268Y-90368310D01*
X60300694Y-88626941D01*
X60296566Y-88577917D01*
X70918085Y-88577917D01*
X71737840Y-89397672D01*
X72557595Y-88577917D01*
X72413953Y-88294830D01*
X71615730Y-88184632D01*
X71061727Y-88294830D01*
X70918085Y-88577917D01*
X60296566Y-88577917D01*
X60271843Y-88284389D01*
X60297955Y-87941617D01*
X60223954Y-87715795D01*
X60204010Y-87478997D01*
X60046266Y-87173559D01*
X59939217Y-86846889D01*
X59937960Y-86845425D01*
X59937960Y-86696000D01*
X59871543Y-86343025D01*
X59662935Y-86018838D01*
X59344636Y-85801354D01*
X58966800Y-85724840D01*
X58872722Y-85724840D01*
X55266340Y-82896438D01*
X55266340Y-76788028D01*
X55832415Y-77474535D01*
X56218450Y-77732433D01*
X56566800Y-77665907D01*
X56566800Y-76396000D01*
X58166800Y-76396000D01*
X58166800Y-77665907D01*
X58515150Y-77732433D01*
X58901185Y-77474535D01*
X59503271Y-76744356D01*
X59450235Y-76396000D01*
X58166800Y-76396000D01*
X56566800Y-76396000D01*
X56164300Y-76396000D01*
X56164300Y-74796000D01*
X56566800Y-74796000D01*
X56566800Y-74393500D01*
X58166800Y-74393500D01*
X58166800Y-74796000D01*
X59450235Y-74796000D01*
X59503271Y-74447644D01*
X59416924Y-74342927D01*
X61252704Y-74424850D01*
G36*
X84863257Y-104018175D02*
X85071865Y-104342362D01*
X85390164Y-104559846D01*
X85665500Y-104615603D01*
X85665500Y-105689400D01*
X85757035Y-106149577D01*
X86017704Y-106539696D01*
X88075104Y-108597096D01*
X88465223Y-108857765D01*
X88925400Y-108949300D01*
X91617800Y-108949300D01*
X92077977Y-108857765D01*
X92468096Y-108597096D01*
X93808632Y-107256560D01*
X94049768Y-107256560D01*
X94592744Y-107799536D01*
X94982863Y-108060205D01*
X95443040Y-108151740D01*
X113720584Y-108151740D01*
X113538404Y-108590477D01*
X113537796Y-109287665D01*
X113804036Y-109932015D01*
X114296592Y-110425431D01*
X114940477Y-110692796D01*
X115637665Y-110693404D01*
X116282015Y-110427164D01*
X116775431Y-109934608D01*
X117042796Y-109290723D01*
X117043404Y-108593535D01*
X116860858Y-108151740D01*
X117312440Y-108151740D01*
X117772617Y-108060205D01*
X118162736Y-107799536D01*
X118269744Y-107692528D01*
X118734747Y-108003233D01*
X118778625Y-108011961D01*
X118538404Y-108590477D01*
X118537796Y-109287665D01*
X118804036Y-109932015D01*
X119296592Y-110425431D01*
X119940477Y-110692796D01*
X120488900Y-110693274D01*
X120488900Y-112089948D01*
X120252915Y-112325933D01*
X119496840Y-112175540D01*
X119151400Y-112175540D01*
X118021527Y-112400286D01*
X117063667Y-113040307D01*
X116423646Y-113998167D01*
X116198900Y-115128040D01*
X116423646Y-116257913D01*
X117063667Y-117215773D01*
X118021527Y-117855794D01*
X118055981Y-117862647D01*
X118994067Y-118800733D01*
X119951927Y-119440754D01*
X121081800Y-119665500D01*
X134505193Y-119665500D01*
X136417758Y-120785050D01*
X136676140Y-120874489D01*
X136910452Y-121015409D01*
X137215197Y-121061082D01*
X137506392Y-121161879D01*
X137779331Y-121145631D01*
X138049736Y-121186158D01*
X139755923Y-121104911D01*
X139060067Y-121800767D01*
X139036581Y-121835916D01*
X139002109Y-121860381D01*
X138717402Y-122313603D01*
X138420046Y-122758628D01*
X138411799Y-122800088D01*
X138389313Y-122835883D01*
X138299719Y-123363550D01*
X138195300Y-123888500D01*
X138203547Y-123929961D01*
X138196471Y-123971636D01*
X138287655Y-127208679D01*
X137915438Y-127580896D01*
X137915873Y-127081720D01*
X137588865Y-126290300D01*
X136983885Y-125684263D01*
X136193037Y-125355874D01*
X135336720Y-125355127D01*
X134545300Y-125682135D01*
X133939263Y-126287115D01*
X133610874Y-127077963D01*
X133610127Y-127934280D01*
X133788303Y-128365500D01*
X110775500Y-128365500D01*
X110775500Y-127508000D01*
X110550754Y-126378127D01*
X109910733Y-125420267D01*
X109859933Y-125369467D01*
X109716811Y-125273836D01*
X108902073Y-124729446D01*
X107772200Y-124504700D01*
X104495600Y-124504700D01*
X103365727Y-124729446D01*
X102407867Y-125369467D01*
X101767846Y-126327327D01*
X101543100Y-127457200D01*
X101767846Y-128587073D01*
X102407867Y-129544933D01*
X103365727Y-130184954D01*
X104495600Y-130409700D01*
X104870500Y-130409700D01*
X104870500Y-132190534D01*
X104834734Y-132226300D01*
X103047800Y-132226300D01*
X101917927Y-132451046D01*
X100960067Y-133091067D01*
X100320046Y-134048927D01*
X100095300Y-135178800D01*
X100320046Y-136308673D01*
X100960067Y-137266533D01*
X101855887Y-137865100D01*
X87082380Y-137865100D01*
X87082380Y-125603000D01*
X86874675Y-124558797D01*
X87070581Y-124362891D01*
X87089377Y-124370696D01*
X87786565Y-124371304D01*
X88430915Y-124105064D01*
X88924331Y-123612508D01*
X89191696Y-122968623D01*
X89192304Y-122271435D01*
X88926064Y-121627085D01*
X88433508Y-121133669D01*
X87789623Y-120866304D01*
X87092435Y-120865696D01*
X86448085Y-121131936D01*
X85954669Y-121624492D01*
X85687304Y-122268377D01*
X85687237Y-122345051D01*
X85367317Y-122664971D01*
X82484980Y-119782634D01*
X82484980Y-116796323D01*
X90391645Y-116796323D01*
X90535287Y-117079410D01*
X91333510Y-117189608D01*
X91887513Y-117079410D01*
X92031155Y-116796323D01*
X91211400Y-115976568D01*
X90391645Y-116796323D01*
X82484980Y-116796323D01*
X82484980Y-115640045D01*
X85945927Y-115640045D01*
X86305127Y-116162776D01*
X86797960Y-116492045D01*
X87039500Y-116360086D01*
X87039500Y-115398500D01*
X87839500Y-115398500D01*
X87839500Y-116360086D01*
X88081040Y-116492045D01*
X88573873Y-116162776D01*
X88933073Y-115640045D01*
X88808669Y-115398500D01*
X87839500Y-115398500D01*
X87039500Y-115398500D01*
X86070331Y-115398500D01*
X85945927Y-115640045D01*
X82484980Y-115640045D01*
X82484980Y-115250150D01*
X89149832Y-115250150D01*
X89260030Y-115804153D01*
X89543117Y-115947795D01*
X90362872Y-115128040D01*
X92059928Y-115128040D01*
X92879683Y-115947795D01*
X93162770Y-115804153D01*
X93272968Y-115005930D01*
X93162770Y-114451927D01*
X92879683Y-114308285D01*
X92059928Y-115128040D01*
X90362872Y-115128040D01*
X89543117Y-114308285D01*
X89260030Y-114451927D01*
X89149832Y-115250150D01*
X82484980Y-115250150D01*
X82484980Y-114356955D01*
X85945927Y-114356955D01*
X86070331Y-114598500D01*
X87039500Y-114598500D01*
X87039500Y-113636914D01*
X87839500Y-113636914D01*
X87839500Y-114598500D01*
X88808669Y-114598500D01*
X88933073Y-114356955D01*
X88573873Y-113834224D01*
X88081040Y-113504955D01*
X87839500Y-113636914D01*
X87039500Y-113636914D01*
X86797960Y-113504955D01*
X86305127Y-113834224D01*
X85945927Y-114356955D01*
X82484980Y-114356955D01*
X82484980Y-113459757D01*
X90391645Y-113459757D01*
X91211400Y-114279512D01*
X92031155Y-113459757D01*
X91887513Y-113176670D01*
X91089290Y-113066472D01*
X90535287Y-113176670D01*
X90391645Y-113459757D01*
X82484980Y-113459757D01*
X82484980Y-110871000D01*
X82260234Y-109741127D01*
X82190340Y-109636523D01*
X82190340Y-103767700D01*
X84816127Y-103767700D01*
X84863257Y-104018175D01*
X84863257Y-104018175D01*
G37*
X84863257Y-104018175D02*
X85071865Y-104342362D01*
X85390164Y-104559846D01*
X85665500Y-104615603D01*
X85665500Y-105689400D01*
X85757035Y-106149577D01*
X86017704Y-106539696D01*
X88075104Y-108597096D01*
X88465223Y-108857765D01*
X88925400Y-108949300D01*
X91617800Y-108949300D01*
X92077977Y-108857765D01*
X92468096Y-108597096D01*
X93808632Y-107256560D01*
X94049768Y-107256560D01*
X94592744Y-107799536D01*
X94982863Y-108060205D01*
X95443040Y-108151740D01*
X113720584Y-108151740D01*
X113538404Y-108590477D01*
X113537796Y-109287665D01*
X113804036Y-109932015D01*
X114296592Y-110425431D01*
X114940477Y-110692796D01*
X115637665Y-110693404D01*
X116282015Y-110427164D01*
X116775431Y-109934608D01*
X117042796Y-109290723D01*
X117043404Y-108593535D01*
X116860858Y-108151740D01*
X117312440Y-108151740D01*
X117772617Y-108060205D01*
X118162736Y-107799536D01*
X118269744Y-107692528D01*
X118734747Y-108003233D01*
X118778625Y-108011961D01*
X118538404Y-108590477D01*
X118537796Y-109287665D01*
X118804036Y-109932015D01*
X119296592Y-110425431D01*
X119940477Y-110692796D01*
X120488900Y-110693274D01*
X120488900Y-112089948D01*
X120252915Y-112325933D01*
X119496840Y-112175540D01*
X119151400Y-112175540D01*
X118021527Y-112400286D01*
X117063667Y-113040307D01*
X116423646Y-113998167D01*
X116198900Y-115128040D01*
X116423646Y-116257913D01*
X117063667Y-117215773D01*
X118021527Y-117855794D01*
X118055981Y-117862647D01*
X118994067Y-118800733D01*
X119951927Y-119440754D01*
X121081800Y-119665500D01*
X134505193Y-119665500D01*
X136417758Y-120785050D01*
X136676140Y-120874489D01*
X136910452Y-121015409D01*
X137215197Y-121061082D01*
X137506392Y-121161879D01*
X137779331Y-121145631D01*
X138049736Y-121186158D01*
X139755923Y-121104911D01*
X139060067Y-121800767D01*
X139036581Y-121835916D01*
X139002109Y-121860381D01*
X138717402Y-122313603D01*
X138420046Y-122758628D01*
X138411799Y-122800088D01*
X138389313Y-122835883D01*
X138299719Y-123363550D01*
X138195300Y-123888500D01*
X138203547Y-123929961D01*
X138196471Y-123971636D01*
X138287655Y-127208679D01*
X137915438Y-127580896D01*
X137915873Y-127081720D01*
X137588865Y-126290300D01*
X136983885Y-125684263D01*
X136193037Y-125355874D01*
X135336720Y-125355127D01*
X134545300Y-125682135D01*
X133939263Y-126287115D01*
X133610874Y-127077963D01*
X133610127Y-127934280D01*
X133788303Y-128365500D01*
X110775500Y-128365500D01*
X110775500Y-127508000D01*
X110550754Y-126378127D01*
X109910733Y-125420267D01*
X109859933Y-125369467D01*
X109716811Y-125273836D01*
X108902073Y-124729446D01*
X107772200Y-124504700D01*
X104495600Y-124504700D01*
X103365727Y-124729446D01*
X102407867Y-125369467D01*
X101767846Y-126327327D01*
X101543100Y-127457200D01*
X101767846Y-128587073D01*
X102407867Y-129544933D01*
X103365727Y-130184954D01*
X104495600Y-130409700D01*
X104870500Y-130409700D01*
X104870500Y-132190534D01*
X104834734Y-132226300D01*
X103047800Y-132226300D01*
X101917927Y-132451046D01*
X100960067Y-133091067D01*
X100320046Y-134048927D01*
X100095300Y-135178800D01*
X100320046Y-136308673D01*
X100960067Y-137266533D01*
X101855887Y-137865100D01*
X87082380Y-137865100D01*
X87082380Y-125603000D01*
X86874675Y-124558797D01*
X87070581Y-124362891D01*
X87089377Y-124370696D01*
X87786565Y-124371304D01*
X88430915Y-124105064D01*
X88924331Y-123612508D01*
X89191696Y-122968623D01*
X89192304Y-122271435D01*
X88926064Y-121627085D01*
X88433508Y-121133669D01*
X87789623Y-120866304D01*
X87092435Y-120865696D01*
X86448085Y-121131936D01*
X85954669Y-121624492D01*
X85687304Y-122268377D01*
X85687237Y-122345051D01*
X85367317Y-122664971D01*
X82484980Y-119782634D01*
X82484980Y-116796323D01*
X90391645Y-116796323D01*
X90535287Y-117079410D01*
X91333510Y-117189608D01*
X91887513Y-117079410D01*
X92031155Y-116796323D01*
X91211400Y-115976568D01*
X90391645Y-116796323D01*
X82484980Y-116796323D01*
X82484980Y-115640045D01*
X85945927Y-115640045D01*
X86305127Y-116162776D01*
X86797960Y-116492045D01*
X87039500Y-116360086D01*
X87039500Y-115398500D01*
X87839500Y-115398500D01*
X87839500Y-116360086D01*
X88081040Y-116492045D01*
X88573873Y-116162776D01*
X88933073Y-115640045D01*
X88808669Y-115398500D01*
X87839500Y-115398500D01*
X87039500Y-115398500D01*
X86070331Y-115398500D01*
X85945927Y-115640045D01*
X82484980Y-115640045D01*
X82484980Y-115250150D01*
X89149832Y-115250150D01*
X89260030Y-115804153D01*
X89543117Y-115947795D01*
X90362872Y-115128040D01*
X92059928Y-115128040D01*
X92879683Y-115947795D01*
X93162770Y-115804153D01*
X93272968Y-115005930D01*
X93162770Y-114451927D01*
X92879683Y-114308285D01*
X92059928Y-115128040D01*
X90362872Y-115128040D01*
X89543117Y-114308285D01*
X89260030Y-114451927D01*
X89149832Y-115250150D01*
X82484980Y-115250150D01*
X82484980Y-114356955D01*
X85945927Y-114356955D01*
X86070331Y-114598500D01*
X87039500Y-114598500D01*
X87039500Y-113636914D01*
X87839500Y-113636914D01*
X87839500Y-114598500D01*
X88808669Y-114598500D01*
X88933073Y-114356955D01*
X88573873Y-113834224D01*
X88081040Y-113504955D01*
X87839500Y-113636914D01*
X87039500Y-113636914D01*
X86797960Y-113504955D01*
X86305127Y-113834224D01*
X85945927Y-114356955D01*
X82484980Y-114356955D01*
X82484980Y-113459757D01*
X90391645Y-113459757D01*
X91211400Y-114279512D01*
X92031155Y-113459757D01*
X91887513Y-113176670D01*
X91089290Y-113066472D01*
X90535287Y-113176670D01*
X90391645Y-113459757D01*
X82484980Y-113459757D01*
X82484980Y-110871000D01*
X82260234Y-109741127D01*
X82190340Y-109636523D01*
X82190340Y-103767700D01*
X84816127Y-103767700D01*
X84863257Y-104018175D01*
G36*
X148972500Y-65631187D02*
X148964845Y-65625927D01*
X148723300Y-65750331D01*
X148723300Y-66719500D01*
X148972500Y-66719500D01*
X148972500Y-67519500D01*
X148723300Y-67519500D01*
X148723300Y-68488669D01*
X148964845Y-68613073D01*
X148972500Y-68607813D01*
X148972500Y-126737647D01*
X148321526Y-126302679D01*
X147497800Y-126138830D01*
X146674074Y-126302679D01*
X146029300Y-126733504D01*
X146029300Y-126331646D01*
X146873870Y-125487075D01*
X146873873Y-125487073D01*
X147188735Y-125015848D01*
X147299300Y-124460000D01*
X147299300Y-117094005D01*
X147299301Y-117094000D01*
X147207079Y-116630374D01*
X147188735Y-116538152D01*
X146873873Y-116066927D01*
X145179491Y-114372545D01*
X145414118Y-114325875D01*
X146047555Y-113902626D01*
X146470804Y-113269189D01*
X146619429Y-112522000D01*
X146470804Y-111774811D01*
X146047555Y-111141374D01*
X145996118Y-111107005D01*
X146278658Y-110750495D01*
X146162789Y-110482000D01*
X144972800Y-110482000D01*
X144972800Y-110630341D01*
X144666929Y-110569500D01*
X143978671Y-110569500D01*
X143672800Y-110630341D01*
X143672800Y-110482000D01*
X143120300Y-110482000D01*
X143120300Y-110081200D01*
X143922788Y-109383384D01*
X143978671Y-109394500D01*
X144666929Y-109394500D01*
X144972800Y-109333659D01*
X144972800Y-109482000D01*
X146162789Y-109482000D01*
X146278658Y-109213505D01*
X145996118Y-108856995D01*
X146047555Y-108822626D01*
X146470804Y-108189189D01*
X146619429Y-107442000D01*
X146470804Y-106694811D01*
X146353678Y-106519519D01*
X146517446Y-106279836D01*
X146593960Y-105902000D01*
X146593960Y-103902000D01*
X146527543Y-103549025D01*
X146318935Y-103224838D01*
X146000636Y-103007354D01*
X145622800Y-102930840D01*
X143022800Y-102930840D01*
X142669825Y-102997257D01*
X142345638Y-103205865D01*
X142128154Y-103524164D01*
X142051640Y-103902000D01*
X142051640Y-105902000D01*
X142118057Y-106254975D01*
X142290070Y-106522291D01*
X142174796Y-106694811D01*
X142026171Y-107442000D01*
X142094600Y-107786017D01*
X141196945Y-108566587D01*
X141170978Y-108600135D01*
X141135704Y-108623704D01*
X138831068Y-110928340D01*
X138390904Y-110928340D01*
X138479621Y-110795566D01*
X138643470Y-109971840D01*
X138479621Y-109148114D01*
X138013017Y-108449793D01*
X137651300Y-108208101D01*
X137651300Y-103434660D01*
X138963300Y-103434660D01*
X139316275Y-103368243D01*
X139640462Y-103159635D01*
X139857946Y-102841336D01*
X139934460Y-102463500D01*
X139934460Y-100863500D01*
X139868043Y-100510525D01*
X139668086Y-100199782D01*
X140481618Y-100199782D01*
X140816222Y-101009586D01*
X141435255Y-101629700D01*
X142244474Y-101965717D01*
X143120682Y-101966482D01*
X143930486Y-101631878D01*
X144550600Y-101012845D01*
X144886617Y-100203626D01*
X144887382Y-99327418D01*
X144552778Y-98517614D01*
X143933745Y-97897500D01*
X143124526Y-97561483D01*
X142248318Y-97560718D01*
X141438514Y-97895322D01*
X140818400Y-98514355D01*
X140482383Y-99323574D01*
X140481618Y-100199782D01*
X139668086Y-100199782D01*
X139659435Y-100186338D01*
X139341136Y-99968854D01*
X139330712Y-99966743D01*
X139271627Y-97130660D01*
X139644300Y-97130660D01*
X139997275Y-97064243D01*
X140321462Y-96855635D01*
X140538946Y-96537336D01*
X140615460Y-96159500D01*
X140615460Y-95523705D01*
X140816222Y-96009586D01*
X141435255Y-96629700D01*
X142244474Y-96965717D01*
X143120682Y-96966482D01*
X143930486Y-96631878D01*
X144550600Y-96012845D01*
X144886617Y-95203626D01*
X144887382Y-94327418D01*
X144552778Y-93517614D01*
X143933745Y-92897500D01*
X143124526Y-92561483D01*
X142248318Y-92560718D01*
X142201539Y-92580047D01*
X141443096Y-91821604D01*
X141062299Y-91567164D01*
X141153522Y-91347475D01*
X141435255Y-91629700D01*
X142244474Y-91965717D01*
X143120682Y-91966482D01*
X143930486Y-91631878D01*
X144550600Y-91012845D01*
X144570010Y-90966100D01*
X145173700Y-90966100D01*
X145633877Y-90874565D01*
X146023996Y-90613896D01*
X146887596Y-89750296D01*
X146902175Y-89728477D01*
X147148265Y-89360177D01*
X147239800Y-88900000D01*
X147239800Y-68309379D01*
X147681755Y-68613073D01*
X147923300Y-68488669D01*
X147923300Y-67519500D01*
X147523300Y-67519500D01*
X147523300Y-66719500D01*
X147923300Y-66719500D01*
X147923300Y-65750331D01*
X147681755Y-65625927D01*
X147239800Y-65929621D01*
X147239800Y-65776092D01*
X148972500Y-64043392D01*
X148972500Y-65631187D01*
X148972500Y-65631187D01*
G37*
X148972500Y-65631187D02*
X148964845Y-65625927D01*
X148723300Y-65750331D01*
X148723300Y-66719500D01*
X148972500Y-66719500D01*
X148972500Y-67519500D01*
X148723300Y-67519500D01*
X148723300Y-68488669D01*
X148964845Y-68613073D01*
X148972500Y-68607813D01*
X148972500Y-126737647D01*
X148321526Y-126302679D01*
X147497800Y-126138830D01*
X146674074Y-126302679D01*
X146029300Y-126733504D01*
X146029300Y-126331646D01*
X146873870Y-125487075D01*
X146873873Y-125487073D01*
X147188735Y-125015848D01*
X147299300Y-124460000D01*
X147299300Y-117094005D01*
X147299301Y-117094000D01*
X147207079Y-116630374D01*
X147188735Y-116538152D01*
X146873873Y-116066927D01*
X145179491Y-114372545D01*
X145414118Y-114325875D01*
X146047555Y-113902626D01*
X146470804Y-113269189D01*
X146619429Y-112522000D01*
X146470804Y-111774811D01*
X146047555Y-111141374D01*
X145996118Y-111107005D01*
X146278658Y-110750495D01*
X146162789Y-110482000D01*
X144972800Y-110482000D01*
X144972800Y-110630341D01*
X144666929Y-110569500D01*
X143978671Y-110569500D01*
X143672800Y-110630341D01*
X143672800Y-110482000D01*
X143120300Y-110482000D01*
X143120300Y-110081200D01*
X143922788Y-109383384D01*
X143978671Y-109394500D01*
X144666929Y-109394500D01*
X144972800Y-109333659D01*
X144972800Y-109482000D01*
X146162789Y-109482000D01*
X146278658Y-109213505D01*
X145996118Y-108856995D01*
X146047555Y-108822626D01*
X146470804Y-108189189D01*
X146619429Y-107442000D01*
X146470804Y-106694811D01*
X146353678Y-106519519D01*
X146517446Y-106279836D01*
X146593960Y-105902000D01*
X146593960Y-103902000D01*
X146527543Y-103549025D01*
X146318935Y-103224838D01*
X146000636Y-103007354D01*
X145622800Y-102930840D01*
X143022800Y-102930840D01*
X142669825Y-102997257D01*
X142345638Y-103205865D01*
X142128154Y-103524164D01*
X142051640Y-103902000D01*
X142051640Y-105902000D01*
X142118057Y-106254975D01*
X142290070Y-106522291D01*
X142174796Y-106694811D01*
X142026171Y-107442000D01*
X142094600Y-107786017D01*
X141196945Y-108566587D01*
X141170978Y-108600135D01*
X141135704Y-108623704D01*
X138831068Y-110928340D01*
X138390904Y-110928340D01*
X138479621Y-110795566D01*
X138643470Y-109971840D01*
X138479621Y-109148114D01*
X138013017Y-108449793D01*
X137651300Y-108208101D01*
X137651300Y-103434660D01*
X138963300Y-103434660D01*
X139316275Y-103368243D01*
X139640462Y-103159635D01*
X139857946Y-102841336D01*
X139934460Y-102463500D01*
X139934460Y-100863500D01*
X139868043Y-100510525D01*
X139668086Y-100199782D01*
X140481618Y-100199782D01*
X140816222Y-101009586D01*
X141435255Y-101629700D01*
X142244474Y-101965717D01*
X143120682Y-101966482D01*
X143930486Y-101631878D01*
X144550600Y-101012845D01*
X144886617Y-100203626D01*
X144887382Y-99327418D01*
X144552778Y-98517614D01*
X143933745Y-97897500D01*
X143124526Y-97561483D01*
X142248318Y-97560718D01*
X141438514Y-97895322D01*
X140818400Y-98514355D01*
X140482383Y-99323574D01*
X140481618Y-100199782D01*
X139668086Y-100199782D01*
X139659435Y-100186338D01*
X139341136Y-99968854D01*
X139330712Y-99966743D01*
X139271627Y-97130660D01*
X139644300Y-97130660D01*
X139997275Y-97064243D01*
X140321462Y-96855635D01*
X140538946Y-96537336D01*
X140615460Y-96159500D01*
X140615460Y-95523705D01*
X140816222Y-96009586D01*
X141435255Y-96629700D01*
X142244474Y-96965717D01*
X143120682Y-96966482D01*
X143930486Y-96631878D01*
X144550600Y-96012845D01*
X144886617Y-95203626D01*
X144887382Y-94327418D01*
X144552778Y-93517614D01*
X143933745Y-92897500D01*
X143124526Y-92561483D01*
X142248318Y-92560718D01*
X142201539Y-92580047D01*
X141443096Y-91821604D01*
X141062299Y-91567164D01*
X141153522Y-91347475D01*
X141435255Y-91629700D01*
X142244474Y-91965717D01*
X143120682Y-91966482D01*
X143930486Y-91631878D01*
X144550600Y-91012845D01*
X144570010Y-90966100D01*
X145173700Y-90966100D01*
X145633877Y-90874565D01*
X146023996Y-90613896D01*
X146887596Y-89750296D01*
X146902175Y-89728477D01*
X147148265Y-89360177D01*
X147239800Y-88900000D01*
X147239800Y-68309379D01*
X147681755Y-68613073D01*
X147923300Y-68488669D01*
X147923300Y-67519500D01*
X147523300Y-67519500D01*
X147523300Y-66719500D01*
X147923300Y-66719500D01*
X147923300Y-65750331D01*
X147681755Y-65625927D01*
X147239800Y-65929621D01*
X147239800Y-65776092D01*
X148972500Y-64043392D01*
X148972500Y-65631187D01*
G36*
X127638144Y-85483096D02*
X128028263Y-85743765D01*
X128488440Y-85835300D01*
X131794812Y-85835300D01*
X131740966Y-86106000D01*
X131874367Y-86776653D01*
X132254261Y-87345205D01*
X132325300Y-87392672D01*
X132325300Y-88931752D01*
X131974634Y-88862000D01*
X131905966Y-88862000D01*
X131903529Y-88862485D01*
X131661564Y-88276885D01*
X131169008Y-87783469D01*
X130525123Y-87516104D01*
X129827935Y-87515496D01*
X129183585Y-87781736D01*
X128690169Y-88274292D01*
X128422804Y-88918177D01*
X128422196Y-89615365D01*
X128688436Y-90259715D01*
X129180992Y-90753131D01*
X129824877Y-91020496D01*
X130234295Y-91020853D01*
X130286867Y-91285153D01*
X130666761Y-91853705D01*
X130737800Y-91901172D01*
X130737800Y-93036099D01*
X130098631Y-93163237D01*
X129432752Y-93608163D01*
X128987826Y-94274042D01*
X128831589Y-95059500D01*
X128987826Y-95844958D01*
X129432752Y-96510837D01*
X129870074Y-96803046D01*
X129870228Y-96804320D01*
X129921991Y-96962152D01*
X129955135Y-97124915D01*
X131560959Y-100952487D01*
X131411104Y-101313377D01*
X131410496Y-102010565D01*
X131676736Y-102654915D01*
X132169292Y-103148331D01*
X132813177Y-103415696D01*
X132971427Y-103415834D01*
X133163300Y-103454000D01*
X133353498Y-103416167D01*
X133510365Y-103416304D01*
X134154715Y-103150064D01*
X134648131Y-102657508D01*
X134915496Y-102013623D01*
X134916104Y-101316435D01*
X134649864Y-100672085D01*
X134157308Y-100178669D01*
X133778381Y-100021325D01*
X132329729Y-96568380D01*
X132415848Y-96510837D01*
X132860774Y-95844958D01*
X133017011Y-95059500D01*
X132939672Y-94670688D01*
X133051265Y-94503677D01*
X133142800Y-94043500D01*
X133142800Y-91901172D01*
X133213839Y-91853705D01*
X133551567Y-91348259D01*
X135725504Y-93522196D01*
X136115623Y-93782865D01*
X136493681Y-93858066D01*
X136473140Y-93959500D01*
X136473140Y-96159500D01*
X136539557Y-96512475D01*
X136748165Y-96836662D01*
X136861595Y-96914165D01*
X136926152Y-100012921D01*
X136686138Y-100167365D01*
X136468654Y-100485664D01*
X136392140Y-100863500D01*
X136392140Y-101057102D01*
X136016571Y-101201766D01*
X136003635Y-101209949D01*
X135988623Y-101212935D01*
X135805832Y-101335072D01*
X135620050Y-101452591D01*
X135611231Y-101465100D01*
X135598504Y-101473604D01*
X135476371Y-101656389D01*
X135349699Y-101836064D01*
X135346338Y-101850997D01*
X135337835Y-101863723D01*
X135294947Y-102079335D01*
X135246677Y-102293806D01*
X135249286Y-102308887D01*
X135246300Y-102323900D01*
X135246300Y-107068748D01*
X133816756Y-105639204D01*
X133426637Y-105378535D01*
X132966460Y-105287000D01*
X124072147Y-105287000D01*
X123972077Y-105186756D01*
X123907265Y-104860923D01*
X123646596Y-104470804D01*
X120814496Y-101638704D01*
X120424377Y-101378035D01*
X119964200Y-101286500D01*
X116632618Y-101286500D01*
X116908473Y-100873653D01*
X117041874Y-100203000D01*
X116908473Y-99532347D01*
X116528579Y-98963795D01*
X116482531Y-98933027D01*
X116834605Y-98697779D01*
X117214499Y-98129227D01*
X117347900Y-97458574D01*
X117347900Y-97389906D01*
X117214499Y-96719253D01*
X116834605Y-96150701D01*
X116797900Y-96126176D01*
X116797900Y-93913960D01*
X116706365Y-93453783D01*
X116445696Y-93063664D01*
X114720604Y-91338572D01*
X115245277Y-91556436D01*
X115942465Y-91557044D01*
X116586815Y-91290804D01*
X117080231Y-90798248D01*
X117347596Y-90154363D01*
X117348204Y-89457175D01*
X117259216Y-89241808D01*
X118226883Y-90209475D01*
X117923300Y-90334913D01*
X117514349Y-90743151D01*
X117292753Y-91276812D01*
X117292249Y-91854653D01*
X117512913Y-92388700D01*
X117921151Y-92797651D01*
X118454812Y-93019247D01*
X118689500Y-93019452D01*
X118689500Y-94019502D01*
X119030069Y-94019502D01*
X119047392Y-94036825D01*
X119350798Y-94162500D01*
X119558625Y-94162500D01*
X119765000Y-93956125D01*
X119765000Y-93087000D01*
X119515000Y-93087000D01*
X119515000Y-92820449D01*
X119566700Y-92799087D01*
X119596339Y-92769500D01*
X120456708Y-92769500D01*
X120463500Y-92776292D01*
X120463500Y-93087000D01*
X120265000Y-93087000D01*
X120265000Y-93956125D01*
X120463500Y-94154625D01*
X120463500Y-94218508D01*
X118555104Y-96126904D01*
X118294435Y-96517023D01*
X118202900Y-96977200D01*
X118202900Y-97453953D01*
X117920569Y-97735792D01*
X117653204Y-98379677D01*
X117652596Y-99076865D01*
X117918836Y-99721215D01*
X118411392Y-100214631D01*
X119055277Y-100481996D01*
X119752465Y-100482604D01*
X120396815Y-100216364D01*
X120890231Y-99723808D01*
X121104338Y-99208181D01*
X121177201Y-99574487D01*
X121557095Y-100143039D01*
X122125647Y-100522933D01*
X122796300Y-100656334D01*
X123466953Y-100522933D01*
X124035505Y-100143039D01*
X124415399Y-99574487D01*
X124548800Y-98903834D01*
X124548800Y-98835166D01*
X124415399Y-98164513D01*
X124035505Y-97595961D01*
X123998800Y-97571436D01*
X123998800Y-90570621D01*
X124180992Y-90753131D01*
X124824877Y-91020496D01*
X125522065Y-91021104D01*
X126166415Y-90754864D01*
X126659831Y-90262308D01*
X126927196Y-89618423D01*
X126927804Y-88921235D01*
X126661564Y-88276885D01*
X126377500Y-87992325D01*
X126377500Y-87808132D01*
X126899215Y-87592564D01*
X127392631Y-87100008D01*
X127659996Y-86456123D01*
X127660604Y-85758935D01*
X127482191Y-85327143D01*
X127638144Y-85483096D01*
X127638144Y-85483096D01*
G37*
X127638144Y-85483096D02*
X128028263Y-85743765D01*
X128488440Y-85835300D01*
X131794812Y-85835300D01*
X131740966Y-86106000D01*
X131874367Y-86776653D01*
X132254261Y-87345205D01*
X132325300Y-87392672D01*
X132325300Y-88931752D01*
X131974634Y-88862000D01*
X131905966Y-88862000D01*
X131903529Y-88862485D01*
X131661564Y-88276885D01*
X131169008Y-87783469D01*
X130525123Y-87516104D01*
X129827935Y-87515496D01*
X129183585Y-87781736D01*
X128690169Y-88274292D01*
X128422804Y-88918177D01*
X128422196Y-89615365D01*
X128688436Y-90259715D01*
X129180992Y-90753131D01*
X129824877Y-91020496D01*
X130234295Y-91020853D01*
X130286867Y-91285153D01*
X130666761Y-91853705D01*
X130737800Y-91901172D01*
X130737800Y-93036099D01*
X130098631Y-93163237D01*
X129432752Y-93608163D01*
X128987826Y-94274042D01*
X128831589Y-95059500D01*
X128987826Y-95844958D01*
X129432752Y-96510837D01*
X129870074Y-96803046D01*
X129870228Y-96804320D01*
X129921991Y-96962152D01*
X129955135Y-97124915D01*
X131560959Y-100952487D01*
X131411104Y-101313377D01*
X131410496Y-102010565D01*
X131676736Y-102654915D01*
X132169292Y-103148331D01*
X132813177Y-103415696D01*
X132971427Y-103415834D01*
X133163300Y-103454000D01*
X133353498Y-103416167D01*
X133510365Y-103416304D01*
X134154715Y-103150064D01*
X134648131Y-102657508D01*
X134915496Y-102013623D01*
X134916104Y-101316435D01*
X134649864Y-100672085D01*
X134157308Y-100178669D01*
X133778381Y-100021325D01*
X132329729Y-96568380D01*
X132415848Y-96510837D01*
X132860774Y-95844958D01*
X133017011Y-95059500D01*
X132939672Y-94670688D01*
X133051265Y-94503677D01*
X133142800Y-94043500D01*
X133142800Y-91901172D01*
X133213839Y-91853705D01*
X133551567Y-91348259D01*
X135725504Y-93522196D01*
X136115623Y-93782865D01*
X136493681Y-93858066D01*
X136473140Y-93959500D01*
X136473140Y-96159500D01*
X136539557Y-96512475D01*
X136748165Y-96836662D01*
X136861595Y-96914165D01*
X136926152Y-100012921D01*
X136686138Y-100167365D01*
X136468654Y-100485664D01*
X136392140Y-100863500D01*
X136392140Y-101057102D01*
X136016571Y-101201766D01*
X136003635Y-101209949D01*
X135988623Y-101212935D01*
X135805832Y-101335072D01*
X135620050Y-101452591D01*
X135611231Y-101465100D01*
X135598504Y-101473604D01*
X135476371Y-101656389D01*
X135349699Y-101836064D01*
X135346338Y-101850997D01*
X135337835Y-101863723D01*
X135294947Y-102079335D01*
X135246677Y-102293806D01*
X135249286Y-102308887D01*
X135246300Y-102323900D01*
X135246300Y-107068748D01*
X133816756Y-105639204D01*
X133426637Y-105378535D01*
X132966460Y-105287000D01*
X124072147Y-105287000D01*
X123972077Y-105186756D01*
X123907265Y-104860923D01*
X123646596Y-104470804D01*
X120814496Y-101638704D01*
X120424377Y-101378035D01*
X119964200Y-101286500D01*
X116632618Y-101286500D01*
X116908473Y-100873653D01*
X117041874Y-100203000D01*
X116908473Y-99532347D01*
X116528579Y-98963795D01*
X116482531Y-98933027D01*
X116834605Y-98697779D01*
X117214499Y-98129227D01*
X117347900Y-97458574D01*
X117347900Y-97389906D01*
X117214499Y-96719253D01*
X116834605Y-96150701D01*
X116797900Y-96126176D01*
X116797900Y-93913960D01*
X116706365Y-93453783D01*
X116445696Y-93063664D01*
X114720604Y-91338572D01*
X115245277Y-91556436D01*
X115942465Y-91557044D01*
X116586815Y-91290804D01*
X117080231Y-90798248D01*
X117347596Y-90154363D01*
X117348204Y-89457175D01*
X117259216Y-89241808D01*
X118226883Y-90209475D01*
X117923300Y-90334913D01*
X117514349Y-90743151D01*
X117292753Y-91276812D01*
X117292249Y-91854653D01*
X117512913Y-92388700D01*
X117921151Y-92797651D01*
X118454812Y-93019247D01*
X118689500Y-93019452D01*
X118689500Y-94019502D01*
X119030069Y-94019502D01*
X119047392Y-94036825D01*
X119350798Y-94162500D01*
X119558625Y-94162500D01*
X119765000Y-93956125D01*
X119765000Y-93087000D01*
X119515000Y-93087000D01*
X119515000Y-92820449D01*
X119566700Y-92799087D01*
X119596339Y-92769500D01*
X120456708Y-92769500D01*
X120463500Y-92776292D01*
X120463500Y-93087000D01*
X120265000Y-93087000D01*
X120265000Y-93956125D01*
X120463500Y-94154625D01*
X120463500Y-94218508D01*
X118555104Y-96126904D01*
X118294435Y-96517023D01*
X118202900Y-96977200D01*
X118202900Y-97453953D01*
X117920569Y-97735792D01*
X117653204Y-98379677D01*
X117652596Y-99076865D01*
X117918836Y-99721215D01*
X118411392Y-100214631D01*
X119055277Y-100481996D01*
X119752465Y-100482604D01*
X120396815Y-100216364D01*
X120890231Y-99723808D01*
X121104338Y-99208181D01*
X121177201Y-99574487D01*
X121557095Y-100143039D01*
X122125647Y-100522933D01*
X122796300Y-100656334D01*
X123466953Y-100522933D01*
X124035505Y-100143039D01*
X124415399Y-99574487D01*
X124548800Y-98903834D01*
X124548800Y-98835166D01*
X124415399Y-98164513D01*
X124035505Y-97595961D01*
X123998800Y-97571436D01*
X123998800Y-90570621D01*
X124180992Y-90753131D01*
X124824877Y-91020496D01*
X125522065Y-91021104D01*
X126166415Y-90754864D01*
X126659831Y-90262308D01*
X126927196Y-89618423D01*
X126927804Y-88921235D01*
X126661564Y-88276885D01*
X126377500Y-87992325D01*
X126377500Y-87808132D01*
X126899215Y-87592564D01*
X127392631Y-87100008D01*
X127659996Y-86456123D01*
X127660604Y-85758935D01*
X127482191Y-85327143D01*
X127638144Y-85483096D01*
G36*
X111131287Y-96179639D02*
X110811461Y-96658293D01*
X110712579Y-97155406D01*
X110619138Y-96685642D01*
X110351916Y-96604009D01*
X109648525Y-97307400D01*
X110351916Y-98010791D01*
X110619138Y-97929158D01*
X110699678Y-97506297D01*
X110811461Y-98068267D01*
X111191355Y-98636819D01*
X111759907Y-99016713D01*
X112430560Y-99150114D01*
X112712821Y-99093969D01*
X112747075Y-99266177D01*
X113007744Y-99656296D01*
X113482514Y-100131066D01*
X113468206Y-100203000D01*
X113601607Y-100873653D01*
X113877462Y-101286500D01*
X111089692Y-101286500D01*
X109196824Y-99393632D01*
X109121604Y-99211585D01*
X108986403Y-99076148D01*
X109098242Y-98964309D01*
X109704598Y-98843698D01*
X109786231Y-98576476D01*
X109082840Y-97873085D01*
X108799997Y-98155928D01*
X108234312Y-97590243D01*
X108517155Y-97307400D01*
X107813764Y-96604009D01*
X107546542Y-96685642D01*
X107432257Y-97285672D01*
X107079163Y-97638767D01*
X107891118Y-98450722D01*
X107287975Y-98450196D01*
X106643625Y-98716436D01*
X106150209Y-99208992D01*
X105882844Y-99852877D01*
X105882325Y-100447933D01*
X103056500Y-97622108D01*
X103056500Y-96666807D01*
X103124153Y-96599273D01*
X103445368Y-96921050D01*
X104059860Y-97176209D01*
X104725221Y-97176789D01*
X105340157Y-96922703D01*
X105811050Y-96452632D01*
X105983085Y-96038324D01*
X108379449Y-96038324D01*
X109082840Y-96741715D01*
X109786231Y-96038324D01*
X109704598Y-95771102D01*
X109069354Y-95650110D01*
X108461082Y-95771102D01*
X108379449Y-96038324D01*
X105983085Y-96038324D01*
X106066209Y-95838140D01*
X106066789Y-95172779D01*
X105812703Y-94557843D01*
X105342632Y-94086950D01*
X104901017Y-93903575D01*
X105615008Y-93189584D01*
X105629666Y-93192500D01*
X105698334Y-93192500D01*
X106368987Y-93059099D01*
X106937539Y-92679205D01*
X106962064Y-92642500D01*
X107594148Y-92642500D01*
X111131287Y-96179639D01*
X111131287Y-96179639D01*
G37*
X111131287Y-96179639D02*
X110811461Y-96658293D01*
X110712579Y-97155406D01*
X110619138Y-96685642D01*
X110351916Y-96604009D01*
X109648525Y-97307400D01*
X110351916Y-98010791D01*
X110619138Y-97929158D01*
X110699678Y-97506297D01*
X110811461Y-98068267D01*
X111191355Y-98636819D01*
X111759907Y-99016713D01*
X112430560Y-99150114D01*
X112712821Y-99093969D01*
X112747075Y-99266177D01*
X113007744Y-99656296D01*
X113482514Y-100131066D01*
X113468206Y-100203000D01*
X113601607Y-100873653D01*
X113877462Y-101286500D01*
X111089692Y-101286500D01*
X109196824Y-99393632D01*
X109121604Y-99211585D01*
X108986403Y-99076148D01*
X109098242Y-98964309D01*
X109704598Y-98843698D01*
X109786231Y-98576476D01*
X109082840Y-97873085D01*
X108799997Y-98155928D01*
X108234312Y-97590243D01*
X108517155Y-97307400D01*
X107813764Y-96604009D01*
X107546542Y-96685642D01*
X107432257Y-97285672D01*
X107079163Y-97638767D01*
X107891118Y-98450722D01*
X107287975Y-98450196D01*
X106643625Y-98716436D01*
X106150209Y-99208992D01*
X105882844Y-99852877D01*
X105882325Y-100447933D01*
X103056500Y-97622108D01*
X103056500Y-96666807D01*
X103124153Y-96599273D01*
X103445368Y-96921050D01*
X104059860Y-97176209D01*
X104725221Y-97176789D01*
X105340157Y-96922703D01*
X105811050Y-96452632D01*
X105983085Y-96038324D01*
X108379449Y-96038324D01*
X109082840Y-96741715D01*
X109786231Y-96038324D01*
X109704598Y-95771102D01*
X109069354Y-95650110D01*
X108461082Y-95771102D01*
X108379449Y-96038324D01*
X105983085Y-96038324D01*
X106066209Y-95838140D01*
X106066789Y-95172779D01*
X105812703Y-94557843D01*
X105342632Y-94086950D01*
X104901017Y-93903575D01*
X105615008Y-93189584D01*
X105629666Y-93192500D01*
X105698334Y-93192500D01*
X106368987Y-93059099D01*
X106937539Y-92679205D01*
X106962064Y-92642500D01*
X107594148Y-92642500D01*
X111131287Y-96179639D01*
G36*
X107472795Y-88141539D02*
X107861994Y-88401594D01*
X107843635Y-88413861D01*
X107463741Y-88982413D01*
X107330340Y-89653066D01*
X107330340Y-89721734D01*
X107432932Y-90237500D01*
X106962064Y-90237500D01*
X106937539Y-90200795D01*
X106368987Y-89820901D01*
X106208610Y-89789000D01*
X106368987Y-89757099D01*
X106937539Y-89377205D01*
X107317433Y-88808653D01*
X107450834Y-88138000D01*
X107442528Y-88096240D01*
X107472795Y-88141539D01*
X107472795Y-88141539D01*
G37*
X107472795Y-88141539D02*
X107861994Y-88401594D01*
X107843635Y-88413861D01*
X107463741Y-88982413D01*
X107330340Y-89653066D01*
X107330340Y-89721734D01*
X107432932Y-90237500D01*
X106962064Y-90237500D01*
X106937539Y-90200795D01*
X106368987Y-89820901D01*
X106208610Y-89789000D01*
X106368987Y-89757099D01*
X106937539Y-89377205D01*
X107317433Y-88808653D01*
X107450834Y-88138000D01*
X107442528Y-88096240D01*
X107472795Y-88141539D01*
G36*
X84435284Y-65124996D02*
X84825403Y-65385665D01*
X85285580Y-65477200D01*
X86871525Y-65477200D01*
X87041780Y-65741784D01*
X86517920Y-65741327D01*
X85726500Y-66068335D01*
X85120463Y-66673315D01*
X84792074Y-67464163D01*
X84791327Y-68320480D01*
X85118335Y-69111900D01*
X85373442Y-69367452D01*
X85130547Y-69415767D01*
X84561995Y-69795661D01*
X84182101Y-70364213D01*
X84048700Y-71034866D01*
X84048700Y-71103534D01*
X84182101Y-71774187D01*
X84561995Y-72342739D01*
X85130547Y-72722633D01*
X85801200Y-72856034D01*
X86471853Y-72722633D01*
X87040405Y-72342739D01*
X87151400Y-72176623D01*
X87151400Y-77561183D01*
X87003700Y-77413225D01*
X87003700Y-75730400D01*
X86912165Y-75270223D01*
X86651496Y-74880104D01*
X83158696Y-71387304D01*
X82768577Y-71126635D01*
X82619399Y-71096962D01*
X82553539Y-70998395D01*
X81984987Y-70618501D01*
X81314334Y-70485100D01*
X81245666Y-70485100D01*
X80575013Y-70618501D01*
X80006461Y-70998395D01*
X79626567Y-71566947D01*
X79493166Y-72237600D01*
X79626567Y-72908253D01*
X80006461Y-73476805D01*
X80575013Y-73856699D01*
X81245666Y-73990100D01*
X81314334Y-73990100D01*
X81984987Y-73856699D01*
X82130007Y-73759799D01*
X84598700Y-76228492D01*
X84598700Y-76781620D01*
X84118048Y-76300129D01*
X83474163Y-76032764D01*
X82776975Y-76032156D01*
X82132625Y-76298396D01*
X81639209Y-76790952D01*
X81371844Y-77434837D01*
X81371236Y-78132025D01*
X81637476Y-78776375D01*
X82130032Y-79269791D01*
X82773917Y-79537156D01*
X82881660Y-79537250D01*
X82881660Y-80040480D01*
X82973195Y-80500657D01*
X83233864Y-80890776D01*
X83274504Y-80931416D01*
X83664623Y-81192085D01*
X84124800Y-81283620D01*
X85370295Y-81283620D01*
X85424275Y-81337600D01*
X86468400Y-81337600D01*
X86468400Y-81283620D01*
X87151400Y-81283620D01*
X87151400Y-82544395D01*
X86928713Y-82500100D01*
X86858087Y-82500100D01*
X86468400Y-82577613D01*
X86468400Y-82187600D01*
X85424275Y-82187600D01*
X85217900Y-82393975D01*
X85217900Y-82776802D01*
X85343575Y-83080208D01*
X85466520Y-83203153D01*
X85192794Y-83612813D01*
X85055587Y-84302600D01*
X85192794Y-84992387D01*
X85404949Y-85309900D01*
X84078900Y-85309900D01*
X84078900Y-84603600D01*
X83987365Y-84143423D01*
X83726696Y-83753304D01*
X79231300Y-79257908D01*
X79231300Y-79155881D01*
X79608871Y-78778968D01*
X79876236Y-78135083D01*
X79876844Y-77437895D01*
X79610604Y-76793545D01*
X79118048Y-76300129D01*
X78474163Y-76032764D01*
X77776975Y-76032156D01*
X77478700Y-76155401D01*
X77478700Y-70053200D01*
X77473247Y-70025785D01*
X77477439Y-69998151D01*
X77424043Y-68832976D01*
X80286248Y-65970824D01*
X80286251Y-65970819D01*
X80286256Y-65970816D01*
X80323838Y-65914570D01*
X80890066Y-66027200D01*
X80958734Y-66027200D01*
X81629387Y-65893799D01*
X82197939Y-65513905D01*
X82577833Y-64945353D01*
X82711234Y-64274700D01*
X82577833Y-63604047D01*
X82197939Y-63035495D01*
X81876294Y-62820579D01*
X82028899Y-62718611D01*
X84435284Y-65124996D01*
X84435284Y-65124996D01*
G37*
X84435284Y-65124996D02*
X84825403Y-65385665D01*
X85285580Y-65477200D01*
X86871525Y-65477200D01*
X87041780Y-65741784D01*
X86517920Y-65741327D01*
X85726500Y-66068335D01*
X85120463Y-66673315D01*
X84792074Y-67464163D01*
X84791327Y-68320480D01*
X85118335Y-69111900D01*
X85373442Y-69367452D01*
X85130547Y-69415767D01*
X84561995Y-69795661D01*
X84182101Y-70364213D01*
X84048700Y-71034866D01*
X84048700Y-71103534D01*
X84182101Y-71774187D01*
X84561995Y-72342739D01*
X85130547Y-72722633D01*
X85801200Y-72856034D01*
X86471853Y-72722633D01*
X87040405Y-72342739D01*
X87151400Y-72176623D01*
X87151400Y-77561183D01*
X87003700Y-77413225D01*
X87003700Y-75730400D01*
X86912165Y-75270223D01*
X86651496Y-74880104D01*
X83158696Y-71387304D01*
X82768577Y-71126635D01*
X82619399Y-71096962D01*
X82553539Y-70998395D01*
X81984987Y-70618501D01*
X81314334Y-70485100D01*
X81245666Y-70485100D01*
X80575013Y-70618501D01*
X80006461Y-70998395D01*
X79626567Y-71566947D01*
X79493166Y-72237600D01*
X79626567Y-72908253D01*
X80006461Y-73476805D01*
X80575013Y-73856699D01*
X81245666Y-73990100D01*
X81314334Y-73990100D01*
X81984987Y-73856699D01*
X82130007Y-73759799D01*
X84598700Y-76228492D01*
X84598700Y-76781620D01*
X84118048Y-76300129D01*
X83474163Y-76032764D01*
X82776975Y-76032156D01*
X82132625Y-76298396D01*
X81639209Y-76790952D01*
X81371844Y-77434837D01*
X81371236Y-78132025D01*
X81637476Y-78776375D01*
X82130032Y-79269791D01*
X82773917Y-79537156D01*
X82881660Y-79537250D01*
X82881660Y-80040480D01*
X82973195Y-80500657D01*
X83233864Y-80890776D01*
X83274504Y-80931416D01*
X83664623Y-81192085D01*
X84124800Y-81283620D01*
X85370295Y-81283620D01*
X85424275Y-81337600D01*
X86468400Y-81337600D01*
X86468400Y-81283620D01*
X87151400Y-81283620D01*
X87151400Y-82544395D01*
X86928713Y-82500100D01*
X86858087Y-82500100D01*
X86468400Y-82577613D01*
X86468400Y-82187600D01*
X85424275Y-82187600D01*
X85217900Y-82393975D01*
X85217900Y-82776802D01*
X85343575Y-83080208D01*
X85466520Y-83203153D01*
X85192794Y-83612813D01*
X85055587Y-84302600D01*
X85192794Y-84992387D01*
X85404949Y-85309900D01*
X84078900Y-85309900D01*
X84078900Y-84603600D01*
X83987365Y-84143423D01*
X83726696Y-83753304D01*
X79231300Y-79257908D01*
X79231300Y-79155881D01*
X79608871Y-78778968D01*
X79876236Y-78135083D01*
X79876844Y-77437895D01*
X79610604Y-76793545D01*
X79118048Y-76300129D01*
X78474163Y-76032764D01*
X77776975Y-76032156D01*
X77478700Y-76155401D01*
X77478700Y-70053200D01*
X77473247Y-70025785D01*
X77477439Y-69998151D01*
X77424043Y-68832976D01*
X80286248Y-65970824D01*
X80286251Y-65970819D01*
X80286256Y-65970816D01*
X80323838Y-65914570D01*
X80890066Y-66027200D01*
X80958734Y-66027200D01*
X81629387Y-65893799D01*
X82197939Y-65513905D01*
X82577833Y-64945353D01*
X82711234Y-64274700D01*
X82577833Y-63604047D01*
X82197939Y-63035495D01*
X81876294Y-62820579D01*
X82028899Y-62718611D01*
X84435284Y-65124996D01*
G36*
X115044327Y-71724427D02*
X114910926Y-72395080D01*
X115044327Y-73065733D01*
X115228535Y-73341420D01*
X113160800Y-73341420D01*
X112700623Y-73432955D01*
X112310504Y-73693624D01*
X111673424Y-74330704D01*
X111274495Y-74330356D01*
X110630145Y-74596596D01*
X110136729Y-75089152D01*
X110099013Y-75179983D01*
X109999378Y-74679082D01*
X109732156Y-74597449D01*
X109028765Y-75300840D01*
X109732156Y-76004231D01*
X109869164Y-75962377D01*
X109868756Y-76430225D01*
X110134996Y-77074575D01*
X110627552Y-77567991D01*
X110655860Y-77579745D01*
X110581347Y-77594567D01*
X110012795Y-77974461D01*
X109951966Y-78065498D01*
X109819093Y-78065498D01*
X109353540Y-77754455D01*
X109112000Y-77886414D01*
X109112000Y-78848000D01*
X109512000Y-78848000D01*
X109512000Y-79150824D01*
X109499500Y-79213666D01*
X109499500Y-79282334D01*
X109512000Y-79345176D01*
X109512000Y-79648000D01*
X109112000Y-79648000D01*
X109112000Y-80609586D01*
X109353540Y-80741545D01*
X109819093Y-80430502D01*
X109951966Y-80430502D01*
X110012795Y-80521539D01*
X110581347Y-80901433D01*
X111252000Y-81034834D01*
X111922653Y-80901433D01*
X112491205Y-80521539D01*
X112522000Y-80475451D01*
X112552795Y-80521539D01*
X113121347Y-80901433D01*
X113792000Y-81034834D01*
X114462653Y-80901433D01*
X114802970Y-80674041D01*
X114835865Y-80725162D01*
X115154164Y-80942646D01*
X115532000Y-81019160D01*
X115945368Y-81019160D01*
X116894800Y-81968592D01*
X116894800Y-85193114D01*
X116332000Y-85081166D01*
X116260066Y-85095474D01*
X115201096Y-84036504D01*
X114810977Y-83775835D01*
X114350800Y-83684300D01*
X109235492Y-83684300D01*
X105440737Y-79889545D01*
X107218427Y-79889545D01*
X107577627Y-80412276D01*
X108070460Y-80741545D01*
X108312000Y-80609586D01*
X108312000Y-79648000D01*
X107342831Y-79648000D01*
X107218427Y-79889545D01*
X105440737Y-79889545D01*
X105074615Y-79523423D01*
X105399933Y-79458713D01*
X105968485Y-79078819D01*
X106284108Y-78606455D01*
X107218427Y-78606455D01*
X107342831Y-78848000D01*
X108312000Y-78848000D01*
X108312000Y-77886414D01*
X108070460Y-77754455D01*
X107577627Y-78083724D01*
X107218427Y-78606455D01*
X106284108Y-78606455D01*
X106348379Y-78510267D01*
X106426817Y-78115930D01*
X107570477Y-76855720D01*
X107612652Y-76785456D01*
X108131713Y-77304517D01*
X108478482Y-76957749D01*
X109084838Y-76837138D01*
X109166471Y-76569916D01*
X108463080Y-75866525D01*
X108180237Y-76149368D01*
X107882500Y-75851631D01*
X107882500Y-75315735D01*
X107897395Y-75300840D01*
X107882500Y-75285945D01*
X107882500Y-74750049D01*
X108180237Y-74452312D01*
X108463080Y-74735155D01*
X109050677Y-74147558D01*
X109424825Y-74147884D01*
X110069175Y-73881644D01*
X110562591Y-73389088D01*
X110829956Y-72745203D01*
X110830564Y-72048015D01*
X110646252Y-71601947D01*
X115135031Y-71588679D01*
X115044327Y-71724427D01*
X115044327Y-71724427D01*
G37*
X115044327Y-71724427D02*
X114910926Y-72395080D01*
X115044327Y-73065733D01*
X115228535Y-73341420D01*
X113160800Y-73341420D01*
X112700623Y-73432955D01*
X112310504Y-73693624D01*
X111673424Y-74330704D01*
X111274495Y-74330356D01*
X110630145Y-74596596D01*
X110136729Y-75089152D01*
X110099013Y-75179983D01*
X109999378Y-74679082D01*
X109732156Y-74597449D01*
X109028765Y-75300840D01*
X109732156Y-76004231D01*
X109869164Y-75962377D01*
X109868756Y-76430225D01*
X110134996Y-77074575D01*
X110627552Y-77567991D01*
X110655860Y-77579745D01*
X110581347Y-77594567D01*
X110012795Y-77974461D01*
X109951966Y-78065498D01*
X109819093Y-78065498D01*
X109353540Y-77754455D01*
X109112000Y-77886414D01*
X109112000Y-78848000D01*
X109512000Y-78848000D01*
X109512000Y-79150824D01*
X109499500Y-79213666D01*
X109499500Y-79282334D01*
X109512000Y-79345176D01*
X109512000Y-79648000D01*
X109112000Y-79648000D01*
X109112000Y-80609586D01*
X109353540Y-80741545D01*
X109819093Y-80430502D01*
X109951966Y-80430502D01*
X110012795Y-80521539D01*
X110581347Y-80901433D01*
X111252000Y-81034834D01*
X111922653Y-80901433D01*
X112491205Y-80521539D01*
X112522000Y-80475451D01*
X112552795Y-80521539D01*
X113121347Y-80901433D01*
X113792000Y-81034834D01*
X114462653Y-80901433D01*
X114802970Y-80674041D01*
X114835865Y-80725162D01*
X115154164Y-80942646D01*
X115532000Y-81019160D01*
X115945368Y-81019160D01*
X116894800Y-81968592D01*
X116894800Y-85193114D01*
X116332000Y-85081166D01*
X116260066Y-85095474D01*
X115201096Y-84036504D01*
X114810977Y-83775835D01*
X114350800Y-83684300D01*
X109235492Y-83684300D01*
X105440737Y-79889545D01*
X107218427Y-79889545D01*
X107577627Y-80412276D01*
X108070460Y-80741545D01*
X108312000Y-80609586D01*
X108312000Y-79648000D01*
X107342831Y-79648000D01*
X107218427Y-79889545D01*
X105440737Y-79889545D01*
X105074615Y-79523423D01*
X105399933Y-79458713D01*
X105968485Y-79078819D01*
X106284108Y-78606455D01*
X107218427Y-78606455D01*
X107342831Y-78848000D01*
X108312000Y-78848000D01*
X108312000Y-77886414D01*
X108070460Y-77754455D01*
X107577627Y-78083724D01*
X107218427Y-78606455D01*
X106284108Y-78606455D01*
X106348379Y-78510267D01*
X106426817Y-78115930D01*
X107570477Y-76855720D01*
X107612652Y-76785456D01*
X108131713Y-77304517D01*
X108478482Y-76957749D01*
X109084838Y-76837138D01*
X109166471Y-76569916D01*
X108463080Y-75866525D01*
X108180237Y-76149368D01*
X107882500Y-75851631D01*
X107882500Y-75315735D01*
X107897395Y-75300840D01*
X107882500Y-75285945D01*
X107882500Y-74750049D01*
X108180237Y-74452312D01*
X108463080Y-74735155D01*
X109050677Y-74147558D01*
X109424825Y-74147884D01*
X110069175Y-73881644D01*
X110562591Y-73389088D01*
X110829956Y-72745203D01*
X110830564Y-72048015D01*
X110646252Y-71601947D01*
X115135031Y-71588679D01*
X115044327Y-71724427D01*
G36*
X131798664Y-79473456D02*
X132188783Y-79734125D01*
X132648960Y-79825660D01*
X136131176Y-79825660D01*
X136155701Y-79862365D01*
X136226740Y-79909832D01*
X136226740Y-80525089D01*
X136191261Y-80548795D01*
X135811367Y-81117347D01*
X135677966Y-81788000D01*
X135811367Y-82458653D01*
X135967618Y-82692500D01*
X131275344Y-82692500D01*
X131848477Y-82119367D01*
X131501709Y-81772598D01*
X131381098Y-81166242D01*
X131113876Y-81084609D01*
X130410485Y-81788000D01*
X130693328Y-82070843D01*
X130127643Y-82636528D01*
X129844800Y-82353685D01*
X129591406Y-82607080D01*
X129194300Y-82209974D01*
X129194300Y-81872815D01*
X129279115Y-81788000D01*
X129194300Y-81703185D01*
X129194300Y-81307129D01*
X129561957Y-80939472D01*
X129844800Y-81222315D01*
X130548191Y-80518924D01*
X130466558Y-80251702D01*
X130460044Y-80250461D01*
X130800655Y-80109724D01*
X131294071Y-79617168D01*
X131484287Y-79159079D01*
X131798664Y-79473456D01*
X131798664Y-79473456D01*
G37*
X131798664Y-79473456D02*
X132188783Y-79734125D01*
X132648960Y-79825660D01*
X136131176Y-79825660D01*
X136155701Y-79862365D01*
X136226740Y-79909832D01*
X136226740Y-80525089D01*
X136191261Y-80548795D01*
X135811367Y-81117347D01*
X135677966Y-81788000D01*
X135811367Y-82458653D01*
X135967618Y-82692500D01*
X131275344Y-82692500D01*
X131848477Y-82119367D01*
X131501709Y-81772598D01*
X131381098Y-81166242D01*
X131113876Y-81084609D01*
X130410485Y-81788000D01*
X130693328Y-82070843D01*
X130127643Y-82636528D01*
X129844800Y-82353685D01*
X129591406Y-82607080D01*
X129194300Y-82209974D01*
X129194300Y-81872815D01*
X129279115Y-81788000D01*
X129194300Y-81703185D01*
X129194300Y-81307129D01*
X129561957Y-80939472D01*
X129844800Y-81222315D01*
X130548191Y-80518924D01*
X130466558Y-80251702D01*
X130460044Y-80250461D01*
X130800655Y-80109724D01*
X131294071Y-79617168D01*
X131484287Y-79159079D01*
X131798664Y-79473456D01*
G36*
X139709292Y-68604331D02*
X140353177Y-68871696D01*
X140523246Y-68871844D01*
X140902891Y-70281954D01*
X140678700Y-70505755D01*
X140342683Y-71314974D01*
X140341918Y-72191182D01*
X140676522Y-73000986D01*
X141295555Y-73621100D01*
X142104774Y-73957117D01*
X142980982Y-73957882D01*
X143374300Y-73795366D01*
X143374300Y-74714607D01*
X142984826Y-74552883D01*
X142108618Y-74552118D01*
X141298814Y-74886722D01*
X140678700Y-75505755D01*
X140342683Y-76314974D01*
X140342165Y-76908567D01*
X139004103Y-77834918D01*
X138702779Y-77383955D01*
X138134227Y-77004061D01*
X137463574Y-76870660D01*
X137394906Y-76870660D01*
X136724253Y-77004061D01*
X136155701Y-77383955D01*
X136131176Y-77420660D01*
X133147052Y-77420660D01*
X132899391Y-77172999D01*
X133309453Y-77091433D01*
X133878005Y-76711539D01*
X133938834Y-76620502D01*
X134071707Y-76620502D01*
X134537260Y-76931545D01*
X134778800Y-76799586D01*
X134778800Y-75838000D01*
X135578800Y-75838000D01*
X135578800Y-76799586D01*
X135820340Y-76931545D01*
X136313173Y-76602276D01*
X136672373Y-76079545D01*
X136547969Y-75838000D01*
X135578800Y-75838000D01*
X134778800Y-75838000D01*
X134378800Y-75838000D01*
X134378800Y-75535176D01*
X134391300Y-75472334D01*
X134391300Y-75403666D01*
X134378800Y-75340824D01*
X134378800Y-75038000D01*
X134778800Y-75038000D01*
X134778800Y-74076414D01*
X135578800Y-74076414D01*
X135578800Y-75038000D01*
X136547969Y-75038000D01*
X136672373Y-74796455D01*
X136313173Y-74273724D01*
X135820340Y-73944455D01*
X135578800Y-74076414D01*
X134778800Y-74076414D01*
X134635995Y-73998397D01*
X138886596Y-69747796D01*
X138968378Y-69625400D01*
X139147265Y-69357677D01*
X139238800Y-68897500D01*
X139238800Y-68133018D01*
X139709292Y-68604331D01*
X139709292Y-68604331D01*
G37*
X139709292Y-68604331D02*
X140353177Y-68871696D01*
X140523246Y-68871844D01*
X140902891Y-70281954D01*
X140678700Y-70505755D01*
X140342683Y-71314974D01*
X140341918Y-72191182D01*
X140676522Y-73000986D01*
X141295555Y-73621100D01*
X142104774Y-73957117D01*
X142980982Y-73957882D01*
X143374300Y-73795366D01*
X143374300Y-74714607D01*
X142984826Y-74552883D01*
X142108618Y-74552118D01*
X141298814Y-74886722D01*
X140678700Y-75505755D01*
X140342683Y-76314974D01*
X140342165Y-76908567D01*
X139004103Y-77834918D01*
X138702779Y-77383955D01*
X138134227Y-77004061D01*
X137463574Y-76870660D01*
X137394906Y-76870660D01*
X136724253Y-77004061D01*
X136155701Y-77383955D01*
X136131176Y-77420660D01*
X133147052Y-77420660D01*
X132899391Y-77172999D01*
X133309453Y-77091433D01*
X133878005Y-76711539D01*
X133938834Y-76620502D01*
X134071707Y-76620502D01*
X134537260Y-76931545D01*
X134778800Y-76799586D01*
X134778800Y-75838000D01*
X135578800Y-75838000D01*
X135578800Y-76799586D01*
X135820340Y-76931545D01*
X136313173Y-76602276D01*
X136672373Y-76079545D01*
X136547969Y-75838000D01*
X135578800Y-75838000D01*
X134778800Y-75838000D01*
X134378800Y-75838000D01*
X134378800Y-75535176D01*
X134391300Y-75472334D01*
X134391300Y-75403666D01*
X134378800Y-75340824D01*
X134378800Y-75038000D01*
X134778800Y-75038000D01*
X134778800Y-74076414D01*
X135578800Y-74076414D01*
X135578800Y-75038000D01*
X136547969Y-75038000D01*
X136672373Y-74796455D01*
X136313173Y-74273724D01*
X135820340Y-73944455D01*
X135578800Y-74076414D01*
X134778800Y-74076414D01*
X134635995Y-73998397D01*
X138886596Y-69747796D01*
X138968378Y-69625400D01*
X139147265Y-69357677D01*
X139238800Y-68897500D01*
X139238800Y-68133018D01*
X139709292Y-68604331D01*
G36*
X79029983Y-51208353D02*
X78563379Y-51906674D01*
X78399530Y-52730400D01*
X78563379Y-53554126D01*
X79029983Y-54252447D01*
X79728304Y-54719051D01*
X80552030Y-54882900D01*
X80636370Y-54882900D01*
X81460096Y-54719051D01*
X82158417Y-54252447D01*
X82204887Y-54182900D01*
X83256454Y-54182900D01*
X83725240Y-54651686D01*
X83725240Y-55168700D01*
X83791657Y-55521675D01*
X84000265Y-55845862D01*
X84318564Y-56063346D01*
X84696400Y-56139860D01*
X85268228Y-56139860D01*
X83565856Y-57842232D01*
X83485929Y-57842232D01*
X83477984Y-57843812D01*
X83470018Y-57842337D01*
X80992788Y-57875119D01*
X80566501Y-57875119D01*
X80106324Y-57966654D01*
X79716205Y-58227323D01*
X78678825Y-59264703D01*
X78083023Y-59017304D01*
X77385835Y-59016696D01*
X76741485Y-59282936D01*
X76248069Y-59775492D01*
X75980704Y-60419377D01*
X75980662Y-60467593D01*
X73217127Y-63231127D01*
X72902265Y-63702352D01*
X72888873Y-63769677D01*
X72791699Y-64258200D01*
X72791700Y-64258205D01*
X72791700Y-66297506D01*
X72679983Y-66372153D01*
X72213379Y-67070474D01*
X72049530Y-67894200D01*
X72213379Y-68717926D01*
X72679983Y-69416247D01*
X73378304Y-69882851D01*
X74202030Y-70046700D01*
X74286370Y-70046700D01*
X75065042Y-69891813D01*
X75073700Y-70080732D01*
X75073700Y-71173194D01*
X74654008Y-70752769D01*
X74010123Y-70485404D01*
X73312935Y-70484796D01*
X72668585Y-70751036D01*
X72175169Y-71243592D01*
X71907804Y-71887477D01*
X71907453Y-72289555D01*
X71793704Y-72403304D01*
X71533035Y-72793423D01*
X71441500Y-73253600D01*
X71441500Y-76412548D01*
X71406623Y-76463592D01*
X70931893Y-75753107D01*
X66711286Y-71532500D01*
X66917327Y-71532500D01*
X66993142Y-71563981D01*
X68180449Y-71565017D01*
X69277775Y-71111611D01*
X70118061Y-70272791D01*
X70573381Y-69176258D01*
X70574417Y-67988951D01*
X70121011Y-66891625D01*
X69282191Y-66051339D01*
X68185658Y-65596019D01*
X66998351Y-65594983D01*
X66919654Y-65627500D01*
X65476120Y-65627500D01*
X64346247Y-65852246D01*
X63543873Y-66388375D01*
X63388387Y-66492267D01*
X61361811Y-68518843D01*
X57498427Y-68346436D01*
X56359658Y-68520587D01*
X56022327Y-68724840D01*
X55766800Y-68724840D01*
X55413825Y-68791257D01*
X55266340Y-68886161D01*
X55266340Y-64743025D01*
X66503056Y-64743025D01*
X66775881Y-65056603D01*
X67909405Y-65142644D01*
X68341959Y-65056603D01*
X68614784Y-64743025D01*
X67558920Y-63687161D01*
X66503056Y-64743025D01*
X55266340Y-64743025D01*
X55266340Y-64680869D01*
X57480694Y-62600805D01*
X64666596Y-62600805D01*
X64752637Y-63033359D01*
X65066215Y-63306184D01*
X66122079Y-62250320D01*
X68995761Y-62250320D01*
X70051625Y-63306184D01*
X70365203Y-63033359D01*
X70451244Y-61899835D01*
X70365203Y-61467281D01*
X70260144Y-61375875D01*
X71107400Y-61375875D01*
X71107400Y-61733702D01*
X71233075Y-62037108D01*
X71465292Y-62269325D01*
X71768698Y-62395000D01*
X72126525Y-62395000D01*
X72332900Y-62188625D01*
X72332900Y-61169500D01*
X73132900Y-61169500D01*
X73132900Y-62188625D01*
X73339275Y-62395000D01*
X73697102Y-62395000D01*
X74000508Y-62269325D01*
X74232725Y-62037108D01*
X74358400Y-61733702D01*
X74358400Y-61375875D01*
X74152025Y-61169500D01*
X73132900Y-61169500D01*
X72332900Y-61169500D01*
X71313775Y-61169500D01*
X71107400Y-61375875D01*
X70260144Y-61375875D01*
X70051625Y-61194456D01*
X68995761Y-62250320D01*
X66122079Y-62250320D01*
X65066215Y-61194456D01*
X64752637Y-61467281D01*
X64666596Y-62600805D01*
X57480694Y-62600805D01*
X58532189Y-61613079D01*
X61644899Y-61774917D01*
X61721891Y-61763721D01*
X61798200Y-61778900D01*
X62289359Y-61681202D01*
X62784918Y-61609140D01*
X62851766Y-61569332D01*
X62928072Y-61554154D01*
X63344445Y-61275943D01*
X63774717Y-61019717D01*
X63821243Y-60957358D01*
X63885933Y-60914133D01*
X65042451Y-59757615D01*
X66503056Y-59757615D01*
X67558920Y-60813479D01*
X68567101Y-59805298D01*
X71107400Y-59805298D01*
X71107400Y-60163125D01*
X71313775Y-60369500D01*
X72332900Y-60369500D01*
X72332900Y-59350375D01*
X73132900Y-59350375D01*
X73132900Y-60369500D01*
X74152025Y-60369500D01*
X74358400Y-60163125D01*
X74358400Y-59805298D01*
X74232725Y-59501892D01*
X74000508Y-59269675D01*
X73697102Y-59144000D01*
X73339275Y-59144000D01*
X73132900Y-59350375D01*
X72332900Y-59350375D01*
X72126525Y-59144000D01*
X71768698Y-59144000D01*
X71465292Y-59269675D01*
X71233075Y-59501892D01*
X71107400Y-59805298D01*
X68567101Y-59805298D01*
X68614784Y-59757615D01*
X68341959Y-59444037D01*
X67208435Y-59357996D01*
X66775881Y-59444037D01*
X66503056Y-59757615D01*
X65042451Y-59757615D01*
X69981933Y-54818133D01*
X70621954Y-53860272D01*
X70846700Y-52730400D01*
X70621954Y-51600527D01*
X70239070Y-51027500D01*
X79300648Y-51027500D01*
X79029983Y-51208353D01*
X79029983Y-51208353D01*
G37*
X79029983Y-51208353D02*
X78563379Y-51906674D01*
X78399530Y-52730400D01*
X78563379Y-53554126D01*
X79029983Y-54252447D01*
X79728304Y-54719051D01*
X80552030Y-54882900D01*
X80636370Y-54882900D01*
X81460096Y-54719051D01*
X82158417Y-54252447D01*
X82204887Y-54182900D01*
X83256454Y-54182900D01*
X83725240Y-54651686D01*
X83725240Y-55168700D01*
X83791657Y-55521675D01*
X84000265Y-55845862D01*
X84318564Y-56063346D01*
X84696400Y-56139860D01*
X85268228Y-56139860D01*
X83565856Y-57842232D01*
X83485929Y-57842232D01*
X83477984Y-57843812D01*
X83470018Y-57842337D01*
X80992788Y-57875119D01*
X80566501Y-57875119D01*
X80106324Y-57966654D01*
X79716205Y-58227323D01*
X78678825Y-59264703D01*
X78083023Y-59017304D01*
X77385835Y-59016696D01*
X76741485Y-59282936D01*
X76248069Y-59775492D01*
X75980704Y-60419377D01*
X75980662Y-60467593D01*
X73217127Y-63231127D01*
X72902265Y-63702352D01*
X72888873Y-63769677D01*
X72791699Y-64258200D01*
X72791700Y-64258205D01*
X72791700Y-66297506D01*
X72679983Y-66372153D01*
X72213379Y-67070474D01*
X72049530Y-67894200D01*
X72213379Y-68717926D01*
X72679983Y-69416247D01*
X73378304Y-69882851D01*
X74202030Y-70046700D01*
X74286370Y-70046700D01*
X75065042Y-69891813D01*
X75073700Y-70080732D01*
X75073700Y-71173194D01*
X74654008Y-70752769D01*
X74010123Y-70485404D01*
X73312935Y-70484796D01*
X72668585Y-70751036D01*
X72175169Y-71243592D01*
X71907804Y-71887477D01*
X71907453Y-72289555D01*
X71793704Y-72403304D01*
X71533035Y-72793423D01*
X71441500Y-73253600D01*
X71441500Y-76412548D01*
X71406623Y-76463592D01*
X70931893Y-75753107D01*
X66711286Y-71532500D01*
X66917327Y-71532500D01*
X66993142Y-71563981D01*
X68180449Y-71565017D01*
X69277775Y-71111611D01*
X70118061Y-70272791D01*
X70573381Y-69176258D01*
X70574417Y-67988951D01*
X70121011Y-66891625D01*
X69282191Y-66051339D01*
X68185658Y-65596019D01*
X66998351Y-65594983D01*
X66919654Y-65627500D01*
X65476120Y-65627500D01*
X64346247Y-65852246D01*
X63543873Y-66388375D01*
X63388387Y-66492267D01*
X61361811Y-68518843D01*
X57498427Y-68346436D01*
X56359658Y-68520587D01*
X56022327Y-68724840D01*
X55766800Y-68724840D01*
X55413825Y-68791257D01*
X55266340Y-68886161D01*
X55266340Y-64743025D01*
X66503056Y-64743025D01*
X66775881Y-65056603D01*
X67909405Y-65142644D01*
X68341959Y-65056603D01*
X68614784Y-64743025D01*
X67558920Y-63687161D01*
X66503056Y-64743025D01*
X55266340Y-64743025D01*
X55266340Y-64680869D01*
X57480694Y-62600805D01*
X64666596Y-62600805D01*
X64752637Y-63033359D01*
X65066215Y-63306184D01*
X66122079Y-62250320D01*
X68995761Y-62250320D01*
X70051625Y-63306184D01*
X70365203Y-63033359D01*
X70451244Y-61899835D01*
X70365203Y-61467281D01*
X70260144Y-61375875D01*
X71107400Y-61375875D01*
X71107400Y-61733702D01*
X71233075Y-62037108D01*
X71465292Y-62269325D01*
X71768698Y-62395000D01*
X72126525Y-62395000D01*
X72332900Y-62188625D01*
X72332900Y-61169500D01*
X73132900Y-61169500D01*
X73132900Y-62188625D01*
X73339275Y-62395000D01*
X73697102Y-62395000D01*
X74000508Y-62269325D01*
X74232725Y-62037108D01*
X74358400Y-61733702D01*
X74358400Y-61375875D01*
X74152025Y-61169500D01*
X73132900Y-61169500D01*
X72332900Y-61169500D01*
X71313775Y-61169500D01*
X71107400Y-61375875D01*
X70260144Y-61375875D01*
X70051625Y-61194456D01*
X68995761Y-62250320D01*
X66122079Y-62250320D01*
X65066215Y-61194456D01*
X64752637Y-61467281D01*
X64666596Y-62600805D01*
X57480694Y-62600805D01*
X58532189Y-61613079D01*
X61644899Y-61774917D01*
X61721891Y-61763721D01*
X61798200Y-61778900D01*
X62289359Y-61681202D01*
X62784918Y-61609140D01*
X62851766Y-61569332D01*
X62928072Y-61554154D01*
X63344445Y-61275943D01*
X63774717Y-61019717D01*
X63821243Y-60957358D01*
X63885933Y-60914133D01*
X65042451Y-59757615D01*
X66503056Y-59757615D01*
X67558920Y-60813479D01*
X68567101Y-59805298D01*
X71107400Y-59805298D01*
X71107400Y-60163125D01*
X71313775Y-60369500D01*
X72332900Y-60369500D01*
X72332900Y-59350375D01*
X73132900Y-59350375D01*
X73132900Y-60369500D01*
X74152025Y-60369500D01*
X74358400Y-60163125D01*
X74358400Y-59805298D01*
X74232725Y-59501892D01*
X74000508Y-59269675D01*
X73697102Y-59144000D01*
X73339275Y-59144000D01*
X73132900Y-59350375D01*
X72332900Y-59350375D01*
X72126525Y-59144000D01*
X71768698Y-59144000D01*
X71465292Y-59269675D01*
X71233075Y-59501892D01*
X71107400Y-59805298D01*
X68567101Y-59805298D01*
X68614784Y-59757615D01*
X68341959Y-59444037D01*
X67208435Y-59357996D01*
X66775881Y-59444037D01*
X66503056Y-59757615D01*
X65042451Y-59757615D01*
X69981933Y-54818133D01*
X70621954Y-53860272D01*
X70846700Y-52730400D01*
X70621954Y-51600527D01*
X70239070Y-51027500D01*
X79300648Y-51027500D01*
X79029983Y-51208353D01*
G36*
X98353980Y-61789500D02*
X98094800Y-61789500D01*
X97634623Y-61881035D01*
X97244504Y-62141704D01*
X96051948Y-63334260D01*
X95554800Y-63235371D01*
X94807611Y-63383996D01*
X94523839Y-63573606D01*
X94482408Y-63532175D01*
X94179002Y-63406500D01*
X93721175Y-63406500D01*
X93514800Y-63612875D01*
X93514800Y-64882000D01*
X93663141Y-64882000D01*
X93602300Y-65187871D01*
X93602300Y-65876129D01*
X93663141Y-66182000D01*
X93514800Y-66182000D01*
X93514800Y-67451125D01*
X93721175Y-67657500D01*
X94179002Y-67657500D01*
X94482408Y-67531825D01*
X94523839Y-67490394D01*
X94807611Y-67680004D01*
X95554800Y-67828629D01*
X96301989Y-67680004D01*
X96935426Y-67256755D01*
X97358675Y-66623318D01*
X97507300Y-65876129D01*
X97507300Y-65280092D01*
X98592892Y-64194500D01*
X98912265Y-64194500D01*
X98842507Y-64298900D01*
X98705300Y-64988687D01*
X98705300Y-65059313D01*
X98842507Y-65749100D01*
X99233240Y-66333873D01*
X99328406Y-66397461D01*
X99396835Y-66741477D01*
X99657504Y-67131596D01*
X99954103Y-67428195D01*
X99563440Y-67689227D01*
X99172707Y-68274000D01*
X99035500Y-68963787D01*
X99035500Y-69034413D01*
X99153054Y-69625400D01*
X94449900Y-69625400D01*
X93989723Y-69716935D01*
X93599604Y-69977604D01*
X91951144Y-71626064D01*
X91690475Y-72016183D01*
X91598940Y-72476360D01*
X91598940Y-74886399D01*
X91479916Y-74805074D01*
X91211618Y-74750742D01*
X91139295Y-74345240D01*
X91176031Y-74308568D01*
X91443396Y-73664683D01*
X91444004Y-72967495D01*
X91177764Y-72323145D01*
X90685208Y-71829729D01*
X90041323Y-71562364D01*
X89556400Y-71561941D01*
X89556400Y-69646800D01*
X89523071Y-69479243D01*
X89507999Y-69309069D01*
X89477658Y-69250936D01*
X89464865Y-69186623D01*
X89369951Y-69044574D01*
X89290904Y-68893123D01*
X89006780Y-68539888D01*
X89096326Y-68324237D01*
X89096333Y-68316419D01*
X91189300Y-66223452D01*
X91189300Y-66996202D01*
X91314975Y-67299608D01*
X91547192Y-67531825D01*
X91850598Y-67657500D01*
X92308425Y-67657500D01*
X92514800Y-67451125D01*
X92514800Y-66182000D01*
X92014800Y-66182000D01*
X92014800Y-64882000D01*
X92514800Y-64882000D01*
X92514800Y-63612875D01*
X92308425Y-63406500D01*
X92273972Y-63406500D01*
X92476572Y-63203900D01*
X95021400Y-63203900D01*
X95481577Y-63112365D01*
X95871696Y-62851696D01*
X96881232Y-61842160D01*
X97751800Y-61842160D01*
X98104775Y-61775743D01*
X98353980Y-61615384D01*
X98353980Y-61789500D01*
X98353980Y-61789500D01*
G37*
X98353980Y-61789500D02*
X98094800Y-61789500D01*
X97634623Y-61881035D01*
X97244504Y-62141704D01*
X96051948Y-63334260D01*
X95554800Y-63235371D01*
X94807611Y-63383996D01*
X94523839Y-63573606D01*
X94482408Y-63532175D01*
X94179002Y-63406500D01*
X93721175Y-63406500D01*
X93514800Y-63612875D01*
X93514800Y-64882000D01*
X93663141Y-64882000D01*
X93602300Y-65187871D01*
X93602300Y-65876129D01*
X93663141Y-66182000D01*
X93514800Y-66182000D01*
X93514800Y-67451125D01*
X93721175Y-67657500D01*
X94179002Y-67657500D01*
X94482408Y-67531825D01*
X94523839Y-67490394D01*
X94807611Y-67680004D01*
X95554800Y-67828629D01*
X96301989Y-67680004D01*
X96935426Y-67256755D01*
X97358675Y-66623318D01*
X97507300Y-65876129D01*
X97507300Y-65280092D01*
X98592892Y-64194500D01*
X98912265Y-64194500D01*
X98842507Y-64298900D01*
X98705300Y-64988687D01*
X98705300Y-65059313D01*
X98842507Y-65749100D01*
X99233240Y-66333873D01*
X99328406Y-66397461D01*
X99396835Y-66741477D01*
X99657504Y-67131596D01*
X99954103Y-67428195D01*
X99563440Y-67689227D01*
X99172707Y-68274000D01*
X99035500Y-68963787D01*
X99035500Y-69034413D01*
X99153054Y-69625400D01*
X94449900Y-69625400D01*
X93989723Y-69716935D01*
X93599604Y-69977604D01*
X91951144Y-71626064D01*
X91690475Y-72016183D01*
X91598940Y-72476360D01*
X91598940Y-74886399D01*
X91479916Y-74805074D01*
X91211618Y-74750742D01*
X91139295Y-74345240D01*
X91176031Y-74308568D01*
X91443396Y-73664683D01*
X91444004Y-72967495D01*
X91177764Y-72323145D01*
X90685208Y-71829729D01*
X90041323Y-71562364D01*
X89556400Y-71561941D01*
X89556400Y-69646800D01*
X89523071Y-69479243D01*
X89507999Y-69309069D01*
X89477658Y-69250936D01*
X89464865Y-69186623D01*
X89369951Y-69044574D01*
X89290904Y-68893123D01*
X89006780Y-68539888D01*
X89096326Y-68324237D01*
X89096333Y-68316419D01*
X91189300Y-66223452D01*
X91189300Y-66996202D01*
X91314975Y-67299608D01*
X91547192Y-67531825D01*
X91850598Y-67657500D01*
X92308425Y-67657500D01*
X92514800Y-67451125D01*
X92514800Y-66182000D01*
X92014800Y-66182000D01*
X92014800Y-64882000D01*
X92514800Y-64882000D01*
X92514800Y-63612875D01*
X92308425Y-63406500D01*
X92273972Y-63406500D01*
X92476572Y-63203900D01*
X95021400Y-63203900D01*
X95481577Y-63112365D01*
X95871696Y-62851696D01*
X96881232Y-61842160D01*
X97751800Y-61842160D01*
X98104775Y-61775743D01*
X98353980Y-61615384D01*
X98353980Y-61789500D01*
G36*
X124380261Y-60446605D02*
X124948813Y-60826499D01*
X125619466Y-60959900D01*
X125688134Y-60959900D01*
X126358787Y-60826499D01*
X126927339Y-60446605D01*
X126951864Y-60409900D01*
X127521877Y-60409900D01*
X127329385Y-60489436D01*
X126835969Y-60981992D01*
X126568604Y-61625877D01*
X126567996Y-62323065D01*
X126834236Y-62967415D01*
X127118300Y-63251975D01*
X127118300Y-63483328D01*
X127047261Y-63530795D01*
X126667367Y-64099347D01*
X126533966Y-64770000D01*
X126667367Y-65440653D01*
X127047261Y-66009205D01*
X127189936Y-66104537D01*
X126888147Y-66164567D01*
X126319595Y-66544461D01*
X125939701Y-67113013D01*
X125806300Y-67783666D01*
X125806300Y-67852334D01*
X125939701Y-68522987D01*
X126319595Y-69091539D01*
X126888147Y-69471433D01*
X127558800Y-69604834D01*
X128229453Y-69471433D01*
X128798005Y-69091539D01*
X128828800Y-69045451D01*
X128859595Y-69091539D01*
X129428147Y-69471433D01*
X130098800Y-69604834D01*
X130769453Y-69471433D01*
X131338005Y-69091539D01*
X131368800Y-69045451D01*
X131399595Y-69091539D01*
X131968147Y-69471433D01*
X132638800Y-69604834D01*
X133309453Y-69471433D01*
X133878005Y-69091539D01*
X133908800Y-69045451D01*
X133939595Y-69091539D01*
X134508147Y-69471433D01*
X135178800Y-69604834D01*
X135740004Y-69493204D01*
X131788504Y-73444704D01*
X131527835Y-73834823D01*
X131471872Y-74116167D01*
X131399595Y-74164461D01*
X131368800Y-74210549D01*
X131338005Y-74164461D01*
X130769453Y-73784567D01*
X130098800Y-73651166D01*
X129874982Y-73695686D01*
X129870474Y-73673024D01*
X129766322Y-73517150D01*
X129671504Y-73355430D01*
X129163504Y-72783930D01*
X129136723Y-72763663D01*
X129118063Y-72735737D01*
X128962188Y-72631585D01*
X128812700Y-72518460D01*
X128780200Y-72509985D01*
X128752276Y-72491326D01*
X128568419Y-72454755D01*
X128387009Y-72407445D01*
X128353739Y-72412052D01*
X128320800Y-72405500D01*
X127136826Y-72405500D01*
X126908300Y-72176974D01*
X126908300Y-70739000D01*
X126822474Y-70307524D01*
X126578063Y-69941737D01*
X124165063Y-67528737D01*
X124097810Y-67483800D01*
X123799276Y-67284326D01*
X123367800Y-67198500D01*
X119769520Y-67198500D01*
X120326853Y-66512303D01*
X120350677Y-66522196D01*
X121047865Y-66522804D01*
X121692215Y-66256564D01*
X122185631Y-65764008D01*
X122452996Y-65120123D01*
X122453604Y-64422935D01*
X122187364Y-63778585D01*
X121764759Y-63355242D01*
X121974339Y-63215205D01*
X122354233Y-62646653D01*
X122487634Y-61976000D01*
X122473326Y-61904066D01*
X123967492Y-60409900D01*
X124355736Y-60409900D01*
X124380261Y-60446605D01*
X124380261Y-60446605D01*
G37*
X124380261Y-60446605D02*
X124948813Y-60826499D01*
X125619466Y-60959900D01*
X125688134Y-60959900D01*
X126358787Y-60826499D01*
X126927339Y-60446605D01*
X126951864Y-60409900D01*
X127521877Y-60409900D01*
X127329385Y-60489436D01*
X126835969Y-60981992D01*
X126568604Y-61625877D01*
X126567996Y-62323065D01*
X126834236Y-62967415D01*
X127118300Y-63251975D01*
X127118300Y-63483328D01*
X127047261Y-63530795D01*
X126667367Y-64099347D01*
X126533966Y-64770000D01*
X126667367Y-65440653D01*
X127047261Y-66009205D01*
X127189936Y-66104537D01*
X126888147Y-66164567D01*
X126319595Y-66544461D01*
X125939701Y-67113013D01*
X125806300Y-67783666D01*
X125806300Y-67852334D01*
X125939701Y-68522987D01*
X126319595Y-69091539D01*
X126888147Y-69471433D01*
X127558800Y-69604834D01*
X128229453Y-69471433D01*
X128798005Y-69091539D01*
X128828800Y-69045451D01*
X128859595Y-69091539D01*
X129428147Y-69471433D01*
X130098800Y-69604834D01*
X130769453Y-69471433D01*
X131338005Y-69091539D01*
X131368800Y-69045451D01*
X131399595Y-69091539D01*
X131968147Y-69471433D01*
X132638800Y-69604834D01*
X133309453Y-69471433D01*
X133878005Y-69091539D01*
X133908800Y-69045451D01*
X133939595Y-69091539D01*
X134508147Y-69471433D01*
X135178800Y-69604834D01*
X135740004Y-69493204D01*
X131788504Y-73444704D01*
X131527835Y-73834823D01*
X131471872Y-74116167D01*
X131399595Y-74164461D01*
X131368800Y-74210549D01*
X131338005Y-74164461D01*
X130769453Y-73784567D01*
X130098800Y-73651166D01*
X129874982Y-73695686D01*
X129870474Y-73673024D01*
X129766322Y-73517150D01*
X129671504Y-73355430D01*
X129163504Y-72783930D01*
X129136723Y-72763663D01*
X129118063Y-72735737D01*
X128962188Y-72631585D01*
X128812700Y-72518460D01*
X128780200Y-72509985D01*
X128752276Y-72491326D01*
X128568419Y-72454755D01*
X128387009Y-72407445D01*
X128353739Y-72412052D01*
X128320800Y-72405500D01*
X127136826Y-72405500D01*
X126908300Y-72176974D01*
X126908300Y-70739000D01*
X126822474Y-70307524D01*
X126578063Y-69941737D01*
X124165063Y-67528737D01*
X124097810Y-67483800D01*
X123799276Y-67284326D01*
X123367800Y-67198500D01*
X119769520Y-67198500D01*
X120326853Y-66512303D01*
X120350677Y-66522196D01*
X121047865Y-66522804D01*
X121692215Y-66256564D01*
X122185631Y-65764008D01*
X122452996Y-65120123D01*
X122453604Y-64422935D01*
X122187364Y-63778585D01*
X121764759Y-63355242D01*
X121974339Y-63215205D01*
X122354233Y-62646653D01*
X122487634Y-61976000D01*
X122473326Y-61904066D01*
X123967492Y-60409900D01*
X124355736Y-60409900D01*
X124380261Y-60446605D01*
G36*
X117532640Y-58222432D02*
X117532640Y-59093000D01*
X117599057Y-59445975D01*
X117807665Y-59770162D01*
X118125964Y-59987646D01*
X118503800Y-60064160D01*
X118753048Y-60064160D01*
X118593609Y-60223599D01*
X118131235Y-60223196D01*
X117486885Y-60489436D01*
X116993469Y-60981992D01*
X116726104Y-61625877D01*
X116725496Y-62323065D01*
X116991736Y-62967415D01*
X117484292Y-63460831D01*
X118128177Y-63728196D01*
X118825365Y-63728804D01*
X119469715Y-63462564D01*
X119601129Y-63331379D01*
X119637208Y-63355487D01*
X119215969Y-63775992D01*
X118970147Y-64367996D01*
X117423215Y-66272600D01*
X109827312Y-66272600D01*
X109285436Y-65730724D01*
X108895317Y-65470055D01*
X108435140Y-65378520D01*
X107408960Y-65378520D01*
X107408960Y-64174000D01*
X107342543Y-63821025D01*
X107145923Y-63515469D01*
X107664354Y-62997038D01*
X107946545Y-62997284D01*
X108590895Y-62731044D01*
X108704597Y-62617540D01*
X109364755Y-62617540D01*
X109694024Y-63110373D01*
X110216755Y-63469573D01*
X110458300Y-63345169D01*
X110458300Y-62376000D01*
X111258300Y-62376000D01*
X111258300Y-63345169D01*
X111499845Y-63469573D01*
X112022576Y-63110373D01*
X112351845Y-62617540D01*
X112219886Y-62376000D01*
X111258300Y-62376000D01*
X110458300Y-62376000D01*
X109496714Y-62376000D01*
X109364755Y-62617540D01*
X108704597Y-62617540D01*
X109084311Y-62238488D01*
X109351676Y-61594603D01*
X109351902Y-61334460D01*
X109364755Y-61334460D01*
X109496714Y-61576000D01*
X110458300Y-61576000D01*
X110458300Y-60606831D01*
X111258300Y-60606831D01*
X111258300Y-61576000D01*
X112219886Y-61576000D01*
X112351845Y-61334460D01*
X112022576Y-60841627D01*
X111499845Y-60482427D01*
X111258300Y-60606831D01*
X110458300Y-60606831D01*
X110216755Y-60482427D01*
X109694024Y-60841627D01*
X109364755Y-61334460D01*
X109351902Y-61334460D01*
X109352284Y-60897415D01*
X109086044Y-60253065D01*
X108883260Y-60049927D01*
X108883260Y-59750513D01*
X109133735Y-59703383D01*
X109457922Y-59494775D01*
X109675406Y-59176476D01*
X109751920Y-58798640D01*
X109751920Y-58683598D01*
X109953456Y-58548936D01*
X112381573Y-56120819D01*
X112396763Y-56127126D01*
X113253080Y-56127873D01*
X114044500Y-55800865D01*
X114578252Y-55268044D01*
X117532640Y-58222432D01*
X117532640Y-58222432D01*
G37*
X117532640Y-58222432D02*
X117532640Y-59093000D01*
X117599057Y-59445975D01*
X117807665Y-59770162D01*
X118125964Y-59987646D01*
X118503800Y-60064160D01*
X118753048Y-60064160D01*
X118593609Y-60223599D01*
X118131235Y-60223196D01*
X117486885Y-60489436D01*
X116993469Y-60981992D01*
X116726104Y-61625877D01*
X116725496Y-62323065D01*
X116991736Y-62967415D01*
X117484292Y-63460831D01*
X118128177Y-63728196D01*
X118825365Y-63728804D01*
X119469715Y-63462564D01*
X119601129Y-63331379D01*
X119637208Y-63355487D01*
X119215969Y-63775992D01*
X118970147Y-64367996D01*
X117423215Y-66272600D01*
X109827312Y-66272600D01*
X109285436Y-65730724D01*
X108895317Y-65470055D01*
X108435140Y-65378520D01*
X107408960Y-65378520D01*
X107408960Y-64174000D01*
X107342543Y-63821025D01*
X107145923Y-63515469D01*
X107664354Y-62997038D01*
X107946545Y-62997284D01*
X108590895Y-62731044D01*
X108704597Y-62617540D01*
X109364755Y-62617540D01*
X109694024Y-63110373D01*
X110216755Y-63469573D01*
X110458300Y-63345169D01*
X110458300Y-62376000D01*
X111258300Y-62376000D01*
X111258300Y-63345169D01*
X111499845Y-63469573D01*
X112022576Y-63110373D01*
X112351845Y-62617540D01*
X112219886Y-62376000D01*
X111258300Y-62376000D01*
X110458300Y-62376000D01*
X109496714Y-62376000D01*
X109364755Y-62617540D01*
X108704597Y-62617540D01*
X109084311Y-62238488D01*
X109351676Y-61594603D01*
X109351902Y-61334460D01*
X109364755Y-61334460D01*
X109496714Y-61576000D01*
X110458300Y-61576000D01*
X110458300Y-60606831D01*
X111258300Y-60606831D01*
X111258300Y-61576000D01*
X112219886Y-61576000D01*
X112351845Y-61334460D01*
X112022576Y-60841627D01*
X111499845Y-60482427D01*
X111258300Y-60606831D01*
X110458300Y-60606831D01*
X110216755Y-60482427D01*
X109694024Y-60841627D01*
X109364755Y-61334460D01*
X109351902Y-61334460D01*
X109352284Y-60897415D01*
X109086044Y-60253065D01*
X108883260Y-60049927D01*
X108883260Y-59750513D01*
X109133735Y-59703383D01*
X109457922Y-59494775D01*
X109675406Y-59176476D01*
X109751920Y-58798640D01*
X109751920Y-58683598D01*
X109953456Y-58548936D01*
X112381573Y-56120819D01*
X112396763Y-56127126D01*
X113253080Y-56127873D01*
X114044500Y-55800865D01*
X114578252Y-55268044D01*
X117532640Y-58222432D01*
G36*
X136702800Y-64204315D02*
X136833800Y-64073315D01*
X136833800Y-65466685D01*
X136702800Y-65335685D01*
X136419957Y-65618528D01*
X135854272Y-65052843D01*
X136137115Y-64770000D01*
X135854272Y-64487157D01*
X136419957Y-63921472D01*
X136702800Y-64204315D01*
X136702800Y-64204315D01*
G37*
X136702800Y-64204315D02*
X136833800Y-64073315D01*
X136833800Y-65466685D01*
X136702800Y-65335685D01*
X136419957Y-65618528D01*
X135854272Y-65052843D01*
X136137115Y-64770000D01*
X135854272Y-64487157D01*
X136419957Y-63921472D01*
X136702800Y-64204315D01*
G36*
X92528880Y-53190040D02*
X92595297Y-53543015D01*
X92803905Y-53867202D01*
X93122204Y-54084686D01*
X93500040Y-54161200D01*
X95100040Y-54161200D01*
X95453015Y-54094783D01*
X95777202Y-53886175D01*
X95832775Y-53804841D01*
X96281147Y-54104433D01*
X96951800Y-54237834D01*
X97622453Y-54104433D01*
X97949905Y-53885636D01*
X97932130Y-53975000D01*
X98095979Y-54798726D01*
X98562583Y-55497047D01*
X98975785Y-55773140D01*
X98878258Y-55773140D01*
X98878258Y-56224819D01*
X98627635Y-56412628D01*
X98324239Y-56866746D01*
X98431990Y-57148640D01*
X99510760Y-57148640D01*
X99510760Y-56598640D01*
X100610760Y-56598640D01*
X100610760Y-57148640D01*
X101689530Y-57148640D01*
X101797281Y-56866746D01*
X101493885Y-56412628D01*
X101243262Y-56224819D01*
X101243262Y-55796228D01*
X101691017Y-55497047D01*
X102157621Y-54798726D01*
X102321470Y-53975000D01*
X102157621Y-53151274D01*
X101771898Y-52574000D01*
X111183493Y-52574000D01*
X111003063Y-52754115D01*
X110674674Y-53544963D01*
X110673927Y-54401280D01*
X110681529Y-54419679D01*
X109300355Y-55800853D01*
X109158596Y-55703994D01*
X108780760Y-55627480D01*
X106580760Y-55627480D01*
X106227785Y-55693897D01*
X105903598Y-55902505D01*
X105686114Y-56220804D01*
X105609600Y-56598640D01*
X105609600Y-58798640D01*
X105676017Y-59151615D01*
X105884625Y-59475802D01*
X106202924Y-59693286D01*
X106478260Y-59749043D01*
X106478260Y-59887495D01*
X106114649Y-60250472D01*
X105847284Y-60894357D01*
X105846831Y-61413377D01*
X105470708Y-61789500D01*
X101420294Y-61789500D01*
X101341066Y-61644480D01*
X100379480Y-61644480D01*
X100379480Y-61789500D01*
X99579480Y-61789500D01*
X99579480Y-61644480D01*
X99179480Y-61644480D01*
X99179480Y-60844480D01*
X99579480Y-60844480D01*
X99579480Y-59875311D01*
X100379480Y-59875311D01*
X100379480Y-60844480D01*
X101341066Y-60844480D01*
X101473025Y-60602940D01*
X101143756Y-60110107D01*
X100621025Y-59750907D01*
X100379480Y-59875311D01*
X99579480Y-59875311D01*
X99337935Y-59750907D01*
X98885244Y-60061978D01*
X98722960Y-60061978D01*
X98722960Y-59271000D01*
X98675883Y-59020808D01*
X99228861Y-59435193D01*
X99510760Y-59337576D01*
X99510760Y-58248640D01*
X100610760Y-58248640D01*
X100610760Y-59337576D01*
X100892659Y-59435193D01*
X101493885Y-58984652D01*
X101797281Y-58530534D01*
X101689530Y-58248640D01*
X100610760Y-58248640D01*
X99510760Y-58248640D01*
X98431990Y-58248640D01*
X98330669Y-58513713D01*
X98129636Y-58376354D01*
X97751800Y-58299840D01*
X96151800Y-58299840D01*
X95798825Y-58366257D01*
X95474638Y-58574865D01*
X95334947Y-58779310D01*
X94941580Y-58516495D01*
X94700040Y-58648454D01*
X94700040Y-59610040D01*
X95100040Y-59610040D01*
X95100040Y-60222168D01*
X94912168Y-60410040D01*
X94700040Y-60410040D01*
X94700040Y-60622168D01*
X94523308Y-60798900D01*
X93900040Y-60798900D01*
X93900040Y-60410040D01*
X92930871Y-60410040D01*
X92806467Y-60651585D01*
X92907696Y-60798900D01*
X91978480Y-60798900D01*
X91518303Y-60890435D01*
X91448700Y-60936942D01*
X91448700Y-59368495D01*
X92806467Y-59368495D01*
X92930871Y-59610040D01*
X93900040Y-59610040D01*
X93900040Y-58648454D01*
X93658500Y-58516495D01*
X93165667Y-58845764D01*
X92806467Y-59368495D01*
X91448700Y-59368495D01*
X91448700Y-55871426D01*
X91487815Y-55855264D01*
X91981231Y-55362708D01*
X92248596Y-54718823D01*
X92249204Y-54021635D01*
X91982964Y-53377285D01*
X91490408Y-52883869D01*
X90846523Y-52616504D01*
X90149335Y-52615896D01*
X89504985Y-52882136D01*
X89011569Y-53374692D01*
X88744204Y-54018577D01*
X88743596Y-54715765D01*
X89009836Y-55360115D01*
X89043700Y-55394038D01*
X89043700Y-59860675D01*
X88982500Y-59921875D01*
X88982500Y-60941000D01*
X89043700Y-60941000D01*
X89043700Y-61741000D01*
X88982500Y-61741000D01*
X88982500Y-61869308D01*
X88710808Y-62141000D01*
X88182500Y-62141000D01*
X88182500Y-61741000D01*
X87163375Y-61741000D01*
X86957000Y-61947375D01*
X86957000Y-62305202D01*
X87082675Y-62608608D01*
X87180044Y-62705977D01*
X87067238Y-62778565D01*
X86866606Y-63072200D01*
X85783672Y-63072200D01*
X83202176Y-60490704D01*
X83031704Y-60376798D01*
X86957000Y-60376798D01*
X86957000Y-60734625D01*
X87163375Y-60941000D01*
X88182500Y-60941000D01*
X88182500Y-59921875D01*
X87976125Y-59715500D01*
X87618298Y-59715500D01*
X87314892Y-59841175D01*
X87082675Y-60073392D01*
X86957000Y-60376798D01*
X83031704Y-60376798D01*
X82850536Y-60255746D01*
X83493906Y-60247232D01*
X84063948Y-60247232D01*
X84524125Y-60155697D01*
X84914244Y-59895028D01*
X88277096Y-56532176D01*
X88537765Y-56142057D01*
X88629300Y-55681880D01*
X88629300Y-53192932D01*
X89713052Y-52109180D01*
X92288360Y-52109180D01*
X92308883Y-52105098D01*
X92329534Y-52108475D01*
X92528880Y-52101645D01*
X92528880Y-53190040D01*
X92528880Y-53190040D01*
G37*
X92528880Y-53190040D02*
X92595297Y-53543015D01*
X92803905Y-53867202D01*
X93122204Y-54084686D01*
X93500040Y-54161200D01*
X95100040Y-54161200D01*
X95453015Y-54094783D01*
X95777202Y-53886175D01*
X95832775Y-53804841D01*
X96281147Y-54104433D01*
X96951800Y-54237834D01*
X97622453Y-54104433D01*
X97949905Y-53885636D01*
X97932130Y-53975000D01*
X98095979Y-54798726D01*
X98562583Y-55497047D01*
X98975785Y-55773140D01*
X98878258Y-55773140D01*
X98878258Y-56224819D01*
X98627635Y-56412628D01*
X98324239Y-56866746D01*
X98431990Y-57148640D01*
X99510760Y-57148640D01*
X99510760Y-56598640D01*
X100610760Y-56598640D01*
X100610760Y-57148640D01*
X101689530Y-57148640D01*
X101797281Y-56866746D01*
X101493885Y-56412628D01*
X101243262Y-56224819D01*
X101243262Y-55796228D01*
X101691017Y-55497047D01*
X102157621Y-54798726D01*
X102321470Y-53975000D01*
X102157621Y-53151274D01*
X101771898Y-52574000D01*
X111183493Y-52574000D01*
X111003063Y-52754115D01*
X110674674Y-53544963D01*
X110673927Y-54401280D01*
X110681529Y-54419679D01*
X109300355Y-55800853D01*
X109158596Y-55703994D01*
X108780760Y-55627480D01*
X106580760Y-55627480D01*
X106227785Y-55693897D01*
X105903598Y-55902505D01*
X105686114Y-56220804D01*
X105609600Y-56598640D01*
X105609600Y-58798640D01*
X105676017Y-59151615D01*
X105884625Y-59475802D01*
X106202924Y-59693286D01*
X106478260Y-59749043D01*
X106478260Y-59887495D01*
X106114649Y-60250472D01*
X105847284Y-60894357D01*
X105846831Y-61413377D01*
X105470708Y-61789500D01*
X101420294Y-61789500D01*
X101341066Y-61644480D01*
X100379480Y-61644480D01*
X100379480Y-61789500D01*
X99579480Y-61789500D01*
X99579480Y-61644480D01*
X99179480Y-61644480D01*
X99179480Y-60844480D01*
X99579480Y-60844480D01*
X99579480Y-59875311D01*
X100379480Y-59875311D01*
X100379480Y-60844480D01*
X101341066Y-60844480D01*
X101473025Y-60602940D01*
X101143756Y-60110107D01*
X100621025Y-59750907D01*
X100379480Y-59875311D01*
X99579480Y-59875311D01*
X99337935Y-59750907D01*
X98885244Y-60061978D01*
X98722960Y-60061978D01*
X98722960Y-59271000D01*
X98675883Y-59020808D01*
X99228861Y-59435193D01*
X99510760Y-59337576D01*
X99510760Y-58248640D01*
X100610760Y-58248640D01*
X100610760Y-59337576D01*
X100892659Y-59435193D01*
X101493885Y-58984652D01*
X101797281Y-58530534D01*
X101689530Y-58248640D01*
X100610760Y-58248640D01*
X99510760Y-58248640D01*
X98431990Y-58248640D01*
X98330669Y-58513713D01*
X98129636Y-58376354D01*
X97751800Y-58299840D01*
X96151800Y-58299840D01*
X95798825Y-58366257D01*
X95474638Y-58574865D01*
X95334947Y-58779310D01*
X94941580Y-58516495D01*
X94700040Y-58648454D01*
X94700040Y-59610040D01*
X95100040Y-59610040D01*
X95100040Y-60222168D01*
X94912168Y-60410040D01*
X94700040Y-60410040D01*
X94700040Y-60622168D01*
X94523308Y-60798900D01*
X93900040Y-60798900D01*
X93900040Y-60410040D01*
X92930871Y-60410040D01*
X92806467Y-60651585D01*
X92907696Y-60798900D01*
X91978480Y-60798900D01*
X91518303Y-60890435D01*
X91448700Y-60936942D01*
X91448700Y-59368495D01*
X92806467Y-59368495D01*
X92930871Y-59610040D01*
X93900040Y-59610040D01*
X93900040Y-58648454D01*
X93658500Y-58516495D01*
X93165667Y-58845764D01*
X92806467Y-59368495D01*
X91448700Y-59368495D01*
X91448700Y-55871426D01*
X91487815Y-55855264D01*
X91981231Y-55362708D01*
X92248596Y-54718823D01*
X92249204Y-54021635D01*
X91982964Y-53377285D01*
X91490408Y-52883869D01*
X90846523Y-52616504D01*
X90149335Y-52615896D01*
X89504985Y-52882136D01*
X89011569Y-53374692D01*
X88744204Y-54018577D01*
X88743596Y-54715765D01*
X89009836Y-55360115D01*
X89043700Y-55394038D01*
X89043700Y-59860675D01*
X88982500Y-59921875D01*
X88982500Y-60941000D01*
X89043700Y-60941000D01*
X89043700Y-61741000D01*
X88982500Y-61741000D01*
X88982500Y-61869308D01*
X88710808Y-62141000D01*
X88182500Y-62141000D01*
X88182500Y-61741000D01*
X87163375Y-61741000D01*
X86957000Y-61947375D01*
X86957000Y-62305202D01*
X87082675Y-62608608D01*
X87180044Y-62705977D01*
X87067238Y-62778565D01*
X86866606Y-63072200D01*
X85783672Y-63072200D01*
X83202176Y-60490704D01*
X83031704Y-60376798D01*
X86957000Y-60376798D01*
X86957000Y-60734625D01*
X87163375Y-60941000D01*
X88182500Y-60941000D01*
X88182500Y-59921875D01*
X87976125Y-59715500D01*
X87618298Y-59715500D01*
X87314892Y-59841175D01*
X87082675Y-60073392D01*
X86957000Y-60376798D01*
X83031704Y-60376798D01*
X82850536Y-60255746D01*
X83493906Y-60247232D01*
X84063948Y-60247232D01*
X84524125Y-60155697D01*
X84914244Y-59895028D01*
X88277096Y-56532176D01*
X88537765Y-56142057D01*
X88629300Y-55681880D01*
X88629300Y-53192932D01*
X89713052Y-52109180D01*
X92288360Y-52109180D01*
X92308883Y-52105098D01*
X92329534Y-52108475D01*
X92528880Y-52101645D01*
X92528880Y-53190040D01*
G36*
X143770691Y-51443002D02*
X144073235Y-51745545D01*
X143734076Y-52088818D01*
X143633986Y-53407993D01*
X143734076Y-53911182D01*
X144073236Y-54254456D01*
X145327692Y-53000000D01*
X145313550Y-52985858D01*
X146985858Y-51313550D01*
X147000000Y-51327692D01*
X147014142Y-51313550D01*
X148686450Y-52985858D01*
X148672308Y-53000000D01*
X148686450Y-53014142D01*
X147014142Y-54686450D01*
X147000000Y-54672308D01*
X145745544Y-55926764D01*
X146088818Y-56265924D01*
X147407993Y-56366014D01*
X147911182Y-56265924D01*
X148254455Y-55926765D01*
X148556998Y-56229309D01*
X148972500Y-55813807D01*
X148972500Y-58297481D01*
X148577300Y-58218871D01*
X147830111Y-58367496D01*
X147307300Y-58716827D01*
X146784489Y-58367496D01*
X146037300Y-58218871D01*
X145290111Y-58367496D01*
X144767300Y-58716827D01*
X144244489Y-58367496D01*
X143497300Y-58218871D01*
X142750111Y-58367496D01*
X142466339Y-58557106D01*
X142424908Y-58515675D01*
X142121502Y-58390000D01*
X141663675Y-58390000D01*
X141457300Y-58596375D01*
X141457300Y-59865500D01*
X141605641Y-59865500D01*
X141544800Y-60171371D01*
X141544800Y-60859629D01*
X141605641Y-61165500D01*
X141457300Y-61165500D01*
X141457300Y-61426408D01*
X141165708Y-61718000D01*
X140457300Y-61718000D01*
X140457300Y-61165500D01*
X139338175Y-61165500D01*
X139131800Y-61371875D01*
X139131800Y-61810178D01*
X138886596Y-61443204D01*
X138063769Y-60620377D01*
X138133908Y-60591325D01*
X138366125Y-60359108D01*
X138491800Y-60055702D01*
X138491800Y-59647875D01*
X138285425Y-59441500D01*
X137216300Y-59441500D01*
X137216300Y-59800382D01*
X136908977Y-59595035D01*
X136448800Y-59503500D01*
X136316300Y-59503500D01*
X136316300Y-59441500D01*
X136186392Y-59441500D01*
X136127300Y-59382408D01*
X136127300Y-59051298D01*
X139131800Y-59051298D01*
X139131800Y-59659125D01*
X139338175Y-59865500D01*
X140457300Y-59865500D01*
X140457300Y-58596375D01*
X140250925Y-58390000D01*
X139793098Y-58390000D01*
X139489692Y-58515675D01*
X139257475Y-58747892D01*
X139131800Y-59051298D01*
X136127300Y-59051298D01*
X136127300Y-58547000D01*
X136126206Y-58541500D01*
X136316300Y-58541500D01*
X136316300Y-58270501D01*
X136396198Y-58303678D01*
X137133168Y-58304321D01*
X137216300Y-58269972D01*
X137216300Y-58541500D01*
X138285425Y-58541500D01*
X138491800Y-58335125D01*
X138491800Y-57927298D01*
X138366125Y-57623892D01*
X138290119Y-57547886D01*
X138335858Y-57502227D01*
X138618478Y-56821602D01*
X138619121Y-56084632D01*
X138337689Y-55403514D01*
X138321468Y-55387265D01*
X138429625Y-55279108D01*
X138555300Y-54975702D01*
X138555300Y-54567875D01*
X138348925Y-54361500D01*
X137279800Y-54361500D01*
X137279800Y-54658866D01*
X137136402Y-54599322D01*
X136490960Y-54598759D01*
X136472097Y-54586155D01*
X136379800Y-54567796D01*
X136379800Y-54361500D01*
X135310675Y-54361500D01*
X135177555Y-54494620D01*
X134658224Y-54494620D01*
X134633699Y-54457915D01*
X134149173Y-54134166D01*
X134623539Y-53817205D01*
X135003433Y-53248653D01*
X135091083Y-52808005D01*
X135122239Y-52803990D01*
X135104300Y-52847298D01*
X135104300Y-53255125D01*
X135310675Y-53461500D01*
X136379800Y-53461500D01*
X136379800Y-53190501D01*
X136459698Y-53223678D01*
X137196668Y-53224321D01*
X137279800Y-53189972D01*
X137279800Y-53461500D01*
X138348925Y-53461500D01*
X138555300Y-53255125D01*
X138555300Y-52847298D01*
X138429625Y-52543892D01*
X138353619Y-52467886D01*
X138399358Y-52422227D01*
X138681978Y-51741602D01*
X138682601Y-51027500D01*
X144186193Y-51027500D01*
X143770691Y-51443002D01*
X143770691Y-51443002D01*
G37*
X143770691Y-51443002D02*
X144073235Y-51745545D01*
X143734076Y-52088818D01*
X143633986Y-53407993D01*
X143734076Y-53911182D01*
X144073236Y-54254456D01*
X145327692Y-53000000D01*
X145313550Y-52985858D01*
X146985858Y-51313550D01*
X147000000Y-51327692D01*
X147014142Y-51313550D01*
X148686450Y-52985858D01*
X148672308Y-53000000D01*
X148686450Y-53014142D01*
X147014142Y-54686450D01*
X147000000Y-54672308D01*
X145745544Y-55926764D01*
X146088818Y-56265924D01*
X147407993Y-56366014D01*
X147911182Y-56265924D01*
X148254455Y-55926765D01*
X148556998Y-56229309D01*
X148972500Y-55813807D01*
X148972500Y-58297481D01*
X148577300Y-58218871D01*
X147830111Y-58367496D01*
X147307300Y-58716827D01*
X146784489Y-58367496D01*
X146037300Y-58218871D01*
X145290111Y-58367496D01*
X144767300Y-58716827D01*
X144244489Y-58367496D01*
X143497300Y-58218871D01*
X142750111Y-58367496D01*
X142466339Y-58557106D01*
X142424908Y-58515675D01*
X142121502Y-58390000D01*
X141663675Y-58390000D01*
X141457300Y-58596375D01*
X141457300Y-59865500D01*
X141605641Y-59865500D01*
X141544800Y-60171371D01*
X141544800Y-60859629D01*
X141605641Y-61165500D01*
X141457300Y-61165500D01*
X141457300Y-61426408D01*
X141165708Y-61718000D01*
X140457300Y-61718000D01*
X140457300Y-61165500D01*
X139338175Y-61165500D01*
X139131800Y-61371875D01*
X139131800Y-61810178D01*
X138886596Y-61443204D01*
X138063769Y-60620377D01*
X138133908Y-60591325D01*
X138366125Y-60359108D01*
X138491800Y-60055702D01*
X138491800Y-59647875D01*
X138285425Y-59441500D01*
X137216300Y-59441500D01*
X137216300Y-59800382D01*
X136908977Y-59595035D01*
X136448800Y-59503500D01*
X136316300Y-59503500D01*
X136316300Y-59441500D01*
X136186392Y-59441500D01*
X136127300Y-59382408D01*
X136127300Y-59051298D01*
X139131800Y-59051298D01*
X139131800Y-59659125D01*
X139338175Y-59865500D01*
X140457300Y-59865500D01*
X140457300Y-58596375D01*
X140250925Y-58390000D01*
X139793098Y-58390000D01*
X139489692Y-58515675D01*
X139257475Y-58747892D01*
X139131800Y-59051298D01*
X136127300Y-59051298D01*
X136127300Y-58547000D01*
X136126206Y-58541500D01*
X136316300Y-58541500D01*
X136316300Y-58270501D01*
X136396198Y-58303678D01*
X137133168Y-58304321D01*
X137216300Y-58269972D01*
X137216300Y-58541500D01*
X138285425Y-58541500D01*
X138491800Y-58335125D01*
X138491800Y-57927298D01*
X138366125Y-57623892D01*
X138290119Y-57547886D01*
X138335858Y-57502227D01*
X138618478Y-56821602D01*
X138619121Y-56084632D01*
X138337689Y-55403514D01*
X138321468Y-55387265D01*
X138429625Y-55279108D01*
X138555300Y-54975702D01*
X138555300Y-54567875D01*
X138348925Y-54361500D01*
X137279800Y-54361500D01*
X137279800Y-54658866D01*
X137136402Y-54599322D01*
X136490960Y-54598759D01*
X136472097Y-54586155D01*
X136379800Y-54567796D01*
X136379800Y-54361500D01*
X135310675Y-54361500D01*
X135177555Y-54494620D01*
X134658224Y-54494620D01*
X134633699Y-54457915D01*
X134149173Y-54134166D01*
X134623539Y-53817205D01*
X135003433Y-53248653D01*
X135091083Y-52808005D01*
X135122239Y-52803990D01*
X135104300Y-52847298D01*
X135104300Y-53255125D01*
X135310675Y-53461500D01*
X136379800Y-53461500D01*
X136379800Y-53190501D01*
X136459698Y-53223678D01*
X137196668Y-53224321D01*
X137279800Y-53189972D01*
X137279800Y-53461500D01*
X138348925Y-53461500D01*
X138555300Y-53255125D01*
X138555300Y-52847298D01*
X138429625Y-52543892D01*
X138353619Y-52467886D01*
X138399358Y-52422227D01*
X138681978Y-51741602D01*
X138682601Y-51027500D01*
X144186193Y-51027500D01*
X143770691Y-51443002D01*
G36*
X133722300Y-59045092D02*
X133722300Y-59880500D01*
X133723921Y-59888650D01*
X133556643Y-60055928D01*
X133273800Y-59773085D01*
X132990957Y-60055928D01*
X132425272Y-59490243D01*
X132708115Y-59207400D01*
X132425272Y-58924557D01*
X132616329Y-58733500D01*
X133410708Y-58733500D01*
X133722300Y-59045092D01*
X133722300Y-59045092D01*
G37*
X133722300Y-59045092D02*
X133722300Y-59880500D01*
X133723921Y-59888650D01*
X133556643Y-60055928D01*
X133273800Y-59773085D01*
X132990957Y-60055928D01*
X132425272Y-59490243D01*
X132708115Y-59207400D01*
X132425272Y-58924557D01*
X132616329Y-58733500D01*
X133410708Y-58733500D01*
X133722300Y-59045092D01*
G36*
X117300123Y-52961633D02*
X117646891Y-53308402D01*
X117767502Y-53914758D01*
X118034724Y-53996391D01*
X118738115Y-53293000D01*
X118455272Y-53010157D01*
X118891429Y-52574000D01*
X119150485Y-52574000D01*
X119303800Y-52727315D01*
X119457115Y-52574000D01*
X119716171Y-52574000D01*
X120152328Y-53010157D01*
X119869485Y-53293000D01*
X120572876Y-53996391D01*
X120840098Y-53914758D01*
X120954383Y-53314728D01*
X121307477Y-52961633D01*
X120919844Y-52574000D01*
X123054300Y-52574000D01*
X123054300Y-54864000D01*
X123089404Y-55040479D01*
X123108034Y-55219448D01*
X123134851Y-55268956D01*
X123145835Y-55324177D01*
X123245804Y-55473791D01*
X123331503Y-55632004D01*
X123375222Y-55667479D01*
X123406504Y-55714296D01*
X123556116Y-55814263D01*
X123695839Y-55927640D01*
X124007010Y-56091750D01*
X124104833Y-56328500D01*
X122986800Y-56328500D01*
X122526623Y-56420035D01*
X122136504Y-56680704D01*
X121074960Y-57742248D01*
X121074960Y-57493000D01*
X121008543Y-57140025D01*
X120799935Y-56815838D01*
X120481636Y-56598354D01*
X120103800Y-56521840D01*
X119233232Y-56521840D01*
X117273468Y-54562076D01*
X118600409Y-54562076D01*
X118682042Y-54829298D01*
X119317286Y-54950290D01*
X119925558Y-54829298D01*
X120007191Y-54562076D01*
X119303800Y-53858685D01*
X118600409Y-54562076D01*
X117273468Y-54562076D01*
X115836096Y-53124704D01*
X115445977Y-52864035D01*
X114985800Y-52772500D01*
X114658946Y-52772500D01*
X114652665Y-52757300D01*
X114469685Y-52574000D01*
X117687756Y-52574000D01*
X117300123Y-52961633D01*
X117300123Y-52961633D01*
G37*
X117300123Y-52961633D02*
X117646891Y-53308402D01*
X117767502Y-53914758D01*
X118034724Y-53996391D01*
X118738115Y-53293000D01*
X118455272Y-53010157D01*
X118891429Y-52574000D01*
X119150485Y-52574000D01*
X119303800Y-52727315D01*
X119457115Y-52574000D01*
X119716171Y-52574000D01*
X120152328Y-53010157D01*
X119869485Y-53293000D01*
X120572876Y-53996391D01*
X120840098Y-53914758D01*
X120954383Y-53314728D01*
X121307477Y-52961633D01*
X120919844Y-52574000D01*
X123054300Y-52574000D01*
X123054300Y-54864000D01*
X123089404Y-55040479D01*
X123108034Y-55219448D01*
X123134851Y-55268956D01*
X123145835Y-55324177D01*
X123245804Y-55473791D01*
X123331503Y-55632004D01*
X123375222Y-55667479D01*
X123406504Y-55714296D01*
X123556116Y-55814263D01*
X123695839Y-55927640D01*
X124007010Y-56091750D01*
X124104833Y-56328500D01*
X122986800Y-56328500D01*
X122526623Y-56420035D01*
X122136504Y-56680704D01*
X121074960Y-57742248D01*
X121074960Y-57493000D01*
X121008543Y-57140025D01*
X120799935Y-56815838D01*
X120481636Y-56598354D01*
X120103800Y-56521840D01*
X119233232Y-56521840D01*
X117273468Y-54562076D01*
X118600409Y-54562076D01*
X118682042Y-54829298D01*
X119317286Y-54950290D01*
X119925558Y-54829298D01*
X120007191Y-54562076D01*
X119303800Y-53858685D01*
X118600409Y-54562076D01*
X117273468Y-54562076D01*
X115836096Y-53124704D01*
X115445977Y-52864035D01*
X114985800Y-52772500D01*
X114658946Y-52772500D01*
X114652665Y-52757300D01*
X114469685Y-52574000D01*
X117687756Y-52574000D01*
X117300123Y-52961633D01*
M02*
