G04 #@! TF.FileFunction,Legend,Top*
%FSLAX46Y46*%
G04 Gerber Fmt 4.6, Leading zero omitted, Abs format (unit mm)*
G04 Created by KiCad (PCBNEW 4.0.7) date 05/28/19 16:54:45*
%MOMM*%
%LPD*%
G01*
G04 APERTURE LIST*
%ADD10C,0.100000*%
%ADD11C,0.150000*%
%ADD12C,0.120000*%
G04 APERTURE END LIST*
D10*
D11*
X60190310Y-147280381D02*
X60761739Y-147280381D01*
X60476024Y-148280381D02*
X60476024Y-147280381D01*
X61095072Y-148280381D02*
X61095072Y-147280381D01*
X61571262Y-148280381D02*
X61571262Y-147280381D01*
X61952215Y-147280381D01*
X62047453Y-147328000D01*
X62095072Y-147375619D01*
X62142691Y-147470857D01*
X62142691Y-147613714D01*
X62095072Y-147708952D01*
X62047453Y-147756571D01*
X61952215Y-147804190D01*
X61571262Y-147804190D01*
X62999834Y-147613714D02*
X62999834Y-148280381D01*
X62761738Y-147232762D02*
X62523643Y-147947048D01*
X63142691Y-147947048D01*
X64047453Y-148280381D02*
X63476024Y-148280381D01*
X63761738Y-148280381D02*
X63761738Y-147280381D01*
X63666500Y-147423238D01*
X63571262Y-147518476D01*
X63476024Y-147566095D01*
X78541810Y-147280381D02*
X79113239Y-147280381D01*
X78827524Y-148280381D02*
X78827524Y-147280381D01*
X79446572Y-148280381D02*
X79446572Y-147280381D01*
X79922762Y-148280381D02*
X79922762Y-147280381D01*
X80303715Y-147280381D01*
X80398953Y-147328000D01*
X80446572Y-147375619D01*
X80494191Y-147470857D01*
X80494191Y-147613714D01*
X80446572Y-147708952D01*
X80398953Y-147756571D01*
X80303715Y-147804190D01*
X79922762Y-147804190D01*
X81351334Y-147613714D02*
X81351334Y-148280381D01*
X81113238Y-147232762D02*
X80875143Y-147947048D01*
X81494191Y-147947048D01*
X82398953Y-148280381D02*
X81827524Y-148280381D01*
X82113238Y-148280381D02*
X82113238Y-147280381D01*
X82018000Y-147423238D01*
X81922762Y-147518476D01*
X81827524Y-147566095D01*
X96448810Y-147280381D02*
X97020239Y-147280381D01*
X96734524Y-148280381D02*
X96734524Y-147280381D01*
X97353572Y-148280381D02*
X97353572Y-147280381D01*
X97829762Y-148280381D02*
X97829762Y-147280381D01*
X98210715Y-147280381D01*
X98305953Y-147328000D01*
X98353572Y-147375619D01*
X98401191Y-147470857D01*
X98401191Y-147613714D01*
X98353572Y-147708952D01*
X98305953Y-147756571D01*
X98210715Y-147804190D01*
X97829762Y-147804190D01*
X99258334Y-147613714D02*
X99258334Y-148280381D01*
X99020238Y-147232762D02*
X98782143Y-147947048D01*
X99401191Y-147947048D01*
X100305953Y-148280381D02*
X99734524Y-148280381D01*
X100020238Y-148280381D02*
X100020238Y-147280381D01*
X99925000Y-147423238D01*
X99829762Y-147518476D01*
X99734524Y-147566095D01*
X132453310Y-147343881D02*
X133024739Y-147343881D01*
X132739024Y-148343881D02*
X132739024Y-147343881D01*
X133358072Y-148343881D02*
X133358072Y-147343881D01*
X133834262Y-148343881D02*
X133834262Y-147343881D01*
X134215215Y-147343881D01*
X134310453Y-147391500D01*
X134358072Y-147439119D01*
X134405691Y-147534357D01*
X134405691Y-147677214D01*
X134358072Y-147772452D01*
X134310453Y-147820071D01*
X134215215Y-147867690D01*
X133834262Y-147867690D01*
X135262834Y-147677214D02*
X135262834Y-148343881D01*
X135024738Y-147296262D02*
X134786643Y-148010548D01*
X135405691Y-148010548D01*
X136310453Y-148343881D02*
X135739024Y-148343881D01*
X136024738Y-148343881D02*
X136024738Y-147343881D01*
X135929500Y-147486738D01*
X135834262Y-147581976D01*
X135739024Y-147629595D01*
X114419310Y-147343881D02*
X114990739Y-147343881D01*
X114705024Y-148343881D02*
X114705024Y-147343881D01*
X115324072Y-148343881D02*
X115324072Y-147343881D01*
X115800262Y-148343881D02*
X115800262Y-147343881D01*
X116181215Y-147343881D01*
X116276453Y-147391500D01*
X116324072Y-147439119D01*
X116371691Y-147534357D01*
X116371691Y-147677214D01*
X116324072Y-147772452D01*
X116276453Y-147820071D01*
X116181215Y-147867690D01*
X115800262Y-147867690D01*
X117228834Y-147677214D02*
X117228834Y-148343881D01*
X116990738Y-147296262D02*
X116752643Y-148010548D01*
X117371691Y-148010548D01*
X118276453Y-148343881D02*
X117705024Y-148343881D01*
X117990738Y-148343881D02*
X117990738Y-147343881D01*
X117895500Y-147486738D01*
X117800262Y-147581976D01*
X117705024Y-147629595D01*
X122742486Y-69311829D02*
X123504391Y-69311829D01*
X123123439Y-69692781D02*
X123123439Y-68930876D01*
X124456772Y-68692781D02*
X123980581Y-68692781D01*
X123932962Y-69168971D01*
X123980581Y-69121352D01*
X124075819Y-69073733D01*
X124313915Y-69073733D01*
X124409153Y-69121352D01*
X124456772Y-69168971D01*
X124504391Y-69264210D01*
X124504391Y-69502305D01*
X124456772Y-69597543D01*
X124409153Y-69645162D01*
X124313915Y-69692781D01*
X124075819Y-69692781D01*
X123980581Y-69645162D01*
X123932962Y-69597543D01*
X124790105Y-68692781D02*
X125123438Y-69692781D01*
X125456772Y-68692781D01*
X117411596Y-68715000D02*
X117316358Y-68667381D01*
X117173501Y-68667381D01*
X117030643Y-68715000D01*
X116935405Y-68810238D01*
X116887786Y-68905476D01*
X116840167Y-69095952D01*
X116840167Y-69238810D01*
X116887786Y-69429286D01*
X116935405Y-69524524D01*
X117030643Y-69619762D01*
X117173501Y-69667381D01*
X117268739Y-69667381D01*
X117411596Y-69619762D01*
X117459215Y-69572143D01*
X117459215Y-69238810D01*
X117268739Y-69238810D01*
X117887786Y-69667381D02*
X117887786Y-68667381D01*
X118459215Y-69667381D01*
X118459215Y-68667381D01*
X118935405Y-69667381D02*
X118935405Y-68667381D01*
X119173500Y-68667381D01*
X119316358Y-68715000D01*
X119411596Y-68810238D01*
X119459215Y-68905476D01*
X119506834Y-69095952D01*
X119506834Y-69238810D01*
X119459215Y-69429286D01*
X119411596Y-69524524D01*
X119316358Y-69619762D01*
X119173500Y-69667381D01*
X118935405Y-69667381D01*
X94112629Y-112892843D02*
X94065010Y-112940462D01*
X93922153Y-112988081D01*
X93826915Y-112988081D01*
X93684057Y-112940462D01*
X93588819Y-112845224D01*
X93541200Y-112749986D01*
X93493581Y-112559510D01*
X93493581Y-112416652D01*
X93541200Y-112226176D01*
X93588819Y-112130938D01*
X93684057Y-112035700D01*
X93826915Y-111988081D01*
X93922153Y-111988081D01*
X94065010Y-112035700D01*
X94112629Y-112083319D01*
X94731676Y-111988081D02*
X94922153Y-111988081D01*
X95017391Y-112035700D01*
X95112629Y-112130938D01*
X95160248Y-112321414D01*
X95160248Y-112654748D01*
X95112629Y-112845224D01*
X95017391Y-112940462D01*
X94922153Y-112988081D01*
X94731676Y-112988081D01*
X94636438Y-112940462D01*
X94541200Y-112845224D01*
X94493581Y-112654748D01*
X94493581Y-112321414D01*
X94541200Y-112130938D01*
X94636438Y-112035700D01*
X94731676Y-111988081D01*
X95588819Y-112988081D02*
X95588819Y-111988081D01*
X96160248Y-112988081D01*
X96160248Y-111988081D01*
X96588819Y-112940462D02*
X96731676Y-112988081D01*
X96969772Y-112988081D01*
X97065010Y-112940462D01*
X97112629Y-112892843D01*
X97160248Y-112797605D01*
X97160248Y-112702367D01*
X97112629Y-112607129D01*
X97065010Y-112559510D01*
X96969772Y-112511890D01*
X96779295Y-112464271D01*
X96684057Y-112416652D01*
X96636438Y-112369033D01*
X96588819Y-112273795D01*
X96588819Y-112178557D01*
X96636438Y-112083319D01*
X96684057Y-112035700D01*
X96779295Y-111988081D01*
X97017391Y-111988081D01*
X97160248Y-112035700D01*
X97445962Y-111988081D02*
X98017391Y-111988081D01*
X97731676Y-112988081D02*
X97731676Y-111988081D01*
X98303105Y-112702367D02*
X98779296Y-112702367D01*
X98207867Y-112988081D02*
X98541200Y-111988081D01*
X98874534Y-112988081D01*
X99207867Y-112988081D02*
X99207867Y-111988081D01*
X99779296Y-112988081D01*
X99779296Y-111988081D01*
X100112629Y-111988081D02*
X100684058Y-111988081D01*
X100398343Y-112988081D02*
X100398343Y-111988081D01*
X102350725Y-112892843D02*
X102303106Y-112940462D01*
X102160249Y-112988081D01*
X102065011Y-112988081D01*
X101922153Y-112940462D01*
X101826915Y-112845224D01*
X101779296Y-112749986D01*
X101731677Y-112559510D01*
X101731677Y-112416652D01*
X101779296Y-112226176D01*
X101826915Y-112130938D01*
X101922153Y-112035700D01*
X102065011Y-111988081D01*
X102160249Y-111988081D01*
X102303106Y-112035700D01*
X102350725Y-112083319D01*
X102779296Y-111988081D02*
X102779296Y-112797605D01*
X102826915Y-112892843D01*
X102874534Y-112940462D01*
X102969772Y-112988081D01*
X103160249Y-112988081D01*
X103255487Y-112940462D01*
X103303106Y-112892843D01*
X103350725Y-112797605D01*
X103350725Y-111988081D01*
X104398344Y-112988081D02*
X104065010Y-112511890D01*
X103826915Y-112988081D02*
X103826915Y-111988081D01*
X104207868Y-111988081D01*
X104303106Y-112035700D01*
X104350725Y-112083319D01*
X104398344Y-112178557D01*
X104398344Y-112321414D01*
X104350725Y-112416652D01*
X104303106Y-112464271D01*
X104207868Y-112511890D01*
X103826915Y-112511890D01*
X105398344Y-112988081D02*
X105065010Y-112511890D01*
X104826915Y-112988081D02*
X104826915Y-111988081D01*
X105207868Y-111988081D01*
X105303106Y-112035700D01*
X105350725Y-112083319D01*
X105398344Y-112178557D01*
X105398344Y-112321414D01*
X105350725Y-112416652D01*
X105303106Y-112464271D01*
X105207868Y-112511890D01*
X104826915Y-112511890D01*
X105826915Y-112464271D02*
X106160249Y-112464271D01*
X106303106Y-112988081D02*
X105826915Y-112988081D01*
X105826915Y-111988081D01*
X106303106Y-111988081D01*
X106731677Y-112988081D02*
X106731677Y-111988081D01*
X107303106Y-112988081D01*
X107303106Y-111988081D01*
X107636439Y-111988081D02*
X108207868Y-111988081D01*
X107922153Y-112988081D02*
X107922153Y-111988081D01*
X108588820Y-112940462D02*
X108588820Y-112988081D01*
X108541201Y-113083319D01*
X108493582Y-113130938D01*
X94612628Y-114542843D02*
X94565009Y-114590462D01*
X94422152Y-114638081D01*
X94326914Y-114638081D01*
X94184056Y-114590462D01*
X94088818Y-114495224D01*
X94041199Y-114399986D01*
X93993580Y-114209510D01*
X93993580Y-114066652D01*
X94041199Y-113876176D01*
X94088818Y-113780938D01*
X94184056Y-113685700D01*
X94326914Y-113638081D01*
X94422152Y-113638081D01*
X94565009Y-113685700D01*
X94612628Y-113733319D01*
X95231675Y-113638081D02*
X95422152Y-113638081D01*
X95517390Y-113685700D01*
X95612628Y-113780938D01*
X95660247Y-113971414D01*
X95660247Y-114304748D01*
X95612628Y-114495224D01*
X95517390Y-114590462D01*
X95422152Y-114638081D01*
X95231675Y-114638081D01*
X95136437Y-114590462D01*
X95041199Y-114495224D01*
X94993580Y-114304748D01*
X94993580Y-113971414D01*
X95041199Y-113780938D01*
X95136437Y-113685700D01*
X95231675Y-113638081D01*
X96088818Y-114638081D02*
X96088818Y-113638081D01*
X96660247Y-114638081D01*
X96660247Y-113638081D01*
X97088818Y-114590462D02*
X97231675Y-114638081D01*
X97469771Y-114638081D01*
X97565009Y-114590462D01*
X97612628Y-114542843D01*
X97660247Y-114447605D01*
X97660247Y-114352367D01*
X97612628Y-114257129D01*
X97565009Y-114209510D01*
X97469771Y-114161890D01*
X97279294Y-114114271D01*
X97184056Y-114066652D01*
X97136437Y-114019033D01*
X97088818Y-113923795D01*
X97088818Y-113828557D01*
X97136437Y-113733319D01*
X97184056Y-113685700D01*
X97279294Y-113638081D01*
X97517390Y-113638081D01*
X97660247Y-113685700D01*
X97945961Y-113638081D02*
X98517390Y-113638081D01*
X98231675Y-114638081D02*
X98231675Y-113638081D01*
X98803104Y-114352367D02*
X99279295Y-114352367D01*
X98707866Y-114638081D02*
X99041199Y-113638081D01*
X99374533Y-114638081D01*
X99707866Y-114638081D02*
X99707866Y-113638081D01*
X100279295Y-114638081D01*
X100279295Y-113638081D01*
X100612628Y-113638081D02*
X101184057Y-113638081D01*
X100898342Y-114638081D02*
X100898342Y-113638081D01*
X102136438Y-113638081D02*
X102469771Y-114638081D01*
X102803105Y-113638081D01*
X103326914Y-113638081D02*
X103517391Y-113638081D01*
X103612629Y-113685700D01*
X103707867Y-113780938D01*
X103755486Y-113971414D01*
X103755486Y-114304748D01*
X103707867Y-114495224D01*
X103612629Y-114590462D01*
X103517391Y-114638081D01*
X103326914Y-114638081D01*
X103231676Y-114590462D01*
X103136438Y-114495224D01*
X103088819Y-114304748D01*
X103088819Y-113971414D01*
X103136438Y-113780938D01*
X103231676Y-113685700D01*
X103326914Y-113638081D01*
X104660248Y-114638081D02*
X104184057Y-114638081D01*
X104184057Y-113638081D01*
X104850724Y-113638081D02*
X105422153Y-113638081D01*
X105136438Y-114638081D02*
X105136438Y-113638081D01*
X105707867Y-114352367D02*
X106184058Y-114352367D01*
X105612629Y-114638081D02*
X105945962Y-113638081D01*
X106279296Y-114638081D01*
X107136439Y-113685700D02*
X107041201Y-113638081D01*
X106898344Y-113638081D01*
X106755486Y-113685700D01*
X106660248Y-113780938D01*
X106612629Y-113876176D01*
X106565010Y-114066652D01*
X106565010Y-114209510D01*
X106612629Y-114399986D01*
X106660248Y-114495224D01*
X106755486Y-114590462D01*
X106898344Y-114638081D01*
X106993582Y-114638081D01*
X107136439Y-114590462D01*
X107184058Y-114542843D01*
X107184058Y-114209510D01*
X106993582Y-114209510D01*
X107612629Y-114114271D02*
X107945963Y-114114271D01*
X108088820Y-114638081D02*
X107612629Y-114638081D01*
X107612629Y-113638081D01*
X108088820Y-113638081D01*
X88731676Y-116240462D02*
X88874533Y-116288081D01*
X89112629Y-116288081D01*
X89207867Y-116240462D01*
X89255486Y-116192843D01*
X89303105Y-116097605D01*
X89303105Y-116002367D01*
X89255486Y-115907129D01*
X89207867Y-115859510D01*
X89112629Y-115811890D01*
X88922152Y-115764271D01*
X88826914Y-115716652D01*
X88779295Y-115669033D01*
X88731676Y-115573795D01*
X88731676Y-115478557D01*
X88779295Y-115383319D01*
X88826914Y-115335700D01*
X88922152Y-115288081D01*
X89160248Y-115288081D01*
X89303105Y-115335700D01*
X89731676Y-115288081D02*
X89731676Y-116097605D01*
X89779295Y-116192843D01*
X89826914Y-116240462D01*
X89922152Y-116288081D01*
X90112629Y-116288081D01*
X90207867Y-116240462D01*
X90255486Y-116192843D01*
X90303105Y-116097605D01*
X90303105Y-115288081D01*
X90779295Y-116288081D02*
X90779295Y-115288081D01*
X91160248Y-115288081D01*
X91255486Y-115335700D01*
X91303105Y-115383319D01*
X91350724Y-115478557D01*
X91350724Y-115621414D01*
X91303105Y-115716652D01*
X91255486Y-115764271D01*
X91160248Y-115811890D01*
X90779295Y-115811890D01*
X91779295Y-116288081D02*
X91779295Y-115288081D01*
X92160248Y-115288081D01*
X92255486Y-115335700D01*
X92303105Y-115383319D01*
X92350724Y-115478557D01*
X92350724Y-115621414D01*
X92303105Y-115716652D01*
X92255486Y-115764271D01*
X92160248Y-115811890D01*
X91779295Y-115811890D01*
X93255486Y-116288081D02*
X92779295Y-116288081D01*
X92779295Y-115288081D01*
X93779295Y-115811890D02*
X93779295Y-116288081D01*
X93445962Y-115288081D02*
X93779295Y-115811890D01*
X94112629Y-115288081D01*
X95398343Y-115288081D02*
X95493582Y-115288081D01*
X95588820Y-115335700D01*
X95636439Y-115383319D01*
X95684058Y-115478557D01*
X95731677Y-115669033D01*
X95731677Y-115907129D01*
X95684058Y-116097605D01*
X95636439Y-116192843D01*
X95588820Y-116240462D01*
X95493582Y-116288081D01*
X95398343Y-116288081D01*
X95303105Y-116240462D01*
X95255486Y-116192843D01*
X95207867Y-116097605D01*
X95160248Y-115907129D01*
X95160248Y-115669033D01*
X95207867Y-115478557D01*
X95255486Y-115383319D01*
X95303105Y-115335700D01*
X95398343Y-115288081D01*
X96160248Y-115907129D02*
X96922153Y-115907129D01*
X97303105Y-115288081D02*
X97922153Y-115288081D01*
X97588819Y-115669033D01*
X97731677Y-115669033D01*
X97826915Y-115716652D01*
X97874534Y-115764271D01*
X97922153Y-115859510D01*
X97922153Y-116097605D01*
X97874534Y-116192843D01*
X97826915Y-116240462D01*
X97731677Y-116288081D01*
X97445962Y-116288081D01*
X97350724Y-116240462D01*
X97303105Y-116192843D01*
X98541200Y-115288081D02*
X98636439Y-115288081D01*
X98731677Y-115335700D01*
X98779296Y-115383319D01*
X98826915Y-115478557D01*
X98874534Y-115669033D01*
X98874534Y-115907129D01*
X98826915Y-116097605D01*
X98779296Y-116192843D01*
X98731677Y-116240462D01*
X98636439Y-116288081D01*
X98541200Y-116288081D01*
X98445962Y-116240462D01*
X98398343Y-116192843D01*
X98350724Y-116097605D01*
X98303105Y-115907129D01*
X98303105Y-115669033D01*
X98350724Y-115478557D01*
X98398343Y-115383319D01*
X98445962Y-115335700D01*
X98541200Y-115288081D01*
X99922153Y-115288081D02*
X100255486Y-116288081D01*
X100588820Y-115288081D01*
X100922153Y-116288081D02*
X100922153Y-115288081D01*
X101160248Y-115288081D01*
X101303106Y-115335700D01*
X101398344Y-115430938D01*
X101445963Y-115526176D01*
X101493582Y-115716652D01*
X101493582Y-115859510D01*
X101445963Y-116049986D01*
X101398344Y-116145224D01*
X101303106Y-116240462D01*
X101160248Y-116288081D01*
X100922153Y-116288081D01*
X102493582Y-116192843D02*
X102445963Y-116240462D01*
X102303106Y-116288081D01*
X102207868Y-116288081D01*
X102065010Y-116240462D01*
X101969772Y-116145224D01*
X101922153Y-116049986D01*
X101874534Y-115859510D01*
X101874534Y-115716652D01*
X101922153Y-115526176D01*
X101969772Y-115430938D01*
X102065010Y-115335700D01*
X102207868Y-115288081D01*
X102303106Y-115288081D01*
X102445963Y-115335700D01*
X102493582Y-115383319D01*
X102969772Y-116240462D02*
X102969772Y-116288081D01*
X102922153Y-116383319D01*
X102874534Y-116430938D01*
X104112629Y-115383319D02*
X104160248Y-115335700D01*
X104255486Y-115288081D01*
X104493582Y-115288081D01*
X104588820Y-115335700D01*
X104636439Y-115383319D01*
X104684058Y-115478557D01*
X104684058Y-115573795D01*
X104636439Y-115716652D01*
X104065010Y-116288081D01*
X104684058Y-116288081D01*
X105303105Y-115288081D02*
X105398344Y-115288081D01*
X105493582Y-115335700D01*
X105541201Y-115383319D01*
X105588820Y-115478557D01*
X105636439Y-115669033D01*
X105636439Y-115907129D01*
X105588820Y-116097605D01*
X105541201Y-116192843D01*
X105493582Y-116240462D01*
X105398344Y-116288081D01*
X105303105Y-116288081D01*
X105207867Y-116240462D01*
X105160248Y-116192843D01*
X105112629Y-116097605D01*
X105065010Y-115907129D01*
X105065010Y-115669033D01*
X105112629Y-115478557D01*
X105160248Y-115383319D01*
X105207867Y-115335700D01*
X105303105Y-115288081D01*
X106826915Y-116288081D02*
X106826915Y-115621414D01*
X106826915Y-115716652D02*
X106874534Y-115669033D01*
X106969772Y-115621414D01*
X107112630Y-115621414D01*
X107207868Y-115669033D01*
X107255487Y-115764271D01*
X107255487Y-116288081D01*
X107255487Y-115764271D02*
X107303106Y-115669033D01*
X107398344Y-115621414D01*
X107541201Y-115621414D01*
X107636439Y-115669033D01*
X107684058Y-115764271D01*
X107684058Y-116288081D01*
X108112629Y-116002367D02*
X108588820Y-116002367D01*
X108017391Y-116288081D02*
X108350724Y-115288081D01*
X108684058Y-116288081D01*
X109017391Y-115907129D02*
X109779296Y-115907129D01*
X110207867Y-115383319D02*
X110255486Y-115335700D01*
X110350724Y-115288081D01*
X110588820Y-115288081D01*
X110684058Y-115335700D01*
X110731677Y-115383319D01*
X110779296Y-115478557D01*
X110779296Y-115573795D01*
X110731677Y-115716652D01*
X110160248Y-116288081D01*
X110779296Y-116288081D01*
X111398343Y-115288081D02*
X111493582Y-115288081D01*
X111588820Y-115335700D01*
X111636439Y-115383319D01*
X111684058Y-115478557D01*
X111731677Y-115669033D01*
X111731677Y-115907129D01*
X111684058Y-116097605D01*
X111636439Y-116192843D01*
X111588820Y-116240462D01*
X111493582Y-116288081D01*
X111398343Y-116288081D01*
X111303105Y-116240462D01*
X111255486Y-116192843D01*
X111207867Y-116097605D01*
X111160248Y-115907129D01*
X111160248Y-115669033D01*
X111207867Y-115478557D01*
X111255486Y-115383319D01*
X111303105Y-115335700D01*
X111398343Y-115288081D01*
X112874534Y-116002367D02*
X113350725Y-116002367D01*
X112779296Y-116288081D02*
X113112629Y-115288081D01*
X113445963Y-116288081D01*
X59878933Y-104417905D02*
X59878933Y-104894096D01*
X59593219Y-104322667D02*
X60593219Y-104656000D01*
X59593219Y-104989334D01*
X59688457Y-105894096D02*
X59640838Y-105846477D01*
X59593219Y-105703620D01*
X59593219Y-105608382D01*
X59640838Y-105465524D01*
X59736076Y-105370286D01*
X59831314Y-105322667D01*
X60021790Y-105275048D01*
X60164648Y-105275048D01*
X60355124Y-105322667D01*
X60450362Y-105370286D01*
X60545600Y-105465524D01*
X60593219Y-105608382D01*
X60593219Y-105703620D01*
X60545600Y-105846477D01*
X60497981Y-105894096D01*
X59955133Y-94054705D02*
X59955133Y-94530896D01*
X59669419Y-93959467D02*
X60669419Y-94292800D01*
X59669419Y-94626134D01*
X59764657Y-95530896D02*
X59717038Y-95483277D01*
X59669419Y-95340420D01*
X59669419Y-95245182D01*
X59717038Y-95102324D01*
X59812276Y-95007086D01*
X59907514Y-94959467D01*
X60097990Y-94911848D01*
X60240848Y-94911848D01*
X60431324Y-94959467D01*
X60526562Y-95007086D01*
X60621800Y-95102324D01*
X60669419Y-95245182D01*
X60669419Y-95340420D01*
X60621800Y-95483277D01*
X60574181Y-95530896D01*
X147966181Y-101407719D02*
X148966181Y-101074386D01*
X147966181Y-100741052D01*
X148966181Y-100407719D02*
X147966181Y-100407719D01*
X147966181Y-100169624D01*
X148013800Y-100026766D01*
X148109038Y-99931528D01*
X148204276Y-99883909D01*
X148394752Y-99836290D01*
X148537610Y-99836290D01*
X148728086Y-99883909D01*
X148823324Y-99931528D01*
X148918562Y-100026766D01*
X148966181Y-100169624D01*
X148966181Y-100407719D01*
X148966181Y-99407719D02*
X147966181Y-99407719D01*
X148918562Y-98979148D02*
X148966181Y-98836291D01*
X148966181Y-98598195D01*
X148918562Y-98502957D01*
X148870943Y-98455338D01*
X148775705Y-98407719D01*
X148680467Y-98407719D01*
X148585229Y-98455338D01*
X148537610Y-98502957D01*
X148489990Y-98598195D01*
X148442371Y-98788672D01*
X148394752Y-98883910D01*
X148347133Y-98931529D01*
X148251895Y-98979148D01*
X148156657Y-98979148D01*
X148061419Y-98931529D01*
X148013800Y-98883910D01*
X147966181Y-98788672D01*
X147966181Y-98550576D01*
X148013800Y-98407719D01*
X148928081Y-106141685D02*
X147928081Y-106141685D01*
X148928081Y-105665495D02*
X147928081Y-105665495D01*
X147928081Y-105427400D01*
X147975700Y-105284542D01*
X148070938Y-105189304D01*
X148166176Y-105141685D01*
X148356652Y-105094066D01*
X148499510Y-105094066D01*
X148689986Y-105141685D01*
X148785224Y-105189304D01*
X148880462Y-105284542D01*
X148928081Y-105427400D01*
X148928081Y-105665495D01*
X148928081Y-104665495D02*
X147928081Y-104665495D01*
X148880462Y-104236924D02*
X148928081Y-104094067D01*
X148928081Y-103855971D01*
X148880462Y-103760733D01*
X148832843Y-103713114D01*
X148737605Y-103665495D01*
X148642367Y-103665495D01*
X148547129Y-103713114D01*
X148499510Y-103760733D01*
X148451890Y-103855971D01*
X148404271Y-104046448D01*
X148356652Y-104141686D01*
X148309033Y-104189305D01*
X148213795Y-104236924D01*
X148118557Y-104236924D01*
X148023319Y-104189305D01*
X147975700Y-104141686D01*
X147928081Y-104046448D01*
X147928081Y-103808352D01*
X147975700Y-103665495D01*
X147937600Y-110947104D02*
X147889981Y-111042342D01*
X147889981Y-111185199D01*
X147937600Y-111328057D01*
X148032838Y-111423295D01*
X148128076Y-111470914D01*
X148318552Y-111518533D01*
X148461410Y-111518533D01*
X148651886Y-111470914D01*
X148747124Y-111423295D01*
X148842362Y-111328057D01*
X148889981Y-111185199D01*
X148889981Y-111089961D01*
X148842362Y-110947104D01*
X148794743Y-110899485D01*
X148461410Y-110899485D01*
X148461410Y-111089961D01*
X148889981Y-110470914D02*
X147889981Y-110470914D01*
X148889981Y-109899485D01*
X147889981Y-109899485D01*
X148889981Y-109423295D02*
X147889981Y-109423295D01*
X147889981Y-109185200D01*
X147937600Y-109042342D01*
X148032838Y-108947104D01*
X148128076Y-108899485D01*
X148318552Y-108851866D01*
X148461410Y-108851866D01*
X148651886Y-108899485D01*
X148747124Y-108947104D01*
X148842362Y-109042342D01*
X148889981Y-109185200D01*
X148889981Y-109423295D01*
X149271029Y-128876324D02*
X149271029Y-128114419D01*
X148651981Y-127781086D02*
X149651981Y-127447753D01*
X148651981Y-127114419D01*
X149220229Y-135531124D02*
X149220229Y-134769219D01*
X149601181Y-135150171D02*
X148839276Y-135150171D01*
X148601181Y-134435886D02*
X149601181Y-134102553D01*
X148601181Y-133769219D01*
X94889581Y-82995876D02*
X94889581Y-83472067D01*
X93889581Y-83472067D01*
X94889581Y-82662543D02*
X93889581Y-82662543D01*
X94603867Y-82329209D01*
X93889581Y-81995876D01*
X94889581Y-81995876D01*
X93889581Y-81614924D02*
X93889581Y-80995876D01*
X94270533Y-81329210D01*
X94270533Y-81186352D01*
X94318152Y-81091114D01*
X94365771Y-81043495D01*
X94461010Y-80995876D01*
X94699105Y-80995876D01*
X94794343Y-81043495D01*
X94841962Y-81091114D01*
X94889581Y-81186352D01*
X94889581Y-81472067D01*
X94841962Y-81567305D01*
X94794343Y-81614924D01*
X93889581Y-80091114D02*
X93889581Y-80567305D01*
X94365771Y-80614924D01*
X94318152Y-80567305D01*
X94270533Y-80472067D01*
X94270533Y-80233971D01*
X94318152Y-80138733D01*
X94365771Y-80091114D01*
X94461010Y-80043495D01*
X94699105Y-80043495D01*
X94794343Y-80091114D01*
X94841962Y-80138733D01*
X94889581Y-80233971D01*
X94889581Y-80472067D01*
X94841962Y-80567305D01*
X94794343Y-80614924D01*
X94318152Y-79472067D02*
X94270533Y-79567305D01*
X94222914Y-79614924D01*
X94127676Y-79662543D01*
X94080057Y-79662543D01*
X93984819Y-79614924D01*
X93937200Y-79567305D01*
X93889581Y-79472067D01*
X93889581Y-79281590D01*
X93937200Y-79186352D01*
X93984819Y-79138733D01*
X94080057Y-79091114D01*
X94127676Y-79091114D01*
X94222914Y-79138733D01*
X94270533Y-79186352D01*
X94318152Y-79281590D01*
X94318152Y-79472067D01*
X94365771Y-79567305D01*
X94413390Y-79614924D01*
X94508629Y-79662543D01*
X94699105Y-79662543D01*
X94794343Y-79614924D01*
X94841962Y-79567305D01*
X94889581Y-79472067D01*
X94889581Y-79281590D01*
X94841962Y-79186352D01*
X94794343Y-79138733D01*
X94699105Y-79091114D01*
X94508629Y-79091114D01*
X94413390Y-79138733D01*
X94365771Y-79186352D01*
X94318152Y-79281590D01*
X109764724Y-83611981D02*
X109288533Y-83611981D01*
X109288533Y-82611981D01*
X110098057Y-83611981D02*
X110098057Y-82611981D01*
X110431391Y-83326267D01*
X110764724Y-82611981D01*
X110764724Y-83611981D01*
X111145676Y-82611981D02*
X111764724Y-82611981D01*
X111431390Y-82992933D01*
X111574248Y-82992933D01*
X111669486Y-83040552D01*
X111717105Y-83088171D01*
X111764724Y-83183410D01*
X111764724Y-83421505D01*
X111717105Y-83516743D01*
X111669486Y-83564362D01*
X111574248Y-83611981D01*
X111288533Y-83611981D01*
X111193295Y-83564362D01*
X111145676Y-83516743D01*
X112669486Y-82611981D02*
X112193295Y-82611981D01*
X112145676Y-83088171D01*
X112193295Y-83040552D01*
X112288533Y-82992933D01*
X112526629Y-82992933D01*
X112621867Y-83040552D01*
X112669486Y-83088171D01*
X112717105Y-83183410D01*
X112717105Y-83421505D01*
X112669486Y-83516743D01*
X112621867Y-83564362D01*
X112526629Y-83611981D01*
X112288533Y-83611981D01*
X112193295Y-83564362D01*
X112145676Y-83516743D01*
X113288533Y-83040552D02*
X113193295Y-82992933D01*
X113145676Y-82945314D01*
X113098057Y-82850076D01*
X113098057Y-82802457D01*
X113145676Y-82707219D01*
X113193295Y-82659600D01*
X113288533Y-82611981D01*
X113479010Y-82611981D01*
X113574248Y-82659600D01*
X113621867Y-82707219D01*
X113669486Y-82802457D01*
X113669486Y-82850076D01*
X113621867Y-82945314D01*
X113574248Y-82992933D01*
X113479010Y-83040552D01*
X113288533Y-83040552D01*
X113193295Y-83088171D01*
X113145676Y-83135790D01*
X113098057Y-83231029D01*
X113098057Y-83421505D01*
X113145676Y-83516743D01*
X113193295Y-83564362D01*
X113288533Y-83611981D01*
X113479010Y-83611981D01*
X113574248Y-83564362D01*
X113621867Y-83516743D01*
X113669486Y-83421505D01*
X113669486Y-83231029D01*
X113621867Y-83135790D01*
X113574248Y-83088171D01*
X113479010Y-83040552D01*
D12*
X139801600Y-97370900D02*
X147421600Y-97370900D01*
X139801600Y-112610900D02*
X147421600Y-112610900D01*
X141071600Y-97370900D02*
X141071600Y-112610900D01*
X147421600Y-97370900D02*
X147421600Y-112610900D01*
X139801600Y-97370900D02*
X139801600Y-112610900D01*
X76517800Y-131918800D02*
X76517800Y-138438800D01*
X76517800Y-138438800D02*
X101637800Y-138438800D01*
X101637800Y-138438800D02*
X101637800Y-131918800D01*
X101637800Y-131918800D02*
X76517800Y-131918800D01*
X76487800Y-135178800D02*
X76517800Y-135178800D01*
X101667800Y-135178800D02*
X101637800Y-135178800D01*
X121880000Y-76895000D02*
X121880000Y-71775000D01*
X124500000Y-76895000D02*
X124500000Y-71775000D01*
X121880000Y-76895000D02*
X122194000Y-76895000D01*
X124186000Y-76895000D02*
X124500000Y-76895000D01*
X121880000Y-71775000D02*
X122194000Y-71775000D01*
X124186000Y-71775000D02*
X124500000Y-71775000D01*
X135188000Y-77891000D02*
X130068000Y-77891000D01*
X135188000Y-75271000D02*
X130068000Y-75271000D01*
X135188000Y-77891000D02*
X135188000Y-77577000D01*
X135188000Y-75585000D02*
X135188000Y-75271000D01*
X130068000Y-77891000D02*
X130068000Y-77577000D01*
X130068000Y-75585000D02*
X130068000Y-75271000D01*
X121626000Y-84515000D02*
X121626000Y-79395000D01*
X124246000Y-84515000D02*
X124246000Y-79395000D01*
X121626000Y-84515000D02*
X121940000Y-84515000D01*
X123932000Y-84515000D02*
X124246000Y-84515000D01*
X121626000Y-79395000D02*
X121940000Y-79395000D01*
X123932000Y-79395000D02*
X124246000Y-79395000D01*
X95310000Y-74274040D02*
X90190000Y-74274040D01*
X95310000Y-71654040D02*
X90190000Y-71654040D01*
X95310000Y-74274040D02*
X95310000Y-73960040D01*
X95310000Y-71968040D02*
X95310000Y-71654040D01*
X90190000Y-74274040D02*
X90190000Y-73960040D01*
X90190000Y-71968040D02*
X90190000Y-71654040D01*
X118093800Y-76062200D02*
X112973800Y-76062200D01*
X118093800Y-73442200D02*
X112973800Y-73442200D01*
X118093800Y-76062200D02*
X118093800Y-75748200D01*
X118093800Y-73756200D02*
X118093800Y-73442200D01*
X112973800Y-76062200D02*
X112973800Y-75748200D01*
X112973800Y-73756200D02*
X112973800Y-73442200D01*
X65505600Y-73327800D02*
X65505600Y-67997800D01*
X65505600Y-67997800D02*
X55855600Y-67997800D01*
X55855600Y-67997800D02*
X55855600Y-73327800D01*
X55855600Y-73327800D02*
X65505600Y-73327800D01*
X66820600Y-70662800D02*
X65505600Y-70662800D01*
X54540600Y-70662800D02*
X55855600Y-70662800D01*
X64016100Y-73327800D02*
X64016100Y-67997800D01*
X65327800Y-131570000D02*
X65327800Y-126240000D01*
X65327800Y-126240000D02*
X55677800Y-126240000D01*
X55677800Y-126240000D02*
X55677800Y-131570000D01*
X55677800Y-131570000D02*
X65327800Y-131570000D01*
X66642800Y-128905000D02*
X65327800Y-128905000D01*
X54362800Y-128905000D02*
X55677800Y-128905000D01*
X63838300Y-131570000D02*
X63838300Y-126240000D01*
X55906400Y-73687400D02*
X55906400Y-79017400D01*
X55906400Y-79017400D02*
X65556400Y-79017400D01*
X65556400Y-79017400D02*
X65556400Y-73687400D01*
X65556400Y-73687400D02*
X55906400Y-73687400D01*
X54591400Y-76352400D02*
X55906400Y-76352400D01*
X66871400Y-76352400D02*
X65556400Y-76352400D01*
X57395900Y-73687400D02*
X57395900Y-79017400D01*
X55728600Y-120194800D02*
X55728600Y-125524800D01*
X55728600Y-125524800D02*
X65378600Y-125524800D01*
X65378600Y-125524800D02*
X65378600Y-120194800D01*
X65378600Y-120194800D02*
X55728600Y-120194800D01*
X54413600Y-122859800D02*
X55728600Y-122859800D01*
X66693600Y-122859800D02*
X65378600Y-122859800D01*
X57218100Y-120194800D02*
X57218100Y-125524800D01*
X86954300Y-59773000D02*
X86954300Y-61893000D01*
X86954300Y-61893000D02*
X91074300Y-61893000D01*
X91074300Y-61893000D02*
X91074300Y-59773000D01*
X91074300Y-59773000D02*
X86954300Y-59773000D01*
X86184300Y-60833000D02*
X86954300Y-60833000D01*
X91844300Y-60833000D02*
X91074300Y-60833000D01*
X87614300Y-59773000D02*
X87614300Y-61893000D01*
X83762400Y-59141300D02*
X81642400Y-59141300D01*
X81642400Y-59141300D02*
X81642400Y-63261300D01*
X81642400Y-63261300D02*
X83762400Y-63261300D01*
X83762400Y-63261300D02*
X83762400Y-59141300D01*
X82702400Y-58371300D02*
X82702400Y-59141300D01*
X82702400Y-64031300D02*
X82702400Y-63261300D01*
X83762400Y-59801300D02*
X81642400Y-59801300D01*
X79610600Y-67173000D02*
X79610600Y-67043000D01*
X79610600Y-67043000D02*
X84930600Y-67043000D01*
X84930600Y-67043000D02*
X84930600Y-67173000D01*
X79610600Y-69733000D02*
X79610600Y-69863000D01*
X79610600Y-69863000D02*
X84930600Y-69863000D01*
X84930600Y-69863000D02*
X84930600Y-69733000D01*
X80450600Y-67043000D02*
X80450600Y-69863000D01*
X92466000Y-88526000D02*
X92596000Y-88526000D01*
X92596000Y-88526000D02*
X92596000Y-93846000D01*
X92596000Y-93846000D02*
X92466000Y-93846000D01*
X89906000Y-88526000D02*
X89776000Y-88526000D01*
X89776000Y-88526000D02*
X89776000Y-93846000D01*
X89776000Y-93846000D02*
X89906000Y-93846000D01*
X92596000Y-89366000D02*
X89776000Y-89366000D01*
X104387200Y-68539300D02*
X102267200Y-68539300D01*
X102267200Y-68539300D02*
X102267200Y-72659300D01*
X102267200Y-72659300D02*
X104387200Y-72659300D01*
X104387200Y-72659300D02*
X104387200Y-68539300D01*
X103327200Y-67769300D02*
X103327200Y-68539300D01*
X103327200Y-73429300D02*
X103327200Y-72659300D01*
X104387200Y-69199300D02*
X102267200Y-69199300D01*
X132306000Y-82188500D02*
X132306000Y-84308500D01*
X132306000Y-84308500D02*
X136426000Y-84308500D01*
X136426000Y-84308500D02*
X136426000Y-82188500D01*
X136426000Y-82188500D02*
X132306000Y-82188500D01*
X131536000Y-83248500D02*
X132306000Y-83248500D01*
X137196000Y-83248500D02*
X136426000Y-83248500D01*
X132966000Y-82188500D02*
X132966000Y-84308500D01*
X131769500Y-78920500D02*
X131769500Y-78790500D01*
X131769500Y-78790500D02*
X137089500Y-78790500D01*
X137089500Y-78790500D02*
X137089500Y-78920500D01*
X131769500Y-81480500D02*
X131769500Y-81610500D01*
X131769500Y-81610500D02*
X137089500Y-81610500D01*
X137089500Y-81610500D02*
X137089500Y-81480500D01*
X132609500Y-78790500D02*
X132609500Y-81610500D01*
X136462392Y-51286665D02*
G75*
G03X136305484Y-54519000I1078608J-1672335D01*
G01*
X138619608Y-51286665D02*
G75*
G02X138776516Y-54519000I-1078608J-1672335D01*
G01*
X136461163Y-51917870D02*
G75*
G03X136461000Y-53999961I1079837J-1041130D01*
G01*
X138620837Y-51917870D02*
G75*
G02X138621000Y-53999961I-1079837J-1041130D01*
G01*
X136305000Y-54519000D02*
X136461000Y-54519000D01*
X138621000Y-54519000D02*
X138777000Y-54519000D01*
X69265800Y-107442000D02*
X61645800Y-107442000D01*
X69265800Y-92202000D02*
X61645800Y-92202000D01*
X67995800Y-107442000D02*
X67995800Y-92202000D01*
X61645800Y-107442000D02*
X61645800Y-92202000D01*
X69265800Y-107442000D02*
X69265800Y-92202000D01*
X141833600Y-135737600D02*
X141833600Y-125577600D01*
X140563600Y-135737600D02*
X148183600Y-135737600D01*
X148183600Y-135737600D02*
X148183600Y-125577600D01*
X148183600Y-125577600D02*
X140563600Y-125577600D01*
X140563600Y-125577600D02*
X140563600Y-135737600D01*
X121865000Y-93367000D02*
X121865000Y-89767000D01*
X121853478Y-93405478D02*
G75*
G02X117415000Y-91567000I-1838478J1838478D01*
G01*
X121853478Y-89728522D02*
G75*
G03X117415000Y-91567000I-1838478J-1838478D01*
G01*
X74857200Y-78685000D02*
X78457200Y-78685000D01*
X74818722Y-78673478D02*
G75*
G02X76657200Y-74235000I1838478J1838478D01*
G01*
X78495678Y-78673478D02*
G75*
G03X76657200Y-74235000I-1838478J1838478D01*
G01*
X87976000Y-98524500D02*
X87976000Y-98194500D01*
X87976000Y-98194500D02*
X94396000Y-98194500D01*
X94396000Y-98194500D02*
X94396000Y-98524500D01*
X87976000Y-100484500D02*
X87976000Y-100814500D01*
X87976000Y-100814500D02*
X94396000Y-100814500D01*
X94396000Y-100814500D02*
X94396000Y-100484500D01*
X74987300Y-52099700D02*
X74987300Y-51619700D01*
X74987300Y-51619700D02*
X85007300Y-51619700D01*
X85007300Y-51619700D02*
X85007300Y-52099700D01*
X74987300Y-54859700D02*
X74987300Y-55339700D01*
X74987300Y-55339700D02*
X85007300Y-55339700D01*
X85007300Y-55339700D02*
X85007300Y-54859700D01*
X97529500Y-66340500D02*
X97529500Y-66820500D01*
X97529500Y-66820500D02*
X87509500Y-66820500D01*
X87509500Y-66820500D02*
X87509500Y-66340500D01*
X97529500Y-63580500D02*
X97529500Y-63100500D01*
X97529500Y-63100500D02*
X87509500Y-63100500D01*
X87509500Y-63100500D02*
X87509500Y-63580500D01*
X93889000Y-94650000D02*
X93559000Y-94650000D01*
X93559000Y-94650000D02*
X93559000Y-88230000D01*
X93559000Y-88230000D02*
X93889000Y-88230000D01*
X95849000Y-94650000D02*
X96179000Y-94650000D01*
X96179000Y-94650000D02*
X96179000Y-88230000D01*
X96179000Y-88230000D02*
X95849000Y-88230000D01*
X98644000Y-87158000D02*
X98644000Y-86828000D01*
X98644000Y-86828000D02*
X105064000Y-86828000D01*
X105064000Y-86828000D02*
X105064000Y-87158000D01*
X98644000Y-89118000D02*
X98644000Y-89448000D01*
X98644000Y-89448000D02*
X105064000Y-89448000D01*
X105064000Y-89448000D02*
X105064000Y-89118000D01*
X98644000Y-90460000D02*
X98644000Y-90130000D01*
X98644000Y-90130000D02*
X105064000Y-90130000D01*
X105064000Y-90130000D02*
X105064000Y-90460000D01*
X98644000Y-92420000D02*
X98644000Y-92750000D01*
X98644000Y-92750000D02*
X105064000Y-92750000D01*
X105064000Y-92750000D02*
X105064000Y-92420000D01*
X88786000Y-102150000D02*
X88786000Y-108670000D01*
X88786000Y-108670000D02*
X113906000Y-108670000D01*
X113906000Y-108670000D02*
X113906000Y-102150000D01*
X113906000Y-102150000D02*
X88786000Y-102150000D01*
X88756000Y-105410000D02*
X88786000Y-105410000D01*
X113936000Y-105410000D02*
X113906000Y-105410000D01*
X131283000Y-71156000D02*
X131283000Y-70826000D01*
X131283000Y-70826000D02*
X137703000Y-70826000D01*
X137703000Y-70826000D02*
X137703000Y-71156000D01*
X131283000Y-73116000D02*
X131283000Y-73446000D01*
X131283000Y-73446000D02*
X137703000Y-73446000D01*
X137703000Y-73446000D02*
X137703000Y-73116000D01*
X113109300Y-70457500D02*
X113109300Y-70127500D01*
X113109300Y-70127500D02*
X119529300Y-70127500D01*
X119529300Y-70127500D02*
X119529300Y-70457500D01*
X113109300Y-72417500D02*
X113109300Y-72747500D01*
X113109300Y-72747500D02*
X119529300Y-72747500D01*
X119529300Y-72747500D02*
X119529300Y-72417500D01*
X107153000Y-96810000D02*
X107153000Y-96480000D01*
X107153000Y-96480000D02*
X113573000Y-96480000D01*
X113573000Y-96480000D02*
X113573000Y-96810000D01*
X107153000Y-98770000D02*
X107153000Y-99100000D01*
X107153000Y-99100000D02*
X113573000Y-99100000D01*
X113573000Y-99100000D02*
X113573000Y-98770000D01*
X123669500Y-98706500D02*
X123669500Y-99036500D01*
X123669500Y-99036500D02*
X117249500Y-99036500D01*
X117249500Y-99036500D02*
X117249500Y-98706500D01*
X123669500Y-96746500D02*
X123669500Y-96416500D01*
X123669500Y-96416500D02*
X117249500Y-96416500D01*
X117249500Y-96416500D02*
X117249500Y-96746500D01*
X126083500Y-96047000D02*
X125753500Y-96047000D01*
X125753500Y-96047000D02*
X125753500Y-89627000D01*
X125753500Y-89627000D02*
X126083500Y-89627000D01*
X128043500Y-96047000D02*
X128373500Y-96047000D01*
X128373500Y-96047000D02*
X128373500Y-89627000D01*
X128373500Y-89627000D02*
X128043500Y-89627000D01*
X88203600Y-83975500D02*
X88533600Y-83975500D01*
X88533600Y-83975500D02*
X88533600Y-90395500D01*
X88533600Y-90395500D02*
X88203600Y-90395500D01*
X86243600Y-83975500D02*
X85913600Y-83975500D01*
X85913600Y-83975500D02*
X85913600Y-90395500D01*
X85913600Y-90395500D02*
X86243600Y-90395500D01*
X128126000Y-74873000D02*
X128606000Y-74873000D01*
X128606000Y-74873000D02*
X128606000Y-84893000D01*
X128606000Y-84893000D02*
X128126000Y-84893000D01*
X125366000Y-74873000D02*
X124886000Y-74873000D01*
X124886000Y-74873000D02*
X124886000Y-84893000D01*
X124886000Y-84893000D02*
X125366000Y-84893000D01*
X125088800Y-108591840D02*
X125088800Y-108111840D01*
X125088800Y-108111840D02*
X135108800Y-108111840D01*
X135108800Y-108111840D02*
X135108800Y-108591840D01*
X125088800Y-111351840D02*
X125088800Y-111831840D01*
X125088800Y-111831840D02*
X135108800Y-111831840D01*
X135108800Y-111831840D02*
X135108800Y-111351840D01*
X138096700Y-67528000D02*
X138096700Y-67858000D01*
X138096700Y-67858000D02*
X131676700Y-67858000D01*
X131676700Y-67858000D02*
X131676700Y-67528000D01*
X138096700Y-65568000D02*
X138096700Y-65238000D01*
X138096700Y-65238000D02*
X131676700Y-65238000D01*
X131676700Y-65238000D02*
X131676700Y-65568000D01*
X103922000Y-84490000D02*
X103592000Y-84490000D01*
X103592000Y-84490000D02*
X103592000Y-78070000D01*
X103592000Y-78070000D02*
X103922000Y-78070000D01*
X105882000Y-84490000D02*
X106212000Y-84490000D01*
X106212000Y-84490000D02*
X106212000Y-78070000D01*
X106212000Y-78070000D02*
X105882000Y-78070000D01*
X75758600Y-71440480D02*
X75758600Y-71110480D01*
X75758600Y-71110480D02*
X82178600Y-71110480D01*
X82178600Y-71110480D02*
X82178600Y-71440480D01*
X75758600Y-73400480D02*
X75758600Y-73730480D01*
X75758600Y-73730480D02*
X82178600Y-73730480D01*
X82178600Y-73730480D02*
X82178600Y-73400480D01*
X87426360Y-72238160D02*
X87756360Y-72238160D01*
X87756360Y-72238160D02*
X87756360Y-78658160D01*
X87756360Y-78658160D02*
X87426360Y-78658160D01*
X85466360Y-72238160D02*
X85136360Y-72238160D01*
X85136360Y-72238160D02*
X85136360Y-78658160D01*
X85136360Y-78658160D02*
X85466360Y-78658160D01*
X100620000Y-84490000D02*
X100290000Y-84490000D01*
X100290000Y-84490000D02*
X100290000Y-78070000D01*
X100290000Y-78070000D02*
X100620000Y-78070000D01*
X102580000Y-84490000D02*
X102910000Y-84490000D01*
X102910000Y-84490000D02*
X102910000Y-78070000D01*
X102910000Y-78070000D02*
X102580000Y-78070000D01*
X126330000Y-51598000D02*
X126330000Y-51268000D01*
X126330000Y-51268000D02*
X132750000Y-51268000D01*
X132750000Y-51268000D02*
X132750000Y-51598000D01*
X126330000Y-53558000D02*
X126330000Y-53888000D01*
X126330000Y-53888000D02*
X132750000Y-53888000D01*
X132750000Y-53888000D02*
X132750000Y-53558000D01*
X146988500Y-86915000D02*
X144638500Y-86915000D01*
X148438500Y-91965000D02*
X144888500Y-91965000D01*
X148438500Y-90215000D02*
X148438500Y-91965000D01*
X148438500Y-83615000D02*
X148438500Y-81865000D01*
X148438500Y-81865000D02*
X144838500Y-81865000D01*
X147038500Y-86915000D02*
X146038500Y-87865000D01*
X147038500Y-86965000D02*
X146088500Y-85965000D01*
X147038500Y-83615000D02*
X149738500Y-83615000D01*
X149738500Y-83615000D02*
X149738500Y-90215000D01*
X149738500Y-90215000D02*
X147038500Y-90215000D01*
X147038500Y-90215000D02*
X147038500Y-83615000D01*
X146734500Y-69922400D02*
X144384500Y-69922400D01*
X148184500Y-74972400D02*
X144634500Y-74972400D01*
X148184500Y-73222400D02*
X148184500Y-74972400D01*
X148184500Y-66622400D02*
X148184500Y-64872400D01*
X148184500Y-64872400D02*
X144584500Y-64872400D01*
X146784500Y-69922400D02*
X145784500Y-70872400D01*
X146784500Y-69972400D02*
X145834500Y-68972400D01*
X146784500Y-66622400D02*
X149484500Y-66622400D01*
X149484500Y-66622400D02*
X149484500Y-73222400D01*
X149484500Y-73222400D02*
X146784500Y-73222400D01*
X146784500Y-73222400D02*
X146784500Y-66622400D01*
X95112080Y-75169720D02*
G75*
G02X93112080Y-75169720I-1000000J0D01*
G01*
X93112080Y-75169720D02*
X91462080Y-75169720D01*
X91462080Y-75169720D02*
X91462080Y-85449720D01*
X91462080Y-85449720D02*
X96762080Y-85449720D01*
X96762080Y-85449720D02*
X96762080Y-75169720D01*
X96762080Y-75169720D02*
X95112080Y-75169720D01*
X88972080Y-75109720D02*
X88972080Y-85509720D01*
X88972080Y-85509720D02*
X99252080Y-85509720D01*
X99252080Y-85509720D02*
X99252080Y-75109720D01*
X99252080Y-75109720D02*
X88972080Y-75109720D01*
X117662000Y-84058000D02*
G75*
G02X117662000Y-82058000I0J1000000D01*
G01*
X117662000Y-82058000D02*
X117662000Y-80408000D01*
X117662000Y-80408000D02*
X107382000Y-80408000D01*
X107382000Y-80408000D02*
X107382000Y-85708000D01*
X107382000Y-85708000D02*
X117662000Y-85708000D01*
X117662000Y-85708000D02*
X117662000Y-84058000D01*
X117722000Y-77918000D02*
X107322000Y-77918000D01*
X107322000Y-77918000D02*
X107322000Y-88198000D01*
X107322000Y-88198000D02*
X117722000Y-88198000D01*
X117722000Y-88198000D02*
X117722000Y-77918000D01*
X96663051Y-53356355D02*
G75*
G03X88830118Y-53353800I-3916851J-1177445D01*
G01*
X96663051Y-55711245D02*
G75*
G02X88830118Y-55713800I-3916851J1177445D01*
G01*
X96663051Y-55711245D02*
G75*
G03X96662282Y-53353800I-3916851J1177445D01*
G01*
X92746200Y-50483800D02*
X92746200Y-58583800D01*
X92786200Y-50483800D02*
X92786200Y-58583800D01*
X92826200Y-50483800D02*
X92826200Y-58583800D01*
X92866200Y-50484800D02*
X92866200Y-58582800D01*
X92906200Y-50486800D02*
X92906200Y-58580800D01*
X92946200Y-50487800D02*
X92946200Y-58579800D01*
X92986200Y-50490800D02*
X92986200Y-58576800D01*
X93026200Y-50492800D02*
X93026200Y-58574800D01*
X93066200Y-50495800D02*
X93066200Y-58571800D01*
X93106200Y-50498800D02*
X93106200Y-58568800D01*
X93146200Y-50502800D02*
X93146200Y-58564800D01*
X93186200Y-50506800D02*
X93186200Y-58560800D01*
X93226200Y-50511800D02*
X93226200Y-58555800D01*
X93266200Y-50516800D02*
X93266200Y-58550800D01*
X93306200Y-50521800D02*
X93306200Y-58545800D01*
X93346200Y-50527800D02*
X93346200Y-58539800D01*
X93386200Y-50533800D02*
X93386200Y-58533800D01*
X93426200Y-50539800D02*
X93426200Y-58527800D01*
X93467200Y-50546800D02*
X93467200Y-58520800D01*
X93507200Y-50554800D02*
X93507200Y-58512800D01*
X93547200Y-50562800D02*
X93547200Y-58504800D01*
X93587200Y-50570800D02*
X93587200Y-58496800D01*
X93627200Y-50578800D02*
X93627200Y-58488800D01*
X93667200Y-50587800D02*
X93667200Y-58479800D01*
X93707200Y-50597800D02*
X93707200Y-58469800D01*
X93747200Y-50607800D02*
X93747200Y-58459800D01*
X93787200Y-50617800D02*
X93787200Y-58449800D01*
X93827200Y-50628800D02*
X93827200Y-58438800D01*
X93867200Y-50639800D02*
X93867200Y-58427800D01*
X93907200Y-50650800D02*
X93907200Y-58416800D01*
X93947200Y-50663800D02*
X93947200Y-58403800D01*
X93987200Y-50675800D02*
X93987200Y-58391800D01*
X94027200Y-50688800D02*
X94027200Y-58378800D01*
X94067200Y-50701800D02*
X94067200Y-58365800D01*
X94107200Y-50715800D02*
X94107200Y-58351800D01*
X94147200Y-50730800D02*
X94147200Y-58336800D01*
X94187200Y-50744800D02*
X94187200Y-58322800D01*
X94227200Y-50760800D02*
X94227200Y-58306800D01*
X94267200Y-50775800D02*
X94267200Y-53553800D01*
X94267200Y-55513800D02*
X94267200Y-58291800D01*
X94307200Y-50792800D02*
X94307200Y-53553800D01*
X94307200Y-55513800D02*
X94307200Y-58274800D01*
X94347200Y-50808800D02*
X94347200Y-53553800D01*
X94347200Y-55513800D02*
X94347200Y-58258800D01*
X94387200Y-50826800D02*
X94387200Y-53553800D01*
X94387200Y-55513800D02*
X94387200Y-58240800D01*
X94427200Y-50843800D02*
X94427200Y-53553800D01*
X94427200Y-55513800D02*
X94427200Y-58223800D01*
X94467200Y-50862800D02*
X94467200Y-53553800D01*
X94467200Y-55513800D02*
X94467200Y-58204800D01*
X94507200Y-50881800D02*
X94507200Y-53553800D01*
X94507200Y-55513800D02*
X94507200Y-58185800D01*
X94547200Y-50900800D02*
X94547200Y-53553800D01*
X94547200Y-55513800D02*
X94547200Y-58166800D01*
X94587200Y-50920800D02*
X94587200Y-53553800D01*
X94587200Y-55513800D02*
X94587200Y-58146800D01*
X94627200Y-50940800D02*
X94627200Y-53553800D01*
X94627200Y-55513800D02*
X94627200Y-58126800D01*
X94667200Y-50961800D02*
X94667200Y-53553800D01*
X94667200Y-55513800D02*
X94667200Y-58105800D01*
X94707200Y-50983800D02*
X94707200Y-53553800D01*
X94707200Y-55513800D02*
X94707200Y-58083800D01*
X94747200Y-51005800D02*
X94747200Y-53553800D01*
X94747200Y-55513800D02*
X94747200Y-58061800D01*
X94787200Y-51028800D02*
X94787200Y-53553800D01*
X94787200Y-55513800D02*
X94787200Y-58038800D01*
X94827200Y-51051800D02*
X94827200Y-53553800D01*
X94827200Y-55513800D02*
X94827200Y-58015800D01*
X94867200Y-51075800D02*
X94867200Y-53553800D01*
X94867200Y-55513800D02*
X94867200Y-57991800D01*
X94907200Y-51099800D02*
X94907200Y-53553800D01*
X94907200Y-55513800D02*
X94907200Y-57967800D01*
X94947200Y-51125800D02*
X94947200Y-53553800D01*
X94947200Y-55513800D02*
X94947200Y-57941800D01*
X94987200Y-51150800D02*
X94987200Y-53553800D01*
X94987200Y-55513800D02*
X94987200Y-57916800D01*
X95027200Y-51177800D02*
X95027200Y-53553800D01*
X95027200Y-55513800D02*
X95027200Y-57889800D01*
X95067200Y-51204800D02*
X95067200Y-53553800D01*
X95067200Y-55513800D02*
X95067200Y-57862800D01*
X95107200Y-51232800D02*
X95107200Y-53553800D01*
X95107200Y-55513800D02*
X95107200Y-57834800D01*
X95147200Y-51261800D02*
X95147200Y-53553800D01*
X95147200Y-55513800D02*
X95147200Y-57805800D01*
X95187200Y-51290800D02*
X95187200Y-53553800D01*
X95187200Y-55513800D02*
X95187200Y-57776800D01*
X95227200Y-51320800D02*
X95227200Y-53553800D01*
X95227200Y-55513800D02*
X95227200Y-57746800D01*
X95267200Y-51351800D02*
X95267200Y-53553800D01*
X95267200Y-55513800D02*
X95267200Y-57715800D01*
X95307200Y-51383800D02*
X95307200Y-53553800D01*
X95307200Y-55513800D02*
X95307200Y-57683800D01*
X95347200Y-51415800D02*
X95347200Y-53553800D01*
X95347200Y-55513800D02*
X95347200Y-57651800D01*
X95387200Y-51449800D02*
X95387200Y-53553800D01*
X95387200Y-55513800D02*
X95387200Y-57617800D01*
X95427200Y-51483800D02*
X95427200Y-53553800D01*
X95427200Y-55513800D02*
X95427200Y-57583800D01*
X95467200Y-51518800D02*
X95467200Y-53553800D01*
X95467200Y-55513800D02*
X95467200Y-57548800D01*
X95507200Y-51554800D02*
X95507200Y-53553800D01*
X95507200Y-55513800D02*
X95507200Y-57512800D01*
X95547200Y-51591800D02*
X95547200Y-53553800D01*
X95547200Y-55513800D02*
X95547200Y-57475800D01*
X95587200Y-51629800D02*
X95587200Y-53553800D01*
X95587200Y-55513800D02*
X95587200Y-57437800D01*
X95627200Y-51668800D02*
X95627200Y-53553800D01*
X95627200Y-55513800D02*
X95627200Y-57398800D01*
X95667200Y-51709800D02*
X95667200Y-53553800D01*
X95667200Y-55513800D02*
X95667200Y-57357800D01*
X95707200Y-51750800D02*
X95707200Y-53553800D01*
X95707200Y-55513800D02*
X95707200Y-57316800D01*
X95747200Y-51793800D02*
X95747200Y-53553800D01*
X95747200Y-55513800D02*
X95747200Y-57273800D01*
X95787200Y-51836800D02*
X95787200Y-53553800D01*
X95787200Y-55513800D02*
X95787200Y-57230800D01*
X95827200Y-51881800D02*
X95827200Y-53553800D01*
X95827200Y-55513800D02*
X95827200Y-57185800D01*
X95867200Y-51928800D02*
X95867200Y-53553800D01*
X95867200Y-55513800D02*
X95867200Y-57138800D01*
X95907200Y-51976800D02*
X95907200Y-53553800D01*
X95907200Y-55513800D02*
X95907200Y-57090800D01*
X95947200Y-52025800D02*
X95947200Y-53553800D01*
X95947200Y-55513800D02*
X95947200Y-57041800D01*
X95987200Y-52076800D02*
X95987200Y-53553800D01*
X95987200Y-55513800D02*
X95987200Y-56990800D01*
X96027200Y-52129800D02*
X96027200Y-53553800D01*
X96027200Y-55513800D02*
X96027200Y-56937800D01*
X96067200Y-52184800D02*
X96067200Y-53553800D01*
X96067200Y-55513800D02*
X96067200Y-56882800D01*
X96107200Y-52240800D02*
X96107200Y-53553800D01*
X96107200Y-55513800D02*
X96107200Y-56826800D01*
X96147200Y-52299800D02*
X96147200Y-53553800D01*
X96147200Y-55513800D02*
X96147200Y-56767800D01*
X96187200Y-52360800D02*
X96187200Y-53553800D01*
X96187200Y-55513800D02*
X96187200Y-56706800D01*
X96227200Y-52424800D02*
X96227200Y-56642800D01*
X96267200Y-52490800D02*
X96267200Y-56576800D01*
X96307200Y-52559800D02*
X96307200Y-56507800D01*
X96347200Y-52631800D02*
X96347200Y-56435800D01*
X96387200Y-52707800D02*
X96387200Y-56359800D01*
X96427200Y-52788800D02*
X96427200Y-56278800D01*
X96467200Y-52873800D02*
X96467200Y-56193800D01*
X96507200Y-52963800D02*
X96507200Y-56103800D01*
X96547200Y-53060800D02*
X96547200Y-56006800D01*
X96587200Y-53164800D02*
X96587200Y-55902800D01*
X96627200Y-53279800D02*
X96627200Y-55787800D01*
X96667200Y-53406800D02*
X96667200Y-55660800D01*
X96707200Y-53550800D02*
X96707200Y-55516800D01*
X96747200Y-53719800D02*
X96747200Y-55347800D01*
X96787200Y-53935800D02*
X96787200Y-55131800D01*
X96827200Y-54287800D02*
X96827200Y-54779800D01*
X88046200Y-54533800D02*
X89246200Y-54533800D01*
X88646200Y-53883800D02*
X88646200Y-55183800D01*
X79899051Y-59617455D02*
G75*
G03X72066118Y-59614900I-3916851J-1177445D01*
G01*
X79899051Y-61972345D02*
G75*
G02X72066118Y-61974900I-3916851J1177445D01*
G01*
X79899051Y-61972345D02*
G75*
G03X79898282Y-59614900I-3916851J1177445D01*
G01*
X75982200Y-56744900D02*
X75982200Y-64844900D01*
X76022200Y-56744900D02*
X76022200Y-64844900D01*
X76062200Y-56744900D02*
X76062200Y-64844900D01*
X76102200Y-56745900D02*
X76102200Y-64843900D01*
X76142200Y-56747900D02*
X76142200Y-64841900D01*
X76182200Y-56748900D02*
X76182200Y-64840900D01*
X76222200Y-56751900D02*
X76222200Y-64837900D01*
X76262200Y-56753900D02*
X76262200Y-64835900D01*
X76302200Y-56756900D02*
X76302200Y-64832900D01*
X76342200Y-56759900D02*
X76342200Y-64829900D01*
X76382200Y-56763900D02*
X76382200Y-64825900D01*
X76422200Y-56767900D02*
X76422200Y-64821900D01*
X76462200Y-56772900D02*
X76462200Y-64816900D01*
X76502200Y-56777900D02*
X76502200Y-64811900D01*
X76542200Y-56782900D02*
X76542200Y-64806900D01*
X76582200Y-56788900D02*
X76582200Y-64800900D01*
X76622200Y-56794900D02*
X76622200Y-64794900D01*
X76662200Y-56800900D02*
X76662200Y-64788900D01*
X76703200Y-56807900D02*
X76703200Y-64781900D01*
X76743200Y-56815900D02*
X76743200Y-64773900D01*
X76783200Y-56823900D02*
X76783200Y-64765900D01*
X76823200Y-56831900D02*
X76823200Y-64757900D01*
X76863200Y-56839900D02*
X76863200Y-64749900D01*
X76903200Y-56848900D02*
X76903200Y-64740900D01*
X76943200Y-56858900D02*
X76943200Y-64730900D01*
X76983200Y-56868900D02*
X76983200Y-64720900D01*
X77023200Y-56878900D02*
X77023200Y-64710900D01*
X77063200Y-56889900D02*
X77063200Y-64699900D01*
X77103200Y-56900900D02*
X77103200Y-64688900D01*
X77143200Y-56911900D02*
X77143200Y-64677900D01*
X77183200Y-56924900D02*
X77183200Y-64664900D01*
X77223200Y-56936900D02*
X77223200Y-64652900D01*
X77263200Y-56949900D02*
X77263200Y-64639900D01*
X77303200Y-56962900D02*
X77303200Y-64626900D01*
X77343200Y-56976900D02*
X77343200Y-64612900D01*
X77383200Y-56991900D02*
X77383200Y-64597900D01*
X77423200Y-57005900D02*
X77423200Y-64583900D01*
X77463200Y-57021900D02*
X77463200Y-64567900D01*
X77503200Y-57036900D02*
X77503200Y-59814900D01*
X77503200Y-61774900D02*
X77503200Y-64552900D01*
X77543200Y-57053900D02*
X77543200Y-59814900D01*
X77543200Y-61774900D02*
X77543200Y-64535900D01*
X77583200Y-57069900D02*
X77583200Y-59814900D01*
X77583200Y-61774900D02*
X77583200Y-64519900D01*
X77623200Y-57087900D02*
X77623200Y-59814900D01*
X77623200Y-61774900D02*
X77623200Y-64501900D01*
X77663200Y-57104900D02*
X77663200Y-59814900D01*
X77663200Y-61774900D02*
X77663200Y-64484900D01*
X77703200Y-57123900D02*
X77703200Y-59814900D01*
X77703200Y-61774900D02*
X77703200Y-64465900D01*
X77743200Y-57142900D02*
X77743200Y-59814900D01*
X77743200Y-61774900D02*
X77743200Y-64446900D01*
X77783200Y-57161900D02*
X77783200Y-59814900D01*
X77783200Y-61774900D02*
X77783200Y-64427900D01*
X77823200Y-57181900D02*
X77823200Y-59814900D01*
X77823200Y-61774900D02*
X77823200Y-64407900D01*
X77863200Y-57201900D02*
X77863200Y-59814900D01*
X77863200Y-61774900D02*
X77863200Y-64387900D01*
X77903200Y-57222900D02*
X77903200Y-59814900D01*
X77903200Y-61774900D02*
X77903200Y-64366900D01*
X77943200Y-57244900D02*
X77943200Y-59814900D01*
X77943200Y-61774900D02*
X77943200Y-64344900D01*
X77983200Y-57266900D02*
X77983200Y-59814900D01*
X77983200Y-61774900D02*
X77983200Y-64322900D01*
X78023200Y-57289900D02*
X78023200Y-59814900D01*
X78023200Y-61774900D02*
X78023200Y-64299900D01*
X78063200Y-57312900D02*
X78063200Y-59814900D01*
X78063200Y-61774900D02*
X78063200Y-64276900D01*
X78103200Y-57336900D02*
X78103200Y-59814900D01*
X78103200Y-61774900D02*
X78103200Y-64252900D01*
X78143200Y-57360900D02*
X78143200Y-59814900D01*
X78143200Y-61774900D02*
X78143200Y-64228900D01*
X78183200Y-57386900D02*
X78183200Y-59814900D01*
X78183200Y-61774900D02*
X78183200Y-64202900D01*
X78223200Y-57411900D02*
X78223200Y-59814900D01*
X78223200Y-61774900D02*
X78223200Y-64177900D01*
X78263200Y-57438900D02*
X78263200Y-59814900D01*
X78263200Y-61774900D02*
X78263200Y-64150900D01*
X78303200Y-57465900D02*
X78303200Y-59814900D01*
X78303200Y-61774900D02*
X78303200Y-64123900D01*
X78343200Y-57493900D02*
X78343200Y-59814900D01*
X78343200Y-61774900D02*
X78343200Y-64095900D01*
X78383200Y-57522900D02*
X78383200Y-59814900D01*
X78383200Y-61774900D02*
X78383200Y-64066900D01*
X78423200Y-57551900D02*
X78423200Y-59814900D01*
X78423200Y-61774900D02*
X78423200Y-64037900D01*
X78463200Y-57581900D02*
X78463200Y-59814900D01*
X78463200Y-61774900D02*
X78463200Y-64007900D01*
X78503200Y-57612900D02*
X78503200Y-59814900D01*
X78503200Y-61774900D02*
X78503200Y-63976900D01*
X78543200Y-57644900D02*
X78543200Y-59814900D01*
X78543200Y-61774900D02*
X78543200Y-63944900D01*
X78583200Y-57676900D02*
X78583200Y-59814900D01*
X78583200Y-61774900D02*
X78583200Y-63912900D01*
X78623200Y-57710900D02*
X78623200Y-59814900D01*
X78623200Y-61774900D02*
X78623200Y-63878900D01*
X78663200Y-57744900D02*
X78663200Y-59814900D01*
X78663200Y-61774900D02*
X78663200Y-63844900D01*
X78703200Y-57779900D02*
X78703200Y-59814900D01*
X78703200Y-61774900D02*
X78703200Y-63809900D01*
X78743200Y-57815900D02*
X78743200Y-59814900D01*
X78743200Y-61774900D02*
X78743200Y-63773900D01*
X78783200Y-57852900D02*
X78783200Y-59814900D01*
X78783200Y-61774900D02*
X78783200Y-63736900D01*
X78823200Y-57890900D02*
X78823200Y-59814900D01*
X78823200Y-61774900D02*
X78823200Y-63698900D01*
X78863200Y-57929900D02*
X78863200Y-59814900D01*
X78863200Y-61774900D02*
X78863200Y-63659900D01*
X78903200Y-57970900D02*
X78903200Y-59814900D01*
X78903200Y-61774900D02*
X78903200Y-63618900D01*
X78943200Y-58011900D02*
X78943200Y-59814900D01*
X78943200Y-61774900D02*
X78943200Y-63577900D01*
X78983200Y-58054900D02*
X78983200Y-59814900D01*
X78983200Y-61774900D02*
X78983200Y-63534900D01*
X79023200Y-58097900D02*
X79023200Y-59814900D01*
X79023200Y-61774900D02*
X79023200Y-63491900D01*
X79063200Y-58142900D02*
X79063200Y-59814900D01*
X79063200Y-61774900D02*
X79063200Y-63446900D01*
X79103200Y-58189900D02*
X79103200Y-59814900D01*
X79103200Y-61774900D02*
X79103200Y-63399900D01*
X79143200Y-58237900D02*
X79143200Y-59814900D01*
X79143200Y-61774900D02*
X79143200Y-63351900D01*
X79183200Y-58286900D02*
X79183200Y-59814900D01*
X79183200Y-61774900D02*
X79183200Y-63302900D01*
X79223200Y-58337900D02*
X79223200Y-59814900D01*
X79223200Y-61774900D02*
X79223200Y-63251900D01*
X79263200Y-58390900D02*
X79263200Y-59814900D01*
X79263200Y-61774900D02*
X79263200Y-63198900D01*
X79303200Y-58445900D02*
X79303200Y-59814900D01*
X79303200Y-61774900D02*
X79303200Y-63143900D01*
X79343200Y-58501900D02*
X79343200Y-59814900D01*
X79343200Y-61774900D02*
X79343200Y-63087900D01*
X79383200Y-58560900D02*
X79383200Y-59814900D01*
X79383200Y-61774900D02*
X79383200Y-63028900D01*
X79423200Y-58621900D02*
X79423200Y-59814900D01*
X79423200Y-61774900D02*
X79423200Y-62967900D01*
X79463200Y-58685900D02*
X79463200Y-62903900D01*
X79503200Y-58751900D02*
X79503200Y-62837900D01*
X79543200Y-58820900D02*
X79543200Y-62768900D01*
X79583200Y-58892900D02*
X79583200Y-62696900D01*
X79623200Y-58968900D02*
X79623200Y-62620900D01*
X79663200Y-59049900D02*
X79663200Y-62539900D01*
X79703200Y-59134900D02*
X79703200Y-62454900D01*
X79743200Y-59224900D02*
X79743200Y-62364900D01*
X79783200Y-59321900D02*
X79783200Y-62267900D01*
X79823200Y-59425900D02*
X79823200Y-62163900D01*
X79863200Y-59540900D02*
X79863200Y-62048900D01*
X79903200Y-59667900D02*
X79903200Y-61921900D01*
X79943200Y-59811900D02*
X79943200Y-61777900D01*
X79983200Y-59980900D02*
X79983200Y-61608900D01*
X80023200Y-60196900D02*
X80023200Y-61392900D01*
X80063200Y-60548900D02*
X80063200Y-61040900D01*
X71282200Y-60794900D02*
X72482200Y-60794900D01*
X71882200Y-60144900D02*
X71882200Y-61444900D01*
X130362149Y-90839445D02*
G75*
G03X138195082Y-90842000I3916851J1177445D01*
G01*
X130362149Y-88484555D02*
G75*
G02X138195082Y-88482000I3916851J-1177445D01*
G01*
X130362149Y-88484555D02*
G75*
G03X130362918Y-90842000I3916851J-1177445D01*
G01*
X134279000Y-93712000D02*
X134279000Y-85612000D01*
X134239000Y-93712000D02*
X134239000Y-85612000D01*
X134199000Y-93712000D02*
X134199000Y-85612000D01*
X134159000Y-93711000D02*
X134159000Y-85613000D01*
X134119000Y-93709000D02*
X134119000Y-85615000D01*
X134079000Y-93708000D02*
X134079000Y-85616000D01*
X134039000Y-93705000D02*
X134039000Y-85619000D01*
X133999000Y-93703000D02*
X133999000Y-85621000D01*
X133959000Y-93700000D02*
X133959000Y-85624000D01*
X133919000Y-93697000D02*
X133919000Y-85627000D01*
X133879000Y-93693000D02*
X133879000Y-85631000D01*
X133839000Y-93689000D02*
X133839000Y-85635000D01*
X133799000Y-93684000D02*
X133799000Y-85640000D01*
X133759000Y-93679000D02*
X133759000Y-85645000D01*
X133719000Y-93674000D02*
X133719000Y-85650000D01*
X133679000Y-93668000D02*
X133679000Y-85656000D01*
X133639000Y-93662000D02*
X133639000Y-85662000D01*
X133599000Y-93656000D02*
X133599000Y-85668000D01*
X133558000Y-93649000D02*
X133558000Y-85675000D01*
X133518000Y-93641000D02*
X133518000Y-85683000D01*
X133478000Y-93633000D02*
X133478000Y-85691000D01*
X133438000Y-93625000D02*
X133438000Y-85699000D01*
X133398000Y-93617000D02*
X133398000Y-85707000D01*
X133358000Y-93608000D02*
X133358000Y-85716000D01*
X133318000Y-93598000D02*
X133318000Y-85726000D01*
X133278000Y-93588000D02*
X133278000Y-85736000D01*
X133238000Y-93578000D02*
X133238000Y-85746000D01*
X133198000Y-93567000D02*
X133198000Y-85757000D01*
X133158000Y-93556000D02*
X133158000Y-85768000D01*
X133118000Y-93545000D02*
X133118000Y-85779000D01*
X133078000Y-93532000D02*
X133078000Y-85792000D01*
X133038000Y-93520000D02*
X133038000Y-85804000D01*
X132998000Y-93507000D02*
X132998000Y-85817000D01*
X132958000Y-93494000D02*
X132958000Y-85830000D01*
X132918000Y-93480000D02*
X132918000Y-85844000D01*
X132878000Y-93465000D02*
X132878000Y-85859000D01*
X132838000Y-93451000D02*
X132838000Y-85873000D01*
X132798000Y-93435000D02*
X132798000Y-85889000D01*
X132758000Y-93420000D02*
X132758000Y-90642000D01*
X132758000Y-88682000D02*
X132758000Y-85904000D01*
X132718000Y-93403000D02*
X132718000Y-90642000D01*
X132718000Y-88682000D02*
X132718000Y-85921000D01*
X132678000Y-93387000D02*
X132678000Y-90642000D01*
X132678000Y-88682000D02*
X132678000Y-85937000D01*
X132638000Y-93369000D02*
X132638000Y-90642000D01*
X132638000Y-88682000D02*
X132638000Y-85955000D01*
X132598000Y-93352000D02*
X132598000Y-90642000D01*
X132598000Y-88682000D02*
X132598000Y-85972000D01*
X132558000Y-93333000D02*
X132558000Y-90642000D01*
X132558000Y-88682000D02*
X132558000Y-85991000D01*
X132518000Y-93314000D02*
X132518000Y-90642000D01*
X132518000Y-88682000D02*
X132518000Y-86010000D01*
X132478000Y-93295000D02*
X132478000Y-90642000D01*
X132478000Y-88682000D02*
X132478000Y-86029000D01*
X132438000Y-93275000D02*
X132438000Y-90642000D01*
X132438000Y-88682000D02*
X132438000Y-86049000D01*
X132398000Y-93255000D02*
X132398000Y-90642000D01*
X132398000Y-88682000D02*
X132398000Y-86069000D01*
X132358000Y-93234000D02*
X132358000Y-90642000D01*
X132358000Y-88682000D02*
X132358000Y-86090000D01*
X132318000Y-93212000D02*
X132318000Y-90642000D01*
X132318000Y-88682000D02*
X132318000Y-86112000D01*
X132278000Y-93190000D02*
X132278000Y-90642000D01*
X132278000Y-88682000D02*
X132278000Y-86134000D01*
X132238000Y-93167000D02*
X132238000Y-90642000D01*
X132238000Y-88682000D02*
X132238000Y-86157000D01*
X132198000Y-93144000D02*
X132198000Y-90642000D01*
X132198000Y-88682000D02*
X132198000Y-86180000D01*
X132158000Y-93120000D02*
X132158000Y-90642000D01*
X132158000Y-88682000D02*
X132158000Y-86204000D01*
X132118000Y-93096000D02*
X132118000Y-90642000D01*
X132118000Y-88682000D02*
X132118000Y-86228000D01*
X132078000Y-93070000D02*
X132078000Y-90642000D01*
X132078000Y-88682000D02*
X132078000Y-86254000D01*
X132038000Y-93045000D02*
X132038000Y-90642000D01*
X132038000Y-88682000D02*
X132038000Y-86279000D01*
X131998000Y-93018000D02*
X131998000Y-90642000D01*
X131998000Y-88682000D02*
X131998000Y-86306000D01*
X131958000Y-92991000D02*
X131958000Y-90642000D01*
X131958000Y-88682000D02*
X131958000Y-86333000D01*
X131918000Y-92963000D02*
X131918000Y-90642000D01*
X131918000Y-88682000D02*
X131918000Y-86361000D01*
X131878000Y-92934000D02*
X131878000Y-90642000D01*
X131878000Y-88682000D02*
X131878000Y-86390000D01*
X131838000Y-92905000D02*
X131838000Y-90642000D01*
X131838000Y-88682000D02*
X131838000Y-86419000D01*
X131798000Y-92875000D02*
X131798000Y-90642000D01*
X131798000Y-88682000D02*
X131798000Y-86449000D01*
X131758000Y-92844000D02*
X131758000Y-90642000D01*
X131758000Y-88682000D02*
X131758000Y-86480000D01*
X131718000Y-92812000D02*
X131718000Y-90642000D01*
X131718000Y-88682000D02*
X131718000Y-86512000D01*
X131678000Y-92780000D02*
X131678000Y-90642000D01*
X131678000Y-88682000D02*
X131678000Y-86544000D01*
X131638000Y-92746000D02*
X131638000Y-90642000D01*
X131638000Y-88682000D02*
X131638000Y-86578000D01*
X131598000Y-92712000D02*
X131598000Y-90642000D01*
X131598000Y-88682000D02*
X131598000Y-86612000D01*
X131558000Y-92677000D02*
X131558000Y-90642000D01*
X131558000Y-88682000D02*
X131558000Y-86647000D01*
X131518000Y-92641000D02*
X131518000Y-90642000D01*
X131518000Y-88682000D02*
X131518000Y-86683000D01*
X131478000Y-92604000D02*
X131478000Y-90642000D01*
X131478000Y-88682000D02*
X131478000Y-86720000D01*
X131438000Y-92566000D02*
X131438000Y-90642000D01*
X131438000Y-88682000D02*
X131438000Y-86758000D01*
X131398000Y-92527000D02*
X131398000Y-90642000D01*
X131398000Y-88682000D02*
X131398000Y-86797000D01*
X131358000Y-92486000D02*
X131358000Y-90642000D01*
X131358000Y-88682000D02*
X131358000Y-86838000D01*
X131318000Y-92445000D02*
X131318000Y-90642000D01*
X131318000Y-88682000D02*
X131318000Y-86879000D01*
X131278000Y-92402000D02*
X131278000Y-90642000D01*
X131278000Y-88682000D02*
X131278000Y-86922000D01*
X131238000Y-92359000D02*
X131238000Y-90642000D01*
X131238000Y-88682000D02*
X131238000Y-86965000D01*
X131198000Y-92314000D02*
X131198000Y-90642000D01*
X131198000Y-88682000D02*
X131198000Y-87010000D01*
X131158000Y-92267000D02*
X131158000Y-90642000D01*
X131158000Y-88682000D02*
X131158000Y-87057000D01*
X131118000Y-92219000D02*
X131118000Y-90642000D01*
X131118000Y-88682000D02*
X131118000Y-87105000D01*
X131078000Y-92170000D02*
X131078000Y-90642000D01*
X131078000Y-88682000D02*
X131078000Y-87154000D01*
X131038000Y-92119000D02*
X131038000Y-90642000D01*
X131038000Y-88682000D02*
X131038000Y-87205000D01*
X130998000Y-92066000D02*
X130998000Y-90642000D01*
X130998000Y-88682000D02*
X130998000Y-87258000D01*
X130958000Y-92011000D02*
X130958000Y-90642000D01*
X130958000Y-88682000D02*
X130958000Y-87313000D01*
X130918000Y-91955000D02*
X130918000Y-90642000D01*
X130918000Y-88682000D02*
X130918000Y-87369000D01*
X130878000Y-91896000D02*
X130878000Y-90642000D01*
X130878000Y-88682000D02*
X130878000Y-87428000D01*
X130838000Y-91835000D02*
X130838000Y-90642000D01*
X130838000Y-88682000D02*
X130838000Y-87489000D01*
X130798000Y-91771000D02*
X130798000Y-87553000D01*
X130758000Y-91705000D02*
X130758000Y-87619000D01*
X130718000Y-91636000D02*
X130718000Y-87688000D01*
X130678000Y-91564000D02*
X130678000Y-87760000D01*
X130638000Y-91488000D02*
X130638000Y-87836000D01*
X130598000Y-91407000D02*
X130598000Y-87917000D01*
X130558000Y-91322000D02*
X130558000Y-88002000D01*
X130518000Y-91232000D02*
X130518000Y-88092000D01*
X130478000Y-91135000D02*
X130478000Y-88189000D01*
X130438000Y-91031000D02*
X130438000Y-88293000D01*
X130398000Y-90916000D02*
X130398000Y-88408000D01*
X130358000Y-90789000D02*
X130358000Y-88535000D01*
X130318000Y-90645000D02*
X130318000Y-88679000D01*
X130278000Y-90476000D02*
X130278000Y-88848000D01*
X130238000Y-90260000D02*
X130238000Y-89064000D01*
X130198000Y-89908000D02*
X130198000Y-89416000D01*
X138979000Y-89662000D02*
X137779000Y-89662000D01*
X138379000Y-90312000D02*
X138379000Y-89012000D01*
X65251600Y-143482600D02*
X65251600Y-138152600D01*
X65251600Y-138152600D02*
X55601600Y-138152600D01*
X55601600Y-138152600D02*
X55601600Y-143482600D01*
X55601600Y-143482600D02*
X65251600Y-143482600D01*
X66566600Y-140817600D02*
X65251600Y-140817600D01*
X54286600Y-140817600D02*
X55601600Y-140817600D01*
X63762100Y-143482600D02*
X63762100Y-138152600D01*
X55728600Y-114251200D02*
X55728600Y-119581200D01*
X55728600Y-119581200D02*
X65378600Y-119581200D01*
X65378600Y-119581200D02*
X65378600Y-114251200D01*
X65378600Y-114251200D02*
X55728600Y-114251200D01*
X54413600Y-116916200D02*
X55728600Y-116916200D01*
X66693600Y-116916200D02*
X65378600Y-116916200D01*
X57218100Y-114251200D02*
X57218100Y-119581200D01*
X65251600Y-137513600D02*
X65251600Y-132183600D01*
X65251600Y-132183600D02*
X55601600Y-132183600D01*
X55601600Y-132183600D02*
X55601600Y-137513600D01*
X55601600Y-137513600D02*
X65251600Y-137513600D01*
X66566600Y-134848600D02*
X65251600Y-134848600D01*
X54286600Y-134848600D02*
X55601600Y-134848600D01*
X63762100Y-137513600D02*
X63762100Y-132183600D01*
X55754000Y-108282200D02*
X55754000Y-113612200D01*
X55754000Y-113612200D02*
X65404000Y-113612200D01*
X65404000Y-113612200D02*
X65404000Y-108282200D01*
X65404000Y-108282200D02*
X55754000Y-108282200D01*
X54439000Y-110947200D02*
X55754000Y-110947200D01*
X66719000Y-110947200D02*
X65404000Y-110947200D01*
X57243500Y-108282200D02*
X57243500Y-113612200D01*
X65556400Y-61567600D02*
X65556400Y-56237600D01*
X65556400Y-56237600D02*
X55906400Y-56237600D01*
X55906400Y-56237600D02*
X55906400Y-61567600D01*
X55906400Y-61567600D02*
X65556400Y-61567600D01*
X66871400Y-58902600D02*
X65556400Y-58902600D01*
X54591400Y-58902600D02*
X55906400Y-58902600D01*
X64066900Y-61567600D02*
X64066900Y-56237600D01*
X56058800Y-85600000D02*
X56058800Y-90930000D01*
X56058800Y-90930000D02*
X65708800Y-90930000D01*
X65708800Y-90930000D02*
X65708800Y-85600000D01*
X65708800Y-85600000D02*
X56058800Y-85600000D01*
X54743800Y-88265000D02*
X56058800Y-88265000D01*
X67023800Y-88265000D02*
X65708800Y-88265000D01*
X57548300Y-85600000D02*
X57548300Y-90930000D01*
X65531000Y-67460400D02*
X65531000Y-62130400D01*
X65531000Y-62130400D02*
X55881000Y-62130400D01*
X55881000Y-62130400D02*
X55881000Y-67460400D01*
X55881000Y-67460400D02*
X65531000Y-67460400D01*
X66846000Y-64795400D02*
X65531000Y-64795400D01*
X54566000Y-64795400D02*
X55881000Y-64795400D01*
X64041500Y-67460400D02*
X64041500Y-62130400D01*
X55931800Y-79631000D02*
X55931800Y-84961000D01*
X55931800Y-84961000D02*
X65581800Y-84961000D01*
X65581800Y-84961000D02*
X65581800Y-79631000D01*
X65581800Y-79631000D02*
X55931800Y-79631000D01*
X54616800Y-82296000D02*
X55931800Y-82296000D01*
X66896800Y-82296000D02*
X65581800Y-82296000D01*
X57421300Y-79631000D02*
X57421300Y-84961000D01*
X76568061Y-94308488D02*
G75*
G03X76563100Y-107105289I1575039J-6399012D01*
G01*
X79718139Y-94308488D02*
G75*
G02X79723100Y-107105289I-1575039J-6399012D01*
G01*
X79718139Y-94308488D02*
G75*
G03X76563100Y-94309711I-1575039J-6399012D01*
G01*
X71593100Y-100707500D02*
X84693100Y-100707500D01*
X71593100Y-100667500D02*
X84693100Y-100667500D01*
X71593100Y-100627500D02*
X84693100Y-100627500D01*
X71594100Y-100587500D02*
X84692100Y-100587500D01*
X71594100Y-100547500D02*
X84692100Y-100547500D01*
X71596100Y-100507500D02*
X84690100Y-100507500D01*
X71597100Y-100467500D02*
X84689100Y-100467500D01*
X71598100Y-100427500D02*
X84688100Y-100427500D01*
X71600100Y-100387500D02*
X84686100Y-100387500D01*
X71602100Y-100347500D02*
X84684100Y-100347500D01*
X71605100Y-100307500D02*
X84681100Y-100307500D01*
X71607100Y-100267500D02*
X84679100Y-100267500D01*
X71610100Y-100227500D02*
X84676100Y-100227500D01*
X71613100Y-100187500D02*
X84673100Y-100187500D01*
X71616100Y-100147500D02*
X84670100Y-100147500D01*
X71620100Y-100107500D02*
X84666100Y-100107500D01*
X71624100Y-100067500D02*
X84662100Y-100067500D01*
X71628100Y-100027500D02*
X84658100Y-100027500D01*
X71632100Y-99986500D02*
X84654100Y-99986500D01*
X71636100Y-99946500D02*
X84650100Y-99946500D01*
X71641100Y-99906500D02*
X84645100Y-99906500D01*
X71646100Y-99866500D02*
X84640100Y-99866500D01*
X71652100Y-99826500D02*
X84634100Y-99826500D01*
X71657100Y-99786500D02*
X84629100Y-99786500D01*
X71663100Y-99746500D02*
X84623100Y-99746500D01*
X71669100Y-99706500D02*
X84617100Y-99706500D01*
X71675100Y-99666500D02*
X84611100Y-99666500D01*
X71682100Y-99626500D02*
X84604100Y-99626500D01*
X71688100Y-99586500D02*
X84598100Y-99586500D01*
X71695100Y-99546500D02*
X84591100Y-99546500D01*
X71703100Y-99506500D02*
X84583100Y-99506500D01*
X71710100Y-99466500D02*
X84576100Y-99466500D01*
X71718100Y-99426500D02*
X84568100Y-99426500D01*
X71726100Y-99386500D02*
X84560100Y-99386500D01*
X71734100Y-99346500D02*
X84552100Y-99346500D01*
X71743100Y-99306500D02*
X84543100Y-99306500D01*
X71752100Y-99266500D02*
X84534100Y-99266500D01*
X71761100Y-99226500D02*
X84525100Y-99226500D01*
X71770100Y-99186500D02*
X84516100Y-99186500D01*
X71780100Y-99146500D02*
X84506100Y-99146500D01*
X71790100Y-99106500D02*
X84496100Y-99106500D01*
X71800100Y-99066500D02*
X84486100Y-99066500D01*
X71810100Y-99026500D02*
X84476100Y-99026500D01*
X71821100Y-98986500D02*
X84465100Y-98986500D01*
X71832100Y-98946500D02*
X84454100Y-98946500D01*
X71843100Y-98906500D02*
X84443100Y-98906500D01*
X71855100Y-98866500D02*
X84431100Y-98866500D01*
X71866100Y-98826500D02*
X84420100Y-98826500D01*
X71878100Y-98786500D02*
X84408100Y-98786500D01*
X71891100Y-98746500D02*
X84395100Y-98746500D01*
X71903100Y-98706500D02*
X84383100Y-98706500D01*
X71916100Y-98666500D02*
X84370100Y-98666500D01*
X71929100Y-98626500D02*
X84357100Y-98626500D01*
X71943100Y-98586500D02*
X84343100Y-98586500D01*
X71957100Y-98546500D02*
X84329100Y-98546500D01*
X71971100Y-98506500D02*
X84315100Y-98506500D01*
X71985100Y-98466500D02*
X84301100Y-98466500D01*
X71999100Y-98426500D02*
X84287100Y-98426500D01*
X72014100Y-98386500D02*
X84272100Y-98386500D01*
X72030100Y-98346500D02*
X84256100Y-98346500D01*
X72045100Y-98306500D02*
X76763100Y-98306500D01*
X79523100Y-98306500D02*
X84241100Y-98306500D01*
X72061100Y-98266500D02*
X76763100Y-98266500D01*
X79523100Y-98266500D02*
X84225100Y-98266500D01*
X72077100Y-98226500D02*
X76763100Y-98226500D01*
X79523100Y-98226500D02*
X84209100Y-98226500D01*
X72093100Y-98186500D02*
X76763100Y-98186500D01*
X79523100Y-98186500D02*
X84193100Y-98186500D01*
X72110100Y-98146500D02*
X76763100Y-98146500D01*
X79523100Y-98146500D02*
X84176100Y-98146500D01*
X72127100Y-98106500D02*
X76763100Y-98106500D01*
X79523100Y-98106500D02*
X84159100Y-98106500D01*
X72144100Y-98066500D02*
X76763100Y-98066500D01*
X79523100Y-98066500D02*
X84142100Y-98066500D01*
X72162100Y-98026500D02*
X76763100Y-98026500D01*
X79523100Y-98026500D02*
X84124100Y-98026500D01*
X72180100Y-97986500D02*
X76763100Y-97986500D01*
X79523100Y-97986500D02*
X84106100Y-97986500D01*
X72198100Y-97946500D02*
X76763100Y-97946500D01*
X79523100Y-97946500D02*
X84088100Y-97946500D01*
X72217100Y-97906500D02*
X76763100Y-97906500D01*
X79523100Y-97906500D02*
X84069100Y-97906500D01*
X72236100Y-97866500D02*
X76763100Y-97866500D01*
X79523100Y-97866500D02*
X84050100Y-97866500D01*
X72255100Y-97826500D02*
X76763100Y-97826500D01*
X79523100Y-97826500D02*
X84031100Y-97826500D01*
X72275100Y-97786500D02*
X76763100Y-97786500D01*
X79523100Y-97786500D02*
X84011100Y-97786500D01*
X72295100Y-97746500D02*
X76763100Y-97746500D01*
X79523100Y-97746500D02*
X83991100Y-97746500D01*
X72315100Y-97706500D02*
X76763100Y-97706500D01*
X79523100Y-97706500D02*
X83971100Y-97706500D01*
X72336100Y-97666500D02*
X76763100Y-97666500D01*
X79523100Y-97666500D02*
X83950100Y-97666500D01*
X72357100Y-97626500D02*
X76763100Y-97626500D01*
X79523100Y-97626500D02*
X83929100Y-97626500D01*
X72378100Y-97586500D02*
X76763100Y-97586500D01*
X79523100Y-97586500D02*
X83908100Y-97586500D01*
X72400100Y-97546500D02*
X76763100Y-97546500D01*
X79523100Y-97546500D02*
X83886100Y-97546500D01*
X72422100Y-97506500D02*
X76763100Y-97506500D01*
X79523100Y-97506500D02*
X83864100Y-97506500D01*
X72444100Y-97466500D02*
X76763100Y-97466500D01*
X79523100Y-97466500D02*
X83842100Y-97466500D01*
X72467100Y-97426500D02*
X76763100Y-97426500D01*
X79523100Y-97426500D02*
X83819100Y-97426500D01*
X72490100Y-97386500D02*
X76763100Y-97386500D01*
X79523100Y-97386500D02*
X83796100Y-97386500D01*
X72513100Y-97346500D02*
X76763100Y-97346500D01*
X79523100Y-97346500D02*
X83773100Y-97346500D01*
X72537100Y-97306500D02*
X76763100Y-97306500D01*
X79523100Y-97306500D02*
X83749100Y-97306500D01*
X72562100Y-97266500D02*
X76763100Y-97266500D01*
X79523100Y-97266500D02*
X83724100Y-97266500D01*
X72586100Y-97226500D02*
X76763100Y-97226500D01*
X79523100Y-97226500D02*
X83700100Y-97226500D01*
X72611100Y-97186500D02*
X76763100Y-97186500D01*
X79523100Y-97186500D02*
X83675100Y-97186500D01*
X72637100Y-97146500D02*
X76763100Y-97146500D01*
X79523100Y-97146500D02*
X83649100Y-97146500D01*
X72663100Y-97106500D02*
X76763100Y-97106500D01*
X79523100Y-97106500D02*
X83623100Y-97106500D01*
X72689100Y-97066500D02*
X76763100Y-97066500D01*
X79523100Y-97066500D02*
X83597100Y-97066500D01*
X72716100Y-97026500D02*
X76763100Y-97026500D01*
X79523100Y-97026500D02*
X83570100Y-97026500D01*
X72743100Y-96986500D02*
X76763100Y-96986500D01*
X79523100Y-96986500D02*
X83543100Y-96986500D01*
X72770100Y-96946500D02*
X76763100Y-96946500D01*
X79523100Y-96946500D02*
X83516100Y-96946500D01*
X72798100Y-96906500D02*
X76763100Y-96906500D01*
X79523100Y-96906500D02*
X83488100Y-96906500D01*
X72827100Y-96866500D02*
X76763100Y-96866500D01*
X79523100Y-96866500D02*
X83459100Y-96866500D01*
X72856100Y-96826500D02*
X76763100Y-96826500D01*
X79523100Y-96826500D02*
X83430100Y-96826500D01*
X72885100Y-96786500D02*
X76763100Y-96786500D01*
X79523100Y-96786500D02*
X83401100Y-96786500D01*
X72915100Y-96746500D02*
X76763100Y-96746500D01*
X79523100Y-96746500D02*
X83371100Y-96746500D01*
X72945100Y-96706500D02*
X76763100Y-96706500D01*
X79523100Y-96706500D02*
X83341100Y-96706500D01*
X72976100Y-96666500D02*
X76763100Y-96666500D01*
X79523100Y-96666500D02*
X83310100Y-96666500D01*
X73007100Y-96626500D02*
X76763100Y-96626500D01*
X79523100Y-96626500D02*
X83279100Y-96626500D01*
X73039100Y-96586500D02*
X76763100Y-96586500D01*
X79523100Y-96586500D02*
X83247100Y-96586500D01*
X73071100Y-96546500D02*
X76763100Y-96546500D01*
X79523100Y-96546500D02*
X83215100Y-96546500D01*
X73104100Y-96506500D02*
X76763100Y-96506500D01*
X79523100Y-96506500D02*
X83182100Y-96506500D01*
X73138100Y-96466500D02*
X76763100Y-96466500D01*
X79523100Y-96466500D02*
X83148100Y-96466500D01*
X73172100Y-96426500D02*
X76763100Y-96426500D01*
X79523100Y-96426500D02*
X83114100Y-96426500D01*
X73206100Y-96386500D02*
X76763100Y-96386500D01*
X79523100Y-96386500D02*
X83080100Y-96386500D01*
X73241100Y-96346500D02*
X76763100Y-96346500D01*
X79523100Y-96346500D02*
X83045100Y-96346500D01*
X73277100Y-96306500D02*
X76763100Y-96306500D01*
X79523100Y-96306500D02*
X83009100Y-96306500D01*
X73313100Y-96266500D02*
X76763100Y-96266500D01*
X79523100Y-96266500D02*
X82973100Y-96266500D01*
X73350100Y-96226500D02*
X76763100Y-96226500D01*
X79523100Y-96226500D02*
X82936100Y-96226500D01*
X73387100Y-96186500D02*
X76763100Y-96186500D01*
X79523100Y-96186500D02*
X82899100Y-96186500D01*
X73425100Y-96146500D02*
X76763100Y-96146500D01*
X79523100Y-96146500D02*
X82861100Y-96146500D01*
X73464100Y-96106500D02*
X76763100Y-96106500D01*
X79523100Y-96106500D02*
X82822100Y-96106500D01*
X73503100Y-96066500D02*
X76763100Y-96066500D01*
X79523100Y-96066500D02*
X82783100Y-96066500D01*
X73543100Y-96026500D02*
X76763100Y-96026500D01*
X79523100Y-96026500D02*
X82743100Y-96026500D01*
X73584100Y-95986500D02*
X76763100Y-95986500D01*
X79523100Y-95986500D02*
X82702100Y-95986500D01*
X73625100Y-95946500D02*
X76763100Y-95946500D01*
X79523100Y-95946500D02*
X82661100Y-95946500D01*
X73667100Y-95906500D02*
X76763100Y-95906500D01*
X79523100Y-95906500D02*
X82619100Y-95906500D01*
X73710100Y-95866500D02*
X76763100Y-95866500D01*
X79523100Y-95866500D02*
X82576100Y-95866500D01*
X73754100Y-95826500D02*
X76763100Y-95826500D01*
X79523100Y-95826500D02*
X82532100Y-95826500D01*
X73798100Y-95786500D02*
X76763100Y-95786500D01*
X79523100Y-95786500D02*
X82488100Y-95786500D01*
X73844100Y-95746500D02*
X76763100Y-95746500D01*
X79523100Y-95746500D02*
X82442100Y-95746500D01*
X73890100Y-95706500D02*
X76763100Y-95706500D01*
X79523100Y-95706500D02*
X82396100Y-95706500D01*
X73937100Y-95666500D02*
X76763100Y-95666500D01*
X79523100Y-95666500D02*
X82349100Y-95666500D01*
X73985100Y-95626500D02*
X76763100Y-95626500D01*
X79523100Y-95626500D02*
X82301100Y-95626500D01*
X74034100Y-95586500D02*
X76763100Y-95586500D01*
X79523100Y-95586500D02*
X82252100Y-95586500D01*
X74083100Y-95546500D02*
X82203100Y-95546500D01*
X74134100Y-95506500D02*
X82152100Y-95506500D01*
X74186100Y-95466500D02*
X82100100Y-95466500D01*
X74239100Y-95426500D02*
X82047100Y-95426500D01*
X74293100Y-95386500D02*
X81993100Y-95386500D01*
X74349100Y-95346500D02*
X81937100Y-95346500D01*
X74405100Y-95306500D02*
X81881100Y-95306500D01*
X74463100Y-95266500D02*
X81823100Y-95266500D01*
X74522100Y-95226500D02*
X81764100Y-95226500D01*
X74583100Y-95186500D02*
X81703100Y-95186500D01*
X74645100Y-95146500D02*
X81641100Y-95146500D01*
X74709100Y-95106500D02*
X81577100Y-95106500D01*
X74774100Y-95066500D02*
X81512100Y-95066500D01*
X74841100Y-95026500D02*
X81445100Y-95026500D01*
X74910100Y-94986500D02*
X81376100Y-94986500D01*
X74981100Y-94946500D02*
X81305100Y-94946500D01*
X75054100Y-94906500D02*
X81232100Y-94906500D01*
X75129100Y-94866500D02*
X81157100Y-94866500D01*
X75207100Y-94826500D02*
X81079100Y-94826500D01*
X75287100Y-94786500D02*
X80999100Y-94786500D01*
X75371100Y-94746500D02*
X80915100Y-94746500D01*
X75457100Y-94706500D02*
X80829100Y-94706500D01*
X75547100Y-94666500D02*
X80739100Y-94666500D01*
X75641100Y-94626500D02*
X80645100Y-94626500D01*
X75738100Y-94586500D02*
X80548100Y-94586500D01*
X75841100Y-94546500D02*
X80445100Y-94546500D01*
X75949100Y-94506500D02*
X80337100Y-94506500D01*
X76063100Y-94466500D02*
X80223100Y-94466500D01*
X76185100Y-94426500D02*
X80101100Y-94426500D01*
X76315100Y-94386500D02*
X79971100Y-94386500D01*
X76457100Y-94346500D02*
X79829100Y-94346500D01*
X76611100Y-94306500D02*
X79675100Y-94306500D01*
X76784100Y-94266500D02*
X79502100Y-94266500D01*
X76983100Y-94226500D02*
X79303100Y-94226500D01*
X77225100Y-94186500D02*
X79061100Y-94186500D01*
X77554100Y-94146500D02*
X78732100Y-94146500D01*
X78143100Y-107657500D02*
X78143100Y-105857500D01*
X77243100Y-106757500D02*
X79043100Y-106757500D01*
X139580000Y-148620000D02*
X129340000Y-148620000D01*
X139580000Y-143979000D02*
X129340000Y-143979000D01*
X139580000Y-148620000D02*
X139580000Y-143979000D01*
X129340000Y-148620000D02*
X129340000Y-143979000D01*
X139580000Y-147110000D02*
X129340000Y-147110000D01*
X136310000Y-148620000D02*
X136310000Y-147110000D01*
X132609000Y-148620000D02*
X132609000Y-147110000D01*
X103580000Y-148620000D02*
X93340000Y-148620000D01*
X103580000Y-143979000D02*
X93340000Y-143979000D01*
X103580000Y-148620000D02*
X103580000Y-143979000D01*
X93340000Y-148620000D02*
X93340000Y-143979000D01*
X103580000Y-147110000D02*
X93340000Y-147110000D01*
X100310000Y-148620000D02*
X100310000Y-147110000D01*
X96609000Y-148620000D02*
X96609000Y-147110000D01*
X121580000Y-148620000D02*
X111340000Y-148620000D01*
X121580000Y-143979000D02*
X111340000Y-143979000D01*
X121580000Y-148620000D02*
X121580000Y-143979000D01*
X111340000Y-148620000D02*
X111340000Y-143979000D01*
X121580000Y-147110000D02*
X111340000Y-147110000D01*
X118310000Y-148620000D02*
X118310000Y-147110000D01*
X114609000Y-148620000D02*
X114609000Y-147110000D01*
X85580000Y-148620000D02*
X75340000Y-148620000D01*
X85580000Y-143979000D02*
X75340000Y-143979000D01*
X85580000Y-148620000D02*
X85580000Y-143979000D01*
X75340000Y-148620000D02*
X75340000Y-143979000D01*
X85580000Y-147110000D02*
X75340000Y-147110000D01*
X82310000Y-148620000D02*
X82310000Y-147110000D01*
X78609000Y-148620000D02*
X78609000Y-147110000D01*
X67580000Y-148620000D02*
X57340000Y-148620000D01*
X67580000Y-143979000D02*
X57340000Y-143979000D01*
X67580000Y-148620000D02*
X67580000Y-143979000D01*
X57340000Y-148620000D02*
X57340000Y-143979000D01*
X67580000Y-147110000D02*
X57340000Y-147110000D01*
X64310000Y-148620000D02*
X64310000Y-147110000D01*
X60609000Y-148620000D02*
X60609000Y-147110000D01*
X108804000Y-92746000D02*
X108804000Y-92416000D01*
X108804000Y-92416000D02*
X115224000Y-92416000D01*
X115224000Y-92416000D02*
X115224000Y-92746000D01*
X108804000Y-94706000D02*
X108804000Y-95036000D01*
X108804000Y-95036000D02*
X115224000Y-95036000D01*
X115224000Y-95036000D02*
X115224000Y-94706000D01*
X115224000Y-91150000D02*
X115224000Y-91480000D01*
X115224000Y-91480000D02*
X108804000Y-91480000D01*
X108804000Y-91480000D02*
X108804000Y-91150000D01*
X115224000Y-89190000D02*
X115224000Y-88860000D01*
X115224000Y-88860000D02*
X108804000Y-88860000D01*
X108804000Y-88860000D02*
X108804000Y-89190000D01*
X77965600Y-124197200D02*
X77965600Y-130717200D01*
X77965600Y-130717200D02*
X103085600Y-130717200D01*
X103085600Y-130717200D02*
X103085600Y-124197200D01*
X103085600Y-124197200D02*
X77965600Y-124197200D01*
X77935600Y-127457200D02*
X77965600Y-127457200D01*
X103115600Y-127457200D02*
X103085600Y-127457200D01*
X132575000Y-138451500D02*
X132575000Y-131931500D01*
X132575000Y-131931500D02*
X107455000Y-131931500D01*
X107455000Y-131931500D02*
X107455000Y-138451500D01*
X107455000Y-138451500D02*
X132575000Y-138451500D01*
X132605000Y-135191500D02*
X132575000Y-135191500D01*
X107425000Y-135191500D02*
X107455000Y-135191500D01*
X134353000Y-130768000D02*
X134353000Y-124248000D01*
X134353000Y-124248000D02*
X109233000Y-124248000D01*
X109233000Y-124248000D02*
X109233000Y-130768000D01*
X109233000Y-130768000D02*
X134353000Y-130768000D01*
X134383000Y-127508000D02*
X134353000Y-127508000D01*
X109203000Y-127508000D02*
X109233000Y-127508000D01*
X76758561Y-108062588D02*
G75*
G03X76753600Y-120859389I1575039J-6399012D01*
G01*
X79908639Y-108062588D02*
G75*
G02X79913600Y-120859389I-1575039J-6399012D01*
G01*
X79908639Y-108062588D02*
G75*
G03X76753600Y-108063811I-1575039J-6399012D01*
G01*
X71783600Y-114461600D02*
X84883600Y-114461600D01*
X71783600Y-114421600D02*
X84883600Y-114421600D01*
X71783600Y-114381600D02*
X84883600Y-114381600D01*
X71784600Y-114341600D02*
X84882600Y-114341600D01*
X71784600Y-114301600D02*
X84882600Y-114301600D01*
X71786600Y-114261600D02*
X84880600Y-114261600D01*
X71787600Y-114221600D02*
X84879600Y-114221600D01*
X71788600Y-114181600D02*
X84878600Y-114181600D01*
X71790600Y-114141600D02*
X84876600Y-114141600D01*
X71792600Y-114101600D02*
X84874600Y-114101600D01*
X71795600Y-114061600D02*
X84871600Y-114061600D01*
X71797600Y-114021600D02*
X84869600Y-114021600D01*
X71800600Y-113981600D02*
X84866600Y-113981600D01*
X71803600Y-113941600D02*
X84863600Y-113941600D01*
X71806600Y-113901600D02*
X84860600Y-113901600D01*
X71810600Y-113861600D02*
X84856600Y-113861600D01*
X71814600Y-113821600D02*
X84852600Y-113821600D01*
X71818600Y-113781600D02*
X84848600Y-113781600D01*
X71822600Y-113740600D02*
X84844600Y-113740600D01*
X71826600Y-113700600D02*
X84840600Y-113700600D01*
X71831600Y-113660600D02*
X84835600Y-113660600D01*
X71836600Y-113620600D02*
X84830600Y-113620600D01*
X71842600Y-113580600D02*
X84824600Y-113580600D01*
X71847600Y-113540600D02*
X84819600Y-113540600D01*
X71853600Y-113500600D02*
X84813600Y-113500600D01*
X71859600Y-113460600D02*
X84807600Y-113460600D01*
X71865600Y-113420600D02*
X84801600Y-113420600D01*
X71872600Y-113380600D02*
X84794600Y-113380600D01*
X71878600Y-113340600D02*
X84788600Y-113340600D01*
X71885600Y-113300600D02*
X84781600Y-113300600D01*
X71893600Y-113260600D02*
X84773600Y-113260600D01*
X71900600Y-113220600D02*
X84766600Y-113220600D01*
X71908600Y-113180600D02*
X84758600Y-113180600D01*
X71916600Y-113140600D02*
X84750600Y-113140600D01*
X71924600Y-113100600D02*
X84742600Y-113100600D01*
X71933600Y-113060600D02*
X84733600Y-113060600D01*
X71942600Y-113020600D02*
X84724600Y-113020600D01*
X71951600Y-112980600D02*
X84715600Y-112980600D01*
X71960600Y-112940600D02*
X84706600Y-112940600D01*
X71970600Y-112900600D02*
X84696600Y-112900600D01*
X71980600Y-112860600D02*
X84686600Y-112860600D01*
X71990600Y-112820600D02*
X84676600Y-112820600D01*
X72000600Y-112780600D02*
X84666600Y-112780600D01*
X72011600Y-112740600D02*
X84655600Y-112740600D01*
X72022600Y-112700600D02*
X84644600Y-112700600D01*
X72033600Y-112660600D02*
X84633600Y-112660600D01*
X72045600Y-112620600D02*
X84621600Y-112620600D01*
X72056600Y-112580600D02*
X84610600Y-112580600D01*
X72068600Y-112540600D02*
X84598600Y-112540600D01*
X72081600Y-112500600D02*
X84585600Y-112500600D01*
X72093600Y-112460600D02*
X84573600Y-112460600D01*
X72106600Y-112420600D02*
X84560600Y-112420600D01*
X72119600Y-112380600D02*
X84547600Y-112380600D01*
X72133600Y-112340600D02*
X84533600Y-112340600D01*
X72147600Y-112300600D02*
X84519600Y-112300600D01*
X72161600Y-112260600D02*
X84505600Y-112260600D01*
X72175600Y-112220600D02*
X84491600Y-112220600D01*
X72189600Y-112180600D02*
X84477600Y-112180600D01*
X72204600Y-112140600D02*
X84462600Y-112140600D01*
X72220600Y-112100600D02*
X84446600Y-112100600D01*
X72235600Y-112060600D02*
X76953600Y-112060600D01*
X79713600Y-112060600D02*
X84431600Y-112060600D01*
X72251600Y-112020600D02*
X76953600Y-112020600D01*
X79713600Y-112020600D02*
X84415600Y-112020600D01*
X72267600Y-111980600D02*
X76953600Y-111980600D01*
X79713600Y-111980600D02*
X84399600Y-111980600D01*
X72283600Y-111940600D02*
X76953600Y-111940600D01*
X79713600Y-111940600D02*
X84383600Y-111940600D01*
X72300600Y-111900600D02*
X76953600Y-111900600D01*
X79713600Y-111900600D02*
X84366600Y-111900600D01*
X72317600Y-111860600D02*
X76953600Y-111860600D01*
X79713600Y-111860600D02*
X84349600Y-111860600D01*
X72334600Y-111820600D02*
X76953600Y-111820600D01*
X79713600Y-111820600D02*
X84332600Y-111820600D01*
X72352600Y-111780600D02*
X76953600Y-111780600D01*
X79713600Y-111780600D02*
X84314600Y-111780600D01*
X72370600Y-111740600D02*
X76953600Y-111740600D01*
X79713600Y-111740600D02*
X84296600Y-111740600D01*
X72388600Y-111700600D02*
X76953600Y-111700600D01*
X79713600Y-111700600D02*
X84278600Y-111700600D01*
X72407600Y-111660600D02*
X76953600Y-111660600D01*
X79713600Y-111660600D02*
X84259600Y-111660600D01*
X72426600Y-111620600D02*
X76953600Y-111620600D01*
X79713600Y-111620600D02*
X84240600Y-111620600D01*
X72445600Y-111580600D02*
X76953600Y-111580600D01*
X79713600Y-111580600D02*
X84221600Y-111580600D01*
X72465600Y-111540600D02*
X76953600Y-111540600D01*
X79713600Y-111540600D02*
X84201600Y-111540600D01*
X72485600Y-111500600D02*
X76953600Y-111500600D01*
X79713600Y-111500600D02*
X84181600Y-111500600D01*
X72505600Y-111460600D02*
X76953600Y-111460600D01*
X79713600Y-111460600D02*
X84161600Y-111460600D01*
X72526600Y-111420600D02*
X76953600Y-111420600D01*
X79713600Y-111420600D02*
X84140600Y-111420600D01*
X72547600Y-111380600D02*
X76953600Y-111380600D01*
X79713600Y-111380600D02*
X84119600Y-111380600D01*
X72568600Y-111340600D02*
X76953600Y-111340600D01*
X79713600Y-111340600D02*
X84098600Y-111340600D01*
X72590600Y-111300600D02*
X76953600Y-111300600D01*
X79713600Y-111300600D02*
X84076600Y-111300600D01*
X72612600Y-111260600D02*
X76953600Y-111260600D01*
X79713600Y-111260600D02*
X84054600Y-111260600D01*
X72634600Y-111220600D02*
X76953600Y-111220600D01*
X79713600Y-111220600D02*
X84032600Y-111220600D01*
X72657600Y-111180600D02*
X76953600Y-111180600D01*
X79713600Y-111180600D02*
X84009600Y-111180600D01*
X72680600Y-111140600D02*
X76953600Y-111140600D01*
X79713600Y-111140600D02*
X83986600Y-111140600D01*
X72703600Y-111100600D02*
X76953600Y-111100600D01*
X79713600Y-111100600D02*
X83963600Y-111100600D01*
X72727600Y-111060600D02*
X76953600Y-111060600D01*
X79713600Y-111060600D02*
X83939600Y-111060600D01*
X72752600Y-111020600D02*
X76953600Y-111020600D01*
X79713600Y-111020600D02*
X83914600Y-111020600D01*
X72776600Y-110980600D02*
X76953600Y-110980600D01*
X79713600Y-110980600D02*
X83890600Y-110980600D01*
X72801600Y-110940600D02*
X76953600Y-110940600D01*
X79713600Y-110940600D02*
X83865600Y-110940600D01*
X72827600Y-110900600D02*
X76953600Y-110900600D01*
X79713600Y-110900600D02*
X83839600Y-110900600D01*
X72853600Y-110860600D02*
X76953600Y-110860600D01*
X79713600Y-110860600D02*
X83813600Y-110860600D01*
X72879600Y-110820600D02*
X76953600Y-110820600D01*
X79713600Y-110820600D02*
X83787600Y-110820600D01*
X72906600Y-110780600D02*
X76953600Y-110780600D01*
X79713600Y-110780600D02*
X83760600Y-110780600D01*
X72933600Y-110740600D02*
X76953600Y-110740600D01*
X79713600Y-110740600D02*
X83733600Y-110740600D01*
X72960600Y-110700600D02*
X76953600Y-110700600D01*
X79713600Y-110700600D02*
X83706600Y-110700600D01*
X72988600Y-110660600D02*
X76953600Y-110660600D01*
X79713600Y-110660600D02*
X83678600Y-110660600D01*
X73017600Y-110620600D02*
X76953600Y-110620600D01*
X79713600Y-110620600D02*
X83649600Y-110620600D01*
X73046600Y-110580600D02*
X76953600Y-110580600D01*
X79713600Y-110580600D02*
X83620600Y-110580600D01*
X73075600Y-110540600D02*
X76953600Y-110540600D01*
X79713600Y-110540600D02*
X83591600Y-110540600D01*
X73105600Y-110500600D02*
X76953600Y-110500600D01*
X79713600Y-110500600D02*
X83561600Y-110500600D01*
X73135600Y-110460600D02*
X76953600Y-110460600D01*
X79713600Y-110460600D02*
X83531600Y-110460600D01*
X73166600Y-110420600D02*
X76953600Y-110420600D01*
X79713600Y-110420600D02*
X83500600Y-110420600D01*
X73197600Y-110380600D02*
X76953600Y-110380600D01*
X79713600Y-110380600D02*
X83469600Y-110380600D01*
X73229600Y-110340600D02*
X76953600Y-110340600D01*
X79713600Y-110340600D02*
X83437600Y-110340600D01*
X73261600Y-110300600D02*
X76953600Y-110300600D01*
X79713600Y-110300600D02*
X83405600Y-110300600D01*
X73294600Y-110260600D02*
X76953600Y-110260600D01*
X79713600Y-110260600D02*
X83372600Y-110260600D01*
X73328600Y-110220600D02*
X76953600Y-110220600D01*
X79713600Y-110220600D02*
X83338600Y-110220600D01*
X73362600Y-110180600D02*
X76953600Y-110180600D01*
X79713600Y-110180600D02*
X83304600Y-110180600D01*
X73396600Y-110140600D02*
X76953600Y-110140600D01*
X79713600Y-110140600D02*
X83270600Y-110140600D01*
X73431600Y-110100600D02*
X76953600Y-110100600D01*
X79713600Y-110100600D02*
X83235600Y-110100600D01*
X73467600Y-110060600D02*
X76953600Y-110060600D01*
X79713600Y-110060600D02*
X83199600Y-110060600D01*
X73503600Y-110020600D02*
X76953600Y-110020600D01*
X79713600Y-110020600D02*
X83163600Y-110020600D01*
X73540600Y-109980600D02*
X76953600Y-109980600D01*
X79713600Y-109980600D02*
X83126600Y-109980600D01*
X73577600Y-109940600D02*
X76953600Y-109940600D01*
X79713600Y-109940600D02*
X83089600Y-109940600D01*
X73615600Y-109900600D02*
X76953600Y-109900600D01*
X79713600Y-109900600D02*
X83051600Y-109900600D01*
X73654600Y-109860600D02*
X76953600Y-109860600D01*
X79713600Y-109860600D02*
X83012600Y-109860600D01*
X73693600Y-109820600D02*
X76953600Y-109820600D01*
X79713600Y-109820600D02*
X82973600Y-109820600D01*
X73733600Y-109780600D02*
X76953600Y-109780600D01*
X79713600Y-109780600D02*
X82933600Y-109780600D01*
X73774600Y-109740600D02*
X76953600Y-109740600D01*
X79713600Y-109740600D02*
X82892600Y-109740600D01*
X73815600Y-109700600D02*
X76953600Y-109700600D01*
X79713600Y-109700600D02*
X82851600Y-109700600D01*
X73857600Y-109660600D02*
X76953600Y-109660600D01*
X79713600Y-109660600D02*
X82809600Y-109660600D01*
X73900600Y-109620600D02*
X76953600Y-109620600D01*
X79713600Y-109620600D02*
X82766600Y-109620600D01*
X73944600Y-109580600D02*
X76953600Y-109580600D01*
X79713600Y-109580600D02*
X82722600Y-109580600D01*
X73988600Y-109540600D02*
X76953600Y-109540600D01*
X79713600Y-109540600D02*
X82678600Y-109540600D01*
X74034600Y-109500600D02*
X76953600Y-109500600D01*
X79713600Y-109500600D02*
X82632600Y-109500600D01*
X74080600Y-109460600D02*
X76953600Y-109460600D01*
X79713600Y-109460600D02*
X82586600Y-109460600D01*
X74127600Y-109420600D02*
X76953600Y-109420600D01*
X79713600Y-109420600D02*
X82539600Y-109420600D01*
X74175600Y-109380600D02*
X76953600Y-109380600D01*
X79713600Y-109380600D02*
X82491600Y-109380600D01*
X74224600Y-109340600D02*
X76953600Y-109340600D01*
X79713600Y-109340600D02*
X82442600Y-109340600D01*
X74273600Y-109300600D02*
X82393600Y-109300600D01*
X74324600Y-109260600D02*
X82342600Y-109260600D01*
X74376600Y-109220600D02*
X82290600Y-109220600D01*
X74429600Y-109180600D02*
X82237600Y-109180600D01*
X74483600Y-109140600D02*
X82183600Y-109140600D01*
X74539600Y-109100600D02*
X82127600Y-109100600D01*
X74595600Y-109060600D02*
X82071600Y-109060600D01*
X74653600Y-109020600D02*
X82013600Y-109020600D01*
X74712600Y-108980600D02*
X81954600Y-108980600D01*
X74773600Y-108940600D02*
X81893600Y-108940600D01*
X74835600Y-108900600D02*
X81831600Y-108900600D01*
X74899600Y-108860600D02*
X81767600Y-108860600D01*
X74964600Y-108820600D02*
X81702600Y-108820600D01*
X75031600Y-108780600D02*
X81635600Y-108780600D01*
X75100600Y-108740600D02*
X81566600Y-108740600D01*
X75171600Y-108700600D02*
X81495600Y-108700600D01*
X75244600Y-108660600D02*
X81422600Y-108660600D01*
X75319600Y-108620600D02*
X81347600Y-108620600D01*
X75397600Y-108580600D02*
X81269600Y-108580600D01*
X75477600Y-108540600D02*
X81189600Y-108540600D01*
X75561600Y-108500600D02*
X81105600Y-108500600D01*
X75647600Y-108460600D02*
X81019600Y-108460600D01*
X75737600Y-108420600D02*
X80929600Y-108420600D01*
X75831600Y-108380600D02*
X80835600Y-108380600D01*
X75928600Y-108340600D02*
X80738600Y-108340600D01*
X76031600Y-108300600D02*
X80635600Y-108300600D01*
X76139600Y-108260600D02*
X80527600Y-108260600D01*
X76253600Y-108220600D02*
X80413600Y-108220600D01*
X76375600Y-108180600D02*
X80291600Y-108180600D01*
X76505600Y-108140600D02*
X80161600Y-108140600D01*
X76647600Y-108100600D02*
X80019600Y-108100600D01*
X76801600Y-108060600D02*
X79865600Y-108060600D01*
X76974600Y-108020600D02*
X79692600Y-108020600D01*
X77173600Y-107980600D02*
X79493600Y-107980600D01*
X77415600Y-107940600D02*
X79251600Y-107940600D01*
X77744600Y-107900600D02*
X78922600Y-107900600D01*
X78333600Y-121411600D02*
X78333600Y-119611600D01*
X77433600Y-120511600D02*
X79233600Y-120511600D01*
X76606161Y-80605188D02*
G75*
G03X76601200Y-93401989I1575039J-6399012D01*
G01*
X79756239Y-80605188D02*
G75*
G02X79761200Y-93401989I-1575039J-6399012D01*
G01*
X79756239Y-80605188D02*
G75*
G03X76601200Y-80606411I-1575039J-6399012D01*
G01*
X71631200Y-87004200D02*
X84731200Y-87004200D01*
X71631200Y-86964200D02*
X84731200Y-86964200D01*
X71631200Y-86924200D02*
X84731200Y-86924200D01*
X71632200Y-86884200D02*
X84730200Y-86884200D01*
X71632200Y-86844200D02*
X84730200Y-86844200D01*
X71634200Y-86804200D02*
X84728200Y-86804200D01*
X71635200Y-86764200D02*
X84727200Y-86764200D01*
X71636200Y-86724200D02*
X84726200Y-86724200D01*
X71638200Y-86684200D02*
X84724200Y-86684200D01*
X71640200Y-86644200D02*
X84722200Y-86644200D01*
X71643200Y-86604200D02*
X84719200Y-86604200D01*
X71645200Y-86564200D02*
X84717200Y-86564200D01*
X71648200Y-86524200D02*
X84714200Y-86524200D01*
X71651200Y-86484200D02*
X84711200Y-86484200D01*
X71654200Y-86444200D02*
X84708200Y-86444200D01*
X71658200Y-86404200D02*
X84704200Y-86404200D01*
X71662200Y-86364200D02*
X84700200Y-86364200D01*
X71666200Y-86324200D02*
X84696200Y-86324200D01*
X71670200Y-86283200D02*
X84692200Y-86283200D01*
X71674200Y-86243200D02*
X84688200Y-86243200D01*
X71679200Y-86203200D02*
X84683200Y-86203200D01*
X71684200Y-86163200D02*
X84678200Y-86163200D01*
X71690200Y-86123200D02*
X84672200Y-86123200D01*
X71695200Y-86083200D02*
X84667200Y-86083200D01*
X71701200Y-86043200D02*
X84661200Y-86043200D01*
X71707200Y-86003200D02*
X84655200Y-86003200D01*
X71713200Y-85963200D02*
X84649200Y-85963200D01*
X71720200Y-85923200D02*
X84642200Y-85923200D01*
X71726200Y-85883200D02*
X84636200Y-85883200D01*
X71733200Y-85843200D02*
X84629200Y-85843200D01*
X71741200Y-85803200D02*
X84621200Y-85803200D01*
X71748200Y-85763200D02*
X84614200Y-85763200D01*
X71756200Y-85723200D02*
X84606200Y-85723200D01*
X71764200Y-85683200D02*
X84598200Y-85683200D01*
X71772200Y-85643200D02*
X84590200Y-85643200D01*
X71781200Y-85603200D02*
X84581200Y-85603200D01*
X71790200Y-85563200D02*
X84572200Y-85563200D01*
X71799200Y-85523200D02*
X84563200Y-85523200D01*
X71808200Y-85483200D02*
X84554200Y-85483200D01*
X71818200Y-85443200D02*
X84544200Y-85443200D01*
X71828200Y-85403200D02*
X84534200Y-85403200D01*
X71838200Y-85363200D02*
X84524200Y-85363200D01*
X71848200Y-85323200D02*
X84514200Y-85323200D01*
X71859200Y-85283200D02*
X84503200Y-85283200D01*
X71870200Y-85243200D02*
X84492200Y-85243200D01*
X71881200Y-85203200D02*
X84481200Y-85203200D01*
X71893200Y-85163200D02*
X84469200Y-85163200D01*
X71904200Y-85123200D02*
X84458200Y-85123200D01*
X71916200Y-85083200D02*
X84446200Y-85083200D01*
X71929200Y-85043200D02*
X84433200Y-85043200D01*
X71941200Y-85003200D02*
X84421200Y-85003200D01*
X71954200Y-84963200D02*
X84408200Y-84963200D01*
X71967200Y-84923200D02*
X84395200Y-84923200D01*
X71981200Y-84883200D02*
X84381200Y-84883200D01*
X71995200Y-84843200D02*
X84367200Y-84843200D01*
X72009200Y-84803200D02*
X84353200Y-84803200D01*
X72023200Y-84763200D02*
X84339200Y-84763200D01*
X72037200Y-84723200D02*
X84325200Y-84723200D01*
X72052200Y-84683200D02*
X84310200Y-84683200D01*
X72068200Y-84643200D02*
X84294200Y-84643200D01*
X72083200Y-84603200D02*
X76801200Y-84603200D01*
X79561200Y-84603200D02*
X84279200Y-84603200D01*
X72099200Y-84563200D02*
X76801200Y-84563200D01*
X79561200Y-84563200D02*
X84263200Y-84563200D01*
X72115200Y-84523200D02*
X76801200Y-84523200D01*
X79561200Y-84523200D02*
X84247200Y-84523200D01*
X72131200Y-84483200D02*
X76801200Y-84483200D01*
X79561200Y-84483200D02*
X84231200Y-84483200D01*
X72148200Y-84443200D02*
X76801200Y-84443200D01*
X79561200Y-84443200D02*
X84214200Y-84443200D01*
X72165200Y-84403200D02*
X76801200Y-84403200D01*
X79561200Y-84403200D02*
X84197200Y-84403200D01*
X72182200Y-84363200D02*
X76801200Y-84363200D01*
X79561200Y-84363200D02*
X84180200Y-84363200D01*
X72200200Y-84323200D02*
X76801200Y-84323200D01*
X79561200Y-84323200D02*
X84162200Y-84323200D01*
X72218200Y-84283200D02*
X76801200Y-84283200D01*
X79561200Y-84283200D02*
X84144200Y-84283200D01*
X72236200Y-84243200D02*
X76801200Y-84243200D01*
X79561200Y-84243200D02*
X84126200Y-84243200D01*
X72255200Y-84203200D02*
X76801200Y-84203200D01*
X79561200Y-84203200D02*
X84107200Y-84203200D01*
X72274200Y-84163200D02*
X76801200Y-84163200D01*
X79561200Y-84163200D02*
X84088200Y-84163200D01*
X72293200Y-84123200D02*
X76801200Y-84123200D01*
X79561200Y-84123200D02*
X84069200Y-84123200D01*
X72313200Y-84083200D02*
X76801200Y-84083200D01*
X79561200Y-84083200D02*
X84049200Y-84083200D01*
X72333200Y-84043200D02*
X76801200Y-84043200D01*
X79561200Y-84043200D02*
X84029200Y-84043200D01*
X72353200Y-84003200D02*
X76801200Y-84003200D01*
X79561200Y-84003200D02*
X84009200Y-84003200D01*
X72374200Y-83963200D02*
X76801200Y-83963200D01*
X79561200Y-83963200D02*
X83988200Y-83963200D01*
X72395200Y-83923200D02*
X76801200Y-83923200D01*
X79561200Y-83923200D02*
X83967200Y-83923200D01*
X72416200Y-83883200D02*
X76801200Y-83883200D01*
X79561200Y-83883200D02*
X83946200Y-83883200D01*
X72438200Y-83843200D02*
X76801200Y-83843200D01*
X79561200Y-83843200D02*
X83924200Y-83843200D01*
X72460200Y-83803200D02*
X76801200Y-83803200D01*
X79561200Y-83803200D02*
X83902200Y-83803200D01*
X72482200Y-83763200D02*
X76801200Y-83763200D01*
X79561200Y-83763200D02*
X83880200Y-83763200D01*
X72505200Y-83723200D02*
X76801200Y-83723200D01*
X79561200Y-83723200D02*
X83857200Y-83723200D01*
X72528200Y-83683200D02*
X76801200Y-83683200D01*
X79561200Y-83683200D02*
X83834200Y-83683200D01*
X72551200Y-83643200D02*
X76801200Y-83643200D01*
X79561200Y-83643200D02*
X83811200Y-83643200D01*
X72575200Y-83603200D02*
X76801200Y-83603200D01*
X79561200Y-83603200D02*
X83787200Y-83603200D01*
X72600200Y-83563200D02*
X76801200Y-83563200D01*
X79561200Y-83563200D02*
X83762200Y-83563200D01*
X72624200Y-83523200D02*
X76801200Y-83523200D01*
X79561200Y-83523200D02*
X83738200Y-83523200D01*
X72649200Y-83483200D02*
X76801200Y-83483200D01*
X79561200Y-83483200D02*
X83713200Y-83483200D01*
X72675200Y-83443200D02*
X76801200Y-83443200D01*
X79561200Y-83443200D02*
X83687200Y-83443200D01*
X72701200Y-83403200D02*
X76801200Y-83403200D01*
X79561200Y-83403200D02*
X83661200Y-83403200D01*
X72727200Y-83363200D02*
X76801200Y-83363200D01*
X79561200Y-83363200D02*
X83635200Y-83363200D01*
X72754200Y-83323200D02*
X76801200Y-83323200D01*
X79561200Y-83323200D02*
X83608200Y-83323200D01*
X72781200Y-83283200D02*
X76801200Y-83283200D01*
X79561200Y-83283200D02*
X83581200Y-83283200D01*
X72808200Y-83243200D02*
X76801200Y-83243200D01*
X79561200Y-83243200D02*
X83554200Y-83243200D01*
X72836200Y-83203200D02*
X76801200Y-83203200D01*
X79561200Y-83203200D02*
X83526200Y-83203200D01*
X72865200Y-83163200D02*
X76801200Y-83163200D01*
X79561200Y-83163200D02*
X83497200Y-83163200D01*
X72894200Y-83123200D02*
X76801200Y-83123200D01*
X79561200Y-83123200D02*
X83468200Y-83123200D01*
X72923200Y-83083200D02*
X76801200Y-83083200D01*
X79561200Y-83083200D02*
X83439200Y-83083200D01*
X72953200Y-83043200D02*
X76801200Y-83043200D01*
X79561200Y-83043200D02*
X83409200Y-83043200D01*
X72983200Y-83003200D02*
X76801200Y-83003200D01*
X79561200Y-83003200D02*
X83379200Y-83003200D01*
X73014200Y-82963200D02*
X76801200Y-82963200D01*
X79561200Y-82963200D02*
X83348200Y-82963200D01*
X73045200Y-82923200D02*
X76801200Y-82923200D01*
X79561200Y-82923200D02*
X83317200Y-82923200D01*
X73077200Y-82883200D02*
X76801200Y-82883200D01*
X79561200Y-82883200D02*
X83285200Y-82883200D01*
X73109200Y-82843200D02*
X76801200Y-82843200D01*
X79561200Y-82843200D02*
X83253200Y-82843200D01*
X73142200Y-82803200D02*
X76801200Y-82803200D01*
X79561200Y-82803200D02*
X83220200Y-82803200D01*
X73176200Y-82763200D02*
X76801200Y-82763200D01*
X79561200Y-82763200D02*
X83186200Y-82763200D01*
X73210200Y-82723200D02*
X76801200Y-82723200D01*
X79561200Y-82723200D02*
X83152200Y-82723200D01*
X73244200Y-82683200D02*
X76801200Y-82683200D01*
X79561200Y-82683200D02*
X83118200Y-82683200D01*
X73279200Y-82643200D02*
X76801200Y-82643200D01*
X79561200Y-82643200D02*
X83083200Y-82643200D01*
X73315200Y-82603200D02*
X76801200Y-82603200D01*
X79561200Y-82603200D02*
X83047200Y-82603200D01*
X73351200Y-82563200D02*
X76801200Y-82563200D01*
X79561200Y-82563200D02*
X83011200Y-82563200D01*
X73388200Y-82523200D02*
X76801200Y-82523200D01*
X79561200Y-82523200D02*
X82974200Y-82523200D01*
X73425200Y-82483200D02*
X76801200Y-82483200D01*
X79561200Y-82483200D02*
X82937200Y-82483200D01*
X73463200Y-82443200D02*
X76801200Y-82443200D01*
X79561200Y-82443200D02*
X82899200Y-82443200D01*
X73502200Y-82403200D02*
X76801200Y-82403200D01*
X79561200Y-82403200D02*
X82860200Y-82403200D01*
X73541200Y-82363200D02*
X76801200Y-82363200D01*
X79561200Y-82363200D02*
X82821200Y-82363200D01*
X73581200Y-82323200D02*
X76801200Y-82323200D01*
X79561200Y-82323200D02*
X82781200Y-82323200D01*
X73622200Y-82283200D02*
X76801200Y-82283200D01*
X79561200Y-82283200D02*
X82740200Y-82283200D01*
X73663200Y-82243200D02*
X76801200Y-82243200D01*
X79561200Y-82243200D02*
X82699200Y-82243200D01*
X73705200Y-82203200D02*
X76801200Y-82203200D01*
X79561200Y-82203200D02*
X82657200Y-82203200D01*
X73748200Y-82163200D02*
X76801200Y-82163200D01*
X79561200Y-82163200D02*
X82614200Y-82163200D01*
X73792200Y-82123200D02*
X76801200Y-82123200D01*
X79561200Y-82123200D02*
X82570200Y-82123200D01*
X73836200Y-82083200D02*
X76801200Y-82083200D01*
X79561200Y-82083200D02*
X82526200Y-82083200D01*
X73882200Y-82043200D02*
X76801200Y-82043200D01*
X79561200Y-82043200D02*
X82480200Y-82043200D01*
X73928200Y-82003200D02*
X76801200Y-82003200D01*
X79561200Y-82003200D02*
X82434200Y-82003200D01*
X73975200Y-81963200D02*
X76801200Y-81963200D01*
X79561200Y-81963200D02*
X82387200Y-81963200D01*
X74023200Y-81923200D02*
X76801200Y-81923200D01*
X79561200Y-81923200D02*
X82339200Y-81923200D01*
X74072200Y-81883200D02*
X76801200Y-81883200D01*
X79561200Y-81883200D02*
X82290200Y-81883200D01*
X74121200Y-81843200D02*
X82241200Y-81843200D01*
X74172200Y-81803200D02*
X82190200Y-81803200D01*
X74224200Y-81763200D02*
X82138200Y-81763200D01*
X74277200Y-81723200D02*
X82085200Y-81723200D01*
X74331200Y-81683200D02*
X82031200Y-81683200D01*
X74387200Y-81643200D02*
X81975200Y-81643200D01*
X74443200Y-81603200D02*
X81919200Y-81603200D01*
X74501200Y-81563200D02*
X81861200Y-81563200D01*
X74560200Y-81523200D02*
X81802200Y-81523200D01*
X74621200Y-81483200D02*
X81741200Y-81483200D01*
X74683200Y-81443200D02*
X81679200Y-81443200D01*
X74747200Y-81403200D02*
X81615200Y-81403200D01*
X74812200Y-81363200D02*
X81550200Y-81363200D01*
X74879200Y-81323200D02*
X81483200Y-81323200D01*
X74948200Y-81283200D02*
X81414200Y-81283200D01*
X75019200Y-81243200D02*
X81343200Y-81243200D01*
X75092200Y-81203200D02*
X81270200Y-81203200D01*
X75167200Y-81163200D02*
X81195200Y-81163200D01*
X75245200Y-81123200D02*
X81117200Y-81123200D01*
X75325200Y-81083200D02*
X81037200Y-81083200D01*
X75409200Y-81043200D02*
X80953200Y-81043200D01*
X75495200Y-81003200D02*
X80867200Y-81003200D01*
X75585200Y-80963200D02*
X80777200Y-80963200D01*
X75679200Y-80923200D02*
X80683200Y-80923200D01*
X75776200Y-80883200D02*
X80586200Y-80883200D01*
X75879200Y-80843200D02*
X80483200Y-80843200D01*
X75987200Y-80803200D02*
X80375200Y-80803200D01*
X76101200Y-80763200D02*
X80261200Y-80763200D01*
X76223200Y-80723200D02*
X80139200Y-80723200D01*
X76353200Y-80683200D02*
X80009200Y-80683200D01*
X76495200Y-80643200D02*
X79867200Y-80643200D01*
X76649200Y-80603200D02*
X79713200Y-80603200D01*
X76822200Y-80563200D02*
X79540200Y-80563200D01*
X77021200Y-80523200D02*
X79341200Y-80523200D01*
X77263200Y-80483200D02*
X79099200Y-80483200D01*
X77592200Y-80443200D02*
X78770200Y-80443200D01*
X78181200Y-93954200D02*
X78181200Y-92154200D01*
X77281200Y-93054200D02*
X79081200Y-93054200D01*
X55286000Y-53000000D02*
G75*
G03X55286000Y-53000000I-2286000J0D01*
G01*
X55286000Y-147000000D02*
G75*
G03X55286000Y-147000000I-2286000J0D01*
G01*
X149286000Y-53000000D02*
G75*
G03X149286000Y-53000000I-2286000J0D01*
G01*
X149286000Y-147000000D02*
G75*
G03X149286000Y-147000000I-2286000J0D01*
G01*
X123993451Y-55174995D02*
G75*
G03X116160518Y-55172440I-3916851J-1177445D01*
G01*
X123993451Y-57529885D02*
G75*
G02X116160518Y-57532440I-3916851J1177445D01*
G01*
X123993451Y-57529885D02*
G75*
G03X123992682Y-55172440I-3916851J1177445D01*
G01*
X120076600Y-52302440D02*
X120076600Y-60402440D01*
X120116600Y-52302440D02*
X120116600Y-60402440D01*
X120156600Y-52302440D02*
X120156600Y-60402440D01*
X120196600Y-52303440D02*
X120196600Y-60401440D01*
X120236600Y-52305440D02*
X120236600Y-60399440D01*
X120276600Y-52306440D02*
X120276600Y-60398440D01*
X120316600Y-52309440D02*
X120316600Y-60395440D01*
X120356600Y-52311440D02*
X120356600Y-60393440D01*
X120396600Y-52314440D02*
X120396600Y-60390440D01*
X120436600Y-52317440D02*
X120436600Y-60387440D01*
X120476600Y-52321440D02*
X120476600Y-60383440D01*
X120516600Y-52325440D02*
X120516600Y-60379440D01*
X120556600Y-52330440D02*
X120556600Y-60374440D01*
X120596600Y-52335440D02*
X120596600Y-60369440D01*
X120636600Y-52340440D02*
X120636600Y-60364440D01*
X120676600Y-52346440D02*
X120676600Y-60358440D01*
X120716600Y-52352440D02*
X120716600Y-60352440D01*
X120756600Y-52358440D02*
X120756600Y-60346440D01*
X120797600Y-52365440D02*
X120797600Y-60339440D01*
X120837600Y-52373440D02*
X120837600Y-60331440D01*
X120877600Y-52381440D02*
X120877600Y-60323440D01*
X120917600Y-52389440D02*
X120917600Y-60315440D01*
X120957600Y-52397440D02*
X120957600Y-60307440D01*
X120997600Y-52406440D02*
X120997600Y-60298440D01*
X121037600Y-52416440D02*
X121037600Y-60288440D01*
X121077600Y-52426440D02*
X121077600Y-60278440D01*
X121117600Y-52436440D02*
X121117600Y-60268440D01*
X121157600Y-52447440D02*
X121157600Y-60257440D01*
X121197600Y-52458440D02*
X121197600Y-60246440D01*
X121237600Y-52469440D02*
X121237600Y-60235440D01*
X121277600Y-52482440D02*
X121277600Y-60222440D01*
X121317600Y-52494440D02*
X121317600Y-60210440D01*
X121357600Y-52507440D02*
X121357600Y-60197440D01*
X121397600Y-52520440D02*
X121397600Y-60184440D01*
X121437600Y-52534440D02*
X121437600Y-60170440D01*
X121477600Y-52549440D02*
X121477600Y-60155440D01*
X121517600Y-52563440D02*
X121517600Y-60141440D01*
X121557600Y-52579440D02*
X121557600Y-60125440D01*
X121597600Y-52594440D02*
X121597600Y-55372440D01*
X121597600Y-57332440D02*
X121597600Y-60110440D01*
X121637600Y-52611440D02*
X121637600Y-55372440D01*
X121637600Y-57332440D02*
X121637600Y-60093440D01*
X121677600Y-52627440D02*
X121677600Y-55372440D01*
X121677600Y-57332440D02*
X121677600Y-60077440D01*
X121717600Y-52645440D02*
X121717600Y-55372440D01*
X121717600Y-57332440D02*
X121717600Y-60059440D01*
X121757600Y-52662440D02*
X121757600Y-55372440D01*
X121757600Y-57332440D02*
X121757600Y-60042440D01*
X121797600Y-52681440D02*
X121797600Y-55372440D01*
X121797600Y-57332440D02*
X121797600Y-60023440D01*
X121837600Y-52700440D02*
X121837600Y-55372440D01*
X121837600Y-57332440D02*
X121837600Y-60004440D01*
X121877600Y-52719440D02*
X121877600Y-55372440D01*
X121877600Y-57332440D02*
X121877600Y-59985440D01*
X121917600Y-52739440D02*
X121917600Y-55372440D01*
X121917600Y-57332440D02*
X121917600Y-59965440D01*
X121957600Y-52759440D02*
X121957600Y-55372440D01*
X121957600Y-57332440D02*
X121957600Y-59945440D01*
X121997600Y-52780440D02*
X121997600Y-55372440D01*
X121997600Y-57332440D02*
X121997600Y-59924440D01*
X122037600Y-52802440D02*
X122037600Y-55372440D01*
X122037600Y-57332440D02*
X122037600Y-59902440D01*
X122077600Y-52824440D02*
X122077600Y-55372440D01*
X122077600Y-57332440D02*
X122077600Y-59880440D01*
X122117600Y-52847440D02*
X122117600Y-55372440D01*
X122117600Y-57332440D02*
X122117600Y-59857440D01*
X122157600Y-52870440D02*
X122157600Y-55372440D01*
X122157600Y-57332440D02*
X122157600Y-59834440D01*
X122197600Y-52894440D02*
X122197600Y-55372440D01*
X122197600Y-57332440D02*
X122197600Y-59810440D01*
X122237600Y-52918440D02*
X122237600Y-55372440D01*
X122237600Y-57332440D02*
X122237600Y-59786440D01*
X122277600Y-52944440D02*
X122277600Y-55372440D01*
X122277600Y-57332440D02*
X122277600Y-59760440D01*
X122317600Y-52969440D02*
X122317600Y-55372440D01*
X122317600Y-57332440D02*
X122317600Y-59735440D01*
X122357600Y-52996440D02*
X122357600Y-55372440D01*
X122357600Y-57332440D02*
X122357600Y-59708440D01*
X122397600Y-53023440D02*
X122397600Y-55372440D01*
X122397600Y-57332440D02*
X122397600Y-59681440D01*
X122437600Y-53051440D02*
X122437600Y-55372440D01*
X122437600Y-57332440D02*
X122437600Y-59653440D01*
X122477600Y-53080440D02*
X122477600Y-55372440D01*
X122477600Y-57332440D02*
X122477600Y-59624440D01*
X122517600Y-53109440D02*
X122517600Y-55372440D01*
X122517600Y-57332440D02*
X122517600Y-59595440D01*
X122557600Y-53139440D02*
X122557600Y-55372440D01*
X122557600Y-57332440D02*
X122557600Y-59565440D01*
X122597600Y-53170440D02*
X122597600Y-55372440D01*
X122597600Y-57332440D02*
X122597600Y-59534440D01*
X122637600Y-53202440D02*
X122637600Y-55372440D01*
X122637600Y-57332440D02*
X122637600Y-59502440D01*
X122677600Y-53234440D02*
X122677600Y-55372440D01*
X122677600Y-57332440D02*
X122677600Y-59470440D01*
X122717600Y-53268440D02*
X122717600Y-55372440D01*
X122717600Y-57332440D02*
X122717600Y-59436440D01*
X122757600Y-53302440D02*
X122757600Y-55372440D01*
X122757600Y-57332440D02*
X122757600Y-59402440D01*
X122797600Y-53337440D02*
X122797600Y-55372440D01*
X122797600Y-57332440D02*
X122797600Y-59367440D01*
X122837600Y-53373440D02*
X122837600Y-55372440D01*
X122837600Y-57332440D02*
X122837600Y-59331440D01*
X122877600Y-53410440D02*
X122877600Y-55372440D01*
X122877600Y-57332440D02*
X122877600Y-59294440D01*
X122917600Y-53448440D02*
X122917600Y-55372440D01*
X122917600Y-57332440D02*
X122917600Y-59256440D01*
X122957600Y-53487440D02*
X122957600Y-55372440D01*
X122957600Y-57332440D02*
X122957600Y-59217440D01*
X122997600Y-53528440D02*
X122997600Y-55372440D01*
X122997600Y-57332440D02*
X122997600Y-59176440D01*
X123037600Y-53569440D02*
X123037600Y-55372440D01*
X123037600Y-57332440D02*
X123037600Y-59135440D01*
X123077600Y-53612440D02*
X123077600Y-55372440D01*
X123077600Y-57332440D02*
X123077600Y-59092440D01*
X123117600Y-53655440D02*
X123117600Y-55372440D01*
X123117600Y-57332440D02*
X123117600Y-59049440D01*
X123157600Y-53700440D02*
X123157600Y-55372440D01*
X123157600Y-57332440D02*
X123157600Y-59004440D01*
X123197600Y-53747440D02*
X123197600Y-55372440D01*
X123197600Y-57332440D02*
X123197600Y-58957440D01*
X123237600Y-53795440D02*
X123237600Y-55372440D01*
X123237600Y-57332440D02*
X123237600Y-58909440D01*
X123277600Y-53844440D02*
X123277600Y-55372440D01*
X123277600Y-57332440D02*
X123277600Y-58860440D01*
X123317600Y-53895440D02*
X123317600Y-55372440D01*
X123317600Y-57332440D02*
X123317600Y-58809440D01*
X123357600Y-53948440D02*
X123357600Y-55372440D01*
X123357600Y-57332440D02*
X123357600Y-58756440D01*
X123397600Y-54003440D02*
X123397600Y-55372440D01*
X123397600Y-57332440D02*
X123397600Y-58701440D01*
X123437600Y-54059440D02*
X123437600Y-55372440D01*
X123437600Y-57332440D02*
X123437600Y-58645440D01*
X123477600Y-54118440D02*
X123477600Y-55372440D01*
X123477600Y-57332440D02*
X123477600Y-58586440D01*
X123517600Y-54179440D02*
X123517600Y-55372440D01*
X123517600Y-57332440D02*
X123517600Y-58525440D01*
X123557600Y-54243440D02*
X123557600Y-58461440D01*
X123597600Y-54309440D02*
X123597600Y-58395440D01*
X123637600Y-54378440D02*
X123637600Y-58326440D01*
X123677600Y-54450440D02*
X123677600Y-58254440D01*
X123717600Y-54526440D02*
X123717600Y-58178440D01*
X123757600Y-54607440D02*
X123757600Y-58097440D01*
X123797600Y-54692440D02*
X123797600Y-58012440D01*
X123837600Y-54782440D02*
X123837600Y-57922440D01*
X123877600Y-54879440D02*
X123877600Y-57825440D01*
X123917600Y-54983440D02*
X123917600Y-57721440D01*
X123957600Y-55098440D02*
X123957600Y-57606440D01*
X123997600Y-55225440D02*
X123997600Y-57479440D01*
X124037600Y-55369440D02*
X124037600Y-57335440D01*
X124077600Y-55538440D02*
X124077600Y-57166440D01*
X124117600Y-55754440D02*
X124117600Y-56950440D01*
X124157600Y-56106440D02*
X124157600Y-56598440D01*
X115376600Y-56352440D02*
X116576600Y-56352440D01*
X115976600Y-55702440D02*
X115976600Y-57002440D01*
X126250700Y-66992500D02*
X116090700Y-66992500D01*
X126250700Y-68262500D02*
X126250700Y-60642500D01*
X126250700Y-60642500D02*
X116090700Y-60642500D01*
X116090700Y-60642500D02*
X116090700Y-68262500D01*
X116090700Y-68262500D02*
X126250700Y-68262500D01*
X115051400Y-53675840D02*
X115381400Y-53675840D01*
X115381400Y-53675840D02*
X115381400Y-60095840D01*
X115381400Y-60095840D02*
X115051400Y-60095840D01*
X113091400Y-53675840D02*
X112761400Y-53675840D01*
X112761400Y-53675840D02*
X112761400Y-60095840D01*
X112761400Y-60095840D02*
X113091400Y-60095840D01*
X136589392Y-57509665D02*
G75*
G03X136432484Y-60742000I1078608J-1672335D01*
G01*
X138746608Y-57509665D02*
G75*
G02X138903516Y-60742000I-1078608J-1672335D01*
G01*
X136588163Y-58140870D02*
G75*
G03X136588000Y-60222961I1079837J-1041130D01*
G01*
X138747837Y-58140870D02*
G75*
G02X138748000Y-60222961I-1079837J-1041130D01*
G01*
X136432000Y-60742000D02*
X136588000Y-60742000D01*
X138748000Y-60742000D02*
X138904000Y-60742000D01*
X126330000Y-55408000D02*
X126330000Y-55078000D01*
X126330000Y-55078000D02*
X132750000Y-55078000D01*
X132750000Y-55078000D02*
X132750000Y-55408000D01*
X126330000Y-57368000D02*
X126330000Y-57698000D01*
X126330000Y-57698000D02*
X132750000Y-57698000D01*
X132750000Y-57698000D02*
X132750000Y-57368000D01*
X111922400Y-54515400D02*
X112052400Y-54515400D01*
X112052400Y-54515400D02*
X112052400Y-59835400D01*
X112052400Y-59835400D02*
X111922400Y-59835400D01*
X109362400Y-54515400D02*
X109232400Y-54515400D01*
X109232400Y-54515400D02*
X109232400Y-59835400D01*
X109232400Y-59835400D02*
X109362400Y-59835400D01*
X112052400Y-55355400D02*
X109232400Y-55355400D01*
X105401600Y-64433300D02*
X104921600Y-64433300D01*
X104921600Y-64433300D02*
X104921600Y-54413300D01*
X104921600Y-54413300D02*
X105401600Y-54413300D01*
X108161600Y-64433300D02*
X108641600Y-64433300D01*
X108641600Y-64433300D02*
X108641600Y-54413300D01*
X108641600Y-54413300D02*
X108161600Y-54413300D01*
X100793240Y-99101600D02*
X100793240Y-101761600D01*
X103393240Y-99101600D02*
X100793240Y-99101600D01*
X103393240Y-101761600D02*
X100793240Y-101761600D01*
X103393240Y-99101600D02*
X103393240Y-101761600D01*
X104663240Y-99101600D02*
X105993240Y-99101600D01*
X105993240Y-99101600D02*
X105993240Y-100431600D01*
X105156291Y-95682584D02*
G75*
G02X105196600Y-97991880I40309J-1154296D01*
G01*
X105216721Y-97990932D02*
G75*
G02X104067600Y-96596880I-20121J1154052D01*
G01*
X96876600Y-93216880D02*
X106526600Y-93216880D01*
X96876600Y-98167880D02*
X106526600Y-98167880D01*
X96876600Y-93216880D02*
X96876600Y-98167880D01*
X106526600Y-93216880D02*
X106526600Y-98167880D01*
X106072600Y-96102880D02*
X104461600Y-97712880D01*
X105932600Y-95961880D02*
X104320600Y-97571880D01*
X128011704Y-99252749D02*
G75*
G02X130321000Y-99212440I1154296J40309D01*
G01*
X130320052Y-99192319D02*
G75*
G02X128926000Y-100341440I-1154052J-20121D01*
G01*
X125546000Y-107532440D02*
X125546000Y-97882440D01*
X130497000Y-107532440D02*
X130497000Y-97882440D01*
X125546000Y-107532440D02*
X130497000Y-107532440D01*
X125546000Y-97882440D02*
X130497000Y-97882440D01*
X128432000Y-98336440D02*
X130042000Y-99947440D01*
X128291000Y-98476440D02*
X129901000Y-100088440D01*
X133800364Y-96987069D02*
G75*
G02X136109660Y-96946760I1154296J40309D01*
G01*
X136108712Y-96926639D02*
G75*
G02X134714660Y-98075760I-1154052J-20121D01*
G01*
X131334660Y-105266760D02*
X131334660Y-95616760D01*
X136285660Y-105266760D02*
X136285660Y-95616760D01*
X131334660Y-105266760D02*
X136285660Y-105266760D01*
X131334660Y-95616760D02*
X136285660Y-95616760D01*
X134220660Y-96070760D02*
X135830660Y-97681760D01*
X134079660Y-96210760D02*
X135689660Y-97822760D01*
D11*
X147928081Y-114480933D02*
X148642367Y-114480933D01*
X148785224Y-114528553D01*
X148880462Y-114623791D01*
X148928081Y-114766648D01*
X148928081Y-114861886D01*
X147928081Y-114099981D02*
X147928081Y-113480933D01*
X148309033Y-113814267D01*
X148309033Y-113671409D01*
X148356652Y-113576171D01*
X148404271Y-113528552D01*
X148499510Y-113480933D01*
X148737605Y-113480933D01*
X148832843Y-113528552D01*
X148880462Y-113576171D01*
X148928081Y-113671409D01*
X148928081Y-113957124D01*
X148880462Y-114052362D01*
X148832843Y-114099981D01*
X89196943Y-135504181D02*
X88863609Y-135027990D01*
X88625514Y-135504181D02*
X88625514Y-134504181D01*
X89006467Y-134504181D01*
X89101705Y-134551800D01*
X89149324Y-134599419D01*
X89196943Y-134694657D01*
X89196943Y-134837514D01*
X89149324Y-134932752D01*
X89101705Y-134980371D01*
X89006467Y-135027990D01*
X88625514Y-135027990D01*
X89577895Y-134599419D02*
X89625514Y-134551800D01*
X89720752Y-134504181D01*
X89958848Y-134504181D01*
X90054086Y-134551800D01*
X90101705Y-134599419D01*
X90149324Y-134694657D01*
X90149324Y-134789895D01*
X90101705Y-134932752D01*
X89530276Y-135504181D01*
X90149324Y-135504181D01*
X91006467Y-134837514D02*
X91006467Y-135504181D01*
X90768371Y-134456562D02*
X90530276Y-135170848D01*
X91149324Y-135170848D01*
X123597943Y-74423566D02*
X123645562Y-74471185D01*
X123693181Y-74614042D01*
X123693181Y-74709280D01*
X123645562Y-74852138D01*
X123550324Y-74947376D01*
X123455086Y-74994995D01*
X123264610Y-75042614D01*
X123121752Y-75042614D01*
X122931276Y-74994995D01*
X122836038Y-74947376D01*
X122740800Y-74852138D01*
X122693181Y-74709280D01*
X122693181Y-74614042D01*
X122740800Y-74471185D01*
X122788419Y-74423566D01*
X123026514Y-73566423D02*
X123693181Y-73566423D01*
X122645562Y-73804519D02*
X123359848Y-74042614D01*
X123359848Y-73423566D01*
X132421334Y-76938143D02*
X132373715Y-76985762D01*
X132230858Y-77033381D01*
X132135620Y-77033381D01*
X131992762Y-76985762D01*
X131897524Y-76890524D01*
X131849905Y-76795286D01*
X131802286Y-76604810D01*
X131802286Y-76461952D01*
X131849905Y-76271476D01*
X131897524Y-76176238D01*
X131992762Y-76081000D01*
X132135620Y-76033381D01*
X132230858Y-76033381D01*
X132373715Y-76081000D01*
X132421334Y-76128619D01*
X133326096Y-76033381D02*
X132849905Y-76033381D01*
X132802286Y-76509571D01*
X132849905Y-76461952D01*
X132945143Y-76414333D01*
X133183239Y-76414333D01*
X133278477Y-76461952D01*
X133326096Y-76509571D01*
X133373715Y-76604810D01*
X133373715Y-76842905D01*
X133326096Y-76938143D01*
X133278477Y-76985762D01*
X133183239Y-77033381D01*
X132945143Y-77033381D01*
X132849905Y-76985762D01*
X132802286Y-76938143D01*
X123168683Y-82117226D02*
X123216302Y-82164845D01*
X123263921Y-82307702D01*
X123263921Y-82402940D01*
X123216302Y-82545798D01*
X123121064Y-82641036D01*
X123025826Y-82688655D01*
X122835350Y-82736274D01*
X122692492Y-82736274D01*
X122502016Y-82688655D01*
X122406778Y-82641036D01*
X122311540Y-82545798D01*
X122263921Y-82402940D01*
X122263921Y-82307702D01*
X122311540Y-82164845D01*
X122359159Y-82117226D01*
X122263921Y-81260083D02*
X122263921Y-81450560D01*
X122311540Y-81545798D01*
X122359159Y-81593417D01*
X122502016Y-81688655D01*
X122692492Y-81736274D01*
X123073445Y-81736274D01*
X123168683Y-81688655D01*
X123216302Y-81641036D01*
X123263921Y-81545798D01*
X123263921Y-81355321D01*
X123216302Y-81260083D01*
X123168683Y-81212464D01*
X123073445Y-81164845D01*
X122835350Y-81164845D01*
X122740111Y-81212464D01*
X122692492Y-81260083D01*
X122644873Y-81355321D01*
X122644873Y-81545798D01*
X122692492Y-81641036D01*
X122740111Y-81688655D01*
X122835350Y-81736274D01*
X92657634Y-73333883D02*
X92610015Y-73381502D01*
X92467158Y-73429121D01*
X92371920Y-73429121D01*
X92229062Y-73381502D01*
X92133824Y-73286264D01*
X92086205Y-73191026D01*
X92038586Y-73000550D01*
X92038586Y-72857692D01*
X92086205Y-72667216D01*
X92133824Y-72571978D01*
X92229062Y-72476740D01*
X92371920Y-72429121D01*
X92467158Y-72429121D01*
X92610015Y-72476740D01*
X92657634Y-72524359D01*
X93229062Y-72857692D02*
X93133824Y-72810073D01*
X93086205Y-72762454D01*
X93038586Y-72667216D01*
X93038586Y-72619597D01*
X93086205Y-72524359D01*
X93133824Y-72476740D01*
X93229062Y-72429121D01*
X93419539Y-72429121D01*
X93514777Y-72476740D01*
X93562396Y-72524359D01*
X93610015Y-72619597D01*
X93610015Y-72667216D01*
X93562396Y-72762454D01*
X93514777Y-72810073D01*
X93419539Y-72857692D01*
X93229062Y-72857692D01*
X93133824Y-72905311D01*
X93086205Y-72952930D01*
X93038586Y-73048169D01*
X93038586Y-73238645D01*
X93086205Y-73333883D01*
X93133824Y-73381502D01*
X93229062Y-73429121D01*
X93419539Y-73429121D01*
X93514777Y-73381502D01*
X93562396Y-73333883D01*
X93610015Y-73238645D01*
X93610015Y-73048169D01*
X93562396Y-72952930D01*
X93514777Y-72905311D01*
X93419539Y-72857692D01*
X115416034Y-75147443D02*
X115368415Y-75195062D01*
X115225558Y-75242681D01*
X115130320Y-75242681D01*
X114987462Y-75195062D01*
X114892224Y-75099824D01*
X114844605Y-75004586D01*
X114796986Y-74814110D01*
X114796986Y-74671252D01*
X114844605Y-74480776D01*
X114892224Y-74385538D01*
X114987462Y-74290300D01*
X115130320Y-74242681D01*
X115225558Y-74242681D01*
X115368415Y-74290300D01*
X115416034Y-74337919D01*
X115892224Y-75242681D02*
X116082700Y-75242681D01*
X116177939Y-75195062D01*
X116225558Y-75147443D01*
X116320796Y-75004586D01*
X116368415Y-74814110D01*
X116368415Y-74433157D01*
X116320796Y-74337919D01*
X116273177Y-74290300D01*
X116177939Y-74242681D01*
X115987462Y-74242681D01*
X115892224Y-74290300D01*
X115844605Y-74337919D01*
X115796986Y-74433157D01*
X115796986Y-74671252D01*
X115844605Y-74766490D01*
X115892224Y-74814110D01*
X115987462Y-74861729D01*
X116177939Y-74861729D01*
X116273177Y-74814110D01*
X116320796Y-74766490D01*
X116368415Y-74671252D01*
X59942505Y-71178681D02*
X59942505Y-70178681D01*
X60180600Y-70178681D01*
X60323458Y-70226300D01*
X60418696Y-70321538D01*
X60466315Y-70416776D01*
X60513934Y-70607252D01*
X60513934Y-70750110D01*
X60466315Y-70940586D01*
X60418696Y-71035824D01*
X60323458Y-71131062D01*
X60180600Y-71178681D01*
X59942505Y-71178681D01*
X61466315Y-71178681D02*
X60894886Y-71178681D01*
X61180600Y-71178681D02*
X61180600Y-70178681D01*
X61085362Y-70321538D01*
X60990124Y-70416776D01*
X60894886Y-70464395D01*
X59637705Y-129408181D02*
X59637705Y-128408181D01*
X59875800Y-128408181D01*
X60018658Y-128455800D01*
X60113896Y-128551038D01*
X60161515Y-128646276D01*
X60209134Y-128836752D01*
X60209134Y-128979610D01*
X60161515Y-129170086D01*
X60113896Y-129265324D01*
X60018658Y-129360562D01*
X59875800Y-129408181D01*
X59637705Y-129408181D01*
X60590086Y-128503419D02*
X60637705Y-128455800D01*
X60732943Y-128408181D01*
X60971039Y-128408181D01*
X61066277Y-128455800D01*
X61113896Y-128503419D01*
X61161515Y-128598657D01*
X61161515Y-128693895D01*
X61113896Y-128836752D01*
X60542467Y-129408181D01*
X61161515Y-129408181D01*
X59866305Y-76931781D02*
X59866305Y-75931781D01*
X60104400Y-75931781D01*
X60247258Y-75979400D01*
X60342496Y-76074638D01*
X60390115Y-76169876D01*
X60437734Y-76360352D01*
X60437734Y-76503210D01*
X60390115Y-76693686D01*
X60342496Y-76788924D01*
X60247258Y-76884162D01*
X60104400Y-76931781D01*
X59866305Y-76931781D01*
X60771067Y-75931781D02*
X61390115Y-75931781D01*
X61056781Y-76312733D01*
X61199639Y-76312733D01*
X61294877Y-76360352D01*
X61342496Y-76407971D01*
X61390115Y-76503210D01*
X61390115Y-76741305D01*
X61342496Y-76836543D01*
X61294877Y-76884162D01*
X61199639Y-76931781D01*
X60913924Y-76931781D01*
X60818686Y-76884162D01*
X60771067Y-76836543D01*
X59688505Y-123312181D02*
X59688505Y-122312181D01*
X59926600Y-122312181D01*
X60069458Y-122359800D01*
X60164696Y-122455038D01*
X60212315Y-122550276D01*
X60259934Y-122740752D01*
X60259934Y-122883610D01*
X60212315Y-123074086D01*
X60164696Y-123169324D01*
X60069458Y-123264562D01*
X59926600Y-123312181D01*
X59688505Y-123312181D01*
X61117077Y-122645514D02*
X61117077Y-123312181D01*
X60878981Y-122264562D02*
X60640886Y-122978848D01*
X61259934Y-122978848D01*
X88276205Y-61247281D02*
X88276205Y-60247281D01*
X88514300Y-60247281D01*
X88657158Y-60294900D01*
X88752396Y-60390138D01*
X88800015Y-60485376D01*
X88847634Y-60675852D01*
X88847634Y-60818710D01*
X88800015Y-61009186D01*
X88752396Y-61104424D01*
X88657158Y-61199662D01*
X88514300Y-61247281D01*
X88276205Y-61247281D01*
X89752396Y-60247281D02*
X89276205Y-60247281D01*
X89228586Y-60723471D01*
X89276205Y-60675852D01*
X89371443Y-60628233D01*
X89609539Y-60628233D01*
X89704777Y-60675852D01*
X89752396Y-60723471D01*
X89800015Y-60818710D01*
X89800015Y-61056805D01*
X89752396Y-61152043D01*
X89704777Y-61199662D01*
X89609539Y-61247281D01*
X89371443Y-61247281D01*
X89276205Y-61199662D01*
X89228586Y-61152043D01*
X83154781Y-61952095D02*
X82154781Y-61952095D01*
X82154781Y-61714000D01*
X82202400Y-61571142D01*
X82297638Y-61475904D01*
X82392876Y-61428285D01*
X82583352Y-61380666D01*
X82726210Y-61380666D01*
X82916686Y-61428285D01*
X83011924Y-61475904D01*
X83107162Y-61571142D01*
X83154781Y-61714000D01*
X83154781Y-61952095D01*
X82154781Y-60523523D02*
X82154781Y-60714000D01*
X82202400Y-60809238D01*
X82250019Y-60856857D01*
X82392876Y-60952095D01*
X82583352Y-60999714D01*
X82964305Y-60999714D01*
X83059543Y-60952095D01*
X83107162Y-60904476D01*
X83154781Y-60809238D01*
X83154781Y-60618761D01*
X83107162Y-60523523D01*
X83059543Y-60475904D01*
X82964305Y-60428285D01*
X82726210Y-60428285D01*
X82630971Y-60475904D01*
X82583352Y-60523523D01*
X82535733Y-60618761D01*
X82535733Y-60809238D01*
X82583352Y-60904476D01*
X82630971Y-60952095D01*
X82726210Y-60999714D01*
X81481705Y-68930781D02*
X81481705Y-67930781D01*
X81719800Y-67930781D01*
X81862658Y-67978400D01*
X81957896Y-68073638D01*
X82005515Y-68168876D01*
X82053134Y-68359352D01*
X82053134Y-68502210D01*
X82005515Y-68692686D01*
X81957896Y-68787924D01*
X81862658Y-68883162D01*
X81719800Y-68930781D01*
X81481705Y-68930781D01*
X82386467Y-67930781D02*
X83053134Y-67930781D01*
X82624562Y-68930781D01*
X91574881Y-91987595D02*
X90574881Y-91987595D01*
X90574881Y-91749500D01*
X90622500Y-91606642D01*
X90717738Y-91511404D01*
X90812976Y-91463785D01*
X91003452Y-91416166D01*
X91146310Y-91416166D01*
X91336786Y-91463785D01*
X91432024Y-91511404D01*
X91527262Y-91606642D01*
X91574881Y-91749500D01*
X91574881Y-91987595D01*
X91003452Y-90844738D02*
X90955833Y-90939976D01*
X90908214Y-90987595D01*
X90812976Y-91035214D01*
X90765357Y-91035214D01*
X90670119Y-90987595D01*
X90622500Y-90939976D01*
X90574881Y-90844738D01*
X90574881Y-90654261D01*
X90622500Y-90559023D01*
X90670119Y-90511404D01*
X90765357Y-90463785D01*
X90812976Y-90463785D01*
X90908214Y-90511404D01*
X90955833Y-90559023D01*
X91003452Y-90654261D01*
X91003452Y-90844738D01*
X91051071Y-90939976D01*
X91098690Y-90987595D01*
X91193929Y-91035214D01*
X91384405Y-91035214D01*
X91479643Y-90987595D01*
X91527262Y-90939976D01*
X91574881Y-90844738D01*
X91574881Y-90654261D01*
X91527262Y-90559023D01*
X91479643Y-90511404D01*
X91384405Y-90463785D01*
X91193929Y-90463785D01*
X91098690Y-90511404D01*
X91051071Y-90559023D01*
X91003452Y-90654261D01*
X103754181Y-71362795D02*
X102754181Y-71362795D01*
X102754181Y-71124700D01*
X102801800Y-70981842D01*
X102897038Y-70886604D01*
X102992276Y-70838985D01*
X103182752Y-70791366D01*
X103325610Y-70791366D01*
X103516086Y-70838985D01*
X103611324Y-70886604D01*
X103706562Y-70981842D01*
X103754181Y-71124700D01*
X103754181Y-71362795D01*
X103754181Y-70315176D02*
X103754181Y-70124700D01*
X103706562Y-70029461D01*
X103658943Y-69981842D01*
X103516086Y-69886604D01*
X103325610Y-69838985D01*
X102944657Y-69838985D01*
X102849419Y-69886604D01*
X102801800Y-69934223D01*
X102754181Y-70029461D01*
X102754181Y-70219938D01*
X102801800Y-70315176D01*
X102849419Y-70362795D01*
X102944657Y-70410414D01*
X103182752Y-70410414D01*
X103277990Y-70362795D01*
X103325610Y-70315176D01*
X103373229Y-70219938D01*
X103373229Y-70029461D01*
X103325610Y-69934223D01*
X103277990Y-69886604D01*
X103182752Y-69838985D01*
X133088214Y-83700881D02*
X133088214Y-82700881D01*
X133326309Y-82700881D01*
X133469167Y-82748500D01*
X133564405Y-82843738D01*
X133612024Y-82938976D01*
X133659643Y-83129452D01*
X133659643Y-83272310D01*
X133612024Y-83462786D01*
X133564405Y-83558024D01*
X133469167Y-83653262D01*
X133326309Y-83700881D01*
X133088214Y-83700881D01*
X134612024Y-83700881D02*
X134040595Y-83700881D01*
X134326309Y-83700881D02*
X134326309Y-82700881D01*
X134231071Y-82843738D01*
X134135833Y-82938976D01*
X134040595Y-82986595D01*
X135231071Y-82700881D02*
X135326310Y-82700881D01*
X135421548Y-82748500D01*
X135469167Y-82796119D01*
X135516786Y-82891357D01*
X135564405Y-83081833D01*
X135564405Y-83319929D01*
X135516786Y-83510405D01*
X135469167Y-83605643D01*
X135421548Y-83653262D01*
X135326310Y-83700881D01*
X135231071Y-83700881D01*
X135135833Y-83653262D01*
X135088214Y-83605643D01*
X135040595Y-83510405D01*
X134992976Y-83319929D01*
X134992976Y-83081833D01*
X135040595Y-82891357D01*
X135088214Y-82796119D01*
X135135833Y-82748500D01*
X135231071Y-82700881D01*
X133342214Y-80716381D02*
X133342214Y-79716381D01*
X133580309Y-79716381D01*
X133723167Y-79764000D01*
X133818405Y-79859238D01*
X133866024Y-79954476D01*
X133913643Y-80144952D01*
X133913643Y-80287810D01*
X133866024Y-80478286D01*
X133818405Y-80573524D01*
X133723167Y-80668762D01*
X133580309Y-80716381D01*
X133342214Y-80716381D01*
X134866024Y-80716381D02*
X134294595Y-80716381D01*
X134580309Y-80716381D02*
X134580309Y-79716381D01*
X134485071Y-79859238D01*
X134389833Y-79954476D01*
X134294595Y-80002095D01*
X135818405Y-80716381D02*
X135246976Y-80716381D01*
X135532690Y-80716381D02*
X135532690Y-79716381D01*
X135437452Y-79859238D01*
X135342214Y-79954476D01*
X135246976Y-80002095D01*
X141435081Y-53741486D02*
X140435081Y-53741486D01*
X140435081Y-53503391D01*
X140482700Y-53360533D01*
X140577938Y-53265295D01*
X140673176Y-53217676D01*
X140863652Y-53170057D01*
X141006510Y-53170057D01*
X141196986Y-53217676D01*
X141292224Y-53265295D01*
X141387462Y-53360533D01*
X141435081Y-53503391D01*
X141435081Y-53741486D01*
X141435081Y-52217676D02*
X141435081Y-52789105D01*
X141435081Y-52503391D02*
X140435081Y-52503391D01*
X140577938Y-52598629D01*
X140673176Y-52693867D01*
X140720795Y-52789105D01*
X140530319Y-51836724D02*
X140482700Y-51789105D01*
X140435081Y-51693867D01*
X140435081Y-51455771D01*
X140482700Y-51360533D01*
X140530319Y-51312914D01*
X140625557Y-51265295D01*
X140720795Y-51265295D01*
X140863652Y-51312914D01*
X141435081Y-51884343D01*
X141435081Y-51265295D01*
X60258181Y-100185333D02*
X60972467Y-100185333D01*
X61115324Y-100232953D01*
X61210562Y-100328191D01*
X61258181Y-100471048D01*
X61258181Y-100566286D01*
X61258181Y-99185333D02*
X61258181Y-99756762D01*
X61258181Y-99471048D02*
X60258181Y-99471048D01*
X60401038Y-99566286D01*
X60496276Y-99661524D01*
X60543895Y-99756762D01*
X148905981Y-130990933D02*
X149620267Y-130990933D01*
X149763124Y-131038553D01*
X149858362Y-131133791D01*
X149905981Y-131276648D01*
X149905981Y-131371886D01*
X149001219Y-130562362D02*
X148953600Y-130514743D01*
X148905981Y-130419505D01*
X148905981Y-130181409D01*
X148953600Y-130086171D01*
X149001219Y-130038552D01*
X149096457Y-129990933D01*
X149191695Y-129990933D01*
X149334552Y-130038552D01*
X149905981Y-130609981D01*
X149905981Y-129990933D01*
X121553219Y-91560638D02*
X121505600Y-91655876D01*
X121410362Y-91751114D01*
X121267505Y-91893971D01*
X121219886Y-91989210D01*
X121219886Y-92084448D01*
X121457981Y-92036829D02*
X121410362Y-92132067D01*
X121315124Y-92227305D01*
X121124648Y-92274924D01*
X120791314Y-92274924D01*
X120600838Y-92227305D01*
X120505600Y-92132067D01*
X120457981Y-92036829D01*
X120457981Y-91846352D01*
X120505600Y-91751114D01*
X120600838Y-91655876D01*
X120791314Y-91608257D01*
X121124648Y-91608257D01*
X121315124Y-91655876D01*
X121410362Y-91751114D01*
X121457981Y-91846352D01*
X121457981Y-92036829D01*
X121457981Y-90655876D02*
X121457981Y-91227305D01*
X121457981Y-90941591D02*
X120457981Y-90941591D01*
X120600838Y-91036829D01*
X120696076Y-91132067D01*
X120743695Y-91227305D01*
X76485762Y-78614519D02*
X76390524Y-78566900D01*
X76295286Y-78471662D01*
X76152429Y-78328805D01*
X76057190Y-78281186D01*
X75961952Y-78281186D01*
X76009571Y-78519281D02*
X75914333Y-78471662D01*
X75819095Y-78376424D01*
X75771476Y-78185948D01*
X75771476Y-77852614D01*
X75819095Y-77662138D01*
X75914333Y-77566900D01*
X76009571Y-77519281D01*
X76200048Y-77519281D01*
X76295286Y-77566900D01*
X76390524Y-77662138D01*
X76438143Y-77852614D01*
X76438143Y-78185948D01*
X76390524Y-78376424D01*
X76295286Y-78471662D01*
X76200048Y-78519281D01*
X76009571Y-78519281D01*
X76771476Y-77519281D02*
X77390524Y-77519281D01*
X77057190Y-77900233D01*
X77200048Y-77900233D01*
X77295286Y-77947852D01*
X77342905Y-77995471D01*
X77390524Y-78090710D01*
X77390524Y-78328805D01*
X77342905Y-78424043D01*
X77295286Y-78471662D01*
X77200048Y-78519281D01*
X76914333Y-78519281D01*
X76819095Y-78471662D01*
X76771476Y-78424043D01*
X90765334Y-100083881D02*
X90432000Y-99607690D01*
X90193905Y-100083881D02*
X90193905Y-99083881D01*
X90574858Y-99083881D01*
X90670096Y-99131500D01*
X90717715Y-99179119D01*
X90765334Y-99274357D01*
X90765334Y-99417214D01*
X90717715Y-99512452D01*
X90670096Y-99560071D01*
X90574858Y-99607690D01*
X90193905Y-99607690D01*
X91717715Y-100083881D02*
X91146286Y-100083881D01*
X91432000Y-100083881D02*
X91432000Y-99083881D01*
X91336762Y-99226738D01*
X91241524Y-99321976D01*
X91146286Y-99369595D01*
X79703634Y-53995581D02*
X79370300Y-53519390D01*
X79132205Y-53995581D02*
X79132205Y-52995581D01*
X79513158Y-52995581D01*
X79608396Y-53043200D01*
X79656015Y-53090819D01*
X79703634Y-53186057D01*
X79703634Y-53328914D01*
X79656015Y-53424152D01*
X79608396Y-53471771D01*
X79513158Y-53519390D01*
X79132205Y-53519390D01*
X80084586Y-53090819D02*
X80132205Y-53043200D01*
X80227443Y-52995581D01*
X80465539Y-52995581D01*
X80560777Y-53043200D01*
X80608396Y-53090819D01*
X80656015Y-53186057D01*
X80656015Y-53281295D01*
X80608396Y-53424152D01*
X80036967Y-53995581D01*
X80656015Y-53995581D01*
X92606834Y-65222381D02*
X92273500Y-64746190D01*
X92035405Y-65222381D02*
X92035405Y-64222381D01*
X92416358Y-64222381D01*
X92511596Y-64270000D01*
X92559215Y-64317619D01*
X92606834Y-64412857D01*
X92606834Y-64555714D01*
X92559215Y-64650952D01*
X92511596Y-64698571D01*
X92416358Y-64746190D01*
X92035405Y-64746190D01*
X92940167Y-64222381D02*
X93559215Y-64222381D01*
X93225881Y-64603333D01*
X93368739Y-64603333D01*
X93463977Y-64650952D01*
X93511596Y-64698571D01*
X93559215Y-64793810D01*
X93559215Y-65031905D01*
X93511596Y-65127143D01*
X93463977Y-65174762D01*
X93368739Y-65222381D01*
X93083024Y-65222381D01*
X92987786Y-65174762D01*
X92940167Y-65127143D01*
X95270581Y-91835266D02*
X94794390Y-92168600D01*
X95270581Y-92406695D02*
X94270581Y-92406695D01*
X94270581Y-92025742D01*
X94318200Y-91930504D01*
X94365819Y-91882885D01*
X94461057Y-91835266D01*
X94603914Y-91835266D01*
X94699152Y-91882885D01*
X94746771Y-91930504D01*
X94794390Y-92025742D01*
X94794390Y-92406695D01*
X94603914Y-90978123D02*
X95270581Y-90978123D01*
X94222962Y-91216219D02*
X94937248Y-91454314D01*
X94937248Y-90835266D01*
X101623834Y-88653881D02*
X101290500Y-88177690D01*
X101052405Y-88653881D02*
X101052405Y-87653881D01*
X101433358Y-87653881D01*
X101528596Y-87701500D01*
X101576215Y-87749119D01*
X101623834Y-87844357D01*
X101623834Y-87987214D01*
X101576215Y-88082452D01*
X101528596Y-88130071D01*
X101433358Y-88177690D01*
X101052405Y-88177690D01*
X102528596Y-87653881D02*
X102052405Y-87653881D01*
X102004786Y-88130071D01*
X102052405Y-88082452D01*
X102147643Y-88034833D01*
X102385739Y-88034833D01*
X102480977Y-88082452D01*
X102528596Y-88130071D01*
X102576215Y-88225310D01*
X102576215Y-88463405D01*
X102528596Y-88558643D01*
X102480977Y-88606262D01*
X102385739Y-88653881D01*
X102147643Y-88653881D01*
X102052405Y-88606262D01*
X102004786Y-88558643D01*
X101433334Y-91892381D02*
X101100000Y-91416190D01*
X100861905Y-91892381D02*
X100861905Y-90892381D01*
X101242858Y-90892381D01*
X101338096Y-90940000D01*
X101385715Y-90987619D01*
X101433334Y-91082857D01*
X101433334Y-91225714D01*
X101385715Y-91320952D01*
X101338096Y-91368571D01*
X101242858Y-91416190D01*
X100861905Y-91416190D01*
X102290477Y-90892381D02*
X102100000Y-90892381D01*
X102004762Y-90940000D01*
X101957143Y-90987619D01*
X101861905Y-91130476D01*
X101814286Y-91320952D01*
X101814286Y-91701905D01*
X101861905Y-91797143D01*
X101909524Y-91844762D01*
X102004762Y-91892381D01*
X102195239Y-91892381D01*
X102290477Y-91844762D01*
X102338096Y-91797143D01*
X102385715Y-91701905D01*
X102385715Y-91463810D01*
X102338096Y-91368571D01*
X102290477Y-91320952D01*
X102195239Y-91273333D01*
X102004762Y-91273333D01*
X101909524Y-91320952D01*
X101861905Y-91368571D01*
X101814286Y-91463810D01*
X101433334Y-105608381D02*
X101100000Y-105132190D01*
X100861905Y-105608381D02*
X100861905Y-104608381D01*
X101242858Y-104608381D01*
X101338096Y-104656000D01*
X101385715Y-104703619D01*
X101433334Y-104798857D01*
X101433334Y-104941714D01*
X101385715Y-105036952D01*
X101338096Y-105084571D01*
X101242858Y-105132190D01*
X100861905Y-105132190D01*
X101766667Y-104608381D02*
X102433334Y-104608381D01*
X102004762Y-105608381D01*
X134326334Y-72715381D02*
X133993000Y-72239190D01*
X133754905Y-72715381D02*
X133754905Y-71715381D01*
X134135858Y-71715381D01*
X134231096Y-71763000D01*
X134278715Y-71810619D01*
X134326334Y-71905857D01*
X134326334Y-72048714D01*
X134278715Y-72143952D01*
X134231096Y-72191571D01*
X134135858Y-72239190D01*
X133754905Y-72239190D01*
X134897762Y-72143952D02*
X134802524Y-72096333D01*
X134754905Y-72048714D01*
X134707286Y-71953476D01*
X134707286Y-71905857D01*
X134754905Y-71810619D01*
X134802524Y-71763000D01*
X134897762Y-71715381D01*
X135088239Y-71715381D01*
X135183477Y-71763000D01*
X135231096Y-71810619D01*
X135278715Y-71905857D01*
X135278715Y-71953476D01*
X135231096Y-72048714D01*
X135183477Y-72096333D01*
X135088239Y-72143952D01*
X134897762Y-72143952D01*
X134802524Y-72191571D01*
X134754905Y-72239190D01*
X134707286Y-72334429D01*
X134707286Y-72524905D01*
X134754905Y-72620143D01*
X134802524Y-72667762D01*
X134897762Y-72715381D01*
X135088239Y-72715381D01*
X135183477Y-72667762D01*
X135231096Y-72620143D01*
X135278715Y-72524905D01*
X135278715Y-72334429D01*
X135231096Y-72239190D01*
X135183477Y-72191571D01*
X135088239Y-72143952D01*
X116216134Y-72016881D02*
X115882800Y-71540690D01*
X115644705Y-72016881D02*
X115644705Y-71016881D01*
X116025658Y-71016881D01*
X116120896Y-71064500D01*
X116168515Y-71112119D01*
X116216134Y-71207357D01*
X116216134Y-71350214D01*
X116168515Y-71445452D01*
X116120896Y-71493071D01*
X116025658Y-71540690D01*
X115644705Y-71540690D01*
X116692324Y-72016881D02*
X116882800Y-72016881D01*
X116978039Y-71969262D01*
X117025658Y-71921643D01*
X117120896Y-71778786D01*
X117168515Y-71588310D01*
X117168515Y-71207357D01*
X117120896Y-71112119D01*
X117073277Y-71064500D01*
X116978039Y-71016881D01*
X116787562Y-71016881D01*
X116692324Y-71064500D01*
X116644705Y-71112119D01*
X116597086Y-71207357D01*
X116597086Y-71445452D01*
X116644705Y-71540690D01*
X116692324Y-71588310D01*
X116787562Y-71635929D01*
X116978039Y-71635929D01*
X117073277Y-71588310D01*
X117120896Y-71540690D01*
X117168515Y-71445452D01*
X109872543Y-98293181D02*
X109539209Y-97816990D01*
X109301114Y-98293181D02*
X109301114Y-97293181D01*
X109682067Y-97293181D01*
X109777305Y-97340800D01*
X109824924Y-97388419D01*
X109872543Y-97483657D01*
X109872543Y-97626514D01*
X109824924Y-97721752D01*
X109777305Y-97769371D01*
X109682067Y-97816990D01*
X109301114Y-97816990D01*
X110824924Y-98293181D02*
X110253495Y-98293181D01*
X110539209Y-98293181D02*
X110539209Y-97293181D01*
X110443971Y-97436038D01*
X110348733Y-97531276D01*
X110253495Y-97578895D01*
X111777305Y-98293181D02*
X111205876Y-98293181D01*
X111491590Y-98293181D02*
X111491590Y-97293181D01*
X111396352Y-97436038D01*
X111301114Y-97531276D01*
X111205876Y-97578895D01*
X120007143Y-98051881D02*
X119673809Y-97575690D01*
X119435714Y-98051881D02*
X119435714Y-97051881D01*
X119816667Y-97051881D01*
X119911905Y-97099500D01*
X119959524Y-97147119D01*
X120007143Y-97242357D01*
X120007143Y-97385214D01*
X119959524Y-97480452D01*
X119911905Y-97528071D01*
X119816667Y-97575690D01*
X119435714Y-97575690D01*
X120959524Y-98051881D02*
X120388095Y-98051881D01*
X120673809Y-98051881D02*
X120673809Y-97051881D01*
X120578571Y-97194738D01*
X120483333Y-97289976D01*
X120388095Y-97337595D01*
X121340476Y-97147119D02*
X121388095Y-97099500D01*
X121483333Y-97051881D01*
X121721429Y-97051881D01*
X121816667Y-97099500D01*
X121864286Y-97147119D01*
X121911905Y-97242357D01*
X121911905Y-97337595D01*
X121864286Y-97480452D01*
X121292857Y-98051881D01*
X121911905Y-98051881D01*
X127515881Y-93479857D02*
X127039690Y-93813191D01*
X127515881Y-94051286D02*
X126515881Y-94051286D01*
X126515881Y-93670333D01*
X126563500Y-93575095D01*
X126611119Y-93527476D01*
X126706357Y-93479857D01*
X126849214Y-93479857D01*
X126944452Y-93527476D01*
X126992071Y-93575095D01*
X127039690Y-93670333D01*
X127039690Y-94051286D01*
X127515881Y-92527476D02*
X127515881Y-93098905D01*
X127515881Y-92813191D02*
X126515881Y-92813191D01*
X126658738Y-92908429D01*
X126753976Y-93003667D01*
X126801595Y-93098905D01*
X126515881Y-92194143D02*
X126515881Y-91575095D01*
X126896833Y-91908429D01*
X126896833Y-91765571D01*
X126944452Y-91670333D01*
X126992071Y-91622714D01*
X127087310Y-91575095D01*
X127325405Y-91575095D01*
X127420643Y-91622714D01*
X127468262Y-91670333D01*
X127515881Y-91765571D01*
X127515881Y-92051286D01*
X127468262Y-92146524D01*
X127420643Y-92194143D01*
X87675981Y-87891857D02*
X87199790Y-88225191D01*
X87675981Y-88463286D02*
X86675981Y-88463286D01*
X86675981Y-88082333D01*
X86723600Y-87987095D01*
X86771219Y-87939476D01*
X86866457Y-87891857D01*
X87009314Y-87891857D01*
X87104552Y-87939476D01*
X87152171Y-87987095D01*
X87199790Y-88082333D01*
X87199790Y-88463286D01*
X87675981Y-86939476D02*
X87675981Y-87510905D01*
X87675981Y-87225191D02*
X86675981Y-87225191D01*
X86818838Y-87320429D01*
X86914076Y-87415667D01*
X86961695Y-87510905D01*
X87009314Y-86082333D02*
X87675981Y-86082333D01*
X86628362Y-86320429D02*
X87342648Y-86558524D01*
X87342648Y-85939476D01*
X127198381Y-80589357D02*
X126722190Y-80922691D01*
X127198381Y-81160786D02*
X126198381Y-81160786D01*
X126198381Y-80779833D01*
X126246000Y-80684595D01*
X126293619Y-80636976D01*
X126388857Y-80589357D01*
X126531714Y-80589357D01*
X126626952Y-80636976D01*
X126674571Y-80684595D01*
X126722190Y-80779833D01*
X126722190Y-81160786D01*
X127198381Y-79636976D02*
X127198381Y-80208405D01*
X127198381Y-79922691D02*
X126198381Y-79922691D01*
X126341238Y-80017929D01*
X126436476Y-80113167D01*
X126484095Y-80208405D01*
X126198381Y-78732214D02*
X126198381Y-79208405D01*
X126674571Y-79256024D01*
X126626952Y-79208405D01*
X126579333Y-79113167D01*
X126579333Y-78875071D01*
X126626952Y-78779833D01*
X126674571Y-78732214D01*
X126769810Y-78684595D01*
X127007905Y-78684595D01*
X127103143Y-78732214D01*
X127150762Y-78779833D01*
X127198381Y-78875071D01*
X127198381Y-79113167D01*
X127150762Y-79208405D01*
X127103143Y-79256024D01*
X129138443Y-110233721D02*
X128805109Y-109757530D01*
X128567014Y-110233721D02*
X128567014Y-109233721D01*
X128947967Y-109233721D01*
X129043205Y-109281340D01*
X129090824Y-109328959D01*
X129138443Y-109424197D01*
X129138443Y-109567054D01*
X129090824Y-109662292D01*
X129043205Y-109709911D01*
X128947967Y-109757530D01*
X128567014Y-109757530D01*
X130090824Y-110233721D02*
X129519395Y-110233721D01*
X129805109Y-110233721D02*
X129805109Y-109233721D01*
X129709871Y-109376578D01*
X129614633Y-109471816D01*
X129519395Y-109519435D01*
X130947967Y-109233721D02*
X130757490Y-109233721D01*
X130662252Y-109281340D01*
X130614633Y-109328959D01*
X130519395Y-109471816D01*
X130471776Y-109662292D01*
X130471776Y-110043245D01*
X130519395Y-110138483D01*
X130567014Y-110186102D01*
X130662252Y-110233721D01*
X130852729Y-110233721D01*
X130947967Y-110186102D01*
X130995586Y-110138483D01*
X131043205Y-110043245D01*
X131043205Y-109805150D01*
X130995586Y-109709911D01*
X130947967Y-109662292D01*
X130852729Y-109614673D01*
X130662252Y-109614673D01*
X130567014Y-109662292D01*
X130519395Y-109709911D01*
X130471776Y-109805150D01*
X134386083Y-66903861D02*
X134052749Y-66427670D01*
X133814654Y-66903861D02*
X133814654Y-65903861D01*
X134195607Y-65903861D01*
X134290845Y-65951480D01*
X134338464Y-65999099D01*
X134386083Y-66094337D01*
X134386083Y-66237194D01*
X134338464Y-66332432D01*
X134290845Y-66380051D01*
X134195607Y-66427670D01*
X133814654Y-66427670D01*
X135338464Y-66903861D02*
X134767035Y-66903861D01*
X135052749Y-66903861D02*
X135052749Y-65903861D01*
X134957511Y-66046718D01*
X134862273Y-66141956D01*
X134767035Y-66189575D01*
X135671797Y-65903861D02*
X136338464Y-65903861D01*
X135909892Y-66903861D01*
X105405181Y-82202257D02*
X104928990Y-82535591D01*
X105405181Y-82773686D02*
X104405181Y-82773686D01*
X104405181Y-82392733D01*
X104452800Y-82297495D01*
X104500419Y-82249876D01*
X104595657Y-82202257D01*
X104738514Y-82202257D01*
X104833752Y-82249876D01*
X104881371Y-82297495D01*
X104928990Y-82392733D01*
X104928990Y-82773686D01*
X105405181Y-81249876D02*
X105405181Y-81821305D01*
X105405181Y-81535591D02*
X104405181Y-81535591D01*
X104548038Y-81630829D01*
X104643276Y-81726067D01*
X104690895Y-81821305D01*
X104833752Y-80678448D02*
X104786133Y-80773686D01*
X104738514Y-80821305D01*
X104643276Y-80868924D01*
X104595657Y-80868924D01*
X104500419Y-80821305D01*
X104452800Y-80773686D01*
X104405181Y-80678448D01*
X104405181Y-80487971D01*
X104452800Y-80392733D01*
X104500419Y-80345114D01*
X104595657Y-80297495D01*
X104643276Y-80297495D01*
X104738514Y-80345114D01*
X104786133Y-80392733D01*
X104833752Y-80487971D01*
X104833752Y-80678448D01*
X104881371Y-80773686D01*
X104928990Y-80821305D01*
X105024229Y-80868924D01*
X105214705Y-80868924D01*
X105309943Y-80821305D01*
X105357562Y-80773686D01*
X105405181Y-80678448D01*
X105405181Y-80487971D01*
X105357562Y-80392733D01*
X105309943Y-80345114D01*
X105214705Y-80297495D01*
X105024229Y-80297495D01*
X104928990Y-80345114D01*
X104881371Y-80392733D01*
X104833752Y-80487971D01*
X78465443Y-72822061D02*
X78132109Y-72345870D01*
X77894014Y-72822061D02*
X77894014Y-71822061D01*
X78274967Y-71822061D01*
X78370205Y-71869680D01*
X78417824Y-71917299D01*
X78465443Y-72012537D01*
X78465443Y-72155394D01*
X78417824Y-72250632D01*
X78370205Y-72298251D01*
X78274967Y-72345870D01*
X77894014Y-72345870D01*
X79417824Y-72822061D02*
X78846395Y-72822061D01*
X79132109Y-72822061D02*
X79132109Y-71822061D01*
X79036871Y-71964918D01*
X78941633Y-72060156D01*
X78846395Y-72107775D01*
X79894014Y-72822061D02*
X80084490Y-72822061D01*
X80179729Y-72774442D01*
X80227348Y-72726823D01*
X80322586Y-72583966D01*
X80370205Y-72393490D01*
X80370205Y-72012537D01*
X80322586Y-71917299D01*
X80274967Y-71869680D01*
X80179729Y-71822061D01*
X79989252Y-71822061D01*
X79894014Y-71869680D01*
X79846395Y-71917299D01*
X79798776Y-72012537D01*
X79798776Y-72250632D01*
X79846395Y-72345870D01*
X79894014Y-72393490D01*
X79989252Y-72441109D01*
X80179729Y-72441109D01*
X80274967Y-72393490D01*
X80322586Y-72345870D01*
X80370205Y-72250632D01*
X86962241Y-76154517D02*
X86486050Y-76487851D01*
X86962241Y-76725946D02*
X85962241Y-76725946D01*
X85962241Y-76344993D01*
X86009860Y-76249755D01*
X86057479Y-76202136D01*
X86152717Y-76154517D01*
X86295574Y-76154517D01*
X86390812Y-76202136D01*
X86438431Y-76249755D01*
X86486050Y-76344993D01*
X86486050Y-76725946D01*
X86057479Y-75773565D02*
X86009860Y-75725946D01*
X85962241Y-75630708D01*
X85962241Y-75392612D01*
X86009860Y-75297374D01*
X86057479Y-75249755D01*
X86152717Y-75202136D01*
X86247955Y-75202136D01*
X86390812Y-75249755D01*
X86962241Y-75821184D01*
X86962241Y-75202136D01*
X85962241Y-74583089D02*
X85962241Y-74487850D01*
X86009860Y-74392612D01*
X86057479Y-74344993D01*
X86152717Y-74297374D01*
X86343193Y-74249755D01*
X86581289Y-74249755D01*
X86771765Y-74297374D01*
X86867003Y-74344993D01*
X86914622Y-74392612D01*
X86962241Y-74487850D01*
X86962241Y-74583089D01*
X86914622Y-74678327D01*
X86867003Y-74725946D01*
X86771765Y-74773565D01*
X86581289Y-74821184D01*
X86343193Y-74821184D01*
X86152717Y-74773565D01*
X86057479Y-74725946D01*
X86009860Y-74678327D01*
X85962241Y-74583089D01*
X102166681Y-82214957D02*
X101690490Y-82548291D01*
X102166681Y-82786386D02*
X101166681Y-82786386D01*
X101166681Y-82405433D01*
X101214300Y-82310195D01*
X101261919Y-82262576D01*
X101357157Y-82214957D01*
X101500014Y-82214957D01*
X101595252Y-82262576D01*
X101642871Y-82310195D01*
X101690490Y-82405433D01*
X101690490Y-82786386D01*
X101261919Y-81834005D02*
X101214300Y-81786386D01*
X101166681Y-81691148D01*
X101166681Y-81453052D01*
X101214300Y-81357814D01*
X101261919Y-81310195D01*
X101357157Y-81262576D01*
X101452395Y-81262576D01*
X101595252Y-81310195D01*
X102166681Y-81881624D01*
X102166681Y-81262576D01*
X102166681Y-80310195D02*
X102166681Y-80881624D01*
X102166681Y-80595910D02*
X101166681Y-80595910D01*
X101309538Y-80691148D01*
X101404776Y-80786386D01*
X101452395Y-80881624D01*
X128820943Y-52928781D02*
X128487609Y-52452590D01*
X128249514Y-52928781D02*
X128249514Y-51928781D01*
X128630467Y-51928781D01*
X128725705Y-51976400D01*
X128773324Y-52024019D01*
X128820943Y-52119257D01*
X128820943Y-52262114D01*
X128773324Y-52357352D01*
X128725705Y-52404971D01*
X128630467Y-52452590D01*
X128249514Y-52452590D01*
X129201895Y-52024019D02*
X129249514Y-51976400D01*
X129344752Y-51928781D01*
X129582848Y-51928781D01*
X129678086Y-51976400D01*
X129725705Y-52024019D01*
X129773324Y-52119257D01*
X129773324Y-52214495D01*
X129725705Y-52357352D01*
X129154276Y-52928781D01*
X129773324Y-52928781D01*
X130154276Y-52024019D02*
X130201895Y-51976400D01*
X130297133Y-51928781D01*
X130535229Y-51928781D01*
X130630467Y-51976400D01*
X130678086Y-52024019D01*
X130725705Y-52119257D01*
X130725705Y-52214495D01*
X130678086Y-52357352D01*
X130106657Y-52928781D01*
X130725705Y-52928781D01*
X144243262Y-80217381D02*
X143909928Y-79741190D01*
X143671833Y-80217381D02*
X143671833Y-79217381D01*
X144052786Y-79217381D01*
X144148024Y-79265000D01*
X144195643Y-79312619D01*
X144243262Y-79407857D01*
X144243262Y-79550714D01*
X144195643Y-79645952D01*
X144148024Y-79693571D01*
X144052786Y-79741190D01*
X143671833Y-79741190D01*
X144528976Y-79217381D02*
X144862309Y-80217381D01*
X145195643Y-79217381D01*
X146052786Y-80217381D02*
X145481357Y-80217381D01*
X145767071Y-80217381D02*
X145767071Y-79217381D01*
X145671833Y-79360238D01*
X145576595Y-79455476D01*
X145481357Y-79503095D01*
X143989262Y-63224781D02*
X143655928Y-62748590D01*
X143417833Y-63224781D02*
X143417833Y-62224781D01*
X143798786Y-62224781D01*
X143894024Y-62272400D01*
X143941643Y-62320019D01*
X143989262Y-62415257D01*
X143989262Y-62558114D01*
X143941643Y-62653352D01*
X143894024Y-62700971D01*
X143798786Y-62748590D01*
X143417833Y-62748590D01*
X144274976Y-62224781D02*
X144608309Y-63224781D01*
X144941643Y-62224781D01*
X145227357Y-62320019D02*
X145274976Y-62272400D01*
X145370214Y-62224781D01*
X145608310Y-62224781D01*
X145703548Y-62272400D01*
X145751167Y-62320019D01*
X145798786Y-62415257D01*
X145798786Y-62510495D01*
X145751167Y-62653352D01*
X145179738Y-63224781D01*
X145798786Y-63224781D01*
X93350175Y-76978261D02*
X93350175Y-77787785D01*
X93397794Y-77883023D01*
X93445413Y-77930642D01*
X93540651Y-77978261D01*
X93731128Y-77978261D01*
X93826366Y-77930642D01*
X93873985Y-77883023D01*
X93921604Y-77787785D01*
X93921604Y-76978261D01*
X94921604Y-77978261D02*
X94350175Y-77978261D01*
X94635889Y-77978261D02*
X94635889Y-76978261D01*
X94540651Y-77121118D01*
X94445413Y-77216356D01*
X94350175Y-77263975D01*
X114895381Y-83883405D02*
X115704905Y-83883405D01*
X115800143Y-83835786D01*
X115847762Y-83788167D01*
X115895381Y-83692929D01*
X115895381Y-83502452D01*
X115847762Y-83407214D01*
X115800143Y-83359595D01*
X115704905Y-83311976D01*
X114895381Y-83311976D01*
X114990619Y-82883405D02*
X114943000Y-82835786D01*
X114895381Y-82740548D01*
X114895381Y-82502452D01*
X114943000Y-82407214D01*
X114990619Y-82359595D01*
X115085857Y-82311976D01*
X115181095Y-82311976D01*
X115323952Y-82359595D01*
X115895381Y-82931024D01*
X115895381Y-82311976D01*
X91222534Y-52477943D02*
X91174915Y-52525562D01*
X91032058Y-52573181D01*
X90936820Y-52573181D01*
X90793962Y-52525562D01*
X90698724Y-52430324D01*
X90651105Y-52335086D01*
X90603486Y-52144610D01*
X90603486Y-52001752D01*
X90651105Y-51811276D01*
X90698724Y-51716038D01*
X90793962Y-51620800D01*
X90936820Y-51573181D01*
X91032058Y-51573181D01*
X91174915Y-51620800D01*
X91222534Y-51668419D01*
X91603486Y-51668419D02*
X91651105Y-51620800D01*
X91746343Y-51573181D01*
X91984439Y-51573181D01*
X92079677Y-51620800D01*
X92127296Y-51668419D01*
X92174915Y-51763657D01*
X92174915Y-51858895D01*
X92127296Y-52001752D01*
X91555867Y-52573181D01*
X92174915Y-52573181D01*
X74522034Y-58802543D02*
X74474415Y-58850162D01*
X74331558Y-58897781D01*
X74236320Y-58897781D01*
X74093462Y-58850162D01*
X73998224Y-58754924D01*
X73950605Y-58659686D01*
X73902986Y-58469210D01*
X73902986Y-58326352D01*
X73950605Y-58135876D01*
X73998224Y-58040638D01*
X74093462Y-57945400D01*
X74236320Y-57897781D01*
X74331558Y-57897781D01*
X74474415Y-57945400D01*
X74522034Y-57993019D01*
X74855367Y-57897781D02*
X75474415Y-57897781D01*
X75141081Y-58278733D01*
X75283939Y-58278733D01*
X75379177Y-58326352D01*
X75426796Y-58373971D01*
X75474415Y-58469210D01*
X75474415Y-58707305D01*
X75426796Y-58802543D01*
X75379177Y-58850162D01*
X75283939Y-58897781D01*
X74998224Y-58897781D01*
X74902986Y-58850162D01*
X74855367Y-58802543D01*
X135596334Y-92051143D02*
X135548715Y-92098762D01*
X135405858Y-92146381D01*
X135310620Y-92146381D01*
X135167762Y-92098762D01*
X135072524Y-92003524D01*
X135024905Y-91908286D01*
X134977286Y-91717810D01*
X134977286Y-91574952D01*
X135024905Y-91384476D01*
X135072524Y-91289238D01*
X135167762Y-91194000D01*
X135310620Y-91146381D01*
X135405858Y-91146381D01*
X135548715Y-91194000D01*
X135596334Y-91241619D01*
X135929667Y-91146381D02*
X136596334Y-91146381D01*
X136167762Y-92146381D01*
X59186914Y-141269981D02*
X59186914Y-140269981D01*
X59425009Y-140269981D01*
X59567867Y-140317600D01*
X59663105Y-140412838D01*
X59710724Y-140508076D01*
X59758343Y-140698552D01*
X59758343Y-140841410D01*
X59710724Y-141031886D01*
X59663105Y-141127124D01*
X59567867Y-141222362D01*
X59425009Y-141269981D01*
X59186914Y-141269981D01*
X60710724Y-141269981D02*
X60139295Y-141269981D01*
X60425009Y-141269981D02*
X60425009Y-140269981D01*
X60329771Y-140412838D01*
X60234533Y-140508076D01*
X60139295Y-140555695D01*
X61044057Y-140269981D02*
X61663105Y-140269981D01*
X61329771Y-140650933D01*
X61472629Y-140650933D01*
X61567867Y-140698552D01*
X61615486Y-140746171D01*
X61663105Y-140841410D01*
X61663105Y-141079505D01*
X61615486Y-141174743D01*
X61567867Y-141222362D01*
X61472629Y-141269981D01*
X61186914Y-141269981D01*
X61091676Y-141222362D01*
X61044057Y-141174743D01*
X59263114Y-117368581D02*
X59263114Y-116368581D01*
X59501209Y-116368581D01*
X59644067Y-116416200D01*
X59739305Y-116511438D01*
X59786924Y-116606676D01*
X59834543Y-116797152D01*
X59834543Y-116940010D01*
X59786924Y-117130486D01*
X59739305Y-117225724D01*
X59644067Y-117320962D01*
X59501209Y-117368581D01*
X59263114Y-117368581D01*
X60786924Y-117368581D02*
X60215495Y-117368581D01*
X60501209Y-117368581D02*
X60501209Y-116368581D01*
X60405971Y-116511438D01*
X60310733Y-116606676D01*
X60215495Y-116654295D01*
X61644067Y-116701914D02*
X61644067Y-117368581D01*
X61405971Y-116320962D02*
X61167876Y-117035248D01*
X61786924Y-117035248D01*
X59313914Y-135250181D02*
X59313914Y-134250181D01*
X59552009Y-134250181D01*
X59694867Y-134297800D01*
X59790105Y-134393038D01*
X59837724Y-134488276D01*
X59885343Y-134678752D01*
X59885343Y-134821610D01*
X59837724Y-135012086D01*
X59790105Y-135107324D01*
X59694867Y-135202562D01*
X59552009Y-135250181D01*
X59313914Y-135250181D01*
X60837724Y-135250181D02*
X60266295Y-135250181D01*
X60552009Y-135250181D02*
X60552009Y-134250181D01*
X60456771Y-134393038D01*
X60361533Y-134488276D01*
X60266295Y-134535895D01*
X61742486Y-134250181D02*
X61266295Y-134250181D01*
X61218676Y-134726371D01*
X61266295Y-134678752D01*
X61361533Y-134631133D01*
X61599629Y-134631133D01*
X61694867Y-134678752D01*
X61742486Y-134726371D01*
X61790105Y-134821610D01*
X61790105Y-135059705D01*
X61742486Y-135154943D01*
X61694867Y-135202562D01*
X61599629Y-135250181D01*
X61361533Y-135250181D01*
X61266295Y-135202562D01*
X61218676Y-135154943D01*
X59364714Y-111424981D02*
X59364714Y-110424981D01*
X59602809Y-110424981D01*
X59745667Y-110472600D01*
X59840905Y-110567838D01*
X59888524Y-110663076D01*
X59936143Y-110853552D01*
X59936143Y-110996410D01*
X59888524Y-111186886D01*
X59840905Y-111282124D01*
X59745667Y-111377362D01*
X59602809Y-111424981D01*
X59364714Y-111424981D01*
X60888524Y-111424981D02*
X60317095Y-111424981D01*
X60602809Y-111424981D02*
X60602809Y-110424981D01*
X60507571Y-110567838D01*
X60412333Y-110663076D01*
X60317095Y-110710695D01*
X61745667Y-110424981D02*
X61555190Y-110424981D01*
X61459952Y-110472600D01*
X61412333Y-110520219D01*
X61317095Y-110663076D01*
X61269476Y-110853552D01*
X61269476Y-111234505D01*
X61317095Y-111329743D01*
X61364714Y-111377362D01*
X61459952Y-111424981D01*
X61650429Y-111424981D01*
X61745667Y-111377362D01*
X61793286Y-111329743D01*
X61840905Y-111234505D01*
X61840905Y-110996410D01*
X61793286Y-110901171D01*
X61745667Y-110853552D01*
X61650429Y-110805933D01*
X61459952Y-110805933D01*
X61364714Y-110853552D01*
X61317095Y-110901171D01*
X61269476Y-110996410D01*
X59593314Y-59405781D02*
X59593314Y-58405781D01*
X59831409Y-58405781D01*
X59974267Y-58453400D01*
X60069505Y-58548638D01*
X60117124Y-58643876D01*
X60164743Y-58834352D01*
X60164743Y-58977210D01*
X60117124Y-59167686D01*
X60069505Y-59262924D01*
X59974267Y-59358162D01*
X59831409Y-59405781D01*
X59593314Y-59405781D01*
X61117124Y-59405781D02*
X60545695Y-59405781D01*
X60831409Y-59405781D02*
X60831409Y-58405781D01*
X60736171Y-58548638D01*
X60640933Y-58643876D01*
X60545695Y-58691495D01*
X61450457Y-58405781D02*
X62117124Y-58405781D01*
X61688552Y-59405781D01*
X59644114Y-88641181D02*
X59644114Y-87641181D01*
X59882209Y-87641181D01*
X60025067Y-87688800D01*
X60120305Y-87784038D01*
X60167924Y-87879276D01*
X60215543Y-88069752D01*
X60215543Y-88212610D01*
X60167924Y-88403086D01*
X60120305Y-88498324D01*
X60025067Y-88593562D01*
X59882209Y-88641181D01*
X59644114Y-88641181D01*
X61167924Y-88641181D02*
X60596495Y-88641181D01*
X60882209Y-88641181D02*
X60882209Y-87641181D01*
X60786971Y-87784038D01*
X60691733Y-87879276D01*
X60596495Y-87926895D01*
X61739352Y-88069752D02*
X61644114Y-88022133D01*
X61596495Y-87974514D01*
X61548876Y-87879276D01*
X61548876Y-87831657D01*
X61596495Y-87736419D01*
X61644114Y-87688800D01*
X61739352Y-87641181D01*
X61929829Y-87641181D01*
X62025067Y-87688800D01*
X62072686Y-87736419D01*
X62120305Y-87831657D01*
X62120305Y-87879276D01*
X62072686Y-87974514D01*
X62025067Y-88022133D01*
X61929829Y-88069752D01*
X61739352Y-88069752D01*
X61644114Y-88117371D01*
X61596495Y-88164990D01*
X61548876Y-88260229D01*
X61548876Y-88450705D01*
X61596495Y-88545943D01*
X61644114Y-88593562D01*
X61739352Y-88641181D01*
X61929829Y-88641181D01*
X62025067Y-88593562D01*
X62072686Y-88545943D01*
X62120305Y-88450705D01*
X62120305Y-88260229D01*
X62072686Y-88164990D01*
X62025067Y-88117371D01*
X61929829Y-88069752D01*
X59466314Y-65273181D02*
X59466314Y-64273181D01*
X59704409Y-64273181D01*
X59847267Y-64320800D01*
X59942505Y-64416038D01*
X59990124Y-64511276D01*
X60037743Y-64701752D01*
X60037743Y-64844610D01*
X59990124Y-65035086D01*
X59942505Y-65130324D01*
X59847267Y-65225562D01*
X59704409Y-65273181D01*
X59466314Y-65273181D01*
X60990124Y-65273181D02*
X60418695Y-65273181D01*
X60704409Y-65273181D02*
X60704409Y-64273181D01*
X60609171Y-64416038D01*
X60513933Y-64511276D01*
X60418695Y-64558895D01*
X61466314Y-65273181D02*
X61656790Y-65273181D01*
X61752029Y-65225562D01*
X61799648Y-65177943D01*
X61894886Y-65035086D01*
X61942505Y-64844610D01*
X61942505Y-64463657D01*
X61894886Y-64368419D01*
X61847267Y-64320800D01*
X61752029Y-64273181D01*
X61561552Y-64273181D01*
X61466314Y-64320800D01*
X61418695Y-64368419D01*
X61371076Y-64463657D01*
X61371076Y-64701752D01*
X61418695Y-64796990D01*
X61466314Y-64844610D01*
X61561552Y-64892229D01*
X61752029Y-64892229D01*
X61847267Y-64844610D01*
X61894886Y-64796990D01*
X61942505Y-64701752D01*
X59644114Y-82773781D02*
X59644114Y-81773781D01*
X59882209Y-81773781D01*
X60025067Y-81821400D01*
X60120305Y-81916638D01*
X60167924Y-82011876D01*
X60215543Y-82202352D01*
X60215543Y-82345210D01*
X60167924Y-82535686D01*
X60120305Y-82630924D01*
X60025067Y-82726162D01*
X59882209Y-82773781D01*
X59644114Y-82773781D01*
X60596495Y-81869019D02*
X60644114Y-81821400D01*
X60739352Y-81773781D01*
X60977448Y-81773781D01*
X61072686Y-81821400D01*
X61120305Y-81869019D01*
X61167924Y-81964257D01*
X61167924Y-82059495D01*
X61120305Y-82202352D01*
X60548876Y-82773781D01*
X61167924Y-82773781D01*
X61786971Y-81773781D02*
X61882210Y-81773781D01*
X61977448Y-81821400D01*
X62025067Y-81869019D01*
X62072686Y-81964257D01*
X62120305Y-82154733D01*
X62120305Y-82392829D01*
X62072686Y-82583305D01*
X62025067Y-82678543D01*
X61977448Y-82726162D01*
X61882210Y-82773781D01*
X61786971Y-82773781D01*
X61691733Y-82726162D01*
X61644114Y-82678543D01*
X61596495Y-82583305D01*
X61548876Y-82392829D01*
X61548876Y-82154733D01*
X61596495Y-81964257D01*
X61644114Y-81869019D01*
X61691733Y-81821400D01*
X61786971Y-81773781D01*
X74804543Y-103392266D02*
X74852162Y-103439885D01*
X74899781Y-103582742D01*
X74899781Y-103677980D01*
X74852162Y-103820838D01*
X74756924Y-103916076D01*
X74661686Y-103963695D01*
X74471210Y-104011314D01*
X74328352Y-104011314D01*
X74137876Y-103963695D01*
X74042638Y-103916076D01*
X73947400Y-103820838D01*
X73899781Y-103677980D01*
X73899781Y-103582742D01*
X73947400Y-103439885D01*
X73995019Y-103392266D01*
X74899781Y-102439885D02*
X74899781Y-103011314D01*
X74899781Y-102725600D02*
X73899781Y-102725600D01*
X74042638Y-102820838D01*
X74137876Y-102916076D01*
X74185495Y-103011314D01*
X141393179Y-146283198D02*
X141345560Y-146378436D01*
X141250322Y-146473674D01*
X141107465Y-146616531D01*
X141059846Y-146711770D01*
X141059846Y-146807008D01*
X141297941Y-146759389D02*
X141250322Y-146854627D01*
X141155084Y-146949865D01*
X140964608Y-146997484D01*
X140631274Y-146997484D01*
X140440798Y-146949865D01*
X140345560Y-146854627D01*
X140297941Y-146759389D01*
X140297941Y-146568912D01*
X140345560Y-146473674D01*
X140440798Y-146378436D01*
X140631274Y-146330817D01*
X140964608Y-146330817D01*
X141155084Y-146378436D01*
X141250322Y-146473674D01*
X141297941Y-146568912D01*
X141297941Y-146759389D01*
X140393179Y-145949865D02*
X140345560Y-145902246D01*
X140297941Y-145807008D01*
X140297941Y-145568912D01*
X140345560Y-145473674D01*
X140393179Y-145426055D01*
X140488417Y-145378436D01*
X140583655Y-145378436D01*
X140726512Y-145426055D01*
X141297941Y-145997484D01*
X141297941Y-145378436D01*
X105090919Y-146476238D02*
X105043300Y-146571476D01*
X104948062Y-146666714D01*
X104805205Y-146809571D01*
X104757586Y-146904810D01*
X104757586Y-147000048D01*
X104995681Y-146952429D02*
X104948062Y-147047667D01*
X104852824Y-147142905D01*
X104662348Y-147190524D01*
X104329014Y-147190524D01*
X104138538Y-147142905D01*
X104043300Y-147047667D01*
X103995681Y-146952429D01*
X103995681Y-146761952D01*
X104043300Y-146666714D01*
X104138538Y-146571476D01*
X104329014Y-146523857D01*
X104662348Y-146523857D01*
X104852824Y-146571476D01*
X104948062Y-146666714D01*
X104995681Y-146761952D01*
X104995681Y-146952429D01*
X104329014Y-145666714D02*
X104995681Y-145666714D01*
X103948062Y-145904810D02*
X104662348Y-146142905D01*
X104662348Y-145523857D01*
X123304279Y-146450838D02*
X123256660Y-146546076D01*
X123161422Y-146641314D01*
X123018565Y-146784171D01*
X122970946Y-146879410D01*
X122970946Y-146974648D01*
X123209041Y-146927029D02*
X123161422Y-147022267D01*
X123066184Y-147117505D01*
X122875708Y-147165124D01*
X122542374Y-147165124D01*
X122351898Y-147117505D01*
X122256660Y-147022267D01*
X122209041Y-146927029D01*
X122209041Y-146736552D01*
X122256660Y-146641314D01*
X122351898Y-146546076D01*
X122542374Y-146498457D01*
X122875708Y-146498457D01*
X123066184Y-146546076D01*
X123161422Y-146641314D01*
X123209041Y-146736552D01*
X123209041Y-146927029D01*
X122209041Y-145593695D02*
X122209041Y-146069886D01*
X122685231Y-146117505D01*
X122637612Y-146069886D01*
X122589993Y-145974648D01*
X122589993Y-145736552D01*
X122637612Y-145641314D01*
X122685231Y-145593695D01*
X122780470Y-145546076D01*
X123018565Y-145546076D01*
X123113803Y-145593695D01*
X123161422Y-145641314D01*
X123209041Y-145736552D01*
X123209041Y-145974648D01*
X123161422Y-146069886D01*
X123113803Y-146117505D01*
X87179819Y-146361938D02*
X87132200Y-146457176D01*
X87036962Y-146552414D01*
X86894105Y-146695271D01*
X86846486Y-146790510D01*
X86846486Y-146885748D01*
X87084581Y-146838129D02*
X87036962Y-146933367D01*
X86941724Y-147028605D01*
X86751248Y-147076224D01*
X86417914Y-147076224D01*
X86227438Y-147028605D01*
X86132200Y-146933367D01*
X86084581Y-146838129D01*
X86084581Y-146647652D01*
X86132200Y-146552414D01*
X86227438Y-146457176D01*
X86417914Y-146409557D01*
X86751248Y-146409557D01*
X86941724Y-146457176D01*
X87036962Y-146552414D01*
X87084581Y-146647652D01*
X87084581Y-146838129D01*
X86084581Y-145552414D02*
X86084581Y-145742891D01*
X86132200Y-145838129D01*
X86179819Y-145885748D01*
X86322676Y-145980986D01*
X86513152Y-146028605D01*
X86894105Y-146028605D01*
X86989343Y-145980986D01*
X87036962Y-145933367D01*
X87084581Y-145838129D01*
X87084581Y-145647652D01*
X87036962Y-145552414D01*
X86989343Y-145504795D01*
X86894105Y-145457176D01*
X86656010Y-145457176D01*
X86560771Y-145504795D01*
X86513152Y-145552414D01*
X86465533Y-145647652D01*
X86465533Y-145838129D01*
X86513152Y-145933367D01*
X86560771Y-145980986D01*
X86656010Y-146028605D01*
X69225539Y-146257798D02*
X69177920Y-146353036D01*
X69082682Y-146448274D01*
X68939825Y-146591131D01*
X68892206Y-146686370D01*
X68892206Y-146781608D01*
X69130301Y-146733989D02*
X69082682Y-146829227D01*
X68987444Y-146924465D01*
X68796968Y-146972084D01*
X68463634Y-146972084D01*
X68273158Y-146924465D01*
X68177920Y-146829227D01*
X68130301Y-146733989D01*
X68130301Y-146543512D01*
X68177920Y-146448274D01*
X68273158Y-146353036D01*
X68463634Y-146305417D01*
X68796968Y-146305417D01*
X68987444Y-146353036D01*
X69082682Y-146448274D01*
X69130301Y-146543512D01*
X69130301Y-146733989D01*
X68130301Y-145972084D02*
X68130301Y-145305417D01*
X69130301Y-145733989D01*
X111383843Y-94178381D02*
X111050509Y-93702190D01*
X110812414Y-94178381D02*
X110812414Y-93178381D01*
X111193367Y-93178381D01*
X111288605Y-93226000D01*
X111336224Y-93273619D01*
X111383843Y-93368857D01*
X111383843Y-93511714D01*
X111336224Y-93606952D01*
X111288605Y-93654571D01*
X111193367Y-93702190D01*
X110812414Y-93702190D01*
X112336224Y-94178381D02*
X111764795Y-94178381D01*
X112050509Y-94178381D02*
X112050509Y-93178381D01*
X111955271Y-93321238D01*
X111860033Y-93416476D01*
X111764795Y-93464095D01*
X112955271Y-93178381D02*
X113050510Y-93178381D01*
X113145748Y-93226000D01*
X113193367Y-93273619D01*
X113240986Y-93368857D01*
X113288605Y-93559333D01*
X113288605Y-93797429D01*
X113240986Y-93987905D01*
X113193367Y-94083143D01*
X113145748Y-94130762D01*
X113050510Y-94178381D01*
X112955271Y-94178381D01*
X112860033Y-94130762D01*
X112812414Y-94083143D01*
X112764795Y-93987905D01*
X112717176Y-93797429D01*
X112717176Y-93559333D01*
X112764795Y-93368857D01*
X112812414Y-93273619D01*
X112860033Y-93226000D01*
X112955271Y-93178381D01*
X111447343Y-90635081D02*
X111114009Y-90158890D01*
X110875914Y-90635081D02*
X110875914Y-89635081D01*
X111256867Y-89635081D01*
X111352105Y-89682700D01*
X111399724Y-89730319D01*
X111447343Y-89825557D01*
X111447343Y-89968414D01*
X111399724Y-90063652D01*
X111352105Y-90111271D01*
X111256867Y-90158890D01*
X110875914Y-90158890D01*
X111828295Y-89730319D02*
X111875914Y-89682700D01*
X111971152Y-89635081D01*
X112209248Y-89635081D01*
X112304486Y-89682700D01*
X112352105Y-89730319D01*
X112399724Y-89825557D01*
X112399724Y-89920795D01*
X112352105Y-90063652D01*
X111780676Y-90635081D01*
X112399724Y-90635081D01*
X112733057Y-89635081D02*
X113352105Y-89635081D01*
X113018771Y-90016033D01*
X113161629Y-90016033D01*
X113256867Y-90063652D01*
X113304486Y-90111271D01*
X113352105Y-90206510D01*
X113352105Y-90444605D01*
X113304486Y-90539843D01*
X113256867Y-90587462D01*
X113161629Y-90635081D01*
X112875914Y-90635081D01*
X112780676Y-90587462D01*
X112733057Y-90539843D01*
X89882743Y-128163581D02*
X89549409Y-127687390D01*
X89311314Y-128163581D02*
X89311314Y-127163581D01*
X89692267Y-127163581D01*
X89787505Y-127211200D01*
X89835124Y-127258819D01*
X89882743Y-127354057D01*
X89882743Y-127496914D01*
X89835124Y-127592152D01*
X89787505Y-127639771D01*
X89692267Y-127687390D01*
X89311314Y-127687390D01*
X90263695Y-127258819D02*
X90311314Y-127211200D01*
X90406552Y-127163581D01*
X90644648Y-127163581D01*
X90739886Y-127211200D01*
X90787505Y-127258819D01*
X90835124Y-127354057D01*
X90835124Y-127449295D01*
X90787505Y-127592152D01*
X90216076Y-128163581D01*
X90835124Y-128163581D01*
X91739886Y-127163581D02*
X91263695Y-127163581D01*
X91216076Y-127639771D01*
X91263695Y-127592152D01*
X91358933Y-127544533D01*
X91597029Y-127544533D01*
X91692267Y-127592152D01*
X91739886Y-127639771D01*
X91787505Y-127735010D01*
X91787505Y-127973105D01*
X91739886Y-128068343D01*
X91692267Y-128115962D01*
X91597029Y-128163581D01*
X91358933Y-128163581D01*
X91263695Y-128115962D01*
X91216076Y-128068343D01*
X119245143Y-136024881D02*
X118911809Y-135548690D01*
X118673714Y-136024881D02*
X118673714Y-135024881D01*
X119054667Y-135024881D01*
X119149905Y-135072500D01*
X119197524Y-135120119D01*
X119245143Y-135215357D01*
X119245143Y-135358214D01*
X119197524Y-135453452D01*
X119149905Y-135501071D01*
X119054667Y-135548690D01*
X118673714Y-135548690D01*
X119626095Y-135120119D02*
X119673714Y-135072500D01*
X119768952Y-135024881D01*
X120007048Y-135024881D01*
X120102286Y-135072500D01*
X120149905Y-135120119D01*
X120197524Y-135215357D01*
X120197524Y-135310595D01*
X120149905Y-135453452D01*
X119578476Y-136024881D01*
X120197524Y-136024881D01*
X121054667Y-135024881D02*
X120864190Y-135024881D01*
X120768952Y-135072500D01*
X120721333Y-135120119D01*
X120626095Y-135262976D01*
X120578476Y-135453452D01*
X120578476Y-135834405D01*
X120626095Y-135929643D01*
X120673714Y-135977262D01*
X120768952Y-136024881D01*
X120959429Y-136024881D01*
X121054667Y-135977262D01*
X121102286Y-135929643D01*
X121149905Y-135834405D01*
X121149905Y-135596310D01*
X121102286Y-135501071D01*
X121054667Y-135453452D01*
X120959429Y-135405833D01*
X120768952Y-135405833D01*
X120673714Y-135453452D01*
X120626095Y-135501071D01*
X120578476Y-135596310D01*
X121582143Y-127697882D02*
X121248809Y-127221691D01*
X121010714Y-127697882D02*
X121010714Y-126697882D01*
X121391667Y-126697882D01*
X121486905Y-126745501D01*
X121534524Y-126793120D01*
X121582143Y-126888358D01*
X121582143Y-127031215D01*
X121534524Y-127126453D01*
X121486905Y-127174072D01*
X121391667Y-127221691D01*
X121010714Y-127221691D01*
X121963095Y-126793120D02*
X122010714Y-126745501D01*
X122105952Y-126697882D01*
X122344048Y-126697882D01*
X122439286Y-126745501D01*
X122486905Y-126793120D01*
X122534524Y-126888358D01*
X122534524Y-126983596D01*
X122486905Y-127126453D01*
X121915476Y-127697882D01*
X122534524Y-127697882D01*
X122867857Y-126697882D02*
X123534524Y-126697882D01*
X123105952Y-127697882D01*
X74728343Y-117825757D02*
X74775962Y-117873376D01*
X74823581Y-118016233D01*
X74823581Y-118111471D01*
X74775962Y-118254329D01*
X74680724Y-118349567D01*
X74585486Y-118397186D01*
X74395010Y-118444805D01*
X74252152Y-118444805D01*
X74061676Y-118397186D01*
X73966438Y-118349567D01*
X73871200Y-118254329D01*
X73823581Y-118111471D01*
X73823581Y-118016233D01*
X73871200Y-117873376D01*
X73918819Y-117825757D01*
X74823581Y-116873376D02*
X74823581Y-117444805D01*
X74823581Y-117159091D02*
X73823581Y-117159091D01*
X73966438Y-117254329D01*
X74061676Y-117349567D01*
X74109295Y-117444805D01*
X73823581Y-116254329D02*
X73823581Y-116159090D01*
X73871200Y-116063852D01*
X73918819Y-116016233D01*
X74014057Y-115968614D01*
X74204533Y-115920995D01*
X74442629Y-115920995D01*
X74633105Y-115968614D01*
X74728343Y-116016233D01*
X74775962Y-116063852D01*
X74823581Y-116159090D01*
X74823581Y-116254329D01*
X74775962Y-116349567D01*
X74728343Y-116397186D01*
X74633105Y-116444805D01*
X74442629Y-116492424D01*
X74204533Y-116492424D01*
X74014057Y-116444805D01*
X73918819Y-116397186D01*
X73871200Y-116349567D01*
X73823581Y-116254329D01*
X74563243Y-90495357D02*
X74610862Y-90542976D01*
X74658481Y-90685833D01*
X74658481Y-90781071D01*
X74610862Y-90923929D01*
X74515624Y-91019167D01*
X74420386Y-91066786D01*
X74229910Y-91114405D01*
X74087052Y-91114405D01*
X73896576Y-91066786D01*
X73801338Y-91019167D01*
X73706100Y-90923929D01*
X73658481Y-90781071D01*
X73658481Y-90685833D01*
X73706100Y-90542976D01*
X73753719Y-90495357D01*
X74658481Y-89542976D02*
X74658481Y-90114405D01*
X74658481Y-89828691D02*
X73658481Y-89828691D01*
X73801338Y-89923929D01*
X73896576Y-90019167D01*
X73944195Y-90114405D01*
X74658481Y-88590595D02*
X74658481Y-89162024D01*
X74658481Y-88876310D02*
X73658481Y-88876310D01*
X73801338Y-88971548D01*
X73896576Y-89066786D01*
X73944195Y-89162024D01*
X56435667Y-52106581D02*
X56435667Y-52820867D01*
X56388047Y-52963724D01*
X56292809Y-53058962D01*
X56149952Y-53106581D01*
X56054714Y-53106581D01*
X57340429Y-52439914D02*
X57340429Y-53106581D01*
X57102333Y-52058962D02*
X56864238Y-52773248D01*
X57483286Y-52773248D01*
X52666667Y-143404381D02*
X52666667Y-144118667D01*
X52619047Y-144261524D01*
X52523809Y-144356762D01*
X52380952Y-144404381D01*
X52285714Y-144404381D01*
X53619048Y-143404381D02*
X53142857Y-143404381D01*
X53095238Y-143880571D01*
X53142857Y-143832952D01*
X53238095Y-143785333D01*
X53476191Y-143785333D01*
X53571429Y-143832952D01*
X53619048Y-143880571D01*
X53666667Y-143975810D01*
X53666667Y-144213905D01*
X53619048Y-144309143D01*
X53571429Y-144356762D01*
X53476191Y-144404381D01*
X53238095Y-144404381D01*
X53142857Y-144356762D01*
X53095238Y-144309143D01*
X144027567Y-50303181D02*
X144027567Y-51017467D01*
X143979947Y-51160324D01*
X143884709Y-51255562D01*
X143741852Y-51303181D01*
X143646614Y-51303181D01*
X144932329Y-50303181D02*
X144741852Y-50303181D01*
X144646614Y-50350800D01*
X144598995Y-50398419D01*
X144503757Y-50541276D01*
X144456138Y-50731752D01*
X144456138Y-51112705D01*
X144503757Y-51207943D01*
X144551376Y-51255562D01*
X144646614Y-51303181D01*
X144837091Y-51303181D01*
X144932329Y-51255562D01*
X144979948Y-51207943D01*
X145027567Y-51112705D01*
X145027567Y-50874610D01*
X144979948Y-50779371D01*
X144932329Y-50731752D01*
X144837091Y-50684133D01*
X144646614Y-50684133D01*
X144551376Y-50731752D01*
X144503757Y-50779371D01*
X144456138Y-50874610D01*
X146666667Y-143404381D02*
X146666667Y-144118667D01*
X146619047Y-144261524D01*
X146523809Y-144356762D01*
X146380952Y-144404381D01*
X146285714Y-144404381D01*
X147047619Y-143404381D02*
X147714286Y-143404381D01*
X147285714Y-144404381D01*
X119433743Y-51399583D02*
X119386124Y-51447202D01*
X119243267Y-51494821D01*
X119148029Y-51494821D01*
X119005171Y-51447202D01*
X118909933Y-51351964D01*
X118862314Y-51256726D01*
X118814695Y-51066250D01*
X118814695Y-50923392D01*
X118862314Y-50732916D01*
X118909933Y-50637678D01*
X119005171Y-50542440D01*
X119148029Y-50494821D01*
X119243267Y-50494821D01*
X119386124Y-50542440D01*
X119433743Y-50590059D01*
X120386124Y-51494821D02*
X119814695Y-51494821D01*
X120100409Y-51494821D02*
X120100409Y-50494821D01*
X120005171Y-50637678D01*
X119909933Y-50732916D01*
X119814695Y-50780535D01*
X120767076Y-50590059D02*
X120814695Y-50542440D01*
X120909933Y-50494821D01*
X121148029Y-50494821D01*
X121243267Y-50542440D01*
X121290886Y-50590059D01*
X121338505Y-50685297D01*
X121338505Y-50780535D01*
X121290886Y-50923392D01*
X120719457Y-51494821D01*
X121338505Y-51494821D01*
X126958767Y-65403481D02*
X126958767Y-66117767D01*
X126911147Y-66260624D01*
X126815909Y-66355862D01*
X126673052Y-66403481D01*
X126577814Y-66403481D01*
X127577814Y-65832052D02*
X127482576Y-65784433D01*
X127434957Y-65736814D01*
X127387338Y-65641576D01*
X127387338Y-65593957D01*
X127434957Y-65498719D01*
X127482576Y-65451100D01*
X127577814Y-65403481D01*
X127768291Y-65403481D01*
X127863529Y-65451100D01*
X127911148Y-65498719D01*
X127958767Y-65593957D01*
X127958767Y-65641576D01*
X127911148Y-65736814D01*
X127863529Y-65784433D01*
X127768291Y-65832052D01*
X127577814Y-65832052D01*
X127482576Y-65879671D01*
X127434957Y-65927290D01*
X127387338Y-66022529D01*
X127387338Y-66213005D01*
X127434957Y-66308243D01*
X127482576Y-66355862D01*
X127577814Y-66403481D01*
X127768291Y-66403481D01*
X127863529Y-66355862D01*
X127911148Y-66308243D01*
X127958767Y-66213005D01*
X127958767Y-66022529D01*
X127911148Y-65927290D01*
X127863529Y-65879671D01*
X127768291Y-65832052D01*
X114434881Y-57414397D02*
X113958690Y-57747731D01*
X114434881Y-57985826D02*
X113434881Y-57985826D01*
X113434881Y-57604873D01*
X113482500Y-57509635D01*
X113530119Y-57462016D01*
X113625357Y-57414397D01*
X113768214Y-57414397D01*
X113863452Y-57462016D01*
X113911071Y-57509635D01*
X113958690Y-57604873D01*
X113958690Y-57985826D01*
X113434881Y-57081064D02*
X113434881Y-56462016D01*
X113815833Y-56795350D01*
X113815833Y-56652492D01*
X113863452Y-56557254D01*
X113911071Y-56509635D01*
X114006310Y-56462016D01*
X114244405Y-56462016D01*
X114339643Y-56509635D01*
X114387262Y-56557254D01*
X114434881Y-56652492D01*
X114434881Y-56938207D01*
X114387262Y-57033445D01*
X114339643Y-57081064D01*
X113434881Y-55842969D02*
X113434881Y-55747730D01*
X113482500Y-55652492D01*
X113530119Y-55604873D01*
X113625357Y-55557254D01*
X113815833Y-55509635D01*
X114053929Y-55509635D01*
X114244405Y-55557254D01*
X114339643Y-55604873D01*
X114387262Y-55652492D01*
X114434881Y-55747730D01*
X114434881Y-55842969D01*
X114387262Y-55938207D01*
X114339643Y-55985826D01*
X114244405Y-56033445D01*
X114053929Y-56081064D01*
X113815833Y-56081064D01*
X113625357Y-56033445D01*
X113530119Y-55985826D01*
X113482500Y-55938207D01*
X113434881Y-55842969D01*
X135160381Y-60396286D02*
X134160381Y-60396286D01*
X134160381Y-60158191D01*
X134208000Y-60015333D01*
X134303238Y-59920095D01*
X134398476Y-59872476D01*
X134588952Y-59824857D01*
X134731810Y-59824857D01*
X134922286Y-59872476D01*
X135017524Y-59920095D01*
X135112762Y-60015333D01*
X135160381Y-60158191D01*
X135160381Y-60396286D01*
X134255619Y-59443905D02*
X134208000Y-59396286D01*
X134160381Y-59301048D01*
X134160381Y-59062952D01*
X134208000Y-58967714D01*
X134255619Y-58920095D01*
X134350857Y-58872476D01*
X134446095Y-58872476D01*
X134588952Y-58920095D01*
X135160381Y-59491524D01*
X135160381Y-58872476D01*
X135160381Y-57920095D02*
X135160381Y-58491524D01*
X135160381Y-58205810D02*
X134160381Y-58205810D01*
X134303238Y-58301048D01*
X134398476Y-58396286D01*
X134446095Y-58491524D01*
X129074943Y-56891181D02*
X128741609Y-56414990D01*
X128503514Y-56891181D02*
X128503514Y-55891181D01*
X128884467Y-55891181D01*
X128979705Y-55938800D01*
X129027324Y-55986419D01*
X129074943Y-56081657D01*
X129074943Y-56224514D01*
X129027324Y-56319752D01*
X128979705Y-56367371D01*
X128884467Y-56414990D01*
X128503514Y-56414990D01*
X129408276Y-55891181D02*
X130027324Y-55891181D01*
X129693990Y-56272133D01*
X129836848Y-56272133D01*
X129932086Y-56319752D01*
X129979705Y-56367371D01*
X130027324Y-56462610D01*
X130027324Y-56700705D01*
X129979705Y-56795943D01*
X129932086Y-56843562D01*
X129836848Y-56891181D01*
X129551133Y-56891181D01*
X129455895Y-56843562D01*
X129408276Y-56795943D01*
X130979705Y-56891181D02*
X130408276Y-56891181D01*
X130693990Y-56891181D02*
X130693990Y-55891181D01*
X130598752Y-56034038D01*
X130503514Y-56129276D01*
X130408276Y-56176895D01*
X111043981Y-58503986D02*
X110043981Y-58503986D01*
X110043981Y-58265891D01*
X110091600Y-58123033D01*
X110186838Y-58027795D01*
X110282076Y-57980176D01*
X110472552Y-57932557D01*
X110615410Y-57932557D01*
X110805886Y-57980176D01*
X110901124Y-58027795D01*
X110996362Y-58123033D01*
X111043981Y-58265891D01*
X111043981Y-58503986D01*
X110139219Y-57551605D02*
X110091600Y-57503986D01*
X110043981Y-57408748D01*
X110043981Y-57170652D01*
X110091600Y-57075414D01*
X110139219Y-57027795D01*
X110234457Y-56980176D01*
X110329695Y-56980176D01*
X110472552Y-57027795D01*
X111043981Y-57599224D01*
X111043981Y-56980176D01*
X110139219Y-56599224D02*
X110091600Y-56551605D01*
X110043981Y-56456367D01*
X110043981Y-56218271D01*
X110091600Y-56123033D01*
X110139219Y-56075414D01*
X110234457Y-56027795D01*
X110329695Y-56027795D01*
X110472552Y-56075414D01*
X111043981Y-56646843D01*
X111043981Y-56027795D01*
X107005381Y-59939157D02*
X106529190Y-60272491D01*
X107005381Y-60510586D02*
X106005381Y-60510586D01*
X106005381Y-60129633D01*
X106053000Y-60034395D01*
X106100619Y-59986776D01*
X106195857Y-59939157D01*
X106338714Y-59939157D01*
X106433952Y-59986776D01*
X106481571Y-60034395D01*
X106529190Y-60129633D01*
X106529190Y-60510586D01*
X106005381Y-59605824D02*
X106005381Y-58986776D01*
X106386333Y-59320110D01*
X106386333Y-59177252D01*
X106433952Y-59082014D01*
X106481571Y-59034395D01*
X106576810Y-58986776D01*
X106814905Y-58986776D01*
X106910143Y-59034395D01*
X106957762Y-59082014D01*
X107005381Y-59177252D01*
X107005381Y-59462967D01*
X106957762Y-59558205D01*
X106910143Y-59605824D01*
X106100619Y-58605824D02*
X106053000Y-58558205D01*
X106005381Y-58462967D01*
X106005381Y-58224871D01*
X106053000Y-58129633D01*
X106100619Y-58082014D01*
X106195857Y-58034395D01*
X106291095Y-58034395D01*
X106433952Y-58082014D01*
X107005381Y-58653443D01*
X107005381Y-58034395D01*
X106445621Y-100764933D02*
X107159907Y-100764933D01*
X107302764Y-100812553D01*
X107398002Y-100907791D01*
X107445621Y-101050648D01*
X107445621Y-101145886D01*
X107445621Y-100241124D02*
X107445621Y-100050648D01*
X107398002Y-99955409D01*
X107350383Y-99907790D01*
X107207526Y-99812552D01*
X107017050Y-99764933D01*
X106636097Y-99764933D01*
X106540859Y-99812552D01*
X106493240Y-99860171D01*
X106445621Y-99955409D01*
X106445621Y-100145886D01*
X106493240Y-100241124D01*
X106540859Y-100288743D01*
X106636097Y-100336362D01*
X106874192Y-100336362D01*
X106969430Y-100288743D01*
X107017050Y-100241124D01*
X107064669Y-100145886D01*
X107064669Y-99955409D01*
X107017050Y-99860171D01*
X106969430Y-99812552D01*
X106874192Y-99764933D01*
X97093162Y-99705421D02*
X96759828Y-99229230D01*
X96521733Y-99705421D02*
X96521733Y-98705421D01*
X96902686Y-98705421D01*
X96997924Y-98753040D01*
X97045543Y-98800659D01*
X97093162Y-98895897D01*
X97093162Y-99038754D01*
X97045543Y-99133992D01*
X96997924Y-99181611D01*
X96902686Y-99229230D01*
X96521733Y-99229230D01*
X97378876Y-98705421D02*
X97712209Y-99705421D01*
X98045543Y-98705421D01*
X98283638Y-98705421D02*
X98902686Y-98705421D01*
X98569352Y-99086373D01*
X98712210Y-99086373D01*
X98807448Y-99133992D01*
X98855067Y-99181611D01*
X98902686Y-99276850D01*
X98902686Y-99514945D01*
X98855067Y-99610183D01*
X98807448Y-99657802D01*
X98712210Y-99705421D01*
X98426495Y-99705421D01*
X98331257Y-99657802D01*
X98283638Y-99610183D01*
X124808381Y-103302678D02*
X124332190Y-103636012D01*
X124808381Y-103874107D02*
X123808381Y-103874107D01*
X123808381Y-103493154D01*
X123856000Y-103397916D01*
X123903619Y-103350297D01*
X123998857Y-103302678D01*
X124141714Y-103302678D01*
X124236952Y-103350297D01*
X124284571Y-103397916D01*
X124332190Y-103493154D01*
X124332190Y-103874107D01*
X123808381Y-103016964D02*
X124808381Y-102683631D01*
X123808381Y-102350297D01*
X124141714Y-101588392D02*
X124808381Y-101588392D01*
X123760762Y-101826488D02*
X124475048Y-102064583D01*
X124475048Y-101445535D01*
X138056881Y-101011598D02*
X137580690Y-101344932D01*
X138056881Y-101583027D02*
X137056881Y-101583027D01*
X137056881Y-101202074D01*
X137104500Y-101106836D01*
X137152119Y-101059217D01*
X137247357Y-101011598D01*
X137390214Y-101011598D01*
X137485452Y-101059217D01*
X137533071Y-101106836D01*
X137580690Y-101202074D01*
X137580690Y-101583027D01*
X137056881Y-100725884D02*
X138056881Y-100392551D01*
X137056881Y-100059217D01*
X137056881Y-99249693D02*
X137056881Y-99725884D01*
X137533071Y-99773503D01*
X137485452Y-99725884D01*
X137437833Y-99630646D01*
X137437833Y-99392550D01*
X137485452Y-99297312D01*
X137533071Y-99249693D01*
X137628310Y-99202074D01*
X137866405Y-99202074D01*
X137961643Y-99249693D01*
X138009262Y-99297312D01*
X138056881Y-99392550D01*
X138056881Y-99630646D01*
X138009262Y-99725884D01*
X137961643Y-99773503D01*
M02*
