M48
;DRILL file {KiCad 4.0.7} date 05/28/19 10:03:27
;FORMAT={-:-/ absolute / metric / decimal}
FMAT,2
METRIC,TZ
T1C0.400
T2C0.600
T3C0.800
T4C0.900
T5C1.000
T6C1.100
T7C1.200
T8C1.300
T9C1.520
T10C3.048
%
G90
G05
M71
T1
X102.616Y-94.234
X111.785Y-104.597
T2
X75.387Y-76.835
X76.657Y-75.565
X77.927Y-76.835
X118.745Y-91.567
X120.015Y-90.297
X120.015Y-92.837
T3
X73.482Y-60.795
X75.159Y-72.42
X78.482Y-60.795
X82.702Y-57.391
X82.702Y-65.011
X82.779Y-72.42
X85.204Y-60.833
X86.446Y-71.638
X86.446Y-79.258
X87.224Y-83.376
X87.224Y-90.995
X87.376Y-99.504
X90.246Y-54.534
X90.25Y-72.964
X90.302Y-76.5
X90.302Y-79.04
X90.302Y-81.58
X90.302Y-84.12
X92.824Y-60.833
X94.869Y-87.63
X94.869Y-95.25
X94.996Y-99.504
X95.246Y-54.534
X95.25Y-72.964
X97.922Y-76.5
X97.922Y-79.04
X97.922Y-81.58
X97.922Y-84.12
X98.044Y-88.138
X98.044Y-91.44
X101.6Y-77.47
X101.6Y-85.09
X103.327Y-66.789
X103.327Y-74.409
X104.902Y-77.47
X104.902Y-85.09
X105.664Y-88.138
X105.664Y-91.44
X106.553Y-97.79
X108.204Y-90.17
X108.204Y-93.726
X108.712Y-79.248
X108.712Y-86.868
X111.252Y-79.248
X111.252Y-86.868
X112.509Y-71.438
X113.034Y-74.752
X113.792Y-79.248
X113.792Y-86.868
X114.071Y-53.076
X114.071Y-60.696
X114.173Y-97.79
X115.824Y-90.17
X115.824Y-93.726
X116.332Y-79.248
X116.332Y-86.868
X116.649Y-97.727
X117.577Y-56.352
X118.034Y-74.752
X120.129Y-71.438
X122.577Y-56.352
X122.936Y-79.455
X122.936Y-84.455
X123.19Y-71.835
X123.19Y-76.835
X124.269Y-97.727
X125.73Y-52.578
X125.73Y-56.388
X127.063Y-89.027
X127.063Y-96.647
X130.128Y-76.581
X130.378Y-98.984
X130.404Y-95.707
X130.556Y-83.248
X130.683Y-72.136
X131.077Y-66.548
X131.779Y-89.662
X133.35Y-52.578
X133.35Y-56.388
X135.128Y-76.581
X136.779Y-89.662
X137.998Y-98.984
X138.024Y-95.707
X138.176Y-83.248
X138.303Y-72.136
X138.697Y-66.548
T4
X137.541Y-51.689
X137.541Y-54.229
X137.668Y-57.912
X137.668Y-60.452
T5
X59.92Y-146.
X62.46Y-146.
X65.Y-146.
X77.92Y-146.
X80.46Y-146.
X83.Y-146.
X95.92Y-146.
X98.46Y-146.
X101.Y-146.
X103.099Y-53.759
X105.639Y-53.759
X108.179Y-53.759
X113.92Y-146.
X116.46Y-146.
X119.Y-146.
X131.92Y-146.
X134.46Y-146.
X137.Y-146.
T6
X78.461Y-68.453
X86.081Y-68.453
X91.186Y-87.376
X91.186Y-94.996
X130.619Y-80.2
X138.239Y-80.2
T7
X73.647Y-53.48
X75.108Y-135.179
X76.556Y-127.457
X78.143Y-96.957
X78.143Y-104.457
X78.181Y-83.254
X78.181Y-90.754
X78.334Y-110.712
X78.334Y-118.212
X86.169Y-64.96
X86.347Y-53.48
X87.376Y-105.41
X98.87Y-64.96
X103.048Y-135.179
X104.496Y-127.457
X106.045Y-135.191
X107.823Y-127.508
X115.316Y-105.41
X125.4Y-103.048
X126.746Y-73.533
X126.746Y-86.233
X133.985Y-135.191
X135.763Y-127.508
X138.1Y-103.048
X142.684Y-64.922
X142.684Y-69.922
X142.684Y-74.922
X142.939Y-81.915
X142.939Y-86.915
X142.939Y-91.915
T8
X52.807Y-134.849
X52.807Y-140.818
X52.883Y-128.905
X52.934Y-116.916
X52.934Y-122.86
X52.959Y-110.947
X53.061Y-70.663
X53.086Y-64.795
X53.111Y-58.903
X53.111Y-76.352
X53.137Y-82.296
X53.264Y-88.265
X68.047Y-134.849
X68.047Y-140.818
X68.123Y-128.905
X68.174Y-116.916
X68.174Y-122.86
X68.199Y-110.947
X68.301Y-70.663
X68.326Y-64.795
X68.351Y-58.903
X68.351Y-76.352
X68.377Y-82.296
X68.504Y-88.265
T9
X65.456Y-94.742
X65.456Y-99.822
X65.456Y-104.902
X103.099Y-60.02
X108.179Y-60.02
X143.612Y-99.911
X143.612Y-104.991
X143.612Y-110.071
X144.374Y-128.118
X144.374Y-133.198
T10
X53.Y-53.
X53.Y-147.
X147.Y-53.
X147.Y-147.
T0
M30
