G04 #@! TF.FileFunction,Soldermask,Top*
%FSLAX46Y46*%
G04 Gerber Fmt 4.6, Leading zero omitted, Abs format (unit mm)*
G04 Created by KiCad (PCBNEW 4.0.7) date 05/28/19 16:54:45*
%MOMM*%
%LPD*%
G01*
G04 APERTURE LIST*
%ADD10C,0.100000*%
%ADD11R,3.400000X3.400000*%
%ADD12C,3.400000*%
%ADD13C,2.800000*%
%ADD14O,2.800000X2.800000*%
%ADD15C,2.000000*%
%ADD16R,3.000000X3.000000*%
%ADD17O,3.000000X3.000000*%
%ADD18R,2.000000X2.000000*%
%ADD19O,2.000000X2.000000*%
%ADD20R,2.600000X2.600000*%
%ADD21O,2.600000X2.600000*%
%ADD22R,2.200000X2.200000*%
%ADD23C,2.200000*%
%ADD24C,1.400000*%
%ADD25R,1.400000X1.400000*%
%ADD26C,2.900000*%
%ADD27R,2.800000X2.800000*%
%ADD28O,2.200000X2.200000*%
%ADD29C,4.464000*%
%ADD30R,2.100000X2.100000*%
%ADD31O,2.100000X2.100000*%
%ADD32C,1.840000*%
G04 APERTURE END LIST*
D10*
D11*
X143611600Y-99910900D03*
D12*
X143611600Y-104990900D03*
X143611600Y-110070900D03*
D13*
X75107800Y-135178800D03*
D14*
X103047800Y-135178800D03*
D15*
X123190000Y-76835000D03*
X123190000Y-71835000D03*
X135128000Y-76581000D03*
X130128000Y-76581000D03*
X122936000Y-84455000D03*
X122936000Y-79455000D03*
X95250000Y-72964040D03*
X90250000Y-72964040D03*
X118033800Y-74752200D03*
X113033800Y-74752200D03*
D16*
X68300600Y-70662800D03*
D17*
X53060600Y-70662800D03*
D16*
X68122800Y-128905000D03*
D17*
X52882800Y-128905000D03*
D16*
X53111400Y-76352400D03*
D17*
X68351400Y-76352400D03*
D16*
X52933600Y-122859800D03*
D17*
X68173600Y-122859800D03*
D18*
X85204300Y-60833000D03*
D19*
X92824300Y-60833000D03*
D18*
X82702400Y-57391300D03*
D19*
X82702400Y-65011300D03*
D20*
X78460600Y-68453000D03*
D21*
X86080600Y-68453000D03*
D20*
X91186000Y-87376000D03*
D21*
X91186000Y-94996000D03*
D18*
X103327200Y-66789300D03*
D19*
X103327200Y-74409300D03*
D18*
X130556000Y-83248500D03*
D19*
X138176000Y-83248500D03*
D20*
X130619500Y-80200500D03*
D21*
X138239500Y-80200500D03*
D22*
X137541000Y-54229000D03*
D23*
X137541000Y-51689000D03*
D11*
X65455800Y-104902000D03*
D12*
X65455800Y-99822000D03*
X65455800Y-94742000D03*
D11*
X144373600Y-128117600D03*
D12*
X144373600Y-133197600D03*
D24*
X118745000Y-91567000D03*
X120015000Y-90297000D03*
D25*
X120015000Y-92837000D03*
D24*
X76657200Y-75565000D03*
X77927200Y-76835000D03*
D25*
X75387200Y-76835000D03*
D15*
X87376000Y-99504500D03*
D19*
X94996000Y-99504500D03*
D13*
X73647300Y-53479700D03*
D14*
X86347300Y-53479700D03*
D13*
X98869500Y-64960500D03*
D14*
X86169500Y-64960500D03*
D15*
X94869000Y-95250000D03*
D19*
X94869000Y-87630000D03*
D15*
X98044000Y-88138000D03*
D19*
X105664000Y-88138000D03*
D15*
X98044000Y-91440000D03*
D19*
X105664000Y-91440000D03*
D13*
X87376000Y-105410000D03*
D14*
X115316000Y-105410000D03*
D15*
X130683000Y-72136000D03*
D19*
X138303000Y-72136000D03*
D15*
X112509300Y-71437500D03*
D19*
X120129300Y-71437500D03*
D15*
X106553000Y-97790000D03*
D19*
X114173000Y-97790000D03*
D15*
X124269500Y-97726500D03*
D19*
X116649500Y-97726500D03*
D15*
X127063500Y-96647000D03*
D19*
X127063500Y-89027000D03*
D15*
X87223600Y-83375500D03*
D19*
X87223600Y-90995500D03*
D13*
X126746000Y-73533000D03*
D14*
X126746000Y-86233000D03*
D13*
X123748800Y-109971840D03*
D14*
X136448800Y-109971840D03*
D15*
X138696700Y-66548000D03*
D19*
X131076700Y-66548000D03*
D15*
X104902000Y-85090000D03*
D19*
X104902000Y-77470000D03*
D15*
X75158600Y-72420480D03*
D19*
X82778600Y-72420480D03*
D15*
X86446360Y-71638160D03*
D19*
X86446360Y-79258160D03*
D15*
X101600000Y-85090000D03*
D19*
X101600000Y-77470000D03*
D15*
X125730000Y-52578000D03*
D19*
X133350000Y-52578000D03*
D26*
X142938500Y-86915000D03*
X142938500Y-91915000D03*
X142938500Y-81915000D03*
X142684500Y-69922400D03*
X142684500Y-74922400D03*
X142684500Y-64922400D03*
D18*
X90302080Y-76499720D03*
D19*
X97922080Y-84119720D03*
X90302080Y-79039720D03*
X97922080Y-81579720D03*
X90302080Y-81579720D03*
X97922080Y-79039720D03*
X90302080Y-84119720D03*
X97922080Y-76499720D03*
D18*
X116332000Y-79248000D03*
D19*
X108712000Y-86868000D03*
X113792000Y-79248000D03*
X111252000Y-86868000D03*
X111252000Y-79248000D03*
X113792000Y-86868000D03*
X108712000Y-79248000D03*
X116332000Y-86868000D03*
D18*
X90246200Y-54533800D03*
D15*
X95246200Y-54533800D03*
D18*
X73482200Y-60794900D03*
D15*
X78482200Y-60794900D03*
D18*
X136779000Y-89662000D03*
D15*
X131779000Y-89662000D03*
D16*
X68046600Y-140817600D03*
D17*
X52806600Y-140817600D03*
D16*
X52933600Y-116916200D03*
D17*
X68173600Y-116916200D03*
D16*
X68046600Y-134848600D03*
D17*
X52806600Y-134848600D03*
D16*
X52959000Y-110947200D03*
D17*
X68199000Y-110947200D03*
D16*
X68351400Y-58902600D03*
D17*
X53111400Y-58902600D03*
D16*
X53263800Y-88265000D03*
D17*
X68503800Y-88265000D03*
D16*
X68326000Y-64795400D03*
D17*
X53086000Y-64795400D03*
D16*
X53136800Y-82296000D03*
D17*
X68376800Y-82296000D03*
D27*
X78143100Y-104457500D03*
D13*
X78143100Y-96957500D03*
D22*
X137000000Y-146000000D03*
D28*
X134460000Y-146000000D03*
X131920000Y-146000000D03*
D22*
X101000000Y-146000000D03*
D28*
X98460000Y-146000000D03*
X95920000Y-146000000D03*
D22*
X119000000Y-146000000D03*
D28*
X116460000Y-146000000D03*
X113920000Y-146000000D03*
D22*
X83000000Y-146000000D03*
D28*
X80460000Y-146000000D03*
X77920000Y-146000000D03*
D22*
X65000000Y-146000000D03*
D28*
X62460000Y-146000000D03*
X59920000Y-146000000D03*
D15*
X108204000Y-93726000D03*
D19*
X115824000Y-93726000D03*
D15*
X115824000Y-90170000D03*
D19*
X108204000Y-90170000D03*
D13*
X76555600Y-127457200D03*
D14*
X104495600Y-127457200D03*
D13*
X133985000Y-135191500D03*
D14*
X106045000Y-135191500D03*
D13*
X135763000Y-127508000D03*
D14*
X107823000Y-127508000D03*
D27*
X78333600Y-118211600D03*
D13*
X78333600Y-110711600D03*
D27*
X78181200Y-90754200D03*
D13*
X78181200Y-83254200D03*
D29*
X53000000Y-53000000D03*
X53000000Y-147000000D03*
X147000000Y-53000000D03*
X147000000Y-147000000D03*
D18*
X117576600Y-56352440D03*
D15*
X122576600Y-56352440D03*
D11*
X118630700Y-64452500D03*
D12*
X123710700Y-64452500D03*
D15*
X114071400Y-53075840D03*
D19*
X114071400Y-60695840D03*
D22*
X137668000Y-60452000D03*
D23*
X137668000Y-57912000D03*
D15*
X125730000Y-56388000D03*
D19*
X133350000Y-56388000D03*
D20*
X110642400Y-53365400D03*
D21*
X110642400Y-60985400D03*
D13*
X106781600Y-65773300D03*
D14*
X106781600Y-53073300D03*
D30*
X104663240Y-100431600D03*
D31*
X102123240Y-100431600D03*
D32*
X104241600Y-95686880D03*
X101701600Y-95686880D03*
X99161600Y-95686880D03*
X128016000Y-100167440D03*
X128016000Y-102707440D03*
X128016000Y-105247440D03*
X133804660Y-97901760D03*
X133804660Y-100441760D03*
X133804660Y-102981760D03*
M02*
