M48
;DRILL file {KiCad 4.0.7} date 06/10/19 09:32:48
;FORMAT={-:-/ absolute / metric / decimal}
FMAT,2
METRIC,TZ
T1C0.600
T2C0.800
T3C0.900
T4C1.000
T5C1.100
T6C1.200
T7C1.300
T8C1.520
T9C3.048
%
G90
G05
M71
T1
X72.644Y-77.572
X73.914Y-76.302
X75.184Y-77.572
X118.745Y-91.567
X120.015Y-90.297
X120.015Y-92.837
T2
X73.482Y-60.795
X73.66Y-72.238
X77.876Y-78.283
X78.482Y-60.795
X81.28Y-72.238
X82.042Y-61.468
X82.235Y-64.374
X82.876Y-78.283
X85.801Y-71.069
X85.801Y-78.689
X87.439Y-114.998
X87.439Y-122.618
X89.471Y-88.837
X89.662Y-61.468
X89.855Y-64.374
X90.246Y-54.534
X90.25Y-72.964
X90.302Y-76.5
X90.302Y-79.04
X90.302Y-81.58
X90.302Y-84.12
X92.011Y-88.837
X92.456Y-61.722
X92.456Y-64.516
X94.551Y-88.837
X95.186Y-93.345
X95.186Y-100.965
X95.246Y-54.534
X95.25Y-72.964
X96.52Y-68.834
X97.922Y-76.5
X97.922Y-79.04
X97.922Y-81.58
X97.922Y-84.12
X98.044Y-88.138
X98.044Y-91.44
X99.314Y-95.504
X100.076Y-61.722
X100.076Y-64.516
X101.6Y-77.47
X101.6Y-85.09
X101.854Y-95.504
X104.14Y-68.834
X104.394Y-95.504
X104.902Y-77.47
X104.902Y-85.09
X105.664Y-88.138
X105.664Y-91.44
X106.619Y-105.781
X107.635Y-100.203
X108.712Y-79.248
X108.712Y-86.868
X109.083Y-89.687
X109.083Y-97.307
X109.301Y-71.303
X111.252Y-79.248
X111.252Y-86.868
X111.342Y-74.712
X112.431Y-89.743
X112.431Y-97.363
X113.792Y-79.248
X113.792Y-86.868
X114.046Y-54.356
X114.046Y-61.976
X114.239Y-105.781
X115.255Y-100.203
X115.595Y-89.804
X115.595Y-97.424
X116.332Y-79.248
X116.332Y-86.868
X116.342Y-74.712
X116.921Y-71.303
X116.929Y-105.702
X117.577Y-56.352
X119.761Y-79.629
X119.761Y-87.249
X122.577Y-56.352
X122.936Y-79.455
X122.936Y-84.455
X123.19Y-71.835
X123.19Y-76.835
X124.549Y-105.702
X125.708Y-80.061
X125.73Y-52.578
X125.73Y-56.388
X127.063Y-89.027
X127.063Y-96.647
X130.683Y-72.136
X130.708Y-80.061
X131.077Y-66.548
X131.652Y-90.932
X133.35Y-52.578
X133.35Y-56.388
X136.652Y-90.932
X138.303Y-72.136
X138.697Y-66.548
T3
X137.541Y-51.689
X137.541Y-54.229
X137.668Y-57.912
X137.668Y-60.452
T4
X59.69Y-145.821
X62.23Y-145.821
X64.77Y-145.821
X77.978Y-145.771
X80.518Y-145.771
X83.058Y-145.771
X86.893Y-81.763
X86.893Y-84.303
X93.767Y-105.865
X95.885Y-145.771
X96.307Y-105.865
X98.425Y-145.771
X100.965Y-145.771
X113.919Y-145.771
X116.459Y-145.771
X118.999Y-145.771
X119.725Y-74.071
X119.725Y-76.611
X131.978Y-145.796
X134.518Y-145.796
X137.058Y-145.796
T5
X86.868Y-94.945
X86.868Y-102.565
X91.63Y-93.218
X91.63Y-100.838
X110.49Y-54.102
X110.49Y-61.722
X129.54Y-84.836
X137.16Y-84.836
T6
X73.647Y-53.48
X74.244Y-67.894
X75.108Y-135.179
X76.556Y-127.457
X78.143Y-96.957
X78.143Y-104.457
X78.181Y-83.254
X78.181Y-90.754
X78.334Y-110.712
X78.334Y-118.212
X86.347Y-53.48
X86.944Y-67.894
X90.678Y-111.76
X103.048Y-135.179
X104.496Y-127.457
X106.045Y-135.191
X106.782Y-53.073
X106.782Y-65.773
X107.823Y-127.508
X118.618Y-111.76
X123.749Y-109.972
X133.985Y-135.191
X135.763Y-127.508
X136.449Y-109.972
X142.684Y-64.922
X142.684Y-69.922
X142.684Y-74.922
X142.939Y-81.915
X142.939Y-86.915
X142.939Y-91.915
T7
X52.807Y-134.849
X52.807Y-140.818
X52.883Y-128.905
X52.934Y-116.916
X52.934Y-122.86
X52.959Y-110.947
X53.061Y-70.663
X53.086Y-64.795
X53.111Y-58.903
X53.111Y-76.352
X53.137Y-82.296
X53.264Y-88.265
X68.047Y-134.849
X68.047Y-140.818
X68.123Y-128.905
X68.174Y-116.916
X68.174Y-122.86
X68.199Y-110.947
X68.301Y-70.663
X68.326Y-64.795
X68.351Y-58.903
X68.351Y-76.352
X68.377Y-82.296
X68.504Y-88.265
T8
X65.456Y-94.742
X65.456Y-99.822
X65.456Y-104.902
X118.631Y-64.453
X123.711Y-64.453
X143.612Y-99.911
X143.612Y-104.991
X143.612Y-110.071
X144.374Y-128.118
X144.374Y-133.198
T9
X53.Y-53.
X53.Y-147.
X147.Y-53.
X147.Y-147.
T0
M30
