M48
;DRILL file {KiCad 4.0.7} date 07/12/19 10:05:38
;FORMAT={-:-/ absolute / metric / decimal}
FMAT,2
METRIC,TZ
T1C0.400
T2C0.600
T3C0.800
T4C0.900
T5C1.000
T6C1.100
T7C1.200
T8C1.300
T9C1.520
T10C3.048
%
G90
G05
M71
T1
X141.768Y-84.714
T2
X72.644Y-77.572
X73.914Y-76.302
X75.184Y-77.572
X118.745Y-91.567
X120.015Y-90.297
X120.015Y-92.837
T3
X72.733Y-60.77
X73.66Y-72.238
X77.733Y-60.77
X77.876Y-78.283
X80.924Y-64.275
X80.962Y-61.341
X81.28Y-72.238
X82.876Y-78.283
X85.496Y-54.369
X85.801Y-71.069
X85.801Y-78.689
X87.439Y-114.998
X87.439Y-122.618
X88.544Y-64.275
X88.582Y-61.341
X89.471Y-88.837
X89.691Y-73.315
X90.302Y-76.5
X90.302Y-79.04
X90.302Y-81.58
X90.302Y-84.12
X90.496Y-54.369
X92.011Y-88.837
X94.3Y-52.39
X94.3Y-60.01
X94.551Y-88.837
X94.691Y-73.315
X95.186Y-93.345
X95.186Y-100.965
X96.952Y-52.451
X96.952Y-60.071
X96.98Y-72.281
X97.922Y-76.5
X97.922Y-79.04
X97.922Y-81.58
X97.922Y-84.12
X98.044Y-88.138
X98.044Y-91.44
X99.314Y-95.504
X99.979Y-61.244
X101.6Y-77.47
X101.6Y-85.09
X101.854Y-95.504
X104.394Y-95.504
X104.6Y-72.281
X104.902Y-77.47
X104.902Y-85.09
X105.664Y-88.138
X105.664Y-91.44
X106.619Y-105.781
X107.599Y-61.244
X107.635Y-100.203
X108.242Y-72.809
X108.269Y-76.025
X108.712Y-79.248
X108.712Y-86.868
X109.083Y-89.687
X109.083Y-97.307
X109.906Y-64.643
X110.109Y-61.57
X111.252Y-79.248
X111.252Y-86.868
X112.431Y-89.743
X112.431Y-97.363
X113.269Y-76.025
X113.792Y-79.248
X113.792Y-86.868
X114.239Y-105.781
X115.255Y-100.203
X115.595Y-89.804
X115.595Y-97.424
X115.862Y-72.809
X116.332Y-79.248
X116.332Y-86.868
X116.929Y-105.702
X117.526Y-64.643
X117.729Y-61.57
X118.161Y-66.675
X119.304Y-53.293
X119.304Y-58.293
X119.761Y-79.629
X119.761Y-87.249
X121.082Y-62.027
X122.936Y-79.455
X122.936Y-84.455
X124.549Y-105.702
X125.495Y-58.806
X125.73Y-52.578
X125.74Y-55.697
X125.781Y-66.675
X126.187Y-94.907
X126.187Y-102.527
X126.751Y-85.954
X127.38Y-89.101
X128.321Y-75.946
X128.448Y-65.278
X128.448Y-72.898
X128.702Y-62.027
X129.53Y-79.07
X130.188Y-82.22
X130.495Y-58.806
X130.988Y-65.278
X130.988Y-72.898
X131.623Y-62.103
X132.38Y-89.101
X133.227Y-100.546
X133.35Y-52.578
X133.36Y-55.697
X133.528Y-65.278
X133.528Y-72.898
X134.371Y-85.954
X134.475Y-88.989
X135.941Y-75.946
X136.068Y-65.278
X136.068Y-72.898
X137.15Y-79.07
X137.808Y-82.22
X138.227Y-100.546
X139.116Y-69.977
X139.116Y-77.597
X139.243Y-62.103
X139.475Y-88.989
X141.046Y-58.255
X148.666Y-58.255
T4
X137.465Y-56.302
X137.465Y-58.842
X137.521Y-51.272
X137.521Y-53.812
T5
X59.69Y-145.821
X62.23Y-145.821
X64.77Y-145.821
X77.978Y-145.771
X80.518Y-145.771
X83.058Y-145.771
X86.893Y-81.763
X86.893Y-84.303
X93.767Y-105.865
X95.885Y-145.771
X96.307Y-105.865
X98.425Y-145.771
X100.508Y-65.024
X100.838Y-68.999
X100.965Y-145.771
X103.048Y-65.024
X103.378Y-68.999
X105.588Y-65.024
X105.918Y-68.999
X113.919Y-145.771
X116.459Y-145.771
X118.999Y-145.771
X119.725Y-74.071
X119.725Y-76.611
X131.978Y-145.796
X134.518Y-145.796
X137.058Y-145.796
T6
X86.868Y-94.945
X86.868Y-102.565
X91.63Y-93.218
X91.63Y-100.838
X100.061Y-57.699
X107.681Y-57.699
X129.502Y-93.688
X137.122Y-93.688
T7
X69.304Y-53.492
X74.244Y-67.894
X75.108Y-135.179
X76.556Y-127.457
X78.143Y-96.957
X78.143Y-104.457
X78.181Y-83.254
X78.181Y-90.754
X78.334Y-110.712
X78.334Y-118.212
X82.004Y-53.492
X86.944Y-67.894
X91.211Y-115.128
X93.015Y-65.532
X95.555Y-65.532
X100.127Y-53.975
X103.048Y-135.179
X104.496Y-127.457
X106.045Y-135.191
X107.823Y-127.508
X112.827Y-53.975
X119.151Y-115.128
X123.749Y-109.972
X133.985Y-135.191
X135.763Y-127.508
X136.449Y-109.972
X142.291Y-89.662
X142.291Y-94.662
X142.291Y-99.662
X142.545Y-64.008
X142.545Y-71.298
X142.545Y-76.298
X142.545Y-81.298
X144.577Y-106.934
X144.577Y-109.474
X144.577Y-112.014
X145.085Y-64.008
X147.625Y-64.008
T8
X52.807Y-134.849
X52.807Y-140.818
X52.883Y-128.905
X52.934Y-116.916
X52.934Y-122.86
X52.959Y-110.947
X53.061Y-70.663
X53.086Y-64.795
X53.111Y-58.903
X53.111Y-76.352
X53.137Y-82.296
X53.264Y-88.265
X68.047Y-134.849
X68.047Y-140.818
X68.123Y-128.905
X68.174Y-116.916
X68.174Y-122.86
X68.199Y-110.947
X68.301Y-70.663
X68.326Y-64.795
X68.351Y-58.903
X68.351Y-76.352
X68.377Y-82.296
X68.504Y-88.265
T9
X65.456Y-94.742
X65.456Y-99.822
X65.456Y-104.902
X144.374Y-128.118
X144.374Y-133.198
T10
X53.Y-53.
X53.Y-147.
X147.Y-53.
X147.Y-147.
T0
M30
